<?xml version="1.0" encoding="utf-8"?>
<!-- Generator: Adobe Illustrator 23.0.1, SVG Export Plug-In . SVG Version: 6.00 Build 0)  -->
<svg version="1.1" id="Layer_1" xmlns="http://www.w3.org/2000/svg" xmlns:xlink="http://www.w3.org/1999/xlink" x="0px" y="0px"
	 viewBox="0 0 141.73 133.71" style="enable-background:new 0 0 141.73 133.71;" xml:space="preserve">
<style type="text/css">
	.st0{fill:#FFFFFF;}
</style>
<g>
	<path class="st0" d="M41.84,78.54h1.87v0.38h-1.87V78.54z M66.39,111.56v2.88h9.11v-2.88L74.2,113h-1.82l-1.43-1.44L69.51,113
		h-1.82L66.39,111.56z M60.34,91.04v2.88h9.11v-2.88l-1.3,1.44h-1.82l-1.43-1.44l-1.43,1.44h-1.82L60.34,91.04z M72.44,91.04v2.88
		h9.11v-2.88l-1.3,1.44h-1.82l-1.43-1.44l-1.43,1.44h-1.82L72.44,91.04z M70.94,96.23c-1.46,0-2.12,1.05-3.58,1.05
		s-2.13-1.08-3.58-1.05c-1.36,0.03-1.96,1.03-3.32,1.05c-1.34,0.02-2.32-0.96-3.32-0.92v9.04c0.05,1.89,1.51,4.61,3.31,4.61
		c1.36-0.02,1.97-1.01,3.32-1.04c1.46-0.03,2.12,1.05,3.58,1.05s2.13-1.05,3.58-1.05c1.46,0,2.13,1.05,3.58,1.05
		c1.46,0,2.12-1.08,3.58-1.05c1.36,0.03,1.96,1.02,3.32,1.04c1.81,0,3.27-2.72,3.32-4.61v-9.04c-1-0.05-1.97,0.94-3.32,0.92
		c-1.36-0.02-1.96-1.02-3.32-1.05c-1.46-0.03-2.12,1.05-3.58,1.05C73.07,97.28,72.4,96.23,70.94,96.23 M70.94,119.54
		c-0.59,0-14.9-6.23-14.9-14.13V88.17h29.8v17.24C85.84,113.31,71.52,119.54,70.94,119.54 M68.81,106.2l-0.62-1.09l0.62-1.08h-1.25
		l-0.62-1.08l-0.62,1.08h-1.25l0.62,1.08l-0.62,1.09h1.25l0.62,1.09l0.62-1.09H68.81z M76.82,102.24l-0.62-1.08l0.62-1.09h-1.25
		l-0.62-1.09l-0.62,1.09h-1.25l0.62,1.09l-0.62,1.08h1.25l0.62,1.09l0.62-1.09H76.82z M71.09,102.24l-0.62-1.08l0.62-1.09h-1.25
		l-0.62-1.09l-0.62,1.09h-1.25l0.62,1.09l-0.62,1.08h1.25l0.62,1.09l0.62-1.09H71.09z M74.54,106.2l-0.62-1.09l0.62-1.08h-1.25
		l-0.62-1.08l-0.62,1.08H70.8l0.62,1.08l-0.62,1.09h1.25l0.62,1.09l0.62-1.09H74.54z M63.59,98.23h14.7v9.8h-14.7V98.23z
		 M52.66,96.53c-0.84,0-1.91-1.09-1.82-1.77c0.5-3.71,2.4-2.52,3.8-3.6C55.04,91.68,55.63,96.53,52.66,96.53 M97.16,99.9
		c-0.03,0-0.15,1.55-1.56,2.61c0.79-0.03,2.07,0.08,2.34-0.92C98.21,100.51,97.31,99.95,97.16,99.9 M94.95,99.38
		c-2.79-0.12-3.88,1.56-2.94,2.19C93.78,102.79,94.93,99.34,94.95,99.38 M95.08,95.33c-0.37,0.4-0.97,0.75-1.7,0.92
		c0.76-0.05,2.18-0.06,2.87,0C95.73,96.02,95.08,95.33,95.08,95.33 M89.67,91.98c0,1.21,0.98,2.2,2.19,2.2
		c1.21,0,2.19-0.99,2.19-2.2c0-1.22-0.98-2.2-2.19-2.2C90.65,89.78,89.67,90.77,89.67,91.98 M98.45,93.78
		c0.24-0.38,0.85-0.53,1.45-0.32c0.65,0.22,1.05,0.77,0.93,1.24c3.22-0.06,3.99-0.81,4.01-0.78c-0.94,1.73-3.68,2.98-4.71,3.08
		c1.47,0.5,4.33,2.18,4.32,5.42c0,4.73-4.57,5.39-7.14,4.71c0.82,0.22,1.25,0.76,1.27,0.91H87.01v-9.56
		c0.34-0.4,1.05-0.92,1.88-1.27c0.52-0.22,0.46-0.81,0.46-0.81c-1.4-0.25-2.34-1.44-2.34-1.44v-5.49c0,0,1.39-1.96,4.68-1.96
		c2.63,0.02,4.03,2.22,4.03,2.22s1.1-0.93,3.25-0.91c4.86,0,5.99,4.71,5.99,4.71c-1.43-1.22-3.18-1.59-4.03-1.7
		c-0.08,0.43-0.53,0.75-1.06,0.75c-0.48,0-0.88-0.26-1.02-0.62l-0.4,0.26c0.06,0.15,0.09,0.32,0.07,0.5
		c-0.03,0.33-0.2,0.62-0.45,0.82L98.45,93.78z M90.88,91.98c0-0.54,0.44-0.98,0.98-0.98s0.98,0.44,0.98,0.98
		c0,0.54-0.44,0.98-0.98,0.98S90.88,92.53,90.88,91.98 M54.87,96.01v12.03H36.92c0.03-0.05,0.65-1.63,1.17-2.22
		c-0.45-0.37-0.82-0.71-0.78-0.65c-0.04-0.05,2.4-3.24,4.16-3.27c-0.35-0.28-0.67-0.64-0.65-0.65c0.63-0.71,1.75-0.75,5.47-1.05
		c3.71-0.33,4.23-1.31,4.29-4.32C51.5,96.98,53.06,98.33,54.87,96.01 M45.76,89.87c-1.19-0.82-1.79-1.13-2.21-1.05
		c-0.39,0.08-1.18,1.37-1.17,1.31C43.37,89.92,44.86,89.8,45.76,89.87 M41.34,94.83c-0.85-0.72-1.93-2.16-2.08-3.14
		c-0.11-0.73,0.39-1.18,0.39-1.18s-0.24-0.71-0.13-1.04c0.52-1.55,7.86-1.62,9.37-1.57c3.43,0.16,4.16,0,5.85-0.65
		c-0.04-0.06-0.57,2.53-3.77,2.48c-0.01,0.26-0.01,0.36,0,0.39c1.26,0.02,2.77-0.26,3.64-1.31c-0.03,0.88,0.3,1.95-1.43,2.35
		c-1.67,0.39-2.71,0.33-3.25,5.1c-0.11,1.34,0.01,2.52-2.21,3.01c-2.13,0.47-7.76,0.61-8.78,1.41l-0.2-0.36
		c1.12-0.77,1.83-1.97,1.69-3.27c0.23-0.15,0.57-0.26,0.78-0.26c-0.02,0.45-0.57,1.44,2.08,1.44c0.05,0,2.49,0.29,1.43-2.88
		c-0.33-0.99-0.62-2.11-1.82-2.09c-0.01-0.02-1.54,0.07-0.78,1.6c1.08,0.23,2.31,0.49,2.48,1.27c0.13,0.8-0.46,1.24-0.91,1.04
		c-0.44-0.19-1.71-0.91-2.6-0.91c-1.65,0-4.61,1.89-6.5-1.69c0.55,0.59,1.07,0.98,2.86,1.03C39.21,95.67,39.57,94.88,41.34,94.83
		 M78.43,72.34h1.87v0.38h-1.87V72.34z M38.02,76.17v-2.12c0-0.19-0.01-0.35-0.02-0.5h-0.78c-0.15,0-0.19,0.05-0.2,0.17l-0.02,0.4
		h-0.16c0-0.27-0.01-0.55-0.03-0.81c0.36,0,0.72,0.02,1.08,0.02h0.73c0.36,0,0.72-0.02,1.08-0.02c-0.03,0.26-0.04,0.54-0.04,0.81
		h-0.16l-0.02-0.4c-0.01-0.12-0.05-0.17-0.2-0.17h-0.78c-0.01,0.15-0.02,0.31-0.02,0.5v2.12c0,0.19,0.01,0.32,0.04,0.38
		c0.03,0.05,0.09,0.07,0.21,0.08l0.24,0.01v0.15c-0.26-0.01-0.5-0.01-0.72-0.01c-0.25,0-0.48,0-0.74,0.01v-0.15l0.24-0.01
		c0.12,0,0.18-0.03,0.21-0.08C38.01,76.49,38.02,76.36,38.02,76.17 M41.16,76.17v-2.25c0-0.19-0.01-0.32-0.04-0.38
		c-0.03-0.05-0.09-0.07-0.21-0.08l-0.24-0.01V73.3c0.28,0.01,0.56,0.02,0.85,0.02c0.44,0,0.89-0.02,1.18-0.02
		c0.23,0,0.45,0.01,0.65,0.02c-0.06,0.22-0.08,0.51-0.08,0.76h-0.18v-0.33c0-0.07,0-0.12-0.04-0.14c-0.27-0.1-0.66-0.11-0.98-0.11
		c-0.13,0-0.28,0.01-0.42,0.04v1.34c0.16,0.01,0.34,0.01,0.58,0.01c0.3,0,0.47-0.02,0.53-0.06c0.03-0.02,0.03-0.06,0.04-0.13
		l0.03-0.26h0.15c0,0.21-0.01,0.4-0.01,0.58c0,0.18,0.01,0.38,0.01,0.56h-0.15l-0.03-0.3c-0.01-0.07-0.01-0.11-0.04-0.12
		c-0.06-0.04-0.22-0.06-0.53-0.06c-0.24,0-0.43,0-0.58,0.02v1.41c0.14,0.03,0.29,0.04,0.42,0.04c0.41,0,0.92-0.01,1.01-0.07
		c0.08-0.04,0.14-0.26,0.18-0.56h0.17c-0.05,0.24-0.08,0.55-0.08,0.83c-0.22,0-0.62,0.02-0.99,0.01c-0.38,0-0.78-0.01-1.09-0.01
		c-0.19,0-0.36,0.01-0.54,0.01v-0.15l0.18-0.01c0.12-0.01,0.18-0.03,0.21-0.08C41.15,76.49,41.16,76.36,41.16,76.17 M49.45,75.79
		l-0.63-1.7l-0.87,2.22c-0.06,0.17-0.13,0.34-0.18,0.52h-0.25c-0.04-0.19-0.07-0.34-0.12-0.52l-0.6-2.59
		c-0.05-0.22-0.14-0.24-0.25-0.25l-0.14-0.01V73.3c0.21,0.01,0.42,0.01,0.63,0.01c0.22,0,0.42-0.01,0.63-0.01v0.15l-0.21,0.01
		c-0.13,0.01-0.23,0.04-0.17,0.33l0.5,2.24l0.63-1.57c0.16-0.4,0.31-0.8,0.45-1.21h0.16c0.05,0.2,0.14,0.43,0.21,0.64l0.78,2.18
		l0.67-2.44c0.03-0.12-0.04-0.15-0.23-0.17l-0.2-0.01V73.3c0.18,0.01,0.35,0.01,0.53,0.01c0.18,0,0.35-0.01,0.53-0.01v0.15
		l-0.16,0.01c-0.11,0.01-0.17,0.06-0.19,0.15l-0.77,2.7c-0.04,0.15-0.1,0.3-0.14,0.51H49.8C49.69,76.43,49.57,76.13,49.45,75.79
		 M55.7,73.92v2.25c0,0.19,0.01,0.32,0.05,0.38c0.03,0.05,0.09,0.07,0.21,0.08l0.24,0.01v0.15c-0.26-0.01-0.5-0.01-0.72-0.01
		c-0.25,0-0.48,0-0.74,0.01v-0.15l0.24-0.01c0.12,0,0.18-0.03,0.21-0.08c0.03-0.06,0.04-0.18,0.04-0.38v-1.12
		c-0.06,0-0.19-0.01-0.41-0.01h-1.17c-0.22,0-0.36,0-0.42,0.01v1.12c0,0.19,0.01,0.32,0.05,0.38c0.03,0.05,0.09,0.07,0.21,0.08
		l0.24,0.01v0.15c-0.26-0.01-0.5-0.01-0.73-0.01c-0.25,0-0.48,0-0.74,0.01v-0.15l0.24-0.01c0.12,0,0.18-0.03,0.21-0.08
		c0.03-0.06,0.05-0.18,0.05-0.38v-2.25c0-0.19-0.01-0.32-0.05-0.38c-0.03-0.05-0.09-0.07-0.21-0.08l-0.24-0.01V73.3
		c0.26,0.01,0.5,0.01,0.74,0.01c0.23,0,0.47,0,0.73-0.01v0.15l-0.24,0.01c-0.12,0.01-0.18,0.03-0.21,0.08
		c-0.03,0.06-0.05,0.18-0.05,0.38v0.89c0.06,0.01,0.19,0.01,0.42,0.01h1.17c0.22,0,0.35,0,0.41-0.01v-0.89
		c0-0.19-0.01-0.32-0.04-0.38c-0.03-0.05-0.09-0.07-0.21-0.08l-0.24-0.01V73.3c0.26,0.01,0.49,0.01,0.74,0.01
		c0.23,0,0.47,0,0.72-0.01v0.15l-0.24,0.01c-0.12,0.01-0.18,0.03-0.21,0.08C55.71,73.6,55.7,73.73,55.7,73.92 M58.27,75.43h1.27
		l-0.63-1.5L58.27,75.43z M59.11,73.26l1.21,2.85c0.04,0.1,0.1,0.24,0.16,0.34c0.06,0.09,0.11,0.16,0.2,0.17l0.17,0.01v0.15
		c-0.22,0-0.44-0.01-0.67-0.01c-0.17,0-0.4,0.01-0.66,0.01v-0.15l0.23-0.01c0.1,0,0.21-0.04,0.21-0.1c0-0.07-0.06-0.2-0.1-0.32
		l-0.23-0.58h-1.44l-0.14,0.34c-0.05,0.11-0.18,0.44-0.18,0.52c0,0.1,0.09,0.12,0.24,0.14l0.18,0.01v0.15
		c-0.24,0-0.43-0.01-0.58-0.01c-0.19,0-0.39,0.01-0.58,0.01v-0.15l0.19-0.01c0.12-0.01,0.22-0.11,0.27-0.25l0.89-2.03
		c0.15-0.35,0.33-0.72,0.46-1.09H59.11z M62.8,73.55v2.62c0,0.19,0.01,0.32,0.05,0.38c0.03,0.05,0.09,0.07,0.21,0.08l0.24,0.01v0.15
		c-0.26-0.01-0.5-0.01-0.73-0.01c-0.24,0-0.48,0-0.74,0.01v-0.15l0.24-0.01c0.12,0,0.18-0.03,0.21-0.08
		c0.04-0.06,0.05-0.18,0.05-0.38v-2.25c0-0.19-0.01-0.32-0.05-0.38c-0.03-0.05-0.09-0.07-0.21-0.08l-0.21-0.01V73.3
		c0.26,0.01,0.56,0.02,0.85,0.02c0.3,0,0.58-0.01,0.88-0.02c0.8-0.01,1.01,0.39,1.01,0.76c0,0.55-0.49,0.88-0.97,0.97l1.14,1.49
		c0.07,0.1,0.18,0.12,0.31,0.13v0.15c-0.13,0-0.25-0.01-0.36-0.01c-0.11,0-0.22,0.01-0.34,0.01c-0.07-0.1-0.14-0.18-0.21-0.27
		l-0.92-1.24c-0.08-0.11-0.17-0.21-0.26-0.31c0.17-0.05,0.32-0.06,0.47-0.08c0.35-0.06,0.65-0.33,0.65-0.7
		c0-0.54-0.4-0.69-0.79-0.69C63.09,73.49,62.94,73.52,62.8,73.55 M66.43,76.17v-2.25c0-0.19-0.01-0.32-0.04-0.38
		c-0.03-0.05-0.09-0.07-0.21-0.08l-0.24-0.01V73.3c0.28,0.01,0.56,0.02,0.85,0.02c0.43,0,0.9-0.02,1.18-0.02
		c0.23,0,0.45,0.01,0.65,0.02c-0.05,0.22-0.08,0.51-0.08,0.76h-0.18v-0.33c0-0.07-0.01-0.12-0.04-0.14
		c-0.27-0.1-0.66-0.11-0.98-0.11c-0.13,0-0.28,0.01-0.42,0.04v1.34c0.16,0.01,0.34,0.01,0.58,0.01c0.31,0,0.47-0.02,0.53-0.06
		c0.03-0.02,0.03-0.06,0.04-0.13l0.03-0.26h0.15c-0.01,0.21-0.01,0.4-0.01,0.58c0,0.18,0.01,0.38,0.01,0.56h-0.15l-0.03-0.3
		c-0.01-0.07-0.01-0.11-0.04-0.12c-0.06-0.04-0.22-0.06-0.53-0.06c-0.24,0-0.43,0-0.58,0.02v1.41c0.14,0.03,0.28,0.04,0.42,0.04
		c0.41,0,0.92-0.01,1.01-0.07c0.08-0.04,0.14-0.26,0.18-0.56h0.17c-0.05,0.24-0.08,0.55-0.08,0.83c-0.22,0-0.62,0.02-0.99,0.01
		c-0.39,0-0.78-0.01-1.09-0.01c-0.19,0-0.36,0.01-0.54,0.01v-0.15l0.18-0.01c0.12-0.01,0.18-0.03,0.21-0.08
		C66.42,76.49,66.43,76.36,66.43,76.17 M74.72,75.79l-0.62-1.7l-0.87,2.22c-0.07,0.17-0.13,0.34-0.18,0.52h-0.25
		c-0.03-0.19-0.08-0.34-0.11-0.52l-0.6-2.59c-0.05-0.22-0.15-0.24-0.25-0.25l-0.14-0.01V73.3c0.21,0.01,0.42,0.01,0.63,0.01
		c0.22,0,0.42-0.01,0.63-0.01v0.15l-0.21,0.01c-0.13,0.01-0.23,0.04-0.16,0.33l0.49,2.24l0.63-1.57c0.16-0.4,0.32-0.8,0.45-1.21
		h0.16c0.04,0.2,0.14,0.43,0.21,0.64l0.78,2.18l0.67-2.44c0.03-0.12-0.04-0.15-0.23-0.17l-0.2-0.01V73.3
		c0.18,0.01,0.35,0.01,0.53,0.01c0.18,0,0.35-0.01,0.52-0.01v0.15l-0.16,0.01c-0.11,0.01-0.17,0.06-0.19,0.15l-0.76,2.7
		c-0.04,0.15-0.09,0.3-0.14,0.51h-0.25C74.96,76.43,74.84,76.13,74.72,75.79 M78.62,75.43h1.27l-0.63-1.5L78.62,75.43z M79.46,73.26
		l1.21,2.85c0.04,0.1,0.1,0.24,0.16,0.34c0.05,0.09,0.11,0.16,0.2,0.17l0.17,0.01v0.15c-0.22,0-0.44-0.01-0.66-0.01
		c-0.18,0-0.4,0.01-0.67,0.01v-0.15l0.23-0.01c0.11,0,0.21-0.04,0.21-0.1c0-0.07-0.06-0.2-0.1-0.32l-0.23-0.58h-1.44l-0.14,0.34
		c-0.04,0.11-0.17,0.44-0.17,0.52c0,0.1,0.08,0.12,0.24,0.14l0.19,0.01v0.15c-0.24,0-0.43-0.01-0.58-0.01
		c-0.19,0-0.39,0.01-0.58,0.01v-0.15l0.19-0.01c0.12-0.01,0.21-0.11,0.27-0.25l0.89-2.03c0.15-0.35,0.33-0.72,0.46-1.09H79.46z
		 M82.63,76.17v-2.25c0-0.19-0.01-0.32-0.04-0.38c-0.03-0.05-0.09-0.07-0.21-0.08l-0.22-0.01V73.3c0.22,0.01,0.42,0.01,0.6,0.01
		c0.09,0,0.18-0.01,0.27-0.01l2.39,2.97l0.01-2.35c0-0.19-0.01-0.32-0.04-0.38c-0.03-0.05-0.09-0.07-0.21-0.08l-0.22-0.01V73.3
		c0.2,0.01,0.4,0.01,0.58,0.01c0.2,0,0.38-0.01,0.6-0.01v0.15l-0.22,0.01c-0.12,0.01-0.18,0.03-0.21,0.08
		c-0.04,0.06-0.05,0.18-0.05,0.38v2.77c0,0.06,0.01,0.13,0.01,0.19l-0.45-0.08l-2.36-2.94l-0.01,2.31c0,0.19,0.01,0.32,0.05,0.38
		c0.03,0.05,0.09,0.07,0.21,0.08l0.22,0.01v0.15c-0.22,0-0.4-0.01-0.6-0.01c-0.18,0-0.38,0.01-0.58,0.01v-0.15l0.22-0.01
		c0.12-0.01,0.18-0.03,0.21-0.08C82.62,76.49,82.63,76.36,82.63,76.17 M88.19,75.43h1.27l-0.63-1.5L88.19,75.43z M89.03,73.26
		l1.21,2.85c0.04,0.1,0.1,0.24,0.16,0.34c0.06,0.09,0.11,0.16,0.2,0.17l0.17,0.01v0.15c-0.22,0-0.44-0.01-0.67-0.01
		c-0.17,0-0.39,0.01-0.67,0.01v-0.15l0.24-0.01c0.11,0,0.21-0.04,0.21-0.1c0-0.07-0.06-0.2-0.11-0.32l-0.23-0.58H88.1l-0.14,0.34
		c-0.04,0.11-0.18,0.44-0.18,0.52c0,0.1,0.09,0.12,0.24,0.14l0.18,0.01v0.15c-0.24,0-0.43-0.01-0.57-0.01
		c-0.19,0-0.39,0.01-0.58,0.01v-0.15l0.19-0.01c0.12-0.01,0.21-0.11,0.27-0.25l0.89-2.03c0.15-0.35,0.33-0.72,0.46-1.09H89.03z
		 M92.2,76.17v-2.25c0-0.19-0.01-0.32-0.04-0.38c-0.03-0.05-0.09-0.07-0.21-0.08l-0.22-0.01V73.3c0.22,0.01,0.42,0.01,0.6,0.01
		c0.09,0,0.18-0.01,0.27-0.01l2.39,2.97L95,73.92c0-0.19-0.01-0.32-0.05-0.38c-0.03-0.05-0.09-0.07-0.21-0.08l-0.22-0.01V73.3
		c0.2,0.01,0.4,0.01,0.58,0.01c0.2,0,0.38-0.01,0.6-0.01v0.15l-0.22,0.01c-0.12,0.01-0.18,0.03-0.21,0.08
		c-0.04,0.06-0.05,0.18-0.05,0.38v2.77c0,0.06,0.01,0.13,0.02,0.19L94.8,76.8l-2.36-2.94l-0.01,2.31c0,0.19,0.01,0.32,0.04,0.38
		c0.03,0.05,0.09,0.07,0.21,0.08l0.22,0.01v0.15c-0.22,0-0.4-0.01-0.6-0.01c-0.18,0-0.38,0.01-0.58,0.01v-0.15l0.22-0.01
		c0.12-0.01,0.18-0.03,0.21-0.08C92.19,76.49,92.2,76.36,92.2,76.17 M99.54,76.29v-0.51c0-0.11-0.04-0.17-0.17-0.18l-0.42-0.03
		v-0.15c0.21,0,0.41,0.01,0.61,0.01c0.21,0,0.41,0,0.62-0.01l0.02,0.13l-0.15,0.05C100,75.61,100,75.63,100,75.78v0.84
		c-0.43,0.13-0.97,0.26-1.32,0.26c-1.12,0-2.02-0.58-2.02-1.85c0-1.11,0.91-1.82,2.11-1.82c0.62,0,1.01,0.14,1.24,0.21
		c-0.06,0.24-0.1,0.5-0.1,0.76h-0.15v-0.27c0-0.24-0.18-0.32-0.42-0.4c-0.16-0.06-0.38-0.09-0.7-0.09c-0.95,0-1.45,0.63-1.45,1.52
		c0,1,0.58,1.72,1.61,1.72c0.39,0,0.67-0.08,0.7-0.18C99.53,76.44,99.54,76.41,99.54,76.29 M102.33,75.43h1.27l-0.63-1.5
		L102.33,75.43z M103.17,73.26l1.21,2.85c0.04,0.1,0.1,0.24,0.16,0.34c0.06,0.09,0.11,0.16,0.2,0.17l0.17,0.01v0.15
		c-0.22,0-0.44-0.01-0.67-0.01c-0.18,0-0.4,0.01-0.67,0.01v-0.15l0.24-0.01c0.11,0,0.21-0.04,0.21-0.1c0-0.07-0.06-0.2-0.11-0.32
		l-0.23-0.58h-1.44l-0.14,0.34c-0.04,0.11-0.18,0.44-0.18,0.52c0,0.1,0.09,0.12,0.24,0.14l0.19,0.01v0.15
		c-0.24,0-0.43-0.01-0.58-0.01c-0.19,0-0.38,0.01-0.57,0.01v-0.15l0.18-0.01c0.12-0.01,0.22-0.11,0.27-0.25l0.89-2.03
		c0.15-0.35,0.32-0.72,0.46-1.09H103.17z M107.3,78.54h1.87v0.38h-1.87V78.54z M116.69,80.12v2.25c0,0.19,0.01,0.32,0.05,0.38
		c0.03,0.05,0.09,0.07,0.21,0.07l0.24,0.01v0.15c-0.26-0.01-0.5-0.01-0.73-0.01c-0.25,0-0.48,0.01-0.74,0.01v-0.15l0.24-0.01
		c0.12,0,0.18-0.02,0.21-0.07c0.03-0.06,0.04-0.19,0.04-0.38v-2.25c0-0.19-0.01-0.32-0.04-0.38c-0.03-0.05-0.09-0.07-0.21-0.07
		l-0.24-0.02V79.5c0.26,0.01,0.5,0.01,0.74,0.01c0.23,0,0.46,0,0.73-0.01v0.15l-0.24,0.02c-0.12,0-0.18,0.03-0.21,0.07
		C116.7,79.8,116.69,79.93,116.69,80.12 M26.35,79.62c-0.87,0-1.27,0.61-1.27,1.44c0,0.88,0.41,1.81,1.4,1.81
		c0.84,0,1.24-0.65,1.24-1.58C27.73,80.29,27.28,79.62,26.35,79.62 M26.33,83.08c-1.02,0-1.78-0.7-1.78-1.83
		c0-1.04,0.72-1.83,1.88-1.83c1.07,0,1.83,0.6,1.83,1.72C28.26,82.21,27.42,83.08,26.33,83.08 M32.44,82.37v-2.12
		c0-0.19,0-0.35-0.02-0.5h-0.78c-0.15,0-0.19,0.05-0.2,0.17l-0.02,0.4h-0.15c0-0.27-0.01-0.55-0.04-0.81c0.36,0,0.72,0.02,1.08,0.02
		h0.73c0.36,0,0.72-0.02,1.08-0.02c-0.03,0.26-0.04,0.54-0.04,0.81h-0.15l-0.02-0.4c-0.01-0.12-0.05-0.17-0.2-0.17h-0.78
		c-0.01,0.15-0.02,0.31-0.02,0.5v2.12c0,0.19,0.01,0.32,0.05,0.38c0.03,0.05,0.09,0.07,0.21,0.07l0.24,0.01v0.15
		c-0.26-0.01-0.5-0.01-0.73-0.01c-0.25,0-0.48,0.01-0.74,0.01v-0.15l0.24-0.01c0.12,0,0.18-0.02,0.21-0.07
		C32.43,82.69,32.44,82.56,32.44,82.37 M35.58,82.37v-2.26c0-0.19-0.01-0.32-0.04-0.38c-0.03-0.05-0.09-0.07-0.21-0.07l-0.24-0.02
		V79.5c0.28,0.01,0.56,0.02,0.85,0.02c0.43,0,0.89-0.02,1.18-0.02c0.23,0,0.45,0.01,0.65,0.02c-0.05,0.22-0.08,0.51-0.08,0.76H37.5
		v-0.33c0-0.07,0-0.12-0.04-0.14c-0.27-0.1-0.66-0.11-0.98-0.11c-0.14,0-0.28,0-0.42,0.04v1.34c0.16,0.01,0.34,0.01,0.58,0.01
		c0.31,0,0.47-0.02,0.53-0.06c0.03-0.02,0.04-0.07,0.04-0.13l0.03-0.26h0.15c-0.01,0.21-0.01,0.4-0.01,0.58
		c0,0.19,0.01,0.38,0.01,0.56h-0.15l-0.03-0.3c-0.01-0.07-0.02-0.11-0.04-0.13c-0.05-0.04-0.22-0.06-0.53-0.06
		c-0.24,0-0.42,0-0.58,0.01v1.41c0.14,0.04,0.28,0.04,0.42,0.04c0.41,0,0.92-0.01,1.01-0.06c0.07-0.04,0.14-0.26,0.18-0.56h0.17
		c-0.05,0.24-0.08,0.55-0.08,0.82c-0.22,0.01-0.62,0.02-0.99,0.01c-0.38,0-0.78-0.01-1.09-0.01c-0.19,0-0.35,0.01-0.54,0.01v-0.15
		l0.18-0.01c0.12-0.01,0.18-0.02,0.21-0.07C35.57,82.69,35.58,82.56,35.58,82.37 M41.35,81.9v-1.78c0-0.19-0.01-0.32-0.04-0.38
		c-0.03-0.05-0.09-0.07-0.21-0.07l-0.24-0.02V79.5c0.26,0.01,0.5,0.01,0.74,0.01c0.23,0,0.47,0,0.73-0.01v0.15l-0.24,0.02
		c-0.12,0-0.18,0.03-0.21,0.07c-0.04,0.06-0.05,0.19-0.05,0.38v1.73c0,0.71,0.37,0.92,1.03,0.92c0.54,0,1.03-0.21,1.03-1.04v-1.61
		c0-0.19-0.01-0.32-0.05-0.38c-0.03-0.05-0.09-0.07-0.21-0.07l-0.22-0.02V79.5c0.2,0,0.4,0.01,0.58,0.01c0.2,0,0.38-0.01,0.6-0.01
		v0.15l-0.22,0.02c-0.12,0.01-0.18,0.03-0.21,0.07c-0.03,0.06-0.04,0.19-0.04,0.38v1.45c0,1.07-0.41,1.51-1.42,1.51
		C41.85,83.08,41.35,82.82,41.35,81.9 M46.53,79.75v2.62c0,0.19,0.01,0.32,0.04,0.38c0.03,0.05,0.09,0.07,0.21,0.07l0.24,0.01v0.15
		c-0.26-0.01-0.49-0.01-0.72-0.01c-0.25,0-0.48,0.01-0.74,0.01v-0.15l0.24-0.01c0.12,0,0.18-0.02,0.21-0.07
		c0.04-0.06,0.04-0.19,0.04-0.38v-2.25c0-0.18-0.02-0.32-0.05-0.37c-0.04-0.05-0.09-0.08-0.22-0.08l-0.23-0.02V79.5
		c0.33,0.01,0.62,0.02,0.9,0.02c0.29,0,0.58-0.01,0.85-0.02c0.49-0.01,1.04,0.2,1.04,0.77c0,0.63-0.54,1.08-1.2,1.08
		c-0.1,0-0.2-0.01-0.3-0.03l-0.05-0.18c0.11,0.04,0.22,0.05,0.33,0.05c0.4,0,0.72-0.32,0.72-0.75c0-0.52-0.31-0.75-0.81-0.75
		C46.82,79.69,46.67,79.72,46.53,79.75 M51.14,79.62c-0.87,0-1.26,0.61-1.26,1.44c0,0.88,0.41,1.81,1.4,1.81
		c0.84,0,1.24-0.65,1.24-1.58C52.52,80.29,52.08,79.62,51.14,79.62 M51.12,83.08c-1.01,0-1.78-0.7-1.78-1.83
		c0-1.04,0.72-1.83,1.88-1.83c1.07,0,1.83,0.6,1.83,1.72C53.06,82.21,52.21,83.08,51.12,83.08 M55.01,81.34v1.03
		c0,0.19,0.01,0.32,0.04,0.38c0.03,0.05,0.09,0.07,0.21,0.07l0.24,0.01v0.15c-0.26-0.01-0.5-0.01-0.73-0.01
		c-0.24,0-0.48,0.01-0.74,0.01v-0.15l0.24-0.01c0.12,0,0.18-0.02,0.21-0.07c0.03-0.06,0.05-0.19,0.05-0.38v-2.25
		c0-0.19-0.01-0.32-0.05-0.38c-0.03-0.05-0.09-0.07-0.21-0.07l-0.24-0.02V79.5c0.26,0.01,0.5,0.01,0.74,0.01
		c0.23,0,0.47,0,0.73-0.01v0.15l-0.24,0.02c-0.12,0-0.18,0.03-0.21,0.07c-0.03,0.06-0.04,0.19-0.04,0.38v1.07l1.39-1.36
		c0.08-0.08,0.15-0.16,0.15-0.2V79.5c0.16,0,0.3,0.01,0.44,0.01c0.14,0,0.28-0.01,0.4-0.01v0.15l-0.21,0.01
		c-0.13,0.01-0.26,0.08-0.39,0.19l-1.33,1.2l1.65,1.57c0.12,0.11,0.22,0.19,0.31,0.21l0.1,0.01v0.15c-0.1,0-0.22-0.01-0.33-0.01
		c-0.12,0-0.24,0.01-0.4,0.01l-1.74-1.68L55.01,81.34z M60.23,79.62c-0.87,0-1.27,0.61-1.27,1.44c0,0.88,0.41,1.81,1.4,1.81
		c0.84,0,1.24-0.65,1.24-1.58C61.61,80.29,61.16,79.62,60.23,79.62 M60.2,83.08c-1.02,0-1.78-0.7-1.78-1.83
		c0-1.04,0.72-1.83,1.88-1.83c1.07,0,1.83,0.6,1.83,1.72C62.14,82.21,61.3,83.08,60.2,83.08 M66.93,79.62
		c-0.87,0-1.27,0.61-1.27,1.44c0,0.88,0.41,1.81,1.4,1.81c0.84,0,1.24-0.65,1.24-1.58C68.31,80.29,67.86,79.62,66.93,79.62
		 M66.91,83.08c-1.02,0-1.78-0.7-1.78-1.83c0-1.04,0.72-1.83,1.88-1.83c1.07,0,1.83,0.6,1.83,1.72C68.84,82.21,68,83.08,66.91,83.08
		 M73.02,82.37v-2.12c0-0.19-0.01-0.35-0.02-0.5h-0.78c-0.15,0-0.19,0.05-0.2,0.17L72,80.31h-0.15c0-0.27-0.01-0.55-0.04-0.81
		c0.36,0,0.72,0.02,1.08,0.02h0.72c0.36,0,0.72-0.02,1.08-0.02c-0.03,0.26-0.04,0.54-0.04,0.81h-0.15l-0.02-0.4
		c-0.01-0.12-0.05-0.17-0.2-0.17h-0.78c-0.02,0.15-0.02,0.31-0.02,0.5v2.12c0,0.19,0.01,0.32,0.04,0.38
		c0.03,0.05,0.09,0.07,0.21,0.07l0.24,0.01v0.15c-0.26-0.01-0.5-0.01-0.73-0.01c-0.24,0-0.48,0.01-0.74,0.01v-0.15l0.24-0.01
		c0.12,0,0.18-0.02,0.21-0.07C73.01,82.69,73.02,82.56,73.02,82.37 M76.16,82.37v-2.26c0-0.19-0.01-0.32-0.04-0.38
		c-0.03-0.05-0.09-0.07-0.21-0.07l-0.24-0.02V79.5c0.27,0.01,0.56,0.02,0.85,0.02c0.44,0,0.89-0.02,1.18-0.02
		c0.23,0,0.45,0.01,0.65,0.02c-0.06,0.22-0.08,0.51-0.08,0.76h-0.17v-0.33c0-0.07-0.01-0.12-0.05-0.14
		c-0.27-0.1-0.66-0.11-0.98-0.11c-0.14,0-0.28,0-0.42,0.04v1.34c0.16,0.01,0.34,0.01,0.58,0.01c0.31,0,0.47-0.02,0.53-0.06
		c0.03-0.02,0.04-0.07,0.04-0.13l0.02-0.26h0.15c0,0.21-0.01,0.4-0.01,0.58c0,0.19,0.01,0.38,0.01,0.56h-0.15l-0.02-0.3
		c0-0.07-0.02-0.11-0.04-0.13c-0.06-0.04-0.22-0.06-0.53-0.06c-0.24,0-0.42,0-0.58,0.01v1.41c0.14,0.04,0.28,0.04,0.42,0.04
		c0.41,0,0.92-0.01,1.01-0.06c0.07-0.04,0.14-0.26,0.18-0.56h0.18c-0.05,0.24-0.08,0.55-0.08,0.82c-0.22,0.01-0.62,0.02-0.99,0.01
		c-0.39,0-0.78-0.01-1.09-0.01c-0.19,0-0.36,0.01-0.54,0.01v-0.15l0.18-0.01c0.12-0.01,0.18-0.02,0.21-0.07
		C76.15,82.69,76.16,82.56,76.16,82.37 M82.46,80.12v2.25c0,0.19,0.01,0.32,0.04,0.38c0.03,0.05,0.09,0.07,0.21,0.07l0.24,0.01v0.15
		c-0.26-0.01-0.5-0.01-0.73-0.01c-0.24,0-0.48,0.01-0.74,0.01v-0.15l0.24-0.01c0.12,0,0.18-0.02,0.21-0.07
		c0.03-0.06,0.04-0.19,0.04-0.38v-2.25c0-0.19-0.01-0.32-0.04-0.38c-0.03-0.05-0.09-0.07-0.21-0.07l-0.24-0.02V79.5
		c0.26,0.01,0.5,0.01,0.74,0.01c0.23,0,0.47,0,0.73-0.01v0.15l-0.24,0.02c-0.12,0-0.18,0.03-0.21,0.07
		C82.47,79.8,82.46,79.93,82.46,80.12 M84.91,81.34v1.03c0,0.19,0.01,0.32,0.05,0.38c0.03,0.05,0.09,0.07,0.21,0.07l0.24,0.01v0.15
		c-0.26-0.01-0.49-0.01-0.72-0.01c-0.25,0-0.48,0.01-0.74,0.01v-0.15l0.24-0.01c0.12,0,0.18-0.02,0.21-0.07
		c0.04-0.06,0.04-0.19,0.04-0.38v-2.25c0-0.19-0.01-0.32-0.04-0.38c-0.03-0.05-0.09-0.07-0.21-0.07l-0.24-0.02V79.5
		c0.26,0.01,0.5,0.01,0.74,0.01c0.23,0,0.46,0,0.72-0.01v0.15l-0.24,0.02c-0.12,0-0.18,0.03-0.21,0.07
		c-0.04,0.06-0.05,0.19-0.05,0.38v1.07l1.39-1.36c0.08-0.08,0.15-0.16,0.15-0.2V79.5c0.16,0,0.3,0.01,0.44,0.01
		c0.14,0,0.28-0.01,0.4-0.01v0.15l-0.21,0.01c-0.13,0.01-0.27,0.08-0.39,0.19l-1.33,1.2l1.65,1.57c0.13,0.11,0.22,0.19,0.31,0.21
		l0.1,0.01v0.15c-0.09,0-0.21-0.01-0.33-0.01c-0.12,0-0.24,0.01-0.4,0.01l-1.74-1.68L84.91,81.34z M89.42,81.63h1.27l-0.63-1.5
		L89.42,81.63z M90.26,79.46l1.21,2.86c0.04,0.1,0.1,0.23,0.16,0.34c0.06,0.1,0.11,0.16,0.2,0.17L92,82.84v0.15
		c-0.22,0-0.44-0.01-0.67-0.01c-0.18,0-0.39,0.01-0.67,0.01v-0.15l0.24-0.01c0.11,0,0.21-0.04,0.21-0.1c0-0.07-0.06-0.2-0.11-0.32
		l-0.23-0.58h-1.44l-0.14,0.34c-0.04,0.1-0.18,0.44-0.18,0.52c0,0.11,0.08,0.12,0.24,0.14l0.18,0.01v0.15
		c-0.24,0-0.43-0.01-0.58-0.01c-0.19,0-0.39,0.01-0.57,0.01v-0.15l0.18-0.01c0.12-0.01,0.21-0.11,0.27-0.24l0.89-2.03
		c0.16-0.35,0.33-0.72,0.46-1.09H90.26z M95.62,81.63h1.27l-0.63-1.5L95.62,81.63z M96.46,79.46l1.21,2.86
		c0.04,0.1,0.1,0.23,0.16,0.34c0.05,0.1,0.11,0.16,0.2,0.17l0.17,0.01v0.15c-0.22,0-0.44-0.01-0.67-0.01c-0.18,0-0.4,0.01-0.67,0.01
		v-0.15l0.24-0.01c0.1,0,0.2-0.04,0.2-0.1c0-0.07-0.05-0.2-0.1-0.32l-0.23-0.58h-1.44l-0.14,0.34c-0.04,0.1-0.17,0.44-0.17,0.52
		c0,0.11,0.08,0.12,0.24,0.14l0.19,0.01v0.15c-0.24,0-0.43-0.01-0.58-0.01c-0.19,0-0.39,0.01-0.58,0.01v-0.15l0.18-0.01
		c0.12-0.01,0.22-0.11,0.27-0.24l0.89-2.03c0.15-0.35,0.33-0.72,0.46-1.09H96.46z M104.95,80.12v2.25c0,0.19,0.01,0.32,0.04,0.38
		c0.03,0.05,0.09,0.07,0.21,0.07l0.24,0.01v0.15c-0.26-0.01-0.5-0.01-0.73-0.01c-0.24,0-0.48,0.01-0.67,0.01v-0.15l0.17-0.01
		c0.12-0.01,0.18-0.02,0.21-0.07c0.03-0.06,0.04-0.19,0.04-0.38v-2.28c-0.08,0.14-0.16,0.28-0.22,0.41l-0.89,1.9
		c-0.09,0.21-0.18,0.43-0.27,0.64h-0.1l-1.39-2.95l-0.01,2.28c0,0.19,0.01,0.32,0.04,0.38c0.03,0.05,0.09,0.07,0.21,0.07l0.22,0.01
		v0.15c-0.22,0-0.4-0.01-0.6-0.01c-0.18,0-0.38,0.01-0.58,0.01v-0.15l0.22-0.01c0.12-0.01,0.18-0.02,0.21-0.07
		c0.03-0.06,0.04-0.19,0.04-0.38v-2.25c0-0.19-0.01-0.32-0.04-0.38c-0.03-0.05-0.09-0.06-0.21-0.07l-0.22-0.02V79.5
		c0.16,0,0.31,0.01,0.48,0.01c0.16,0,0.32-0.01,0.47-0.01l1.32,2.79l1.31-2.79c0.16,0,0.31,0.01,0.47,0.01
		c0.16,0,0.32-0.01,0.47-0.01v0.15l-0.21,0.02c-0.12,0.01-0.18,0.03-0.21,0.07C104.96,79.8,104.95,79.93,104.95,80.12 M107.5,81.63
		h1.27l-0.63-1.5L107.5,81.63z M108.34,79.46l1.21,2.86c0.04,0.1,0.1,0.23,0.16,0.34c0.06,0.1,0.11,0.16,0.2,0.17l0.17,0.01v0.15
		c-0.22,0-0.44-0.01-0.67-0.01c-0.18,0-0.39,0.01-0.66,0.01v-0.15l0.23-0.01c0.11,0,0.21-0.04,0.21-0.1c0-0.07-0.06-0.2-0.1-0.32
		l-0.23-0.58h-1.44l-0.14,0.34c-0.04,0.1-0.18,0.44-0.18,0.52c0,0.11,0.08,0.12,0.24,0.14l0.18,0.01v0.15
		c-0.24,0-0.43-0.01-0.58-0.01c-0.19,0-0.38,0.01-0.58,0.01v-0.15l0.19-0.01c0.12-0.01,0.22-0.11,0.27-0.24l0.89-2.03
		c0.15-0.35,0.32-0.72,0.46-1.09H108.34z M111.51,81.9v-1.78c0-0.19-0.01-0.32-0.05-0.38c-0.03-0.05-0.09-0.07-0.21-0.07l-0.24-0.02
		V79.5c0.26,0.01,0.5,0.01,0.74,0.01c0.23,0,0.47,0,0.73-0.01v0.15l-0.24,0.02c-0.12,0-0.18,0.03-0.21,0.07
		c-0.04,0.06-0.04,0.19-0.04,0.38v1.73c0,0.71,0.37,0.92,1.03,0.92c0.54,0,1.03-0.21,1.03-1.04v-1.61c0-0.19-0.01-0.32-0.04-0.38
		c-0.03-0.05-0.09-0.07-0.21-0.07l-0.22-0.02V79.5c0.2,0,0.4,0.01,0.58,0.01c0.2,0,0.38-0.01,0.6-0.01v0.15l-0.22,0.02
		c-0.12,0.01-0.18,0.03-0.21,0.07c-0.04,0.06-0.04,0.19-0.04,0.38v1.45c0,1.07-0.41,1.51-1.42,1.51
		C112.01,83.08,111.51,82.82,111.51,81.9"/>
	<path class="st0" d="M39.76,28.6c0.43,0,0.97-0.03,1.7-0.04v0.55l-0.47,0.04c-0.32,0.03-0.52,0.27-0.69,0.7l-3.07,7.38
		c-0.21,0.49-0.37,0.98-0.56,1.47h-1.12l-3.53-8.47c-0.18-0.42-0.41-1.02-0.92-1.07l-0.61-0.04v-0.55c0.97,0.01,1.73,0.04,2.3,0.04
		s1.31-0.03,2.42-0.04v0.55l-0.74,0.04c-0.22,0.01-0.38,0.15-0.38,0.28c0,0.3,0.18,0.74,0.31,1.07l2.32,5.73l2.1-5.23
		c0.25-0.62,0.46-1.19,0.46-1.45c0-0.27-0.25-0.39-0.55-0.4l-0.68-0.04v-0.55C38.77,28.57,39.33,28.6,39.76,28.6 M42.98,28.56v0.6
		l0.55,0.05c0.38,0.03,0.55,0.09,0.61,0.21c0.09,0.18,0.1,0.58,0.1,1.2v6.04c0,0.62-0.01,1.02-0.1,1.2
		c-0.06,0.12-0.22,0.18-0.61,0.21l-0.55,0.04v0.6c0.6-0.01,1.42-0.04,2.3-0.04c0.87,0,1.68,0.03,2.29,0.04v-0.6l-0.55-0.04
		c-0.38-0.03-0.55-0.09-0.6-0.21c-0.09-0.18-0.1-0.58-0.1-1.2V30.6c0-0.62,0.01-1.02,0.1-1.2c0.06-0.12,0.22-0.18,0.6-0.21
		l0.55-0.05v-0.6c-0.61,0.01-1.42,0.04-2.29,0.04C44.4,28.6,43.58,28.57,42.98,28.56 M55.04,29.18c1,0,1.93,0.27,2.65,1.02
		l0.08,1.28h0.58c0.07-0.64,0.19-1.74,0.34-2.27l-0.09-0.16c-1.42-0.59-2.41-0.7-3.62-0.7c-3.14,0-5.9,1.71-5.9,5.12
		c0,3.54,2.48,5.44,5.84,5.44c1.18,0,2.37-0.19,3.4-0.82l0.33-0.73l-0.18-0.18c-0.76,0.44-1.95,0.76-2.82,0.76
		c-2.79,0-4.35-1.96-4.35-4.67C51.29,30.93,52.59,29.18,55.04,29.18 M64.73,28.6c-1.49,0-3.02-0.03-4.57-0.04l-0.09,0.07
		c0.12,0.71,0.16,1.39,0.19,2.36h0.6l0.07-1.02c0.01-0.16,0.07-0.28,0.13-0.35c0.1-0.13,0.51-0.13,0.91-0.13h1.72v7.17
		c0,0.62-0.01,1.02-0.1,1.2c-0.06,0.12-0.22,0.18-0.6,0.21l-0.54,0.04v0.6c0.6-0.01,1.41-0.04,2.3-0.04c0.87,0,1.68,0.03,2.28,0.04
		v-0.6l-0.54-0.04c-0.38-0.03-0.55-0.09-0.6-0.21c-0.09-0.18-0.1-0.58-0.1-1.2v-7.17h1.72c0.4,0,0.81,0,0.91,0.13
		c0.06,0.07,0.12,0.19,0.13,0.35l0.07,1.02h0.6c0.03-0.96,0.07-1.64,0.19-2.36l-0.09-0.07C67.76,28.57,66.23,28.6,64.73,28.6
		 M81.41,33.54c0,3.5-2.23,5.37-5.61,5.37c-3.31,0-5.31-1.81-5.31-5.19c0-3.5,2.23-5.37,5.61-5.37
		C79.4,28.35,81.41,30.16,81.41,33.54 M79.2,33.8c0-2.45-1.02-4.63-3.1-4.63c-2.74,0-3.39,2.06-3.39,4.28c0,2.45,1.02,4.61,3.1,4.61
		C78.55,38.07,79.2,36.03,79.2,33.8 M91.63,37.43l-2.67-4.06c1.22-0.44,2.2-1.32,2.2-2.62c0-1.76-1.39-2.22-2.89-2.19
		c-1,0.01-1.99,0.04-3,0.04c-0.75,0-1.5-0.03-2.48-0.04v0.56l0.55,0.04c0.38,0.03,0.53,0.1,0.6,0.25c0.09,0.18,0.1,0.58,0.1,1.2
		v6.04c0,0.62-0.01,1.02-0.1,1.2c-0.06,0.12-0.22,0.18-0.6,0.21l-0.55,0.04v0.6c0.61-0.01,1.42-0.04,2.3-0.04
		c0.87,0,1.68,0.03,2.29,0.04v-0.6l-0.55-0.04c-0.38-0.03-0.55-0.09-0.61-0.21c-0.09-0.18-0.1-0.58-0.1-1.2v-7.21
		c0.24-0.12,0.63-0.13,0.94-0.13c1.15,0,1.99,0.65,1.99,1.87c0,1.39-1,2.24-2.36,2.12l-0.1,0.27l3.31,5.15
		c0.44-0.01,0.89-0.04,1.33-0.04c0.47,0,0.96,0.03,1.43,0.04v-0.6c-0.28-0.06-0.47-0.1-0.6-0.21C91.9,37.75,91.74,37.59,91.63,37.43
		 M94.18,28.56v0.6l0.55,0.05c0.38,0.03,0.54,0.09,0.6,0.21c0.09,0.18,0.1,0.58,0.1,1.2v6.04c0,0.62-0.01,1.02-0.1,1.2
		c-0.06,0.12-0.22,0.18-0.6,0.21l-0.55,0.04v0.6c0.6-0.01,1.42-0.04,2.3-0.04c0.87,0,1.68,0.03,2.29,0.04v-0.6l-0.55-0.04
		c-0.38-0.03-0.55-0.09-0.6-0.21c-0.09-0.18-0.1-0.58-0.1-1.2V30.6c0-0.62,0.01-1.02,0.1-1.2c0.06-0.12,0.22-0.18,0.6-0.21
		l0.55-0.05v-0.6c-0.61,0.01-1.42,0.04-2.29,0.04C95.6,28.6,94.79,28.57,94.18,28.56 M111.24,38.14v0.56
		c-0.99-0.01-1.71-0.04-2.29-0.04c-0.58,0-1.31,0.03-2.29,0.04v-0.56l0.78-0.04c0.24-0.01,0.4-0.34,0.21-0.81l-0.66-1.69h-3.71
		l-0.62,1.66c-0.21,0.56,0.09,0.83,0.35,0.84l0.74,0.04v0.56c-0.71-0.01-1.24-0.04-1.67-0.04c-0.43,0-0.96,0.03-1.67,0.04v-0.56
		l0.44-0.04c0.38-0.04,0.65-0.46,0.83-0.89l2.67-6.49l0.38-1.02l0.24-0.61l0.22-0.61h1.05l3.82,8.96c0.16,0.37,0.36,0.59,0.81,0.65
		L111.24,38.14z M106.65,34.77L105.12,31l-1.47,3.77H106.65z"/>
	<path class="st0" d="M20.05,50.57v-5.64c0-0.65-0.01-1.06-0.11-1.25c-0.07-0.15-0.23-0.23-0.63-0.26l-0.57-0.05V42.8
		c0.63,0.01,1.47,0.04,2.4,0.04c0.91,0,1.75-0.03,2.38-0.04v0.58l-0.57,0.05c-0.4,0.03-0.55,0.11-0.63,0.26
		c-0.09,0.19-0.11,0.6-0.11,1.25v3.82c0,2.17,0.14,3.54,2.73,3.54c2.56,0,2.86-1.42,2.86-3.65v-3.71c0-0.65-0.02-1.06-0.11-1.25
		c-0.08-0.15-0.23-0.23-0.63-0.26l-0.57-0.05V42.8c0.59,0.01,1.18,0.04,1.76,0.04c0.59,0,1.17-0.03,1.75-0.04v0.58l-0.57,0.05
		c-0.4,0.03-0.55,0.11-0.63,0.26c-0.09,0.19-0.11,0.6-0.11,1.25v4.5c0,2.82-1.49,4.13-4.27,4.13
		C21.54,53.56,20.05,52.32,20.05,50.57"/>
	<path class="st0" d="M32.85,51.21v-6.28c0-0.65-0.02-1.06-0.11-1.25c-0.08-0.15-0.23-0.23-0.63-0.26l-0.57-0.05V42.8
		c0.61,0.01,1.23,0.04,1.84,0.04c0.43,0,0.86-0.03,1.29-0.04c0.52,0.69,1.03,1.41,1.58,2.06l4.79,5.61v-5.53
		c0-0.65-0.01-1.06-0.11-1.25c-0.08-0.15-0.23-0.23-0.63-0.26l-0.57-0.05V42.8c0.58,0.01,1.18,0.04,1.77,0.04
		c0.58,0,1.17-0.03,1.75-0.04v0.58l-0.57,0.05c-0.4,0.03-0.55,0.11-0.63,0.26c-0.09,0.18-0.11,0.6-0.11,1.25v7
		c0,0.54,0.03,1.1,0.05,1.56l-1.37-0.14c-0.63-0.71-1.28-1.43-1.88-2.15l-4.98-6.01l-0.03,6.02c0,0.65,0.02,1.06,0.11,1.25
		c0.07,0.15,0.23,0.23,0.63,0.26l0.57,0.05v0.58c-0.58-0.01-1.17-0.04-1.75-0.04c-0.58,0-1.18,0.03-1.77,0.04v-0.58l0.57-0.05
		c0.4-0.03,0.55-0.11,0.63-0.26C32.83,52.28,32.85,51.86,32.85,51.21"/>
	<path class="st0" d="M48.37,44.93v6.29c0,0.65,0.01,1.06,0.11,1.25c0.06,0.12,0.23,0.18,0.63,0.22l0.57,0.05v0.62
		c-0.63-0.01-1.47-0.04-2.38-0.04c-0.92,0-1.77,0.03-2.4,0.04v-0.62l0.57-0.05c0.4-0.03,0.57-0.09,0.63-0.22
		c0.09-0.19,0.11-0.6,0.11-1.25v-6.29c0-0.65-0.02-1.06-0.11-1.25c-0.06-0.12-0.23-0.19-0.63-0.22l-0.57-0.05V42.8
		c0.63,0.01,1.48,0.04,2.4,0.04c0.91,0,1.75-0.03,2.38-0.04v0.62l-0.57,0.05c-0.4,0.03-0.57,0.09-0.63,0.22
		C48.38,43.87,48.37,44.28,48.37,44.93"/>
	<path class="st0" d="M55.15,44.82l2.41,5.97l2.18-5.44c0.26-0.65,0.47-1.23,0.47-1.51c0-0.28-0.26-0.4-0.57-0.42l-0.71-0.05V42.8
		c0.75,0.01,1.34,0.04,1.78,0.04s1.01-0.03,1.76-0.04v0.58L62,43.42c-0.34,0.03-0.54,0.28-0.72,0.72l-3.19,7.68
		c-0.22,0.51-0.38,1.02-0.58,1.53h-1.17l-3.67-8.82c-0.18-0.43-0.43-1.06-0.95-1.11l-0.63-0.05V42.8c1.01,0.01,1.79,0.04,2.39,0.04
		c0.6,0,1.37-0.03,2.52-0.04v0.58l-0.77,0.05c-0.23,0.02-0.4,0.15-0.4,0.29C54.83,44.02,55.01,44.49,55.15,44.82"/>
	<path class="st0" d="M67.3,43.74v3.7c0.35,0.03,0.69,0.03,1.03,0.03h1.01c0.54,0,0.85-0.03,0.88-0.32l0.09-0.88h0.62
		c-0.02,0.56-0.05,1.1-0.05,1.65c0,0.56,0.03,1.11,0.05,1.67h-0.62l-0.09-0.77c-0.05-0.43-0.34-0.57-0.88-0.57h-1.01
		c-0.34,0-0.68,0.02-1.03,0.05v4.12c0.64,0.03,1.3,0.05,1.96,0.05c0.71,0,1.84-0.14,1.88-0.26l0.36-1.45h0.6l-0.17,2.44
		c-1.08,0.2-2.86,0.2-3.86,0.17c-0.63-0.02-1.26-0.05-1.89-0.05c-0.64,0-1.28,0.03-1.84,0.05v-0.35l0.49-0.28
		c0.25-0.14,0.31-0.4,0.31-0.88v-6.91c0-0.65-0.02-1.06-0.11-1.25c-0.08-0.15-0.23-0.23-0.63-0.26l-0.57-0.05V42.8
		c1.01,0.02,1.8,0.05,2.4,0.05c1.44,0,2.49-0.03,3.36-0.05c0.86-0.01,1.53-0.01,2.24,0.05l-0.12,2.3h-0.55l-0.12-1.16
		c-0.03-0.23-1.06-0.29-1.77-0.29C68.6,43.69,67.94,43.71,67.3,43.74"/>
	<path class="st0" d="M75.22,51.21v-6.28c0-0.65-0.02-1.06-0.11-1.25c-0.08-0.15-0.23-0.23-0.63-0.26l-0.57-0.05V42.8
		c1.01,0.02,1.8,0.05,2.58,0.05c1.04,0,2.07-0.03,3.12-0.05c1.57-0.03,3.01,0.45,3.01,2.28c0,1.36-1.01,2.27-2.29,2.73l2.78,4.22
		c0.11,0.17,0.28,0.34,0.44,0.48c0.14,0.11,0.34,0.15,0.63,0.22v0.62c-0.49-0.01-1-0.04-1.49-0.04c-0.46,0-0.92,0.03-1.38,0.04
		l-3.44-5.36l0.11-0.28c1.41,0.12,2.46-0.76,2.46-2.2c0-1.26-0.87-1.94-2.07-1.94c-0.32,0-0.74,0.02-0.98,0.14v7.51
		c0,0.65,0.02,1.06,0.11,1.25c0.06,0.12,0.23,0.19,0.63,0.22l0.57,0.05v0.62c-0.63-0.01-1.47-0.04-2.38-0.04
		c-0.92,0-1.77,0.03-2.39,0.04v-0.62l0.57-0.05c0.4-0.03,0.57-0.09,0.63-0.22C75.21,52.28,75.22,51.86,75.22,51.21"/>
	<path class="st0" d="M86.23,50.19h0.62l0.11,1.36c0.42,0.71,1.61,1.19,2.41,1.19c1.3,0,2.41-0.69,2.41-2.04
		c0-0.66-0.4-1.17-1.27-1.43l-2.15-0.65c-1.29-0.39-2.24-1.29-2.24-2.62c0-2.47,1.83-3.41,4.05-3.41c0.95,0,1.96,0.17,2.85,0.52
		c-0.08,0.68-0.14,1.57-0.14,2.38h-0.63l-0.09-1.26c-0.46-0.53-1.32-0.85-2.04-0.85c-1.43,0-2.1,0.83-2.1,1.87
		c0,0.69,0.49,1.2,1.63,1.5l1.75,0.46c1.41,0.37,2.32,1.26,2.32,2.65c0,2.62-2.17,3.72-4.5,3.72c-1.1,0-2.22-0.23-3.21-0.71
		C86.18,51.94,86.23,51.07,86.23,50.19"/>
	<path class="st0" d="M99.28,44.93v6.29c0,0.65,0.01,1.06,0.11,1.25c0.06,0.12,0.23,0.18,0.63,0.22l0.57,0.05v0.62
		c-0.63-0.01-1.47-0.04-2.38-0.04c-0.92,0-1.77,0.03-2.4,0.04v-0.62l0.57-0.05c0.4-0.03,0.57-0.09,0.63-0.22
		c0.09-0.19,0.11-0.6,0.11-1.25v-6.29c0-0.65-0.01-1.06-0.11-1.25c-0.06-0.12-0.23-0.19-0.63-0.22l-0.57-0.05V42.8
		c0.63,0.01,1.47,0.04,2.4,0.04c0.9,0,1.75-0.03,2.38-0.04v0.62l-0.57,0.05c-0.4,0.03-0.57,0.09-0.63,0.22
		C99.3,43.87,99.28,44.28,99.28,44.93"/>
	<path class="st0" d="M108.1,43.75v7.46c0,0.65,0.01,1.06,0.11,1.25c0.06,0.12,0.23,0.18,0.63,0.22l0.57,0.05v0.62
		c-0.63-0.01-1.47-0.04-2.38-0.04c-0.92,0-1.76,0.03-2.39,0.04v-0.62l0.57-0.05c0.4-0.03,0.57-0.09,0.63-0.22
		c0.09-0.19,0.11-0.6,0.11-1.25v-7.46h-1.79c-0.41,0-0.84,0-0.95,0.14c-0.06,0.08-0.12,0.2-0.14,0.37l-0.08,1.06h-0.62
		c-0.03-1-0.08-1.71-0.2-2.45c1.71-0.06,3.3-0.03,4.85-0.03c1.57,0,3.16-0.03,4.78-0.05c-0.03,0.82-0.08,1.53-0.11,2.53h-0.62
		l-0.08-1.06c-0.02-0.17-0.08-0.29-0.14-0.37c-0.11-0.14-0.54-0.14-0.95-0.14H108.1z"/>
	<path class="st0" d="M118.92,47.8l2.89-4.96h1.18v0.29l-2.7,4.01c-0.32,0.48-0.58,1.02-0.81,1.54v2.52c0,0.65,0.02,1.07,0.11,1.25
		c0.06,0.12,0.23,0.19,0.63,0.22l0.57,0.05v0.62c-0.63-0.01-1.47-0.04-2.38-0.04c-0.92,0-1.76,0.03-2.39,0.04v-0.62l0.57-0.05
		c0.4-0.03,0.57-0.09,0.63-0.22c0.09-0.18,0.11-0.6,0.11-1.25v-2.15c-0.29-0.66-0.47-0.99-0.67-1.31l-1.55-2.52
		c-0.21-0.34-0.54-0.74-0.8-1.03c-0.35-0.39-0.68-0.51-1.2-0.51v-0.57l2.44-0.54c0.85,0.46,1.32,1.26,1.75,2.08L118.92,47.8z"/>
	<path class="st0" d="M108.78,56.97c-3.52,0-5.83,1.94-5.83,5.58c0,3.52,2.09,5.4,5.53,5.4c3.52,0,5.84-1.94,5.84-5.58
		C114.3,58.85,112.22,56.97,108.78,56.97 M108.47,67.09c-2.16,0-3.22-2.25-3.22-4.8c0-2.31,0.68-4.46,3.53-4.46
		c2.17,0,3.23,2.27,3.23,4.81C112,64.96,111.33,67.09,108.47,67.09"/>
	<path class="st0" d="M117.15,65.6v-6.28c0-0.65-0.02-1.07-0.11-1.25c-0.08-0.15-0.23-0.23-0.63-0.26l-0.57-0.05v-0.58
		c0.61,0.02,1.23,0.05,1.84,0.05c0.43,0,0.86-0.03,1.29-0.05c0.52,0.69,1.03,1.41,1.58,2.06l4.79,5.61v-5.53
		c0-0.65-0.01-1.07-0.11-1.25c-0.08-0.15-0.23-0.23-0.63-0.26l-0.57-0.05v-0.58c0.58,0.02,1.18,0.05,1.76,0.05
		c0.58,0,1.17-0.03,1.75-0.05v0.58l-0.57,0.05c-0.4,0.03-0.55,0.11-0.63,0.26c-0.09,0.18-0.11,0.6-0.11,1.25v7
		c0,0.54,0.03,1.1,0.04,1.56l-1.36-0.14c-0.63-0.71-1.28-1.43-1.88-2.15l-4.97-6.01l-0.03,6.02c0,0.65,0.01,1.06,0.11,1.25
		c0.07,0.15,0.23,0.23,0.63,0.26l0.57,0.04v0.58c-0.58-0.01-1.17-0.04-1.75-0.04c-0.58,0-1.18,0.03-1.76,0.04v-0.58l0.57-0.04
		c0.4-0.03,0.55-0.11,0.63-0.26C117.13,66.67,117.15,66.25,117.15,65.6"/>
	<path class="st0" d="M18.84,64.45l2.29-5.43l0.78-1.91h0.69c0.24,0.71,0.49,1.39,0.75,2.06l2.09,5.24l1.5-5.78
		c0.05-0.18,0.06-0.32,0.06-0.51c0-0.18-0.28-0.29-0.54-0.31l-0.7-0.05v-0.58c0.69,0.02,1.23,0.04,1.66,0.04
		c0.41,0,0.95-0.03,1.66-0.04v0.58l-0.51,0.05c-0.28,0.03-0.48,0.42-0.66,1.06l-1.87,6.66c-0.2,0.72-0.34,1.47-0.51,2.2h-1.12
		c-0.2-0.54-0.37-1.08-0.59-1.62l-2.29-5.78l-2.38,5.47c-0.28,0.63-0.48,1.28-0.72,1.93h-1.08l-2.13-9.28
		c-0.11-0.45-0.29-0.62-0.57-0.65l-0.49-0.05v-0.58c1.01,0.02,1.8,0.04,2.4,0.04c0.6,0,1.36-0.03,2.06-0.04v0.58l-0.64,0.05
		c-0.2,0.01-0.46,0.18-0.46,0.35c0,0.11,0.01,0.26,0.05,0.43l1.24,5.86H18.84z"/>
	<path class="st0" d="M34.05,58.13v3.7c0.35,0.03,0.69,0.03,1.03,0.03h1.01c0.54,0,0.85-0.03,0.88-0.32l0.09-0.88h0.62
		c-0.02,0.55-0.05,1.09-0.05,1.65c0,0.55,0.03,1.11,0.05,1.67h-0.62l-0.09-0.77c-0.05-0.43-0.34-0.57-0.88-0.57h-1.01
		c-0.34,0-0.68,0.01-1.03,0.04v4.12c0.65,0.03,1.31,0.05,1.97,0.05c0.7,0,1.84-0.14,1.87-0.26l0.36-1.45h0.6l-0.17,2.44
		c-1.08,0.2-2.86,0.2-3.86,0.17c-0.63-0.01-1.26-0.05-1.89-0.05c-0.65,0-1.28,0.03-1.84,0.05v-0.35l0.49-0.28
		c0.24-0.14,0.31-0.4,0.31-0.88v-6.91c0-0.65-0.02-1.06-0.11-1.25c-0.08-0.15-0.23-0.23-0.63-0.26l-0.57-0.05v-0.58
		c1.01,0.02,1.79,0.05,2.4,0.05c1.44,0,2.49-0.03,3.36-0.05c0.86-0.01,1.53-0.01,2.24,0.05l-0.12,2.3h-0.55l-0.12-1.16
		c-0.03-0.23-1.06-0.29-1.76-0.29C35.36,58.08,34.7,58.1,34.05,58.13"/>
	<path class="st0" d="M43.84,59.32v7.48c0.65,0.03,1.31,0.05,1.97,0.05c0.7,0,1.84-0.14,1.88-0.26l0.35-1.57h0.6l-0.17,2.56
		c-1.08,0.2-2.86,0.2-3.86,0.17c-0.63-0.01-1.26-0.05-1.89-0.05c-0.65,0-1.28,0.03-1.84,0.05v-0.35l0.49-0.28
		c0.24-0.14,0.3-0.4,0.3-0.88v-6.91c0-0.65-0.01-1.06-0.11-1.25c-0.06-0.12-0.23-0.18-0.63-0.22l-0.57-0.05v-0.62
		c0.63,0.02,1.47,0.04,2.4,0.04c0.9,0,1.75-0.03,2.38-0.04v0.62l-0.57,0.05c-0.4,0.03-0.57,0.09-0.63,0.22
		C43.85,58.25,43.84,58.67,43.84,59.32"/>
	<path class="st0" d="M53.62,59.32v7.48c0.65,0.03,1.31,0.05,1.97,0.05c0.7,0,1.84-0.14,1.88-0.26l0.35-1.57h0.6l-0.17,2.56
		c-1.08,0.2-2.86,0.2-3.86,0.17c-0.63-0.01-1.26-0.05-1.89-0.05c-0.65,0-1.27,0.03-1.84,0.05v-0.35l0.49-0.28
		c0.25-0.14,0.31-0.4,0.31-0.88v-6.91c0-0.65-0.01-1.06-0.11-1.25c-0.06-0.12-0.23-0.18-0.63-0.22l-0.57-0.05v-0.62
		c0.63,0.02,1.47,0.04,2.4,0.04c0.91,0,1.75-0.03,2.38-0.04v0.62l-0.57,0.05c-0.4,0.03-0.57,0.09-0.63,0.22
		C53.63,58.25,53.62,58.67,53.62,59.32"/>
	<path class="st0" d="M63.2,59.32v6.29c0,0.65,0.01,1.06,0.11,1.25c0.06,0.12,0.23,0.18,0.63,0.22l0.57,0.05v0.62
		c-0.63-0.02-1.47-0.05-2.38-0.05c-0.92,0-1.76,0.03-2.4,0.05v-0.62l0.57-0.05c0.4-0.03,0.57-0.09,0.63-0.22
		c0.09-0.19,0.11-0.6,0.11-1.25v-6.29c0-0.65-0.02-1.06-0.11-1.25c-0.06-0.12-0.23-0.18-0.63-0.22l-0.57-0.05v-0.62
		c0.63,0.01,1.47,0.04,2.4,0.04c0.91,0,1.75-0.03,2.38-0.04v0.62l-0.57,0.05c-0.4,0.03-0.57,0.09-0.63,0.22
		C63.21,58.26,63.2,58.67,63.2,59.32"/>
	<path class="st0" d="M67.35,65.6v-6.28c0-0.65-0.02-1.07-0.11-1.25c-0.08-0.15-0.23-0.23-0.63-0.26l-0.57-0.05v-0.58
		c0.62,0.02,1.23,0.05,1.84,0.05c0.43,0,0.86-0.03,1.29-0.05c0.52,0.69,1.03,1.41,1.58,2.06l4.79,5.61v-5.53
		c0-0.65-0.02-1.07-0.11-1.25c-0.07-0.15-0.23-0.23-0.63-0.26l-0.57-0.05v-0.58c0.58,0.02,1.18,0.05,1.77,0.05
		c0.58,0,1.17-0.03,1.75-0.05v0.58l-0.57,0.05c-0.4,0.03-0.55,0.11-0.63,0.26c-0.09,0.18-0.11,0.6-0.11,1.25v7
		c0,0.54,0.03,1.1,0.04,1.56l-1.36-0.14c-0.63-0.71-1.27-1.43-1.88-2.15l-4.97-6.01l-0.03,6.02c0,0.65,0.01,1.06,0.11,1.25
		c0.07,0.15,0.23,0.23,0.63,0.26l0.57,0.04v0.58c-0.59-0.01-1.17-0.04-1.75-0.04c-0.58,0-1.18,0.03-1.76,0.04v-0.58l0.57-0.04
		c0.4-0.03,0.55-0.11,0.63-0.26C67.33,66.67,67.35,66.25,67.35,65.6"/>
	<path class="st0" d="M89.88,64.51v2.52c-1.41,0.56-2.9,0.92-4.49,0.92c-3.5,0-6.08-1.97-6.08-5.66c0-3.55,2.87-5.32,6.14-5.32
		c1.39,0,2.76,0.12,4.23,0.73c-0.06,0.72-0.18,1.87-0.26,2.53h-0.61l-0.07-1.33c-0.6-0.71-1.96-1.06-3.22-1.06
		c-2.55,0-3.9,1.82-3.9,4.26c0,2.67,1.36,5,4.13,5c0.68,0,1.31-0.14,1.95-0.39v-2.04c0-0.48-0.38-0.56-0.88-0.57L86,64.06v-0.63
		c0.75,0.02,1.5,0.05,2.26,0.05c0.75,0,1.49-0.03,2.24-0.05v0.53C89.98,64.06,89.88,64.13,89.88,64.51"/>
	<path class="st0" d="M97.88,58.14v7.46c0,0.65,0.02,1.06,0.11,1.25c0.06,0.12,0.23,0.19,0.63,0.22l0.57,0.05v0.62
		c-0.63-0.02-1.47-0.04-2.38-0.04c-0.92,0-1.76,0.03-2.39,0.04v-0.62l0.57-0.05c0.4-0.03,0.57-0.09,0.63-0.22
		c0.1-0.18,0.11-0.6,0.11-1.25v-7.46h-1.79c-0.41,0-0.84,0-0.95,0.14c-0.06,0.08-0.12,0.2-0.14,0.37l-0.08,1.06h-0.62
		c-0.03-1-0.08-1.71-0.2-2.45c1.71-0.06,3.3-0.03,4.85-0.03c1.57,0,3.16-0.03,4.78-0.05c-0.03,0.82-0.08,1.53-0.11,2.53h-0.62
		l-0.07-1.06c-0.02-0.17-0.08-0.29-0.14-0.37c-0.11-0.14-0.53-0.14-0.95-0.14H97.88z"/>
</g>
</svg>
