<svg version="1.1" id="Layer_2" xmlns="http://www.w3.org/2000/svg" x="0px" y="0px" viewBox="0 0 333.64 139.86" xml:space="preserve"><style>.st1{fill:#004b34}</style><path fill="none" d="M0 0H333.64V139.86H0z"/><path class="st1" d="M254.85 103.48h-1.51v5.44h1.51c1.64 0 2.6-1.24 2.6-2.71C257.46 104.67 256.56 103.48 254.85 103.48zM210.88 107.45L213.47 107.45 212.18 103.7zM231.12 107.45L233.71 107.45 232.42 103.7z"/><path class="st1" d="M98.41 95.39v21.62h211.64V95.39H98.41zM156.16 110.55h-1.7l-3.96-5.67v5.67h-1.77v-8.7h1.82l3.85 5.46v-5.46h1.77V110.55zM165.4 105.32v1.63h-3.3v1.97h3.38l.72 1.63h-5.87v-8.7h5.87l-.72 1.63h-3.38v1.84H165.4zM178.14 110.55h-1.88l-1.46-5.97-1.44 5.97h-1.88l-2.09-8.7h1.98l1.17 6.29 1.58-6.29h1.38l1.57 6.29 1.16-6.29h1.99L178.14 110.55zM194.99 110.55h-6.32v-1.5l3.92-5.57h-3.92v-1.63h6.23v1.48l-3.92 5.58h4.01V110.55zM204.03 105.32v1.63h-3.3v1.97h3.38l.72 1.63h-5.87v-8.7h5.87l-.72 1.63h-3.38v1.84H204.03zM214.47 110.55l-.51-1.47h-3.56l-.52 1.47h-2.02l3.21-8.7h2.22l3.2 8.7H214.47zM225.11 110.55h-5.28v-8.7h1.77v7.07h3.51V110.55zM234.71 110.55l-.51-1.47h-3.56l-.52 1.47h-2.02l3.21-8.7h2.22l3.2 8.7H234.71zM247.36 110.55h-1.7l-3.96-5.67v5.67h-1.77v-8.7h1.82l3.85 5.46v-5.46h1.77V110.55zM254.85 110.55h-3.27v-8.7h3.27c2.6 0 4.41 1.73 4.41 4.36C259.26 108.83 257.46 110.55 254.85 110.55zM121.24 86.98L120.27 85.06 114.89 85.06 114.89 81.6 120.14 81.6 120.14 79.68 114.89 79.68 114.89 76.46 120.27 76.46 121.24 74.54 112.71 74.54 112.71 86.98zM104.42 86.98L104.42 76.46 107.36 76.46 108.18 74.54 98.47 74.54 98.47 76.46 102.24 76.46 102.24 86.98zM144.38 86.98L144.38 74.54 142.2 74.54 142.2 79.63 135.73 79.63 135.73 74.54 133.55 74.54 133.55 86.98 135.73 86.98 135.73 81.55 142.2 81.55 142.2 86.98zM158.69 86.99L157.73 85.07 152.35 85.07 152.35 81.61 157.6 81.61 157.6 79.7 152.35 79.7 152.35 76.47 157.73 76.47 158.69 74.55 150.17 74.55 150.17 86.99zM173.5 86.97l-3.04-4.89c1.49-.24 2.94-1.43 2.94-3.66 0-2.29-1.6-3.9-4.06-3.9h-5.46v12.44h2.18v-4.64h2.16l2.76 4.64H173.5zM169.05 80.41h-2.98v-3.96h2.98c1.23 0 2.13.78 2.13 1.98C171.17 79.63 170.28 80.41 169.05 80.41M187.56 86.99L186.6 85.07 181.22 85.07 181.22 81.61 186.47 81.61 186.47 79.7 181.22 79.7 181.22 76.47 186.6 76.47 187.56 74.55 179.04 74.55 179.04 86.99zM204.26 86.98L204.26 74.54 202.08 74.54 202.08 83.17 195.72 74.54 193.48 74.54 193.48 86.98 195.66 86.98 195.66 78.1 202.15 86.98zM220.15 76.28c-1.01-1.11-2.41-1.95-4.45-1.95-3.6 0-6.53 2.54-6.53 6.44 0 3.9 2.93 6.45 6.53 6.45 2.17 0 3.9-.89 5.13-2.25V80.3h-4.99v1.92h2.81v1.94c-.56.52-1.68 1.12-2.95 1.12-2.46 0-4.29-1.9-4.29-4.51 0-2.61 1.83-4.5 4.29-4.5 1.28 0 2.35.62 3.03 1.44L220.15 76.28zM237.96 86.97l-4.89-12.44h-2.72l-4.89 12.44h2.48l.91-2.39h5.71l.91 2.39H237.96zM233.95 82.67h-4.48l2.24-5.93L233.95 82.67zM261.15 86.98L264.27 74.54 261.83 74.54 259.85 83.87 257.27 74.54 255.54 74.54 252.97 83.87 250.96 74.54 248.52 74.54 251.66 86.98 253.99 86.98 256.4 77.8 258.82 86.98zM279.54 86.97l-4.89-12.44h-2.72l-4.89 12.44h2.48l.91-2.39h5.71l.91 2.39H279.54zM275.53 82.67h-4.48l2.24-5.93L275.53 82.67zM293.92 86.98L288.49 80.41 293.55 74.54 290.84 74.54 285.97 80.47 285.97 74.54 283.79 74.54 283.79 86.98 285.97 86.98 285.97 83 287.05 81.73 291.23 86.98zM309.8 86.97l-4.89-12.44h-2.72l-4.89 12.44h2.48l.91-2.39h5.71l.91 2.39H309.8zM305.79 82.67h-4.48l2.24-5.93L305.79 82.67zM305.47 43.31L305.47 57.66 294.82 43.31 289.79 43.31 289.79 66.15 294.69 66.15 294.69 51.25 305.65 66.15 310.37 66.15 310.37 43.31zM121.7 66.01L127.3 43.16 121.78 43.16 118.73 59.19 114.39 43.16 110.56 43.16 106.18 59.19 103.1 43.16 97.62 43.16 103.25 66.01 108.46 66.01 112.46 50.32 116.49 66.01zM147.17 66.18L145.29 61.9 135.8 61.9 135.8 56.73 145.05 56.73 145.05 52.45 135.8 52.45 135.8 47.62 145.29 47.62 147.17 43.33 130.9 43.33 130.9 66.18zM241.06 46.49c-1.82-2.07-4.54-3.68-8.48-3.68-6.79 0-12.35 4.63-12.35 11.93 0 7.26 5.02 11.96 11.81 11.96 4.21 0 8.06-1.73 10.42-4.36V53.5h-10.12v4.29h5.18v2.77c-.94.86-2.89 1.76-4.94 1.76-4.21 0-7.27-3.21-7.27-7.57s3.06-7.57 7.27-7.57c2.27 0 4.09 1.18 5.19 2.63L241.06 46.49zM274.09 66.56c6.96 0 12.28-4.93 12.28-11.82 0-6.89-5.07-11.82-12.03-11.82-6.93 0-12 4.93-12 11.82C262.34 61.63 267.16 66.56 274.09 66.56M274.33 62.25c-4.24 0-6.96-3.25-6.96-7.5 0-4.28 2.72-7.5 6.96-7.5 4.24 0 7 3.22 7 7.5C281.33 59 278.57 62.25 274.33 62.25M255.39 66.15L255.39 47.59 261.13 47.59 263.01 43.31 243.73 43.31 243.73 47.59 250.46 47.59 250.46 66.15zM186.15 43.31H191.05V66.16H186.15zM164.6 66.15L164.6 61.87 155.91 61.87 155.91 43.31 151.01 43.31 151.01 66.15zM182.17 66.15L182.17 61.87 173.48 61.87 173.48 43.31 168.58 43.31 168.58 66.15zM216.65 66.15L216.65 43.31 211.75 43.31 211.75 57.66 201.1 43.31 196.07 43.31 196.07 66.15 200.96 66.15 200.96 51.25 211.92 66.15zM140.49 35.78c2.89 0 4.92-2.1 4.92-4.98 0-2.87-2.03-4.98-4.92-4.98-2.89 0-4.92 2.11-4.92 4.98C135.57 33.67 137.6 35.78 140.49 35.78M140.49 34.28c-1.95 0-3.19-1.5-3.19-3.48 0-1.99 1.24-3.48 3.19-3.48 1.93 0 3.19 1.49 3.19 3.48C143.68 32.78 142.42 34.28 140.49 34.28M103.55 35.61L106.98 25.98 105.06 25.98 102.49 33.77 99.92 25.98 98 25.98 101.44 35.61zM174.51 35.61l-3.78-9.62h-2.11l-3.78 9.62h1.92l.71-1.85h4.42l.71 1.85H174.51zM171.41 32.27h-3.46l1.73-4.59L171.41 32.27zM110.43 25.98H112.12V35.6H110.43zM122.75 28.51l1.13-1.14c-.74-.87-1.81-1.55-3.39-1.55-2.84 0-5.05 2.02-5.05 4.98s2.21 4.98 5.05 4.98c1.59 0 2.65-.68 3.39-1.55l-1.13-1.14c-.49.69-1.32 1.19-2.26 1.19-1.9 0-3.32-1.46-3.32-3.48s1.42-3.48 3.32-3.48C121.43 27.32 122.26 27.83 122.75 28.51M130.94 35.61L130.94 27.47 133.22 27.47 133.85 25.98 126.34 25.98 126.34 27.47 129.25 27.47 129.25 35.61zM156.11 35.6l-2.35-3.78c1.15-.19 2.28-1.11 2.28-2.83 0-1.78-1.24-3.02-3.15-3.02h-4.23v9.62h1.69v-3.59h1.68l2.14 3.59H156.11zM152.66 30.53h-2.31v-3.06h2.31c.95 0 1.65.61 1.65 1.53C154.31 29.92 153.62 30.53 152.66 30.53M159.94 25.98H161.63V35.6H159.94zM187.06 35.78c2.79 0 4.16-1.58 4.16-3.98v-5.82h-1.7v5.77c0 1.53-.85 2.53-2.45 2.53-1.62 0-2.47-.99-2.47-2.53v-5.77h-1.7v5.83C182.89 34.18 184.26 35.78 187.06 35.78M203.62 35.61L203.62 25.98 201.93 25.98 201.93 32.66 197.01 25.98 195.28 25.98 195.28 35.61 196.97 35.61 196.97 28.74 201.99 35.61zM208.1 25.98H209.79V35.6H208.1zM219.07 35.61L222.5 25.98 220.58 25.98 218.01 33.77 215.44 25.98 213.53 25.98 216.96 35.61zM232.86 35.61L232.12 34.12 227.96 34.12 227.96 31.45 232.02 31.45 232.02 29.97 227.96 29.97 227.96 27.47 232.12 27.47 232.86 25.98 226.27 25.98 226.27 35.61zM244.38 35.6l-2.35-3.78c1.15-.19 2.28-1.11 2.28-2.83 0-1.78-1.24-3.02-3.15-3.02h-4.23v9.62h1.69v-3.59h1.68l2.14 3.59H244.38zM240.93 30.53h-2.31v-3.06h2.31c.95 0 1.65.61 1.65 1.53C242.58 29.92 241.88 30.53 240.93 30.53M253.93 28.3l1.12-1.13c-.89-.86-2.1-1.33-3.59-1.33-2.11 0-3.51 1.23-3.51 2.81 0 3.55 5.61 2.3 5.61 4.32 0 .63-.55 1.31-1.94 1.31-1.24 0-2.2-.53-2.86-1.17l-1.09 1.1-.03.03c.85.91 2.14 1.53 3.91 1.53 2.6 0 3.72-1.37 3.72-2.97 0-3.59-5.6-2.48-5.6-4.27 0-.72.64-1.2 1.63-1.2C252.26 27.34 253.2 27.65 253.93 28.3M259.25 25.98H260.94V35.6H259.25zM269.16 35.61L269.16 27.47 271.44 27.47 272.08 25.98 264.56 25.98 264.56 27.47 267.47 27.47 267.47 35.61zM279.44 35.61L279.44 31.61 282.82 25.98 280.89 25.98 278.61 30.11 276.3 25.98 274.36 25.98 277.75 31.61 277.75 35.61z"/><g><path class="st1" d="M294.68,35.78c2.89,0,4.92-2.1,4.92-4.98c0-2.87-2.03-4.98-4.92-4.98s-4.92,2.11-4.92,4.98 C289.76,33.67,291.79,35.78,294.68,35.78 M294.68,34.28c-1.95,0-3.19-1.5-3.19-3.48c0-1.99,1.24-3.48,3.19-3.48 c1.93,0,3.19,1.49,3.19,3.48C297.87,32.78,296.61,34.28,294.68,34.28"/></g><path class="st1" d="M305.08 35.61L305.08 31.45 309.11 31.45 309.11 29.97 305.08 29.97 305.08 27.47 309.22 27.47 309.98 25.98 303.39 25.98 303.39 35.61zM55.31 50.3L48.07 57.63 62.59 57.63z"/><g><path class="st1" d="M27.46,28.53h55.03v9.88H27.46V28.53z M62.69,57.72H77.5l-7.41,7.47L62.69,57.72l-7.41,7.47l-7.41-7.47 l-7.43,7.47l-7.39-7.47h14.82l-7.39-7.47h14.78l-7.4-7.47h14.81l-7.4,7.47H70.1L62.69,57.72z M30.56,69.32 c0.85,0.67,1.79,1.08,2.79,1.08c2.8-0.05,4.05-2.12,6.85-2.18c3-0.07,4.38,2.19,7.39,2.19c3,0,4.38-2.19,7.39-2.19 c3,0,4.38,2.19,7.39,2.19c3.01,0,4.39-2.26,7.39-2.19c2.8,0.06,4.04,2.13,6.84,2.18c1,0,1.95-0.41,2.81-1.09 c-1.93,2.69-4.95,5.75-9.62,9.14c-5.99,4.34-12.28,7.37-14.81,8.42c-2.53-1.05-8.81-4.08-14.8-8.42 C35.51,75.06,32.48,72.01,30.56,69.32 M86.88,24.02L86.88,24.02l0-0.06H23.09v0.06h-0.01v37.1c0,17.01,30.64,30.41,31.89,30.41 c1.25,0,31.91-13.4,31.91-30.41V24.02z"/><path class="st1" d="M61.49,35.58l1.68-3.8v-0.53h-3.12v0.67h2.25l-1.64,3.66H61.49z M56.98,33.38c-0.47,0-0.88-0.24-0.88-0.77 c0-0.34,0.3-0.75,0.86-0.75c0.67,0,0.93,0.55,0.97,1.02C57.71,33.18,57.35,33.38,56.98,33.38 M56.8,35.65 c1.25,0,1.91-0.99,1.91-2.23c0-1.21-0.51-2.24-1.78-2.24c-0.97,0-1.6,0.66-1.6,1.45c0,0.92,0.67,1.4,1.45,1.4 c0.51,0,0.96-0.32,1.16-0.61v0.13c0,0.71-0.36,1.42-1.14,1.42c-0.41,0-0.66-0.14-0.89-0.38l-0.35,0.57 C55.85,35.46,56.26,35.65,56.8,35.65 M52.14,34.98c-0.49,0-0.9-0.23-0.9-0.61c0-0.45,0.62-0.65,0.9-0.68 c0.27,0.03,0.89,0.23,0.89,0.68C53.03,34.75,52.62,34.98,52.14,34.98 M52.14,33.05c-0.27-0.05-0.82-0.2-0.82-0.61 c0-0.36,0.35-0.58,0.82-0.58c0.46,0,0.82,0.21,0.82,0.58C52.96,32.84,52.41,33,52.14,33.05 M52.14,35.66 c0.88,0,1.65-0.41,1.65-1.19c0-0.55-0.45-0.95-0.97-1.12c0.49-0.16,0.91-0.47,0.91-1.03c0-0.8-0.83-1.14-1.59-1.14 c-0.77,0-1.59,0.34-1.59,1.14c0,0.55,0.41,0.87,0.9,1.03c-0.53,0.18-0.97,0.57-0.97,1.12C50.48,35.25,51.25,35.66,52.14,35.66 M48.69,35.58v-4.33h-0.66l-1.25,1.26l0.44,0.46l0.71-0.73v3.34H48.69z"/></g></svg>
