<?xml version="1.0" encoding="utf-8"?>
<!-- Generator: Adobe Illustrator 23.0.1, SVG Export Plug-In . SVG Version: 6.00 Build 0)  -->
<svg version="1.1" id="Layer_1" xmlns="http://www.w3.org/2000/svg" xmlns:xlink="http://www.w3.org/1999/xlink" x="0px" y="0px"
	 viewBox="0 0 143.26 35.09" style="enable-background:new 0 0 143.26 35.09;" xml:space="preserve">
<style type="text/css">
	.st0{fill:#FFFFFF;}
</style>
<g>
	<path class="st0" d="M6.02,7.31c-0.7-0.6-1.6-1.81-1.72-2.64C4.21,4.06,4.62,3.68,4.62,3.68s-0.2-0.6-0.11-0.88
		c0.43-1.3,6.5-1.36,7.75-1.32c2.84,0.13,3.44,0,4.84-0.55c-0.04-0.05-0.47,2.12-3.12,2.08c-0.01,0.22-0.01,0.3,0,0.33
		c1.05,0.02,2.29-0.22,3.01-1.1c-0.02,0.74,0.25,1.64-1.18,1.98c-1.38,0.32-2.24,0.28-2.69,4.28c-0.09,1.13,0.01,2.12-1.83,2.52
		c-1.76,0.39-6.42,0.51-7.25,1.18l-0.17-0.3c0.92-0.65,1.51-1.65,1.4-2.74c0.19-0.12,0.47-0.22,0.65-0.22
		c-0.02,0.38-0.47,1.21,1.72,1.21c0.04,0,2.06,0.24,1.18-2.42C8.55,6.9,8.31,5.95,7.31,5.97c0-0.02-1.27,0.06-0.65,1.35
		c0.89,0.19,1.91,0.41,2.05,1.07c0.11,0.67-0.38,1.04-0.75,0.88S6.55,8.51,5.81,8.51c-1.37,0-3.81,1.58-5.38-1.42
		c0.45,0.5,0.88,0.82,2.37,0.87C4.25,8.01,4.55,7.35,6.02,7.31 M9.67,3.14C8.69,2.45,8.19,2.19,7.84,2.26
		c-0.32,0.07-0.98,1.15-0.97,1.1C7.69,3.19,8.92,3.09,9.67,3.14 M17.2,8.3v10.1H2.36c0.02-0.04,0.54-1.37,0.97-1.86
		c-0.37-0.31-0.68-0.59-0.65-0.55c-0.03-0.04,1.98-2.72,3.44-2.74c-0.28-0.24-0.55-0.54-0.54-0.55c0.52-0.59,1.45-0.63,4.52-0.88
		c3.06-0.28,3.5-1.1,3.55-3.63C14.41,9.12,15.7,10.25,17.2,8.3 M46.97,4.92c0-0.46,0.36-0.83,0.81-0.83s0.81,0.37,0.81,0.83
		s-0.36,0.83-0.81,0.83C47.33,5.74,46.97,5.38,46.97,4.92 M53.22,6.42c0.19-0.32,0.7-0.44,1.2-0.27c0.54,0.19,0.87,0.65,0.77,1.04
		c2.66-0.05,3.3-0.68,3.32-0.66c-0.78,1.45-3.04,2.5-3.9,2.58c1.21,0.42,3.58,1.83,3.57,4.55c0,3.97-3.78,4.53-5.9,3.95
		c0.68,0.18,1.03,0.64,1.05,0.76h-9.56v-8.02c0.28-0.34,0.86-0.77,1.55-1.07C45.75,9.09,45.7,8.6,45.7,8.6
		c-1.16-0.21-1.93-1.21-1.93-1.21V2.78c0,0,1.15-1.65,3.87-1.65C49.81,1.15,50.97,3,50.97,3s0.91-0.78,2.69-0.77
		c4.02,0,4.95,3.95,4.95,3.95c-1.18-1.02-2.62-1.34-3.33-1.43c-0.07,0.36-0.44,0.63-0.88,0.63c-0.4,0-0.73-0.22-0.84-0.52
		l-0.33,0.22c0.05,0.13,0.07,0.27,0.06,0.42c-0.02,0.28-0.17,0.52-0.38,0.68L53.22,6.42z M45.97,4.92c0,1.02,0.81,1.85,1.81,1.85
		s1.81-0.83,1.81-1.85s-0.81-1.85-1.81-1.85C46.78,3.07,45.97,3.9,45.97,4.92 M50.44,7.73c-0.31,0.34-0.8,0.63-1.4,0.77
		c0.62-0.04,1.8-0.05,2.37,0C50.98,8.31,50.44,7.73,50.44,7.73 M50.33,11.13c-2.31-0.1-3.21,1.31-2.43,1.84
		C49.36,13.99,50.32,11.1,50.33,11.13 M52.16,11.57c-0.03,0-0.12,1.3-1.29,2.19c0.65-0.02,1.71,0.07,1.94-0.77
		C53.03,12.08,52.28,11.61,52.16,11.57 M15.37,8.74c-0.7,0-1.57-0.92-1.5-1.49c0.41-3.12,1.98-2.11,3.14-3.02
		C17.34,4.66,17.83,8.74,15.37,8.74 M24.41,10.16h12.16v8.23H24.41V10.16z M33.46,16.85l-0.51-0.91l0.51-0.91h-1.03l-0.51-0.91
		l-0.51,0.91h-1.03l0.51,0.91l-0.51,0.91h1.03l0.51,0.91l0.51-0.91H33.46z M30.61,13.53l-0.51-0.91l0.51-0.91h-1.03l-0.52-0.91
		l-0.52,0.91h-1.03l0.52,0.91l-0.52,0.91h1.03l0.52,0.91l0.52-0.91H30.61z M35.34,13.53l-0.52-0.91l0.52-0.91h-1.03l-0.52-0.91
		l-0.52,0.91h-1.02l0.51,0.91l-0.51,0.91h1.03l0.52,0.91l0.52-0.91H35.34z M28.72,16.85l-0.51-0.91l0.51-0.91h-1.03l-0.52-0.91
		l-0.52,0.91h-1.03l0.52,0.91l-0.52,0.91h1.03l0.52,0.91l0.52-0.91H28.72z M30.48,28.05c-0.49,0-12.31-5.23-12.31-11.86V1.71h12.37
		H42.8v14.47C42.8,22.83,30.97,28.05,30.48,28.05 M30.49,8.49c-1.2,0-1.76,0.88-2.96,0.88s-1.76-0.91-2.96-0.88
		c-1.12,0.02-1.62,0.86-2.74,0.88c-1.11,0.02-1.92-0.81-2.74-0.77v7.59c0.04,1.59,1.25,3.87,2.74,3.87
		c1.12-0.02,1.62-0.85,2.75-0.88c1.2-0.02,1.76,0.88,2.96,0.88c1.21,0,1.76-0.88,2.96-0.88s1.76,0.88,2.96,0.88s1.76-0.9,2.96-0.88
		c1.12,0.03,1.62,0.86,2.74,0.88c1.49,0,2.7-2.28,2.74-3.87V8.6c-0.82-0.04-1.63,0.79-2.74,0.77c-1.12-0.02-1.62-0.86-2.74-0.88
		c-1.21-0.03-1.76,0.88-2.96,0.88C32.24,9.37,31.69,8.49,30.49,8.49 M31.72,4.13v2.41h7.53V4.13l-1.08,1.21h-1.51l-1.18-1.21
		L34.3,5.34h-1.51L31.72,4.13z M21.72,4.13v2.41h7.53V4.13l-1.08,1.21h-1.51l-1.18-1.21L24.3,5.34h-1.51L21.72,4.13z M26.72,21.36
		v2.41h7.53v-2.41l-1.08,1.21h-1.51l-1.18-1.21l-1.18,1.21h-1.51L26.72,21.36z"/>
	<path class="st0" d="M126.72,5.66l-1.13-2.77l-1.09,2.77H126.72z M130.11,8.14v0.41c-0.73-0.01-1.26-0.03-1.69-0.03
		c-0.42,0-0.97,0.02-1.69,0.03V8.14l0.58-0.03c0.18-0.01,0.29-0.25,0.15-0.6l-0.49-1.24h-2.74l-0.46,1.22
		c-0.15,0.41,0.07,0.61,0.26,0.62l0.54,0.03v0.41c-0.52-0.01-0.92-0.03-1.23-0.03c-0.32,0-0.71,0.02-1.23,0.03V8.14l0.33-0.03
		c0.28-0.03,0.48-0.34,0.61-0.65l1.97-4.77l0.28-0.75l0.17-0.45l0.16-0.45h0.77l2.82,6.59c0.12,0.27,0.26,0.43,0.6,0.48L130.11,8.14
		z M117.51,1.1v0.44l0.4,0.03c0.28,0.02,0.4,0.07,0.45,0.15c0.07,0.13,0.08,0.42,0.08,0.88v4.44c0,0.46-0.01,0.75-0.08,0.88
		c-0.04,0.09-0.16,0.13-0.45,0.15l-0.4,0.03v0.44c0.45-0.01,1.05-0.03,1.7-0.03c0.64,0,1.24,0.02,1.69,0.03V8.1l-0.4-0.03
		c-0.28-0.02-0.4-0.07-0.45-0.15c-0.07-0.13-0.08-0.42-0.08-0.88V2.6c0-0.46,0.01-0.75,0.08-0.88c0.04-0.09,0.16-0.13,0.45-0.15
		l0.4-0.03V1.1c-0.45,0.01-1.05,0.03-1.69,0.03C118.56,1.13,117.96,1.11,117.51,1.1 M115.63,7.62l-1.97-2.98
		c0.9-0.33,1.62-0.97,1.62-1.93c0-1.3-1.02-1.63-2.13-1.61c-0.74,0.01-1.47,0.03-2.21,0.03c-0.56,0-1.11-0.02-1.83-0.03v0.41
		l0.4,0.03c0.28,0.02,0.39,0.08,0.45,0.19c0.07,0.13,0.08,0.42,0.08,0.88v4.44c0,0.46-0.01,0.75-0.08,0.88
		c-0.04,0.09-0.16,0.13-0.45,0.15l-0.4,0.03v0.44c0.45-0.01,1.05-0.03,1.7-0.03c0.64,0,1.24,0.02,1.69,0.03V8.11l-0.4-0.03
		c-0.28-0.02-0.4-0.07-0.45-0.15c-0.07-0.13-0.08-0.42-0.08-0.88v-5.3c0.17-0.09,0.47-0.1,0.7-0.1c0.85,0,1.47,0.48,1.47,1.37
		c0,1.02-0.74,1.64-1.74,1.56l-0.08,0.2l2.44,3.78c0.33-0.01,0.65-0.03,0.98-0.03c0.35,0,0.71,0.02,1.06,0.03V8.12
		c-0.21-0.04-0.35-0.08-0.45-0.15C115.83,7.86,115.71,7.74,115.63,7.62 M106.45,4.95c0-1.8-0.75-3.4-2.29-3.4
		c-2.03,0-2.51,1.51-2.51,3.15c0,1.8,0.75,3.39,2.29,3.39C105.97,8.09,106.45,6.59,106.45,4.95 M108.08,4.76
		c0,2.57-1.65,3.94-4.14,3.94c-2.44,0-3.92-1.33-3.92-3.81c0-2.57,1.65-3.94,4.14-3.94C106.6,0.94,108.08,2.27,108.08,4.76
		 M95.76,1.13c-1.1,0-2.23-0.02-3.38-0.03l-0.07,0.05c0.09,0.52,0.12,1.02,0.14,1.73h0.44l0.06-0.75c0.01-0.12,0.05-0.21,0.1-0.26
		c0.08-0.1,0.38-0.1,0.68-0.1H95v5.27c0,0.46-0.01,0.75-0.08,0.88c-0.04,0.09-0.16,0.13-0.45,0.15l-0.4,0.03v0.44
		c0.44-0.01,1.04-0.03,1.7-0.03c0.64,0,1.24,0.02,1.69,0.03V8.1l-0.4-0.03c-0.28-0.02-0.4-0.07-0.45-0.15
		c-0.07-0.13-0.08-0.42-0.08-0.88V1.77h1.27c0.29,0,0.6,0,0.67,0.1c0.04,0.06,0.09,0.14,0.1,0.26l0.06,0.75h0.44
		c0.02-0.71,0.06-1.21,0.14-1.73L99.14,1.1C98.01,1.11,96.87,1.13,95.76,1.13 M88.61,1.55c0.74,0,1.42,0.2,1.96,0.75l0.06,0.94h0.43
		c0.05-0.47,0.14-1.28,0.25-1.67l-0.07-0.12c-1.05-0.44-1.78-0.51-2.67-0.51c-2.32,0-4.36,1.25-4.36,3.76c0,2.6,1.83,4,4.31,4
		c0.87,0,1.75-0.14,2.51-0.6l0.24-0.53l-0.13-0.13C90.58,7.77,89.7,8,89.06,8C87,8,85.85,6.56,85.85,4.57
		C85.84,2.84,86.8,1.55,88.61,1.55 M79.71,1.1v0.44l0.4,0.03c0.28,0.02,0.4,0.07,0.45,0.15c0.07,0.13,0.08,0.42,0.08,0.88v4.44
		c0,0.46-0.01,0.75-0.08,0.88c-0.04,0.09-0.16,0.13-0.45,0.15l-0.4,0.03v0.44c0.45-0.01,1.05-0.03,1.7-0.03
		c0.64,0,1.24,0.02,1.69,0.03V8.1l-0.4-0.03C82.42,8.05,82.3,8,82.25,7.92c-0.07-0.13-0.08-0.42-0.08-0.88V2.6
		c0-0.46,0.01-0.75,0.08-0.88c0.04-0.09,0.16-0.13,0.45-0.15l0.4-0.03V1.1c-0.45,0.01-1.05,0.03-1.69,0.03
		C80.75,1.13,80.15,1.11,79.71,1.1 M77.33,1.13c0.32,0,0.72-0.02,1.25-0.03v0.41l-0.35,0.03c-0.24,0.02-0.38,0.19-0.51,0.51
		l-2.27,5.42c-0.15,0.36-0.27,0.72-0.41,1.08h-0.83l-2.6-6.23c-0.13-0.3-0.31-0.75-0.68-0.78l-0.45-0.03V1.1
		c0.72,0.01,1.28,0.03,1.7,0.03s0.97-0.02,1.79-0.03v0.41l-0.54,0.03c-0.16,0.01-0.28,0.11-0.28,0.21c0,0.22,0.13,0.55,0.23,0.78
		l1.71,4.21l1.55-3.84c0.18-0.46,0.34-0.87,0.34-1.07s-0.19-0.28-0.4-0.29l-0.5-0.03V1.1C76.6,1.11,77.01,1.13,77.33,1.13"/>
	<path class="st0" d="M62.78,16.28v-4.15c0-0.48-0.01-0.78-0.08-0.92c-0.06-0.11-0.17-0.17-0.46-0.19l-0.42-0.03v-0.42
		c0.47,0.01,1.09,0.03,1.77,0.03c0.67,0,1.29-0.02,1.76-0.03v0.42l-0.42,0.03c-0.29,0.02-0.41,0.08-0.46,0.19
		c-0.07,0.14-0.08,0.44-0.08,0.92v2.81c0,1.6,0.1,2.61,2.02,2.61c1.89,0,2.11-1.04,2.11-2.68v-2.73c0-0.48-0.01-0.78-0.08-0.92
		c-0.06-0.11-0.17-0.17-0.46-0.19L67.56,11v-0.42c0.43,0.01,0.87,0.03,1.3,0.03s0.86-0.02,1.29-0.03V11l-0.42,0.03
		c-0.29,0.02-0.41,0.08-0.46,0.19c-0.07,0.14-0.08,0.44-0.08,0.92v3.31c0,2.07-1.1,3.04-3.15,3.04
		C63.88,18.48,62.78,17.56,62.78,16.28"/>
	<path class="st0" d="M72.23,16.75v-4.62c0-0.48-0.01-0.78-0.08-0.92c-0.06-0.11-0.17-0.17-0.47-0.19l-0.42-0.03v-0.42
		c0.45,0.01,0.9,0.03,1.36,0.03c0.32,0,0.64-0.02,0.95-0.03c0.38,0.5,0.76,1.04,1.17,1.51l3.54,4.12v-4.07
		c0-0.48-0.01-0.78-0.08-0.92c-0.06-0.11-0.17-0.17-0.46-0.19l-0.42-0.03v-0.42c0.43,0.01,0.87,0.03,1.3,0.03s0.86-0.02,1.29-0.03
		v0.42l-0.42,0.03c-0.29,0.02-0.41,0.08-0.46,0.19c-0.07,0.14-0.08,0.44-0.08,0.92v5.14c0,0.4,0.02,0.81,0.03,1.14l-1.01-0.1
		c-0.47-0.52-0.94-1.05-1.38-1.58l-3.67-4.42l-0.02,4.43c0,0.48,0.01,0.78,0.08,0.92c0.06,0.11,0.17,0.17,0.46,0.19l0.42,0.03v0.42
		c-0.43-0.01-0.86-0.03-1.29-0.03s-0.87,0.02-1.3,0.03v-0.42l0.42-0.03c0.3-0.02,0.41-0.08,0.47-0.19
		C72.22,17.53,72.23,17.23,72.23,16.75"/>
	<path class="st0" d="M83.69,12.13v4.62c0,0.47,0.01,0.78,0.08,0.92c0.05,0.09,0.17,0.14,0.47,0.16l0.42,0.03v0.46
		c-0.46-0.01-1.09-0.03-1.76-0.03c-0.68,0-1.3,0.02-1.77,0.03v-0.46l0.42-0.03c0.29-0.02,0.42-0.07,0.47-0.16
		c0.07-0.14,0.08-0.44,0.08-0.92v-4.62c0-0.47-0.01-0.78-0.08-0.92c-0.05-0.09-0.17-0.13-0.47-0.16l-0.42-0.03v-0.46
		c0.46,0.01,1.09,0.03,1.77,0.03c0.67,0,1.29-0.02,1.76-0.03v0.46l-0.42,0.03c-0.29,0.02-0.42,0.07-0.47,0.16
		C83.7,11.35,83.69,11.66,83.69,12.13"/>
	<path class="st0" d="M88.7,12.05l1.78,4.38l1.61-4c0.19-0.48,0.35-0.91,0.35-1.11s-0.19-0.29-0.42-0.31l-0.52-0.03v-0.42
		c0.56,0.01,0.99,0.03,1.32,0.03s0.75-0.02,1.3-0.03v0.42l-0.36,0.03c-0.25,0.02-0.4,0.2-0.53,0.53l-2.36,5.64
		c-0.16,0.37-0.28,0.75-0.43,1.12h-0.86l-2.71-6.48c-0.14-0.32-0.32-0.78-0.7-0.82l-0.46-0.03v-0.42c0.75,0.01,1.33,0.03,1.77,0.03
		c0.44,0,1.01-0.02,1.86-0.03v0.42L88.77,11c-0.17,0.01-0.3,0.11-0.3,0.22C88.46,11.46,88.59,11.81,88.7,12.05"/>
	<path class="st0" d="M97.66,11.26v2.72C97.92,14,98.17,14,98.42,14h0.75c0.4,0,0.62-0.02,0.65-0.24l0.07-0.65h0.45
		c-0.01,0.41-0.03,0.81-0.03,1.21c0,0.41,0.02,0.82,0.03,1.22h-0.45l-0.07-0.57c-0.04-0.32-0.25-0.42-0.65-0.42h-0.75
		c-0.25,0-0.5,0.01-0.76,0.03v3.03c0.48,0.02,0.96,0.03,1.45,0.03c0.52,0,1.36-0.1,1.38-0.19l0.26-1.06h0.44l-0.12,1.79
		c-0.8,0.15-2.11,0.15-2.85,0.12c-0.46-0.01-0.93-0.03-1.39-0.03c-0.47,0-0.94,0.02-1.36,0.03v-0.26l0.36-0.2
		c0.18-0.1,0.23-0.3,0.23-0.65v-5.07c0-0.48-0.01-0.78-0.08-0.92c-0.06-0.11-0.17-0.17-0.47-0.19l-0.42-0.03v-0.42
		c0.75,0.01,1.33,0.03,1.77,0.03c1.07,0,1.84-0.02,2.48-0.03c0.63-0.01,1.13-0.01,1.65,0.03l-0.09,1.69h-0.41l-0.09-0.85
		c-0.02-0.17-0.78-0.22-1.3-0.22C98.63,11.22,98.14,11.23,97.66,11.26"/>
	<path class="st0" d="M103.52,16.75v-4.62c0-0.47-0.01-0.78-0.08-0.92c-0.06-0.11-0.17-0.17-0.46-0.19l-0.42-0.03v-0.42
		c0.75,0.01,1.33,0.03,1.9,0.03c0.77,0,1.53-0.02,2.3-0.03c1.16-0.02,2.22,0.33,2.22,1.68c0,1-0.75,1.67-1.69,2.01l2.05,3.1
		c0.08,0.12,0.2,0.25,0.33,0.35c0.1,0.08,0.25,0.11,0.46,0.16v0.46c-0.36-0.01-0.74-0.03-1.1-0.03c-0.34,0-0.68,0.02-1.02,0.03
		l-2.54-3.94l0.08-0.2c1.04,0.09,1.81-0.56,1.81-1.62c0-0.93-0.64-1.43-1.53-1.43c-0.24,0-0.54,0.01-0.73,0.1v5.52
		c0,0.48,0.01,0.78,0.08,0.92c0.05,0.09,0.17,0.14,0.47,0.16l0.42,0.03v0.46c-0.46-0.01-1.09-0.03-1.76-0.03
		c-0.68,0-1.3,0.02-1.77,0.03v-0.46l0.42-0.03c0.29-0.02,0.42-0.07,0.46-0.16C103.5,17.53,103.52,17.23,103.52,16.75"/>
	<path class="st0" d="M111.64,16h0.46l0.08,1c0.31,0.52,1.19,0.87,1.78,0.87c0.96,0,1.78-0.51,1.78-1.5c0-0.49-0.29-0.86-0.94-1.06
		l-1.59-0.48c-0.95-0.28-1.66-0.95-1.66-1.93c0-1.81,1.35-2.51,2.99-2.51c0.7,0,1.45,0.12,2.11,0.39c-0.06,0.5-0.1,1.16-0.1,1.75
		h-0.46l-0.07-0.93c-0.34-0.39-0.97-0.62-1.51-0.62c-1.05,0-1.55,0.61-1.55,1.37c0,0.51,0.36,0.88,1.2,1.1l1.29,0.34
		c1.04,0.27,1.71,0.93,1.71,1.95c0,1.93-1.6,2.73-3.32,2.73c-0.81,0-1.64-0.17-2.37-0.52C111.61,17.29,111.64,16.64,111.64,16"/>
	<path class="st0" d="M121.28,12.13v4.62c0,0.47,0.01,0.78,0.08,0.92c0.04,0.09,0.17,0.14,0.46,0.16l0.42,0.03v0.46
		c-0.46-0.01-1.09-0.03-1.76-0.03c-0.68,0-1.3,0.02-1.77,0.03v-0.46l0.42-0.03c0.3-0.02,0.42-0.07,0.46-0.16
		c0.07-0.14,0.08-0.44,0.08-0.92v-4.62c0-0.47-0.01-0.78-0.08-0.92c-0.05-0.09-0.17-0.13-0.46-0.16l-0.42-0.03v-0.46
		c0.47,0.01,1.09,0.03,1.77,0.03c0.67,0,1.29-0.02,1.76-0.03v0.46l-0.42,0.03c-0.29,0.02-0.42,0.07-0.46,0.16
		C121.29,11.35,121.28,11.66,121.28,12.13"/>
	<path class="st0" d="M127.79,11.27v5.48c0,0.48,0.01,0.78,0.08,0.92c0.05,0.09,0.17,0.14,0.46,0.16l0.42,0.03v0.46
		c-0.46-0.01-1.09-0.03-1.75-0.03c-0.68,0-1.3,0.02-1.77,0.03v-0.46l0.42-0.03c0.29-0.02,0.42-0.07,0.46-0.16
		c0.07-0.14,0.08-0.44,0.08-0.92v-5.48h-1.32c-0.3,0-0.62,0-0.7,0.1c-0.04,0.06-0.09,0.15-0.1,0.27l-0.06,0.78h-0.46
		c-0.02-0.74-0.06-1.26-0.15-1.8c1.26-0.04,2.44-0.02,3.58-0.02c1.15,0,2.33-0.02,3.52-0.03c-0.02,0.6-0.06,1.12-0.08,1.86h-0.46
		l-0.06-0.78c-0.01-0.12-0.06-0.21-0.1-0.27c-0.08-0.1-0.4-0.1-0.7-0.1h-1.31V11.27z"/>
	<path class="st0" d="M135.78,14.24l2.13-3.64h0.87v0.22l-1.99,2.95c-0.24,0.35-0.43,0.75-0.6,1.13v1.85c0,0.48,0.01,0.78,0.08,0.92
		c0.04,0.09,0.17,0.14,0.46,0.16l0.42,0.03v0.46c-0.46-0.01-1.09-0.03-1.76-0.03c-0.68,0-1.3,0.02-1.77,0.03v-0.46l0.42-0.03
		c0.29-0.02,0.42-0.07,0.47-0.16c0.07-0.14,0.08-0.44,0.08-0.92v-1.58c-0.22-0.49-0.35-0.73-0.5-0.97l-1.15-1.85
		c-0.16-0.25-0.4-0.54-0.59-0.76c-0.26-0.28-0.5-0.38-0.88-0.38v-0.42l1.8-0.4c0.62,0.34,0.97,0.93,1.29,1.53L135.78,14.24z"/>
	<path class="st0" d="M128.06,27.42c-1.6,0-2.38-1.65-2.38-3.53c0-1.7,0.5-3.28,2.61-3.28c1.6,0,2.38,1.67,2.38,3.54
		C130.67,25.85,130.17,27.42,128.06,27.42 M128.29,19.98c-2.6,0-4.31,1.43-4.31,4.1c0,2.59,1.54,3.97,4.08,3.97
		c2.6,0,4.31-1.43,4.31-4.1C132.37,21.36,130.83,19.98,128.29,19.98"/>
	<path class="st0" d="M134.47,26.33v-4.62c0-0.48-0.01-0.78-0.08-0.92c-0.06-0.11-0.17-0.17-0.47-0.19l-0.42-0.03v-0.42
		c0.45,0.01,0.91,0.03,1.36,0.03c0.32,0,0.64-0.02,0.95-0.03c0.39,0.5,0.76,1.04,1.17,1.51l3.54,4.12v-4.07
		c0-0.48-0.01-0.78-0.08-0.92c-0.06-0.11-0.17-0.17-0.46-0.19l-0.42-0.03v-0.42c0.43,0.01,0.87,0.03,1.3,0.03
		c0.43,0,0.86-0.02,1.29-0.03v0.42l-0.42,0.03c-0.29,0.02-0.41,0.08-0.47,0.19c-0.07,0.14-0.08,0.44-0.08,0.92v5.14
		c0,0.4,0.02,0.81,0.03,1.15l-1.01-0.1c-0.47-0.52-0.94-1.05-1.38-1.58l-3.67-4.42l-0.02,4.43c0,0.48,0.01,0.78,0.08,0.92
		c0.05,0.11,0.17,0.17,0.46,0.19l0.42,0.03v0.42c-0.43-0.01-0.86-0.03-1.29-0.03s-0.87,0.02-1.3,0.03v-0.42l0.42-0.03
		c0.3-0.02,0.41-0.08,0.47-0.19C134.46,27.11,134.47,26.8,134.47,26.33"/>
	<path class="st0" d="M61.88,25.48l1.69-3.99l0.58-1.41h0.51c0.18,0.52,0.36,1.02,0.55,1.51l1.54,3.85l1.11-4.25
		c0.04-0.13,0.05-0.24,0.05-0.37c0-0.13-0.2-0.21-0.4-0.23l-0.52-0.03v-0.42c0.51,0.01,0.91,0.03,1.22,0.03s0.7-0.02,1.22-0.03v0.42
		l-0.38,0.03c-0.2,0.02-0.35,0.31-0.49,0.78l-1.38,4.89c-0.15,0.53-0.25,1.08-0.38,1.62h-0.83c-0.15-0.4-0.27-0.79-0.43-1.19
		l-1.69-4.25l-1.73,4.04c-0.2,0.47-0.35,0.94-0.53,1.42H60.8l-1.57-6.82c-0.08-0.33-0.22-0.45-0.42-0.48l-0.36-0.03v-0.42
		c0.75,0.01,1.32,0.03,1.77,0.03c0.44,0,1.01-0.02,1.52-0.03v0.42l-0.49,0.03c-0.15,0.01-0.34,0.14-0.34,0.26
		c0,0.08,0.01,0.19,0.04,0.32l0.91,4.3H61.88z"/>
	<path class="st0" d="M73.12,20.83v2.72c0.26,0.02,0.51,0.02,0.76,0.02h0.75c0.4,0,0.62-0.02,0.65-0.24l0.07-0.65h0.45
		c-0.01,0.41-0.03,0.8-0.03,1.21s0.02,0.82,0.03,1.23h-0.45l-0.07-0.57c-0.03-0.32-0.25-0.42-0.65-0.42h-0.75
		c-0.25,0-0.5,0.01-0.76,0.03v3.03c0.48,0.02,0.96,0.03,1.45,0.03c0.52,0,1.36-0.1,1.38-0.19l0.26-1.07h0.44l-0.12,1.79
		c-0.8,0.15-2.11,0.15-2.85,0.12c-0.46-0.01-0.93-0.03-1.39-0.03c-0.48,0-0.94,0.02-1.36,0.03v-0.26l0.36-0.2
		c0.18-0.1,0.22-0.29,0.22-0.65v-5.08c0-0.47-0.01-0.78-0.08-0.92c-0.06-0.11-0.17-0.17-0.46-0.19l-0.42-0.03v-0.42
		c0.75,0.01,1.32,0.03,1.77,0.03c1.07,0,1.84-0.02,2.48-0.03c0.63-0.01,1.13-0.01,1.66,0.03l-0.09,1.69h-0.41l-0.09-0.85
		c-0.02-0.17-0.78-0.22-1.3-0.22C74.08,20.8,73.59,20.81,73.12,20.83"/>
	<path class="st0" d="M80.34,21.71v5.49c0.48,0.02,0.96,0.03,1.45,0.03c0.52,0,1.36-0.1,1.38-0.19l0.26-1.15h0.45l-0.12,1.88
		c-0.8,0.15-2.11,0.15-2.85,0.12c-0.46-0.01-0.93-0.03-1.39-0.03c-0.48,0-0.94,0.02-1.36,0.03v-0.26l0.36-0.2
		c0.18-0.1,0.22-0.3,0.22-0.65V21.7c0-0.48-0.01-0.78-0.08-0.92c-0.05-0.09-0.17-0.14-0.46-0.16l-0.42-0.03v-0.46
		c0.47,0.01,1.09,0.03,1.77,0.03c0.67,0,1.29-0.02,1.76-0.03v0.46l-0.42,0.03c-0.29,0.02-0.42,0.07-0.47,0.16
		C80.35,20.93,80.34,21.23,80.34,21.71"/>
	<path class="st0" d="M87.56,21.71v5.49c0.48,0.02,0.96,0.03,1.45,0.03c0.52,0,1.36-0.1,1.39-0.19l0.26-1.15h0.44l-0.12,1.88
		c-0.8,0.15-2.11,0.15-2.85,0.12c-0.46-0.01-0.93-0.03-1.39-0.03c-0.48,0-0.94,0.02-1.36,0.03v-0.26l0.36-0.2
		c0.18-0.1,0.22-0.3,0.22-0.65V21.7c0-0.48-0.01-0.78-0.08-0.92c-0.04-0.09-0.17-0.14-0.46-0.16L85,20.59v-0.46
		c0.47,0.01,1.09,0.03,1.77,0.03c0.67,0,1.29-0.02,1.76-0.03v0.46l-0.42,0.03c-0.3,0.02-0.42,0.07-0.46,0.16
		C87.57,20.93,87.56,21.23,87.56,21.71"/>
	<path class="st0" d="M94.63,21.71v4.62c0,0.48,0.01,0.78,0.08,0.92c0.05,0.09,0.17,0.14,0.46,0.16l0.42,0.03v0.46
		c-0.47-0.01-1.09-0.03-1.76-0.03c-0.68,0-1.3,0.02-1.77,0.03v-0.46l0.42-0.03c0.29-0.02,0.42-0.07,0.47-0.16
		c0.07-0.14,0.08-0.44,0.08-0.92v-4.62c0-0.47-0.01-0.78-0.08-0.92c-0.05-0.09-0.17-0.14-0.47-0.16l-0.42-0.03v-0.46
		c0.47,0.01,1.09,0.03,1.77,0.03c0.67,0,1.29-0.02,1.76-0.03v0.46l-0.42,0.03c-0.3,0.02-0.42,0.07-0.46,0.16
		C94.64,20.93,94.63,21.23,94.63,21.71"/>
	<path class="st0" d="M97.7,26.33v-4.62c0-0.48-0.01-0.78-0.08-0.92c-0.06-0.11-0.17-0.17-0.47-0.19l-0.42-0.03v-0.42
		c0.45,0.01,0.91,0.03,1.36,0.03c0.32,0,0.64-0.02,0.95-0.03c0.39,0.5,0.76,1.04,1.17,1.51l3.54,4.12v-4.07
		c0-0.48-0.01-0.78-0.08-0.92c-0.06-0.11-0.17-0.17-0.47-0.19l-0.42-0.03v-0.42c0.43,0.01,0.87,0.03,1.3,0.03s0.86-0.02,1.29-0.03
		v0.42l-0.42,0.03c-0.29,0.02-0.41,0.08-0.47,0.19c-0.07,0.14-0.08,0.44-0.08,0.92v5.14c0,0.4,0.02,0.81,0.03,1.15l-1.01-0.1
		c-0.47-0.52-0.94-1.05-1.38-1.58l-3.67-4.42l-0.02,4.43c0,0.48,0.01,0.78,0.08,0.92c0.06,0.11,0.17,0.17,0.46,0.19l0.42,0.03v0.42
		c-0.43-0.01-0.86-0.03-1.29-0.03s-0.87,0.02-1.3,0.03v-0.42l0.42-0.03c0.3-0.02,0.41-0.08,0.47-0.19
		C97.69,27.11,97.7,26.8,97.7,26.33"/>
	<path class="st0" d="M114.33,25.52v1.85c-1.04,0.41-2.14,0.68-3.31,0.68c-2.58,0-4.49-1.45-4.49-4.16c0-2.61,2.12-3.91,4.53-3.91
		c1.03,0,2.04,0.09,3.12,0.53c-0.05,0.53-0.14,1.37-0.19,1.86h-0.45l-0.06-0.98c-0.44-0.52-1.45-0.78-2.38-0.78
		c-1.88,0-2.88,1.34-2.88,3.13c0,1.96,1.01,3.67,3.05,3.67c0.5,0,0.96-0.1,1.44-0.28v-1.5c0-0.35-0.28-0.41-0.65-0.42l-0.6-0.02
		v-0.47c0.56,0.01,1.11,0.03,1.67,0.03c0.55,0,1.1-0.02,1.65-0.03v0.39C114.41,25.19,114.33,25.24,114.33,25.52"/>
	<path class="st0" d="M120.24,20.84v5.48c0,0.48,0.01,0.78,0.08,0.92c0.05,0.09,0.17,0.14,0.46,0.16l0.42,0.03v0.46
		c-0.46-0.01-1.09-0.03-1.76-0.03c-0.68,0-1.3,0.02-1.77,0.03v-0.46l0.42-0.03c0.29-0.02,0.42-0.07,0.46-0.16
		c0.07-0.14,0.08-0.44,0.08-0.92v-5.48h-1.32c-0.3,0-0.62,0-0.7,0.1c-0.05,0.06-0.09,0.15-0.1,0.27l-0.06,0.78h-0.46
		c-0.02-0.74-0.06-1.26-0.15-1.8c1.26-0.04,2.44-0.02,3.58-0.02c1.15,0,2.33-0.02,3.52-0.03c-0.02,0.6-0.06,1.12-0.08,1.86h-0.46
		l-0.06-0.78c-0.01-0.12-0.06-0.22-0.1-0.27c-0.08-0.1-0.4-0.1-0.7-0.1h-1.3V20.84z"/>
	<path class="st0" d="M76.82,30.57h1.62v0.31h-1.62V30.57z M137.24,33.39V31.9c0-0.16-0.01-0.27-0.04-0.32
		c-0.03-0.04-0.08-0.06-0.18-0.06l-0.21-0.01v-0.13c0.23,0.01,0.43,0.01,0.64,0.01c0.2,0,0.4,0,0.63-0.01v0.13l-0.21,0.01
		c-0.1,0-0.16,0.02-0.18,0.06c-0.03,0.05-0.04,0.16-0.04,0.32v1.45c0,0.6,0.32,0.77,0.89,0.77c0.47,0,0.89-0.17,0.89-0.87V31.9
		c0-0.16-0.01-0.27-0.04-0.32c-0.03-0.04-0.08-0.05-0.18-0.06l-0.19-0.01v-0.13c0.17,0.01,0.35,0.01,0.5,0.01
		c0.17,0,0.33-0.01,0.52-0.01v0.13l-0.19,0.01c-0.1,0.01-0.16,0.02-0.18,0.06c-0.03,0.05-0.04,0.16-0.04,0.32v1.22
		c0,0.9-0.35,1.26-1.23,1.26C137.67,34.38,137.24,34.16,137.24,33.39 M134.49,31.35l1.05,2.39c0.04,0.08,0.09,0.2,0.14,0.29
		c0.05,0.08,0.1,0.13,0.17,0.14l0.15,0.01v0.13c-0.19-0.01-0.38-0.01-0.58-0.01c-0.15,0-0.34,0.01-0.58,0.01v-0.13l0.2-0.01
		c0.09,0,0.18-0.03,0.18-0.08c0-0.06-0.05-0.17-0.09-0.27l-0.2-0.48h-1.25l-0.12,0.28c-0.04,0.09-0.15,0.37-0.15,0.44
		c0,0.09,0.07,0.11,0.21,0.12l0.16,0.01v0.13c-0.21-0.01-0.37-0.01-0.5-0.01c-0.17,0-0.33,0.01-0.5,0.01v-0.14l0.16-0.01
		c0.1-0.01,0.19-0.1,0.23-0.21l0.77-1.71c0.14-0.29,0.28-0.61,0.4-0.91L134.49,31.35L134.49,31.35z M133.76,33.16h1.1l-0.55-1.26
		L133.76,33.16z M131.54,31.9v1.89c0,0.16,0.01,0.27,0.04,0.32c0.03,0.04,0.08,0.06,0.18,0.06l0.21,0.01v0.13
		c-0.23-0.01-0.43-0.01-0.63-0.01c-0.21,0-0.42,0-0.58,0.01v-0.13l0.15-0.01c0.11-0.01,0.16-0.02,0.18-0.06
		c0.03-0.05,0.04-0.16,0.04-0.32v-1.91c-0.07,0.11-0.13,0.23-0.19,0.34l-0.77,1.59c-0.08,0.17-0.16,0.36-0.23,0.53h-0.09l-1.2-2.47
		l-0.01,1.91c0,0.16,0.01,0.27,0.04,0.32c0.03,0.04,0.08,0.05,0.18,0.06l0.19,0.01v0.13c-0.19-0.01-0.35-0.01-0.52-0.01
		c-0.16,0-0.33,0.01-0.5,0.01v-0.12l0.19-0.01c0.1-0.01,0.16-0.02,0.18-0.06c0.03-0.05,0.04-0.16,0.04-0.32V31.9
		c0-0.16-0.01-0.27-0.04-0.32c-0.02-0.04-0.08-0.05-0.18-0.06l-0.19-0.01v-0.13c0.14,0.01,0.27,0.01,0.41,0.01s0.28-0.01,0.41-0.01
		l1.15,2.34l1.14-2.34c0.14,0.01,0.27,0.01,0.41,0.01s0.28-0.01,0.4-0.01v0.13l-0.18,0.01c-0.1,0.01-0.16,0.02-0.18,0.06
		C131.55,31.63,131.54,31.74,131.54,31.9 M124.19,31.35l1.05,2.39c0.04,0.08,0.09,0.2,0.14,0.29c0.05,0.08,0.1,0.13,0.17,0.14
		l0.15,0.01v0.13c-0.19-0.01-0.38-0.01-0.58-0.01c-0.15,0-0.34,0.01-0.58,0.01v-0.13l0.2-0.01c0.09,0,0.18-0.03,0.18-0.08
		c0-0.06-0.05-0.17-0.09-0.27l-0.2-0.48h-1.25l-0.12,0.28c-0.04,0.09-0.15,0.37-0.15,0.44c0,0.09,0.07,0.11,0.21,0.12l0.16,0.01
		v0.13c-0.21-0.01-0.37-0.01-0.5-0.01c-0.17,0-0.33,0.01-0.5,0.01v-0.14l0.16-0.01c0.1-0.01,0.19-0.1,0.24-0.21l0.77-1.71
		c0.13-0.29,0.28-0.61,0.4-0.91L124.19,31.35L124.19,31.35z M123.46,33.16h1.1l-0.55-1.26L123.46,33.16z M118.81,31.35l1.05,2.39
		c0.04,0.08,0.09,0.2,0.14,0.29c0.05,0.08,0.1,0.13,0.17,0.14l0.15,0.01v0.13c-0.19-0.01-0.38-0.01-0.58-0.01
		c-0.15,0-0.34,0.01-0.58,0.01v-0.13l0.2-0.01c0.09,0,0.18-0.03,0.18-0.08c0-0.06-0.05-0.17-0.09-0.27l-0.2-0.48H118l-0.12,0.28
		c-0.04,0.09-0.15,0.37-0.15,0.44c0,0.09,0.07,0.11,0.21,0.12l0.16,0.01v0.13c-0.21-0.01-0.37-0.01-0.5-0.01
		c-0.17,0-0.33,0.01-0.5,0.01v-0.14l0.16-0.01c0.1-0.01,0.19-0.1,0.23-0.21l0.77-1.71c0.13-0.29,0.28-0.61,0.4-0.91L118.81,31.35
		L118.81,31.35z M118.08,33.16h1.1l-0.55-1.26L118.08,33.16z M114.17,32.92v0.86c0,0.16,0.01,0.27,0.04,0.32
		c0.03,0.04,0.08,0.06,0.18,0.06l0.21,0.01v0.13c-0.23-0.01-0.43-0.01-0.63-0.01c-0.21,0-0.42,0-0.64,0.01v-0.12l0.21-0.01
		c0.1,0,0.16-0.02,0.18-0.06c0.03-0.05,0.04-0.16,0.04-0.32V31.9c0-0.16-0.01-0.27-0.04-0.32c-0.03-0.04-0.08-0.06-0.18-0.06
		l-0.21-0.01v-0.13c0.23,0.01,0.43,0.01,0.64,0.01c0.2,0,0.4,0,0.63-0.01v0.13l-0.21,0.01c-0.1,0-0.16,0.02-0.18,0.06
		c-0.03,0.05-0.04,0.16-0.04,0.32v0.9l1.21-1.14c0.07-0.06,0.12-0.13,0.12-0.16v-0.12c0.14,0.01,0.26,0.01,0.39,0.01
		c0.12,0,0.24-0.01,0.35-0.01v0.13l-0.18,0.01c-0.11,0-0.23,0.06-0.34,0.16l-1.15,1.01L116,34c0.11,0.1,0.19,0.16,0.27,0.17
		l0.09,0.01v0.13c-0.08-0.01-0.19-0.01-0.29-0.01c-0.1,0-0.21,0.01-0.34,0.01l-1.51-1.41L114.17,32.92z M112.05,31.9v1.89
		c0,0.16,0.01,0.27,0.04,0.32c0.03,0.04,0.08,0.06,0.18,0.06l0.21,0.01v0.13c-0.22-0.01-0.43-0.01-0.63-0.01
		c-0.21,0-0.42,0-0.64,0.01v-0.13l0.21-0.01c0.1,0,0.16-0.02,0.18-0.06c0.03-0.05,0.04-0.16,0.04-0.32V31.9
		c0-0.16-0.01-0.27-0.04-0.32c-0.03-0.04-0.08-0.06-0.18-0.06l-0.21-0.01v-0.13c0.22,0.01,0.43,0.01,0.64,0.01
		c0.2,0,0.4,0,0.63-0.01v0.13l-0.21,0.01c-0.1,0-0.16,0.02-0.18,0.06C112.05,31.63,112.05,31.74,112.05,31.9 M106.58,33.79V31.9
		c0-0.16-0.01-0.27-0.04-0.32c-0.03-0.04-0.08-0.06-0.18-0.06l-0.21-0.01v-0.13c0.24,0.01,0.49,0.01,0.73,0.01
		c0.38,0,0.77-0.01,1.02-0.01c0.2,0,0.39,0.01,0.56,0.01c-0.05,0.18-0.07,0.42-0.07,0.64h-0.14v-0.27c0-0.05,0-0.1-0.04-0.11
		c-0.23-0.08-0.57-0.09-0.85-0.09c-0.12,0-0.24,0.01-0.36,0.03v1.12c0.14,0.01,0.3,0.01,0.5,0.01c0.26,0,0.41-0.02,0.46-0.05
		c0.02-0.02,0.03-0.05,0.03-0.11l0.02-0.22h0.13c0,0.17-0.01,0.33-0.01,0.49s0.01,0.32,0.01,0.47h-0.13l-0.02-0.25
		c0-0.06-0.01-0.09-0.03-0.1c-0.05-0.03-0.19-0.05-0.46-0.05c-0.21,0-0.37,0-0.5,0.01v1.18c0.12,0.03,0.25,0.03,0.36,0.03
		c0.35,0,0.8-0.01,0.88-0.06c0.07-0.03,0.12-0.22,0.15-0.47h0.15c-0.04,0.2-0.07,0.46-0.07,0.69c-0.19,0-0.54,0.02-0.86,0.01
		c-0.33,0-0.68-0.01-0.94-0.01c-0.17,0-0.31,0.01-0.46,0.01v-0.11l0.16-0.01c0.1-0.01,0.16-0.02,0.18-0.06
		C106.57,34.06,106.58,33.95,106.58,33.79 M103.86,33.79v-1.78c0-0.16,0-0.29-0.02-0.42h-0.67c-0.13,0-0.16,0.04-0.17,0.14
		l-0.02,0.33h-0.13c0-0.23-0.01-0.46-0.03-0.68c0.31,0,0.62,0.01,0.94,0.01h0.63c0.31,0,0.62-0.01,0.94-0.01
		c-0.02,0.22-0.03,0.45-0.03,0.68h-0.13l-0.02-0.33c-0.01-0.1-0.04-0.14-0.17-0.14h-0.67c-0.01,0.13-0.02,0.26-0.02,0.42v1.78
		c0,0.16,0.01,0.27,0.04,0.32c0.03,0.04,0.08,0.06,0.18,0.06l0.21,0.01v0.13c-0.23-0.01-0.43-0.01-0.63-0.01
		c-0.21,0-0.42,0-0.64,0.01v-0.13l0.21-0.01c0.1,0,0.16-0.02,0.18-0.06C103.85,34.06,103.86,33.95,103.86,33.79 M98.56,34.38
		c-0.88,0-1.54-0.59-1.54-1.53c0-0.87,0.62-1.54,1.63-1.54c0.93,0,1.59,0.5,1.59,1.44C100.24,33.65,99.51,34.38,98.56,34.38
		 M98.58,31.48c-0.76,0-1.1,0.51-1.1,1.2c0,0.74,0.35,1.51,1.21,1.51c0.72,0,1.08-0.55,1.08-1.32
		C99.77,32.04,99.39,31.48,98.58,31.48 M92.75,34.38c-0.88,0-1.54-0.59-1.54-1.53c0-0.87,0.62-1.54,1.63-1.54
		c0.93,0,1.59,0.5,1.59,1.44C94.43,33.65,93.7,34.38,92.75,34.38 M92.77,31.48c-0.75,0-1.1,0.51-1.1,1.2c0,0.74,0.36,1.51,1.22,1.51
		c0.72,0,1.08-0.55,1.08-1.32C93.96,32.04,93.58,31.48,92.77,31.48 M88.24,32.92v0.86c0,0.16,0.01,0.27,0.04,0.32
		c0.03,0.04,0.08,0.06,0.18,0.06l0.21,0.01v0.13c-0.22-0.01-0.43-0.01-0.63-0.01c-0.21,0-0.42,0-0.64,0.01v-0.12l0.21-0.01
		c0.1,0,0.16-0.02,0.18-0.06c0.03-0.05,0.04-0.16,0.04-0.32V31.9c0-0.16-0.01-0.27-0.04-0.32c-0.03-0.04-0.08-0.06-0.18-0.06
		l-0.21-0.01v-0.13c0.23,0.01,0.43,0.01,0.64,0.01c0.2,0,0.4,0,0.63-0.01v0.13l-0.21,0.01c-0.1,0-0.16,0.02-0.18,0.06
		c-0.03,0.05-0.04,0.16-0.04,0.32v0.9l1.21-1.14c0.07-0.06,0.13-0.13,0.13-0.16v-0.12c0.14,0.01,0.26,0.01,0.39,0.01
		c0.12,0,0.24-0.01,0.35-0.01v0.13l-0.18,0.01c-0.11,0-0.23,0.06-0.34,0.16l-1.15,1.01L90.08,34c0.11,0.1,0.19,0.16,0.27,0.17
		l0.09,0.01v0.13c-0.08-0.01-0.19-0.01-0.29-0.01c-0.11,0-0.21,0.01-0.34,0.01L88.3,32.9L88.24,32.92z M84.87,34.38
		c-0.88,0-1.54-0.59-1.54-1.53c0-0.87,0.63-1.54,1.63-1.54c0.93,0,1.59,0.5,1.59,1.44C86.55,33.65,85.82,34.38,84.87,34.38
		 M84.89,31.48c-0.75,0-1.1,0.51-1.1,1.2c0,0.74,0.36,1.51,1.21,1.51c0.73,0,1.08-0.55,1.08-1.32
		C86.08,32.04,85.7,31.48,84.89,31.48 M80.89,31.59v2.2c0,0.16,0.01,0.27,0.04,0.32c0.03,0.04,0.08,0.06,0.18,0.06l0.21,0.01v0.13
		c-0.23-0.01-0.43-0.01-0.63-0.01c-0.21,0-0.42,0-0.64,0.01v-0.13l0.21-0.01c0.1,0,0.16-0.02,0.18-0.06
		c0.03-0.05,0.04-0.16,0.04-0.32V31.9c0-0.15-0.01-0.26-0.04-0.31c-0.03-0.04-0.08-0.06-0.19-0.07l-0.19-0.01v-0.13
		c0.29,0.01,0.53,0.01,0.78,0.01s0.5-0.01,0.74-0.01c0.42-0.01,0.9,0.17,0.9,0.65c0,0.53-0.47,0.9-1.04,0.9
		c-0.09,0-0.17-0.01-0.26-0.02l-0.04-0.15c0.1,0.03,0.19,0.04,0.29,0.04c0.35,0,0.62-0.27,0.62-0.63c0-0.44-0.27-0.63-0.7-0.63
		C81.14,31.54,81.01,31.56,80.89,31.59 M76.4,33.39V31.9c0-0.16-0.01-0.27-0.04-0.32c-0.03-0.04-0.08-0.06-0.18-0.06l-0.21-0.01
		v-0.13c0.23,0.01,0.43,0.01,0.64,0.01c0.2,0,0.4,0,0.63-0.01v0.13l-0.21,0.01c-0.1,0-0.16,0.02-0.18,0.06
		c-0.03,0.05-0.04,0.16-0.04,0.32v1.45c0,0.6,0.32,0.77,0.89,0.77c0.47,0,0.89-0.17,0.89-0.87V31.9c0-0.16-0.01-0.27-0.04-0.32
		c-0.03-0.04-0.08-0.05-0.18-0.06l-0.19-0.01v-0.13c0.17,0.01,0.35,0.01,0.5,0.01c0.17,0,0.33-0.01,0.52-0.01v0.13l-0.19,0.01
		c-0.1,0.01-0.16,0.02-0.18,0.06c-0.03,0.05-0.04,0.16-0.04,0.32v1.22c0,0.9-0.35,1.26-1.23,1.26C76.83,34.38,76.4,34.16,76.4,33.39
		 M71.39,33.79V31.9c0-0.16-0.01-0.27-0.04-0.32c-0.03-0.04-0.08-0.06-0.18-0.06l-0.21-0.01v-0.13c0.24,0.01,0.49,0.01,0.73,0.01
		c0.38,0,0.78-0.01,1.02-0.01c0.2,0,0.39,0.01,0.56,0.01c-0.05,0.18-0.07,0.42-0.07,0.64h-0.15v-0.27c0-0.05,0-0.1-0.04-0.11
		c-0.23-0.08-0.57-0.09-0.85-0.09c-0.12,0-0.24,0.01-0.36,0.03v1.12c0.14,0.01,0.29,0.01,0.5,0.01c0.26,0,0.41-0.02,0.46-0.05
		c0.02-0.02,0.03-0.05,0.04-0.11l0.02-0.22h0.13c-0.01,0.17-0.01,0.33-0.01,0.49s0.01,0.32,0.01,0.47h-0.13l-0.02-0.25
		c-0.01-0.06-0.01-0.09-0.04-0.1c-0.05-0.03-0.19-0.05-0.46-0.05c-0.21,0-0.37,0-0.5,0.01v1.18c0.12,0.03,0.25,0.03,0.36,0.03
		c0.35,0,0.8-0.01,0.88-0.06c0.07-0.03,0.12-0.22,0.15-0.47h0.15c-0.04,0.2-0.07,0.46-0.07,0.69c-0.19,0-0.54,0.02-0.86,0.01
		c-0.33,0-0.67-0.01-0.94-0.01c-0.16,0-0.31,0.01-0.46,0.01v-0.11l0.16-0.01c0.1-0.01,0.16-0.02,0.18-0.06
		C71.38,34.06,71.39,33.95,71.39,33.79 M68.67,33.79v-1.78c0-0.16,0-0.29-0.02-0.42h-0.67c-0.13,0-0.17,0.04-0.17,0.14l-0.02,0.33
		h-0.14c0-0.23-0.01-0.46-0.03-0.68c0.31,0,0.62,0.01,0.94,0.01h0.63c0.31,0,0.62-0.01,0.94-0.01c-0.02,0.22-0.03,0.45-0.03,0.68
		h-0.14l-0.02-0.33c-0.01-0.1-0.04-0.14-0.17-0.14H69.1c-0.01,0.13-0.02,0.26-0.02,0.42v1.78c0,0.16,0.01,0.27,0.04,0.32
		c0.03,0.04,0.08,0.06,0.18,0.06l0.21,0.01v0.13c-0.23-0.01-0.43-0.01-0.63-0.01c-0.21,0-0.42,0-0.64,0.01v-0.13l0.21-0.01
		c0.1,0,0.16-0.02,0.18-0.06C68.66,34.06,68.67,33.95,68.67,33.79 M63.37,34.38c-0.88,0-1.54-0.59-1.54-1.53
		c0-0.87,0.62-1.54,1.63-1.54c0.93,0,1.59,0.5,1.59,1.44C65.05,33.65,64.32,34.38,63.37,34.38 M63.39,31.48
		c-0.75,0-1.1,0.51-1.1,1.2c0,0.74,0.36,1.51,1.22,1.51c0.72,0,1.08-0.55,1.08-1.32C64.58,32.04,64.2,31.48,63.39,31.48
		 M57.96,31.35l1.05,2.39c0.04,0.08,0.09,0.2,0.14,0.29c0.05,0.08,0.1,0.13,0.17,0.14l0.15,0.01v0.13
		c-0.19-0.01-0.38-0.01-0.58-0.01c-0.15,0-0.34,0.01-0.58,0.01v-0.13l0.2-0.01c0.09,0,0.18-0.03,0.18-0.08
		c0-0.06-0.05-0.17-0.09-0.27l-0.2-0.48h-1.25l-0.12,0.28c-0.04,0.09-0.15,0.37-0.15,0.44c0,0.09,0.07,0.11,0.21,0.12l0.16,0.01
		v0.13c-0.21-0.01-0.37-0.01-0.5-0.01c-0.17,0-0.33,0.01-0.5,0.01v-0.14l0.16-0.01c0.1-0.01,0.19-0.1,0.23-0.21l0.77-1.71
		c0.13-0.29,0.28-0.61,0.4-0.91L57.96,31.35L57.96,31.35z M57.24,33.16h1.1l-0.55-1.26L57.24,33.16z M54.81,33.88v-0.42
		c0-0.1-0.03-0.14-0.15-0.15l-0.36-0.03v-0.13c0.18,0,0.36,0.01,0.53,0.01c0.18,0,0.36,0,0.53-0.01l0.02,0.11l-0.13,0.04
		c-0.05,0.02-0.05,0.03-0.05,0.16v0.71c-0.37,0.1-0.84,0.21-1.14,0.21c-0.97,0-1.75-0.49-1.75-1.55c0-0.93,0.79-1.52,1.83-1.52
		c0.54,0,0.88,0.12,1.08,0.17c-0.05,0.2-0.09,0.42-0.09,0.64h-0.14V31.9c0-0.2-0.16-0.27-0.36-0.34c-0.12-0.05-0.31-0.08-0.59-0.08
		c-0.83,0-1.25,0.53-1.25,1.28c0,0.84,0.5,1.44,1.4,1.44c0.33,0,0.58-0.07,0.61-0.15C54.81,34.01,54.81,33.99,54.81,33.88
		 M48.45,33.79V31.9c0-0.16-0.01-0.27-0.04-0.32c-0.03-0.04-0.08-0.05-0.18-0.06l-0.19-0.01v-0.13c0.19,0.01,0.36,0.01,0.52,0.01
		c0.08,0,0.16-0.01,0.24-0.01l2.07,2.49l0.01-1.97c0-0.16-0.01-0.27-0.04-0.32c-0.03-0.04-0.08-0.05-0.18-0.06l-0.19-0.01v-0.13
		c0.17,0.01,0.35,0.01,0.5,0.01c0.17,0,0.33-0.01,0.52-0.01v0.13l-0.19,0.01c-0.1,0.01-0.16,0.02-0.18,0.06
		c-0.03,0.05-0.04,0.16-0.04,0.32v2.32c0,0.05,0.01,0.1,0.01,0.15L50.7,34.3l-2.04-2.46l-0.01,1.94c0,0.16,0.01,0.27,0.04,0.32
		c0.03,0.04,0.08,0.05,0.18,0.06l0.19,0.01v0.13c-0.19-0.01-0.35-0.01-0.52-0.01c-0.16,0-0.33,0.01-0.5,0.01v-0.12l0.19-0.01
		c0.1-0.01,0.16-0.02,0.18-0.06C48.44,34.06,48.45,33.95,48.45,33.79 M45.7,31.35l1.05,2.39c0.04,0.08,0.09,0.2,0.14,0.29
		c0.05,0.08,0.09,0.13,0.17,0.14l0.15,0.01v0.13c-0.19-0.01-0.38-0.01-0.58-0.01c-0.15,0-0.34,0.01-0.58,0.01v-0.13l0.2-0.01
		c0.09,0,0.18-0.03,0.18-0.08c0-0.06-0.05-0.17-0.09-0.27l-0.2-0.48h-1.25l-0.12,0.28c-0.04,0.09-0.15,0.37-0.15,0.44
		c0,0.09,0.07,0.11,0.21,0.12l0.16,0.01v0.13c-0.21-0.01-0.37-0.01-0.5-0.01c-0.17,0-0.34,0.01-0.5,0.01v-0.14l0.16-0.01
		c0.1-0.01,0.19-0.1,0.23-0.21l0.77-1.71c0.13-0.29,0.28-0.61,0.4-0.91L45.7,31.35L45.7,31.35z M44.97,33.16h1.1l-0.55-1.26
		L44.97,33.16z M40.15,33.79V31.9c0-0.16-0.01-0.27-0.04-0.32c-0.03-0.04-0.08-0.05-0.18-0.06l-0.19-0.01v-0.13
		c0.19,0.01,0.36,0.01,0.52,0.01c0.08,0,0.16-0.01,0.24-0.01l2.07,2.49l0.01-1.97c0-0.16-0.01-0.27-0.04-0.32
		c-0.03-0.04-0.08-0.05-0.18-0.06l-0.19-0.01v-0.13c0.17,0.01,0.35,0.01,0.5,0.01c0.17,0,0.33-0.01,0.52-0.01v0.13L43,31.52
		c-0.1,0.01-0.16,0.02-0.18,0.06c-0.03,0.05-0.04,0.16-0.04,0.32v2.32c0,0.05,0.01,0.1,0.01,0.15L42.4,34.3l-2.04-2.46l-0.01,1.94
		c0,0.16,0.01,0.27,0.04,0.32c0.03,0.04,0.08,0.05,0.18,0.06l0.19,0.01v0.13c-0.19-0.01-0.35-0.01-0.52-0.01
		c-0.16,0-0.33,0.01-0.5,0.01v-0.12l0.19-0.01c0.1-0.01,0.16-0.02,0.18-0.06C40.14,34.06,40.15,33.95,40.15,33.79 M37.4,31.35
		l1.05,2.39c0.04,0.08,0.09,0.2,0.14,0.29c0.05,0.08,0.1,0.13,0.17,0.14l0.15,0.01v0.13c-0.19-0.01-0.38-0.01-0.58-0.01
		c-0.15,0-0.34,0.01-0.58,0.01v-0.13l0.2-0.01c0.09,0,0.18-0.03,0.18-0.08c0-0.06-0.05-0.17-0.09-0.27l-0.2-0.48h-1.25l-0.12,0.28
		c-0.04,0.09-0.15,0.37-0.15,0.44c0,0.09,0.07,0.11,0.21,0.12l0.16,0.01v0.13c-0.21-0.01-0.37-0.01-0.5-0.01
		c-0.17,0-0.33,0.01-0.5,0.01v-0.14l0.16-0.01c0.1-0.01,0.19-0.1,0.23-0.21l0.77-1.71c0.13-0.29,0.28-0.61,0.4-0.91L37.4,31.35
		L37.4,31.35z M36.67,33.16h1.1l-0.55-1.26L36.67,33.16z M33.29,33.46l-0.54-1.43l-0.76,1.86c-0.06,0.14-0.11,0.29-0.16,0.43h-0.22
		c-0.03-0.16-0.06-0.29-0.1-0.43l-0.52-2.17c-0.04-0.18-0.13-0.2-0.22-0.21l-0.12-0.01v-0.12c0.18,0.01,0.36,0.01,0.55,0.01
		s0.36-0.01,0.55-0.01v0.13l-0.18,0.01c-0.11,0.01-0.2,0.03-0.14,0.28l0.43,1.88l0.54-1.31c0.14-0.33,0.27-0.67,0.39-1.01h0.14
		c0.04,0.17,0.12,0.36,0.18,0.53l0.67,1.83l0.58-2.05c0.03-0.1-0.03-0.13-0.2-0.14l-0.17-0.01v-0.14c0.15,0.01,0.3,0.01,0.46,0.01
		s0.3-0.01,0.45-0.01v0.13l-0.14,0.01c-0.1,0.01-0.14,0.05-0.17,0.12l-0.66,2.26c-0.03,0.12-0.08,0.25-0.12,0.42h-0.22
		C33.5,34,33.4,33.75,33.29,33.46 M26.1,33.79V31.9c0-0.16-0.01-0.27-0.04-0.32c-0.03-0.04-0.08-0.06-0.18-0.06l-0.21-0.01v-0.13
		c0.24,0.01,0.49,0.01,0.73,0.01c0.38,0,0.78-0.01,1.02-0.01c0.2,0,0.39,0.01,0.56,0.01c-0.05,0.18-0.07,0.42-0.07,0.64h-0.15v-0.27
		c0-0.05-0.01-0.1-0.04-0.11c-0.23-0.08-0.57-0.09-0.85-0.09c-0.12,0-0.24,0.01-0.36,0.03v1.12c0.14,0.01,0.29,0.01,0.5,0.01
		c0.26,0,0.41-0.02,0.46-0.05c0.02-0.02,0.03-0.05,0.03-0.11l0.02-0.22h0.13c0,0.17-0.01,0.33-0.01,0.49s0.01,0.32,0.01,0.47h-0.13
		l-0.02-0.25c0-0.06-0.01-0.09-0.03-0.1c-0.05-0.03-0.19-0.05-0.46-0.05c-0.21,0-0.37,0-0.5,0.01v1.18
		c0.12,0.03,0.25,0.03,0.36,0.03c0.35,0,0.8-0.01,0.88-0.06c0.07-0.03,0.12-0.22,0.15-0.47h0.15c-0.04,0.2-0.07,0.46-0.07,0.69
		c-0.19,0-0.54,0.02-0.86,0.01c-0.33,0-0.68-0.01-0.94-0.01c-0.17,0-0.31,0.01-0.46,0.01v-0.11l0.16-0.01
		c0.1-0.01,0.16-0.02,0.18-0.06C26.09,34.06,26.1,33.95,26.1,33.79 M22.96,31.59v2.2c0,0.16,0.01,0.27,0.04,0.32
		c0.03,0.04,0.08,0.06,0.18,0.06l0.21,0.01v0.13c-0.23-0.01-0.43-0.01-0.63-0.01c-0.21,0-0.42,0-0.64,0.01v-0.13l0.21-0.01
		c0.1,0,0.16-0.02,0.18-0.06c0.03-0.05,0.04-0.16,0.04-0.32V31.9c0-0.16-0.01-0.27-0.04-0.32c-0.03-0.04-0.08-0.05-0.18-0.06
		l-0.18-0.01v-0.13c0.23,0.01,0.48,0.01,0.74,0.01s0.51-0.01,0.76-0.01c0.69-0.01,0.88,0.33,0.88,0.63c0,0.46-0.43,0.73-0.85,0.81
		l0.99,1.24c0.06,0.08,0.16,0.1,0.26,0.11v0.13c-0.11-0.01-0.21-0.01-0.31-0.01c-0.1,0-0.19,0.01-0.3,0.01
		c-0.06-0.08-0.12-0.15-0.18-0.23l-0.8-1.04c-0.07-0.09-0.15-0.17-0.23-0.26c0.14-0.04,0.28-0.05,0.41-0.07
		c0.3-0.05,0.56-0.28,0.56-0.59c0-0.46-0.35-0.58-0.69-0.58C23.2,31.54,23.08,31.56,22.96,31.59 M19.75,31.35l1.05,2.39
		c0.04,0.08,0.09,0.2,0.14,0.29c0.05,0.08,0.1,0.13,0.17,0.14l0.15,0.01v0.13c-0.19-0.01-0.38-0.01-0.58-0.01
		c-0.15,0-0.34,0.01-0.58,0.01v-0.13l0.2-0.01c0.09,0,0.18-0.03,0.18-0.08c0-0.06-0.05-0.17-0.09-0.27l-0.2-0.48h-1.24l-0.12,0.28
		c-0.04,0.09-0.15,0.37-0.15,0.44c0,0.09,0.07,0.11,0.21,0.12l0.16,0.01v0.13c-0.21-0.01-0.37-0.01-0.5-0.01
		c-0.17,0-0.33,0.01-0.5,0.01v-0.14l0.16-0.01c0.1-0.01,0.19-0.1,0.23-0.21l0.77-1.71c0.13-0.29,0.28-0.61,0.4-0.91L19.75,31.35
		L19.75,31.35z M19.03,33.16h1.1l-0.55-1.26L19.03,33.16z M16.8,31.9v1.89c0,0.16,0.01,0.27,0.04,0.32
		c0.03,0.04,0.08,0.06,0.18,0.06l0.21,0.01v0.13C17,34.3,16.8,34.3,16.6,34.3c-0.21,0-0.42,0-0.64,0.01v-0.13l0.21-0.01
		c0.1,0,0.16-0.02,0.18-0.06c0.03-0.05,0.04-0.16,0.04-0.32v-0.94c-0.05,0-0.17-0.01-0.36-0.01h-1.01c-0.19,0-0.31,0-0.36,0.01v0.94
		c0,0.16,0.01,0.27,0.04,0.32c0.03,0.04,0.08,0.06,0.18,0.06l0.21,0.01v0.13c-0.23-0.01-0.43-0.01-0.63-0.01
		c-0.21,0-0.42,0-0.64,0.01v-0.13l0.21-0.01c0.1,0,0.16-0.02,0.18-0.06c0.03-0.05,0.04-0.16,0.04-0.32V31.9
		c0-0.16-0.01-0.27-0.04-0.32c-0.03-0.04-0.08-0.06-0.18-0.06l-0.21-0.01v-0.13c0.22,0.01,0.43,0.01,0.64,0.01
		c0.2,0,0.4,0,0.63-0.01v0.13l-0.21,0.01c-0.1,0-0.16,0.02-0.18,0.06c-0.03,0.05-0.04,0.16-0.04,0.32v0.75
		c0.05,0,0.17,0.01,0.36,0.01h1.01c0.19,0,0.31-0.01,0.36-0.01V31.9c0-0.16-0.01-0.27-0.04-0.32c-0.03-0.04-0.08-0.06-0.18-0.06
		l-0.21-0.01v-0.13c0.23,0.01,0.43,0.01,0.64,0.01c0.2,0,0.4,0,0.63-0.01v0.13l-0.21,0.01c-0.1,0-0.16,0.02-0.18,0.06
		C16.81,31.63,16.8,31.74,16.8,31.9 M11.38,33.46l-0.54-1.43l-0.75,1.86c-0.06,0.14-0.11,0.29-0.16,0.43H9.71
		c-0.03-0.16-0.07-0.29-0.1-0.43l-0.52-2.17c-0.04-0.18-0.13-0.2-0.22-0.21L8.75,31.5v-0.12c0.18,0.01,0.36,0.01,0.55,0.01
		c0.19,0,0.36-0.01,0.55-0.01v0.13l-0.18,0.01c-0.11,0.01-0.2,0.03-0.14,0.28l0.43,1.88l0.54-1.31c0.14-0.33,0.27-0.67,0.39-1.01
		h0.14c0.04,0.17,0.12,0.36,0.18,0.53l0.67,1.83l0.58-2.05c0.03-0.1-0.03-0.13-0.2-0.14l-0.17-0.01v-0.14
		c0.15,0.01,0.3,0.01,0.46,0.01s0.3-0.01,0.45-0.01v0.13l-0.14,0.01c-0.1,0.01-0.14,0.05-0.16,0.12l-0.66,2.26
		c-0.03,0.12-0.08,0.25-0.12,0.42H11.7C11.59,34,11.49,33.75,11.38,33.46 M4.19,33.79V31.9c0-0.16-0.01-0.27-0.04-0.32
		c-0.03-0.04-0.08-0.06-0.18-0.06l-0.21-0.01v-0.13c0.24,0.01,0.49,0.01,0.73,0.01c0.38,0,0.77-0.01,1.02-0.01
		c0.2,0,0.39,0.01,0.56,0.01C6.02,31.57,6,31.81,6,32.03H5.85v-0.27c0-0.05,0-0.1-0.04-0.11c-0.23-0.08-0.57-0.09-0.85-0.09
		c-0.12,0-0.24,0.01-0.36,0.03v1.12c0.14,0.01,0.3,0.01,0.5,0.01c0.26,0,0.41-0.02,0.46-0.05c0.02-0.02,0.03-0.05,0.03-0.11
		l0.02-0.22h0.13c0,0.17-0.01,0.33-0.01,0.49s0.01,0.32,0.01,0.47H5.61l-0.02-0.25c0-0.06-0.01-0.09-0.03-0.1
		C5.51,32.92,5.37,32.9,5.1,32.9c-0.21,0-0.37,0-0.5,0.01v1.18c0.12,0.03,0.25,0.03,0.36,0.03c0.35,0,0.8-0.01,0.88-0.06
		c0.07-0.03,0.12-0.22,0.15-0.47h0.15c-0.04,0.2-0.07,0.46-0.07,0.69c-0.19,0-0.54,0.02-0.86,0.01c-0.33,0-0.68-0.01-0.95-0.01
		c-0.16,0-0.31,0.01-0.46,0.01v-0.11l0.16-0.01c0.1-0.01,0.16-0.02,0.18-0.06C4.18,34.06,4.19,33.95,4.19,33.79 M1.47,33.79v-1.78
		c0-0.16,0-0.29-0.02-0.42H0.78c-0.13,0-0.16,0.04-0.17,0.14l-0.02,0.33H0.45c0-0.23-0.01-0.46-0.03-0.68
		c0.31,0,0.62,0.01,0.94,0.01h0.63c0.31,0,0.62-0.01,0.94-0.01C2.91,31.6,2.9,31.83,2.9,32.06H2.77l-0.02-0.33
		c-0.01-0.1-0.04-0.14-0.17-0.14H1.91c-0.01,0.13-0.02,0.26-0.02,0.42v1.78c0,0.16,0.01,0.27,0.04,0.32
		c0.03,0.04,0.08,0.06,0.18,0.06l0.21,0.01v0.13C2.1,34.3,1.89,34.3,1.69,34.3c-0.21,0-0.42,0-0.64,0.01v-0.13l0.2-0.01
		c0.1,0,0.16-0.02,0.18-0.06C1.46,34.06,1.47,33.95,1.47,33.79 M141.73,31.9v1.89c0,0.16,0.01,0.27,0.04,0.32
		c0.02,0.04,0.08,0.06,0.18,0.06l0.21,0.01v0.13c-0.23-0.01-0.43-0.01-0.63-0.01c-0.21,0-0.42,0-0.64,0.01v-0.13l0.21-0.01
		c0.1,0,0.16-0.02,0.18-0.06c0.03-0.05,0.04-0.16,0.04-0.32V31.9c0-0.16-0.01-0.27-0.04-0.32c-0.03-0.04-0.08-0.06-0.18-0.06
		l-0.21-0.01v-0.13c0.23,0.01,0.43,0.01,0.64,0.01c0.2,0,0.4,0,0.63-0.01v0.13l-0.21,0.01c-0.1,0-0.16,0.02-0.18,0.06
		C141.73,31.63,141.73,31.74,141.73,31.9 M36.51,30.58h1.62v0.31h-1.62V30.58z M133.58,30.57h1.62v0.31h-1.62V30.57z"/>
</g>
</svg>
