<svg id="Layer_1" data-name="Layer 1" xmlns="http://www.w3.org/2000/svg" viewBox="0 0 213.13 61.32"><defs><style>.cls-1{fill:#fff;}</style></defs><title>VUW Logo-mobile version_white</title><polygon class="cls-1" points="24 61.17 23.03 59.23 17.59 59.23 17.59 55.74 22.9 55.74 22.9 53.8 17.59 53.8 17.59 50.54 23.03 50.54 24 48.6 15.39 48.6 15.39 61.17 24 61.17"/><polygon class="cls-1" points="7 61.17 7 50.54 9.98 50.54 10.81 48.6 0.99 48.6 0.99 50.54 4.8 50.54 4.8 61.17 7 61.17"/><polygon class="cls-1" points="46.53 61.17 46.53 48.6 44.33 48.6 44.33 53.74 37.78 53.74 37.78 48.6 35.58 48.6 35.58 61.17 37.78 61.17 37.78 55.68 44.33 55.68 44.33 61.17 46.53 61.17"/><polygon class="cls-1" points="60.99 61.18 60.02 59.24 54.58 59.24 54.58 55.75 59.89 55.75 59.89 53.81 54.58 53.81 54.58 50.55 60.02 50.55 60.99 48.61 52.38 48.61 52.38 61.18 60.99 61.18"/><path class="cls-1" d="M76,61.17l-3.07-4.94a3.52,3.52,0,0,0,3-3.69,3.82,3.82,0,0,0-4.11-3.94H66.24V61.17h2.2v-4.7h2.19l2.79,4.7Zm-4.5-6.63h-3v-4h3a2,2,0,1,1,0,4"/><polygon class="cls-1" points="90.17 61.18 89.19 59.24 83.76 59.24 83.76 55.75 89.06 55.75 89.06 53.81 83.76 53.81 83.76 50.55 89.19 50.55 90.17 48.61 81.55 48.61 81.55 61.18 90.17 61.18"/><polygon class="cls-1" points="107.04 61.17 107.04 48.6 104.84 48.6 104.84 57.32 98.41 48.6 96.15 48.6 96.15 61.17 98.35 61.17 98.35 52.2 104.92 61.17 107.04 61.17"/><path class="cls-1" d="M123.11,50.36a5.78,5.78,0,0,0-4.5-2,6.51,6.51,0,1,0,0,13,6.81,6.81,0,0,0,5.18-2.27V54.42h-5v1.94h2.84v2a4.6,4.6,0,0,1-3,1.14,4.56,4.56,0,0,1,0-9.11,4,4,0,0,1,3.06,1.45Z"/><path class="cls-1" d="M141.11,61.17,136.17,48.6h-2.75l-4.94,12.57H131l.92-2.41h5.77l.92,2.41Zm-4.05-4.35h-4.53l2.26-6Z"/><polygon class="cls-1" points="163.12 61.17 166.27 48.6 163.8 48.6 161.8 58.03 159.2 48.6 157.45 48.6 154.85 58.03 152.82 48.6 150.35 48.6 153.53 61.17 155.88 61.17 158.31 51.9 160.77 61.17 163.12 61.17"/><path class="cls-1" d="M181.71,61.17,176.77,48.6H174l-4.94,12.57h2.51l.92-2.41h5.77l.92,2.41Zm-4.05-4.35h-4.53l2.26-6Z"/><polygon class="cls-1" points="196.24 61.17 190.75 54.53 195.86 48.6 193.13 48.6 188.21 54.59 188.21 48.6 186 48.6 186 61.17 188.21 61.17 188.21 57.15 189.3 55.87 193.52 61.17 196.24 61.17"/><path class="cls-1" d="M212.29,61.17,207.35,48.6H204.6l-4.94,12.57h2.51l.92-2.41h5.77l.92,2.41Zm-4-4.35h-4.53l2.27-6Z"/><polygon class="cls-1" points="212.89 40.21 212.89 17.36 208 17.36 208 31.72 197.34 17.36 192.31 17.36 192.31 40.21 197.21 40.21 197.21 25.31 208.17 40.21 212.89 40.21"/><polygon class="cls-1" points="24.22 40.07 29.82 17.22 24.31 17.22 21.26 33.24 16.91 17.22 13.09 17.22 8.71 33.24 5.62 17.22 0.14 17.22 5.78 40.07 10.98 40.07 14.98 24.38 19.02 40.07 24.22 40.07"/><polygon class="cls-1" points="49.7 40.24 47.81 35.96 38.32 35.96 38.32 30.79 47.57 30.79 47.57 26.5 38.32 26.5 38.32 21.68 47.81 21.68 49.7 17.39 33.42 17.39 33.42 40.24 49.7 40.24"/><path class="cls-1" d="M143.58,20.55a10.85,10.85,0,0,0-8.47-3.68c-6.79,0-12.35,4.64-12.35,11.93s5,12,11.81,12A14.15,14.15,0,0,0,145,36.41V27.56H134.86v4.28h5.19v2.77a7.89,7.89,0,0,1-4.94,1.76,7.2,7.2,0,0,1-7.27-7.57,7.2,7.2,0,0,1,7.27-7.57,6.49,6.49,0,0,1,5.18,2.63Z"/><path class="cls-1" d="M176.61,40.62c7,0,12.28-4.93,12.28-11.81S183.82,17,176.86,17s-12,4.93-12,11.82,4.82,11.81,11.75,11.81m.25-4.31c-4.24,0-7-3.26-7-7.5s2.73-7.51,7-7.51,7,3.22,7,7.51-2.75,7.5-7,7.5"/><polygon class="cls-1" points="157.91 40.21 157.91 21.65 163.66 21.65 165.54 17.36 146.26 17.36 146.26 21.65 152.98 21.65 152.98 40.21 157.91 40.21"/><rect class="cls-1" x="88.68" y="17.36" width="4.9" height="22.85"/><polygon class="cls-1" points="67.13 40.21 67.13 35.93 58.43 35.93 58.43 17.36 53.53 17.36 53.53 40.21 67.13 40.21"/><polygon class="cls-1" points="84.7 40.21 84.7 35.93 76 35.93 76 17.36 71.11 17.36 71.11 40.21 84.7 40.21"/><polygon class="cls-1" points="119.17 40.21 119.17 17.36 114.28 17.36 114.28 31.72 103.62 17.36 98.59 17.36 98.59 40.21 103.49 40.21 103.49 25.31 114.45 40.21 119.17 40.21"/><path class="cls-1" d="M43,9.84a4.77,4.77,0,0,0,4.92-5,4.92,4.92,0,1,0-9.84,0,4.77,4.77,0,0,0,4.92,5m0-1.5a3.2,3.2,0,0,1-3.19-3.48,3.2,3.2,0,1,1,6.38,0A3.2,3.2,0,0,1,43,8.34"/><polygon class="cls-1" points="6.07 9.66 9.51 0.04 7.59 0.04 5.02 7.83 2.44 0.04 0.53 0.04 3.96 9.66 6.07 9.66"/><path class="cls-1" d="M77,9.66,73.26,0H71.15L67.37,9.66h1.92L70,7.82h4.42l.71,1.84ZM73.93,6.33H70.47L72.2,1.74Z"/><rect class="cls-1" x="12.95" y="0.04" width="1.69" height="9.62"/><path class="cls-1" d="M25.28,2.57l1.13-1.14A4.25,4.25,0,0,0,23-.12a4.85,4.85,0,0,0-5.05,5,4.85,4.85,0,0,0,5.05,5,4.27,4.27,0,0,0,3.39-1.55L25.28,7.15A2.82,2.82,0,0,1,23,8.34,3.3,3.3,0,0,1,19.7,4.86,3.3,3.3,0,0,1,23,1.38a2.86,2.86,0,0,1,2.26,1.19"/><polygon class="cls-1" points="33.46 9.66 33.46 1.53 35.74 1.53 36.38 0.04 28.86 0.04 28.86 1.53 31.77 1.53 31.77 9.66 33.46 9.66"/><path class="cls-1" d="M58.63,9.66,56.28,5.88a2.69,2.69,0,0,0,2.28-2.82,2.92,2.92,0,0,0-3.14-3H51.19V9.66h1.69V6.07h1.67l2.14,3.59ZM55.19,4.59H52.88V1.53h2.31a1.51,1.51,0,0,1,1.64,1.53,1.52,1.52,0,0,1-1.64,1.53"/><rect class="cls-1" x="62.46" y="0.04" width="1.69" height="9.62"/><path class="cls-1" d="M89.58,9.84c2.79,0,4.16-1.59,4.16-4V0H92V5.81a2.47,2.47,0,1,1-4.93,0V0h-1.7V5.87c0,2.37,1.37,4,4.17,4"/><polygon class="cls-1" points="106.14 9.66 106.14 0.04 104.46 0.04 104.46 6.72 99.53 0.04 97.8 0.04 97.8 9.66 99.49 9.66 99.49 2.8 104.51 9.66 106.14 9.66"/><rect class="cls-1" x="110.62" y="0.04" width="1.69" height="9.62"/><polygon class="cls-1" points="121.59 9.66 125.03 0.04 123.11 0.04 120.54 7.83 117.97 0.04 116.05 0.04 119.48 9.66 121.59 9.66"/><polygon class="cls-1" points="135.39 9.66 134.64 8.18 130.48 8.18 130.48 5.51 134.54 5.51 134.54 4.02 130.48 4.02 130.48 1.53 134.64 1.53 135.39 0.04 128.79 0.04 128.79 9.66 135.39 9.66"/><path class="cls-1" d="M146.9,9.66l-2.35-3.78a2.69,2.69,0,0,0,2.28-2.82,2.92,2.92,0,0,0-3.15-3h-4.22V9.66h1.68V6.07h1.68L145,9.66Zm-3.45-5.07h-2.31V1.53h2.31a1.51,1.51,0,0,1,1.65,1.53,1.52,1.52,0,0,1-1.65,1.53"/><path class="cls-1" d="M156.46,2.36l1.12-1.13A5,5,0,0,0,154-.1c-2.1,0-3.5,1.22-3.5,2.81,0,3.55,5.61,2.29,5.61,4.32,0,.63-.55,1.31-1.93,1.31a4.1,4.1,0,0,1-2.87-1.17L150.2,8.28l0,0a5.17,5.17,0,0,0,3.91,1.53c2.6,0,3.73-1.37,3.73-3,0-3.6-5.6-2.49-5.6-4.28,0-.72.63-1.19,1.63-1.19a4,4,0,0,1,2.62,1"/><rect class="cls-1" x="161.77" y="0.04" width="1.69" height="9.62"/><polygon class="cls-1" points="171.68 9.66 171.68 1.53 173.96 1.53 174.6 0.04 167.08 0.04 167.08 1.53 170 1.53 170 9.66 171.68 9.66"/><polygon class="cls-1" points="181.96 9.66 181.96 5.67 185.34 0.04 183.41 0.04 181.13 4.17 178.82 0.04 176.88 0.04 180.28 5.67 180.28 9.66 181.96 9.66"/><path class="cls-1" d="M197.2,9.84a4.77,4.77,0,0,0,4.92-5,4.92,4.92,0,1,0-9.84,0,4.77,4.77,0,0,0,4.92,5m0-1.5A3.2,3.2,0,0,1,194,4.86a3.2,3.2,0,1,1,6.38,0,3.21,3.21,0,0,1-3.19,3.48"/><polygon class="cls-1" points="207.6 9.66 207.6 5.51 211.63 5.51 211.63 4.02 207.6 4.02 207.6 1.53 211.75 1.53 212.5 0.04 205.91 0.04 205.91 9.66 207.6 9.66"/></svg>