<?xml version="1.0" encoding="utf-8"?>
<!-- Generator: Adobe Illustrator 23.0.1, SVG Export Plug-In . SVG Version: 6.00 Build 0)  -->
<svg version="1.1" id="Layer_1" xmlns="http://www.w3.org/2000/svg" xmlns:xlink="http://www.w3.org/1999/xlink" x="0px" y="0px"
	 viewBox="0 0 117.45 94.8" style="enable-background:new 0 0 117.45 94.8;" xml:space="preserve">
<style type="text/css">
	.st0{fill:#135741;}
</style>
<g>
	<path class="st0" d="M29.54,51.94h1.87v0.38h-1.87V51.94z M54.09,84.96v2.88h9.11v-2.88l-1.3,1.44h-1.82l-1.43-1.44l-1.44,1.44
		h-1.82L54.09,84.96z M48.04,64.44v2.88h9.11v-2.88l-1.3,1.44h-1.82l-1.43-1.44l-1.43,1.44h-1.82L48.04,64.44z M60.14,64.44v2.88
		h9.11v-2.88l-1.3,1.44h-1.82l-1.43-1.44l-1.43,1.44h-1.82L60.14,64.44z M58.64,69.63c-1.46,0-2.12,1.05-3.58,1.05
		s-2.13-1.08-3.58-1.05c-1.36,0.03-1.96,1.03-3.32,1.05c-1.34,0.02-2.32-0.96-3.32-0.92v9.04c0.05,1.89,1.51,4.61,3.31,4.61
		c1.36-0.02,1.97-1.01,3.32-1.04c1.46-0.03,2.12,1.05,3.58,1.05s2.13-1.05,3.58-1.05c1.46,0,2.13,1.05,3.58,1.05
		c1.46,0,2.12-1.08,3.58-1.05c1.36,0.03,1.96,1.02,3.32,1.04c1.81,0,3.27-2.72,3.32-4.61v-9.04c-1-0.05-1.97,0.94-3.32,0.92
		c-1.36-0.02-1.96-1.02-3.32-1.05c-1.46-0.03-2.12,1.05-3.58,1.05C60.77,70.68,60.1,69.63,58.64,69.63 M58.64,92.94
		c-0.59,0-14.9-6.23-14.9-14.13V61.57h29.8v17.24C73.54,86.71,59.22,92.94,58.64,92.94 M56.51,79.6l-0.62-1.09l0.62-1.08h-1.25
		l-0.62-1.08l-0.62,1.08h-1.25l0.62,1.08l-0.62,1.09h1.25l0.62,1.09l0.62-1.09H56.51z M64.52,75.64l-0.62-1.08l0.62-1.09h-1.25
		l-0.62-1.09l-0.62,1.09h-1.25l0.62,1.09l-0.62,1.08h1.25l0.62,1.09l0.62-1.09H64.52z M58.79,75.64l-0.62-1.08l0.62-1.09h-1.25
		l-0.62-1.09l-0.62,1.09h-1.25l0.62,1.09l-0.62,1.08h1.25l0.62,1.09l0.62-1.09H58.79z M62.24,79.6l-0.62-1.09l0.62-1.08h-1.25
		l-0.62-1.08l-0.62,1.08H58.5l0.62,1.08L58.5,79.6h1.25l0.62,1.09l0.62-1.09H62.24z M51.29,71.63h14.7v9.8h-14.7V71.63z
		 M40.36,69.93c-0.84,0-1.91-1.09-1.82-1.77c0.5-3.71,2.4-2.52,3.8-3.6C42.74,65.08,43.33,69.93,40.36,69.93 M84.86,73.3
		c-0.03,0-0.15,1.55-1.56,2.61c0.79-0.03,2.07,0.08,2.34-0.92C85.91,73.91,85.01,73.35,84.86,73.3 M82.65,72.78
		c-2.79-0.12-3.88,1.56-2.94,2.19C81.48,76.19,82.63,72.74,82.65,72.78 M82.78,68.73c-0.37,0.4-0.97,0.75-1.7,0.92
		c0.76-0.05,2.18-0.06,2.87,0C83.43,69.42,82.78,68.73,82.78,68.73 M77.37,65.38c0,1.21,0.98,2.2,2.19,2.2s2.19-0.99,2.19-2.2
		c0-1.22-0.98-2.2-2.19-2.2C78.35,63.18,77.37,64.17,77.37,65.38 M86.15,67.18c0.24-0.38,0.85-0.53,1.45-0.32
		c0.65,0.22,1.05,0.77,0.93,1.24c3.22-0.06,3.99-0.81,4.01-0.78c-0.94,1.73-3.68,2.98-4.71,3.08c1.47,0.5,4.33,2.18,4.32,5.42
		c0,4.73-4.57,5.39-7.14,4.71c0.82,0.22,1.25,0.76,1.27,0.91H74.71v-9.56c0.34-0.4,1.05-0.92,1.88-1.27
		c0.52-0.22,0.46-0.81,0.46-0.81c-1.4-0.25-2.34-1.44-2.34-1.44v-5.49c0,0,1.39-1.96,4.68-1.96c2.63,0.02,4.03,2.22,4.03,2.22
		s1.1-0.93,3.25-0.91c4.86,0,5.99,4.71,5.99,4.71c-1.43-1.22-3.18-1.59-4.03-1.7c-0.08,0.43-0.53,0.75-1.06,0.75
		c-0.48,0-0.88-0.26-1.02-0.62l-0.4,0.26c0.06,0.15,0.09,0.32,0.07,0.5c-0.03,0.33-0.2,0.62-0.45,0.82L86.15,67.18z M78.58,65.38
		c0-0.54,0.44-0.98,0.98-0.98s0.98,0.44,0.98,0.98s-0.44,0.98-0.98,0.98S78.58,65.93,78.58,65.38 M42.57,69.41v12.03H24.62
		c0.03-0.05,0.65-1.63,1.17-2.22c-0.45-0.37-0.82-0.71-0.78-0.65c-0.04-0.05,2.4-3.24,4.16-3.27c-0.35-0.28-0.67-0.64-0.65-0.65
		c0.63-0.71,1.75-0.75,5.47-1.05c3.71-0.33,4.23-1.31,4.29-4.32C39.2,70.38,40.76,71.73,42.57,69.41 M33.46,63.27
		c-1.19-0.82-1.79-1.13-2.21-1.05c-0.39,0.08-1.18,1.37-1.17,1.31C31.07,63.32,32.56,63.2,33.46,63.27 M29.04,68.23
		c-0.85-0.72-1.93-2.16-2.08-3.14c-0.11-0.73,0.39-1.18,0.39-1.18s-0.24-0.71-0.13-1.04c0.52-1.55,7.86-1.62,9.37-1.57
		c3.43,0.16,4.16,0,5.85-0.65c-0.04-0.06-0.57,2.53-3.77,2.48c-0.01,0.26-0.01,0.36,0,0.39c1.26,0.02,2.77-0.26,3.64-1.31
		c-0.03,0.88,0.3,1.95-1.43,2.35c-1.67,0.39-2.71,0.33-3.25,5.1c-0.11,1.34,0.01,2.52-2.21,3.01c-2.13,0.47-7.76,0.61-8.78,1.41
		l-0.2-0.36c1.12-0.77,1.83-1.97,1.69-3.27c0.23-0.15,0.57-0.26,0.78-0.26c-0.02,0.45-0.57,1.44,2.08,1.44
		c0.05,0,2.49,0.29,1.43-2.88c-0.33-0.99-0.62-2.11-1.82-2.09c-0.01-0.02-1.54,0.07-0.78,1.6c1.08,0.23,2.31,0.49,2.48,1.27
		c0.13,0.8-0.46,1.24-0.91,1.04c-0.44-0.19-1.71-0.91-2.6-0.91c-1.65,0-4.61,1.89-6.5-1.69c0.55,0.59,1.07,0.98,2.86,1.03
		C26.91,69.07,27.27,68.28,29.04,68.23 M66.13,45.74H68v0.38h-1.87V45.74z M25.72,49.57v-2.12c0-0.19-0.01-0.35-0.02-0.5h-0.78
		c-0.15,0-0.19,0.05-0.2,0.17l-0.02,0.4h-0.16c0-0.27-0.01-0.55-0.03-0.81c0.36,0,0.72,0.02,1.08,0.02h0.73
		c0.36,0,0.72-0.02,1.08-0.02c-0.03,0.26-0.04,0.54-0.04,0.81H27.2l-0.02-0.4c-0.01-0.12-0.05-0.17-0.2-0.17H26.2
		c-0.01,0.15-0.02,0.31-0.02,0.5v2.12c0,0.19,0.01,0.32,0.04,0.38c0.03,0.05,0.09,0.07,0.21,0.08l0.24,0.01v0.15
		c-0.26-0.01-0.5-0.01-0.72-0.01c-0.25,0-0.48,0-0.74,0.01v-0.15l0.24-0.01c0.12,0,0.18-0.03,0.21-0.08
		C25.71,49.89,25.72,49.76,25.72,49.57 M28.86,49.57v-2.25c0-0.19-0.01-0.32-0.04-0.38c-0.03-0.05-0.09-0.07-0.21-0.08l-0.24-0.01
		V46.7c0.28,0.01,0.56,0.02,0.85,0.02c0.44,0,0.89-0.02,1.18-0.02c0.23,0,0.45,0.01,0.65,0.02c-0.06,0.22-0.08,0.51-0.08,0.76h-0.18
		v-0.33c0-0.07,0-0.12-0.04-0.14c-0.27-0.1-0.66-0.11-0.98-0.11c-0.13,0-0.28,0.01-0.42,0.04v1.34c0.16,0.01,0.34,0.01,0.58,0.01
		c0.3,0,0.47-0.02,0.53-0.06c0.03-0.02,0.03-0.06,0.04-0.13l0.03-0.26h0.15c0,0.21-0.01,0.4-0.01,0.58s0.01,0.38,0.01,0.56h-0.15
		l-0.03-0.3c-0.01-0.07-0.01-0.11-0.04-0.12c-0.06-0.04-0.22-0.06-0.53-0.06c-0.24,0-0.43,0-0.58,0.02v1.41
		c0.14,0.03,0.29,0.04,0.42,0.04c0.41,0,0.92-0.01,1.01-0.07c0.08-0.04,0.14-0.26,0.18-0.56h0.17c-0.05,0.24-0.08,0.55-0.08,0.83
		c-0.22,0-0.62,0.02-0.99,0.01c-0.38,0-0.78-0.01-1.09-0.01c-0.19,0-0.36,0.01-0.54,0.01v-0.15l0.18-0.01
		c0.12-0.01,0.18-0.03,0.21-0.08C28.85,49.89,28.86,49.76,28.86,49.57 M37.15,49.19l-0.63-1.7l-0.87,2.22
		c-0.06,0.17-0.13,0.34-0.18,0.52h-0.25c-0.04-0.19-0.07-0.34-0.12-0.52l-0.6-2.59c-0.05-0.22-0.14-0.24-0.25-0.25l-0.14-0.01V46.7
		c0.21,0.01,0.42,0.01,0.63,0.01c0.22,0,0.42-0.01,0.63-0.01v0.15l-0.21,0.01c-0.13,0.01-0.23,0.04-0.17,0.33l0.5,2.24l0.63-1.57
		c0.16-0.4,0.31-0.8,0.45-1.21h0.16c0.05,0.2,0.14,0.43,0.21,0.64l0.78,2.18l0.67-2.44c0.03-0.12-0.04-0.15-0.23-0.17l-0.2-0.01
		V46.7c0.18,0.01,0.35,0.01,0.53,0.01s0.35-0.01,0.53-0.01v0.15l-0.16,0.01c-0.11,0.01-0.17,0.06-0.19,0.15l-0.77,2.7
		c-0.04,0.15-0.1,0.3-0.14,0.51H37.5C37.39,49.83,37.27,49.53,37.15,49.19 M43.4,47.32v2.25c0,0.19,0.01,0.32,0.05,0.38
		c0.03,0.05,0.09,0.07,0.21,0.08l0.24,0.01v0.15c-0.26-0.01-0.5-0.01-0.72-0.01c-0.25,0-0.48,0-0.74,0.01v-0.15l0.24-0.01
		c0.12,0,0.18-0.03,0.21-0.08c0.03-0.06,0.04-0.18,0.04-0.38v-1.12c-0.06,0-0.19-0.01-0.41-0.01h-1.17c-0.22,0-0.36,0-0.42,0.01
		v1.12c0,0.19,0.01,0.32,0.05,0.38c0.03,0.05,0.09,0.07,0.21,0.08l0.24,0.01v0.15c-0.26-0.01-0.5-0.01-0.73-0.01
		c-0.25,0-0.48,0-0.74,0.01v-0.15l0.24-0.01c0.12,0,0.18-0.03,0.21-0.08c0.03-0.06,0.05-0.18,0.05-0.38v-2.25
		c0-0.19-0.01-0.32-0.05-0.38c-0.03-0.05-0.09-0.07-0.21-0.08l-0.24-0.01V46.7c0.26,0.01,0.5,0.01,0.74,0.01
		c0.23,0,0.47,0,0.73-0.01v0.15l-0.24,0.01c-0.12,0.01-0.18,0.03-0.21,0.08c-0.03,0.06-0.05,0.18-0.05,0.38v0.89
		c0.06,0.01,0.19,0.01,0.42,0.01h1.17c0.22,0,0.35,0,0.41-0.01v-0.89c0-0.19-0.01-0.32-0.04-0.38c-0.03-0.05-0.09-0.07-0.21-0.08
		l-0.24-0.01V46.7c0.26,0.01,0.49,0.01,0.74,0.01c0.23,0,0.47,0,0.72-0.01v0.15l-0.24,0.01c-0.12,0.01-0.18,0.03-0.21,0.08
		C43.41,47,43.4,47.13,43.4,47.32 M45.97,48.83h1.27l-0.63-1.5L45.97,48.83z M46.81,46.66l1.21,2.85c0.04,0.1,0.1,0.24,0.16,0.34
		c0.06,0.09,0.11,0.16,0.2,0.17l0.17,0.01v0.15c-0.22,0-0.44-0.01-0.67-0.01c-0.17,0-0.4,0.01-0.66,0.01v-0.15l0.23-0.01
		c0.1,0,0.21-0.04,0.21-0.1c0-0.07-0.06-0.2-0.1-0.32l-0.23-0.58h-1.44l-0.14,0.34c-0.05,0.11-0.18,0.44-0.18,0.52
		c0,0.1,0.09,0.12,0.24,0.14l0.18,0.01v0.15c-0.24,0-0.43-0.01-0.58-0.01c-0.19,0-0.39,0.01-0.58,0.01v-0.15l0.19-0.01
		c0.12-0.01,0.22-0.11,0.27-0.25l0.89-2.03c0.15-0.35,0.33-0.72,0.46-1.09h0.17V46.66z M50.5,46.95v2.62c0,0.19,0.01,0.32,0.05,0.38
		c0.03,0.05,0.09,0.07,0.21,0.08L51,50.04v0.15c-0.26-0.01-0.5-0.01-0.73-0.01c-0.24,0-0.48,0-0.74,0.01v-0.15l0.24-0.01
		c0.12,0,0.18-0.03,0.21-0.08c0.04-0.06,0.05-0.18,0.05-0.38v-2.25c0-0.19-0.01-0.32-0.05-0.38c-0.03-0.05-0.09-0.07-0.21-0.08
		l-0.21-0.01V46.7c0.26,0.01,0.56,0.02,0.85,0.02c0.3,0,0.58-0.01,0.88-0.02c0.8-0.01,1.01,0.39,1.01,0.76
		c0,0.55-0.49,0.88-0.97,0.97l1.14,1.49c0.07,0.1,0.18,0.12,0.31,0.13v0.15c-0.13,0-0.25-0.01-0.36-0.01s-0.22,0.01-0.34,0.01
		c-0.07-0.1-0.14-0.18-0.21-0.27l-0.92-1.24c-0.08-0.11-0.17-0.21-0.26-0.31c0.17-0.05,0.32-0.06,0.47-0.08
		c0.35-0.06,0.65-0.33,0.65-0.7c0-0.54-0.4-0.69-0.79-0.69C50.79,46.89,50.64,46.92,50.5,46.95 M54.13,49.57v-2.25
		c0-0.19-0.01-0.32-0.04-0.38c-0.03-0.05-0.09-0.07-0.21-0.08l-0.24-0.01V46.7c0.28,0.01,0.56,0.02,0.85,0.02
		c0.43,0,0.9-0.02,1.18-0.02c0.23,0,0.45,0.01,0.65,0.02c-0.05,0.22-0.08,0.51-0.08,0.76h-0.18v-0.33c0-0.07-0.01-0.12-0.04-0.14
		c-0.27-0.1-0.66-0.11-0.98-0.11c-0.13,0-0.28,0.01-0.42,0.04v1.34c0.16,0.01,0.34,0.01,0.58,0.01c0.31,0,0.47-0.02,0.53-0.06
		c0.03-0.02,0.03-0.06,0.04-0.13l0.03-0.26h0.15c-0.01,0.21-0.01,0.4-0.01,0.58s0.01,0.38,0.01,0.56H55.8l-0.03-0.3
		c-0.01-0.07-0.01-0.11-0.04-0.12c-0.06-0.04-0.22-0.06-0.53-0.06c-0.24,0-0.43,0-0.58,0.02v1.41c0.14,0.03,0.28,0.04,0.42,0.04
		c0.41,0,0.92-0.01,1.01-0.07c0.08-0.04,0.14-0.26,0.18-0.56h0.17c-0.05,0.24-0.08,0.55-0.08,0.83c-0.22,0-0.62,0.02-0.99,0.01
		c-0.39,0-0.78-0.01-1.09-0.01c-0.19,0-0.36,0.01-0.54,0.01v-0.15l0.18-0.01c0.12-0.01,0.18-0.03,0.21-0.08S54.13,49.76,54.13,49.57
		 M62.42,49.19l-0.62-1.7l-0.87,2.22c-0.07,0.17-0.13,0.34-0.18,0.52H60.5c-0.03-0.19-0.08-0.34-0.11-0.52l-0.6-2.59
		c-0.05-0.22-0.15-0.24-0.25-0.25l-0.14-0.01V46.7c0.21,0.01,0.42,0.01,0.63,0.01c0.22,0,0.42-0.01,0.63-0.01v0.15l-0.21,0.01
		c-0.13,0.01-0.23,0.04-0.16,0.33l0.49,2.24l0.63-1.57c0.16-0.4,0.32-0.8,0.45-1.21h0.16c0.04,0.2,0.14,0.43,0.21,0.64l0.78,2.18
		l0.67-2.44c0.03-0.12-0.04-0.15-0.23-0.17l-0.2-0.01V46.7c0.18,0.01,0.35,0.01,0.53,0.01s0.35-0.01,0.52-0.01v0.15l-0.16,0.01
		c-0.11,0.01-0.17,0.06-0.19,0.15l-0.76,2.7c-0.04,0.15-0.09,0.3-0.14,0.51H62.8C62.66,49.83,62.54,49.53,62.42,49.19 M66.32,48.83
		h1.27l-0.63-1.5L66.32,48.83z M67.16,46.66l1.21,2.85c0.04,0.1,0.1,0.24,0.16,0.34c0.05,0.09,0.11,0.16,0.2,0.17l0.17,0.01v0.15
		c-0.22,0-0.44-0.01-0.66-0.01c-0.18,0-0.4,0.01-0.67,0.01v-0.15l0.23-0.01c0.11,0,0.21-0.04,0.21-0.1c0-0.07-0.06-0.2-0.1-0.32
		l-0.23-0.58h-1.44l-0.14,0.34c-0.04,0.11-0.17,0.44-0.17,0.52c0,0.1,0.08,0.12,0.24,0.14l0.19,0.01v0.15
		c-0.24,0-0.43-0.01-0.58-0.01c-0.19,0-0.39,0.01-0.58,0.01v-0.15l0.19-0.01c0.12-0.01,0.21-0.11,0.27-0.25l0.89-2.03
		c0.15-0.35,0.33-0.72,0.46-1.09h0.15V46.66z M70.33,49.57v-2.25c0-0.19-0.01-0.32-0.04-0.38c-0.03-0.05-0.09-0.07-0.21-0.08
		l-0.22-0.01V46.7c0.22,0.01,0.42,0.01,0.6,0.01c0.09,0,0.18-0.01,0.27-0.01l2.39,2.97l0.01-2.35c0-0.19-0.01-0.32-0.04-0.38
		c-0.03-0.05-0.09-0.07-0.21-0.08l-0.22-0.01V46.7c0.2,0.01,0.4,0.01,0.58,0.01c0.2,0,0.38-0.01,0.6-0.01v0.15l-0.22,0.01
		c-0.12,0.01-0.18,0.03-0.21,0.08c-0.04,0.06-0.05,0.18-0.05,0.38v2.77c0,0.06,0.01,0.13,0.01,0.19l-0.45-0.08l-2.36-2.94
		l-0.01,2.31c0,0.19,0.01,0.32,0.05,0.38c0.03,0.05,0.09,0.07,0.21,0.08l0.22,0.01v0.15c-0.22,0-0.4-0.01-0.6-0.01
		c-0.18,0-0.38,0.01-0.58,0.01v-0.15l0.22-0.01c0.12-0.01,0.18-0.03,0.21-0.08C70.32,49.89,70.33,49.76,70.33,49.57 M75.89,48.83
		h1.27l-0.63-1.5L75.89,48.83z M76.73,46.66l1.21,2.85c0.04,0.1,0.1,0.24,0.16,0.34c0.06,0.09,0.11,0.16,0.2,0.17l0.17,0.01v0.15
		c-0.22,0-0.44-0.01-0.67-0.01c-0.17,0-0.39,0.01-0.67,0.01v-0.15l0.24-0.01c0.11,0,0.21-0.04,0.21-0.1c0-0.07-0.06-0.2-0.11-0.32
		l-0.23-0.58H75.8l-0.14,0.34c-0.04,0.11-0.18,0.44-0.18,0.52c0,0.1,0.09,0.12,0.24,0.14l0.18,0.01v0.15
		c-0.24,0-0.43-0.01-0.57-0.01c-0.19,0-0.39,0.01-0.58,0.01v-0.15l0.19-0.01c0.12-0.01,0.21-0.11,0.27-0.25l0.89-2.03
		c0.15-0.35,0.33-0.72,0.46-1.09h0.17V46.66z M79.9,49.57v-2.25c0-0.19-0.01-0.32-0.04-0.38c-0.03-0.05-0.09-0.07-0.21-0.08
		l-0.22-0.01V46.7c0.22,0.01,0.42,0.01,0.6,0.01c0.09,0,0.18-0.01,0.27-0.01l2.39,2.97l0.01-2.35c0-0.19-0.01-0.32-0.05-0.38
		c-0.03-0.05-0.09-0.07-0.21-0.08l-0.22-0.01V46.7c0.2,0.01,0.4,0.01,0.58,0.01c0.2,0,0.38-0.01,0.6-0.01v0.15l-0.22,0.01
		c-0.12,0.01-0.18,0.03-0.21,0.08c-0.04,0.06-0.05,0.18-0.05,0.38v2.77c0,0.06,0.01,0.13,0.02,0.19L82.5,50.2l-2.36-2.94l-0.01,2.31
		c0,0.19,0.01,0.32,0.04,0.38c0.03,0.05,0.09,0.07,0.21,0.08l0.22,0.01v0.15c-0.22,0-0.4-0.01-0.6-0.01c-0.18,0-0.38,0.01-0.58,0.01
		v-0.15l0.22-0.01c0.12-0.01,0.18-0.03,0.21-0.08C79.89,49.89,79.9,49.76,79.9,49.57 M87.24,49.69v-0.51c0-0.11-0.04-0.17-0.17-0.18
		l-0.42-0.03v-0.15c0.21,0,0.41,0.01,0.61,0.01c0.21,0,0.41,0,0.62-0.01l0.02,0.13L87.75,49c-0.05,0.01-0.05,0.03-0.05,0.18v0.84
		c-0.43,0.13-0.97,0.26-1.32,0.26c-1.12,0-2.02-0.58-2.02-1.85c0-1.11,0.91-1.82,2.11-1.82c0.62,0,1.01,0.14,1.24,0.21
		c-0.06,0.24-0.1,0.5-0.1,0.76h-0.15v-0.27c0-0.24-0.18-0.32-0.42-0.4c-0.16-0.06-0.38-0.09-0.7-0.09c-0.95,0-1.45,0.63-1.45,1.52
		c0,1,0.58,1.72,1.61,1.72c0.39,0,0.67-0.08,0.7-0.18C87.23,49.84,87.24,49.81,87.24,49.69 M90.03,48.83h1.27l-0.63-1.5L90.03,48.83
		z M90.87,46.66l1.21,2.85c0.04,0.1,0.1,0.24,0.16,0.34c0.06,0.09,0.11,0.16,0.2,0.17l0.17,0.01v0.15c-0.22,0-0.44-0.01-0.67-0.01
		c-0.18,0-0.4,0.01-0.67,0.01v-0.15l0.24-0.01c0.11,0,0.21-0.04,0.21-0.1c0-0.07-0.06-0.2-0.11-0.32l-0.23-0.58h-1.44l-0.14,0.34
		c-0.04,0.11-0.18,0.44-0.18,0.52c0,0.1,0.09,0.12,0.24,0.14l0.19,0.01v0.15c-0.24,0-0.43-0.01-0.58-0.01
		c-0.19,0-0.38,0.01-0.57,0.01v-0.15l0.18-0.01c0.12-0.01,0.22-0.11,0.27-0.25l0.89-2.03c0.15-0.35,0.32-0.72,0.46-1.09h0.17V46.66z
		 M95,51.94h1.87v0.38H95V51.94z M104.39,53.52v2.25c0,0.19,0.01,0.32,0.05,0.38c0.03,0.05,0.09,0.07,0.21,0.07l0.24,0.01v0.15
		c-0.26-0.01-0.5-0.01-0.73-0.01c-0.25,0-0.48,0.01-0.74,0.01v-0.15l0.24-0.01c0.12,0,0.18-0.02,0.21-0.07
		c0.03-0.06,0.04-0.19,0.04-0.38v-2.25c0-0.19-0.01-0.32-0.04-0.38c-0.03-0.05-0.09-0.07-0.21-0.07l-0.24-0.02V52.9
		c0.26,0.01,0.5,0.01,0.74,0.01c0.23,0,0.46,0,0.73-0.01v0.15l-0.24,0.02c-0.12,0-0.18,0.03-0.21,0.07
		C104.4,53.2,104.39,53.33,104.39,53.52 M14.05,53.02c-0.87,0-1.27,0.61-1.27,1.44c0,0.88,0.41,1.81,1.4,1.81
		c0.84,0,1.24-0.65,1.24-1.58C15.43,53.69,14.98,53.02,14.05,53.02 M14.03,56.48c-1.02,0-1.78-0.7-1.78-1.83
		c0-1.04,0.72-1.83,1.88-1.83c1.07,0,1.83,0.6,1.83,1.72C15.96,55.61,15.12,56.48,14.03,56.48 M20.14,55.77v-2.12
		c0-0.19,0-0.35-0.02-0.5h-0.78c-0.15,0-0.19,0.05-0.2,0.17l-0.02,0.4h-0.15c0-0.27-0.01-0.55-0.04-0.81c0.36,0,0.72,0.02,1.08,0.02
		h0.73c0.36,0,0.72-0.02,1.08-0.02c-0.03,0.26-0.04,0.54-0.04,0.81h-0.15l-0.02-0.4c-0.01-0.12-0.05-0.17-0.2-0.17h-0.78
		c-0.01,0.15-0.02,0.31-0.02,0.5v2.12c0,0.19,0.01,0.32,0.05,0.38c0.03,0.05,0.09,0.07,0.21,0.07l0.24,0.01v0.15
		c-0.26-0.01-0.5-0.01-0.73-0.01c-0.25,0-0.48,0.01-0.74,0.01v-0.15l0.24-0.01c0.12,0,0.18-0.02,0.21-0.07
		C20.13,56.09,20.14,55.96,20.14,55.77 M23.28,55.77v-2.26c0-0.19-0.01-0.32-0.04-0.38c-0.03-0.05-0.09-0.07-0.21-0.07l-0.24-0.02
		V52.9c0.28,0.01,0.56,0.02,0.85,0.02c0.43,0,0.89-0.02,1.18-0.02c0.23,0,0.45,0.01,0.65,0.02c-0.05,0.22-0.08,0.51-0.08,0.76H25.2
		v-0.33c0-0.07,0-0.12-0.04-0.14c-0.27-0.1-0.66-0.11-0.98-0.11c-0.14,0-0.28,0-0.42,0.04v1.34c0.16,0.01,0.34,0.01,0.58,0.01
		c0.31,0,0.47-0.02,0.53-0.06c0.03-0.02,0.04-0.07,0.04-0.13l0.03-0.26h0.15c-0.01,0.21-0.01,0.4-0.01,0.58
		c0,0.19,0.01,0.38,0.01,0.56h-0.15l-0.03-0.3c-0.01-0.07-0.02-0.11-0.04-0.13c-0.05-0.04-0.22-0.06-0.53-0.06
		c-0.24,0-0.42,0-0.58,0.01v1.41c0.14,0.04,0.28,0.04,0.42,0.04c0.41,0,0.92-0.01,1.01-0.06c0.07-0.04,0.14-0.26,0.18-0.56h0.17
		c-0.05,0.24-0.08,0.55-0.08,0.82c-0.22,0.01-0.62,0.02-0.99,0.01c-0.38,0-0.78-0.01-1.09-0.01c-0.19,0-0.35,0.01-0.54,0.01v-0.15
		l0.18-0.01c0.12-0.01,0.18-0.02,0.21-0.07C23.27,56.09,23.28,55.96,23.28,55.77 M29.05,55.3v-1.78c0-0.19-0.01-0.32-0.04-0.38
		c-0.03-0.05-0.09-0.07-0.21-0.07l-0.24-0.02V52.9c0.26,0.01,0.5,0.01,0.74,0.01c0.23,0,0.47,0,0.73-0.01v0.15l-0.24,0.02
		c-0.12,0-0.18,0.03-0.21,0.07c-0.04,0.06-0.05,0.19-0.05,0.38v1.73c0,0.71,0.37,0.92,1.03,0.92c0.54,0,1.03-0.21,1.03-1.04v-1.61
		c0-0.19-0.01-0.32-0.05-0.38c-0.03-0.05-0.09-0.07-0.21-0.07l-0.22-0.02V52.9c0.2,0,0.4,0.01,0.58,0.01c0.2,0,0.38-0.01,0.6-0.01
		v0.15l-0.22,0.02c-0.12,0.01-0.18,0.03-0.21,0.07c-0.03,0.06-0.04,0.19-0.04,0.38v1.45c0,1.07-0.41,1.51-1.42,1.51
		C29.55,56.48,29.05,56.22,29.05,55.3 M34.23,53.15v2.62c0,0.19,0.01,0.32,0.04,0.38c0.03,0.05,0.09,0.07,0.21,0.07l0.24,0.01v0.15
		c-0.26-0.01-0.49-0.01-0.72-0.01c-0.25,0-0.48,0.01-0.74,0.01v-0.15l0.24-0.01c0.12,0,0.18-0.02,0.21-0.07
		c0.04-0.06,0.04-0.19,0.04-0.38v-2.25c0-0.18-0.02-0.32-0.05-0.37c-0.04-0.05-0.09-0.08-0.22-0.08l-0.23-0.02V52.9
		c0.33,0.01,0.62,0.02,0.9,0.02c0.29,0,0.58-0.01,0.85-0.02c0.49-0.01,1.04,0.2,1.04,0.77c0,0.63-0.54,1.08-1.2,1.08
		c-0.1,0-0.2-0.01-0.3-0.03l-0.05-0.18c0.11,0.04,0.22,0.05,0.33,0.05c0.4,0,0.72-0.32,0.72-0.75c0-0.52-0.31-0.75-0.81-0.75
		C34.52,53.09,34.37,53.12,34.23,53.15 M38.84,53.02c-0.87,0-1.26,0.61-1.26,1.44c0,0.88,0.41,1.81,1.4,1.81
		c0.84,0,1.24-0.65,1.24-1.58C40.22,53.69,39.78,53.02,38.84,53.02 M38.82,56.48c-1.01,0-1.78-0.7-1.78-1.83
		c0-1.04,0.72-1.83,1.88-1.83c1.07,0,1.83,0.6,1.83,1.72C40.76,55.61,39.91,56.48,38.82,56.48 M42.71,54.74v1.03
		c0,0.19,0.01,0.32,0.04,0.38c0.03,0.05,0.09,0.07,0.21,0.07l0.24,0.01v0.15c-0.26-0.01-0.5-0.01-0.73-0.01
		c-0.24,0-0.48,0.01-0.74,0.01v-0.15l0.24-0.01c0.12,0,0.18-0.02,0.21-0.07c0.03-0.06,0.05-0.19,0.05-0.38v-2.25
		c0-0.19-0.01-0.32-0.05-0.38c-0.03-0.05-0.09-0.07-0.21-0.07l-0.24-0.02V52.9c0.26,0.01,0.5,0.01,0.74,0.01
		c0.23,0,0.47,0,0.73-0.01v0.15l-0.24,0.02c-0.12,0-0.18,0.03-0.21,0.07c-0.03,0.06-0.04,0.19-0.04,0.38v1.07l1.39-1.36
		c0.08-0.08,0.15-0.16,0.15-0.2V52.9c0.16,0,0.3,0.01,0.44,0.01s0.28-0.01,0.4-0.01v0.15l-0.21,0.01c-0.13,0.01-0.26,0.08-0.39,0.19
		l-1.33,1.2l1.65,1.57c0.12,0.11,0.22,0.19,0.31,0.21l0.1,0.01v0.15c-0.1,0-0.22-0.01-0.33-0.01c-0.12,0-0.24,0.01-0.4,0.01
		l-1.74-1.68L42.71,54.74z M47.93,53.02c-0.87,0-1.27,0.61-1.27,1.44c0,0.88,0.41,1.81,1.4,1.81c0.84,0,1.24-0.65,1.24-1.58
		C49.31,53.69,48.86,53.02,47.93,53.02 M47.9,56.48c-1.02,0-1.78-0.7-1.78-1.83c0-1.04,0.72-1.83,1.88-1.83
		c1.07,0,1.83,0.6,1.83,1.72C49.84,55.61,49,56.48,47.9,56.48 M54.63,53.02c-0.87,0-1.27,0.61-1.27,1.44c0,0.88,0.41,1.81,1.4,1.81
		c0.84,0,1.24-0.65,1.24-1.58C56.01,53.69,55.56,53.02,54.63,53.02 M54.61,56.48c-1.02,0-1.78-0.7-1.78-1.83
		c0-1.04,0.72-1.83,1.88-1.83c1.07,0,1.83,0.6,1.83,1.72C56.54,55.61,55.7,56.48,54.61,56.48 M60.72,55.77v-2.12
		c0-0.19-0.01-0.35-0.02-0.5h-0.78c-0.15,0-0.19,0.05-0.2,0.17l-0.02,0.39h-0.15c0-0.27-0.01-0.55-0.04-0.81
		c0.36,0,0.72,0.02,1.08,0.02h0.72c0.36,0,0.72-0.02,1.08-0.02c-0.03,0.26-0.04,0.54-0.04,0.81H62.2l-0.02-0.4
		c-0.01-0.12-0.05-0.17-0.2-0.17H61.2c-0.02,0.15-0.02,0.31-0.02,0.5v2.12c0,0.19,0.01,0.32,0.04,0.38
		c0.03,0.05,0.09,0.07,0.21,0.07l0.24,0.01v0.15c-0.26-0.01-0.5-0.01-0.73-0.01c-0.24,0-0.48,0.01-0.74,0.01v-0.15l0.24-0.01
		c0.12,0,0.18-0.02,0.21-0.07C60.71,56.09,60.72,55.96,60.72,55.77 M63.86,55.77v-2.26c0-0.19-0.01-0.32-0.04-0.38
		c-0.03-0.05-0.09-0.07-0.21-0.07l-0.24-0.02V52.9c0.27,0.01,0.56,0.02,0.85,0.02c0.44,0,0.89-0.02,1.18-0.02
		c0.23,0,0.45,0.01,0.65,0.02c-0.06,0.22-0.08,0.51-0.08,0.76H65.8v-0.33c0-0.07-0.01-0.12-0.05-0.14c-0.27-0.1-0.66-0.11-0.98-0.11
		c-0.14,0-0.28,0-0.42,0.04v1.34c0.16,0.01,0.34,0.01,0.58,0.01c0.31,0,0.47-0.02,0.53-0.06c0.03-0.02,0.04-0.07,0.04-0.13
		l0.02-0.26h0.15c0,0.21-0.01,0.4-0.01,0.58c0,0.19,0.01,0.38,0.01,0.56h-0.15l-0.02-0.3c0-0.07-0.02-0.11-0.04-0.13
		c-0.06-0.04-0.22-0.06-0.53-0.06c-0.24,0-0.42,0-0.58,0.01v1.41c0.14,0.04,0.28,0.04,0.42,0.04c0.41,0,0.92-0.01,1.01-0.06
		c0.07-0.04,0.14-0.26,0.18-0.56h0.18c-0.05,0.24-0.08,0.55-0.08,0.82c-0.22,0.01-0.62,0.02-0.99,0.01c-0.39,0-0.78-0.01-1.09-0.01
		c-0.19,0-0.36,0.01-0.54,0.01v-0.15l0.18-0.01c0.12-0.01,0.18-0.02,0.21-0.07C63.85,56.09,63.86,55.96,63.86,55.77 M70.16,53.52
		v2.25c0,0.19,0.01,0.32,0.04,0.38c0.03,0.05,0.09,0.07,0.21,0.07l0.24,0.01v0.15c-0.26-0.01-0.5-0.01-0.73-0.01
		c-0.24,0-0.48,0.01-0.74,0.01v-0.15l0.24-0.01c0.12,0,0.18-0.02,0.21-0.07c0.03-0.06,0.04-0.19,0.04-0.38v-2.25
		c0-0.19-0.01-0.32-0.04-0.38c-0.03-0.05-0.09-0.07-0.21-0.07l-0.24-0.02V52.9c0.26,0.01,0.5,0.01,0.74,0.01
		c0.23,0,0.47,0,0.73-0.01v0.15l-0.24,0.02c-0.12,0-0.18,0.03-0.21,0.07C70.17,53.2,70.16,53.33,70.16,53.52 M72.61,54.74v1.03
		c0,0.19,0.01,0.32,0.05,0.38c0.03,0.05,0.09,0.07,0.21,0.07l0.24,0.01v0.15c-0.26-0.01-0.49-0.01-0.72-0.01
		c-0.25,0-0.48,0.01-0.74,0.01v-0.15l0.24-0.01c0.12,0,0.18-0.02,0.21-0.07c0.04-0.06,0.04-0.19,0.04-0.38v-2.25
		c0-0.19-0.01-0.32-0.04-0.38c-0.03-0.05-0.09-0.07-0.21-0.07l-0.24-0.02V52.9c0.26,0.01,0.5,0.01,0.74,0.01
		c0.23,0,0.46,0,0.72-0.01v0.15l-0.24,0.02c-0.12,0-0.18,0.03-0.21,0.07c-0.04,0.06-0.05,0.19-0.05,0.38v1.07L74,53.23
		c0.08-0.08,0.15-0.16,0.15-0.2V52.9c0.16,0,0.3,0.01,0.44,0.01s0.28-0.01,0.4-0.01v0.15l-0.21,0.01c-0.13,0.01-0.27,0.08-0.39,0.19
		l-1.33,1.2l1.65,1.57c0.13,0.11,0.22,0.19,0.31,0.21l0.1,0.01v0.15c-0.09,0-0.21-0.01-0.33-0.01s-0.24,0.01-0.4,0.01l-1.74-1.68
		L72.61,54.74z M77.12,55.03h1.27l-0.63-1.5L77.12,55.03z M77.96,52.86l1.21,2.86c0.04,0.1,0.1,0.23,0.16,0.34
		c0.06,0.1,0.11,0.16,0.2,0.17l0.17,0.01v0.15c-0.22,0-0.44-0.01-0.67-0.01c-0.18,0-0.39,0.01-0.67,0.01v-0.15l0.24-0.01
		c0.11,0,0.21-0.04,0.21-0.1c0-0.07-0.06-0.2-0.11-0.32l-0.23-0.58h-1.44l-0.14,0.34c-0.04,0.1-0.18,0.44-0.18,0.52
		c0,0.11,0.08,0.12,0.24,0.14l0.18,0.01v0.15c-0.24,0-0.43-0.01-0.58-0.01c-0.19,0-0.39,0.01-0.57,0.01v-0.15l0.18-0.01
		c0.12-0.01,0.21-0.11,0.27-0.24l0.89-2.03c0.16-0.35,0.33-0.72,0.46-1.09L77.96,52.86L77.96,52.86z M83.32,55.03h1.27l-0.63-1.5
		L83.32,55.03z M84.16,52.86l1.21,2.86c0.04,0.1,0.1,0.23,0.16,0.34c0.05,0.1,0.11,0.16,0.2,0.17l0.17,0.01v0.15
		c-0.22,0-0.44-0.01-0.67-0.01c-0.18,0-0.4,0.01-0.67,0.01v-0.15l0.24-0.01c0.1,0,0.2-0.04,0.2-0.1c0-0.07-0.05-0.2-0.1-0.32
		l-0.23-0.58h-1.44l-0.14,0.34c-0.04,0.1-0.17,0.44-0.17,0.52c0,0.11,0.08,0.12,0.24,0.14l0.19,0.01v0.15
		c-0.24,0-0.43-0.01-0.58-0.01c-0.19,0-0.39,0.01-0.58,0.01v-0.15l0.18-0.01c0.12-0.01,0.22-0.11,0.27-0.24l0.89-2.03
		c0.15-0.35,0.33-0.72,0.46-1.09L84.16,52.86L84.16,52.86z M92.65,53.52v2.25c0,0.19,0.01,0.32,0.04,0.38
		c0.03,0.05,0.09,0.07,0.21,0.07l0.24,0.01v0.15c-0.26-0.01-0.5-0.01-0.73-0.01c-0.24,0-0.48,0.01-0.67,0.01v-0.15l0.17-0.01
		c0.12-0.01,0.18-0.02,0.21-0.07c0.03-0.06,0.04-0.19,0.04-0.38v-2.28c-0.08,0.14-0.16,0.28-0.22,0.41l-0.89,1.9
		c-0.09,0.21-0.18,0.43-0.27,0.64h-0.1l-1.39-2.95l-0.01,2.28c0,0.19,0.01,0.32,0.04,0.38c0.03,0.05,0.09,0.07,0.21,0.07l0.22,0.01
		v0.15c-0.22,0-0.4-0.01-0.6-0.01c-0.18,0-0.38,0.01-0.58,0.01v-0.15l0.22-0.01c0.12-0.01,0.18-0.02,0.21-0.07
		c0.03-0.06,0.04-0.19,0.04-0.38v-2.25c0-0.19-0.01-0.32-0.04-0.38c-0.03-0.05-0.09-0.06-0.21-0.07l-0.22-0.02V52.9
		c0.16,0,0.31,0.01,0.48,0.01c0.16,0,0.32-0.01,0.47-0.01l1.32,2.79l1.31-2.79c0.16,0,0.31,0.01,0.47,0.01s0.32-0.01,0.47-0.01v0.15
		l-0.21,0.02c-0.12,0.01-0.18,0.03-0.21,0.07C92.66,53.2,92.65,53.33,92.65,53.52 M95.2,55.03h1.27l-0.63-1.5L95.2,55.03z
		 M96.04,52.86l1.21,2.86c0.04,0.1,0.1,0.23,0.16,0.34c0.06,0.1,0.11,0.16,0.2,0.17l0.17,0.01v0.15c-0.22,0-0.44-0.01-0.67-0.01
		c-0.18,0-0.39,0.01-0.66,0.01v-0.15l0.23-0.01c0.11,0,0.21-0.04,0.21-0.1c0-0.07-0.06-0.2-0.1-0.32l-0.23-0.58h-1.44l-0.14,0.34
		c-0.04,0.1-0.18,0.44-0.18,0.52c0,0.11,0.08,0.12,0.24,0.14l0.18,0.01v0.15c-0.24,0-0.43-0.01-0.58-0.01
		c-0.19,0-0.38,0.01-0.58,0.01v-0.15l0.19-0.01c0.12-0.01,0.22-0.11,0.27-0.24l0.89-2.03c0.15-0.35,0.32-0.72,0.46-1.09L96.04,52.86
		L96.04,52.86z M99.21,55.3v-1.78c0-0.19-0.01-0.32-0.05-0.38c-0.03-0.05-0.09-0.07-0.21-0.07l-0.24-0.02V52.9
		c0.26,0.01,0.5,0.01,0.74,0.01c0.23,0,0.47,0,0.73-0.01v0.15l-0.24,0.02c-0.12,0-0.18,0.03-0.21,0.07
		c-0.04,0.06-0.04,0.19-0.04,0.38v1.73c0,0.71,0.37,0.92,1.03,0.92c0.54,0,1.03-0.21,1.03-1.04v-1.61c0-0.19-0.01-0.32-0.04-0.38
		c-0.03-0.05-0.09-0.07-0.21-0.07l-0.22-0.02V52.9c0.2,0,0.4,0.01,0.58,0.01c0.2,0,0.38-0.01,0.6-0.01v0.15l-0.22,0.02
		c-0.12,0.01-0.18,0.03-0.21,0.07c-0.04,0.06-0.04,0.19-0.04,0.38v1.45c0,1.07-0.41,1.51-1.42,1.51
		C99.71,56.48,99.21,56.22,99.21,55.3"/>
	<path class="st0" d="M27.46,2c0.43,0,0.97-0.03,1.7-0.04v0.55l-0.47,0.04c-0.32,0.03-0.52,0.27-0.69,0.7l-3.07,7.38
		c-0.21,0.49-0.37,0.98-0.56,1.47h-1.12l-3.53-8.47c-0.18-0.42-0.41-1.02-0.92-1.07l-0.61-0.04V1.97c0.97,0.01,1.73,0.04,2.3,0.04
		s1.31-0.03,2.42-0.04v0.55l-0.74,0.04c-0.22,0.01-0.38,0.15-0.38,0.28c0,0.3,0.18,0.74,0.31,1.07l2.32,5.73l2.1-5.23
		c0.25-0.62,0.46-1.19,0.46-1.45c0-0.27-0.25-0.39-0.55-0.4l-0.68-0.04V1.97C26.47,1.97,27.03,2,27.46,2 M30.68,1.96v0.6l0.55,0.05
		c0.38,0.03,0.55,0.09,0.61,0.21c0.09,0.18,0.1,0.58,0.1,1.2v6.04c0,0.62-0.01,1.02-0.1,1.2c-0.06,0.12-0.22,0.18-0.61,0.21
		l-0.55,0.04v0.6c0.6-0.01,1.42-0.04,2.3-0.04c0.87,0,1.68,0.03,2.29,0.04v-0.6l-0.55-0.04c-0.38-0.03-0.55-0.09-0.6-0.21
		c-0.09-0.18-0.1-0.58-0.1-1.2V4c0-0.62,0.01-1.02,0.1-1.2c0.06-0.12,0.22-0.18,0.6-0.21l0.55-0.05v-0.6
		c-0.61,0.01-1.42,0.04-2.29,0.04C32.1,2,31.28,1.97,30.68,1.96 M42.74,2.58c1,0,1.93,0.27,2.65,1.02l0.08,1.28h0.58
		c0.07-0.64,0.19-1.74,0.34-2.27L46.3,2.45c-1.42-0.59-2.41-0.7-3.62-0.7c-3.14,0-5.9,1.71-5.9,5.12c0,3.54,2.48,5.44,5.84,5.44
		c1.18,0,2.37-0.19,3.4-0.82l0.33-0.73l-0.18-0.18c-0.76,0.44-1.95,0.76-2.82,0.76c-2.79,0-4.35-1.96-4.35-4.67
		C38.99,4.33,40.29,2.58,42.74,2.58 M52.43,2c-1.49,0-3.02-0.03-4.57-0.04l-0.09,0.07c0.12,0.71,0.16,1.39,0.19,2.36h0.6l0.07-1.02
		c0.01-0.16,0.07-0.28,0.13-0.35c0.1-0.13,0.51-0.13,0.91-0.13h1.72v7.17c0,0.62-0.01,1.02-0.1,1.2c-0.06,0.12-0.22,0.18-0.6,0.21
		l-0.54,0.04v0.6c0.6-0.01,1.41-0.04,2.3-0.04c0.87,0,1.68,0.03,2.28,0.04v-0.6l-0.54-0.04c-0.38-0.03-0.55-0.09-0.6-0.21
		c-0.09-0.18-0.1-0.58-0.1-1.2V2.89h1.72c0.4,0,0.81,0,0.91,0.13c0.06,0.07,0.12,0.19,0.13,0.35l0.07,1.02h0.6
		c0.03-0.96,0.07-1.64,0.19-2.36l-0.09-0.07C55.46,1.97,53.93,2,52.43,2 M69.11,6.94c0,3.5-2.23,5.37-5.61,5.37
		c-3.31,0-5.31-1.81-5.31-5.19c0-3.5,2.23-5.37,5.61-5.37C67.1,1.75,69.11,3.56,69.11,6.94 M66.9,7.2c0-2.45-1.02-4.63-3.1-4.63
		c-2.74,0-3.39,2.06-3.39,4.28c0,2.45,1.02,4.61,3.1,4.61C66.25,11.47,66.9,9.43,66.9,7.2 M79.33,10.83l-2.67-4.06
		c1.22-0.44,2.2-1.32,2.2-2.62c0-1.76-1.39-2.22-2.89-2.19c-1,0.01-1.99,0.04-3,0.04c-0.75,0-1.5-0.03-2.48-0.04v0.56l0.55,0.04
		c0.38,0.03,0.53,0.1,0.6,0.25c0.09,0.18,0.1,0.58,0.1,1.2v6.04c0,0.62-0.01,1.02-0.1,1.2c-0.06,0.12-0.22,0.18-0.6,0.21l-0.55,0.04
		v0.6c0.61-0.01,1.42-0.04,2.3-0.04c0.87,0,1.68,0.03,2.29,0.04v-0.6l-0.55-0.04c-0.38-0.03-0.55-0.09-0.61-0.21
		c-0.09-0.18-0.1-0.58-0.1-1.2V2.84c0.24-0.12,0.63-0.13,0.94-0.13c1.15,0,1.99,0.65,1.99,1.87c0,1.39-1,2.24-2.36,2.12l-0.1,0.27
		l3.31,5.15c0.44-0.01,0.89-0.04,1.33-0.04c0.47,0,0.96,0.03,1.43,0.04v-0.6c-0.28-0.06-0.47-0.1-0.6-0.21
		C79.6,11.15,79.44,10.99,79.33,10.83 M81.88,1.96v0.6l0.55,0.05c0.38,0.03,0.54,0.09,0.6,0.21c0.09,0.18,0.1,0.58,0.1,1.2v6.04
		c0,0.62-0.01,1.02-0.1,1.2c-0.06,0.12-0.22,0.18-0.6,0.21l-0.55,0.04v0.6c0.6-0.01,1.42-0.04,2.3-0.04c0.87,0,1.68,0.03,2.29,0.04
		v-0.6l-0.55-0.04c-0.38-0.03-0.55-0.09-0.6-0.21c-0.09-0.18-0.1-0.58-0.1-1.2V4c0-0.62,0.01-1.02,0.1-1.2
		c0.06-0.12,0.22-0.18,0.6-0.21l0.55-0.05v-0.6c-0.61,0.01-1.42,0.04-2.29,0.04C83.3,2,82.49,1.97,81.88,1.96 M98.94,11.54v0.56
		c-0.99-0.01-1.71-0.04-2.29-0.04s-1.31,0.03-2.29,0.04v-0.56l0.78-0.04c0.24-0.01,0.4-0.34,0.21-0.81L94.69,9h-3.71l-0.62,1.66
		c-0.21,0.56,0.09,0.83,0.35,0.84l0.74,0.04v0.56c-0.71-0.01-1.24-0.04-1.67-0.04s-0.96,0.03-1.67,0.04v-0.56l0.44-0.04
		c0.38-0.04,0.65-0.46,0.83-0.89l2.67-6.49l0.38-1.02l0.24-0.61l0.22-0.61h1.05l3.82,8.96c0.16,0.37,0.36,0.59,0.81,0.65
		L98.94,11.54z M94.35,8.17L92.82,4.4l-1.47,3.77H94.35z"/>
	<path class="st0" d="M7.75,23.97v-5.64c0-0.65-0.01-1.06-0.11-1.25c-0.07-0.15-0.23-0.23-0.63-0.26l-0.57-0.05V16.2
		c0.63,0.01,1.47,0.04,2.4,0.04c0.91,0,1.75-0.03,2.38-0.04v0.58l-0.57,0.05c-0.4,0.03-0.55,0.11-0.63,0.26
		c-0.09,0.19-0.11,0.6-0.11,1.25v3.82c0,2.17,0.14,3.54,2.73,3.54c2.56,0,2.86-1.42,2.86-3.65v-3.71c0-0.65-0.02-1.06-0.11-1.25
		c-0.08-0.15-0.23-0.23-0.63-0.26l-0.57-0.05V16.2c0.59,0.01,1.18,0.04,1.76,0.04c0.59,0,1.17-0.03,1.75-0.04v0.58l-0.57,0.05
		c-0.4,0.03-0.55,0.11-0.63,0.26c-0.09,0.19-0.11,0.6-0.11,1.25v4.5c0,2.82-1.49,4.13-4.27,4.13C9.24,26.96,7.75,25.72,7.75,23.97"
		/>
	<path class="st0" d="M20.55,24.61v-6.28c0-0.65-0.02-1.06-0.11-1.25c-0.08-0.15-0.23-0.23-0.63-0.26l-0.57-0.05V16.2
		c0.61,0.01,1.23,0.04,1.84,0.04c0.43,0,0.86-0.03,1.29-0.04c0.52,0.69,1.03,1.41,1.58,2.06l4.79,5.61v-5.53
		c0-0.65-0.01-1.06-0.11-1.25c-0.08-0.15-0.23-0.23-0.63-0.26l-0.57-0.05V16.2c0.58,0.01,1.18,0.04,1.77,0.04
		c0.58,0,1.17-0.03,1.75-0.04v0.58l-0.57,0.05c-0.4,0.03-0.55,0.11-0.63,0.26c-0.09,0.18-0.11,0.6-0.11,1.25v7
		c0,0.54,0.03,1.1,0.05,1.56l-1.37-0.14c-0.63-0.71-1.28-1.43-1.88-2.15l-4.98-6.01l-0.03,6.02c0,0.65,0.02,1.06,0.11,1.25
		c0.07,0.15,0.23,0.23,0.63,0.26l0.57,0.05v0.58c-0.58-0.01-1.17-0.04-1.75-0.04s-1.18,0.03-1.77,0.04v-0.58l0.57-0.05
		c0.4-0.03,0.55-0.11,0.63-0.26C20.53,25.68,20.55,25.26,20.55,24.61"/>
	<path class="st0" d="M36.07,18.33v6.29c0,0.65,0.01,1.06,0.11,1.25c0.06,0.12,0.23,0.18,0.63,0.22l0.57,0.05v0.62
		c-0.63-0.01-1.47-0.04-2.38-0.04c-0.92,0-1.77,0.03-2.4,0.04v-0.62l0.57-0.05c0.4-0.03,0.57-0.09,0.63-0.22
		c0.09-0.19,0.11-0.6,0.11-1.25v-6.29c0-0.65-0.02-1.06-0.11-1.25c-0.06-0.12-0.23-0.19-0.63-0.22l-0.57-0.05V16.2
		c0.63,0.01,1.48,0.04,2.4,0.04c0.91,0,1.75-0.03,2.38-0.04v0.62l-0.57,0.05c-0.4,0.03-0.57,0.09-0.63,0.22
		C36.08,17.27,36.07,17.68,36.07,18.33"/>
	<path class="st0" d="M42.85,18.22l2.41,5.97l2.18-5.44c0.26-0.65,0.47-1.23,0.47-1.51s-0.26-0.4-0.57-0.42l-0.71-0.05V16.2
		c0.75,0.01,1.34,0.04,1.78,0.04s1.01-0.03,1.76-0.04v0.58l-0.47,0.04c-0.34,0.03-0.54,0.28-0.72,0.72l-3.19,7.68
		c-0.22,0.51-0.38,1.02-0.58,1.53h-1.17l-3.67-8.82c-0.18-0.43-0.43-1.06-0.95-1.11l-0.63-0.05V16.2c1.01,0.01,1.79,0.04,2.39,0.04
		s1.37-0.03,2.52-0.04v0.58l-0.77,0.05c-0.23,0.02-0.4,0.15-0.4,0.29C42.53,17.42,42.71,17.89,42.85,18.22"/>
	<path class="st0" d="M55,17.14v3.7c0.35,0.03,0.69,0.03,1.03,0.03h1.01c0.54,0,0.85-0.03,0.88-0.32l0.09-0.88h0.62
		c-0.02,0.56-0.05,1.1-0.05,1.65c0,0.56,0.03,1.11,0.05,1.67h-0.62l-0.09-0.77c-0.05-0.43-0.34-0.57-0.88-0.57h-1.01
		c-0.34,0-0.68,0.02-1.03,0.05v4.12c0.64,0.03,1.3,0.05,1.96,0.05c0.71,0,1.84-0.14,1.88-0.26l0.36-1.45h0.6l-0.17,2.44
		c-1.08,0.2-2.86,0.2-3.86,0.17c-0.63-0.02-1.26-0.05-1.89-0.05c-0.64,0-1.28,0.03-1.84,0.05v-0.35l0.49-0.28
		c0.25-0.14,0.31-0.4,0.31-0.88v-6.91c0-0.65-0.02-1.06-0.11-1.25c-0.08-0.15-0.23-0.23-0.63-0.26l-0.57-0.05V16.2
		c1.01,0.02,1.8,0.05,2.4,0.05c1.44,0,2.49-0.03,3.36-0.05c0.86-0.01,1.53-0.01,2.24,0.05l-0.12,2.3h-0.55l-0.12-1.16
		c-0.03-0.23-1.06-0.29-1.77-0.29C56.3,17.09,55.64,17.11,55,17.14"/>
	<path class="st0" d="M62.92,24.61v-6.28c0-0.65-0.02-1.06-0.11-1.25c-0.08-0.15-0.23-0.23-0.63-0.26l-0.57-0.05V16.2
		c1.01,0.02,1.8,0.05,2.58,0.05c1.04,0,2.07-0.03,3.12-0.05c1.57-0.03,3.01,0.45,3.01,2.28c0,1.36-1.01,2.27-2.29,2.73l2.78,4.22
		c0.11,0.17,0.28,0.34,0.44,0.48c0.14,0.11,0.34,0.15,0.63,0.22v0.62c-0.49-0.01-1-0.04-1.49-0.04c-0.46,0-0.92,0.03-1.38,0.04
		l-3.44-5.36l0.11-0.28c1.41,0.12,2.46-0.76,2.46-2.2c0-1.26-0.87-1.94-2.07-1.94c-0.32,0-0.74,0.02-0.98,0.14v7.51
		c0,0.65,0.02,1.06,0.11,1.25c0.06,0.12,0.23,0.19,0.63,0.22l0.57,0.05v0.62c-0.63-0.01-1.47-0.04-2.38-0.04
		c-0.92,0-1.77,0.03-2.39,0.04v-0.62l0.57-0.05c0.4-0.03,0.57-0.09,0.63-0.22C62.91,25.68,62.92,25.26,62.92,24.61"/>
	<path class="st0" d="M73.93,23.59h0.62l0.11,1.36c0.42,0.71,1.61,1.19,2.41,1.19c1.3,0,2.41-0.69,2.41-2.04
		c0-0.66-0.4-1.17-1.27-1.43l-2.15-0.65c-1.29-0.39-2.24-1.29-2.24-2.62c0-2.47,1.83-3.41,4.05-3.41c0.95,0,1.96,0.17,2.85,0.52
		c-0.08,0.68-0.14,1.57-0.14,2.38h-0.63l-0.09-1.26c-0.46-0.53-1.32-0.85-2.04-0.85c-1.43,0-2.1,0.83-2.1,1.87
		c0,0.69,0.49,1.2,1.63,1.5l1.75,0.46c1.41,0.37,2.32,1.26,2.32,2.65c0,2.62-2.17,3.72-4.5,3.72c-1.1,0-2.22-0.23-3.21-0.71
		C73.88,25.34,73.93,24.47,73.93,23.59"/>
	<path class="st0" d="M86.98,18.33v6.29c0,0.65,0.01,1.06,0.11,1.25c0.06,0.12,0.23,0.18,0.63,0.22l0.57,0.05v0.62
		c-0.63-0.01-1.47-0.04-2.38-0.04c-0.92,0-1.77,0.03-2.4,0.04v-0.62l0.57-0.05c0.4-0.03,0.57-0.09,0.63-0.22
		c0.09-0.19,0.11-0.6,0.11-1.25v-6.29c0-0.65-0.01-1.06-0.11-1.25c-0.06-0.12-0.23-0.19-0.63-0.22l-0.57-0.05V16.2
		c0.63,0.01,1.47,0.04,2.4,0.04c0.9,0,1.75-0.03,2.38-0.04v0.62l-0.57,0.05c-0.4,0.03-0.57,0.09-0.63,0.22
		C87,17.27,86.98,17.68,86.98,18.33"/>
	<path class="st0" d="M95.8,17.15v7.46c0,0.65,0.01,1.06,0.11,1.25c0.06,0.12,0.23,0.18,0.63,0.22l0.57,0.05v0.62
		c-0.63-0.01-1.47-0.04-2.38-0.04c-0.92,0-1.76,0.03-2.39,0.04v-0.62l0.57-0.05c0.4-0.03,0.57-0.09,0.63-0.22
		c0.09-0.19,0.11-0.6,0.11-1.25v-7.46h-1.79c-0.41,0-0.84,0-0.95,0.14c-0.06,0.08-0.12,0.2-0.14,0.37l-0.08,1.06h-0.62
		c-0.03-1-0.08-1.71-0.2-2.45c1.71-0.06,3.3-0.03,4.85-0.03c1.57,0,3.16-0.03,4.78-0.05c-0.03,0.82-0.08,1.53-0.11,2.53h-0.62
		l-0.08-1.06c-0.02-0.17-0.08-0.29-0.14-0.37c-0.11-0.14-0.54-0.14-0.95-0.14H95.8z"/>
	<path class="st0" d="M106.62,21.2l2.89-4.96h1.18v0.29l-2.7,4.01c-0.32,0.48-0.58,1.02-0.81,1.54v2.52c0,0.65,0.02,1.07,0.11,1.25
		c0.06,0.12,0.23,0.19,0.63,0.22l0.57,0.05v0.62c-0.63-0.01-1.47-0.04-2.38-0.04c-0.92,0-1.76,0.03-2.39,0.04v-0.62l0.57-0.05
		c0.4-0.03,0.57-0.09,0.63-0.22c0.09-0.18,0.11-0.6,0.11-1.25v-2.15c-0.29-0.66-0.47-0.99-0.67-1.31l-1.55-2.52
		c-0.21-0.34-0.54-0.74-0.8-1.03c-0.35-0.39-0.68-0.51-1.2-0.51v-0.57l2.44-0.54c0.85,0.46,1.32,1.26,1.75,2.08L106.62,21.2z"/>
	<path class="st0" d="M96.48,30.37c-3.52,0-5.83,1.94-5.83,5.58c0,3.52,2.09,5.4,5.53,5.4c3.52,0,5.84-1.94,5.84-5.58
		C102,32.25,99.92,30.37,96.48,30.37 M96.17,40.49c-2.16,0-3.22-2.25-3.22-4.8c0-2.31,0.68-4.46,3.53-4.46
		c2.17,0,3.23,2.27,3.23,4.81C99.7,38.36,99.03,40.49,96.17,40.49"/>
	<path class="st0" d="M104.85,39v-6.28c0-0.65-0.02-1.07-0.11-1.25c-0.08-0.15-0.23-0.23-0.63-0.26l-0.57-0.05v-0.58
		c0.61,0.02,1.23,0.05,1.84,0.05c0.43,0,0.86-0.03,1.29-0.05c0.52,0.69,1.03,1.41,1.58,2.06l4.79,5.61v-5.53
		c0-0.65-0.01-1.07-0.11-1.25c-0.08-0.15-0.23-0.23-0.63-0.26l-0.57-0.05v-0.58c0.58,0.02,1.18,0.05,1.76,0.05s1.17-0.03,1.75-0.05
		v0.58l-0.57,0.05c-0.4,0.03-0.55,0.11-0.63,0.26c-0.09,0.18-0.11,0.6-0.11,1.25v7c0,0.54,0.03,1.1,0.04,1.56l-1.36-0.14
		c-0.63-0.71-1.28-1.43-1.88-2.15l-4.97-6.01L105.73,39c0,0.65,0.01,1.06,0.11,1.25c0.07,0.15,0.23,0.23,0.63,0.26l0.57,0.04v0.58
		c-0.58-0.01-1.17-0.04-1.75-0.04s-1.18,0.03-1.76,0.04v-0.58l0.57-0.04c0.4-0.03,0.55-0.11,0.63-0.26
		C104.83,40.07,104.85,39.65,104.85,39"/>
	<path class="st0" d="M6.54,37.85l2.29-5.43l0.78-1.91h0.69c0.24,0.71,0.49,1.39,0.75,2.06l2.09,5.24l1.5-5.78
		c0.05-0.18,0.06-0.32,0.06-0.51c0-0.18-0.28-0.29-0.54-0.31l-0.7-0.05v-0.58c0.69,0.02,1.23,0.04,1.66,0.04
		c0.41,0,0.95-0.03,1.66-0.04v0.58l-0.51,0.05c-0.28,0.03-0.48,0.42-0.66,1.06l-1.87,6.66c-0.2,0.72-0.34,1.47-0.51,2.2h-1.12
		c-0.2-0.54-0.37-1.08-0.59-1.62l-2.29-5.78L6.85,39.2c-0.28,0.63-0.48,1.28-0.72,1.93H5.05l-2.13-9.28
		c-0.11-0.45-0.29-0.62-0.57-0.65l-0.49-0.05v-0.58c1.01,0.02,1.8,0.04,2.4,0.04s1.36-0.03,2.06-0.04v0.58L5.68,31.2
		c-0.2,0.01-0.46,0.18-0.46,0.35c0,0.11,0.01,0.26,0.05,0.43l1.24,5.86h0.03V37.85z"/>
	<path class="st0" d="M21.75,31.53v3.7c0.35,0.03,0.69,0.03,1.03,0.03h1.01c0.54,0,0.85-0.03,0.88-0.32l0.09-0.88h0.62
		c-0.02,0.55-0.05,1.09-0.05,1.65c0,0.55,0.03,1.11,0.05,1.67h-0.62l-0.09-0.77c-0.05-0.43-0.34-0.57-0.88-0.57h-1.01
		c-0.34,0-0.68,0.01-1.03,0.04v4.12c0.65,0.03,1.31,0.05,1.97,0.05c0.7,0,1.84-0.14,1.87-0.26l0.36-1.45h0.6l-0.17,2.44
		c-1.08,0.2-2.86,0.2-3.86,0.17c-0.63-0.01-1.26-0.05-1.89-0.05c-0.65,0-1.28,0.03-1.84,0.05V40.8l0.49-0.28
		c0.24-0.14,0.31-0.4,0.31-0.88v-6.91c0-0.65-0.02-1.06-0.11-1.25c-0.08-0.15-0.23-0.23-0.63-0.26l-0.57-0.05v-0.58
		c1.01,0.02,1.79,0.05,2.4,0.05c1.44,0,2.49-0.03,3.36-0.05c0.86-0.01,1.53-0.01,2.24,0.05l-0.12,2.3h-0.55l-0.12-1.16
		c-0.03-0.23-1.06-0.29-1.76-0.29C23.06,31.48,22.4,31.5,21.75,31.53"/>
	<path class="st0" d="M31.54,32.72v7.48c0.65,0.03,1.31,0.05,1.97,0.05c0.7,0,1.84-0.14,1.88-0.26l0.35-1.57h0.6l-0.17,2.56
		c-1.08,0.2-2.86,0.2-3.86,0.17c-0.63-0.01-1.26-0.05-1.89-0.05c-0.65,0-1.28,0.03-1.84,0.05V40.8l0.49-0.28
		c0.24-0.14,0.3-0.4,0.3-0.88v-6.91c0-0.65-0.01-1.06-0.11-1.25c-0.06-0.12-0.23-0.18-0.63-0.22l-0.57-0.05v-0.62
		c0.63,0.02,1.47,0.04,2.4,0.04c0.9,0,1.75-0.03,2.38-0.04v0.62l-0.57,0.05c-0.4,0.03-0.57,0.09-0.63,0.22
		C31.55,31.65,31.54,32.07,31.54,32.72"/>
	<path class="st0" d="M41.32,32.72v7.48c0.65,0.03,1.31,0.05,1.97,0.05c0.7,0,1.84-0.14,1.88-0.26l0.35-1.57h0.6l-0.17,2.56
		c-1.08,0.2-2.86,0.2-3.86,0.17c-0.63-0.01-1.26-0.05-1.89-0.05c-0.65,0-1.27,0.03-1.84,0.05V40.8l0.49-0.28
		c0.25-0.14,0.31-0.4,0.31-0.88v-6.91c0-0.65-0.01-1.06-0.11-1.25c-0.06-0.12-0.23-0.18-0.63-0.22l-0.57-0.05v-0.62
		c0.63,0.02,1.47,0.04,2.4,0.04c0.91,0,1.75-0.03,2.38-0.04v0.62l-0.57,0.05c-0.4,0.03-0.57,0.09-0.63,0.22
		C41.33,31.65,41.32,32.07,41.32,32.72"/>
	<path class="st0" d="M50.9,32.72v6.29c0,0.65,0.01,1.06,0.11,1.25c0.06,0.12,0.23,0.18,0.63,0.22l0.57,0.05v0.62
		c-0.63-0.02-1.47-0.05-2.38-0.05c-0.92,0-1.76,0.03-2.4,0.05v-0.62L48,40.48c0.4-0.03,0.57-0.09,0.63-0.22
		c0.09-0.19,0.11-0.6,0.11-1.25v-6.29c0-0.65-0.02-1.06-0.11-1.25c-0.06-0.12-0.23-0.18-0.63-0.22l-0.57-0.05v-0.62
		c0.63,0.01,1.47,0.04,2.4,0.04c0.91,0,1.75-0.03,2.38-0.04v0.62l-0.57,0.05c-0.4,0.03-0.57,0.09-0.63,0.22
		C50.91,31.66,50.9,32.07,50.9,32.72"/>
	<path class="st0" d="M55.05,39v-6.28c0-0.65-0.02-1.07-0.11-1.25c-0.08-0.15-0.23-0.23-0.63-0.26l-0.57-0.05v-0.58
		c0.62,0.02,1.23,0.05,1.84,0.05c0.43,0,0.86-0.03,1.29-0.05c0.52,0.69,1.03,1.41,1.58,2.06l4.79,5.61v-5.53
		c0-0.65-0.02-1.07-0.11-1.25c-0.07-0.15-0.23-0.23-0.63-0.26l-0.57-0.05v-0.58c0.58,0.02,1.18,0.05,1.77,0.05
		c0.58,0,1.17-0.03,1.75-0.05v0.58l-0.57,0.05c-0.4,0.03-0.55,0.11-0.63,0.26c-0.09,0.18-0.11,0.6-0.11,1.25v7
		c0,0.54,0.03,1.1,0.04,1.56l-1.36-0.14c-0.63-0.71-1.27-1.43-1.88-2.15l-4.97-6.01L55.94,39c0,0.65,0.01,1.06,0.11,1.25
		c0.07,0.15,0.23,0.23,0.63,0.26l0.57,0.04v0.58c-0.59-0.01-1.17-0.04-1.75-0.04s-1.18,0.03-1.76,0.04v-0.58l0.57-0.04
		c0.4-0.03,0.55-0.11,0.63-0.26C55.03,40.07,55.05,39.65,55.05,39"/>
	<path class="st0" d="M77.58,37.91v2.52c-1.41,0.56-2.9,0.92-4.49,0.92c-3.5,0-6.08-1.97-6.08-5.66c0-3.55,2.87-5.32,6.14-5.32
		c1.39,0,2.76,0.12,4.23,0.73c-0.06,0.72-0.18,1.87-0.26,2.53h-0.61l-0.07-1.33c-0.6-0.71-1.96-1.06-3.22-1.06
		c-2.55,0-3.9,1.82-3.9,4.26c0,2.67,1.36,5,4.13,5c0.68,0,1.31-0.14,1.95-0.39v-2.04c0-0.48-0.38-0.56-0.88-0.57l-0.82-0.04v-0.63
		c0.75,0.02,1.5,0.05,2.26,0.05c0.75,0,1.49-0.03,2.24-0.05v0.53C77.68,37.46,77.58,37.53,77.58,37.91"/>
	<path class="st0" d="M85.58,31.54V39c0,0.65,0.02,1.06,0.11,1.25c0.06,0.12,0.23,0.19,0.63,0.22l0.57,0.05v0.62
		c-0.63-0.02-1.47-0.04-2.38-0.04c-0.92,0-1.76,0.03-2.39,0.04v-0.62l0.57-0.05c0.4-0.03,0.57-0.09,0.63-0.22
		c0.1-0.18,0.11-0.6,0.11-1.25v-7.46h-1.79c-0.41,0-0.84,0-0.95,0.14c-0.06,0.08-0.12,0.2-0.14,0.37l-0.08,1.06h-0.62
		c-0.03-1-0.08-1.71-0.2-2.45c1.71-0.06,3.3-0.03,4.85-0.03c1.57,0,3.16-0.03,4.78-0.05c-0.03,0.82-0.08,1.53-0.11,2.53h-0.62
		l-0.07-1.06c-0.02-0.17-0.08-0.29-0.14-0.37c-0.11-0.14-0.53-0.14-0.95-0.14H85.58z"/>
</g>
</svg>
