<?xml version="1.0" encoding="utf-8"?>
<!-- Generator: Adobe Illustrator 23.0.1, SVG Export Plug-In . SVG Version: 6.00 Build 0)  -->
<svg version="1.1" id="Layer_1" xmlns="http://www.w3.org/2000/svg" xmlns:xlink="http://www.w3.org/1999/xlink" x="0px" y="0px"
	 viewBox="0 0 170.08 62.36" style="enable-background:new 0 0 170.08 62.36;" xml:space="preserve">
<style type="text/css">
	.st0{fill:#FFFFFF;}
</style>
<g>
	<path class="st0" d="M19.77,20.83c-0.7-0.6-1.6-1.81-1.72-2.64c-0.09-0.61,0.32-0.99,0.32-0.99s-0.2-0.6-0.11-0.88
		c0.43-1.3,6.5-1.36,7.75-1.32c2.84,0.13,3.44,0,4.84-0.55c-0.04-0.05-0.47,2.12-3.12,2.08c-0.01,0.22-0.01,0.3,0,0.33
		c1.05,0.02,2.29-0.22,3.01-1.1c-0.02,0.74,0.25,1.64-1.18,1.98c-1.38,0.32-2.24,0.28-2.69,4.28c-0.09,1.13,0.01,2.12-1.83,2.52
		c-1.76,0.39-6.42,0.51-7.25,1.18l-0.17-0.3c0.92-0.65,1.51-1.65,1.4-2.74c0.19-0.12,0.47-0.22,0.65-0.22
		c-0.02,0.38-0.47,1.21,1.72,1.21c0.04,0,2.06,0.24,1.18-2.42c-0.27-0.83-0.51-1.78-1.51-1.76c0-0.02-1.27,0.06-0.65,1.35
		c0.89,0.19,1.91,0.41,2.05,1.07c0.11,0.67-0.38,1.04-0.75,0.88c-0.37-0.16-1.41-0.76-2.15-0.76c-1.37,0-3.81,1.58-5.38-1.42
		c0.45,0.5,0.88,0.82,2.37,0.87C18,21.53,18.3,20.87,19.77,20.83 M23.42,16.66c-0.98-0.69-1.48-0.95-1.83-0.88
		c-0.32,0.07-0.98,1.15-0.97,1.1C21.44,16.71,22.67,16.61,23.42,16.66 M30.95,21.82v10.1H16.11c0.02-0.04,0.54-1.37,0.97-1.86
		c-0.37-0.31-0.68-0.59-0.65-0.55c-0.03-0.04,1.98-2.72,3.44-2.74c-0.28-0.24-0.55-0.54-0.54-0.55c0.52-0.59,1.45-0.63,4.52-0.88
		c3.06-0.28,3.5-1.1,3.55-3.63C28.16,22.64,29.45,23.77,30.95,21.82 M60.72,18.44c0-0.46,0.36-0.83,0.81-0.83
		c0.45,0,0.81,0.37,0.81,0.83c0,0.46-0.36,0.83-0.81,0.83C61.08,19.26,60.72,18.9,60.72,18.44 M66.97,19.94
		c0.19-0.32,0.7-0.44,1.2-0.27c0.54,0.19,0.87,0.65,0.77,1.04c2.66-0.05,3.3-0.68,3.32-0.66c-0.78,1.45-3.04,2.5-3.9,2.58
		c1.21,0.42,3.58,1.83,3.57,4.55c0,3.97-3.78,4.53-5.9,3.95c0.68,0.18,1.03,0.64,1.05,0.76h-9.56v-8.02
		c0.28-0.34,0.86-0.77,1.55-1.07c0.43-0.19,0.38-0.68,0.38-0.68c-1.16-0.21-1.93-1.21-1.93-1.21v-4.61c0,0,1.15-1.65,3.87-1.65
		c2.17,0.02,3.33,1.87,3.33,1.87s0.91-0.78,2.69-0.77c4.02,0,4.95,3.95,4.95,3.95c-1.18-1.02-2.62-1.34-3.33-1.43
		c-0.07,0.36-0.44,0.63-0.88,0.63c-0.4,0-0.73-0.22-0.84-0.52l-0.33,0.22c0.05,0.13,0.07,0.27,0.06,0.42
		c-0.02,0.28-0.17,0.52-0.38,0.68L66.97,19.94z M59.72,18.44c0,1.02,0.81,1.85,1.81,1.85c1,0,1.81-0.83,1.81-1.85
		c0-1.02-0.81-1.85-1.81-1.85C60.53,16.59,59.72,17.42,59.72,18.44 M64.19,21.25c-0.31,0.34-0.8,0.63-1.4,0.77
		c0.62-0.04,1.8-0.05,2.37,0C64.73,21.83,64.19,21.25,64.19,21.25 M64.08,24.65c-2.31-0.1-3.21,1.31-2.43,1.84
		C63.11,27.51,64.07,24.62,64.08,24.65 M65.91,25.09c-0.03,0-0.12,1.3-1.29,2.19c0.65-0.02,1.71,0.07,1.94-0.77
		C66.78,25.6,66.03,25.13,65.91,25.09 M29.12,22.26c-0.7,0-1.57-0.92-1.5-1.49c0.41-3.12,1.98-2.11,3.14-3.02
		C31.09,18.18,31.58,22.26,29.12,22.26 M38.16,23.68h12.16v8.23H38.16V23.68z M47.21,30.37l-0.51-0.91l0.51-0.91h-1.03l-0.51-0.91
		l-0.51,0.91h-1.03l0.51,0.91l-0.51,0.91h1.03l0.51,0.91l0.51-0.91H47.21z M44.36,27.05l-0.51-0.91l0.51-0.91h-1.03l-0.52-0.91
		l-0.52,0.91h-1.03l0.52,0.91l-0.52,0.91h1.03l0.52,0.91l0.52-0.91H44.36z M49.09,27.05l-0.52-0.91l0.52-0.91h-1.03l-0.52-0.91
		l-0.52,0.91H46l0.51,0.91L46,27.05h1.03l0.52,0.91l0.52-0.91H49.09z M42.47,30.37l-0.51-0.91l0.51-0.91h-1.03l-0.52-0.91
		l-0.52,0.91h-1.03l0.52,0.91l-0.52,0.91h1.03l0.52,0.91l0.52-0.91H42.47z M44.23,41.57c-0.49,0-12.31-5.23-12.31-11.86V15.23h12.37
		h12.26v14.47C56.55,36.35,44.72,41.57,44.23,41.57 M44.24,22.01c-1.2,0-1.76,0.88-2.96,0.88c-1.2,0-1.76-0.91-2.96-0.88
		c-1.12,0.02-1.62,0.86-2.74,0.88c-1.11,0.02-1.92-0.81-2.74-0.77v7.59c0.04,1.59,1.25,3.87,2.74,3.87
		c1.12-0.02,1.62-0.85,2.75-0.88c1.2-0.02,1.76,0.88,2.96,0.88c1.21,0,1.76-0.88,2.96-0.88c1.2,0,1.76,0.88,2.96,0.88
		c1.2,0,1.76-0.9,2.96-0.88c1.12,0.03,1.62,0.86,2.74,0.88c1.49,0,2.7-2.28,2.74-3.87v-7.59c-0.82-0.04-1.63,0.79-2.74,0.77
		c-1.12-0.02-1.62-0.86-2.74-0.88c-1.21-0.03-1.76,0.88-2.96,0.88C45.99,22.89,45.44,22.01,44.24,22.01 M45.47,17.65v2.41H53v-2.41
		l-1.08,1.21h-1.51l-1.18-1.21l-1.18,1.21h-1.51L45.47,17.65z M35.47,17.65v2.41H43v-2.41l-1.08,1.21h-1.51l-1.18-1.21l-1.18,1.21
		h-1.51L35.47,17.65z M40.47,34.88v2.41H48v-2.41l-1.08,1.21h-1.51l-1.18-1.21l-1.18,1.21h-1.51L40.47,34.88z"/>
	<path class="st0" d="M140.47,19.18l-1.13-2.77l-1.09,2.77H140.47z M143.86,21.66v0.41c-0.73-0.01-1.26-0.03-1.69-0.03
		c-0.42,0-0.97,0.02-1.69,0.03v-0.41l0.58-0.03c0.18-0.01,0.29-0.25,0.15-0.6l-0.49-1.24h-2.74l-0.46,1.22
		c-0.15,0.41,0.07,0.61,0.26,0.62l0.54,0.03v0.41c-0.52-0.01-0.92-0.03-1.23-0.03c-0.32,0-0.71,0.02-1.23,0.03v-0.41l0.33-0.03
		c0.28-0.03,0.48-0.34,0.61-0.65l1.97-4.77l0.28-0.75l0.17-0.45l0.16-0.45h0.77l2.82,6.59c0.12,0.27,0.26,0.43,0.6,0.48
		L143.86,21.66z M131.26,14.62v0.44l0.4,0.03c0.28,0.02,0.4,0.07,0.45,0.15c0.07,0.13,0.08,0.42,0.08,0.88v4.44
		c0,0.46-0.01,0.75-0.08,0.88c-0.04,0.09-0.16,0.13-0.45,0.15l-0.4,0.03v0.44c0.45-0.01,1.05-0.03,1.7-0.03
		c0.64,0,1.24,0.02,1.69,0.03v-0.44l-0.4-0.03c-0.28-0.02-0.4-0.07-0.45-0.15c-0.07-0.13-0.08-0.42-0.08-0.88v-4.44
		c0-0.46,0.01-0.75,0.08-0.88c0.04-0.09,0.16-0.13,0.45-0.15l0.4-0.03v-0.44c-0.45,0.01-1.05,0.03-1.69,0.03
		C132.31,14.65,131.71,14.63,131.26,14.62 M129.38,21.14l-1.97-2.98c0.9-0.33,1.62-0.97,1.62-1.93c0-1.3-1.02-1.63-2.13-1.61
		c-0.74,0.01-1.47,0.03-2.21,0.03c-0.56,0-1.11-0.02-1.83-0.03v0.41l0.4,0.03c0.28,0.02,0.39,0.08,0.45,0.19
		c0.07,0.13,0.08,0.42,0.08,0.88v4.44c0,0.46-0.01,0.75-0.08,0.88c-0.04,0.09-0.16,0.13-0.45,0.15l-0.4,0.03v0.44
		c0.45-0.01,1.05-0.03,1.7-0.03c0.64,0,1.24,0.02,1.69,0.03v-0.44l-0.4-0.03c-0.28-0.02-0.4-0.07-0.45-0.15
		c-0.07-0.13-0.08-0.42-0.08-0.88v-5.3c0.17-0.09,0.47-0.1,0.7-0.1c0.85,0,1.47,0.48,1.47,1.37c0,1.02-0.74,1.64-1.74,1.56
		l-0.08,0.2l2.44,3.78c0.33-0.01,0.65-0.03,0.98-0.03c0.35,0,0.71,0.02,1.06,0.03v-0.44c-0.21-0.04-0.35-0.08-0.45-0.15
		C129.58,21.38,129.46,21.26,129.38,21.14 M120.2,18.47c0-1.8-0.75-3.4-2.29-3.4c-2.03,0-2.51,1.51-2.51,3.15
		c0,1.8,0.75,3.39,2.29,3.39C119.72,21.61,120.2,20.11,120.2,18.47 M121.83,18.28c0,2.57-1.65,3.94-4.14,3.94
		c-2.44,0-3.92-1.33-3.92-3.81c0-2.57,1.65-3.94,4.14-3.94C120.35,14.46,121.83,15.79,121.83,18.28 M109.51,14.65
		c-1.1,0-2.23-0.02-3.38-0.03l-0.07,0.05c0.09,0.52,0.12,1.02,0.14,1.73h0.44l0.06-0.75c0.01-0.12,0.05-0.21,0.1-0.26
		c0.08-0.1,0.38-0.1,0.68-0.1h1.27v5.27c0,0.46-0.01,0.75-0.08,0.88c-0.04,0.09-0.16,0.13-0.45,0.15l-0.4,0.03v0.44
		c0.44-0.01,1.04-0.03,1.7-0.03c0.64,0,1.24,0.02,1.69,0.03v-0.44l-0.4-0.03c-0.28-0.02-0.4-0.07-0.45-0.15
		c-0.07-0.13-0.08-0.42-0.08-0.88v-5.27h1.27c0.29,0,0.6,0,0.67,0.1c0.04,0.06,0.09,0.14,0.1,0.26l0.06,0.75h0.44
		c0.02-0.71,0.06-1.21,0.14-1.73l-0.07-0.05C111.76,14.63,110.62,14.65,109.51,14.65 M102.36,15.07c0.74,0,1.42,0.2,1.96,0.75
		l0.06,0.94h0.43c0.05-0.47,0.14-1.28,0.25-1.67l-0.07-0.12c-1.05-0.44-1.78-0.51-2.67-0.51c-2.32,0-4.36,1.25-4.36,3.76
		c0,2.6,1.83,4,4.31,4c0.87,0,1.75-0.14,2.51-0.6l0.24-0.53l-0.13-0.13c-0.56,0.33-1.44,0.56-2.08,0.56c-2.06,0-3.21-1.44-3.21-3.43
		C99.59,16.36,100.55,15.07,102.36,15.07 M93.46,14.62v0.44l0.4,0.03c0.28,0.02,0.4,0.07,0.45,0.15c0.07,0.13,0.08,0.42,0.08,0.88
		v4.44c0,0.46-0.01,0.75-0.08,0.88c-0.04,0.09-0.16,0.13-0.45,0.15l-0.4,0.03v0.44c0.45-0.01,1.05-0.03,1.7-0.03
		c0.64,0,1.24,0.02,1.69,0.03v-0.44l-0.4-0.03c-0.28-0.02-0.4-0.07-0.45-0.15c-0.07-0.13-0.08-0.42-0.08-0.88v-4.44
		c0-0.46,0.01-0.75,0.08-0.88c0.04-0.09,0.16-0.13,0.45-0.15l0.4-0.03v-0.44c-0.45,0.01-1.05,0.03-1.69,0.03
		C94.5,14.65,93.9,14.63,93.46,14.62 M91.08,14.65c0.32,0,0.72-0.02,1.25-0.03v0.41l-0.35,0.03c-0.24,0.02-0.38,0.19-0.51,0.51
		l-2.27,5.42c-0.15,0.36-0.27,0.72-0.41,1.08h-0.83l-2.6-6.23c-0.13-0.3-0.31-0.75-0.68-0.78l-0.45-0.03v-0.41
		c0.72,0.01,1.28,0.03,1.7,0.03c0.42,0,0.97-0.02,1.79-0.03v0.41l-0.54,0.03c-0.16,0.01-0.28,0.11-0.28,0.21
		c0,0.22,0.13,0.55,0.23,0.78l1.71,4.21l1.55-3.84c0.18-0.46,0.34-0.87,0.34-1.07c0-0.2-0.19-0.28-0.4-0.29l-0.5-0.03v-0.41
		C90.35,14.63,90.76,14.65,91.08,14.65"/>
	<path class="st0" d="M76.53,29.8v-4.15c0-0.48-0.01-0.78-0.08-0.92c-0.06-0.11-0.17-0.17-0.46-0.19l-0.42-0.03v-0.42
		c0.47,0.01,1.09,0.03,1.77,0.03c0.67,0,1.29-0.02,1.76-0.03v0.42l-0.42,0.03c-0.29,0.02-0.41,0.08-0.46,0.19
		c-0.07,0.14-0.08,0.44-0.08,0.92v2.81c0,1.6,0.1,2.61,2.02,2.61c1.89,0,2.11-1.04,2.11-2.68v-2.73c0-0.48-0.01-0.78-0.08-0.92
		c-0.06-0.11-0.17-0.17-0.46-0.19l-0.42-0.03v-0.42c0.43,0.01,0.87,0.03,1.3,0.03c0.43,0,0.86-0.02,1.29-0.03v0.42l-0.42,0.03
		c-0.29,0.02-0.41,0.08-0.46,0.19c-0.07,0.14-0.08,0.44-0.08,0.92v3.31c0,2.07-1.1,3.04-3.15,3.04C77.63,32,76.53,31.08,76.53,29.8"
		/>
	<path class="st0" d="M85.98,30.27v-4.62c0-0.48-0.01-0.78-0.08-0.92c-0.06-0.11-0.17-0.17-0.47-0.19l-0.42-0.03v-0.42
		c0.45,0.01,0.9,0.03,1.36,0.03c0.32,0,0.64-0.02,0.95-0.03c0.38,0.5,0.76,1.04,1.17,1.51l3.54,4.12v-4.07
		c0-0.48-0.01-0.78-0.08-0.92c-0.06-0.11-0.17-0.17-0.46-0.19l-0.42-0.03v-0.42c0.43,0.01,0.87,0.03,1.3,0.03
		c0.43,0,0.86-0.02,1.29-0.03v0.42l-0.42,0.03c-0.29,0.02-0.41,0.08-0.46,0.19c-0.07,0.14-0.08,0.44-0.08,0.92v5.14
		c0,0.4,0.02,0.81,0.03,1.14l-1.01-0.1c-0.47-0.52-0.94-1.05-1.38-1.58l-3.67-4.42l-0.02,4.43c0,0.48,0.01,0.78,0.08,0.92
		c0.06,0.11,0.17,0.17,0.46,0.19l0.42,0.03v0.42c-0.43-0.01-0.86-0.03-1.29-0.03s-0.87,0.02-1.3,0.03v-0.42l0.42-0.03
		c0.3-0.02,0.41-0.08,0.47-0.19C85.97,31.05,85.98,30.75,85.98,30.27"/>
	<path class="st0" d="M97.44,25.65v4.62c0,0.47,0.01,0.78,0.08,0.92c0.05,0.09,0.17,0.14,0.47,0.16l0.42,0.03v0.46
		c-0.46-0.01-1.09-0.03-1.76-0.03c-0.68,0-1.3,0.02-1.77,0.03v-0.46l0.42-0.03c0.29-0.02,0.42-0.07,0.47-0.16
		c0.07-0.14,0.08-0.44,0.08-0.92v-4.62c0-0.47-0.01-0.78-0.08-0.92c-0.05-0.09-0.17-0.13-0.47-0.16l-0.42-0.03v-0.46
		c0.46,0.01,1.09,0.03,1.77,0.03c0.67,0,1.29-0.02,1.76-0.03v0.46l-0.42,0.03c-0.29,0.02-0.42,0.07-0.47,0.16
		C97.45,24.87,97.44,25.18,97.44,25.65"/>
	<path class="st0" d="M102.45,25.57l1.78,4.38l1.61-4c0.19-0.48,0.35-0.91,0.35-1.11s-0.19-0.29-0.42-0.31l-0.52-0.03v-0.42
		c0.56,0.01,0.99,0.03,1.32,0.03s0.75-0.02,1.3-0.03v0.42l-0.36,0.03c-0.25,0.02-0.4,0.2-0.53,0.53l-2.36,5.64
		c-0.16,0.37-0.28,0.75-0.43,1.12h-0.86l-2.71-6.48c-0.14-0.32-0.32-0.78-0.7-0.82l-0.46-0.03v-0.42c0.75,0.01,1.33,0.03,1.77,0.03
		c0.44,0,1.01-0.02,1.86-0.03v0.42l-0.57,0.03c-0.17,0.01-0.3,0.11-0.3,0.22C102.21,24.98,102.34,25.33,102.45,25.57"/>
	<path class="st0" d="M111.41,24.78v2.72c0.26,0.02,0.51,0.02,0.76,0.02h0.75c0.4,0,0.62-0.02,0.65-0.24l0.07-0.65h0.45
		c-0.01,0.41-0.03,0.81-0.03,1.21c0,0.41,0.02,0.82,0.03,1.22h-0.45l-0.07-0.57c-0.04-0.32-0.25-0.42-0.65-0.42h-0.75
		c-0.25,0-0.5,0.01-0.76,0.03v3.03c0.48,0.02,0.96,0.03,1.45,0.03c0.52,0,1.36-0.1,1.38-0.19l0.26-1.06h0.44l-0.12,1.79
		c-0.8,0.15-2.11,0.15-2.85,0.12c-0.46-0.01-0.93-0.03-1.39-0.03c-0.47,0-0.94,0.02-1.36,0.03v-0.26l0.36-0.2
		c0.18-0.1,0.23-0.3,0.23-0.65v-5.07c0-0.48-0.01-0.78-0.08-0.92c-0.06-0.11-0.17-0.17-0.47-0.19l-0.42-0.03v-0.42
		c0.75,0.01,1.33,0.03,1.77,0.03c1.07,0,1.84-0.02,2.48-0.03c0.63-0.01,1.13-0.01,1.65,0.03l-0.09,1.69h-0.41l-0.09-0.85
		c-0.02-0.17-0.78-0.22-1.3-0.22C112.38,24.74,111.89,24.75,111.41,24.78"/>
	<path class="st0" d="M117.27,30.27v-4.62c0-0.47-0.01-0.78-0.08-0.92c-0.06-0.11-0.17-0.17-0.46-0.19l-0.42-0.03v-0.42
		c0.75,0.01,1.33,0.03,1.9,0.03c0.77,0,1.53-0.02,2.3-0.03c1.16-0.02,2.22,0.33,2.22,1.68c0,1-0.75,1.67-1.69,2.01l2.05,3.1
		c0.08,0.12,0.2,0.25,0.33,0.35c0.1,0.08,0.25,0.11,0.46,0.16v0.46c-0.36-0.01-0.74-0.03-1.1-0.03c-0.34,0-0.68,0.02-1.02,0.03
		l-2.54-3.94l0.08-0.2c1.04,0.09,1.81-0.56,1.81-1.62c0-0.93-0.64-1.43-1.53-1.43c-0.24,0-0.54,0.01-0.73,0.1v5.52
		c0,0.48,0.01,0.78,0.08,0.92c0.05,0.09,0.17,0.14,0.47,0.16l0.42,0.03v0.46c-0.46-0.01-1.09-0.03-1.76-0.03
		c-0.68,0-1.3,0.02-1.77,0.03v-0.46l0.42-0.03c0.29-0.02,0.42-0.07,0.46-0.16C117.25,31.05,117.27,30.75,117.27,30.27"/>
	<path class="st0" d="M125.39,29.52h0.46l0.08,1c0.31,0.52,1.19,0.87,1.78,0.87c0.96,0,1.78-0.51,1.78-1.5
		c0-0.49-0.29-0.86-0.94-1.06l-1.59-0.48c-0.95-0.28-1.66-0.95-1.66-1.93c0-1.81,1.35-2.51,2.99-2.51c0.7,0,1.45,0.12,2.11,0.39
		c-0.06,0.5-0.1,1.16-0.1,1.75h-0.46l-0.07-0.93c-0.34-0.39-0.97-0.62-1.51-0.62c-1.05,0-1.55,0.61-1.55,1.37
		c0,0.51,0.36,0.88,1.2,1.1l1.29,0.34c1.04,0.27,1.71,0.93,1.71,1.95c0,1.93-1.6,2.73-3.32,2.73c-0.81,0-1.64-0.17-2.37-0.52
		C125.36,30.81,125.39,30.16,125.39,29.52"/>
	<path class="st0" d="M135.03,25.65v4.62c0,0.47,0.01,0.78,0.08,0.92c0.04,0.09,0.17,0.14,0.46,0.16l0.42,0.03v0.46
		c-0.46-0.01-1.09-0.03-1.76-0.03c-0.68,0-1.3,0.02-1.77,0.03v-0.46l0.42-0.03c0.3-0.02,0.42-0.07,0.46-0.16
		c0.07-0.14,0.08-0.44,0.08-0.92v-4.62c0-0.47-0.01-0.78-0.08-0.92c-0.05-0.09-0.17-0.13-0.46-0.16l-0.42-0.03v-0.46
		c0.47,0.01,1.09,0.03,1.77,0.03c0.67,0,1.29-0.02,1.76-0.03v0.46l-0.42,0.03c-0.29,0.02-0.42,0.07-0.46,0.16
		C135.04,24.87,135.03,25.18,135.03,25.65"/>
	<path class="st0" d="M141.54,24.79v5.48c0,0.48,0.01,0.78,0.08,0.92c0.05,0.09,0.17,0.14,0.46,0.16l0.42,0.03v0.46
		c-0.46-0.01-1.09-0.03-1.75-0.03c-0.68,0-1.3,0.02-1.77,0.03v-0.46l0.42-0.03c0.29-0.02,0.42-0.07,0.46-0.16
		c0.07-0.14,0.08-0.44,0.08-0.92v-5.48h-1.32c-0.3,0-0.62,0-0.7,0.1c-0.04,0.06-0.09,0.15-0.1,0.27l-0.06,0.78h-0.46
		c-0.02-0.74-0.06-1.26-0.15-1.8c1.26-0.04,2.44-0.02,3.58-0.02c1.15,0,2.33-0.02,3.52-0.03c-0.02,0.6-0.06,1.12-0.08,1.86h-0.46
		l-0.06-0.78c-0.01-0.12-0.06-0.21-0.1-0.27c-0.08-0.1-0.4-0.1-0.7-0.1H141.54z"/>
	<path class="st0" d="M149.53,27.76l2.13-3.64h0.87v0.22l-1.99,2.95c-0.24,0.35-0.43,0.75-0.6,1.13v1.85c0,0.48,0.01,0.78,0.08,0.92
		c0.04,0.09,0.17,0.14,0.46,0.16l0.42,0.03v0.46c-0.46-0.01-1.09-0.03-1.76-0.03c-0.68,0-1.3,0.02-1.77,0.03v-0.46l0.42-0.03
		c0.29-0.02,0.42-0.07,0.47-0.16c0.07-0.14,0.08-0.44,0.08-0.92v-1.58c-0.22-0.49-0.35-0.73-0.5-0.97l-1.15-1.85
		c-0.16-0.25-0.4-0.54-0.59-0.76c-0.26-0.28-0.5-0.38-0.88-0.38v-0.42l1.8-0.4c0.62,0.34,0.97,0.93,1.29,1.53L149.53,27.76z"/>
	<path class="st0" d="M141.81,40.94c-1.6,0-2.38-1.65-2.38-3.53c0-1.7,0.5-3.28,2.61-3.28c1.6,0,2.38,1.67,2.38,3.54
		C144.42,39.37,143.92,40.94,141.81,40.94 M142.04,33.5c-2.6,0-4.31,1.43-4.31,4.1c0,2.59,1.54,3.97,4.08,3.97
		c2.6,0,4.31-1.43,4.31-4.1C146.12,34.88,144.58,33.5,142.04,33.5"/>
	<path class="st0" d="M148.22,39.85v-4.62c0-0.48-0.01-0.78-0.08-0.92c-0.06-0.11-0.17-0.17-0.47-0.19l-0.42-0.03v-0.42
		c0.45,0.01,0.91,0.03,1.36,0.03c0.32,0,0.64-0.02,0.95-0.03c0.39,0.5,0.76,1.04,1.17,1.51l3.54,4.12v-4.07
		c0-0.48-0.01-0.78-0.08-0.92c-0.06-0.11-0.17-0.17-0.46-0.19l-0.42-0.03v-0.42c0.43,0.01,0.87,0.03,1.3,0.03
		c0.43,0,0.86-0.02,1.29-0.03v0.42l-0.42,0.03c-0.29,0.02-0.41,0.08-0.47,0.19c-0.07,0.14-0.08,0.44-0.08,0.92v5.14
		c0,0.4,0.02,0.81,0.03,1.15l-1.01-0.1c-0.47-0.52-0.94-1.05-1.38-1.58l-3.67-4.42l-0.02,4.43c0,0.48,0.01,0.78,0.08,0.92
		c0.05,0.11,0.17,0.17,0.46,0.19l0.42,0.03v0.42c-0.43-0.01-0.86-0.03-1.29-0.03c-0.43,0-0.87,0.02-1.3,0.03v-0.42l0.42-0.03
		c0.3-0.02,0.41-0.08,0.47-0.19C148.21,40.63,148.22,40.32,148.22,39.85"/>
	<path class="st0" d="M75.63,39l1.69-3.99l0.58-1.41h0.51c0.18,0.52,0.36,1.02,0.55,1.51l1.54,3.85l1.11-4.25
		c0.04-0.13,0.05-0.24,0.05-0.37c0-0.13-0.2-0.21-0.4-0.23l-0.52-0.03v-0.42c0.51,0.01,0.91,0.03,1.22,0.03
		c0.31,0,0.7-0.02,1.22-0.03v0.42l-0.38,0.03c-0.2,0.02-0.35,0.31-0.49,0.78l-1.38,4.89c-0.15,0.53-0.25,1.08-0.38,1.62h-0.83
		c-0.15-0.4-0.27-0.79-0.43-1.19l-1.69-4.25L75.87,40c-0.2,0.47-0.35,0.94-0.53,1.42h-0.79l-1.57-6.82
		c-0.08-0.33-0.22-0.45-0.42-0.48l-0.36-0.03v-0.42c0.75,0.01,1.32,0.03,1.77,0.03c0.44,0,1.01-0.02,1.52-0.03v0.42L75,34.12
		c-0.15,0.01-0.34,0.14-0.34,0.26c0,0.08,0.01,0.19,0.04,0.32L75.61,39H75.63z"/>
	<path class="st0" d="M86.87,34.35v2.72c0.26,0.02,0.51,0.02,0.76,0.02h0.75c0.4,0,0.62-0.02,0.65-0.24l0.07-0.65h0.45
		c-0.01,0.41-0.03,0.8-0.03,1.21c0,0.41,0.02,0.82,0.03,1.23h-0.45l-0.07-0.57c-0.03-0.32-0.25-0.42-0.65-0.42h-0.75
		c-0.25,0-0.5,0.01-0.76,0.03v3.03c0.48,0.02,0.96,0.03,1.45,0.03c0.52,0,1.36-0.1,1.38-0.19l0.26-1.07h0.44l-0.12,1.79
		c-0.8,0.15-2.11,0.15-2.85,0.12c-0.46-0.01-0.93-0.03-1.39-0.03c-0.48,0-0.94,0.02-1.36,0.03v-0.26l0.36-0.2
		c0.18-0.1,0.22-0.29,0.22-0.65v-5.08c0-0.47-0.01-0.78-0.08-0.92c-0.06-0.11-0.17-0.17-0.46-0.19l-0.42-0.03v-0.42
		c0.75,0.01,1.32,0.03,1.77,0.03c1.07,0,1.84-0.02,2.48-0.03c0.63-0.01,1.13-0.01,1.66,0.03l-0.09,1.69h-0.41l-0.09-0.85
		c-0.02-0.17-0.78-0.22-1.3-0.22C87.83,34.32,87.34,34.33,86.87,34.35"/>
	<path class="st0" d="M94.09,35.23v5.49c0.48,0.02,0.96,0.03,1.45,0.03c0.52,0,1.36-0.1,1.38-0.19l0.26-1.15h0.45l-0.12,1.88
		c-0.8,0.15-2.11,0.15-2.85,0.12c-0.46-0.01-0.93-0.03-1.39-0.03c-0.48,0-0.94,0.02-1.36,0.03v-0.26l0.36-0.2
		c0.18-0.1,0.22-0.3,0.22-0.65v-5.08c0-0.48-0.01-0.78-0.08-0.92c-0.05-0.09-0.17-0.14-0.46-0.16l-0.42-0.03v-0.46
		c0.47,0.01,1.09,0.03,1.77,0.03c0.67,0,1.29-0.02,1.76-0.03v0.46l-0.42,0.03c-0.29,0.02-0.42,0.07-0.47,0.16
		C94.1,34.45,94.09,34.75,94.09,35.23"/>
	<path class="st0" d="M101.31,35.23v5.49c0.48,0.02,0.96,0.03,1.45,0.03c0.52,0,1.36-0.1,1.39-0.19l0.26-1.15h0.44l-0.12,1.88
		c-0.8,0.15-2.11,0.15-2.85,0.12c-0.46-0.01-0.93-0.03-1.39-0.03c-0.48,0-0.94,0.02-1.36,0.03v-0.26l0.36-0.2
		c0.18-0.1,0.22-0.3,0.22-0.65v-5.08c0-0.48-0.01-0.78-0.08-0.92c-0.04-0.09-0.17-0.14-0.46-0.16l-0.42-0.03v-0.46
		c0.47,0.01,1.09,0.03,1.77,0.03c0.67,0,1.29-0.02,1.76-0.03v0.46l-0.42,0.03c-0.3,0.02-0.42,0.07-0.46,0.16
		C101.32,34.45,101.31,34.75,101.31,35.23"/>
	<path class="st0" d="M108.38,35.23v4.62c0,0.48,0.01,0.78,0.08,0.92c0.05,0.09,0.17,0.14,0.46,0.16l0.42,0.03v0.46
		c-0.47-0.01-1.09-0.03-1.76-0.03c-0.68,0-1.3,0.02-1.77,0.03v-0.46l0.42-0.03c0.29-0.02,0.42-0.07,0.47-0.16
		c0.07-0.14,0.08-0.44,0.08-0.92v-4.62c0-0.47-0.01-0.78-0.08-0.92c-0.05-0.09-0.17-0.14-0.47-0.16l-0.42-0.03v-0.46
		c0.47,0.01,1.09,0.03,1.77,0.03c0.67,0,1.29-0.02,1.76-0.03v0.46l-0.42,0.03c-0.3,0.02-0.42,0.07-0.46,0.16
		C108.39,34.45,108.38,34.75,108.38,35.23"/>
	<path class="st0" d="M111.45,39.85v-4.62c0-0.48-0.01-0.78-0.08-0.92c-0.06-0.11-0.17-0.17-0.47-0.19l-0.42-0.03v-0.42
		c0.45,0.01,0.91,0.03,1.36,0.03c0.32,0,0.64-0.02,0.95-0.03c0.39,0.5,0.76,1.04,1.17,1.51l3.54,4.12v-4.07
		c0-0.48-0.01-0.78-0.08-0.92c-0.06-0.11-0.17-0.17-0.47-0.19l-0.42-0.03v-0.42c0.43,0.01,0.87,0.03,1.3,0.03
		c0.43,0,0.86-0.02,1.29-0.03v0.42l-0.42,0.03c-0.29,0.02-0.41,0.08-0.47,0.19c-0.07,0.14-0.08,0.44-0.08,0.92v5.14
		c0,0.4,0.02,0.81,0.03,1.15l-1.01-0.1c-0.47-0.52-0.94-1.05-1.38-1.58l-3.67-4.42l-0.02,4.43c0,0.48,0.01,0.78,0.08,0.92
		c0.06,0.11,0.17,0.17,0.46,0.19l0.42,0.03v0.42c-0.43-0.01-0.86-0.03-1.29-0.03c-0.43,0-0.87,0.02-1.3,0.03v-0.42l0.42-0.03
		c0.3-0.02,0.41-0.08,0.47-0.19C111.44,40.63,111.45,40.32,111.45,39.85"/>
	<path class="st0" d="M128.08,39.04v1.85c-1.04,0.41-2.14,0.68-3.31,0.68c-2.58,0-4.49-1.45-4.49-4.16c0-2.61,2.12-3.91,4.53-3.91
		c1.03,0,2.04,0.09,3.12,0.53c-0.05,0.53-0.14,1.37-0.19,1.86h-0.45l-0.06-0.98c-0.44-0.52-1.45-0.78-2.38-0.78
		c-1.88,0-2.88,1.34-2.88,3.13c0,1.96,1.01,3.67,3.05,3.67c0.5,0,0.96-0.1,1.44-0.28v-1.5c0-0.35-0.28-0.41-0.65-0.42l-0.6-0.02
		v-0.47c0.56,0.01,1.11,0.03,1.67,0.03c0.55,0,1.1-0.02,1.65-0.03v0.39C128.16,38.71,128.08,38.76,128.08,39.04"/>
	<path class="st0" d="M133.99,34.36v5.48c0,0.48,0.01,0.78,0.08,0.92c0.05,0.09,0.17,0.14,0.46,0.16l0.42,0.03v0.46
		c-0.46-0.01-1.09-0.03-1.76-0.03c-0.68,0-1.3,0.02-1.77,0.03v-0.46l0.42-0.03c0.29-0.02,0.42-0.07,0.46-0.16
		c0.07-0.14,0.08-0.44,0.08-0.92v-5.48h-1.32c-0.3,0-0.62,0-0.7,0.1c-0.05,0.06-0.09,0.15-0.1,0.27l-0.06,0.78h-0.46
		c-0.02-0.74-0.06-1.26-0.15-1.8c1.26-0.04,2.44-0.02,3.58-0.02c1.15,0,2.33-0.02,3.52-0.03c-0.02,0.6-0.06,1.12-0.08,1.86h-0.46
		l-0.06-0.78c-0.01-0.12-0.06-0.22-0.1-0.27c-0.08-0.1-0.4-0.1-0.7-0.1H133.99z"/>
	<path class="st0" d="M90.57,44.09h1.62v0.31h-1.62V44.09z M150.99,46.91v-1.49c0-0.16-0.01-0.27-0.04-0.32
		c-0.03-0.04-0.08-0.06-0.18-0.06l-0.21-0.01V44.9c0.23,0.01,0.43,0.01,0.64,0.01c0.2,0,0.4,0,0.63-0.01v0.13l-0.21,0.01
		c-0.1,0-0.16,0.02-0.18,0.06c-0.03,0.05-0.04,0.16-0.04,0.32v1.45c0,0.6,0.32,0.77,0.89,0.77c0.47,0,0.89-0.17,0.89-0.87v-1.35
		c0-0.16-0.01-0.27-0.04-0.32c-0.03-0.04-0.08-0.05-0.18-0.06l-0.19-0.01V44.9c0.17,0.01,0.35,0.01,0.5,0.01
		c0.17,0,0.33-0.01,0.52-0.01v0.13l-0.19,0.01c-0.1,0.01-0.16,0.02-0.18,0.06c-0.03,0.05-0.04,0.16-0.04,0.32v1.22
		c0,0.9-0.35,1.26-1.23,1.26C151.42,47.9,150.99,47.68,150.99,46.91 M148.24,44.87l1.05,2.39c0.04,0.08,0.09,0.2,0.14,0.29
		c0.05,0.08,0.1,0.13,0.17,0.14l0.15,0.01v0.13c-0.19-0.01-0.38-0.01-0.58-0.01c-0.15,0-0.34,0.01-0.58,0.01V47.7l0.2-0.01
		c0.09,0,0.18-0.03,0.18-0.08c0-0.06-0.05-0.17-0.09-0.27l-0.2-0.48h-1.25l-0.12,0.28c-0.04,0.09-0.15,0.37-0.15,0.44
		c0,0.09,0.07,0.11,0.21,0.12l0.16,0.01v0.13c-0.21-0.01-0.37-0.01-0.5-0.01c-0.17,0-0.33,0.01-0.5,0.01V47.7l0.16-0.01
		c0.1-0.01,0.19-0.1,0.23-0.21l0.77-1.71c0.14-0.29,0.28-0.61,0.4-0.91H148.24z M147.51,46.68h1.1l-0.55-1.26L147.51,46.68z
		 M145.29,45.42v1.89c0,0.16,0.01,0.27,0.04,0.32c0.03,0.04,0.08,0.06,0.18,0.06l0.21,0.01v0.13c-0.23-0.01-0.43-0.01-0.63-0.01
		c-0.21,0-0.42,0-0.58,0.01V47.7l0.15-0.01c0.11-0.01,0.16-0.02,0.18-0.06c0.03-0.05,0.04-0.16,0.04-0.32V45.4
		c-0.07,0.11-0.13,0.23-0.19,0.34l-0.77,1.59c-0.08,0.17-0.16,0.36-0.23,0.53h-0.09l-1.2-2.47l-0.01,1.91
		c0,0.16,0.01,0.27,0.04,0.32c0.03,0.04,0.08,0.05,0.18,0.06l0.19,0.01v0.13c-0.19-0.01-0.35-0.01-0.52-0.01
		c-0.16,0-0.33,0.01-0.5,0.01V47.7l0.19-0.01c0.1-0.01,0.16-0.02,0.18-0.06c0.03-0.05,0.04-0.16,0.04-0.32v-1.89
		c0-0.16-0.01-0.27-0.04-0.32c-0.02-0.04-0.08-0.05-0.18-0.06l-0.19-0.01V44.9c0.14,0.01,0.27,0.01,0.41,0.01
		c0.14,0,0.28-0.01,0.41-0.01l1.15,2.34l1.14-2.34c0.14,0.01,0.27,0.01,0.41,0.01c0.14,0,0.28-0.01,0.4-0.01v0.13l-0.18,0.01
		c-0.1,0.01-0.16,0.02-0.18,0.06C145.3,45.15,145.29,45.26,145.29,45.42 M137.94,44.87l1.05,2.39c0.04,0.08,0.09,0.2,0.14,0.29
		c0.05,0.08,0.1,0.13,0.17,0.14l0.15,0.01v0.13c-0.19-0.01-0.38-0.01-0.58-0.01c-0.15,0-0.34,0.01-0.58,0.01V47.7l0.2-0.01
		c0.09,0,0.18-0.03,0.18-0.08c0-0.06-0.05-0.17-0.09-0.27l-0.2-0.48h-1.25l-0.12,0.28c-0.04,0.09-0.15,0.37-0.15,0.44
		c0,0.09,0.07,0.11,0.21,0.12l0.16,0.01v0.13c-0.21-0.01-0.37-0.01-0.5-0.01c-0.17,0-0.33,0.01-0.5,0.01V47.7l0.16-0.01
		c0.1-0.01,0.19-0.1,0.24-0.21l0.77-1.71c0.13-0.29,0.28-0.61,0.4-0.91H137.94z M137.21,46.68h1.1l-0.55-1.26L137.21,46.68z
		 M132.56,44.87l1.05,2.39c0.04,0.08,0.09,0.2,0.14,0.29c0.05,0.08,0.1,0.13,0.17,0.14l0.15,0.01v0.13
		c-0.19-0.01-0.38-0.01-0.58-0.01c-0.15,0-0.34,0.01-0.58,0.01V47.7l0.2-0.01c0.09,0,0.18-0.03,0.18-0.08
		c0-0.06-0.05-0.17-0.09-0.27l-0.2-0.48h-1.25l-0.12,0.28c-0.04,0.09-0.15,0.37-0.15,0.44c0,0.09,0.07,0.11,0.21,0.12l0.16,0.01
		v0.13c-0.21-0.01-0.37-0.01-0.5-0.01c-0.17,0-0.33,0.01-0.5,0.01V47.7l0.16-0.01c0.1-0.01,0.19-0.1,0.23-0.21l0.77-1.71
		c0.13-0.29,0.28-0.61,0.4-0.91H132.56z M131.83,46.68h1.1l-0.55-1.26L131.83,46.68z M127.92,46.44v0.86c0,0.16,0.01,0.27,0.04,0.32
		c0.03,0.04,0.08,0.06,0.18,0.06l0.21,0.01v0.13c-0.23-0.01-0.43-0.01-0.63-0.01c-0.21,0-0.42,0-0.64,0.01V47.7l0.21-0.01
		c0.1,0,0.16-0.02,0.18-0.06c0.03-0.05,0.04-0.16,0.04-0.32v-1.89c0-0.16-0.01-0.27-0.04-0.32c-0.03-0.04-0.08-0.06-0.18-0.06
		l-0.21-0.01V44.9c0.23,0.01,0.43,0.01,0.64,0.01c0.2,0,0.4,0,0.63-0.01v0.13l-0.21,0.01c-0.1,0-0.16,0.02-0.18,0.06
		c-0.03,0.05-0.04,0.16-0.04,0.32v0.9l1.21-1.14c0.07-0.06,0.12-0.13,0.12-0.16V44.9c0.14,0.01,0.26,0.01,0.39,0.01
		c0.12,0,0.24-0.01,0.35-0.01v0.13l-0.18,0.01c-0.11,0-0.23,0.06-0.34,0.16l-1.15,1.01l1.43,1.31c0.11,0.1,0.19,0.16,0.27,0.17
		l0.09,0.01v0.13c-0.08-0.01-0.19-0.01-0.29-0.01c-0.1,0-0.21,0.01-0.34,0.01l-1.51-1.41L127.92,46.44z M125.8,45.42v1.89
		c0,0.16,0.01,0.27,0.04,0.32c0.03,0.04,0.08,0.06,0.18,0.06l0.21,0.01v0.13c-0.22-0.01-0.43-0.01-0.63-0.01
		c-0.21,0-0.42,0-0.64,0.01V47.7l0.21-0.01c0.1,0,0.16-0.02,0.18-0.06c0.03-0.05,0.04-0.16,0.04-0.32v-1.89
		c0-0.16-0.01-0.27-0.04-0.32c-0.03-0.04-0.08-0.06-0.18-0.06l-0.21-0.01V44.9c0.22,0.01,0.43,0.01,0.64,0.01c0.2,0,0.4,0,0.63-0.01
		v0.13l-0.21,0.01c-0.1,0-0.16,0.02-0.18,0.06C125.8,45.15,125.8,45.26,125.8,45.42 M120.33,47.31v-1.89c0-0.16-0.01-0.27-0.04-0.32
		c-0.03-0.04-0.08-0.06-0.18-0.06l-0.21-0.01V44.9c0.24,0.01,0.49,0.01,0.73,0.01c0.38,0,0.77-0.01,1.02-0.01
		c0.2,0,0.39,0.01,0.56,0.01c-0.05,0.18-0.07,0.42-0.07,0.64H122v-0.27c0-0.05,0-0.1-0.04-0.11c-0.23-0.08-0.57-0.09-0.85-0.09
		c-0.12,0-0.24,0.01-0.36,0.03v1.12c0.14,0.01,0.3,0.01,0.5,0.01c0.26,0,0.41-0.02,0.46-0.05c0.02-0.02,0.03-0.05,0.03-0.11
		l0.02-0.22h0.13c0,0.17-0.01,0.33-0.01,0.49c0,0.16,0.01,0.32,0.01,0.47h-0.13l-0.02-0.25c0-0.06-0.01-0.09-0.03-0.1
		c-0.05-0.03-0.19-0.05-0.46-0.05c-0.21,0-0.37,0-0.5,0.01v1.18c0.12,0.03,0.25,0.03,0.36,0.03c0.35,0,0.8-0.01,0.88-0.06
		c0.07-0.03,0.12-0.22,0.15-0.47h0.15c-0.04,0.2-0.07,0.46-0.07,0.69c-0.19,0-0.54,0.02-0.86,0.01c-0.33,0-0.68-0.01-0.94-0.01
		c-0.17,0-0.31,0.01-0.46,0.01V47.7l0.16-0.01c0.1-0.01,0.16-0.02,0.18-0.06C120.32,47.58,120.33,47.47,120.33,47.31 M117.61,47.31
		v-1.78c0-0.16,0-0.29-0.02-0.42h-0.67c-0.13,0-0.16,0.04-0.17,0.14l-0.02,0.33h-0.13c0-0.23-0.01-0.46-0.03-0.68
		c0.31,0,0.62,0.01,0.94,0.01h0.63c0.31,0,0.62-0.01,0.94-0.01c-0.02,0.22-0.03,0.45-0.03,0.68h-0.13l-0.02-0.33
		c-0.01-0.1-0.04-0.14-0.17-0.14h-0.67c-0.01,0.13-0.02,0.26-0.02,0.42v1.78c0,0.16,0.01,0.27,0.04,0.32
		c0.03,0.04,0.08,0.06,0.18,0.06l0.21,0.01v0.13c-0.23-0.01-0.43-0.01-0.63-0.01c-0.21,0-0.42,0-0.64,0.01V47.7l0.21-0.01
		c0.1,0,0.16-0.02,0.18-0.06C117.6,47.58,117.61,47.47,117.61,47.31 M112.31,47.9c-0.88,0-1.54-0.59-1.54-1.53
		c0-0.87,0.62-1.54,1.63-1.54c0.93,0,1.59,0.5,1.59,1.44C113.99,47.17,113.26,47.9,112.31,47.9 M112.33,45c-0.76,0-1.1,0.51-1.1,1.2
		c0,0.74,0.35,1.51,1.21,1.51c0.72,0,1.08-0.55,1.08-1.32C113.52,45.56,113.14,45,112.33,45 M106.5,47.9
		c-0.88,0-1.54-0.59-1.54-1.53c0-0.87,0.62-1.54,1.63-1.54c0.93,0,1.59,0.5,1.59,1.44C108.18,47.17,107.45,47.9,106.5,47.9
		 M106.52,45c-0.75,0-1.1,0.51-1.1,1.2c0,0.74,0.36,1.51,1.22,1.51c0.72,0,1.08-0.55,1.08-1.32C107.71,45.56,107.33,45,106.52,45
		 M101.99,46.44v0.86c0,0.16,0.01,0.27,0.04,0.32c0.03,0.04,0.08,0.06,0.18,0.06l0.21,0.01v0.13c-0.22-0.01-0.43-0.01-0.63-0.01
		c-0.21,0-0.42,0-0.64,0.01V47.7l0.21-0.01c0.1,0,0.16-0.02,0.18-0.06c0.03-0.05,0.04-0.16,0.04-0.32v-1.89
		c0-0.16-0.01-0.27-0.04-0.32c-0.03-0.04-0.08-0.06-0.18-0.06l-0.21-0.01V44.9c0.23,0.01,0.43,0.01,0.64,0.01c0.2,0,0.4,0,0.63-0.01
		v0.13l-0.21,0.01c-0.1,0-0.16,0.02-0.18,0.06c-0.03,0.05-0.04,0.16-0.04,0.32v0.9l1.21-1.14c0.07-0.06,0.13-0.13,0.13-0.16V44.9
		c0.14,0.01,0.26,0.01,0.39,0.01c0.12,0,0.24-0.01,0.35-0.01v0.13l-0.18,0.01c-0.11,0-0.23,0.06-0.34,0.16l-1.15,1.01l1.43,1.31
		c0.11,0.1,0.19,0.16,0.27,0.17l0.09,0.01v0.13c-0.08-0.01-0.19-0.01-0.29-0.01c-0.11,0-0.21,0.01-0.34,0.01l-1.51-1.41
		L101.99,46.44z M98.62,47.9c-0.88,0-1.54-0.59-1.54-1.53c0-0.87,0.63-1.54,1.63-1.54c0.93,0,1.59,0.5,1.59,1.44
		C100.3,47.17,99.57,47.9,98.62,47.9 M98.64,45c-0.75,0-1.1,0.51-1.1,1.2c0,0.74,0.36,1.51,1.21,1.51c0.73,0,1.08-0.55,1.08-1.32
		C99.83,45.56,99.45,45,98.64,45 M94.64,45.11v2.2c0,0.16,0.01,0.27,0.04,0.32c0.03,0.04,0.08,0.06,0.18,0.06l0.21,0.01v0.13
		c-0.23-0.01-0.43-0.01-0.63-0.01c-0.21,0-0.42,0-0.64,0.01V47.7l0.21-0.01c0.1,0,0.16-0.02,0.18-0.06
		c0.03-0.05,0.04-0.16,0.04-0.32v-1.89c0-0.15-0.01-0.26-0.04-0.31c-0.03-0.04-0.08-0.06-0.19-0.07l-0.19-0.01V44.9
		c0.29,0.01,0.53,0.01,0.78,0.01c0.25,0,0.5-0.01,0.74-0.01c0.42-0.01,0.9,0.17,0.9,0.65c0,0.53-0.47,0.9-1.04,0.9
		c-0.09,0-0.17-0.01-0.26-0.02l-0.04-0.15c0.1,0.03,0.19,0.04,0.29,0.04c0.35,0,0.62-0.27,0.62-0.63c0-0.44-0.27-0.63-0.7-0.63
		C94.89,45.06,94.76,45.08,94.64,45.11 M90.15,46.91v-1.49c0-0.16-0.01-0.27-0.04-0.32c-0.03-0.04-0.08-0.06-0.18-0.06l-0.21-0.01
		V44.9c0.23,0.01,0.43,0.01,0.64,0.01c0.2,0,0.4,0,0.63-0.01v0.13l-0.21,0.01c-0.1,0-0.16,0.02-0.18,0.06
		c-0.03,0.05-0.04,0.16-0.04,0.32v1.45c0,0.6,0.32,0.77,0.89,0.77c0.47,0,0.89-0.17,0.89-0.87v-1.35c0-0.16-0.01-0.27-0.04-0.32
		c-0.03-0.04-0.08-0.05-0.18-0.06l-0.19-0.01V44.9c0.17,0.01,0.35,0.01,0.5,0.01c0.17,0,0.33-0.01,0.52-0.01v0.13l-0.19,0.01
		c-0.1,0.01-0.16,0.02-0.18,0.06c-0.03,0.05-0.04,0.16-0.04,0.32v1.22c0,0.9-0.35,1.26-1.23,1.26
		C90.58,47.9,90.15,47.68,90.15,46.91 M85.14,47.31v-1.89c0-0.16-0.01-0.27-0.04-0.32c-0.03-0.04-0.08-0.06-0.18-0.06l-0.21-0.01
		V44.9c0.24,0.01,0.49,0.01,0.73,0.01c0.38,0,0.78-0.01,1.02-0.01c0.2,0,0.39,0.01,0.56,0.01c-0.05,0.18-0.07,0.42-0.07,0.64h-0.15
		v-0.27c0-0.05,0-0.1-0.04-0.11c-0.23-0.08-0.57-0.09-0.85-0.09c-0.12,0-0.24,0.01-0.36,0.03v1.12c0.14,0.01,0.29,0.01,0.5,0.01
		c0.26,0,0.41-0.02,0.46-0.05c0.02-0.02,0.03-0.05,0.04-0.11l0.02-0.22h0.13c-0.01,0.17-0.01,0.33-0.01,0.49
		c0,0.16,0.01,0.32,0.01,0.47h-0.13l-0.02-0.25c-0.01-0.06-0.01-0.09-0.04-0.1c-0.05-0.03-0.19-0.05-0.46-0.05
		c-0.21,0-0.37,0-0.5,0.01v1.18c0.12,0.03,0.25,0.03,0.36,0.03c0.35,0,0.8-0.01,0.88-0.06c0.07-0.03,0.12-0.22,0.15-0.47h0.15
		c-0.04,0.2-0.07,0.46-0.07,0.69c-0.19,0-0.54,0.02-0.86,0.01c-0.33,0-0.67-0.01-0.94-0.01c-0.16,0-0.31,0.01-0.46,0.01V47.7
		l0.16-0.01c0.1-0.01,0.16-0.02,0.18-0.06C85.13,47.58,85.14,47.47,85.14,47.31 M82.42,47.31v-1.78c0-0.16,0-0.29-0.02-0.42h-0.67
		c-0.13,0-0.17,0.04-0.17,0.14l-0.02,0.33H81.4c0-0.23-0.01-0.46-0.03-0.68c0.31,0,0.62,0.01,0.94,0.01h0.63
		c0.31,0,0.62-0.01,0.94-0.01c-0.02,0.22-0.03,0.45-0.03,0.68h-0.14l-0.02-0.33c-0.01-0.1-0.04-0.14-0.17-0.14h-0.67
		c-0.01,0.13-0.02,0.26-0.02,0.42v1.78c0,0.16,0.01,0.27,0.04,0.32c0.03,0.04,0.08,0.06,0.18,0.06l0.21,0.01v0.13
		c-0.23-0.01-0.43-0.01-0.63-0.01c-0.21,0-0.42,0-0.64,0.01V47.7l0.21-0.01c0.1,0,0.16-0.02,0.18-0.06
		C82.41,47.58,82.42,47.47,82.42,47.31 M77.12,47.9c-0.88,0-1.54-0.59-1.54-1.53c0-0.87,0.62-1.54,1.63-1.54
		c0.93,0,1.59,0.5,1.59,1.44C78.8,47.17,78.07,47.9,77.12,47.9 M77.14,45c-0.75,0-1.1,0.51-1.1,1.2c0,0.74,0.36,1.51,1.22,1.51
		c0.72,0,1.08-0.55,1.08-1.32C78.33,45.56,77.95,45,77.14,45 M71.71,44.87l1.05,2.39c0.04,0.08,0.09,0.2,0.14,0.29
		c0.05,0.08,0.1,0.13,0.17,0.14l0.15,0.01v0.13c-0.19-0.01-0.38-0.01-0.58-0.01c-0.15,0-0.34,0.01-0.58,0.01V47.7l0.2-0.01
		c0.09,0,0.18-0.03,0.18-0.08c0-0.06-0.05-0.17-0.09-0.27l-0.2-0.48h-1.25l-0.12,0.28c-0.04,0.09-0.15,0.37-0.15,0.44
		c0,0.09,0.07,0.11,0.21,0.12l0.16,0.01v0.13c-0.21-0.01-0.37-0.01-0.5-0.01c-0.17,0-0.33,0.01-0.5,0.01V47.7l0.16-0.01
		c0.1-0.01,0.19-0.1,0.23-0.21l0.77-1.71c0.13-0.29,0.28-0.61,0.4-0.91H71.71z M70.99,46.68h1.1l-0.55-1.26L70.99,46.68z
		 M68.56,47.4v-0.42c0-0.1-0.03-0.14-0.15-0.15l-0.36-0.03v-0.13c0.18,0,0.36,0.01,0.53,0.01c0.18,0,0.36,0,0.53-0.01l0.02,0.11
		l-0.13,0.04c-0.05,0.02-0.05,0.03-0.05,0.16v0.71c-0.37,0.1-0.84,0.21-1.14,0.21c-0.97,0-1.75-0.49-1.75-1.55
		c0-0.93,0.79-1.52,1.83-1.52c0.54,0,0.88,0.12,1.08,0.17c-0.05,0.2-0.09,0.42-0.09,0.64h-0.14v-0.22c0-0.2-0.16-0.27-0.36-0.34
		C68.26,45.03,68.07,45,67.79,45c-0.83,0-1.25,0.53-1.25,1.28c0,0.84,0.5,1.44,1.4,1.44c0.33,0,0.58-0.07,0.61-0.15
		C68.56,47.53,68.56,47.51,68.56,47.4 M62.2,47.31v-1.89c0-0.16-0.01-0.27-0.04-0.32c-0.03-0.04-0.08-0.05-0.18-0.06l-0.19-0.01
		V44.9c0.19,0.01,0.36,0.01,0.52,0.01c0.08,0,0.16-0.01,0.24-0.01l2.07,2.49l0.01-1.97c0-0.16-0.01-0.27-0.04-0.32
		c-0.03-0.04-0.08-0.05-0.18-0.06l-0.19-0.01V44.9c0.17,0.01,0.35,0.01,0.5,0.01c0.17,0,0.33-0.01,0.52-0.01v0.13l-0.19,0.01
		c-0.1,0.01-0.16,0.02-0.18,0.06c-0.03,0.05-0.04,0.16-0.04,0.32v2.32c0,0.05,0.01,0.1,0.01,0.15l-0.39-0.07l-2.04-2.46l-0.01,1.94
		c0,0.16,0.01,0.27,0.04,0.32c0.03,0.04,0.08,0.05,0.18,0.06l0.19,0.01v0.13c-0.19-0.01-0.35-0.01-0.52-0.01
		c-0.16,0-0.33,0.01-0.5,0.01V47.7l0.19-0.01c0.1-0.01,0.16-0.02,0.18-0.06C62.19,47.58,62.2,47.47,62.2,47.31 M59.45,44.87
		l1.05,2.39c0.04,0.08,0.09,0.2,0.14,0.29c0.05,0.08,0.09,0.13,0.17,0.14l0.15,0.01v0.13c-0.19-0.01-0.38-0.01-0.58-0.01
		c-0.15,0-0.34,0.01-0.58,0.01V47.7l0.2-0.01c0.09,0,0.18-0.03,0.18-0.08c0-0.06-0.05-0.17-0.09-0.27l-0.2-0.48h-1.25l-0.12,0.28
		c-0.04,0.09-0.15,0.37-0.15,0.44c0,0.09,0.07,0.11,0.21,0.12l0.16,0.01v0.13c-0.21-0.01-0.37-0.01-0.5-0.01
		c-0.17,0-0.34,0.01-0.5,0.01V47.7l0.16-0.01c0.1-0.01,0.19-0.1,0.23-0.21l0.77-1.71c0.13-0.29,0.28-0.61,0.4-0.91H59.45z
		 M58.72,46.68h1.1l-0.55-1.26L58.72,46.68z M53.9,47.31v-1.89c0-0.16-0.01-0.27-0.04-0.32c-0.03-0.04-0.08-0.05-0.18-0.06
		l-0.19-0.01V44.9c0.19,0.01,0.36,0.01,0.52,0.01c0.08,0,0.16-0.01,0.24-0.01l2.07,2.49l0.01-1.97c0-0.16-0.01-0.27-0.04-0.32
		c-0.03-0.04-0.08-0.05-0.18-0.06l-0.19-0.01V44.9c0.17,0.01,0.35,0.01,0.5,0.01c0.17,0,0.33-0.01,0.52-0.01v0.13l-0.19,0.01
		c-0.1,0.01-0.16,0.02-0.18,0.06c-0.03,0.05-0.04,0.16-0.04,0.32v2.32c0,0.05,0.01,0.1,0.01,0.15l-0.39-0.07l-2.04-2.46l-0.01,1.94
		c0,0.16,0.01,0.27,0.04,0.32c0.03,0.04,0.08,0.05,0.18,0.06l0.19,0.01v0.13c-0.19-0.01-0.35-0.01-0.52-0.01
		c-0.16,0-0.33,0.01-0.5,0.01V47.7l0.19-0.01c0.1-0.01,0.16-0.02,0.18-0.06C53.89,47.58,53.9,47.47,53.9,47.31 M51.15,44.87
		l1.05,2.39c0.04,0.08,0.09,0.2,0.14,0.29c0.05,0.08,0.1,0.13,0.17,0.14l0.15,0.01v0.13c-0.19-0.01-0.38-0.01-0.58-0.01
		c-0.15,0-0.34,0.01-0.58,0.01V47.7l0.2-0.01c0.09,0,0.18-0.03,0.18-0.08c0-0.06-0.05-0.17-0.09-0.27l-0.2-0.48h-1.25l-0.12,0.28
		c-0.04,0.09-0.15,0.37-0.15,0.44c0,0.09,0.07,0.11,0.21,0.12l0.16,0.01v0.13c-0.21-0.01-0.37-0.01-0.5-0.01
		c-0.17,0-0.33,0.01-0.5,0.01V47.7l0.16-0.01c0.1-0.01,0.19-0.1,0.23-0.21l0.77-1.71c0.13-0.29,0.28-0.61,0.4-0.91H51.15z
		 M50.42,46.68h1.1l-0.55-1.26L50.42,46.68z M47.04,46.98l-0.54-1.43l-0.76,1.86c-0.06,0.14-0.11,0.29-0.16,0.43h-0.22
		c-0.03-0.16-0.06-0.29-0.1-0.43l-0.52-2.17c-0.04-0.18-0.13-0.2-0.22-0.21l-0.12-0.01V44.9c0.18,0.01,0.36,0.01,0.55,0.01
		c0.19,0,0.36-0.01,0.55-0.01v0.13l-0.18,0.01c-0.11,0.01-0.2,0.03-0.14,0.28l0.43,1.88l0.54-1.31c0.14-0.33,0.27-0.67,0.39-1.01
		h0.14c0.04,0.17,0.12,0.36,0.18,0.53l0.67,1.83l0.58-2.05c0.03-0.1-0.03-0.13-0.2-0.14l-0.17-0.01V44.9
		c0.15,0.01,0.3,0.01,0.46,0.01c0.16,0,0.3-0.01,0.45-0.01v0.13l-0.14,0.01c-0.1,0.01-0.14,0.05-0.17,0.12l-0.66,2.26
		c-0.03,0.12-0.08,0.25-0.12,0.42h-0.22C47.25,47.52,47.15,47.27,47.04,46.98 M39.85,47.31v-1.89c0-0.16-0.01-0.27-0.04-0.32
		c-0.03-0.04-0.08-0.06-0.18-0.06l-0.21-0.01V44.9c0.24,0.01,0.49,0.01,0.73,0.01c0.38,0,0.78-0.01,1.02-0.01
		c0.2,0,0.39,0.01,0.56,0.01c-0.05,0.18-0.07,0.42-0.07,0.64h-0.15v-0.27c0-0.05-0.01-0.1-0.04-0.11c-0.23-0.08-0.57-0.09-0.85-0.09
		c-0.12,0-0.24,0.01-0.36,0.03v1.12c0.14,0.01,0.29,0.01,0.5,0.01c0.26,0,0.41-0.02,0.46-0.05c0.02-0.02,0.03-0.05,0.03-0.11
		l0.02-0.22h0.13c0,0.17-0.01,0.33-0.01,0.49c0,0.16,0.01,0.32,0.01,0.47h-0.13l-0.02-0.25c0-0.06-0.01-0.09-0.03-0.1
		c-0.05-0.03-0.19-0.05-0.46-0.05c-0.21,0-0.37,0-0.5,0.01v1.18c0.12,0.03,0.25,0.03,0.36,0.03c0.35,0,0.8-0.01,0.88-0.06
		c0.07-0.03,0.12-0.22,0.15-0.47h0.15c-0.04,0.2-0.07,0.46-0.07,0.69c-0.19,0-0.54,0.02-0.86,0.01c-0.33,0-0.68-0.01-0.94-0.01
		c-0.17,0-0.31,0.01-0.46,0.01V47.7l0.16-0.01c0.1-0.01,0.16-0.02,0.18-0.06C39.84,47.58,39.85,47.47,39.85,47.31 M36.71,45.11v2.2
		c0,0.16,0.01,0.27,0.04,0.32c0.03,0.04,0.08,0.06,0.18,0.06l0.21,0.01v0.13c-0.23-0.01-0.43-0.01-0.63-0.01
		c-0.21,0-0.42,0-0.64,0.01V47.7l0.21-0.01c0.1,0,0.16-0.02,0.18-0.06c0.03-0.05,0.04-0.16,0.04-0.32v-1.89
		c0-0.16-0.01-0.27-0.04-0.32c-0.03-0.04-0.08-0.05-0.18-0.06l-0.18-0.01V44.9c0.23,0.01,0.48,0.01,0.74,0.01s0.51-0.01,0.76-0.01
		c0.69-0.01,0.88,0.33,0.88,0.63c0,0.46-0.43,0.73-0.85,0.81l0.99,1.24c0.06,0.08,0.16,0.1,0.26,0.11v0.13
		c-0.11-0.01-0.21-0.01-0.31-0.01c-0.1,0-0.19,0.01-0.3,0.01c-0.06-0.08-0.12-0.15-0.18-0.23l-0.8-1.04
		c-0.07-0.09-0.15-0.17-0.23-0.26c0.14-0.04,0.28-0.05,0.41-0.07c0.3-0.05,0.56-0.28,0.56-0.59c0-0.46-0.35-0.58-0.69-0.58
		C36.95,45.06,36.83,45.08,36.71,45.11 M33.5,44.87l1.05,2.39c0.04,0.08,0.09,0.2,0.14,0.29c0.05,0.08,0.1,0.13,0.17,0.14l0.15,0.01
		v0.13c-0.19-0.01-0.38-0.01-0.58-0.01c-0.15,0-0.34,0.01-0.58,0.01V47.7l0.2-0.01c0.09,0,0.18-0.03,0.18-0.08
		c0-0.06-0.05-0.17-0.09-0.27l-0.2-0.48H32.7l-0.12,0.28c-0.04,0.09-0.15,0.37-0.15,0.44c0,0.09,0.07,0.11,0.21,0.12l0.16,0.01v0.13
		c-0.21-0.01-0.37-0.01-0.5-0.01c-0.17,0-0.33,0.01-0.5,0.01V47.7l0.16-0.01c0.1-0.01,0.19-0.1,0.23-0.21l0.77-1.71
		c0.13-0.29,0.28-0.61,0.4-0.91H33.5z M32.78,46.68h1.1l-0.55-1.26L32.78,46.68z M30.55,45.42v1.89c0,0.16,0.01,0.27,0.04,0.32
		c0.03,0.04,0.08,0.06,0.18,0.06l0.21,0.01v0.13c-0.23-0.01-0.43-0.01-0.63-0.01c-0.21,0-0.42,0-0.64,0.01V47.7l0.21-0.01
		c0.1,0,0.16-0.02,0.18-0.06c0.03-0.05,0.04-0.16,0.04-0.32v-0.94c-0.05,0-0.17-0.01-0.36-0.01h-1.01c-0.19,0-0.31,0-0.36,0.01v0.94
		c0,0.16,0.01,0.27,0.04,0.32c0.03,0.04,0.08,0.06,0.18,0.06l0.21,0.01v0.13c-0.23-0.01-0.43-0.01-0.63-0.01
		c-0.21,0-0.42,0-0.64,0.01V47.7l0.21-0.01c0.1,0,0.16-0.02,0.18-0.06c0.03-0.05,0.04-0.16,0.04-0.32v-1.89
		c0-0.16-0.01-0.27-0.04-0.32c-0.03-0.04-0.08-0.06-0.18-0.06l-0.21-0.01V44.9c0.22,0.01,0.43,0.01,0.64,0.01c0.2,0,0.4,0,0.63-0.01
		v0.13l-0.21,0.01c-0.1,0-0.16,0.02-0.18,0.06c-0.03,0.05-0.04,0.16-0.04,0.32v0.75c0.05,0,0.17,0.01,0.36,0.01h1.01
		c0.19,0,0.31-0.01,0.36-0.01v-0.75c0-0.16-0.01-0.27-0.04-0.32c-0.03-0.04-0.08-0.06-0.18-0.06l-0.21-0.01V44.9
		c0.23,0.01,0.43,0.01,0.64,0.01c0.2,0,0.4,0,0.63-0.01v0.13l-0.21,0.01c-0.1,0-0.16,0.02-0.18,0.06
		C30.56,45.15,30.55,45.26,30.55,45.42 M25.13,46.98l-0.54-1.43l-0.75,1.86c-0.06,0.14-0.11,0.29-0.16,0.43h-0.22
		c-0.03-0.16-0.07-0.29-0.1-0.43l-0.52-2.17c-0.04-0.18-0.13-0.2-0.22-0.21l-0.12-0.01V44.9c0.18,0.01,0.36,0.01,0.55,0.01
		c0.19,0,0.36-0.01,0.55-0.01v0.13l-0.18,0.01c-0.11,0.01-0.2,0.03-0.14,0.28l0.43,1.88l0.54-1.31c0.14-0.33,0.27-0.67,0.39-1.01
		h0.14c0.04,0.17,0.12,0.36,0.18,0.53l0.67,1.83l0.58-2.05c0.03-0.1-0.03-0.13-0.2-0.14l-0.17-0.01V44.9
		c0.15,0.01,0.3,0.01,0.46,0.01c0.16,0,0.3-0.01,0.45-0.01v0.13l-0.14,0.01c-0.1,0.01-0.14,0.05-0.16,0.12l-0.66,2.26
		c-0.03,0.12-0.08,0.25-0.12,0.42h-0.22C25.34,47.52,25.24,47.27,25.13,46.98 M17.94,47.31v-1.89c0-0.16-0.01-0.27-0.04-0.32
		c-0.03-0.04-0.08-0.06-0.18-0.06l-0.21-0.01V44.9c0.24,0.01,0.49,0.01,0.73,0.01c0.38,0,0.77-0.01,1.02-0.01
		c0.2,0,0.39,0.01,0.56,0.01c-0.05,0.18-0.07,0.42-0.07,0.64H19.6v-0.27c0-0.05,0-0.1-0.04-0.11c-0.23-0.08-0.57-0.09-0.85-0.09
		c-0.12,0-0.24,0.01-0.36,0.03v1.12c0.14,0.01,0.3,0.01,0.5,0.01c0.26,0,0.41-0.02,0.46-0.05c0.02-0.02,0.03-0.05,0.03-0.11
		l0.02-0.22h0.13c0,0.17-0.01,0.33-0.01,0.49c0,0.16,0.01,0.32,0.01,0.47h-0.13l-0.02-0.25c0-0.06-0.01-0.09-0.03-0.1
		c-0.05-0.03-0.19-0.05-0.46-0.05c-0.21,0-0.37,0-0.5,0.01v1.18c0.12,0.03,0.25,0.03,0.36,0.03c0.35,0,0.8-0.01,0.88-0.06
		c0.07-0.03,0.12-0.22,0.15-0.47h0.15c-0.04,0.2-0.07,0.46-0.07,0.69c-0.19,0-0.54,0.02-0.86,0.01c-0.33,0-0.68-0.01-0.95-0.01
		c-0.16,0-0.31,0.01-0.46,0.01V47.7l0.16-0.01c0.1-0.01,0.16-0.02,0.18-0.06C17.93,47.58,17.94,47.47,17.94,47.31 M15.22,47.31
		v-1.78c0-0.16,0-0.29-0.02-0.42h-0.67c-0.13,0-0.16,0.04-0.17,0.14l-0.02,0.33H14.2c0-0.23-0.01-0.46-0.03-0.68
		c0.31,0,0.62,0.01,0.94,0.01h0.63c0.31,0,0.62-0.01,0.94-0.01c-0.02,0.22-0.03,0.45-0.03,0.68h-0.13l-0.02-0.33
		c-0.01-0.1-0.04-0.14-0.17-0.14h-0.67c-0.01,0.13-0.02,0.26-0.02,0.42v1.78c0,0.16,0.01,0.27,0.04,0.32
		c0.03,0.04,0.08,0.06,0.18,0.06l0.21,0.01v0.13c-0.22-0.01-0.43-0.01-0.63-0.01c-0.21,0-0.42,0-0.64,0.01V47.7L15,47.69
		c0.1,0,0.16-0.02,0.18-0.06C15.21,47.58,15.22,47.47,15.22,47.31 M155.48,45.42v1.89c0,0.16,0.01,0.27,0.04,0.32
		c0.02,0.04,0.08,0.06,0.18,0.06l0.21,0.01v0.13c-0.23-0.01-0.43-0.01-0.63-0.01c-0.21,0-0.42,0-0.64,0.01V47.7l0.21-0.01
		c0.1,0,0.16-0.02,0.18-0.06c0.03-0.05,0.04-0.16,0.04-0.32v-1.89c0-0.16-0.01-0.27-0.04-0.32c-0.03-0.04-0.08-0.06-0.18-0.06
		l-0.21-0.01V44.9c0.23,0.01,0.43,0.01,0.64,0.01c0.2,0,0.4,0,0.63-0.01v0.13l-0.21,0.01c-0.1,0-0.16,0.02-0.18,0.06
		C155.48,45.15,155.48,45.26,155.48,45.42 M50.26,44.1h1.62v0.31h-1.62V44.1z M147.33,44.09h1.62v0.31h-1.62V44.09z"/>
</g>
</svg>
