<svg xmlns="http://www.w3.org/2000/svg" width="500" height="500"><path d="M500 250C500 111.93 388.07 0 250 0S0 111.93 0 250c0 117.24 80.72 215.62 189.61 242.64V326.4h-51.55V250h51.55v-32.92c0-85.09 38.51-124.53 122.05-124.53 15.84 0 43.17 3.11 54.35 6.21v69.25c-5.9-.62-16.15-.93-28.88-.93-40.99 0-56.83 15.53-56.83 55.9V250h81.66l-14.03 76.4H280.3v171.77C404.09 483.22 500.01 377.82 500.01 250z" fill="#0866ff"/><path d="M347.92 326.4l14.03-76.4h-81.66v-27.02c0-40.37 15.84-55.9 56.83-55.9 12.73 0 22.98.31 28.88.93V98.76c-11.18-3.11-38.51-6.21-54.35-6.21-83.54 0-122.05 39.44-122.05 124.53V250h-51.55v76.4h51.55v166.24c19.34 4.8 39.57 7.36 60.39 7.36 10.25 0 20.36-.63 30.29-1.83V326.4h67.63z" fill="#fff"/></svg>