<svg data-name="Layer 1" xmlns="http://www.w3.org/2000/svg" viewBox="0 0 213.13 61.32"><path d="M24 61.17l-.97-1.94h-5.44v-3.49h5.31V53.8h-5.31v-3.26h5.44L24 48.6h-8.61v12.57H24zm-17 0V50.54h2.98l.83-1.94H.99v1.94H4.8v10.63H7zm39.53 0V48.6h-2.2v5.14h-6.55V48.6h-2.2v12.57h2.2v-5.49h6.55v5.49h2.2zm14.46.01l-.97-1.94h-5.44v-3.49h5.31v-1.94h-5.31v-3.26h5.44l.97-1.94h-8.61v12.57h8.61zM76 61.17l-3.07-4.94a3.52 3.52 0 0 0 3-3.69 3.82 3.82 0 0 0-4.11-3.94h-5.58v12.57h2.2v-4.7h2.19l2.79 4.7zm-4.5-6.63h-3v-4h3a2 2 0 1 1 0 4m18.67 6.64l-.98-1.94h-5.43v-3.49h5.3v-1.94h-5.3v-3.26h5.43l.98-1.94h-8.62v12.57h8.62zm16.87-.01V48.6h-2.2v8.72l-6.43-8.72h-2.26v12.57h2.2V52.2l6.57 8.97h2.12zm16.07-10.81a5.78 5.78 0 0 0-4.5-2 6.51 6.51 0 1 0 0 13 6.81 6.81 0 0 0 5.18-2.27v-4.67h-5v1.94h2.84v2a4.6 4.6 0 0 1-3 1.14 4.56 4.56 0 0 1 0-9.11 4 4 0 0 1 3.06 1.45zm18 10.81l-4.94-12.57h-2.75l-4.94 12.57H131l.92-2.41h5.77l.92 2.41zm-4.05-4.35h-4.53l2.26-6zm26.06 4.35l3.15-12.57h-2.47l-2 9.43-2.6-9.43h-1.75l-2.6 9.43-2.03-9.43h-2.47l3.18 12.57h2.35l2.43-9.27 2.46 9.27h2.35zm18.59 0l-4.94-12.57H174l-4.94 12.57h2.51l.92-2.41h5.77l.92 2.41zm-4.05-4.35h-4.53l2.26-6zm18.58 4.35l-5.49-6.64 5.11-5.93h-2.73l-4.92 5.99V48.6H186v12.57h2.21v-4.02l1.09-1.28 4.22 5.3h2.72zm16.05 0l-4.94-12.57h-2.75l-4.94 12.57h2.51l.92-2.41h5.77l.92 2.41zm-4-4.35h-4.53l2.27-6zm4.6-16.61V17.36H208v14.36l-10.66-14.36h-5.03v22.85h4.9v-14.9l10.96 14.9h4.72zm-188.67-.14l5.6-22.85h-5.51l-3.05 16.02-4.35-16.02h-3.82L8.71 33.24 5.62 17.22H.14l5.64 22.85h5.2l4-15.69 4.04 15.69h5.2zm25.48.17l-1.89-4.28h-9.49v-5.17h9.25V26.5h-9.25v-4.82h9.49l1.89-4.29H33.42v22.85H49.7zm93.88-19.69a10.85 10.85 0 0 0-8.47-3.68c-6.79 0-12.35 4.64-12.35 11.93s5 12 11.81 12A14.15 14.15 0 0 0 145 36.41v-8.85h-10.14v4.28h5.19v2.77a7.89 7.89 0 0 1-4.94 1.76 7.2 7.2 0 0 1-7.27-7.57 7.2 7.2 0 0 1 7.27-7.57 6.49 6.49 0 0 1 5.18 2.63zm33.03 20.07c7 0 12.28-4.93 12.28-11.81S183.82 17 176.86 17s-12 4.93-12 11.82 4.82 11.81 11.75 11.81m.25-4.31c-4.24 0-7-3.26-7-7.5s2.73-7.51 7-7.51 7 3.22 7 7.51-2.75 7.5-7 7.5m-18.95 3.89V21.65h5.75l1.88-4.29h-19.28v4.29h6.72v18.56h4.93zM88.68 17.36h4.9v22.85h-4.9zM67.13 40.21v-4.28h-8.7V17.36h-4.9v22.85h13.6zm17.57 0v-4.28H76V17.36h-4.89v22.85H84.7zm34.47 0V17.36h-4.89v14.36l-10.66-14.36h-5.03v22.85h4.9v-14.9l10.96 14.9h4.72zM43 9.84a4.77 4.77 0 0 0 4.92-5 4.92 4.92 0 1 0-9.84 0 4.77 4.77 0 0 0 4.92 5m0-1.5a3.2 3.2 0 0 1-3.19-3.48 3.2 3.2 0 1 1 6.38 0A3.2 3.2 0 0 1 43 8.34M6.07 9.66L9.51.04H7.59L5.02 7.83 2.44.04H.53l3.43 9.62h2.11zm70.93 0L73.26 0h-2.11l-3.78 9.66h1.92L70 7.82h4.42l.71 1.84zm-3.07-3.33h-3.46l1.73-4.59zM12.95.04h1.69v9.62h-1.69zm12.33 2.53l1.13-1.14A4.25 4.25 0 0 0 23-.12a4.85 4.85 0 0 0-5.05 5 4.85 4.85 0 0 0 5.05 5 4.27 4.27 0 0 0 3.39-1.55l-1.11-1.18A2.82 2.82 0 0 1 23 8.34a3.3 3.3 0 0 1-3.3-3.48A3.3 3.3 0 0 1 23 1.38a2.86 2.86 0 0 1 2.26 1.19m8.2 7.09V1.53h2.28l.64-1.49h-7.52v1.49h2.91v8.13h1.69zm25.17 0l-2.35-3.78a2.69 2.69 0 0 0 2.28-2.82 2.92 2.92 0 0 0-3.14-3h-4.23v9.6h1.69V6.07h1.67l2.14 3.59zm-3.44-5.07h-2.31V1.53h2.31a1.51 1.51 0 0 1 1.64 1.53 1.52 1.52 0 0 1-1.64 1.53M62.46.04h1.69v9.62h-1.69zm27.12 9.8c2.79 0 4.16-1.59 4.16-4V0H92v5.81a2.47 2.47 0 1 1-4.93 0V0h-1.7v5.87c0 2.37 1.37 4 4.17 4m16.6-.21V.04h-1.68v6.68L99.53.04H97.8v9.62h1.69V2.8l5.02 6.86h1.63zm4.48-9.62h1.69v9.62h-1.69zm10.97 9.62l3.44-9.62h-1.92l-2.57 7.79-2.57-7.79h-1.92l3.43 9.62h2.11zm13.8 0l-.75-1.48h-4.16V5.51h4.06V4.02h-4.06V1.53h4.16l.75-1.49h-6.6v9.62h6.6zm11.51 0l-2.35-3.78a2.69 2.69 0 0 0 2.28-2.82 2.92 2.92 0 0 0-3.15-3h-4.22v9.6h1.68V6.07h1.68L145 9.66zm-3.45-5.07h-2.31V1.53h2.31a1.51 1.51 0 0 1 1.65 1.53 1.52 1.52 0 0 1-1.65 1.53m13.01-2.23l1.12-1.13A5 5 0 0 0 154-.1c-2.1 0-3.5 1.22-3.5 2.81 0 3.55 5.61 2.29 5.61 4.32 0 .63-.55 1.31-1.93 1.31a4.1 4.1 0 0 1-2.87-1.17l-1.11 1.11a5.17 5.17 0 0 0 3.91 1.53c2.6 0 3.73-1.37 3.73-3 0-3.6-5.6-2.49-5.6-4.28 0-.72.63-1.19 1.63-1.19a4 4 0 0 1 2.62 1m5.28-2.3h1.69v9.62h-1.69zm9.91 9.62V1.53h2.28l.64-1.49h-7.52v1.49H170v8.13h1.68zm10.28 0V5.67l3.38-5.63h-1.93l-2.28 4.13-2.31-4.13h-1.94l3.4 5.63v3.99h1.68zm15.24.18a4.77 4.77 0 0 0 4.92-5 4.92 4.92 0 1 0-9.84 0 4.77 4.77 0 0 0 4.92 5m0-1.5a3.2 3.2 0 0 1-3.2-3.48 3.2 3.2 0 1 1 6.38 0 3.21 3.21 0 0 1-3.19 3.48m10.41 1.32V5.51h4.03V4.02h-4.03V1.53h4.15l.75-1.49h-6.59v9.62h1.69z" fill="#fff"/></svg>