<svg data-name="Layer 1" xmlns="http://www.w3.org/2000/svg" viewBox="0 0 213.35 145.23"><path d="M97.65 130.23v5.41h17.14v-5.41l-2.45 2.7h-3.43l-2.69-2.7-2.7 2.7h-3.42zM86.27 91.61V97h17.14v-5.39L101 94.32h-3.47l-2.7-2.71-2.69 2.71h-3.43zm22.76 0V97h17.14v-5.39l-2.45 2.71h-3.43l-2.69-2.71-2.69 2.71h-3.43zm-2.81 9.77c-2.74 0-4 2-6.74 2s-4-2-6.74-2c-2.56.06-3.69 1.93-6.24 2s-4.37-1.81-6.25-1.72v17c.1 3.57 2.84 8.68 6.23 8.68 2.56 0 3.7-1.9 6.26-2 2.74 0 4 2 6.74 2s4-2 6.74-2 4 2 6.74 2 4-2 6.74-2c2.55.06 3.68 1.92 6.24 2 3.39 0 6.15-5.11 6.24-8.68v-17c-1.87-.09-3.71 1.76-6.24 1.72s-3.69-1.91-6.24-2c-2.74-.06-4 2-6.74 2s-4-2-6.74-2m0 43.85c-1.11 0-28-11.71-28-26.59V86.2h56.07v32.44c0 14.88-26.94 26.59-28 26.59m-4-25.1l-1.17-2 1.17-2h-2.43l-1.18-2-1.17 2h-2.35l1.18 2-1.18 2h2.35l1.17 2.05 1.18-2.05zm15.07-7.45l-1.17-2 1.17-2h-2.35l-1.17-2-1.17 2h-2.35l1.17 2-1.17 2h2.35l1.17 2 1.17-2zm-10.78 0l-1.17-2 1.17-2h-2.35l-1.17-2-1.17 2h-2.44l1.17 2-1.17 2h2.35l1.17 2 1.17-2zm6.49 7.45l-1.17-2 1.17-2h-2.34l-1.18-2-1.17 2h-2.35l1.18 2-1.18 2h2.35l1.17 2.05 1.18-2.05zm-20.6-15h27.67v18.45H92.38zM71.81 102c-1.58 0-3.58-2.06-3.41-3.34.93-7 4.51-4.74 7.14-6.77.76 1 1.86 10.11-3.73 10.11m83.74 6.34a8 8 0 01-2.94 4.92c1.49 0 3.89.16 4.41-1.72a2.77 2.77 0 00-1.47-3.2m-4.16-1c-5.26-.24-7.3 2.92-5.54 4.12 3.34 2.29 5.51-4.2 5.54-4.12m.24-7.63a6.43 6.43 0 01-3.2 1.74 44.38 44.38 0 015.41 0 9.4 9.4 0 01-2.21-1.74m-10.18-6.29a4.13 4.13 0 104.13-4.15 4.14 4.14 0 00-4.13 4.15M158 96.76a2.32 2.32 0 012.73-.6c1.22.43 2 1.46 1.75 2.34 6.03-.12 7.52-1.5 7.52-1.5-1.76 3.27-6.91 5.61-8.86 5.8 2.76 1 8.15 4.1 8.13 10.19 0 8.9-8.6 10.15-13.44 8.87a3.55 3.55 0 012.4 1.71h-21.78v-18a10.22 10.22 0 013.53-2.39 1.54 1.54 0 00.88-1.52 8.16 8.16 0 01-4.41-2.7v-10.3s2.62-3.66 8.81-3.66a9.73 9.73 0 017.59 4.18 9.86 9.86 0 016.15-1.75c9.15 0 11.26 8.86 11.26 8.86a15 15 0 00-7.58-3.2 2 2 0 01-2 1.42 2 2 0 01-1.92-1.17l-.76.49a1.94 1.94 0 01.14.93 2.22 2.22 0 01-.85 1.54zm-14.24-3.37a1.85 1.85 0 111.85 1.85 1.85 1.85 0 01-1.85-1.85M76 101v22.63H42.19a20 20 0 012.2-4.18c-.84-.7-1.54-1.33-1.46-1.23-.08-.1 4.51-6.09 7.83-6.15a6.65 6.65 0 01-1.22-1.23c1.18-1.33 3.29-1.42 10.28-2s8-2.46 8.08-8.13c1.73 2.09 4.66 4.63 8.08.26M58.84 89.4c-2.24-1.54-3.37-2.13-4.16-2s-2.22 2.57-2.2 2.46a27.89 27.89 0 016.36-.49m-8.32 9.35c-1.6-1.36-3.64-4.06-3.92-5.91a2.58 2.58 0 01.73-2.21 4.55 4.55 0 01-.25-2c1-2.91 14.79-3 17.64-3 6.46.29 7.83 0 11-1.23-.08-.11-1.06 4.76-7.1 4.67a7.4 7.4 0 000 .74c2.38 0 5.22-.49 6.86-2.46 0 1.65.57 3.67-2.69 4.43s-5.1.63-6.13 9.59c-.2 2.53 0 4.75-4.16 5.66-4 .88-14.6 1.15-16.51 2.64l-.38-.68a6.72 6.72 0 003.18-6.14 3.24 3.24 0 011.47-.49c0 .84-1.07 2.71 3.92 2.7.1 0 4.69.55 2.7-5.41-.63-1.86-1.18-4-3.44-3.94 0 0-2.9.14-1.47 3 2 .43 4.34.93 4.66 2.4s-.86 2.32-1.72 2-3.21-1.71-4.89-1.71c-3.12 0-8.68 3.55-12.24-3.18 1 1.12 2 1.85 5.38 1.94s4-1.38 7.35-1.47M48.14.47c.81 0 1.83 0 3.19-.08v1l-.89.08c-.61.05-1 .5-1.3 1.31l-5.78 13.93c-.38.92-.69 1.84-1 2.76H40.2L33.56 3.53c-.33-.78-.78-1.92-1.72-2l-1.14-.09v-1c1.83-.02 3.3.03 4.3.03s2.47 0 4.55-.08v1l-1.39.08c-.42 0-.72.28-.72.53a6.55 6.55 0 00.58 2l4.36 10.78L46.36 5a10.8 10.8 0 00.86-2.74c0-.5-.47-.72-1-.75l-1.28-.08v-1c1.36 0 2.42.08 3.22.08M54.2.39v1.13l1 .09c.72 0 1 .16 1.14.38a6.71 6.71 0 01.19 2.26v11.36a6.71 6.71 0 01-.19 2.26c-.11.22-.42.33-1.14.39l-1 .08v1.13c1.14 0 2.67-.08 4.34-.08s3.16.05 4.3.08v-1.13l-1-.08c-.72-.06-1-.17-1.14-.39a7 7 0 01-.19-2.26V4.25A7 7 0 0160.67 2c.11-.22.42-.33 1.14-.38l1-.09V.39c-1.14 0-2.67.08-4.3.08s-3.2 0-4.34-.08m22.72 1.17a6.56 6.56 0 015 1.93l.11 2.4h1.09a39.27 39.27 0 01.64-4.27l-.16-.31A16 16 0 0076.78 0c-5.91 0-11.1 3.21-11.1 9.62 0 6.67 4.66 10.24 11 10.24a12.17 12.17 0 006.39-1.53l.6-1.33-.33-.33A12 12 0 0178 18.05c-5.25 0-8.19-3.68-8.19-8.79 0-4.41 2.44-7.7 7-7.7M95.12.48c-2.8 0-5.68-.06-8.6-.09l-.17.14A31.59 31.59 0 0186.71 5h1.13L88 3a1.27 1.27 0 01.25-.67c.2-.25 1-.25 1.72-.25h3.24v13.53a7 7 0 01-.21 2.26c-.11.22-.42.33-1.14.39l-1 .08v1.13c1.13 0 2.66-.08 4.32-.08s3.16.05 4.3.08v-1.13l-1-.08c-.73-.06-1-.17-1.14-.39a6.71 6.71 0 01-.19-2.26V2.12h3.24c.74 0 1.52 0 1.71.25a1.12 1.12 0 01.25.67l.09 1.96h1.13a31.73 31.73 0 01.35-4.43l-.16-.14c-2.92 0-5.81.09-8.64.09m31.39 9.28c0 6.59-4.19 10.1-10.55 10.1s-10-3.4-10-9.76C106 3.51 110.16 0 116.52 0s10 3.4 10 9.76m-4.16.51c0-4.61-1.92-8.71-5.83-8.71-5.17 0-6.39 3.88-6.39 8.06 0 4.61 1.92 8.68 5.83 8.68 5.17 0 6.39-3.85 6.39-8m23.4 6.82l-5-7.64c2.3-.83 4.14-2.48 4.14-4.93 0-3.32-2.61-4.19-5.44-4.13-1.89 0-3.75.09-5.64.09-1.42 0-2.83-.06-4.67-.09v1l1 .08c.72.05 1 .19 1.14.47a6.71 6.71 0 01.19 2.26v11.38a6.71 6.71 0 01-.19 2.26c-.11.22-.42.33-1.14.39l-1 .08v1.13c1.14 0 2.67-.08 4.34-.08s3.16.05 4.3.08v-1.13l-1-.08c-.72-.06-1-.17-1.14-.39a7 7 0 01-.19-2.26V2a4.34 4.34 0 011.77-.25c2.17 0 3.75 1.22 3.75 3.51a3.81 3.81 0 01-4.44 4l-.19.51 6.22 9.68c.83 0 1.66-.08 2.49-.08s1.81.05 2.7.08v-1.11a2.73 2.73 0 01-1.14-.39 4.36 4.36 0 01-.81-.86m4.8-16.7v1.13l1 .09c.73 0 1 .16 1.14.38a6.71 6.71 0 01.19 2.26v11.36a6.71 6.71 0 01-.19 2.26c-.11.22-.41.33-1.14.39l-1 .08v1.13c1.13 0 2.66-.08 4.33-.08s3.16.05 4.3.08v-1.13l-1-.08c-.72-.06-1-.17-1.14-.39a7 7 0 01-.19-2.26V4.25A7 7 0 01157 2c.12-.22.42-.33 1.14-.38l1-.09V.39c-1.14 0-2.67.08-4.3.08s-3.2 0-4.33-.08m32.1 18v1c-1.86 0-3.22-.08-4.3-.08s-2.48.05-4.31.08v-1l1.47-.09c.45 0 .75-.64.39-1.53l-1.25-3.17h-7l-1.16 3.12c-.39 1.06.16 1.55.66 1.58l1.39.09v1c-1.33 0-2.33-.08-3.14-.08s-1.8.05-3.13.08v-1l.83-.09c.72-.08 1.22-.86 1.56-1.67l5-12.21.72-1.92.44-1.14.42-1.15h2l7.2 16.87a1.71 1.71 0 001.6 1.26zM174 12.08L171.13 5l-2.78 7.09zM11.05 41.82V31.21a6.84 6.84 0 00-.2-2.35c-.14-.29-.43-.44-1.18-.49l-1.07-.09v-1.09c1.18 0 2.77.09 4.51.09s3.29-.06 4.47-.09v1.09l-1.06.09c-.76.05-1 .2-1.19.49a7.12 7.12 0 00-.2 2.35v7.19c0 4.09.26 6.67 5.14 6.67s5.38-2.67 5.38-6.88v-7a6.76 6.76 0 00-.21-2.35c-.14-.29-.43-.44-1.18-.49l-1.07-.09v-1.07c1.1 0 2.23.09 3.32.09s2.2-.06 3.3-.09v1.09l-1.07.09c-.76.05-1 .2-1.19.49a7.12 7.12 0 00-.2 2.35v8.47c0 5.3-2.8 7.77-8 7.77-5.46 0-8.27-2.35-8.27-5.63M35.14 43V31.21a7 7 0 00-.21-2.35c-.14-.29-.43-.44-1.18-.5l-1.07-.08v-1.09c1.15 0 2.31.08 3.47.08.81 0 1.62-.05 2.42-.08 1 1.29 1.94 2.65 3 3.87l9 10.56V31.21a6.84 6.84 0 00-.2-2.35c-.14-.29-.43-.44-1.18-.5l-1.07-.08v-1.09c1.1 0 2.22.08 3.32.08s2.2-.05 3.3-.08v1.09l-1.07.08c-.75.06-1 .21-1.19.5a7.12 7.12 0 00-.2 2.35v13.17c0 1 .06 2.06.09 2.92l-2.58-.3c-1.19-1.33-2.4-2.69-3.53-4L36.9 31.7 36.84 43a7.12 7.12 0 00.2 2.35c.15.29.44.43 1.19.49l1.07.16v1H36c-1.1 0-2.22 0-3.32.08V46l1.07-.09c.75-.06 1-.2 1.18-.49a7 7 0 00.21-2.42m29.2-11.8V43a7.12 7.12 0 00.2 2.35c.12.23.44.35 1.19.4l1.06.09V47h-8.98v-1.13l1.07-.09c.75-.05 1.07-.17 1.18-.4a6.76 6.76 0 00.21-2.38V31.2a6.72 6.72 0 00-.21-2.34c-.11-.24-.43-.35-1.18-.41l-1.07-.08v-1.18c1.18 0 2.77.09 4.51.09s3.29-.06 4.47-.09v1.18l-1.06.08c-.75.06-1.07.17-1.19.41a7.08 7.08 0 00-.2 2.34m12.77-.2l4.53 11.23L85.75 32a11 11 0 00.89-2.84c0-.53-.49-.76-1.07-.78l-1.33-.09v-1.1c1.42 0 2.52.09 3.35.09s1.91-.06 3.33-.09v1.09l-.93.09c-.63.05-1 .52-1.35 1.36l-6 14.44c-.41 1-.73 1.92-1.11 2.87h-2.2l-6.9-16.59c-.35-.81-.81-2-1.8-2.08l-1.18-.09v-1.09c1.91 0 3.38.09 4.51.09s2.57-.06 4.73-.09v1.09l-1.44.09c-.43 0-.75.28-.75.54a6.66 6.66 0 00.61 2.09M100 29v7c.66.06 1.3.06 1.94.06h1.9c1 0 1.59-.06 1.65-.61l.17-1.66h1.16c0 1.05-.09 2.06-.09 3.11s.06 2.09.09 3.13h-1.16l-.17-1.45c-.09-.81-.64-1.07-1.65-1.07h-1.9c-.64 0-1.28 0-1.94.08v7.75c1.21.06 2.46.09 3.7.09s3.47-.26 3.53-.49l.67-2.73h1.1l-.32 4.58a40.88 40.88 0 01-7.27.32C100.22 47 99 47 97.85 47s-2.4 0-3.46.08v-.66l.92-.52c.46-.27.57-.76.57-1.66v-13a7.08 7.08 0 00-.2-2.35c-.14-.29-.43-.44-1.18-.5l-1.07-.08v-1.12c1.91 0 3.38.09 4.51.09 2.71 0 4.68-.06 6.33-.09a37.84 37.84 0 014.21.09l-.23 4.32h-1l-.25-2.17c-.06-.44-2-.56-3.32-.56s-2.49 0-3.7.09M114.87 43V31.21a6.84 6.84 0 00-.2-2.35c-.14-.29-.43-.44-1.18-.5l-1.07-.08v-1.09c1.91 0 3.38.09 4.85.09 2 0 3.9-.06 5.87-.09 3-.06 5.66.84 5.66 4.29 0 2.56-1.9 4.27-4.3 5.14l5.23 7.94a4.13 4.13 0 00.83.9 3 3 0 001.19.41V47c-.92 0-1.88-.08-2.81-.08s-1.73 0-2.6.08l-6.47-10 .2-.52a4 4 0 004.63-4.14c0-2.38-1.65-3.66-3.9-3.66a4.72 4.72 0 00-1.85.26V43a7.12 7.12 0 00.2 2.35c.12.23.43.34 1.19.4l1.07.09V47c-1.19 0-2.78-.08-4.48-.08s-3.33 0-4.51.08v-1.13l1.07-.09c.75-.06 1.07-.17 1.18-.4a6.84 6.84 0 00.2-2.35m20.71-1.94h1.16l.21 2.56c.78 1.33 3 2.23 4.53 2.23 2.45 0 4.53-1.3 4.53-3.83 0-1.25-.75-2.21-2.4-2.7l-4-1.22c-2.43-.72-4.22-2.43-4.22-4.93 0-4.64 3.44-6.42 7.63-6.42a14.77 14.77 0 015.37 1 43.61 43.61 0 00-.26 4.47h-1.23l-.17-2.38a5.43 5.43 0 00-3.84-1.59c-2.69 0-4 1.56-4 3.51 0 1.3.93 2.26 3.06 2.81l3.3.87c2.65.7 4.36 2.38 4.36 5 0 4.94-4.08 7-8.46 7a13.88 13.88 0 01-6.05-1.34 24.65 24.65 0 00.44-5m24.6-9.93V43a6.76 6.76 0 00.21 2.35c.11.23.43.35 1.18.4l1.07.09V47c-1.18 0-2.78-.08-4.48-.08s-3.32 0-4.51.08v-1.13l1.07-.09c.75-.05 1.07-.17 1.19-.4a7.12 7.12 0 00.2-2.35V31.2a7.08 7.08 0 00-.2-2.34c-.12-.24-.44-.35-1.19-.41l-1.07-.08v-1.18c1.19 0 2.78.09 4.51.09s3.3-.06 4.48-.09v1.18l-1.07.08c-.75.06-1.07.17-1.18.41a6.72 6.72 0 00-.21 2.34m16.6-2.2v14a6.84 6.84 0 00.2 2.35c.11.23.43.35 1.18.4l1.07.09V47c-1.18 0-2.77-.08-4.48-.08s-3.31 0-4.5.08v-1.13l1.07-.09c.75-.05 1.07-.17 1.18-.4a7.12 7.12 0 00.2-2.35V29h-3.37c-.78 0-1.59 0-1.79.26a1.39 1.39 0 00-.25.7l-.15 2h-1.17a32.61 32.61 0 00-.37-4.62c3.21-.11 6.21 0 9.13 0s5.94-.06 9-.09c-.06 1.54-.14 2.87-.2 4.76h-1.19l-.14-2a1.39 1.39 0 00-.26-.7c-.21-.26-1-.26-1.79-.26zm20.35 7.6l5.43-9.32h2.23v.55l-5.09 7.55a18.77 18.77 0 00-1.53 2.91V43a6.82 6.82 0 00.21 2.36c.11.23.43.35 1.18.4l1.07.09V47c-1.19 0-2.78-.08-4.48-.08s-3.32 0-4.51.08v-1.13l1.07-.09c.75-.05 1.07-.17 1.19-.4a7.19 7.19 0 00.2-2.36V39a18.82 18.82 0 00-1.27-2.47l-2.92-4.73a17.08 17.08 0 00-1.5-2 2.7 2.7 0 00-2.26-1v-1l4.6-1a8.74 8.74 0 013.29 3.9zM178 53.85c-6.62 0-11 3.66-11 10.51 0 6.62 3.93 10.16 10.4 10.16s11-3.66 11-10.5c0-6.62-3.93-10.17-10.4-10.17m-.58 19.05c-4.07 0-6.07-4.24-6.07-9 0-4.36 1.28-8.39 6.65-8.39 4.07 0 6.07 4.27 6.07 9.06 0 4.35-1.28 8.36-6.65 8.36m16.34-2.83V58.28a7.12 7.12 0 00-.2-2.35c-.15-.29-.43-.43-1.18-.49l-1.07-.09v-1.09c1.15 0 2.31.09 3.46.09.81 0 1.62-.06 2.43-.09 1 1.29 1.94 2.66 3 3.87l9 10.56V58.28a7.12 7.12 0 00-.2-2.35c-.14-.29-.44-.43-1.18-.49l-1.07-.09v-1.09c1.09 0 2.22.09 3.32.09s2.2-.06 3.29-.09v1.09l-1.06.09c-.76.06-1 .2-1.19.49a7.12 7.12 0 00-.2 2.35v13.17c0 1 0 2.06.08 2.93l-2.57-.26c-1.18-1.34-2.4-2.7-3.53-4.05l-9.36-11.3-.05 11.33a6.84 6.84 0 00.2 2.35c.14.29.44.43 1.18.49l1.07.09v1.08c-1.09 0-2.19-.08-3.29-.08s-2.23.06-3.32.08V73l1.07-.09c.75-.06 1-.2 1.18-.49a7.12 7.12 0 00.2-2.35M8.78 67.94l4.31-10.22 1.47-3.6h1.3c.46 1.33.92 2.61 1.42 3.87l3.93 9.86L24 57a3.46 3.46 0 00.12-1c0-.34-.52-.54-1-.57l-1.33-.09v-1.08c1.3 0 2.31.09 3.13.09s1.79-.06 3.11-.09v1.09l-.95.09c-.52.06-.89.78-1.24 2L22.33 70c-.38 1.36-.63 2.76-.95 4.15h-2.11c-.38-1-.69-2-1.1-3.05l-4.3-10.88-4.48 10.27c-.52 1.19-.9 2.41-1.36 3.63H6L2 56.65c-.2-.84-.54-1.15-1.07-1.21L0 55.35v-1.09c1.9 0 3.38.09 4.51.09s2.57-.06 3.87-.09v1.09l-1.22.09c-.37 0-.86.34-.86.66a3.91 3.91 0 00.09.82l2.33 11zM37.41 56v7c.66.06 1.3.06 1.93.06h1.91c1 0 1.59-.06 1.65-.61l.17-1.65h1.16c0 1-.09 2.05-.09 3.1s.06 2.1.09 3.1h-1.16l-.17-1.45c-.09-.81-.64-1.07-1.65-1.07h-1.91c-.63 0-1.27 0-1.93.08v7.75c1.21.06 2.45.09 3.7.09s3.46-.26 3.52-.49l.67-2.73h1.13l-.31 4.59a40.88 40.88 0 01-7.27.32c-1.18 0-2.37-.09-3.55-.09s-2.4.06-3.47.09v-.67l.93-.52c.46-.27.57-.76.57-1.66v-13a7.12 7.12 0 00-.2-2.35c-.15-.29-.44-.44-1.18-.49l-1.07-.09v-1.05c1.91 0 3.37.09 4.51.09 2.71 0 4.67-.06 6.32-.09a38.21 38.21 0 014.23.09l-.24 4.32h-1l-.23-2.17c-.06-.44-2-.56-3.32-.56s-2.49 0-3.7.09m18.37 2.25v14.07c1.21.05 2.45.08 3.7.08s3.48-.26 3.48-.49l.67-3h1.14l-.32 4.82a42.85 42.85 0 01-7.27.32c-1.18 0-2.37-.09-3.55-.09s-2.4.06-3.47.09v-.67l.93-.52c.45-.27.57-.76.57-1.66v-13a6.84 6.84 0 00-.2-2.35c-.12-.23-.43-.35-1.18-.4l-1.07-.09v-1.13c1.18 0 2.77.09 4.51.09s3.29-.06 4.47-.09v1.18l-1.07.09c-.75 0-1.07.17-1.18.4a7.12 7.12 0 00-.2 2.35m18.44 0v14.07c1.22.05 2.46.08 3.7.08s3.47-.26 3.53-.49l.67-3h1.13l-.31 4.82a42.85 42.85 0 01-7.27.32c-1.19 0-2.37-.09-3.55-.09s-2.4.06-3.47.09v-.67l.92-.52c.46-.27.58-.76.58-1.66v-13a6.76 6.76 0 00-.21-2.35c-.1-.23-.42-.35-1.18-.4l-1.07-.09v-1.13c1.19 0 2.78.09 4.51.09s3.3-.06 4.48-.09v1.18l-1.07.09c-.75 0-1.07.17-1.18.4a6.76 6.76 0 00-.21 2.35m18.02 0V70.1a6.76 6.76 0 00.21 2.35c.11.23.43.35 1.18.4l1.07.09v1.18c-1.19 0-2.77-.09-4.48-.09s-3.32.06-4.51.09v-1.18l1.07-.09c.76 0 1.07-.17 1.19-.4a7.12 7.12 0 00.2-2.35V58.28a7.12 7.12 0 00-.2-2.35c-.12-.23-.43-.35-1.19-.4l-1.07-.09v-1.18c1.19 0 2.78.09 4.51.09s3.29-.06 4.48-.09v1.18l-1.07.09c-.75 0-1.07.17-1.18.4a6.76 6.76 0 00-.21 2.35m7.81 11.82V58.28a7.12 7.12 0 00-.2-2.35c-.15-.29-.44-.43-1.19-.49l-1.07-.09v-1.09c1.16 0 2.31.09 3.47.09.81 0 1.62-.06 2.43-.09 1 1.29 1.93 2.66 3 3.87l9 10.56V58.28a7.12 7.12 0 00-.2-2.35c-.14-.29-.44-.43-1.19-.49l-1.1-.09v-1.09c1.1 0 2.23.09 3.33.09s2.19-.06 3.29-.09v1.09l-1.06.09c-.76.06-1 .2-1.19.49a7.12 7.12 0 00-.2 2.35v13.17c0 1 0 2.06.08 2.93l-2.57-.26c-1.19-1.34-2.4-2.7-3.53-4.05l-9.36-11.3V70.1a6.84 6.84 0 00.2 2.35c.14.29.43.43 1.18.49l1.07.09v1.08c-1.1 0-2.2-.08-3.3-.08s-2.22.06-3.32.08V73l1.07-.09c.75-.06 1-.2 1.19-.49a7.12 7.12 0 00.2-2.35m42.37-2.02v4.73a22.9 22.9 0 01-8.45 1.74c-6.58 0-11.43-3.71-11.43-10.65 0-6.68 5.4-10 11.55-10a20.09 20.09 0 017.95 1.37c-.12 1.36-.35 3.51-.49 4.76h-1.14l-.14-2.5c-1.13-1.33-3.7-2-6.06-2-4.8 0-7.34 3.43-7.34 8 0 5 2.57 9.41 7.77 9.41a10 10 0 003.67-.73v-3.84c0-.9-.72-1-1.64-1.07l-1.54-.06V66c1.42 0 2.83.09 4.25.09s2.8-.06 4.22-.09v1c-1 .2-1.18.32-1.18 1m15.05-11.94v14a7.12 7.12 0 00.2 2.35c.12.23.44.35 1.19.41l1.07.08v1.18c-1.18 0-2.77-.09-4.48-.09s-3.32.06-4.5.09v-1.14l1.07-.08c.75-.06 1.07-.18 1.18-.41a6.84 6.84 0 00.2-2.35v-14h-3.37c-.78 0-1.59 0-1.79.26a1.3 1.3 0 00-.26.7l-.14 2h-1.17a32.32 32.32 0 00-.38-4.61c3.22-.12 6.22-.06 9.13-.06s6-.06 9-.09c-.06 1.54-.15 2.88-.2 4.76h-1.17l-.14-2a1.38 1.38 0 00-.27-.7c-.2-.26-1-.26-1.78-.26z" fill="#135741"/></svg>