<svg data-name="Layer 1" xmlns="http://www.w3.org/2000/svg" viewBox="0 0 375.64 71.84"><path d="M14.82 16.87c-1.86-1.6-4.24-4.79-4.57-7a3.09 3.09 0 01.86-2.62A5.34 5.34 0 0110.82 5C12 1.5 28.05 1.35 31.35 1.45c7.53.35 9.13 0 12.83-1.45-.09-.13-1.24 5.63-8.27 5.53v.87c2.77.06 6.08-.59 8-2.91 0 2 .67 4.35-3.13 5.24-3.65.86-5.93.74-7.13 11.34-.24 3 0 5.61-4.84 6.69-4.67 1-17 1.36-19.23 3.13l-.45-.8a8 8 0 003.71-7.28 3.83 3.83 0 011.71-.58c0 1-1.24 3.21 4.57 3.21.11 0 5.46.64 3.14-6.4-.73-2.21-1.37-4.71-4-4.66 0-.05-3.38.16-1.72 3.57 2.37.5 5.06 1.1 5.43 2.83s-1 2.76-2 2.32-3.74-2-5.7-2c-3.62 0-10.1 4.19-14.25-3.76 1.2 1.32 2.33 2.19 6.27 2.3s4.66-1.64 8.55-1.75m9.69-11C21.91 4 20.59 3.3 19.67 3.49S17.08 6.54 17.1 6.4a32.12 32.12 0 017.41-.58m20 13.67v26.76H5.13a23.57 23.57 0 012.56-5c-1-.82-1.8-1.56-1.71-1.45-.09-.11 5.26-7.2 9.12-7.27a8.68 8.68 0 01-1.42-1.45c1.38-1.57 3.84-1.68 12-2.33s9.27-2.91 9.41-9.62c2 2.48 5.43 5.47 9.41.31m78.89-9a2.15 2.15 0 112.14 2.19 2.16 2.16 0 01-2.14-2.19m16.57 4a2.66 2.66 0 013.18-.7c1.42.5 2.31 1.71 2 2.76 7.06-.14 8.74-1.81 8.79-1.74-2.06 3.85-8.06 6.63-10.33 6.84 3.21 1.13 9.5 4.85 9.47 12.06 0 10.53-10 12-15.64 10.48a4.14 4.14 0 012.78 2h-25.33V25a11.86 11.86 0 014.12-2.85 1.84 1.84 0 001-1.79 9.5 9.5 0 01-5.13-3.2V5S117.93.58 125.14.58c5.75.06 8.84 5 8.84 5s2.4-2.07 7.12-2C151.76 3.5 154.22 14 154.22 14a17.26 17.26 0 00-8.82-3.79 2.27 2.27 0 01-2.32 1.68 2.34 2.34 0 01-2.24-1.39l-.87.59a2.67 2.67 0 01.15 1.1 2.56 2.56 0 01-1 1.81zm-19.23-4a4.81 4.81 0 104.8-4.9 4.85 4.85 0 00-4.8 4.9M132.55 18a7.49 7.49 0 01-3.72 2 50.76 50.76 0 016.29 0 10.73 10.73 0 01-2.57-2m-.28 9c-6.12-.28-8.5 3.46-6.45 4.88 3.89 2.7 6.42-5 6.45-4.88m4.85 1.16a9.55 9.55 0 01-3.43 5.84c1.74-.06 4.54.18 5.14-2a3.28 3.28 0 00-1.71-3.78m-97.5-7.5c-1.85 0-4.17-2.44-4-3.95 1.09-8.26 5.25-5.6 8.32-8 .88 1.16 2.16 12-4.34 12m24 3.78h32.18v21.7H63.57zm24 17.72l-1.37-2.41 1.37-2.42h-2.78l-1.36-2.41-1.37 2.41h-2.73l1.36 2.42-1.36 2.41h2.73l1.37 2.42 1.36-2.42zM80 33.35l-1.36-2.42L80 28.52h-2.74l-1.37-2.42-1.36 2.42h-2.74l1.37 2.41-1.37 2.42h2.74l1.36 2.41 1.37-2.41zm12.56 0l-1.37-2.42 1.37-2.41h-2.75l-1.36-2.42-1.37 2.42h-2.73l1.36 2.41-1.36 2.42h2.73l1.37 2.41 1.36-2.41zM75 42.16l-1.36-2.41L75 37.33h-2.73l-1.37-2.41-1.36 2.41H66.8l1.37 2.42-1.37 2.41h2.74l1.36 2.42 1.37-2.42zm4.67 29.68C78.38 71.84 47 58 47 40.4V2h65.29v38.4C112.32 58 81 71.84 79.67 71.84m0-51.85c-3.19 0-4.65 2.33-7.84 2.33S67.17 19.92 64 20c-3 .06-4.29 2.28-7.27 2.33s-5.08-2.15-7.27-2V40.4c.11 4.22 3.3 10.27 7.26 10.27 3-.05 4.3-2.26 7.28-2.32 3.19-.07 4.66 2.33 7.85 2.33s4.65-2.33 7.84-2.33 4.66 2.33 7.86 2.33 4.65-2.4 7.84-2.33c3 .06 4.29 2.27 7.27 2.32 4 0 7.16-6.05 7.27-10.27V20.28c-2.19-.11-4.33 2.09-7.27 2s-4.31-2.23-7.29-2.28c-3.19-.07-4.65 2.33-7.84 2.33S82.87 20 79.67 20M83 8.44v6.4h20v-6.4l-2.85 3.2h-4l-3.13-3.2-3.14 3.2h-4zm-26.51 0v6.4h20v-6.4l-2.85 3.2h-4l-3.14-3.2-3.13 3.2h-4zM69.7 54.1v6.4h20v-6.4l-2.9 3.2h-4l-3.14-3.2-3.13 3.2h-4zm265.03-41.6l-3-7.33-2.88 7.33zm9 6.57v1.08c-1.94 0-3.35-.08-4.48-.08s-2.57.06-4.47.08v-1.08l1.53-.08c.46 0 .78-.67.4-1.59l-1.3-3.28h-7.25l-1.21 3.23c-.4 1.09.18 1.61.69 1.64l1.45.08v1.08c-1.39 0-2.43-.08-3.27-.08s-1.87.06-3.26.08v-1.08l.87-.08c.75-.09 1.27-.9 1.61-1.73l5.23-12.64.75-2 .46-1.19.42-1.17h2.1l7.48 17.46A1.8 1.8 0 00343 19zM310.32.41v1.16l1.07.09c.75.06 1.07.17 1.18.4a6.81 6.81 0 01.2 2.34v11.76a6.81 6.81 0 01-.2 2.34c-.11.23-.43.34-1.18.4l-1.07.09v1.16c1.18 0 2.77-.08 4.5-.08s3.3.06 4.48.08V19l-1.07-.09c-.75-.06-1.07-.17-1.18-.4a7.08 7.08 0 01-.2-2.34V4.4a7.08 7.08 0 01.2-2.34c.11-.23.43-.34 1.18-.4l1.07-.09V.41c-1.18 0-2.77.08-4.48.08s-3.32-.06-4.5-.08m-5 17.28l-5.23-7.91c2.4-.86 4.31-2.56 4.31-5.1 0-3.44-2.72-4.33-5.66-4.27-2 0-3.9.08-5.87.08-1.45 0-2.87-.06-4.87-.08v1.08l1.07.08c.75.06 1 .2 1.19.49a7.08 7.08 0 01.2 2.34v11.76a7.08 7.08 0 01-.2 2.34c-.12.23-.44.34-1.19.4L288 19v1.16c1.19 0 2.77-.08 4.51-.08s3.29.06 4.47.08V19l-.98-.1c-.76-.06-1.07-.17-1.19-.4a7.08 7.08 0 01-.2-2.34v-14a4.72 4.72 0 011.85-.26c2.25 0 3.89 1.27 3.89 3.63a4 4 0 01-4.62 4.13l-.2.52 6.47 10c.87 0 1.73-.08 2.6-.08s1.88.06 2.8.08V19a2.86 2.86 0 01-1.18-.41 3.91 3.91 0 01-.84-.89M281 10.63c0-4.77-2-9-6.07-9-5.37 0-6.64 4-6.64 8.34 0 4.77 2 9 6.06 9 5.38 0 6.65-4 6.65-8.31m4.33-.52c0 6.81-4.36 10.45-11 10.45S264 17 264 10.45C264 3.64 268.32 0 274.93 0s10.4 3.52 10.4 10.11M252.69.49c-2.92 0-5.91-.06-9-.08l-.17.14a33.39 33.39 0 01.38 4.59h1.16l.15-2a1.3 1.3 0 01.26-.7c.2-.26 1-.26 1.79-.26h3.36v14a6.81 6.81 0 01-.2 2.34c-.11.23-.43.34-1.18.4l-1.06.09v1.16c1.18 0 2.76-.08 4.49-.08s3.29.06 4.47.08V19l-1.06-.09c-.75-.06-1.07-.17-1.18-.4a6.81 6.81 0 01-.2-2.34v-14h3.37c.77 0 1.58 0 1.78.26a1.3 1.3 0 01.26.7l.15 2h1.16a33.39 33.39 0 01.38-4.59l-.18-.14c-3 0-6 .08-9 .08m-19 1.13a6.86 6.86 0 015.19 2l.15 2.48h1.14a36.94 36.94 0 01.66-4.41l-.17-.32A16.5 16.5 0 00233.61 0c-6.15 0-11.55 3.32-11.55 10 0 6.9 4.86 10.6 11.43 10.6a12.73 12.73 0 006.65-1.6l.63-1.41-.34-.35a12.32 12.32 0 01-5.52 1.47c-5.46 0-8.51-3.81-8.51-9.09 0-4.56 2.53-8 7.32-8M210.13.41v1.16l1.07.09c.75.06 1.07.17 1.18.4a6.81 6.81 0 01.2 2.34v11.76a6.81 6.81 0 01-.2 2.34c-.11.23-.43.34-1.18.4l-1.07.09v1.16c1.19 0 2.77-.08 4.51-.08s3.29.06 4.47.08V19l-1.11-.1c-.75-.06-1.07-.17-1.18-.4a6.81 6.81 0 01-.2-2.34V4.4a6.81 6.81 0 01.2-2.34c.11-.23.43-.34 1.18-.4l1.07-.09V.41c-1.18 0-2.77.08-4.47.08s-3.32-.06-4.51-.08m-6.3.08c.83 0 1.9-.06 3.32-.08v1.08l-.93.08c-.63.06-1 .52-1.35 1.36l-6 14.37c-.4.95-.72 1.9-1.1 2.86h-2.19l-6.9-16.51c-.35-.81-.81-2-1.79-2.08l-1.19-.08V.41c1.91 0 3.38.08 4.51.08s2.57-.06 4.73-.08v1.08l-1.44.08c-.44 0-.75.29-.75.55a6.73 6.73 0 00.6 2.08l4.54 11.17L202 5.18a10.85 10.85 0 00.89-2.83c0-.52-.49-.75-1.07-.78l-1.32-.08V.41c1.41 0 2.51.08 3.35.08m-38.59 40.15v-11a7.21 7.21 0 00-.21-2.43c-.15-.3-.45-.45-1.23-.51l-1.11-.09V25.5c1.23 0 2.88.08 4.69.08s3.42 0 4.65-.08v1.12l-1.11.09c-.78.06-1.08.21-1.23.51a7.21 7.21 0 00-.21 2.43v7.45c0 4.23.27 6.91 5.35 6.91s5.59-2.77 5.59-7.12v-7.24a7.5 7.5 0 00-.21-2.43c-.15-.3-.45-.45-1.24-.51l-1.11-.09V25.5c1.15 0 2.31.08 3.45.08s2.29 0 3.43-.08v1.12l-1.11.09c-.78.06-1.08.21-1.23.51a7.21 7.21 0 00-.21 2.43v8.77c0 5.5-2.92 8-8.35 8-5.68 0-8.6-2.44-8.6-5.83m25.04 1.3V29.65a7.21 7.21 0 00-.21-2.43c-.15-.3-.45-.45-1.23-.51l-1.11-.09V25.5c1.2 0 2.4.08 3.6.08.85 0 1.69 0 2.53-.08 1 1.33 2 2.74 3.09 4l9.38 10.93V29.65a7.21 7.21 0 00-.21-2.43c-.15-.3-.45-.45-1.23-.51l-1.11-.09V25.5c1.14 0 2.31.08 3.45.08s2.29 0 3.43-.08v1.12l-1.12.09c-.77.06-1.08.21-1.23.51a7.3 7.3 0 00-.2 2.43v13.63c0 1.06.05 2.14.08 3l-2.67-.27c-1.23-1.38-2.49-2.79-3.67-4.19l-9.73-11.7-.06 11.73a7.21 7.21 0 00.21 2.43c.15.3.45.45 1.23.51l1.11.09v1.13c-1.14 0-2.28-.09-3.42-.09s-2.32.06-3.46.09v-1.09l1.11-.09c.78-.06 1.08-.21 1.23-.51a7.21 7.21 0 00.21-2.43m30.37-12.24v12.24a7.21 7.21 0 00.21 2.43c.13.24.46.36 1.24.42l1.1.09v1.22c-1.22 0-2.88-.09-4.65-.09s-3.46.06-4.69.09v-1.22l1.11-.09c.79-.06 1.12-.18 1.24-.42a7.21 7.21 0 00.21-2.43V29.65a7.21 7.21 0 00-.21-2.43c-.12-.24-.45-.36-1.24-.42l-1.11-.09V25.5c1.23 0 2.89.08 4.69.08s3.43 0 4.65-.08v1.21l-1.1.09c-.78.06-1.11.18-1.24.42a7.21 7.21 0 00-.21 2.43m13.33-.21l4.72 11.62 4.27-10.6a11.76 11.76 0 00.93-2.94c0-.54-.51-.78-1.11-.81l-1.39-.09V25.5c1.48 0 2.62.08 3.49.08s2 0 3.45-.08v1.12l-1 .09c-.66.06-1 .54-1.41 1.41l-6.25 15c-.42 1-.75 2-1.14 3h-2.29l-7.18-17.18c-.36-.84-.84-2.07-1.86-2.16l-1.23-.16V25.5c2 0 3.51.08 4.68.08s2.68 0 4.93-.08v1.12l-1.5.09c-.45 0-.78.3-.78.57a7 7 0 00.63 2.16m23.76-2.11v7.21c.69.06 1.35.06 2 .06h2c1.06 0 1.66-.06 1.72-.63l.18-1.71h1.2c0 1.08-.09 2.13-.09 3.21s.06 2.17.09 3.25h-1.2l-.18-1.51c-.1-.84-.66-1.11-1.72-1.11h-2c-.66 0-1.32 0-2 .09v8c1.26.06 2.55.1 3.84.1s3.61-.27 3.67-.52l.7-2.82h1.17l-.33 4.75a43.08 43.08 0 01-7.55.33c-1.23 0-2.46-.09-3.7-.09s-2.49.06-3.6.09v-.69l1-.54c.48-.28.6-.78.6-1.72V29.65a7.21 7.21 0 00-.21-2.43c-.15-.3-.45-.45-1.23-.51l-1.12-.09V25.5c2 0 3.52.09 4.7.09 2.82 0 4.86-.06 6.58-.09a36.31 36.31 0 014.38.09l-.24 4.47h-1.08l-.3-2.25c-.06-.45-2.07-.57-3.46-.57s-2.58 0-3.84.09m15.53 14.56V29.65a7.21 7.21 0 00-.21-2.43c-.15-.3-.45-.45-1.23-.51l-1.11-.09V25.5c2 0 3.51.09 5 .09 2 0 4.06-.06 6.1-.09 3.07-.06 5.89.87 5.89 4.44 0 2.64-2 4.42-4.48 5.31l5.44 8.23a4.23 4.23 0 00.87.93 3.18 3.18 0 001.24.42v1.22c-1 0-2-.09-2.92-.09s-1.8.06-2.71.09l-6.73-10.44.21-.54a4.13 4.13 0 004.81-4.29c0-2.46-1.71-3.78-4.05-3.78a5 5 0 00-1.93.27v14.62a7.5 7.5 0 00.21 2.43c.12.24.46.36 1.24.42l1.11.09v1.22c-1.23 0-2.89-.09-4.66-.09s-3.45.06-4.68.09v-1.22l1.11-.09c.78-.06 1.11-.18 1.23-.42a7.21 7.21 0 00.21-2.43m21.57-2H296l.21 2.64c.82 1.39 3.15 2.32 4.71 2.32 2.56 0 4.71-1.36 4.71-4 0-1.29-.77-2.28-2.49-2.8l-4.2-1.26c-2.53-.75-4.39-2.52-4.39-5.1 0-4.81 3.57-6.65 7.93-6.65a15.51 15.51 0 015.59 1 43.57 43.57 0 00-.27 4.62h-1.23l-.19-2.46a5.66 5.66 0 00-4-1.65c-2.8 0-4.11 1.62-4.11 3.63 0 1.35 1 2.35 3.18 2.92l3.42.9c2.77.72 4.54 2.46 4.54 5.17 0 5.11-4.24 7.24-8.79 7.24a14.61 14.61 0 01-6.29-1.38 25.81 25.81 0 00.45-5.2m25.53-10.18v12.24a7.3 7.3 0 00.2 2.43c.12.24.45.36 1.24.42l1.11.09v1.22C321.63 46 320 46 318.2 46s-3.45.06-4.69.09v-1.26l1.12-.09c.78-.06 1.11-.18 1.23-.42a7.21 7.21 0 00.21-2.43V29.65a7.21 7.21 0 00-.21-2.43c-.12-.24-.45-.36-1.23-.42l-1.12-.09V25.5c1.24 0 2.89.08 4.69.08s3.43 0 4.66-.08v1.21l-1.11.09c-.79.06-1.12.18-1.24.42a7.3 7.3 0 00-.2 2.43m17.25-2.29v14.53a7.21 7.21 0 00.21 2.43c.12.24.45.36 1.23.42l1.11.09v1.22c-1.23 0-2.88-.09-4.65-.09s-3.45.06-4.68.09v-1.22l1.11-.09c.78-.06 1.11-.18 1.22-.42a7.21 7.21 0 00.21-2.43V27.36h-3.5c-.81 0-1.65 0-1.86.27a1.34 1.34 0 00-.27.72l-.15 2.07h-1.22a34.39 34.39 0 00-.39-4.77c3.35-.12 6.46-.06 9.5-.06s6.18-.06 9.34-.1c-.06 1.6-.15 3-.21 4.93h-1.21l-.15-2.07a1.34 1.34 0 00-.27-.72c-.22-.27-1.05-.27-1.86-.27zm21.17 7.88l5.65-9.65h2.31v.57L361.4 34a19.14 19.14 0 00-1.59 3v4.91a7.21 7.21 0 00.21 2.43c.12.24.45.36 1.23.42l1.11.09v1.22c-1.22 0-2.88-.09-4.65-.09s-3.46.06-4.69.09v-1.24l1.11-.09c.78-.06 1.11-.18 1.24-.42a7.6 7.6 0 00.2-2.43v-4.18a18.25 18.25 0 00-1.32-2.56l-3-4.9a15.57 15.57 0 00-1.57-2 2.78 2.78 0 00-2.34-1v-1.12l4.78-1.06a9.05 9.05 0 013.42 4.07zm-20.45 34.92c-4.23 0-6.31-4.39-6.31-9.35 0-4.5 1.33-8.68 6.91-8.68 4.24 0 6.31 4.42 6.31 9.38 0 4.5-1.32 8.65-6.91 8.65m.6-19.71c-6.88 0-11.42 3.79-11.42 10.88 0 6.85 4.09 10.51 10.82 10.51 6.88 0 11.42-3.78 11.42-10.87 0-6.86-4.09-10.52-10.82-10.52m16.39 16.82V55a7.12 7.12 0 00-.22-2.43c-.15-.3-.45-.45-1.23-.51l-1.11-.06v-1.13c1.2 0 2.4.09 3.61.09.84 0 1.68-.06 2.52-.09 1 1.34 2 2.75 3.09 4l9.38 10.93V55a7.21 7.21 0 00-.21-2.43c-.15-.3-.45-.45-1.23-.51l-1.11-.06v-1.13c1.14 0 2.31.09 3.45.09s2.29-.06 3.43-.09V52l-1.11.09c-.78.06-1.08.21-1.24.51a7.5 7.5 0 00-.21 2.43v13.63c0 1 .06 2.13.09 3l-2.67-.27c-1.23-1.38-2.49-2.79-3.67-4.18l-9.73-11.7-.1 11.76a7.21 7.21 0 00.21 2.43c.15.29.45.45 1.23.51l1.11.09v1.12c-1.14 0-2.28-.09-3.42-.09s-2.32.06-3.46.09V70.3l1.11-.09c.78-.06 1.08-.22 1.23-.51a7.12 7.12 0 00.22-2.43M162.89 65l4.48-10.58 1.54-3.73h1.35c.48 1.38 1 2.7 1.47 4l4.09 10.21 2.94-11.26a3.8 3.8 0 00.12-1c0-.35-.54-.56-1-.59l-1.43-.05v-1.13c1.35 0 2.4.09 3.24.09s1.87-.06 3.25-.09V52l-1 .09c-.54.06-.93.81-1.29 2.07l-3.66 13c-.4 1.41-.66 2.85-1 4.29h-2.19c-.39-1-.72-2.1-1.14-3.15L168.18 57l-4.65 10.66c-.54 1.23-.94 2.49-1.41 3.75H160l-4.17-18.07c-.22-.88-.57-1.2-1.12-1.26l-1-.09v-1.12c2 0 3.52.09 4.69.09s2.67-.06 4-.09V52l-1.26.09c-.39 0-.9.36-.9.69a4.27 4.27 0 00.1.84l2.5 11.38zm29.77-12.3v7.21a19.77 19.77 0 002 .07h2c1.05 0 1.65-.07 1.71-.64l.18-1.71h1.21c0 1.08-.09 2.13-.09 3.21s.06 2.17.09 3.25h-1.21l-.18-1.5c-.08-.84-.66-1.11-1.71-1.11h-2c-.66 0-1.33 0-2 .09v8c1.27.06 2.56.09 3.85.09s3.61-.27 3.67-.51l.69-2.83h1.18l-.33 4.75a43.12 43.12 0 01-7.55.33c-1.23 0-2.47-.09-3.7-.09s-2.5.06-3.6.09v-.69l1-.54c.48-.27.6-.78.6-1.71V55a7.53 7.53 0 00-.21-2.43c-.16-.3-.45-.44-1.23-.5l-1.15-.07v-1.13c2 0 3.5.09 4.68.09 2.83 0 4.87-.06 6.58-.09a41.09 41.09 0 014.39.09l-.24 4.48h-1.08l-.21-2.25c-.06-.46-2.08-.58-3.46-.58s-2.58 0-3.85.09m19.12 2.3v14.59c1.26.06 2.56.09 3.85.09s3.6-.27 3.66-.51l.7-3.06h1.18l-.33 5a43.2 43.2 0 01-7.56.33c-1.23 0-2.46-.09-3.69-.09s-2.5.06-3.61.09v-.69l1-.54c.48-.27.6-.78.6-1.71V55a7.21 7.21 0 00-.21-2.43c-.12-.24-.44-.36-1.23-.42l-1.17-.06v-1.22c1.23 0 2.88.09 4.69.09s3.42-.06 4.66-.09v1.22l-1.12.09c-.78.06-1.11.18-1.23.42a7.21 7.21 0 00-.21 2.43M231 55v14.59c1.26.06 2.56.09 3.85.09s3.61-.27 3.67-.51l.69-3.06h1.18l-.33 5a43.08 43.08 0 01-7.55.33c-1.24 0-2.47-.09-3.7-.09s-2.49.06-3.61.09v-.69l1-.54c.48-.27.59-.78.59-1.71V55a7 7 0 00-.21-2.43c-.11-.24-.44-.36-1.23-.42l-1.11-.09v-1.19c1.24 0 2.88.09 4.69.09s3.42-.06 4.66-.09v1.22l-1.11.09c-.79.06-1.12.18-1.23.42A6.86 6.86 0 00231 55m18.69 0v12.27a7.21 7.21 0 00.21 2.43c.12.24.45.36 1.23.42l1.11.09v1.21c-1.23 0-2.88-.09-4.65-.09s-3.46.06-4.69.09v-1.21l1.11-.09c.78-.06 1.12-.18 1.24-.42a7.21 7.21 0 00.21-2.43V55a7.18 7.18 0 00-.21-2.42c-.12-.24-.46-.36-1.24-.42l-1.11-.09v-1.2c1.23 0 2.88.09 4.69.09s3.42-.06 4.65-.09v1.22l-1.11.09c-.78.06-1.11.18-1.23.42a7.18 7.18 0 00-.21 2.42m8.12 12.25V55a7.21 7.21 0 00-.21-2.43c-.15-.3-.45-.45-1.23-.51l-1.12-.06v-1.13c1.21 0 2.41.09 3.61.09.84 0 1.69-.06 2.53-.09 1 1.34 2 2.75 3.09 4l9.38 10.93V55a7.12 7.12 0 00-.22-2.43c-.14-.3-.45-.45-1.23-.51L271.3 52v-1.13c1.14 0 2.31.09 3.46.09s2.28-.06 3.42-.09V52l-1.11.09c-.78.06-1.08.21-1.23.51a7.21 7.21 0 00-.21 2.43v13.63c0 1 .06 2.13.09 3l-2.67-.27c-1.24-1.38-2.5-2.79-3.67-4.18l-9.74-11.7-.05 11.73a7 7 0 00.21 2.43c.14.29.45.45 1.22.51l1.12.09v1.12c-1.15 0-2.29-.09-3.43-.09s-2.31.06-3.46.09V70.3l1.12-.09c.78-.06 1.08-.22 1.23-.51a7.21 7.21 0 00.21-2.43m44.09-2.13V70a24 24 0 01-8.78 1.8c-6.85 0-11.9-3.84-11.9-11 0-6.9 5.62-10.36 12-10.36a21 21 0 018.27 1.41c-.13 1.41-.37 3.64-.52 4.93h-1.18l-.15-2.59c-1.17-1.38-3.84-2.07-6.3-2.07-5 0-7.63 3.55-7.63 8.29 0 5.2 2.68 9.74 8.08 9.74a10.52 10.52 0 003.82-.75v-4c0-.93-.75-1.08-1.71-1.11l-1.6-.06V63c1.48 0 2.95.09 4.42.09s2.92-.06 4.39-.09v1c-1 .21-1.23.33-1.23 1.08m15.68-12.35v14.53a7.28 7.28 0 00.21 2.44c.12.24.45.36 1.23.42l1.11.09v1.21c-1.23 0-2.88-.09-4.65-.09s-3.45.06-4.68.09v-1.21l1.1-.09c.79-.06 1.12-.18 1.23-.42a7 7 0 00.21-2.44V52.73h-3.51c-.8 0-1.65 0-1.85.27a1.27 1.27 0 00-.27.72l-.15 2.08h-1.22a34.55 34.55 0 00-.39-4.78c3.35-.12 6.46-.06 9.5-.06s6.17-.06 9.34-.09c-.06 1.59-.15 3-.21 4.93h-1.22l-.14-2.08a1.42 1.42 0 00-.28-.72c-.21-.27-1-.27-1.86-.27z" fill="#135741"/></svg>