<svg xmlns="http://www.w3.org/2000/svg" width="317.512" height="1629.958" viewBox="0 0 317.512 1629.958">
  <g id="Group_1832" data-name="Group 1832" transform="translate(-1118.551 -11)">
    <g id="Group_1824" data-name="Group 1824" transform="translate(269.869 11)">
      <g id="Group_1696" data-name="Group 1696" transform="translate(979.499 0)">
        <path id="Path_4936" data-name="Path 4936" d="M384.978,117.3H341.719c-62.062,0-112.373-61.269-112.373-136.848v-98.92" transform="translate(-229.346 118.469)" fill="none" stroke="#7ac777" stroke-miterlimit="10" stroke-width="8"/>
        <path id="Path_4937" data-name="Path 4937" d="M407.244,79.045h-40.23c-46.461,0-84.125-45.867-84.125-102.447v-95.067" transform="translate(-251.612 118.469)" fill="none" stroke="#7ac777" stroke-miterlimit="10" stroke-width="8"/>
        <path id="Path_4938" data-name="Path 4938" d="M429.556,41.951H389.473c-29.233,0-52.931-28.859-52.931-64.459v-94.961" transform="translate(-273.924 117.469)" fill="none" stroke="#7ac777" stroke-miterlimit="10" stroke-width="8"/>
      </g>
      <g id="Group_1698" data-name="Group 1698" transform="translate(1135.13 161.457) rotate(90)">
        <path id="Path_4936-2" data-name="Path 4936" d="M458.756,155.631H136.936C61.309,155.631,0,105.32,0,43.258V0" transform="translate(0)" fill="none" stroke="#35a08b" stroke-miterlimit="10" stroke-width="8"/>
        <path id="Path_4937-2" data-name="Path 4937" d="M421.089,124.22H102.52C45.9,124.22,0,86.555,0,40.095V0" transform="translate(38.089 0)" fill="none" stroke="#35a08b" stroke-miterlimit="10" stroke-width="8"/>
        <path id="Path_4938-2" data-name="Path 4938" d="M382.992,93.523H64.46C28.86,93.523,0,69.825,0,40.592V0" transform="translate(76.551 0)" fill="none" stroke="#35a08b" stroke-miterlimit="10" stroke-width="8"/>
      </g>
      <g id="Group_1822" data-name="Group 1822" transform="translate(979.498 754.543) rotate(-90)">
        <path id="Path_4936-3" data-name="Path 4936" d="M458.756,0H136.936C61.309,0,0,50.312,0,112.373v43.259" transform="translate(0 0)" fill="none" stroke="#35a08b" stroke-miterlimit="10" stroke-width="8"/>
        <path id="Path_4937-3" data-name="Path 4937" d="M421.089,0H102.52C45.9,0,0,37.664,0,84.125V124.22" transform="translate(38.088 31.412)" fill="none" stroke="#35a08b" stroke-miterlimit="10" stroke-width="8"/>
        <path id="Path_4938-3" data-name="Path 4938" d="M382.992,0H64.46C28.86,0,0,23.7,0,52.931V93.523" transform="translate(76.551 62.109)" fill="none" stroke="#35a08b" stroke-miterlimit="10" stroke-width="8"/>
      </g>
    </g>
    <g id="Group_1816" data-name="Group 1816" transform="translate(259.474 993.104)" opacity="0.145">
      <g id="Group_1699" data-name="Group 1699" transform="translate(863.577 120.241)">
        <g id="Group_1696-2" data-name="Group 1696">
          <path id="Path_4936-4" data-name="Path 4936" d="M381.876-6.2h-42.4A110.134,110.134,0,0,1,229.346-116.334V-299.7" transform="translate(-229.346 300.855)" fill="none" stroke="#469385" stroke-miterlimit="10" stroke-width="9"/>
          <path id="Path_4937-4" data-name="Path 4937" d="M407.055-36.991H365.337a82.448,82.448,0,0,1-82.449-82.448V-299.707" transform="translate(-252.235 300.859)" fill="none" stroke="#469385" stroke-miterlimit="10" stroke-width="9"/>
          <path id="Path_4938-4" data-name="Path 4938" d="M440.3-67.509H388.418a51.876,51.876,0,0,1-51.876-51.876V-300.72" transform="translate(-275.172 300.72)" fill="none" stroke="#469385" stroke-miterlimit="10" stroke-width="9"/>
        </g>
      </g>
      <g id="Group_1703" data-name="Group 1703" transform="translate(1172.089 647.853) rotate(180)">
        <g id="Group_1696-3" data-name="Group 1696" transform="translate(0 0)">
          <path id="Path_4936-5" data-name="Path 4936" d="M152.53,293.5h-42.4A110.134,110.134,0,0,1,0,183.363V0" transform="translate(0 1.158)" fill="none" stroke="#469385" stroke-miterlimit="10" stroke-width="9"/>
          <path id="Path_4937-5" data-name="Path 4937" d="M124.167,262.716H82.449A82.448,82.448,0,0,1,0,180.268V0" transform="translate(30.653 1.152)" fill="none" stroke="#469385" stroke-miterlimit="10" stroke-width="9"/>
          <path id="Path_4938-5" data-name="Path 4938" d="M103.755,233.211H51.876A51.876,51.876,0,0,1,0,181.335V0" transform="translate(61.37)" fill="none" stroke="#469385" stroke-miterlimit="10" stroke-width="9"/>
        </g>
      </g>
    </g>
    <g id="Group_1828" data-name="Group 1828" transform="translate(1123.051 588.345)" opacity="0.145">
      <g id="Group_1699-2" data-name="Group 1699" transform="translate(0 232.958)">
        <g id="Group_1696-4" data-name="Group 1696">
          <path id="Path_4936-6" data-name="Path 4936" d="M381.876-299.7h-42.4A110.134,110.134,0,0,0,229.346-189.564V-6.2" transform="translate(-229.346 299.697)" fill="none" stroke="#469385" stroke-miterlimit="10" stroke-width="9"/>
          <path id="Path_4937-6" data-name="Path 4937" d="M407.055-299.707H365.337a82.448,82.448,0,0,0-82.449,82.448V-36.991" transform="translate(-252.235 330.493)" fill="none" stroke="#469385" stroke-miterlimit="10" stroke-width="9"/>
          <path id="Path_4938-6" data-name="Path 4938" d="M440.291-300.72H388.415c-28.649,0-51.873,22.972-51.873,51.31V-70.054" transform="translate(-275.166 362.163)" fill="none" stroke="#469385" stroke-miterlimit="10" stroke-width="9"/>
        </g>
      </g>
      <g id="Group_1703-2" data-name="Group 1703" transform="translate(308.512 294.655) rotate(180)">
        <g id="Group_1696-5" data-name="Group 1696" transform="translate(0)">
          <path id="Path_4936-7" data-name="Path 4936" d="M152.53,0h-42.4A110.134,110.134,0,0,0,0,110.133V293.5" transform="translate(0 0)" fill="none" stroke="#469385" stroke-miterlimit="10" stroke-width="9"/>
          <path id="Path_4937-7" data-name="Path 4937" d="M124.167,0H82.449A82.448,82.448,0,0,0,0,82.448V262.716" transform="translate(30.653 30.786)" fill="none" stroke="#469385" stroke-miterlimit="10" stroke-width="9"/>
          <path id="Path_4938-7" data-name="Path 4938" d="M103.755,0H51.876A51.876,51.876,0,0,0,0,51.876V233.211" transform="translate(61.37 61.444)" fill="none" stroke="#469385" stroke-miterlimit="10" stroke-width="9"/>
        </g>
      </g>
    </g>
  </g>
</svg>
