<svg id="Layer_1" data-name="Layer 1" xmlns="http://www.w3.org/2000/svg" viewBox="0 0 104.79 511.19"><defs><style>.cls-1{fill:none;stroke:#fff;stroke-miterlimit:10;stroke-width:0.5px;}</style></defs><path class="cls-1" d="M22.07,203.58h4.16V178.44a5,5,0,0,1-4.05,2.83Z"/><polygon class="cls-1" points="9.92 255.35 14.15 255.35 14.15 255.55 14.14 255.53 14.15 255.53 14.15 253.94 9.92 253.94 9.92 255.35"/><rect class="cls-1" x="9.92" y="255.35" width="4.24" height="1.45"/><path class="cls-1" d="M22.06,206.61,22,225.05a2.49,2.49,0,0,1-.54,1.56,3.58,3.58,0,0,1-2.95,1.09h-4a4,4,0,0,0-3.8,2.66,10.61,10.61,0,0,0-.76,3.88v19.7h4.23V234.76a2.53,2.53,0,0,1,.54-1.56,3.56,3.56,0,0,1,3-1.08h4a4,4,0,0,0,3.79-2.66,11,11,0,0,0,.77-3.9V206.61Z"/><rect class="cls-1" x="22.06" y="205.02" width="4.17" height="1.58"/><rect class="cls-1" x="22.07" y="203.58" width="4.16" height="1.44"/><path class="cls-1" d="M14.15,256.81H9.92V281.9c1.17-1.56,2.39-2.82,4.23-2.89Z"/><path class="cls-1" d="M22.07,150.27h4.16V125.12A5,5,0,0,1,22.18,128Z"/><polygon class="cls-1" points="9.92 202.04 14.15 202.04 14.15 202.23 14.14 202.22 14.15 202.21 14.15 200.63 9.92 200.63 9.92 202.04"/><rect class="cls-1" x="9.92" y="202.04" width="4.24" height="1.45"/><path class="cls-1" d="M22.06,153.29,22,171.74a2.48,2.48,0,0,1-.54,1.55,3.55,3.55,0,0,1-2.95,1.09h-4a4,4,0,0,0-3.8,2.66,10.65,10.65,0,0,0-.76,3.88v19.71h4.23V181.44a2.48,2.48,0,0,1,.54-1.55,3.53,3.53,0,0,1,3-1.09h4a3.94,3.94,0,0,0,3.79-2.66,11,11,0,0,0,.77-3.89v-19Z"/><rect class="cls-1" x="22.06" y="151.71" width="4.17" height="1.58"/><rect class="cls-1" x="22.07" y="150.27" width="4.16" height="1.44"/><path class="cls-1" d="M14.15,203.49H9.92v25.09c1.17-1.55,2.39-2.82,4.23-2.88Z"/><path class="cls-1" d="M22.07,96.62h4.16V71.47a5,5,0,0,1-4.05,2.83Z"/><polygon class="cls-1" points="9.92 148.39 14.15 148.39 14.15 148.58 14.14 148.57 14.15 148.56 14.15 146.98 9.92 146.98 9.92 148.39"/><rect class="cls-1" x="9.92" y="148.39" width="4.24" height="1.45"/><path class="cls-1" d="M22.06,99.64,22,118.09a2.48,2.48,0,0,1-.54,1.55,3.55,3.55,0,0,1-2.95,1.09h-4a4,4,0,0,0-3.8,2.66,10.66,10.66,0,0,0-.76,3.89V147h4.23V127.79a2.48,2.48,0,0,1,.54-1.55,3.53,3.53,0,0,1,3-1.09h4a3.94,3.94,0,0,0,3.79-2.66,11,11,0,0,0,.77-3.89v-19Z"/><rect class="cls-1" x="22.06" y="98.06" width="4.17" height="1.58"/><rect class="cls-1" x="22.07" y="96.62" width="4.16" height="1.44"/><path class="cls-1" d="M14.15,149.84H9.92v25.09c1.17-1.55,2.39-2.82,4.23-2.88Z"/><path class="cls-1" d="M22.07,43.3h4.16V18.16A5,5,0,0,1,22.18,21Z"/><polygon class="cls-1" points="9.92 95.07 14.15 95.07 14.15 95.26 14.14 95.25 14.15 95.24 14.15 93.66 9.92 93.66 9.92 95.07"/><rect class="cls-1" x="9.92" y="95.07" width="4.24" height="1.45"/><path class="cls-1" d="M22.06,46.32,22,64.77a2.48,2.48,0,0,1-.54,1.55,3.55,3.55,0,0,1-2.95,1.09h-4a4,4,0,0,0-3.8,2.66A10.66,10.66,0,0,0,9.92,74v19.7h4.23V74.48a2.49,2.49,0,0,1,.54-1.56,3.56,3.56,0,0,1,3-1.09h4a3.94,3.94,0,0,0,3.79-2.66,11,11,0,0,0,.77-3.89v-19Z"/><rect class="cls-1" x="22.06" y="44.74" width="4.17" height="1.58"/><rect class="cls-1" x="22.07" y="43.3" width="4.16" height="1.44"/><path class="cls-1" d="M14.15,96.52H9.92v25.09c1.17-1.55,2.39-2.82,4.23-2.88Z"/><path class="cls-1" d="M22.07,416.57h4.16V391.43a5,5,0,0,1-4.05,2.82Z"/><polygon class="cls-1" points="9.92 468.34 14.15 468.34 14.15 468.53 14.14 468.52 14.15 468.51 14.15 466.93 9.92 466.93 9.92 468.34"/><rect class="cls-1" x="9.92" y="468.34" width="4.24" height="1.45"/><path class="cls-1" d="M22.06,419.59,22,438a2.48,2.48,0,0,1-.54,1.55,3.55,3.55,0,0,1-2.95,1.09h-4a4,4,0,0,0-3.8,2.66,10.66,10.66,0,0,0-.76,3.89v19.7h4.23V447.75a2.49,2.49,0,0,1,.54-1.56,3.56,3.56,0,0,1,3-1.09h4a3.94,3.94,0,0,0,3.79-2.66,11,11,0,0,0,.77-3.89v-19Z"/><rect class="cls-1" x="22.06" y="418.01" width="4.17" height="1.58"/><rect class="cls-1" x="22.07" y="416.57" width="4.16" height="1.44"/><path class="cls-1" d="M14.15,469.79H9.92v25.09c1.17-1.55,2.39-2.82,4.23-2.88Z"/><path class="cls-1" d="M22.07,363.25h4.16V338.11a5,5,0,0,1-4.05,2.82Z"/><polygon class="cls-1" points="9.92 415.02 14.15 415.02 14.15 415.22 14.14 415.2 14.15 415.19 14.15 413.61 9.92 413.61 9.92 415.02"/><rect class="cls-1" x="9.92" y="415.02" width="4.24" height="1.45"/><path class="cls-1" d="M22.06,366.28,22,384.72a2.51,2.51,0,0,1-.54,1.56,3.55,3.55,0,0,1-2.95,1.08h-4a4,4,0,0,0-3.8,2.66,10.7,10.7,0,0,0-.76,3.89v19.7h4.23V394.43a2.49,2.49,0,0,1,.54-1.56,3.53,3.53,0,0,1,3-1.08h4a4,4,0,0,0,3.79-2.66,11.05,11.05,0,0,0,.77-3.9v-19Z"/><rect class="cls-1" x="22.06" y="364.69" width="4.17" height="1.58"/><rect class="cls-1" x="22.07" y="363.25" width="4.16" height="1.44"/><path class="cls-1" d="M14.15,416.48H9.92v25.08c1.17-1.55,2.39-2.82,4.23-2.88Z"/><path class="cls-1" d="M22.07,309.6h4.16V284.46a5,5,0,0,1-4.05,2.82Z"/><polygon class="cls-1" points="9.92 361.37 14.15 361.37 14.15 361.57 14.14 361.55 14.15 361.55 14.15 359.96 9.92 359.96 9.92 361.37"/><rect class="cls-1" x="9.92" y="361.37" width="4.24" height="1.45"/><path class="cls-1" d="M22.06,312.63,22,331.07a2.49,2.49,0,0,1-.54,1.56,3.55,3.55,0,0,1-2.95,1.08h-4a4,4,0,0,0-3.8,2.66,10.7,10.7,0,0,0-.76,3.89V360h4.23V340.78a2.49,2.49,0,0,1,.54-1.56,3.53,3.53,0,0,1,3-1.08h4a4,4,0,0,0,3.79-2.66,11.05,11.05,0,0,0,.77-3.9V312.63Z"/><rect class="cls-1" x="22.06" y="311.04" width="4.17" height="1.58"/><rect class="cls-1" x="22.07" y="309.6" width="4.16" height="1.44"/><path class="cls-1" d="M14.15,362.83H9.92v25.08c1.17-1.55,2.39-2.82,4.23-2.88Z"/><path class="cls-1" d="M22.07,256.28h4.16V231.14A5,5,0,0,1,22.18,234Z"/><polygon class="cls-1" points="9.92 308.05 14.15 308.05 14.15 308.25 14.14 308.23 14.15 308.23 14.15 306.64 9.92 306.64 9.92 308.05"/><rect class="cls-1" x="9.92" y="308.05" width="4.24" height="1.45"/><path class="cls-1" d="M22.06,259.31,22,277.75a2.49,2.49,0,0,1-.54,1.56,3.58,3.58,0,0,1-2.95,1.09h-4a4,4,0,0,0-3.8,2.66,10.61,10.61,0,0,0-.76,3.88v19.7h4.23V287.46a2.48,2.48,0,0,1,.54-1.55,3.53,3.53,0,0,1,3-1.09h4a4,4,0,0,0,3.79-2.66,11,11,0,0,0,.77-3.9V259.31Z"/><rect class="cls-1" x="22.06" y="257.73" width="4.17" height="1.58"/><rect class="cls-1" x="22.07" y="256.28" width="4.16" height="1.44"/><path class="cls-1" d="M14.15,309.51H9.92V334.6c1.17-1.56,2.39-2.82,4.23-2.89Z"/><path class="cls-1" d="M35.49,203.58H31.34V178.44a5,5,0,0,0,4.05,2.83Z"/><polygon class="cls-1" points="47.65 255.35 43.41 255.35 43.41 255.55 43.42 255.53 43.41 255.53 43.41 253.94 47.65 253.94 47.65 255.35"/><rect class="cls-1" x="43.41" y="255.35" width="4.24" height="1.45"/><path class="cls-1" d="M35.51,206.61l.06,18.44a2.49,2.49,0,0,0,.54,1.56,3.58,3.58,0,0,0,3,1.09h4a4,4,0,0,1,3.8,2.66,10.61,10.61,0,0,1,.76,3.88v19.7H43.41V234.76a2.53,2.53,0,0,0-.54-1.56,3.58,3.58,0,0,0-3-1.08h-4a4,4,0,0,1-3.79-2.66,10.79,10.79,0,0,1-.77-3.9V206.61Z"/><rect class="cls-1" x="31.34" y="205.02" width="4.17" height="1.58"/><rect class="cls-1" x="31.34" y="203.58" width="4.16" height="1.44"/><path class="cls-1" d="M43.41,256.81h4.24V281.9c-1.17-1.56-2.39-2.82-4.24-2.89Z"/><path class="cls-1" d="M35.49,150.27H31.34V125.12A5,5,0,0,0,35.39,128Z"/><polygon class="cls-1" points="47.65 202.04 43.41 202.04 43.41 202.23 43.42 202.22 43.41 202.21 43.41 200.63 47.65 200.63 47.65 202.04"/><rect class="cls-1" x="43.41" y="202.04" width="4.24" height="1.45"/><path class="cls-1" d="M35.51,153.29l.06,18.45a2.48,2.48,0,0,0,.54,1.55,3.55,3.55,0,0,0,3,1.09h4a4,4,0,0,1,3.8,2.66,10.65,10.65,0,0,1,.76,3.88v19.71H43.41V181.44a2.48,2.48,0,0,0-.54-1.55,3.55,3.55,0,0,0-3-1.09h-4a3.94,3.94,0,0,1-3.79-2.66,10.75,10.75,0,0,1-.77-3.89v-19Z"/><rect class="cls-1" x="31.34" y="151.71" width="4.17" height="1.58"/><rect class="cls-1" x="31.34" y="150.27" width="4.16" height="1.44"/><path class="cls-1" d="M43.41,203.49h4.24v25.09c-1.17-1.55-2.39-2.82-4.24-2.88Z"/><path class="cls-1" d="M35.49,96.62H31.34V71.47a5,5,0,0,0,4.05,2.83Z"/><polygon class="cls-1" points="47.65 148.39 43.41 148.39 43.41 148.58 43.42 148.57 43.41 148.56 43.41 146.98 47.65 146.98 47.65 148.39"/><rect class="cls-1" x="43.41" y="148.39" width="4.24" height="1.45"/><path class="cls-1" d="M35.51,99.64l.06,18.45a2.48,2.48,0,0,0,.54,1.55,3.55,3.55,0,0,0,3,1.09h4a4,4,0,0,1,3.8,2.66,10.66,10.66,0,0,1,.76,3.89V147H43.41V127.79a2.48,2.48,0,0,0-.54-1.55,3.55,3.55,0,0,0-3-1.09h-4a3.94,3.94,0,0,1-3.79-2.66,10.75,10.75,0,0,1-.77-3.89v-19Z"/><rect class="cls-1" x="31.34" y="98.06" width="4.17" height="1.58"/><rect class="cls-1" x="31.34" y="96.62" width="4.16" height="1.44"/><path class="cls-1" d="M43.41,149.84h4.24v25.09c-1.17-1.55-2.39-2.82-4.24-2.88Z"/><path class="cls-1" d="M35.49,43.3H31.34V18.16A5,5,0,0,0,35.39,21Z"/><polygon class="cls-1" points="47.65 95.07 43.41 95.07 43.41 95.26 43.42 95.25 43.41 95.24 43.41 93.66 47.65 93.66 47.65 95.07"/><rect class="cls-1" x="43.41" y="95.07" width="4.24" height="1.45"/><path class="cls-1" d="M35.51,46.32l.06,18.45a2.48,2.48,0,0,0,.54,1.55,3.55,3.55,0,0,0,3,1.09h4a4,4,0,0,1,3.8,2.66A10.66,10.66,0,0,1,47.65,74v19.7H43.41V74.48a2.49,2.49,0,0,0-.54-1.56,3.58,3.58,0,0,0-3-1.09h-4a3.94,3.94,0,0,1-3.79-2.66,10.75,10.75,0,0,1-.77-3.89v-19Z"/><rect class="cls-1" x="31.34" y="44.74" width="4.17" height="1.58"/><rect class="cls-1" x="31.34" y="43.3" width="4.16" height="1.44"/><path class="cls-1" d="M43.41,96.52h4.24v25.09c-1.17-1.55-2.39-2.82-4.24-2.88Z"/><path class="cls-1" d="M35.49,416.57H31.34V391.43a5,5,0,0,0,4.05,2.82Z"/><polygon class="cls-1" points="47.65 468.34 43.41 468.34 43.41 468.53 43.42 468.52 43.41 468.51 43.41 466.93 47.65 466.93 47.65 468.34"/><rect class="cls-1" x="43.41" y="468.34" width="4.24" height="1.45"/><path class="cls-1" d="M35.51,419.59,35.57,438a2.48,2.48,0,0,0,.54,1.55,3.55,3.55,0,0,0,3,1.09h4a4,4,0,0,1,3.8,2.66,10.66,10.66,0,0,1,.76,3.89v19.7H43.41V447.75a2.49,2.49,0,0,0-.54-1.56,3.58,3.58,0,0,0-3-1.09h-4a3.94,3.94,0,0,1-3.79-2.66,10.75,10.75,0,0,1-.77-3.89v-19Z"/><rect class="cls-1" x="31.34" y="418.01" width="4.17" height="1.58"/><rect class="cls-1" x="31.34" y="416.57" width="4.16" height="1.44"/><path class="cls-1" d="M43.41,469.79h4.24v25.09c-1.17-1.55-2.39-2.82-4.24-2.88Z"/><path class="cls-1" d="M35.49,363.25H31.34V338.11a5,5,0,0,0,4.05,2.82Z"/><polygon class="cls-1" points="47.65 415.02 43.41 415.02 43.41 415.22 43.42 415.2 43.41 415.19 43.41 413.61 47.65 413.61 47.65 415.02"/><rect class="cls-1" x="43.41" y="415.02" width="4.24" height="1.45"/><path class="cls-1" d="M35.51,366.28l.06,18.44a2.51,2.51,0,0,0,.54,1.56,3.55,3.55,0,0,0,3,1.08h4a4,4,0,0,1,3.8,2.66,10.7,10.7,0,0,1,.76,3.89v19.7H43.41V394.43a2.49,2.49,0,0,0-.54-1.56,3.55,3.55,0,0,0-3-1.08h-4a4,4,0,0,1-3.79-2.66,10.83,10.83,0,0,1-.77-3.9v-19Z"/><rect class="cls-1" x="31.34" y="364.69" width="4.17" height="1.58"/><rect class="cls-1" x="31.34" y="363.25" width="4.16" height="1.44"/><path class="cls-1" d="M43.41,416.48h4.24v25.08c-1.17-1.55-2.39-2.82-4.24-2.88Z"/><path class="cls-1" d="M35.49,309.6H31.34V284.46a5,5,0,0,0,4.05,2.82Z"/><polygon class="cls-1" points="47.65 361.37 43.41 361.37 43.41 361.57 43.42 361.55 43.41 361.55 43.41 359.96 47.65 359.96 47.65 361.37"/><rect class="cls-1" x="43.41" y="361.37" width="4.24" height="1.45"/><path class="cls-1" d="M35.51,312.63l.06,18.44a2.49,2.49,0,0,0,.54,1.56,3.55,3.55,0,0,0,3,1.08h4a4,4,0,0,1,3.8,2.66,10.7,10.7,0,0,1,.76,3.89V360H43.41V340.78a2.49,2.49,0,0,0-.54-1.56,3.55,3.55,0,0,0-3-1.08h-4a4,4,0,0,1-3.79-2.66,10.83,10.83,0,0,1-.77-3.9V312.63Z"/><rect class="cls-1" x="31.34" y="311.04" width="4.17" height="1.58"/><rect class="cls-1" x="31.34" y="309.6" width="4.16" height="1.44"/><path class="cls-1" d="M43.41,362.83h4.24v25.08c-1.17-1.55-2.39-2.82-4.24-2.88Z"/><path class="cls-1" d="M35.49,256.28H31.34V231.14A5,5,0,0,0,35.39,234Z"/><polygon class="cls-1" points="47.65 308.05 43.41 308.05 43.41 308.25 43.42 308.23 43.41 308.23 43.41 306.64 47.65 306.64 47.65 308.05"/><rect class="cls-1" x="43.41" y="308.05" width="4.24" height="1.45"/><path class="cls-1" d="M35.51,259.31l.06,18.44a2.49,2.49,0,0,0,.54,1.56,3.58,3.58,0,0,0,3,1.09h4a4,4,0,0,1,3.8,2.66,10.61,10.61,0,0,1,.76,3.88v19.7H43.41V287.46a2.48,2.48,0,0,0-.54-1.55,3.55,3.55,0,0,0-3-1.09h-4a4,4,0,0,1-3.79-2.66,10.79,10.79,0,0,1-.77-3.9V259.31Z"/><rect class="cls-1" x="31.34" y="257.73" width="4.17" height="1.58"/><rect class="cls-1" x="31.34" y="256.28" width="4.16" height="1.44"/><path class="cls-1" d="M43.41,309.51h4.24V334.6c-1.17-1.56-2.39-2.82-4.24-2.89Z"/><path class="cls-1" d="M65.08,203.58h4.15V178.44a5,5,0,0,1-4,2.83Z"/><polygon class="cls-1" points="52.92 255.35 57.16 255.35 57.16 255.55 57.15 255.53 57.16 255.53 57.16 253.94 52.92 253.94 52.92 255.35"/><rect class="cls-1" x="52.92" y="255.35" width="4.24" height="1.45"/><path class="cls-1" d="M65.06,206.61,65,225.05a2.49,2.49,0,0,1-.54,1.56,3.58,3.58,0,0,1-2.95,1.09h-4a3.94,3.94,0,0,0-3.79,2.66,10.88,10.88,0,0,0-.77,3.88v19.7h4.24V234.76a2.53,2.53,0,0,1,.54-1.56,3.58,3.58,0,0,1,3-1.08h4a4,4,0,0,0,3.8-2.66,10.74,10.74,0,0,0,.76-3.9V206.61Z"/><rect class="cls-1" x="65.07" y="205.02" width="4.17" height="1.58"/><rect class="cls-1" x="65.08" y="203.58" width="4.16" height="1.44"/><path class="cls-1" d="M57.16,256.81H52.92V281.9c1.17-1.56,2.39-2.82,4.24-2.89Z"/><path class="cls-1" d="M65.08,150.27h4.15V125.12a5,5,0,0,1-4,2.83Z"/><polygon class="cls-1" points="52.92 202.04 57.16 202.04 57.16 202.23 57.15 202.22 57.16 202.21 57.16 200.63 52.92 200.63 52.92 202.04"/><rect class="cls-1" x="52.92" y="202.04" width="4.24" height="1.45"/><path class="cls-1" d="M65.06,153.29,65,171.74a2.48,2.48,0,0,1-.54,1.55,3.55,3.55,0,0,1-2.95,1.09h-4A3.94,3.94,0,0,0,53.69,177a10.92,10.92,0,0,0-.77,3.88v19.71h4.24V181.44a2.48,2.48,0,0,1,.54-1.55,3.55,3.55,0,0,1,3-1.09h4a4,4,0,0,0,3.8-2.66,10.7,10.7,0,0,0,.76-3.89v-19Z"/><rect class="cls-1" x="65.07" y="151.71" width="4.17" height="1.58"/><rect class="cls-1" x="65.08" y="150.27" width="4.16" height="1.44"/><path class="cls-1" d="M57.16,203.49H52.92v25.09c1.17-1.55,2.39-2.82,4.24-2.88Z"/><path class="cls-1" d="M65.08,96.62h4.15V71.47a5,5,0,0,1-4,2.83Z"/><polygon class="cls-1" points="52.92 148.39 57.16 148.39 57.16 148.58 57.15 148.57 57.16 148.56 57.16 146.98 52.92 146.98 52.92 148.39"/><rect class="cls-1" x="52.92" y="148.39" width="4.24" height="1.45"/><path class="cls-1" d="M65.06,99.64,65,118.09a2.48,2.48,0,0,1-.54,1.55,3.55,3.55,0,0,1-2.95,1.09h-4a3.94,3.94,0,0,0-3.79,2.66,10.93,10.93,0,0,0-.77,3.89V147h4.24V127.79a2.48,2.48,0,0,1,.54-1.55,3.55,3.55,0,0,1,3-1.09h4a4,4,0,0,0,3.8-2.66,10.7,10.7,0,0,0,.76-3.89v-19Z"/><rect class="cls-1" x="65.07" y="98.06" width="4.17" height="1.58"/><rect class="cls-1" x="65.08" y="96.62" width="4.16" height="1.44"/><path class="cls-1" d="M57.16,149.84H52.92v25.09c1.17-1.55,2.39-2.82,4.24-2.88Z"/><path class="cls-1" d="M65.08,43.3h4.15V18.16a5,5,0,0,1-4,2.82Z"/><polygon class="cls-1" points="52.92 95.07 57.16 95.07 57.16 95.26 57.15 95.25 57.16 95.24 57.16 93.66 52.92 93.66 52.92 95.07"/><rect class="cls-1" x="52.92" y="95.07" width="4.24" height="1.45"/><path class="cls-1" d="M65.06,46.32,65,64.77a2.48,2.48,0,0,1-.54,1.55,3.55,3.55,0,0,1-2.95,1.09h-4a4,4,0,0,0-3.79,2.66A10.93,10.93,0,0,0,52.92,74v19.7h4.24V74.48a2.49,2.49,0,0,1,.54-1.56,3.58,3.58,0,0,1,3-1.09h4a4,4,0,0,0,3.8-2.66,10.7,10.7,0,0,0,.76-3.89v-19Z"/><rect class="cls-1" x="65.07" y="44.74" width="4.17" height="1.58"/><rect class="cls-1" x="65.08" y="43.3" width="4.16" height="1.44"/><path class="cls-1" d="M57.16,96.52H52.92v25.09c1.17-1.55,2.39-2.82,4.24-2.88Z"/><path class="cls-1" d="M65.08,416.57h4.15V391.43a5,5,0,0,1-4,2.82Z"/><polygon class="cls-1" points="52.92 468.34 57.16 468.34 57.16 468.53 57.15 468.52 57.16 468.51 57.16 466.93 52.92 466.93 52.92 468.34"/><rect class="cls-1" x="52.92" y="468.34" width="4.24" height="1.45"/><path class="cls-1" d="M65.06,419.59,65,438a2.48,2.48,0,0,1-.54,1.55,3.55,3.55,0,0,1-2.95,1.09h-4a4,4,0,0,0-3.79,2.66,10.93,10.93,0,0,0-.77,3.89v19.7h4.24V447.75a2.49,2.49,0,0,1,.54-1.56,3.58,3.58,0,0,1,3-1.09h4a4,4,0,0,0,3.8-2.66,10.7,10.7,0,0,0,.76-3.89v-19Z"/><rect class="cls-1" x="65.07" y="418.01" width="4.17" height="1.58"/><rect class="cls-1" x="65.08" y="416.57" width="4.16" height="1.44"/><path class="cls-1" d="M57.16,469.79H52.92v25.09c1.17-1.55,2.39-2.82,4.24-2.88Z"/><path class="cls-1" d="M65.08,363.25h4.15V338.11a5,5,0,0,1-4,2.82Z"/><polygon class="cls-1" points="52.92 415.02 57.16 415.02 57.16 415.22 57.15 415.2 57.16 415.19 57.16 413.61 52.92 413.61 52.92 415.02"/><rect class="cls-1" x="52.92" y="415.02" width="4.24" height="1.45"/><path class="cls-1" d="M65.06,366.28,65,384.72a2.51,2.51,0,0,1-.54,1.56,3.55,3.55,0,0,1-2.95,1.08h-4A4,4,0,0,0,53.69,390a11,11,0,0,0-.77,3.89v19.7h4.24V394.43a2.49,2.49,0,0,1,.54-1.56,3.55,3.55,0,0,1,3-1.08h4a4,4,0,0,0,3.8-2.66,10.78,10.78,0,0,0,.76-3.9v-19Z"/><rect class="cls-1" x="65.07" y="364.69" width="4.17" height="1.58"/><rect class="cls-1" x="65.08" y="363.25" width="4.16" height="1.44"/><path class="cls-1" d="M57.16,416.48H52.92v25.08c1.17-1.55,2.39-2.82,4.24-2.88Z"/><path class="cls-1" d="M65.08,309.6h4.15V284.46a5,5,0,0,1-4,2.82Z"/><polygon class="cls-1" points="52.92 361.37 57.16 361.37 57.16 361.57 57.15 361.55 57.16 361.55 57.16 359.96 52.92 359.96 52.92 361.37"/><rect class="cls-1" x="52.92" y="361.37" width="4.24" height="1.45"/><path class="cls-1" d="M65.06,312.63,65,331.07a2.49,2.49,0,0,1-.54,1.56,3.55,3.55,0,0,1-2.95,1.08h-4a4,4,0,0,0-3.79,2.66,11,11,0,0,0-.77,3.89V360h4.24V340.78a2.49,2.49,0,0,1,.54-1.56,3.55,3.55,0,0,1,3-1.08h4a4,4,0,0,0,3.8-2.66,10.78,10.78,0,0,0,.76-3.9V312.63Z"/><rect class="cls-1" x="65.07" y="311.04" width="4.17" height="1.58"/><rect class="cls-1" x="65.08" y="309.6" width="4.16" height="1.44"/><path class="cls-1" d="M57.16,362.83H52.92v25.08c1.17-1.55,2.39-2.82,4.24-2.88Z"/><path class="cls-1" d="M65.08,256.28h4.15V231.14a5,5,0,0,1-4,2.83Z"/><polygon class="cls-1" points="52.92 308.05 57.16 308.05 57.16 308.25 57.15 308.23 57.16 308.23 57.16 306.64 52.92 306.64 52.92 308.05"/><rect class="cls-1" x="52.92" y="308.05" width="4.24" height="1.45"/><path class="cls-1" d="M65.06,259.31,65,277.75a2.49,2.49,0,0,1-.54,1.56,3.58,3.58,0,0,1-2.95,1.09h-4a3.94,3.94,0,0,0-3.79,2.66,10.88,10.88,0,0,0-.77,3.88v19.7h4.24V287.46a2.48,2.48,0,0,1,.54-1.55,3.55,3.55,0,0,1,3-1.09h4a4,4,0,0,0,3.8-2.66,10.74,10.74,0,0,0,.76-3.9V259.31Z"/><rect class="cls-1" x="65.07" y="257.73" width="4.17" height="1.58"/><rect class="cls-1" x="65.08" y="256.28" width="4.16" height="1.44"/><path class="cls-1" d="M57.16,309.51H52.92V334.6c1.17-1.56,2.39-2.82,4.24-2.89Z"/><path class="cls-1" d="M78.5,203.58H74.34V178.44a5,5,0,0,0,4,2.83Z"/><polygon class="cls-1" points="90.66 255.35 86.42 255.35 86.42 255.55 86.43 255.53 86.42 255.53 86.42 253.94 90.66 253.94 90.66 255.35"/><rect class="cls-1" x="86.42" y="255.35" width="4.24" height="1.45"/><path class="cls-1" d="M78.51,206.61l.07,18.44a2.49,2.49,0,0,0,.54,1.56,3.56,3.56,0,0,0,2.95,1.09h4a4,4,0,0,1,3.79,2.66,10.88,10.88,0,0,1,.77,3.88v19.7H86.42V234.76a2.53,2.53,0,0,0-.54-1.56,3.59,3.59,0,0,0-3-1.08h-4a4,4,0,0,1-3.8-2.66,11,11,0,0,1-.77-3.9V206.61Z"/><rect class="cls-1" x="74.34" y="205.02" width="4.17" height="1.58"/><rect class="cls-1" x="74.34" y="203.58" width="4.16" height="1.44"/><path class="cls-1" d="M86.42,256.81h4.24V281.9c-1.18-1.56-2.39-2.82-4.24-2.89Z"/><path class="cls-1" d="M78.5,150.27H74.34V125.12a5,5,0,0,0,4,2.83Z"/><polygon class="cls-1" points="90.66 202.04 86.42 202.04 86.42 202.23 86.43 202.22 86.42 202.21 86.42 200.63 90.66 200.63 90.66 202.04"/><rect class="cls-1" x="86.42" y="202.04" width="4.24" height="1.45"/><path class="cls-1" d="M78.51,153.29l.07,18.45a2.48,2.48,0,0,0,.54,1.55,3.53,3.53,0,0,0,2.95,1.09h4A4,4,0,0,1,89.89,177a10.92,10.92,0,0,1,.77,3.88v19.71H86.42V181.44a2.48,2.48,0,0,0-.54-1.55,3.56,3.56,0,0,0-3-1.09h-4a4,4,0,0,1-3.8-2.66,11,11,0,0,1-.77-3.89v-19Z"/><rect class="cls-1" x="74.34" y="151.71" width="4.17" height="1.58"/><rect class="cls-1" x="74.34" y="150.27" width="4.16" height="1.44"/><path class="cls-1" d="M86.42,203.49h4.24v25.09c-1.18-1.55-2.39-2.82-4.24-2.88Z"/><path class="cls-1" d="M78.5,96.62H74.34V71.47a5,5,0,0,0,4,2.83Z"/><polygon class="cls-1" points="90.66 148.39 86.42 148.39 86.42 148.58 86.43 148.57 86.42 148.56 86.42 146.98 90.66 146.98 90.66 148.39"/><rect class="cls-1" x="86.42" y="148.39" width="4.24" height="1.45"/><path class="cls-1" d="M78.51,99.64l.07,18.45a2.48,2.48,0,0,0,.54,1.55,3.53,3.53,0,0,0,2.95,1.09h4a4,4,0,0,1,3.79,2.66,10.93,10.93,0,0,1,.77,3.89V147H86.42V127.79a2.48,2.48,0,0,0-.54-1.55,3.56,3.56,0,0,0-3-1.09h-4a4,4,0,0,1-3.8-2.66,11,11,0,0,1-.77-3.89v-19Z"/><rect class="cls-1" x="74.34" y="98.06" width="4.17" height="1.58"/><rect class="cls-1" x="74.34" y="96.62" width="4.16" height="1.44"/><path class="cls-1" d="M86.42,149.84h4.24v25.09c-1.18-1.55-2.39-2.82-4.24-2.88Z"/><path class="cls-1" d="M78.5,43.3H74.34V18.16a5,5,0,0,0,4,2.82Z"/><polygon class="cls-1" points="90.66 95.07 86.42 95.07 86.42 95.26 86.43 95.25 86.42 95.24 86.42 93.66 90.66 93.66 90.66 95.07"/><rect class="cls-1" x="86.42" y="95.07" width="4.24" height="1.45"/><path class="cls-1" d="M78.51,46.32l.07,18.45a2.48,2.48,0,0,0,.54,1.55,3.53,3.53,0,0,0,2.95,1.09h4a4,4,0,0,1,3.79,2.66A10.93,10.93,0,0,1,90.66,74v19.7H86.42V74.48a2.49,2.49,0,0,0-.54-1.56,3.59,3.59,0,0,0-3-1.09h-4a4,4,0,0,1-3.8-2.66,11,11,0,0,1-.77-3.89v-19Z"/><rect class="cls-1" x="74.34" y="44.74" width="4.17" height="1.58"/><rect class="cls-1" x="74.34" y="43.3" width="4.16" height="1.44"/><path class="cls-1" d="M86.42,96.52h4.24v25.09c-1.18-1.55-2.39-2.82-4.24-2.88Z"/><path class="cls-1" d="M78.5,416.57H74.34V391.43a5,5,0,0,0,4,2.82Z"/><polygon class="cls-1" points="90.66 468.34 86.42 468.34 86.42 468.53 86.43 468.52 86.42 468.51 86.42 466.93 90.66 466.93 90.66 468.34"/><rect class="cls-1" x="86.42" y="468.34" width="4.24" height="1.45"/><path class="cls-1" d="M78.51,419.59,78.58,438a2.48,2.48,0,0,0,.54,1.55,3.53,3.53,0,0,0,2.95,1.09h4a4,4,0,0,1,3.79,2.66,10.93,10.93,0,0,1,.77,3.89v19.7H86.42V447.75a2.49,2.49,0,0,0-.54-1.56,3.59,3.59,0,0,0-3-1.09h-4a4,4,0,0,1-3.8-2.66,11,11,0,0,1-.77-3.89v-19Z"/><rect class="cls-1" x="74.34" y="418.01" width="4.17" height="1.58"/><rect class="cls-1" x="74.34" y="416.57" width="4.16" height="1.44"/><path class="cls-1" d="M86.42,469.79h4.24v25.09c-1.18-1.55-2.39-2.82-4.24-2.88Z"/><path class="cls-1" d="M78.5,363.25H74.34V338.11a5,5,0,0,0,4,2.82Z"/><polygon class="cls-1" points="90.66 415.02 86.42 415.02 86.42 415.22 86.43 415.2 86.42 415.19 86.42 413.61 90.66 413.61 90.66 415.02"/><rect class="cls-1" x="86.42" y="415.02" width="4.24" height="1.45"/><path class="cls-1" d="M78.51,366.28l.07,18.44a2.51,2.51,0,0,0,.54,1.56,3.53,3.53,0,0,0,2.95,1.08h4A4,4,0,0,1,89.89,390a11,11,0,0,1,.77,3.89v19.7H86.42V394.43a2.49,2.49,0,0,0-.54-1.56,3.56,3.56,0,0,0-3-1.08h-4a4,4,0,0,1-3.8-2.66,11.05,11.05,0,0,1-.77-3.9v-19Z"/><rect class="cls-1" x="74.34" y="364.69" width="4.17" height="1.58"/><rect class="cls-1" x="74.34" y="363.25" width="4.16" height="1.44"/><path class="cls-1" d="M86.42,416.48h4.24v25.08c-1.18-1.55-2.39-2.82-4.24-2.88Z"/><path class="cls-1" d="M78.5,309.6H74.34V284.46a5,5,0,0,0,4,2.82Z"/><polygon class="cls-1" points="90.66 361.37 86.42 361.37 86.42 361.57 86.43 361.55 86.42 361.55 86.42 359.96 90.66 359.96 90.66 361.37"/><rect class="cls-1" x="86.42" y="361.37" width="4.24" height="1.45"/><path class="cls-1" d="M78.51,312.63l.07,18.44a2.49,2.49,0,0,0,.54,1.56,3.53,3.53,0,0,0,2.95,1.08h4a4,4,0,0,1,3.79,2.66,11,11,0,0,1,.77,3.89V360H86.42V340.78a2.49,2.49,0,0,0-.54-1.56,3.56,3.56,0,0,0-3-1.08h-4a4,4,0,0,1-3.8-2.66,11.05,11.05,0,0,1-.77-3.9V312.63Z"/><rect class="cls-1" x="74.34" y="311.04" width="4.17" height="1.58"/><rect class="cls-1" x="74.34" y="309.6" width="4.16" height="1.44"/><path class="cls-1" d="M86.42,362.83h4.24v25.08c-1.18-1.55-2.39-2.82-4.24-2.88Z"/><path class="cls-1" d="M78.5,256.28H74.34V231.14a5,5,0,0,0,4,2.83Z"/><polygon class="cls-1" points="90.66 308.05 86.42 308.05 86.42 308.25 86.43 308.23 86.42 308.23 86.42 306.64 90.66 306.64 90.66 308.05"/><rect class="cls-1" x="86.42" y="308.05" width="4.24" height="1.45"/><path class="cls-1" d="M78.51,259.31l.07,18.44a2.49,2.49,0,0,0,.54,1.56,3.56,3.56,0,0,0,2.95,1.09h4a4,4,0,0,1,3.79,2.66,10.88,10.88,0,0,1,.77,3.88v19.7H86.42V287.46a2.48,2.48,0,0,0-.54-1.55,3.56,3.56,0,0,0-3-1.09h-4a4,4,0,0,1-3.8-2.66,11,11,0,0,1-.77-3.9V259.31Z"/><rect class="cls-1" x="74.34" y="257.73" width="4.17" height="1.58"/><rect class="cls-1" x="74.34" y="256.28" width="4.16" height="1.44"/><path class="cls-1" d="M86.42,309.51h4.24V334.6c-1.18-1.56-2.39-2.82-4.24-2.89Z"/></svg>