<?xml version="1.0" encoding="utf-8"?>
<svg width="434.50513px" height="21.527435px" viewBox="0 0 434.50513 21.527435" version="1.1"
  xmlns:xlink="http://www.w3.org/1999/xlink"
  xmlns="http://www.w3.org/2000/svg">
  <style>
        path {
        opacity: 0.3;
        }
  </style>
  <g id="Group" transform="translate(0.25 0.25)">
    <path d="M380.105 8.73309C380.699 7.04948 381.803 5.58946 383.265 4.55305C384.019 4.01233 384.857 3.59654 385.745 3.32187C386.624 3.04001 387.541 2.89596 388.465 2.89496C391.234 2.88798 393.839 4.20291 395.465 6.42925C395.972 7.13251 396.367 7.90971 396.635 8.73312C396.693 8.92301 396.724 9.12033 396.725 9.31892C396.715 10.1282 396.189 10.842 395.415 11.0962C395.227 11.1541 395.032 11.1842 394.835 11.1855C394.002 11.1888 393.265 10.6535 393.015 9.86499C392.867 9.41814 392.651 8.99629 392.375 8.61394C391.47 7.36538 390.014 6.62621 388.465 6.62818C387.936 6.62818 387.41 6.71184 386.906 6.876C386.4 7.03395 385.924 7.27213 385.495 7.58135C384.671 8.15997 384.049 8.97891 383.715 9.92453C383.396 10.8649 383.396 11.8834 383.715 12.8238C384.068 13.8906 384.588 14.8957 385.255 15.8024C387.44 18.7733 390.93 20.5206 394.635 20.4987C395.875 20.5315 397.113 20.3741 398.305 20.0321C399.5 19.6481 400.63 19.0856 401.655 18.364C403.655 16.9442 405.855 14.3925 407.075 8.6636M404.075 7.7998C403.898 9.22548 403.562 10.6273 403.075 11.9798C402.477 13.6588 401.374 15.1147 399.915 16.1499C399.159 16.6842 398.326 17.1025 397.445 17.391C396.562 17.672 395.642 17.8161 394.715 17.818C391.944 17.8208 389.34 16.5022 387.715 14.2732C387.203 13.5724 386.808 12.7947 386.545 11.9699C386.486 11.7801 386.455 11.5827 386.455 11.3841C386.457 10.5622 386.989 9.83385 387.775 9.57702C387.966 9.51896 388.165 9.48887 388.365 9.48765C389.197 9.48765 389.933 10.0218 390.185 10.8084C390.33 11.2547 390.542 11.6765 390.815 12.0592C391.724 13.3081 393.183 14.0469 394.735 14.045C395.264 14.045 395.79 13.9613 396.294 13.7972C397.788 13.2909 399.02 12.2206 399.725 10.8181C399.903 10.2902 399.995 9.73688 399.995 9.17989C399.996 8.70216 399.925 8.22696 399.785 7.77001C399.338 6.71158 398.731 5.72719 397.985 4.85095C395.799 1.87473 392.305 0.123571 388.595 0.144653C387.306 0.082348 386.015 0.212874 384.765 0.531892C383.561 0.851214 382.414 1.3536 381.365 2.02121C379.222 3.34336 377.68 5.44015 377.065 7.86926" id="Shape" fill="none" fill-rule="evenodd" stroke="#FFFFFF" stroke-width="0.5" />
    <path d="M407.035 8.75833C407.629 7.07475 408.733 5.6147 410.195 4.57832C410.949 4.0376 411.787 3.62181 412.675 3.34714C413.554 3.06589 414.472 2.92186 415.395 2.9202C418.165 2.91349 420.77 4.2287 422.395 6.45513C422.903 7.15823 423.297 7.93519 423.565 8.75836C423.624 8.94825 423.654 9.1456 423.655 9.34416C423.644 10.1561 423.113 10.8707 422.335 11.1214C422.147 11.1793 421.952 11.2095 421.755 11.2108C420.923 11.214 420.185 10.6788 419.935 9.89023C419.787 9.44341 419.571 9.02153 419.295 8.63918C418.391 7.38937 416.935 6.64981 415.385 6.65342C414.856 6.65342 414.33 6.73708 413.826 6.90127C413.321 7.06062 412.845 7.2987 412.415 7.60659C411.594 8.18803 410.973 9.00603 410.635 9.94977C410.316 10.8902 410.316 11.9086 410.635 12.849C410.992 13.9141 411.512 14.9187 412.175 15.8276C414.361 18.7972 417.85 20.5442 421.555 20.524C422.799 20.5587 424.04 20.4013 425.235 20.0573C426.431 19.6753 427.561 19.1127 428.585 18.3893C430.585 16.9695 432.785 14.4178 434.005 8.68886M431.005 7.8251C430.828 9.25078 430.493 10.6526 430.005 12.0051C429.408 13.6841 428.304 15.14 426.845 16.1752C426.077 16.713 425.23 17.1315 424.335 17.4163C423.453 17.6973 422.532 17.8413 421.605 17.8432C418.834 17.8461 416.23 16.5274 414.605 14.2985C414.094 13.5977 413.699 12.82 413.435 11.9952C413.376 11.8054 413.345 11.608 413.345 11.4094C413.345 10.4743 414.031 9.67851 414.962 9.53485C415.892 9.39116 416.789 9.94248 417.075 10.8335C417.219 11.282 417.435 11.7045 417.715 12.0845C418.619 13.3344 420.075 14.0739 421.625 14.0703C422.156 14.07 422.683 13.9861 423.186 13.8217C424.679 13.3152 425.911 12.2452 426.615 10.8434C426.794 10.3154 426.885 9.76217 426.885 9.20519C426.886 8.72746 426.815 8.25226 426.675 7.79531C426.232 6.735 425.625 5.75007 424.875 4.87625C422.69 1.89876 419.195 0.147263 415.485 0.169983C414.196 0.107647 412.905 0.238203 411.655 0.557191C410.478 0.881367 409.358 1.38369 408.335 2.04651C406.186 3.36442 404.64 5.46244 404.025 7.89456" id="Shape" fill="none" fill-rule="evenodd" stroke="#FFFFFF" stroke-width="0.5" />
    <path d="M326.234 8.73306C327.51 5.23762 330.85 2.90576 334.594 2.89493C337.364 2.88807 339.968 4.20316 341.594 6.42952C342.102 7.13272 342.496 7.9098 342.764 8.73309C342.827 8.92189 342.858 9.11996 342.854 9.31889C342.846 10.1255 342.324 10.8385 341.554 11.0961C341.363 11.1542 341.164 11.1843 340.964 11.1855C340.132 11.1887 339.394 10.6535 339.144 9.86496C338.995 9.42051 338.783 8.9993 338.514 8.61391C337.605 7.36507 336.146 6.62624 334.594 6.62815C334.065 6.62815 333.539 6.71181 333.035 6.87597C332.531 7.0382 332.056 7.27607 331.624 7.58132C330.803 8.16045 330.184 8.97958 329.854 9.9245C329.535 10.8649 329.535 11.8833 329.854 12.8237C330.207 13.8887 330.723 14.8933 331.384 15.8023C333.575 18.7722 337.067 20.5188 340.774 20.4987C343.301 20.4967 345.765 19.7127 347.823 18.2556C349.824 16.835 352.024 14.2833 353.244 8.55436M350.244 7.69052C350.067 9.1162 349.732 10.518 349.244 11.8706C348.65 13.5514 347.546 15.0083 346.084 16.0406C344.57 17.1249 342.751 17.7085 340.884 17.7087C338.113 17.7115 335.509 16.3929 333.884 14.164C333.373 13.4631 332.978 12.6855 332.714 11.8606C332.655 11.6709 332.625 11.4734 332.624 11.2748C332.624 10.3397 333.31 9.54396 334.241 9.40027C335.171 9.25661 336.068 9.80793 336.354 10.6989C336.498 11.1475 336.714 11.5699 336.994 11.95C337.899 13.1985 339.355 13.9377 340.904 13.9357C341.435 13.9355 341.962 13.8516 342.465 13.6872C342.968 13.5285 343.443 13.2942 343.874 12.9925C344.752 12.4342 345.447 11.6336 345.874 10.689C346.058 10.1622 346.149 9.60815 346.144 9.05077C346.15 8.57271 346.079 8.09675 345.934 7.64089C345.491 6.58058 344.884 5.59565 344.134 4.72183C341.953 1.74461 338.462 -0.00724716 334.754 0.0155334C333.462 -0.0467112 332.168 0.0838144 330.914 0.402773C329.721 0.740173 328.587 1.25933 327.554 1.94172C325.406 3.25962 323.859 5.35765 323.244 7.78977" id="Shape" fill="none" fill-rule="evenodd" stroke="#FFFFFF" stroke-width="0.5" />
    <path d="M353.174 8.73296C353.765 7.05008 354.865 5.58991 356.324 4.55296C357.846 3.48467 359.661 2.90587 361.524 2.89483C365.252 2.8368 368.578 5.20795 369.714 8.73299C369.783 8.92058 369.813 9.11956 369.804 9.3188C369.799 10.1328 369.266 10.8506 368.484 11.096C368.293 11.155 368.094 11.1851 367.894 11.1854C367.062 11.1887 366.324 10.6534 366.074 9.86486C365.93 9.41853 365.717 8.99665 365.444 8.61381C364.536 7.3637 363.077 6.62453 361.524 6.62808C360.993 6.62832 360.467 6.71223 359.963 6.87663C359.46 7.03886 358.985 7.27646 358.554 7.58122C357.733 8.16038 357.115 8.97951 356.784 9.92441C356.465 10.8648 356.465 11.8832 356.784 12.8236C357.137 13.8886 357.654 14.8932 358.314 15.8023C360.505 18.7722 363.997 20.5187 367.704 20.4986C368.951 20.5344 370.196 20.377 371.394 20.032C372.592 19.6521 373.722 19.0893 374.744 18.3639C376.744 16.9441 378.944 14.3924 380.164 8.6635M377.164 7.79971C376.987 9.22536 376.652 10.6272 376.164 11.9797C375.57 13.6606 374.467 15.1174 373.004 16.1498C371.491 17.2341 369.671 17.8177 367.805 17.8178C365.034 17.8192 362.431 16.501 360.805 14.2734C360.297 13.5702 359.902 12.7931 359.634 11.9698C359.575 11.7801 359.545 11.5826 359.544 11.384C359.544 10.4489 360.23 9.65312 361.161 9.50943C362.092 9.36577 362.989 9.91709 363.274 10.8081C363.419 11.2567 363.635 11.6791 363.914 12.0592C364.823 13.3093 366.282 14.0484 367.835 14.0449C368.364 14.0434 368.891 13.9597 369.394 13.7967C369.894 13.6359 370.365 13.4016 370.794 13.1017C371.673 12.5433 372.368 11.7428 372.794 10.7982C372.978 10.2714 373.069 9.71731 373.065 9.15996C373.071 8.68187 373 8.20591 372.854 7.75005C372.412 6.68977 371.804 5.70481 371.055 4.83099C368.874 1.8538 365.382 0.101913 361.674 0.124724C360.385 0.0619639 359.094 0.19249 357.845 0.511933C356.648 0.848394 355.511 1.36758 354.475 2.05091C352.326 3.36881 350.78 5.46684 350.164 7.89896" id="Shape" fill="none" fill-rule="evenodd" stroke="#FFFFFF" stroke-width="0.5" />
    <path d="M272.373 8.73293C272.953 7.05536 274.039 5.5958 275.483 4.55293C277.008 3.4827 278.827 2.90381 280.693 2.8948C284.417 2.84117 287.738 5.21147 288.873 8.73299C288.94 8.92124 288.974 9.11932 288.973 9.31877C288.966 10.1228 288.449 10.8351 287.683 11.096C287.492 11.155 287.294 11.1851 287.093 11.1854C286.262 11.1854 285.526 10.6513 285.273 9.86465C285.129 9.41835 284.916 8.99656 284.643 8.61378C283.735 7.36367 282.276 6.6245 280.723 6.62805C280.194 6.62948 279.667 6.71323 279.164 6.87621C278.66 7.03843 278.185 7.27619 277.753 7.58119C276.935 8.16321 276.317 8.98137 275.983 9.92441C275.664 10.8648 275.664 11.8832 275.983 12.8236C276.336 13.8886 276.852 14.8932 277.513 15.8022C279.704 18.7721 283.196 20.5187 286.903 20.4986C288.159 20.5002 289.408 20.3059 290.603 19.9229C291.8 19.543 292.931 18.9802 293.953 18.2547C295.953 16.8349 298.163 14.2832 299.373 8.55424M296.373 7.69041C296.196 9.11607 295.861 10.5179 295.373 11.8704C294.783 13.5506 293.683 15.0076 292.223 16.0405C291.467 16.5748 290.635 16.9932 289.753 17.2816C288.871 17.5626 287.95 17.7067 287.023 17.7086C284.254 17.7067 281.652 16.3892 280.024 14.1642C279.519 13.4605 279.128 12.6833 278.863 11.8605C278.795 11.6726 278.762 11.4743 278.763 11.2747C278.77 10.4512 279.305 9.72365 280.093 9.46766C280.284 9.40872 280.483 9.3786 280.683 9.3783C281.538 9.40117 282.273 9.98521 282.483 10.8081C282.624 11.2561 282.837 11.6786 283.113 12.0591C284.022 13.3092 285.481 14.0484 287.033 14.0449C287.563 14.0434 288.09 13.9596 288.593 13.7966C290.087 13.2902 291.319 12.2201 292.023 10.818C292.202 10.29 292.293 9.73672 292.293 9.17974C292.296 8.70116 292.222 8.2252 292.073 7.76986C291.635 6.70961 291.031 5.72452 290.283 4.85079C288.097 1.87458 284.603 0.123418 280.893 0.1445C279.604 0.0817393 278.313 0.212295 277.063 0.531739C275.867 0.868199 274.73 1.38739 273.693 2.07068C271.55 3.39481 270.006 5.49022 269.383 7.91877" id="Shape" fill="none" fill-rule="evenodd" stroke="#FFFFFF" stroke-width="0.5" />
    <path d="M299.304 8.73291C299.895 7.05063 300.995 5.59077 302.454 4.55287C303.208 4.01214 304.045 3.59636 304.934 3.32172C305.813 3.03983 306.73 2.89578 307.654 2.89478C310.423 2.88959 313.027 4.20431 314.654 6.4294C315.157 7.1349 315.552 7.91138 315.824 8.73294C315.882 8.92282 315.913 9.12015 315.914 9.31871C315.905 10.1254 315.384 10.8384 314.614 11.096C314.423 11.1549 314.224 11.185 314.024 11.1853C313.193 11.1823 312.459 10.6495 312.204 9.86484C312.059 9.41845 311.846 8.99657 311.574 8.61376C310.665 7.36365 309.206 6.62445 307.654 6.628C307.127 6.62918 306.604 6.71296 306.104 6.87622C305.596 7.03629 305.117 7.27416 304.684 7.58117C303.865 8.16315 303.247 8.98131 302.914 9.92435C302.594 10.8648 302.594 11.8831 302.914 12.8235C303.267 13.8904 303.786 14.8955 304.454 15.8022C306.639 18.7731 310.129 20.5203 313.834 20.4985C315.057 20.5272 316.278 20.3698 317.454 20.0319C318.651 19.652 319.781 19.0892 320.804 18.3638C322.804 16.944 325.014 14.3923 326.224 8.66341M323.224 7.79965C323.047 9.2253 322.711 10.6271 322.224 11.9797C321.634 13.6598 320.533 15.1168 319.074 16.1497C318.318 16.684 317.485 17.1024 316.604 17.3908C315.721 17.6718 314.8 17.8159 313.874 17.8178C311.104 17.8159 308.502 16.4984 306.874 14.2734C306.37 13.5697 305.978 12.7926 305.714 11.9697C305.644 11.7825 305.614 11.5832 305.624 11.3839C305.622 10.561 306.155 9.83106 306.944 9.57686C307.135 9.51796 307.334 9.48783 307.534 9.4875C308.365 9.4875 309.101 10.0216 309.354 10.8083C309.494 11.2562 309.707 11.6786 309.984 12.0591C310.892 13.3092 312.351 14.0484 313.904 14.0449C314.432 14.0449 314.959 13.9612 315.463 13.797C316.956 13.2908 318.189 12.2205 318.894 10.818C319.072 10.29 319.164 9.73672 319.164 9.17974C319.166 8.70116 319.092 8.2252 318.944 7.76986C318.505 6.70961 317.901 5.72452 317.154 4.85079C314.968 1.87458 311.474 0.123448 307.764 0.14453C306.475 0.0817698 305.184 0.212295 303.934 0.531739C302.737 0.8682 301.6 1.38739 300.564 2.07072C298.421 3.39287 296.879 5.48965 296.264 7.91877" id="Shape" fill="none" fill-rule="evenodd" stroke="#FFFFFF" stroke-width="0.5" />
    <path d="M218.543 8.73285C219.136 7.04927 220.24 5.58922 221.703 4.55281C222.457 4.01208 223.294 3.59633 224.183 3.32166C225.062 3.04041 225.979 2.89638 226.903 2.89471C229.672 2.88786 232.277 4.20294 233.903 6.42934C234.41 7.13253 234.805 7.90959 235.073 8.73288C235.131 8.92276 235.161 9.12012 235.163 9.31868C235.147 10.1386 234.602 10.8556 233.813 11.0959C233.625 11.1539 233.429 11.184 233.233 11.1853C232.4 11.1886 231.662 10.6533 231.413 9.86475C231.264 9.41793 231.049 8.99605 230.773 8.6137C229.869 7.36386 228.412 6.62432 226.863 6.62793C226.334 6.62793 225.807 6.71159 225.304 6.87576C224.798 7.03371 224.322 7.27189 223.893 7.58111C223.069 8.15972 222.446 8.97867 222.113 9.92429C221.793 10.8647 221.793 11.8831 222.113 12.8235C222.47 13.8887 222.989 14.8932 223.653 15.8022C225.839 18.7718 229.328 20.5187 233.033 20.4985C234.273 20.5313 235.511 20.3739 236.703 20.0318C237.899 19.6499 239.029 19.0873 240.053 18.3638C242.053 16.944 244.253 14.3923 245.473 8.66338M242.473 7.79956C242.295 9.22524 241.96 10.6271 241.473 11.9796C240.875 13.6586 239.772 15.1145 238.313 16.1497C237.557 16.6839 236.724 17.1023 235.843 17.3908C234.96 17.6718 234.039 17.8158 233.113 17.8177C230.341 17.8206 227.737 16.5019 226.112 14.273C225.601 13.5722 225.206 12.7945 224.943 11.9696C224.883 11.7799 224.853 11.5825 224.853 11.3838C224.854 10.5619 225.386 9.83364 226.173 9.57677C226.364 9.51871 226.563 9.48862 226.763 9.48741C227.579 9.5044 228.295 10.0352 228.543 10.808C228.687 11.2543 228.9 11.6762 229.173 12.059C230.082 13.3078 231.54 14.0467 233.093 14.0448C233.621 14.0448 234.148 13.9611 234.651 13.7969C236.145 13.2907 237.378 12.2204 238.083 10.8179C238.261 10.2899 238.352 9.73666 238.353 9.17968C238.354 8.70195 238.283 8.22671 238.143 7.76977C237.696 6.71137 237.089 5.72698 236.343 4.8507C234.158 1.87321 230.663 0.12172 226.953 0.144409C225.664 0.0821038 224.372 0.21266 223.123 0.531648C221.929 0.867411 220.795 1.38666 219.763 2.07062C217.614 3.38853 216.068 5.48656 215.453 7.91868" id="Shape" fill="none" fill-rule="evenodd" stroke="#FFFFFF" stroke-width="0.5" />
    <path d="M245.434 8.73288C246.031 7.05112 247.134 5.59204 248.594 4.55284C249.348 4.01211 250.185 3.59633 251.074 3.32169C251.953 3.04044 252.87 2.89641 253.794 2.89474C256.563 2.88789 259.168 4.20297 260.794 6.42937C261.301 7.13257 261.696 7.90962 261.964 8.73291C262.022 8.9228 262.052 9.12012 262.054 9.31871C262.044 10.128 261.518 10.8418 260.744 11.096C260.556 11.1539 260.36 11.184 260.164 11.1853C259.331 11.1885 258.593 10.6533 258.344 9.86475C258.195 9.41793 257.98 8.99608 257.704 8.61373C256.8 7.36389 255.343 6.62436 253.794 6.62797C253.265 6.62797 252.738 6.71163 252.235 6.87579C251.73 7.03516 251.253 7.27325 250.824 7.58114C249.571 8.4704 248.826 9.90448 248.824 11.4335C248.824 11.9053 248.898 12.3743 249.044 12.8235C249.405 13.887 249.924 14.8909 250.584 15.8022C252.772 18.7746 256.266 20.5219 259.974 20.4985C261.229 20.5001 262.478 20.3058 263.673 19.9228C264.87 19.5408 266 18.9782 267.024 18.2546C269.024 16.8348 271.224 14.2831 272.444 8.55418M269.443 7.69033C269.266 9.11601 268.931 10.5179 268.443 11.8703C267.846 13.5494 266.742 15.0053 265.283 16.0405C264.528 16.5767 263.695 16.9952 262.813 17.2816C261.931 17.5626 261.01 17.7066 260.083 17.7085C257.312 17.7114 254.708 16.3927 253.083 14.1638C252.572 13.4629 252.177 12.6853 251.913 11.8604C251.854 11.6707 251.823 11.4732 251.823 11.2746C251.823 10.3395 252.509 9.54378 253.44 9.40009C254.37 9.25643 255.267 9.80774 255.553 10.6988C255.697 11.1473 255.913 11.5698 256.193 11.9498C257.097 13.1996 258.553 13.9392 260.103 13.9355C260.634 13.9353 261.161 13.8514 261.664 13.687C262.166 13.5262 262.641 13.292 263.073 12.9923C263.948 12.431 264.643 11.6313 265.073 10.6888C265.252 10.1608 265.343 9.60757 265.343 9.05058C265.344 8.57286 265.273 8.09765 265.133 7.64071C264.69 6.5804 264.083 5.59546 263.333 4.72164C261.151 1.74573 257.66 -0.00579372 253.953 0.0153488C252.661 -0.0475025 251.366 0.0830231 250.113 0.402588C248.919 0.738321 247.785 1.2576 246.753 1.94153C244.604 3.25944 243.058 5.35746 242.443 7.78959" id="Shape" fill="none" fill-rule="evenodd" stroke="#FFFFFF" stroke-width="0.5" />
    <path d="M164.602 8.73285C165.878 5.23741 169.217 2.90554 172.962 2.89471C175.732 2.88786 178.336 4.20294 179.962 6.42931C180.47 7.1325 180.864 7.90959 181.132 8.73285C181.195 8.92167 181.226 9.11975 181.222 9.31865C181.218 10.1175 180.71 10.8282 179.952 11.0959C179.761 11.1548 179.562 11.185 179.362 11.1853C178.53 11.1885 177.792 10.6533 177.542 9.86475C177.397 9.41839 177.185 8.99651 176.912 8.6137C176.004 7.36359 174.545 6.62442 172.992 6.62793C172.463 6.62793 171.937 6.71159 171.433 6.87576C170.929 7.03798 170.454 7.27586 170.022 7.58111C169.201 8.16027 168.582 8.97937 168.252 9.92429C167.933 10.8647 167.933 11.8831 168.252 12.8235C168.605 13.8885 169.121 14.8931 169.782 15.8021C171.973 18.772 175.465 20.5186 179.172 20.4985C180.428 20.5 181.676 20.3058 182.872 19.9228C184.069 19.5429 185.199 18.9801 186.222 18.2546C188.222 16.8347 190.422 14.2831 191.642 8.55415M188.642 7.6903C188.465 9.11599 188.13 10.5178 187.642 11.8703C187.048 13.5512 185.944 15.008 184.482 16.0404C182.968 17.1247 181.149 17.7083 179.282 17.7085C176.513 17.7104 173.91 16.3927 172.283 14.1655C171.775 13.4619 171.38 12.6843 171.112 11.8604C171.053 11.6707 171.022 11.4732 171.022 11.2746C171.022 10.3395 171.708 9.54378 172.639 9.40012C173.569 9.25643 174.466 9.80774 174.752 10.6987C174.896 11.1473 175.112 11.5697 175.392 11.9498C176.297 13.1983 177.753 13.9375 179.302 13.9355C179.833 13.9353 180.36 13.8514 180.863 13.6869C181.366 13.5283 181.841 13.294 182.272 12.9923C183.15 12.434 183.845 11.6335 184.272 10.6888C184.456 10.162 184.547 9.60794 184.542 9.05056C184.548 8.5725 184.477 8.09653 184.332 7.64068C183.889 6.58037 183.282 5.59543 182.532 4.72161C180.351 1.7444 176.86 -0.00746079 173.152 0.0153198C171.86 -0.0469248 170.565 0.0836008 169.312 0.402559C168.119 0.73999 166.985 1.25915 165.952 1.94151C163.772 3.27039 162.208 5.40087 161.602 7.869" id="Shape" fill="none" fill-rule="evenodd" stroke="#FFFFFF" stroke-width="0.5" />
    <path d="M191.572 8.73284C192.163 7.04996 193.263 5.58976 194.722 4.5528C196.244 3.48452 198.059 2.90572 199.922 2.89471C203.65 2.83665 206.976 5.2078 208.112 8.73287C208.179 8.92112 208.213 9.1192 208.212 9.31864C208.2 10.1332 207.664 10.8486 206.882 11.0959C206.691 11.1548 206.493 11.1849 206.292 11.1853C205.46 11.1885 204.722 10.6533 204.472 9.86474C204.328 9.41838 204.115 8.9965 203.842 8.61369C202.934 7.36358 201.475 6.62441 199.922 6.62793C199.394 6.62793 198.867 6.71159 198.364 6.87575C197.86 7.03798 197.384 7.27586 196.952 7.58107C196.131 8.16026 195.512 8.97936 195.182 9.92428C194.863 10.8647 194.863 11.8831 195.182 12.8235C195.535 13.8885 196.051 14.8931 196.712 15.8021C198.903 18.772 202.395 20.5186 206.102 20.4985C207.358 20.5 208.607 20.3058 209.802 19.9228C210.999 19.5429 212.13 18.9801 213.152 18.2546C215.152 16.8347 217.362 14.283 218.572 8.55414M215.572 7.6903C215.395 9.11598 215.06 10.5178 214.572 11.8703C213.978 13.5512 212.875 15.008 211.412 16.0404C209.898 17.1247 208.079 17.7083 206.212 17.7085C203.444 17.7104 200.84 16.3927 199.214 14.1655C198.705 13.4619 198.31 12.6842 198.042 11.8604C197.983 11.6707 197.953 11.4732 197.952 11.2746C197.959 10.4511 198.494 9.72354 199.282 9.46755C199.473 9.40861 199.672 9.37849 199.872 9.37819C200.703 9.38122 201.437 9.91409 201.692 10.6988C201.833 11.1468 202.046 11.5692 202.322 11.9498C203.231 13.1999 204.69 13.9391 206.242 13.9355C206.772 13.9341 207.299 13.8503 207.803 13.6873C208.302 13.5265 208.773 13.2922 209.202 12.9923C210.081 12.434 210.776 11.6334 211.202 10.6888C211.386 10.162 211.477 9.60793 211.472 9.05055C211.479 8.5725 211.408 8.09653 211.262 7.64068C210.819 6.58037 210.212 5.59543 209.462 4.72161C207.282 1.7444 203.79 -0.00749222 200.082 0.0153187C198.793 -0.0474416 197.502 0.0831143 196.252 0.402558C195.056 0.739018 193.919 1.25821 192.882 1.9415C190.717 3.27809 189.169 5.40752 188.572 7.869" id="Shape" fill="none" fill-rule="evenodd" stroke="#FFFFFF" stroke-width="0.5" />
    <path d="M110.837 9.2297C111.747 6.64093 113.84 4.63364 116.477 3.81851C117.355 3.53662 118.273 3.39257 119.197 3.39157C122.92 3.33794 126.241 5.70824 127.377 9.22973C127.443 9.41798 127.477 9.61606 127.477 9.81553C127.464 10.6301 126.928 11.3455 126.147 11.5928C125.956 11.6517 125.757 11.6818 125.557 11.6821C124.73 11.6876 123.993 11.1678 123.727 10.3914C123.582 9.94503 123.369 9.52315 123.097 9.14034C122.188 7.89022 120.729 7.15106 119.177 7.15457C118.65 7.15576 118.127 7.23951 117.627 7.40276C117.119 7.56286 116.64 7.80071 116.207 8.10775C115.388 8.68973 114.77 9.50789 114.437 10.4509C114.117 11.3913 114.117 12.4098 114.437 13.3502C114.79 14.4151 115.306 15.4198 115.967 16.3288C118.157 19.2987 121.649 21.0453 125.357 21.0251C126.598 21.0493 127.837 20.8818 129.027 20.5287C130.224 20.1488 131.354 19.5861 132.377 18.8607C134.377 17.4408 136.587 14.8891 137.797 9.16023M134.796 8.29684C134.619 9.72249 134.284 11.1244 133.796 12.4769C133.206 14.157 132.106 15.614 130.646 16.647C129.89 17.1812 129.058 17.5996 128.176 17.8881C127.294 18.1691 126.373 18.3131 125.446 18.315C122.677 18.3131 120.075 16.9956 118.446 14.7706C117.942 14.0669 117.551 13.2898 117.286 12.4669C117.218 12.279 117.184 12.0807 117.186 11.8811C117.192 11.0576 117.728 10.3301 118.516 10.0741C118.707 10.0152 118.906 9.98503 119.106 9.98473C119.938 9.98473 120.674 10.5188 120.926 11.3055C121.067 11.7534 121.28 12.1758 121.556 12.5563C122.465 13.8064 123.924 14.5456 125.476 14.5421C126.005 14.5421 126.532 14.4584 127.035 14.2942C128.529 13.788 129.762 12.7177 130.466 11.3152C130.649 10.7645 130.737 10.1872 130.726 9.60744C130.729 9.12886 130.655 8.65293 130.506 8.19756C130.069 7.14492 129.468 6.16672 128.726 5.29836C126.54 2.32215 123.046 0.570988 119.336 0.59207C118.047 0.52931 116.756 0.659866 115.506 0.97931C114.309 1.31577 113.173 1.83496 112.136 2.51826C109.994 3.84041 108.452 5.93719 107.836 8.36631" id="Shape" fill="none" fill-rule="evenodd" stroke="#FFFFFF" stroke-width="0.5" />
    <path d="M137.702 8.73285C138.296 7.04927 139.399 5.58922 140.862 4.55284C141.616 4.01211 142.453 3.59633 143.342 3.32166C144.22 3.03977 145.138 2.89575 146.062 2.89471C148.83 2.88935 151.434 4.20394 153.061 6.42898C153.565 7.1346 153.96 7.91117 154.232 8.73288C154.29 8.92279 154.32 9.12012 154.322 9.31868C154.312 10.1279 153.785 10.8418 153.012 11.0959C152.824 11.1539 152.628 11.184 152.432 11.1853C151.616 11.178 150.895 10.6605 150.632 9.89456C150.487 9.4482 150.274 9.02632 150.002 8.64348C149.093 7.39337 147.634 6.6542 146.082 6.65772C145.555 6.65891 145.032 6.74269 144.532 6.90597C144.026 7.06389 143.55 7.30195 143.122 7.6109C142.298 8.18951 141.676 9.00849 141.342 9.95411C141.022 10.8945 141.022 11.9129 141.342 12.8533C141.695 13.9201 142.214 14.9252 142.882 15.8319C145.067 18.8029 148.557 20.5501 152.262 20.5283C153.516 20.53 154.765 20.3358 155.96 19.953C157.16 19.571 158.294 19.0083 159.322 18.2844C161.322 16.8646 163.522 14.3129 164.732 8.58397M161.732 7.72012C161.554 9.1458 161.219 10.5476 160.732 11.9002C160.141 13.5803 159.041 15.0373 157.582 16.0702C156.826 16.6045 155.993 17.0229 155.112 17.3113C154.229 17.5923 153.308 17.7364 152.382 17.7383C149.612 17.7364 147.01 16.4189 145.382 14.1939C144.877 13.4902 144.486 12.7131 144.222 11.8902C144.157 11.7018 144.126 11.5034 144.132 11.3044C144.133 10.4825 144.665 9.7542 145.452 9.49733C145.643 9.43843 145.842 9.4083 146.042 9.408C146.873 9.408 147.609 9.94212 147.862 10.7287C148.002 11.1767 148.215 11.5991 148.492 11.9796C149.4 13.2297 150.859 13.9689 152.412 13.9653C152.943 13.9651 153.469 13.8812 153.973 13.7167C155.466 13.2102 156.697 12.1402 157.402 10.7385C157.58 10.2105 157.671 9.65722 157.672 9.10024C157.673 8.62251 157.602 8.14727 157.462 7.69033C157.015 6.63193 156.408 5.64754 155.662 4.77126C153.476 1.79505 149.982 0.0439194 146.272 0.0650013C144.983 0.00224101 143.691 0.132767 142.442 0.45221C141.245 0.789884 140.108 1.30898 139.072 1.99119C136.929 3.31334 135.387 5.41012 134.772 7.83924" id="Shape" fill="none" fill-rule="evenodd" stroke="#FFFFFF" stroke-width="0.5" />
    <path d="M56.9009 8.73269C57.4948 7.04912 58.5986 5.58907 60.0609 4.55269C60.8152 4.01196 61.6527 3.59618 62.541 3.32151C63.4199 3.04025 64.3375 2.89623 65.261 2.89459C68.0306 2.88774 70.635 4.20282 72.2609 6.42919C72.7685 7.13238 73.1632 7.90947 73.4309 8.73272C73.4894 8.92261 73.5197 9.11996 73.5209 9.31853C73.511 10.1278 72.9848 10.8416 72.2109 11.0958C72.023 11.1537 71.8276 11.1838 71.6309 11.1851C70.7984 11.1884 70.0607 10.6531 69.8109 9.86462C69.6628 9.41778 69.4469 8.99593 69.1709 8.61357C68.2669 7.36374 66.8107 6.62417 65.2609 6.62781C64.7345 6.6492 64.2147 6.75309 63.7209 6.93561C63.2163 7.09495 62.7404 7.33292 62.3109 7.64053C61.4897 8.222 60.8683 9.03997 60.5309 9.98374C60.2116 10.9241 60.2116 11.9425 60.5309 12.8829C60.888 13.9481 61.4074 14.9526 62.0709 15.8616C64.2571 18.8312 67.7463 20.5781 71.4509 20.5579C72.6876 20.5703 73.9188 20.3928 75.1009 20.0317C76.2972 19.6497 77.4271 19.0871 78.4509 18.3637C80.4509 16.9439 82.6509 14.3922 83.8709 8.66323M80.8709 7.79941C80.6938 9.22509 80.3585 10.627 79.8709 11.9794C79.2761 13.6571 78.1765 15.1128 76.7209 16.1495C75.9649 16.6838 75.1322 17.1022 74.2509 17.3906C73.3685 17.6716 72.4476 17.8157 71.5209 17.8176C68.7496 17.8204 66.1456 16.5018 64.5208 14.2729C64.0095 13.572 63.6145 12.7944 63.3509 11.9695C63.2916 11.7798 63.2612 11.5823 63.2609 11.3837C63.2687 10.5638 63.7984 9.83864 64.5809 9.57665C64.7722 9.51856 64.9709 9.48847 65.1709 9.48729C66.0026 9.48729 66.7386 10.0214 66.991 10.808C67.135 11.2565 67.3511 11.6789 67.6309 12.0589C68.5349 13.3087 69.9911 14.0483 71.5409 14.0446C72.0696 14.0446 72.5962 13.961 73.0997 13.7968C74.5936 13.2906 75.8264 12.2203 76.5309 10.8178C76.7095 10.2898 76.8007 9.73651 76.8009 9.17953C76.802 8.7018 76.7312 8.22659 76.5909 7.76962C76.1273 6.68929 75.4963 5.68761 74.7209 4.80093C72.5359 1.82344 69.0413 0.0719151 65.3309 0.094635C64.0419 0.0323297 62.7508 0.162855 61.5009 0.481874C60.3069 0.817637 59.1732 1.33689 58.1409 2.02085C55.9922 3.33876 54.446 5.43678 53.8309 7.86887" id="Shape" fill="none" fill-rule="evenodd" stroke="#FFFFFF" stroke-width="0.5" />
    <path d="M83.8313 8.73285C84.4287 7.05109 85.5318 5.59201 86.9913 4.55281C88.5099 3.47867 90.3269 2.89926 92.1913 2.89471C94.9606 2.88774 97.5651 4.2027 99.191 6.42901C99.6987 7.13229 100.094 7.90947 100.361 8.73288C100.42 8.92276 100.45 9.12008 100.451 9.31865C100.444 10.129 99.9171 10.8443 99.1413 11.0959C98.9535 11.1539 98.758 11.184 98.5613 11.1853C97.7288 11.1885 96.9911 10.6533 96.7413 9.86475C96.5931 9.41793 96.3773 8.99605 96.1013 8.6137C95.1973 7.36386 93.7411 6.62432 92.1913 6.62793C91.6626 6.62793 91.136 6.71159 90.6325 6.87576C90.1286 7.03798 89.6527 7.27586 89.2213 7.58111C87.5294 8.74853 86.7933 10.869 87.4013 12.8235C87.7625 13.8869 88.2816 14.8908 88.9413 15.8021C91.1317 18.772 94.6239 20.5186 98.3313 20.4985C99.5868 20.5 100.835 20.3058 102.031 19.9228C103.227 19.5408 104.357 18.9782 105.381 18.2546C107.381 16.8347 109.581 14.2831 110.801 8.55415M107.801 7.6906C107.624 9.11629 107.289 10.5181 106.801 11.8706C106.204 13.5497 105.101 15.0055 103.641 16.0407C102.127 17.125 100.308 17.7086 98.4413 17.7088C95.67 17.7116 93.066 16.393 91.4412 14.1641C90.9298 13.4632 90.5349 12.6856 90.2713 11.8607C90.2119 11.671 90.1816 11.4735 90.1813 11.2749C90.181 10.3398 90.8672 9.54405 91.7978 9.40039C92.7284 9.25673 93.6256 9.80801 93.9113 10.699C94.0553 11.1476 94.2715 11.57 94.5513 11.9501C95.4553 13.1999 96.9115 13.9395 98.4613 13.9358C98.99 13.9358 99.5166 13.8522 100.02 13.688C100.524 13.5293 101 13.2947 101.431 12.9926C102.307 12.4312 103.001 11.6316 103.431 10.6891C103.6 10.1795 103.688 9.64688 103.691 9.11043C103.692 8.63271 103.622 8.1575 103.481 7.70055C103.038 6.64024 102.431 5.65531 101.681 4.78149C99.4995 1.80558 96.0085 0.0540527 92.3013 0.0751953C91.009 0.0129507 89.7146 0.143476 88.4613 0.462434C87.2679 0.799835 86.1345 1.319 85.1013 2.00138C82.9526 3.31929 81.4064 5.41731 80.7913 7.84946" id="Shape" fill="none" fill-rule="evenodd" stroke="#FFFFFF" stroke-width="0.5" />
    <path d="M3 8.75884C4.27621 5.26344 7.61539 2.93154 11.36 2.92071C15.0873 2.86268 18.4137 5.2338 19.55 8.75887C19.6182 8.94645 19.6488 9.14544 19.64 9.34467C19.6348 10.1586 19.1017 10.8765 18.32 11.1219C18.1289 11.1808 17.9301 11.211 17.73 11.2113C16.8975 11.2146 16.1598 10.6793 15.91 9.89074C15.7652 9.44438 15.5528 9.0225 15.28 8.63969C14.3717 7.38958 12.9125 6.65041 11.36 6.65393C10.8313 6.65393 10.3047 6.73759 9.80121 6.90176C9.29733 7.06401 8.82141 7.30186 8.39005 7.6071C7.56879 8.18626 6.95004 9.00539 6.62 9.95028C6.30069 10.8907 6.30069 11.9091 6.62 12.8495C6.97299 13.9145 7.48904 14.9191 8.14999 15.8281C10.3404 18.798 13.8326 20.5446 17.54 20.5245C18.7769 20.5572 20.0115 20.3998 21.2 20.0578C22.3972 19.6779 23.5274 19.1152 24.55 18.3898C26.55 16.97 28.75 14.4183 29.97 8.68938M26.97 7.82552C26.7928 9.25121 26.4574 10.653 25.97 12.0056C25.376 13.6864 24.2721 15.1433 22.81 16.1756C21.2961 17.26 19.4767 17.8435 17.61 17.8437C14.8395 17.845 12.2361 16.5268 10.6102 14.2993C10.1025 13.5961 9.70779 12.8189 9.44 11.9956C9.38068 11.8059 9.35031 11.6084 9.35001 11.4098C9.3497 10.4747 10.0359 9.679 10.9665 9.53534C11.8971 9.39165 12.7943 9.94296 13.08 10.834C13.2303 11.2948 13.4567 11.7277 13.75 12.1148C14.6583 13.3649 16.1175 14.1041 17.67 14.1005C18.1997 14.0991 18.7261 14.0153 19.2299 13.8524C19.729 13.6916 20.201 13.4573 20.63 13.1573C21.5081 12.599 22.2032 11.7985 22.63 10.8538C22.8135 10.327 22.9048 9.77294 22.9 9.21556C22.9061 8.7375 22.8352 8.26154 22.69 7.80569C22.2471 6.74538 21.6397 5.76044 20.89 4.88662C18.7093 1.90941 15.2177 0.157548 11.51 0.180328C10.2177 0.118084 8.92334 0.248609 7.67001 0.567567C6.47662 0.904999 5.34314 1.42416 4.31003 2.10654C2.16135 3.42445 0.615082 5.52244 0 7.95459" id="Shape" fill="none" fill-rule="evenodd" stroke="#FFFFFF" stroke-width="0.5" />
    <path d="M29.9704 8.73272C30.5605 7.04987 31.6609 5.58967 33.1204 4.55271C34.6418 3.48442 36.457 2.90563 38.3204 2.89462C42.0477 2.83656 45.374 5.20771 46.5104 8.73278C46.5768 8.92103 46.6106 9.11908 46.6104 9.31855C46.5975 10.1331 46.0622 10.8485 45.2804 11.0958C45.0893 11.1547 44.8904 11.1849 44.6904 11.1852C43.8578 11.1884 43.1201 10.6532 42.8704 9.86465C42.7256 9.41829 42.5132 8.99641 42.2404 8.6136C41.3321 7.36349 39.8729 6.62432 38.3204 6.62784C37.7838 6.64607 37.2537 6.74999 36.7504 6.9356C36.2469 7.09783 35.7715 7.33558 35.3404 7.64056C34.5219 8.22257 33.9039 9.04073 33.5704 9.98377C33.251 10.9242 33.251 11.9426 33.5704 12.883C33.9234 13.9479 34.4394 14.9526 35.1004 15.8616C37.2908 18.8315 40.783 20.5781 44.4904 20.558C45.7338 20.5724 46.9719 20.3949 48.1603 20.0317C49.3575 19.6518 50.4877 19.0891 51.5104 18.3637C53.5104 16.9439 55.7204 14.3922 56.9304 8.66325M53.9304 7.79944C53.7531 9.22512 53.4177 10.627 52.9304 11.9795C52.3311 13.663 51.2199 15.1202 49.7504 16.1496C48.2364 17.2339 46.4171 17.8174 44.5504 17.8176C41.7798 17.8189 39.1765 16.5008 37.5505 14.2732C37.0429 13.57 36.6481 12.7928 36.3803 11.9695C36.321 11.7798 36.2907 11.5823 36.2903 11.3837C36.2965 10.5602 36.832 9.83267 37.6204 9.57668C37.8114 9.51774 38.0103 9.48762 38.2104 9.48732C39.0421 9.48732 39.778 10.0214 40.0304 10.808C40.1711 11.256 40.3838 11.6784 40.6604 12.0589C41.5687 13.309 43.0278 14.0482 44.5804 14.0446C45.1101 14.0432 45.6364 13.9595 46.1402 13.7965C46.6428 13.6275 47.1178 13.3866 47.5504 13.0816C48.4293 12.5241 49.1245 11.7234 49.5504 10.7781C49.737 10.2518 49.8317 9.69777 49.8304 9.13985C49.833 8.66124 49.7588 8.18531 49.6104 7.72994C49.1674 6.66966 48.5601 5.6847 47.8104 4.81088C45.6297 1.83369 42.138 0.0818022 38.4304 0.104613C37.1414 0.0418528 35.8502 0.172378 34.6004 0.491822C33.4035 0.828282 32.2666 1.34747 31.2304 2.0308C29.0846 3.35183 27.5393 5.44855 26.9203 7.87885" id="Shape" fill="none" fill-rule="evenodd" stroke="#FFFFFF" stroke-width="0.5" />
  </g>
</svg>

