<svg id="Layer_1" data-name="Layer 1" xmlns="http://www.w3.org/2000/svg" viewBox="0 0 144.44 481.99"><defs><style>.cls-1{fill:none;stroke:#fff;stroke-miterlimit:10;stroke-width:0.5px;}</style></defs><path class="cls-1" d="M25.44,17.71c2.71.59,16.53,22-1.93,45.59.18-5.49-.08-13.06-.08-13.06,14-12.65,3.95-29.67,1.94-30.24a1.46,1.46,0,0,1-1.56,1.19c-2.86-.18-2.4-3.35-2.4-3.35s.54-4.7,5.71-2.5C39.8,23.51,37.49,52.4,34.37,78.58"/><path class="cls-1" d="M25.44,17.71c3.09-.16,8,7.32,8.76,18.78.39,6,1.2,17.31-1.25,38.71"/><path class="cls-1" d="M19.71,96.89C17,96.3,3.17,74.85,21.63,51.3c-.18,5.49.08,13.06.08,13.06C7.69,77,17.76,94,19.77,94.6a1.48,1.48,0,0,1,1.56-1.19c2.86.18,2.41,3.35,2.41,3.35s-.54,4.7-5.71,2.5C5.35,91.09,8.37,60.92,10.21,32.79"/><path class="cls-1" d="M19.71,96.89c-3.1.17-8-7.32-8.76-18.78-.39-6-1.11-14.58.76-41.1"/><path class="cls-1" d="M25.44,70.89c2.71.58,16.53,22-1.93,45.59.18-5.49-.08-13.07-.08-13.07,14-12.65,3.95-29.66,1.94-30.23a1.46,1.46,0,0,1-1.56,1.18C21,74.18,21.41,71,21.41,71s.54-4.69,5.71-2.49c12.68,8.16,10.37,37.05,7.25,63.24"/><path class="cls-1" d="M25.44,70.89c3.09-.17,8,7.32,8.76,18.78.39,6,1.2,17.31-1.25,38.7"/><path class="cls-1" d="M19.71,150.06c-2.71-.58-16.54-22,1.92-45.59-.18,5.49.08,13.07.08,13.07-14,12.65-3.95,29.66-1.94,30.23a1.48,1.48,0,0,1,1.56-1.18c2.86.18,2.41,3.35,2.41,3.35s-.54,4.69-5.71,2.49C5.35,144.27,8.37,114.1,10.21,86"/><path class="cls-1" d="M19.71,150.06c-3.1.17-8-7.32-8.76-18.78-.39-6-1.11-14.58.76-41.1"/><path class="cls-1" d="M25.44,124.65c2.71.59,16.53,22-1.93,45.59.18-5.49-.08-13.07-.08-13.07,14-12.64,3.95-29.66,1.94-30.23a1.49,1.49,0,0,1-1.56,1.19c-2.86-.19-2.4-3.35-2.4-3.35s.54-4.7,5.71-2.5c12.68,8.16,10.37,37.05,7.25,63.24"/><path class="cls-1" d="M25.44,124.65c3.09-.17,8,7.32,8.76,18.78.39,6,1.2,17.31-1.25,38.7"/><path class="cls-1" d="M19.71,203.82c-2.71-.58-16.54-22,1.92-45.59-.18,5.49.08,13.07.08,13.07C7.69,184,17.76,201,19.77,201.53a1.48,1.48,0,0,1,1.56-1.18c2.86.18,2.41,3.35,2.41,3.35s-.54,4.69-5.71,2.49C5.35,198,8.37,167.86,10.21,139.72"/><path class="cls-1" d="M19.71,203.82c-3.1.17-8-7.32-8.76-18.77-.39-6-1.11-14.59.76-41.11"/><path class="cls-1" d="M25.44,177.82c2.71.59,16.53,22-1.93,45.59.18-5.49-.08-13.06-.08-13.06,14-12.65,3.95-29.67,1.94-30.24a1.46,1.46,0,0,1-1.56,1.19c-2.86-.18-2.4-3.35-2.4-3.35s.54-4.7,5.71-2.5c12.68,8.17,10.37,37.06,7.25,63.24"/><path class="cls-1" d="M25.44,177.82c3.09-.16,8,7.32,8.76,18.78.39,6,1.2,17.31-1.25,38.71"/><path class="cls-1" d="M19.71,257c-2.71-.59-16.54-22,1.92-45.59-.18,5.49.08,13.06.08,13.06-14,12.65-3.95,29.67-1.94,30.24a1.48,1.48,0,0,1,1.56-1.19c2.86.18,2.41,3.35,2.41,3.35s-.54,4.7-5.71,2.5C5.35,251.2,8.37,221,10.21,192.9"/><path class="cls-1" d="M19.71,257c-3.1.17-8-7.32-8.76-18.78-.39-6-1.11-14.58.76-41.1"/><path class="cls-1" d="M25.44,231.58c2.71.59,16.53,22-1.93,45.59.18-5.48-.08-13.06-.08-13.06,14-12.65,3.95-29.66,1.94-30.24a1.46,1.46,0,0,1-1.56,1.19c-2.86-.18-2.4-3.35-2.4-3.35s.54-4.7,5.71-2.49c12.68,8.16,10.37,37,7.25,63.23"/><path class="cls-1" d="M25.44,231.58c3.09-.16,8,7.32,8.76,18.78.39,6,1.2,17.31-1.25,38.71"/><path class="cls-1" d="M19.71,310.76c-2.71-.59-16.54-22,1.92-45.59-.18,5.49.08,13.06.08,13.06-14,12.65-3.95,29.67-1.94,30.24a1.48,1.48,0,0,1,1.56-1.19c2.86.18,2.41,3.35,2.41,3.35s-.54,4.7-5.71,2.5C5.35,305,8.37,274.79,10.21,246.66"/><path class="cls-1" d="M19.71,310.76c-3.1.17-8-7.32-8.76-18.78-.39-6-1.11-14.58.76-41.1"/><path class="cls-1" d="M25.44,284.76c2.71.59,16.53,22-1.93,45.59.18-5.49-.08-13.07-.08-13.07,14-12.65,3.95-29.66,1.94-30.23a1.46,1.46,0,0,1-1.56,1.18c-2.86-.18-2.4-3.34-2.4-3.34s.54-4.7,5.71-2.5c12.68,8.16,10.37,37.05,7.25,63.24"/><path class="cls-1" d="M25.44,284.76c3.09-.17,8,7.32,8.76,18.78.39,6,1.2,17.31-1.25,38.7"/><path class="cls-1" d="M19.71,363.93c-2.71-.58-16.54-22,1.92-45.59-.18,5.49.08,13.07.08,13.07-14,12.65-3.95,29.66-1.94,30.23a1.48,1.48,0,0,1,1.56-1.18c2.86.18,2.41,3.35,2.41,3.35S23.2,368.5,18,366.3C5.35,358.14,8.37,328,10.21,299.83"/><path class="cls-1" d="M19.71,363.93c-3.1.17-8-7.32-8.76-18.77-.39-6-1.11-14.59.76-41.11"/><path class="cls-1" d="M25.44,338.52c2.71.59,16.53,22-1.93,45.59.18-5.49-.08-13.07-.08-13.07,14-12.64,3.95-29.66,1.94-30.23A1.49,1.49,0,0,1,23.81,342c-2.86-.19-2.4-3.35-2.4-3.35s.54-4.7,5.71-2.5c12.68,8.16,10.37,37.05,7.25,63.24"/><path class="cls-1" d="M25.44,338.52c3.09-.17,8,7.32,8.76,18.78.39,6,1.2,17.31-1.25,38.7"/><path class="cls-1" d="M19.71,417.69c-2.71-.58-16.54-22,1.92-45.59-.18,5.49.08,13.07.08,13.07-14,12.65-3.95,29.66-1.94,30.24a1.48,1.48,0,0,1,1.56-1.19c2.86.18,2.41,3.35,2.41,3.35s-.54,4.69-5.71,2.49c-12.68-8.16-9.66-38.33-7.82-66.47"/><path class="cls-1" d="M19.71,417.69c-3.1.17-8-7.32-8.76-18.77-.39-6-1.11-14.59.76-41.11"/><path class="cls-1" d="M25.44,391.69c2.71.59,16.53,22-1.93,45.59.18-5.49-.08-13.06-.08-13.06,14-12.65,3.95-29.67,1.94-30.24a1.46,1.46,0,0,1-1.56,1.19c-2.86-.18-2.4-3.35-2.4-3.35s.54-4.7,5.71-2.5c12.68,8.17,10.37,37.06,7.25,63.24"/><path class="cls-1" d="M25.44,391.69c3.09-.16,8,7.32,8.76,18.78.39,6,1.2,17.31-1.25,38.71"/><path class="cls-1" d="M19.71,470.87c-2.71-.59-16.54-22,1.92-45.59-.18,5.49.08,13.06.08,13.06C7.69,451,17.76,468,19.77,468.58a1.48,1.48,0,0,1,1.56-1.19c2.86.18,2.41,3.35,2.41,3.35s-.54,4.7-5.71,2.5c-12.68-8.17-9.66-38.34-7.82-66.47"/><path class="cls-1" d="M19.71,470.87c-3.1.17-8-7.32-8.76-18.78-.39-6-1.11-14.58.76-41.1"/><path class="cls-1" d="M52.43,17.71c-2.71.59-16.53,22,1.93,45.59-.18-5.49.08-13.06.08-13.06C40.41,37.59,50.49,20.57,52.5,20a1.47,1.47,0,0,0,1.56,1.19c2.86-.18,2.41-3.35,2.41-3.35s-.55-4.7-5.72-2.5C38.08,23.51,40.38,52.4,43.5,78.58"/><path class="cls-1" d="M52.43,17.71c-3.09-.16-8,7.32-8.76,18.78-.39,6-1.2,17.31,1.25,38.71"/><path class="cls-1" d="M58.17,96.89c2.7-.59,16.53-22-1.93-45.59.18,5.49-.08,13.06-.08,13.06C70.18,77,60.11,94,58.1,94.6a1.48,1.48,0,0,0-1.56-1.19c-2.86.18-2.41,3.35-2.41,3.35s.54,4.7,5.71,2.5c12.68-8.17,9.66-38.34,7.82-66.47"/><path class="cls-1" d="M58.17,96.89c3.09.17,8-7.32,8.75-18.78.39-6,1.11-14.58-.76-41.1"/><path class="cls-1" d="M52.43,70.89c-2.71.58-16.53,22,1.93,45.59-.18-5.49.08-13.07.08-13.07-14-12.65-3.95-29.66-1.94-30.23a1.47,1.47,0,0,0,1.56,1.18c2.86-.18,2.41-3.35,2.41-3.35s-.55-4.69-5.72-2.49c-12.67,8.16-10.37,37.05-7.25,63.24"/><path class="cls-1" d="M52.43,70.89c-3.09-.17-8,7.32-8.76,18.78-.39,6-1.2,17.31,1.25,38.7"/><path class="cls-1" d="M58.17,150.06c2.7-.58,16.53-22-1.93-45.59.18,5.49-.08,13.07-.08,13.07,14,12.65,4,29.66,1.94,30.23a1.48,1.48,0,0,0-1.56-1.18c-2.86.18-2.41,3.35-2.41,3.35s.54,4.69,5.71,2.49C72.52,144.27,69.5,114.1,67.66,86"/><path class="cls-1" d="M58.17,150.06c3.09.17,8-7.32,8.75-18.78.39-6,1.11-14.58-.76-41.1"/><path class="cls-1" d="M52.43,124.65c-2.71.59-16.53,22,1.93,45.59-.18-5.49.08-13.07.08-13.07-14-12.64-3.95-29.66-1.94-30.23a1.49,1.49,0,0,0,1.56,1.19c2.86-.19,2.41-3.35,2.41-3.35s-.55-4.7-5.72-2.5c-12.67,8.16-10.37,37.05-7.25,63.24"/><path class="cls-1" d="M52.43,124.65c-3.09-.17-8,7.32-8.76,18.78-.39,6-1.2,17.31,1.25,38.7"/><path class="cls-1" d="M58.17,203.82c2.7-.58,16.53-22-1.93-45.59.18,5.49-.08,13.07-.08,13.07,14,12.65,4,29.66,1.94,30.23a1.48,1.48,0,0,0-1.56-1.18c-2.86.18-2.41,3.35-2.41,3.35s.54,4.69,5.71,2.49c12.68-8.16,9.66-38.33,7.82-66.47"/><path class="cls-1" d="M58.17,203.82c3.09.17,8-7.32,8.75-18.77.39-6,1.11-14.59-.76-41.11"/><path class="cls-1" d="M52.43,177.82c-2.71.59-16.53,22,1.93,45.59-.18-5.49.08-13.06.08-13.06-14-12.65-3.95-29.67-1.94-30.24a1.47,1.47,0,0,0,1.56,1.19c2.86-.18,2.41-3.35,2.41-3.35s-.55-4.7-5.72-2.5c-12.67,8.17-10.37,37.06-7.25,63.24"/><path class="cls-1" d="M52.43,177.82c-3.09-.16-8,7.32-8.76,18.78-.39,6-1.2,17.31,1.25,38.71"/><path class="cls-1" d="M58.17,257c2.7-.59,16.53-22-1.93-45.59.18,5.49-.08,13.06-.08,13.06,14,12.65,4,29.67,1.94,30.24a1.48,1.48,0,0,0-1.56-1.19c-2.86.18-2.41,3.35-2.41,3.35s.54,4.7,5.71,2.5C72.52,251.2,69.5,221,67.66,192.9"/><path class="cls-1" d="M58.17,257c3.09.17,8-7.32,8.75-18.78.39-6,1.11-14.58-.76-41.1"/><path class="cls-1" d="M52.43,231.58c-2.71.59-16.53,22,1.93,45.59-.18-5.48.08-13.06.08-13.06-14-12.65-3.95-29.66-1.94-30.24a1.47,1.47,0,0,0,1.56,1.19c2.86-.18,2.41-3.35,2.41-3.35s-.55-4.7-5.72-2.49c-12.67,8.16-10.37,37-7.25,63.23"/><path class="cls-1" d="M52.43,231.58c-3.09-.16-8,7.32-8.76,18.78-.39,6-1.2,17.31,1.25,38.71"/><path class="cls-1" d="M58.17,310.76c2.7-.59,16.53-22-1.93-45.59.18,5.49-.08,13.06-.08,13.06,14,12.65,4,29.67,1.94,30.24a1.48,1.48,0,0,0-1.56-1.19c-2.86.18-2.41,3.35-2.41,3.35s.54,4.7,5.71,2.5c12.68-8.17,9.66-38.34,7.82-66.47"/><path class="cls-1" d="M58.17,310.76c3.09.17,8-7.32,8.75-18.78.39-6,1.11-14.58-.76-41.1"/><path class="cls-1" d="M52.43,284.76c-2.71.59-16.53,22,1.93,45.59-.18-5.49.08-13.07.08-13.07-14-12.65-3.95-29.66-1.94-30.23a1.47,1.47,0,0,0,1.56,1.18c2.86-.18,2.41-3.34,2.41-3.34s-.55-4.7-5.72-2.5c-12.67,8.16-10.37,37.05-7.25,63.24"/><path class="cls-1" d="M52.43,284.76c-3.09-.17-8,7.32-8.76,18.78-.39,6-1.2,17.31,1.25,38.7"/><path class="cls-1" d="M58.17,363.93c2.7-.58,16.53-22-1.93-45.59.18,5.49-.08,13.07-.08,13.07,14,12.65,4,29.66,1.94,30.23a1.48,1.48,0,0,0-1.56-1.18c-2.86.18-2.41,3.35-2.41,3.35s.54,4.69,5.71,2.49c12.68-8.16,9.66-38.33,7.82-66.47"/><path class="cls-1" d="M58.17,363.93c3.09.17,8-7.32,8.75-18.77.39-6,1.11-14.59-.76-41.11"/><path class="cls-1" d="M52.43,338.52c-2.71.59-16.53,22,1.93,45.59-.18-5.49.08-13.07.08-13.07-14-12.64-3.95-29.66-1.94-30.23A1.49,1.49,0,0,0,54.06,342c2.86-.19,2.41-3.35,2.41-3.35s-.55-4.7-5.72-2.5c-12.67,8.16-10.37,37.05-7.25,63.24"/><path class="cls-1" d="M52.43,338.52c-3.09-.17-8,7.32-8.76,18.78-.39,6-1.2,17.31,1.25,38.7"/><path class="cls-1" d="M58.17,417.69c2.7-.58,16.53-22-1.93-45.59.18,5.49-.08,13.07-.08,13.07,14,12.65,4,29.66,1.94,30.24a1.48,1.48,0,0,0-1.56-1.19c-2.86.18-2.41,3.35-2.41,3.35s.54,4.69,5.71,2.49c12.68-8.16,9.66-38.33,7.82-66.47"/><path class="cls-1" d="M58.17,417.69c3.09.17,8-7.32,8.75-18.77.39-6,1.11-14.59-.76-41.11"/><path class="cls-1" d="M52.43,391.69c-2.71.59-16.53,22,1.93,45.59-.18-5.49.08-13.06.08-13.06-14-12.65-3.95-29.67-1.94-30.24a1.47,1.47,0,0,0,1.56,1.19c2.86-.18,2.41-3.35,2.41-3.35s-.55-4.7-5.72-2.5c-12.67,8.17-10.37,37.06-7.25,63.24"/><path class="cls-1" d="M52.43,391.69c-3.09-.16-8,7.32-8.76,18.78-.39,6-1.2,17.31,1.25,38.71"/><path class="cls-1" d="M58.17,470.87c2.7-.59,16.53-22-1.93-45.59.18,5.49-.08,13.06-.08,13.06,14,12.65,4,29.67,1.94,30.24a1.48,1.48,0,0,0-1.56-1.19c-2.86.18-2.41,3.35-2.41,3.35s.54,4.7,5.71,2.5c12.68-8.17,9.66-38.34,7.82-66.47"/><path class="cls-1" d="M58.17,470.87c3.09.17,8-7.32,8.75-18.78.39-6,1.11-14.58-.76-41.1"/><path class="cls-1" d="M93.7,17.71c2.71.59,16.53,22-1.92,45.59.17-5.49-.09-13.06-.09-13.06,14-12.65,4-29.67,1.94-30.24a1.46,1.46,0,0,1-1.55,1.19c-2.87-.18-2.41-3.35-2.41-3.35s.54-4.7,5.71-2.5c12.68,8.17,10.37,37.06,7.26,63.24"/><path class="cls-1" d="M93.7,17.71c3.1-.16,8,7.32,8.76,18.78.39,6,1.2,17.31-1.25,38.71"/><path class="cls-1" d="M88,96.89c-2.71-.59-16.53-22,1.92-45.59-.17,5.49.09,13.06.09,13.06C76,77,86,94,88,94.6a1.48,1.48,0,0,1,1.56-1.19c2.87.18,2.41,3.35,2.41,3.35s-.54,4.7-5.71,2.5c-12.68-8.17-9.66-38.34-7.82-66.47"/><path class="cls-1" d="M88,96.89c-3.1.17-8-7.32-8.76-18.78-.39-6-1.1-14.58.77-41.1"/><path class="cls-1" d="M93.7,70.89c2.71.58,16.53,22-1.92,45.59.17-5.49-.09-13.07-.09-13.07,14-12.65,4-29.66,1.94-30.23a1.46,1.46,0,0,1-1.55,1.18C89.21,74.18,89.67,71,89.67,71s.54-4.69,5.71-2.49c12.68,8.16,10.37,37.05,7.26,63.24"/><path class="cls-1" d="M93.7,70.89c3.1-.17,8,7.32,8.76,18.78.39,6,1.2,17.31-1.25,38.7"/><path class="cls-1" d="M88,150.06c-2.71-.58-16.53-22,1.92-45.59-.17,5.49.09,13.07.09,13.07-14,12.65-4,29.66-2,30.23a1.48,1.48,0,0,1,1.56-1.18c2.87.18,2.41,3.35,2.41,3.35s-.54,4.69-5.71,2.49C73.61,144.27,76.63,114.1,78.47,86"/><path class="cls-1" d="M88,150.06c-3.1.17-8-7.32-8.76-18.78-.39-6-1.1-14.58.77-41.1"/><path class="cls-1" d="M93.7,124.65c2.71.59,16.53,22-1.92,45.59.17-5.49-.09-13.07-.09-13.07,14-12.64,4-29.66,1.94-30.23a1.48,1.48,0,0,1-1.55,1.19c-2.87-.19-2.41-3.35-2.41-3.35s.54-4.7,5.71-2.5c12.68,8.16,10.37,37.05,7.26,63.24"/><path class="cls-1" d="M93.7,124.65c3.1-.17,8,7.32,8.76,18.78.39,6,1.2,17.31-1.25,38.7"/><path class="cls-1" d="M88,203.82c-2.71-.58-16.53-22,1.92-45.59-.17,5.49.09,13.07.09,13.07C76,184,86,201,88,201.53a1.48,1.48,0,0,1,1.56-1.18c2.87.18,2.41,3.35,2.41,3.35s-.54,4.69-5.71,2.49c-12.68-8.16-9.66-38.33-7.82-66.47"/><path class="cls-1" d="M88,203.82c-3.1.17-8-7.32-8.76-18.77-.39-6-1.1-14.59.77-41.11"/><path class="cls-1" d="M93.7,177.82c2.71.59,16.53,22-1.92,45.59.17-5.49-.09-13.06-.09-13.06,14-12.65,4-29.67,1.94-30.24a1.46,1.46,0,0,1-1.55,1.19c-2.87-.18-2.41-3.35-2.41-3.35s.54-4.7,5.71-2.5c12.68,8.17,10.37,37.06,7.26,63.24"/><path class="cls-1" d="M93.7,177.82c3.1-.16,8,7.32,8.76,18.78.39,6,1.2,17.31-1.25,38.71"/><path class="cls-1" d="M88,257c-2.71-.59-16.53-22,1.92-45.59-.17,5.49.09,13.06.09,13.06-14,12.65-4,29.67-2,30.24a1.48,1.48,0,0,1,1.56-1.19c2.87.18,2.41,3.35,2.41,3.35s-.54,4.7-5.71,2.5C73.61,251.2,76.63,221,78.47,192.9"/><path class="cls-1" d="M88,257c-3.1.17-8-7.32-8.76-18.78-.39-6-1.1-14.58.77-41.1"/><path class="cls-1" d="M93.7,231.58c2.71.59,16.53,22-1.92,45.59.17-5.48-.09-13.06-.09-13.06,14-12.65,4-29.66,1.94-30.24a1.46,1.46,0,0,1-1.55,1.19c-2.87-.18-2.41-3.35-2.41-3.35s.54-4.7,5.71-2.49c12.68,8.16,10.37,37,7.26,63.23"/><path class="cls-1" d="M93.7,231.58c3.1-.16,8,7.32,8.76,18.78.39,6,1.2,17.31-1.25,38.71"/><path class="cls-1" d="M88,310.76c-2.71-.59-16.53-22,1.92-45.59-.17,5.49.09,13.06.09,13.06-14,12.65-4,29.67-2,30.24a1.48,1.48,0,0,1,1.56-1.19c2.87.18,2.41,3.35,2.41,3.35s-.54,4.7-5.71,2.5c-12.68-8.17-9.66-38.34-7.82-66.47"/><path class="cls-1" d="M88,310.76c-3.1.17-8-7.32-8.76-18.78-.39-6-1.1-14.58.77-41.1"/><path class="cls-1" d="M93.7,284.76c2.71.59,16.53,22-1.92,45.59.17-5.49-.09-13.07-.09-13.07,14-12.65,4-29.66,1.94-30.23a1.46,1.46,0,0,1-1.55,1.18c-2.87-.18-2.41-3.34-2.41-3.34s.54-4.7,5.71-2.5c12.68,8.16,10.37,37.05,7.26,63.24"/><path class="cls-1" d="M93.7,284.76c3.1-.17,8,7.32,8.76,18.78.39,6,1.2,17.31-1.25,38.7"/><path class="cls-1" d="M88,363.93c-2.71-.58-16.53-22,1.92-45.59-.17,5.49.09,13.07.09,13.07-14,12.65-4,29.66-2,30.23a1.48,1.48,0,0,1,1.56-1.18c2.87.18,2.41,3.35,2.41,3.35s-.54,4.69-5.71,2.49c-12.68-8.16-9.66-38.33-7.82-66.47"/><path class="cls-1" d="M88,363.93c-3.1.17-8-7.32-8.76-18.77-.39-6-1.1-14.59.77-41.11"/><path class="cls-1" d="M93.7,338.52c2.71.59,16.53,22-1.92,45.59.17-5.49-.09-13.07-.09-13.07,14-12.64,4-29.66,1.94-30.23A1.48,1.48,0,0,1,92.08,342c-2.87-.19-2.41-3.35-2.41-3.35s.54-4.7,5.71-2.5c12.68,8.16,10.37,37.05,7.26,63.24"/><path class="cls-1" d="M93.7,338.52c3.1-.17,8,7.32,8.76,18.78.39,6,1.2,17.31-1.25,38.7"/><path class="cls-1" d="M88,417.69c-2.71-.58-16.53-22,1.92-45.59-.17,5.49.09,13.07.09,13.07-14,12.65-4,29.66-2,30.24a1.48,1.48,0,0,1,1.56-1.19c2.87.18,2.41,3.35,2.41,3.35s-.54,4.69-5.71,2.49c-12.68-8.16-9.66-38.33-7.82-66.47"/><path class="cls-1" d="M88,417.69c-3.1.17-8-7.32-8.76-18.77-.39-6-1.1-14.59.77-41.11"/><path class="cls-1" d="M93.7,391.69c2.71.59,16.53,22-1.92,45.59.17-5.49-.09-13.06-.09-13.06,14-12.65,4-29.67,1.94-30.24a1.46,1.46,0,0,1-1.55,1.19c-2.87-.18-2.41-3.35-2.41-3.35s.54-4.7,5.71-2.5c12.68,8.17,10.37,37.06,7.26,63.24"/><path class="cls-1" d="M93.7,391.69c3.1-.16,8,7.32,8.76,18.78.39,6,1.2,17.31-1.25,38.71"/><path class="cls-1" d="M88,470.87c-2.71-.59-16.53-22,1.92-45.59-.17,5.49.09,13.06.09,13.06C76,451,86,468,88,468.58a1.48,1.48,0,0,1,1.56-1.19c2.87.18,2.41,3.35,2.41,3.35s-.54,4.7-5.71,2.5c-12.68-8.17-9.66-38.34-7.82-66.47"/><path class="cls-1" d="M88,470.87c-3.1.17-8-7.32-8.76-18.78-.39-6-1.1-14.58.77-41.1"/><path class="cls-1" d="M120.69,17.71c-2.71.59-16.53,22,1.93,45.59-.18-5.49.08-13.06.08-13.06-14-12.65-4-29.67-1.94-30.24a1.47,1.47,0,0,0,1.56,1.19c2.86-.18,2.41-3.35,2.41-3.35s-.54-4.7-5.71-2.5c-12.68,8.17-10.37,37.06-7.26,63.24"/><path class="cls-1" d="M120.69,17.71c-3.09-.16-8,7.32-8.75,18.78-.4,6-1.21,17.31,1.25,38.71"/><path class="cls-1" d="M126.43,96.89c2.71-.59,16.53-22-1.93-45.59.18,5.49-.08,13.06-.08,13.06,14,12.65,4,29.67,1.94,30.24a1.47,1.47,0,0,0-1.56-1.19c-2.86.18-2.41,3.35-2.41,3.35s.54,4.7,5.71,2.5c12.68-8.17,9.66-38.34,7.82-66.47"/><path class="cls-1" d="M126.43,96.89c3.09.17,8-7.32,8.75-18.78.4-6,1.11-14.58-.76-41.1"/><path class="cls-1" d="M120.69,70.89c-2.71.58-16.53,22,1.93,45.59-.18-5.49.08-13.07.08-13.07-14-12.65-4-29.66-1.94-30.23a1.47,1.47,0,0,0,1.56,1.18c2.86-.18,2.41-3.35,2.41-3.35s-.54-4.69-5.71-2.49c-12.68,8.16-10.37,37.05-7.26,63.24"/><path class="cls-1" d="M120.69,70.89c-3.09-.17-8,7.32-8.75,18.78-.4,6-1.21,17.31,1.25,38.7"/><path class="cls-1" d="M126.43,150.06c2.71-.58,16.53-22-1.93-45.59.18,5.49-.08,13.07-.08,13.07,14,12.65,4,29.66,1.94,30.23a1.47,1.47,0,0,0-1.56-1.18c-2.86.18-2.41,3.35-2.41,3.35s.54,4.69,5.71,2.49c12.68-8.16,9.66-38.33,7.82-66.47"/><path class="cls-1" d="M126.43,150.06c3.09.17,8-7.32,8.75-18.78.4-6,1.11-14.58-.76-41.1"/><path class="cls-1" d="M120.69,124.65c-2.71.59-16.53,22,1.93,45.59-.18-5.49.08-13.07.08-13.07-14-12.64-4-29.66-1.94-30.23a1.49,1.49,0,0,0,1.56,1.19c2.86-.19,2.41-3.35,2.41-3.35s-.54-4.7-5.71-2.5c-12.68,8.16-10.37,37.05-7.26,63.24"/><path class="cls-1" d="M120.69,124.65c-3.09-.17-8,7.32-8.75,18.78-.4,6-1.21,17.31,1.25,38.7"/><path class="cls-1" d="M126.43,203.82c2.71-.58,16.53-22-1.93-45.59.18,5.49-.08,13.07-.08,13.07,14,12.65,4,29.66,1.94,30.23a1.47,1.47,0,0,0-1.56-1.18c-2.86.18-2.41,3.35-2.41,3.35s.54,4.69,5.71,2.49c12.68-8.16,9.66-38.33,7.82-66.47"/><path class="cls-1" d="M126.43,203.82c3.09.17,8-7.32,8.75-18.77.4-6,1.11-14.59-.76-41.11"/><path class="cls-1" d="M120.69,177.82c-2.71.59-16.53,22,1.93,45.59-.18-5.49.08-13.06.08-13.06-14-12.65-4-29.67-1.94-30.24a1.47,1.47,0,0,0,1.56,1.19c2.86-.18,2.41-3.35,2.41-3.35s-.54-4.7-5.71-2.5c-12.68,8.17-10.37,37.06-7.26,63.24"/><path class="cls-1" d="M120.69,177.82c-3.09-.16-8,7.32-8.75,18.78-.4,6-1.21,17.31,1.25,38.71"/><path class="cls-1" d="M126.43,257c2.71-.59,16.53-22-1.93-45.59.18,5.49-.08,13.06-.08,13.06,14,12.65,4,29.67,1.94,30.24a1.47,1.47,0,0,0-1.56-1.19c-2.86.18-2.41,3.35-2.41,3.35s.54,4.7,5.71,2.5c12.68-8.17,9.66-38.34,7.82-66.47"/><path class="cls-1" d="M126.43,257c3.09.17,8-7.32,8.75-18.78.4-6,1.11-14.58-.76-41.1"/><path class="cls-1" d="M120.69,231.58c-2.71.59-16.53,22,1.93,45.59-.18-5.48.08-13.06.08-13.06-14-12.65-4-29.66-1.94-30.24a1.47,1.47,0,0,0,1.56,1.19c2.86-.18,2.41-3.35,2.41-3.35s-.54-4.7-5.71-2.49c-12.68,8.16-10.37,37-7.26,63.23"/><path class="cls-1" d="M120.69,231.58c-3.09-.16-8,7.32-8.75,18.78-.4,6-1.21,17.31,1.25,38.71"/><path class="cls-1" d="M126.43,310.76c2.71-.59,16.53-22-1.93-45.59.18,5.49-.08,13.06-.08,13.06,14,12.65,4,29.67,1.94,30.24a1.47,1.47,0,0,0-1.56-1.19c-2.86.18-2.41,3.35-2.41,3.35s.54,4.7,5.71,2.5c12.68-8.17,9.66-38.34,7.82-66.47"/><path class="cls-1" d="M126.43,310.76c3.09.17,8-7.32,8.75-18.78.4-6,1.11-14.58-.76-41.1"/><path class="cls-1" d="M120.69,284.76c-2.71.59-16.53,22,1.93,45.59-.18-5.49.08-13.07.08-13.07-14-12.65-4-29.66-1.94-30.23a1.47,1.47,0,0,0,1.56,1.18c2.86-.18,2.41-3.34,2.41-3.34s-.54-4.7-5.71-2.5c-12.68,8.16-10.37,37.05-7.26,63.24"/><path class="cls-1" d="M120.69,284.76c-3.09-.17-8,7.32-8.75,18.78-.4,6-1.21,17.31,1.25,38.7"/><path class="cls-1" d="M126.43,363.93c2.71-.58,16.53-22-1.93-45.59.18,5.49-.08,13.07-.08,13.07,14,12.65,4,29.66,1.94,30.23a1.47,1.47,0,0,0-1.56-1.18c-2.86.18-2.41,3.35-2.41,3.35s.54,4.69,5.71,2.49c12.68-8.16,9.66-38.33,7.82-66.47"/><path class="cls-1" d="M126.43,363.93c3.09.17,8-7.32,8.75-18.77.4-6,1.11-14.59-.76-41.11"/><path class="cls-1" d="M120.69,338.52c-2.71.59-16.53,22,1.93,45.59-.18-5.49.08-13.07.08-13.07-14-12.64-4-29.66-1.94-30.23a1.49,1.49,0,0,0,1.56,1.19c2.86-.19,2.41-3.35,2.41-3.35s-.54-4.7-5.71-2.5c-12.68,8.16-10.37,37.05-7.26,63.24"/><path class="cls-1" d="M120.69,338.52c-3.09-.17-8,7.32-8.75,18.78-.4,6-1.21,17.31,1.25,38.7"/><path class="cls-1" d="M126.43,417.69c2.71-.58,16.53-22-1.93-45.59.18,5.49-.08,13.07-.08,13.07,14,12.65,4,29.66,1.94,30.24a1.47,1.47,0,0,0-1.56-1.19c-2.86.18-2.41,3.35-2.41,3.35s.54,4.69,5.71,2.49c12.68-8.16,9.66-38.33,7.82-66.47"/><path class="cls-1" d="M126.43,417.69c3.09.17,8-7.32,8.75-18.77.4-6,1.11-14.59-.76-41.11"/><path class="cls-1" d="M120.69,391.69c-2.71.59-16.53,22,1.93,45.59-.18-5.49.08-13.06.08-13.06-14-12.65-4-29.67-1.94-30.24a1.47,1.47,0,0,0,1.56,1.19c2.86-.18,2.41-3.35,2.41-3.35s-.54-4.7-5.71-2.5c-12.68,8.17-10.37,37.06-7.26,63.24"/><path class="cls-1" d="M120.69,391.69c-3.09-.16-8,7.32-8.75,18.78-.4,6-1.21,17.31,1.25,38.71"/><path class="cls-1" d="M126.43,470.87c2.71-.59,16.53-22-1.93-45.59.18,5.49-.08,13.06-.08,13.06,14,12.65,4,29.67,1.94,30.24a1.47,1.47,0,0,0-1.56-1.19c-2.86.18-2.41,3.35-2.41,3.35s.54,4.7,5.71,2.5c12.68-8.17,9.66-38.34,7.82-66.47"/><path class="cls-1" d="M126.43,470.87c3.09.17,8-7.32,8.75-18.78.4-6,1.11-14.58-.76-41.1"/></svg>