<svg xmlns="http://www.w3.org/2000/svg" viewBox="0 0 108 108"><path d="M14.712 0h78.573C101.412 0 108 6.588 108 14.712v78.573c0 8.127-6.588 14.715-14.712 14.715H14.712C6.588 108 0 101.412 0 93.288V14.712C0 6.588 6.588 0 14.712 0z" fill="#212121" fill-rule="evenodd"/><path d="M69.624 43.821A28.76 28.76 0 0 0 86.4 49.185V37.152c-1.185 0-2.364-.123-3.522-.369v9.471a28.789 28.789 0 0 1-16.776-5.364v24.552c0 12.282-9.963 22.239-22.251 22.239a22.156 22.156 0 0 1-12.387-3.762 22.193 22.193 0 0 0 15.909 6.69c12.288 0 22.251-9.957 22.251-22.239V43.821zm4.347-12.138a16.78 16.78 0 0 1-4.347-9.819v-1.548h-3.339c.84 4.791 3.708 8.886 7.686 11.367zM39.237 74.496a10.13 10.13 0 0 1-2.076-6.159c0-5.619 4.557-10.173 10.179-10.173 1.047 0 2.088.159 3.087.477v-12.3a22.657 22.657 0 0 0-3.522-.204v9.573a10.178 10.178 0 0 0-3.09-.477c-5.622 0-10.179 4.554-10.179 10.173a10.179 10.179 0 0 0 5.601 9.09z" fill="#ec407a" fill-rule="evenodd"/><path d="M66.102 40.89a28.76 28.76 0 0 0 16.776 5.364v-9.471a16.857 16.857 0 0 1-8.907-5.103 16.839 16.839 0 0 1-7.683-11.364h-8.769V68.37c-.021 5.601-4.569 10.137-10.179 10.137a10.168 10.168 0 0 1-8.103-4.014 10.17 10.17 0 0 1-5.598-9.087c0-5.619 4.557-10.173 10.179-10.173 1.077 0 2.115.168 3.09.477v-9.57c-12.072.249-21.78 10.107-21.78 22.233a22.153 22.153 0 0 0 6.342 15.549 22.156 22.156 0 0 0 12.387 3.762c12.288 0 22.251-9.957 22.251-22.239l-.006-24.555z" fill="#fff" fill-rule="evenodd"/><path d="M82.878 36.786v-2.562a16.758 16.758 0 0 1-8.907-2.544 16.814 16.814 0 0 0 8.907 5.106zm-16.593-16.47a16.452 16.452 0 0 1-.183-1.383v-1.548H53.994v48.057c-.018 5.601-4.569 10.137-10.179 10.137-1.647 0-3.201-.39-4.578-1.086a10.168 10.168 0 0 0 8.103 4.014c5.61 0 10.158-4.536 10.179-10.137V20.316h8.766zM46.905 46.14v-2.727a22.577 22.577 0 0 0-3.054-.207c-12.291 0-22.251 9.957-22.251 22.239 0 7.701 3.915 14.487 9.864 18.477a22.153 22.153 0 0 1-6.342-15.549c0-12.126 9.711-21.984 21.783-22.233z" fill="#81d4fa" fill-rule="evenodd"/></svg>