<svg xmlns="http://www.w3.org/2000/svg" viewBox="0 0 214.8 28"><defs><style>.a{fill:#231f20;}</style></defs><title>logo-mini</title><path class="a" d="M234.9,337.3l6.2,15.2,5.6-13.8a14.8,14.8,0,0,0,1.2-3.8c0-.7-0.7-1-1.5-1.1h-1.8v-1.5h9.1v1.5h-1.3c-0.9.1-1.4,0.7-1.8,1.8l-8.2,19.5c-0.5,1.3-1,2.6-1.5,3.9h-3l-9.4-22.4c-0.5-1.1-1.1-2.7-2.4-2.8h-1.6v-1.5h12.6v1.5h-2a1,1,0,0,0-1,.7,9.1,9.1,0,0,0,.8,2.8h0Zm31.7,0.3v16a9.4,9.4,0,0,0,.3,3.2c0.2,0.3.6,0.5,1.6,0.5H270V359H257.8v-1.6h1.5c1-.1,1.5-0.2,1.6-0.5a9.4,9.4,0,0,0,.3-3.2v-16a9.4,9.4,0,0,0-.3-3.2c-0.2-.3-0.6-0.5-1.6-0.5h-1.5v-1.6H270v1.6h-1.5c-1,.1-1.5.2-1.6,0.5a9.4,9.4,0,0,0-.3,3.2h0Zm32.8,17.9-0.9,1.9a17.2,17.2,0,0,1-9,2.2c-8.9,0-15.5-5-15.5-14.4s7.3-13.5,15.7-13.5a22.5,22.5,0,0,1,9.6,1.8l0.2,0.4a52.3,52.3,0,0,0-.9,6h-1.5l-0.2-3.4a9.3,9.3,0,0,0-7.1-2.7c-6.5,0-10,4.6-10,10.8S284,357,291.5,357a16.8,16.8,0,0,0,7.5-2l0.5,0.5h0Zm19-20.9v19a9.4,9.4,0,0,0,.3,3.2c0.2,0.3.6,0.5,1.6,0.5h1.4V359H309.6v-1.6H311c1-.1,1.4-0.2,1.6-0.5a9.4,9.4,0,0,0,.3-3.2v-19h-4.6c-1.1,0-2.2,0-2.4.4a1.8,1.8,0,0,0-.4.9l-0.2,2.7h-1.6a45,45,0,0,0-.5-6.2l0.2-.2h24.4l0.2,0.2a44.9,44.9,0,0,0-.5,6.2H326l-0.2-2.7a1.8,1.8,0,0,0-.4-0.9c-0.3-.4-1.4-0.4-2.4-0.4h-4.6Zm27.5-.8c-7.3,0-9,5.5-9,11.3s2.7,12.2,8.2,12.2c7.3,0,9-5.4,9-11.3s-2.7-12.2-8.2-12.2h0Zm0-2.2c8.8,0,14.1,4.8,14.1,13.7s-5.9,14.2-14.9,14.2S331,354.7,331,345.8s5.9-14.2,14.9-14.2h0Zm21.2,22v-16a9.4,9.4,0,0,0-.3-3.2c-0.2-.4-0.6-0.6-1.6-0.7h-1.5v-1.5h14.6c4-.1,7.7,1.1,7.7,5.8s-2.6,5.8-5.8,6.9l7.1,10.7a5.5,5.5,0,0,0,1.1,1.2,4,4,0,0,0,1.6.5V359h-7.3l-8.8-13.6,0.3-.7c3.6,0.3,6.3-1.9,6.3-5.6s-2.2-4.9-5.3-4.9a6.4,6.4,0,0,0-2.5.4v19.1a9.4,9.4,0,0,0,.3,3.2c0.2,0.3.6,0.5,1.6,0.5h1.5V359H363.7v-1.6h1.5c1-.1,1.5-0.2,1.6-0.5a9.4,9.4,0,0,0,.3-3.2h0Zm35.8-16v16a9.4,9.4,0,0,0,.3,3.2c0.2,0.3.6,0.5,1.6,0.5h1.5V359H394v-1.6h1.5c1-.1,1.5-0.2,1.6-0.5a9.4,9.4,0,0,0,.3-3.2v-16a9.4,9.4,0,0,0-.3-3.2c-0.2-.3-0.6-0.5-1.6-0.5H394v-1.6h12.2v1.6h-1.5c-1,.1-1.5.2-1.6,0.5a9.4,9.4,0,0,0-.3,3.2h0Zm20.2,1-3.9,10h8l-4.1-10h0Zm5,12.2h-9.9l-1.6,4.4c-0.5,1.5.2,2.2,0.9,2.2h2V359h-8.9v-1.5h1.2c1-.1,1.7-1.2,2.2-2.3l7.1-17.2,1-2.7,0.6-1.6,0.6-1.6h2.8l10.2,23.7a2.5,2.5,0,0,0,2.2,1.7h0.9V359H427.2v-1.5h2.1c0.6,0,1.1-.9.6-2.2l-1.8-4.5h0Z" transform="translate(-224.5 -331.6)"/></svg>
