<?xml version="1.0" standalone="no"?>
<!DOCTYPE svg PUBLIC "-//W3C//DTD SVG 20010904//EN"
 "http://www.w3.org/TR/2001/REC-SVG-20010904/DTD/svg10.dtd">
<svg version="1.0" xmlns="http://www.w3.org/2000/svg"
 width="512.000000pt" height="512.000000pt" viewBox="0 0 512.000000 512.000000"
 preserveAspectRatio="xMidYMid meet">
<metadata>
Created by potrace 1.11, written by Peter Selinger 2001-2013
</metadata>
<g transform="translate(0.000000,512.000000) scale(0.100000,-0.100000)"
fill="#000000" stroke="none">
<path d="M140 4604 l0 -124 43 -1 c23 0 58 -2 77 -4 19 -2 68 -6 108 -9 118
-9 200 -56 280 -162 48 -62 110 -193 237 -499 250 -598 678 -1621 690 -1650 8
-16 41 -95 74 -175 154 -372 323 -777 331 -795 11 -23 141 -333 272 -650 50
-121 92 -221 93 -223 2 -3 156 -4 355 -3 l145 1 94 253 c82 219 193 498 236
592 7 17 34 82 60 145 26 63 53 129 60 145 44 101 105 245 105 249 0 5 22 56
66 153 8 17 14 34 14 38 0 3 8 25 19 48 18 42 40 94 146 347 72 172 74 179 91
215 7 17 99 237 204 490 106 253 200 479 211 502 10 23 19 44 19 46 0 3 33 83
73 179 41 95 105 247 142 338 94 226 138 300 211 358 47 37 85 51 169 58 33 3
69 7 80 9 11 2 37 4 58 4 l37 1 0 124 0 123 -167 -5 c-219 -7 -930 -7 -1150 0
l-173 5 -1 -26 c-1 -41 2 -215 4 -217 1 -1 49 -5 107 -8 251 -16 264 -17 329
-49 76 -37 107 -110 87 -203 -3 -16 -8 -39 -11 -51 -14 -76 -199 -567 -348
-923 -5 -14 -11 -29 -12 -35 -2 -5 -13 -32 -25 -60 -12 -27 -26 -59 -30 -70
-4 -11 -35 -87 -68 -170 -33 -82 -149 -370 -257 -640 -109 -269 -230 -572
-270 -672 -40 -100 -77 -188 -82 -197 -9 -17 -21 11 -305 714 -66 162 -125
309 -133 325 -7 17 -41 100 -75 185 -34 85 -127 315 -207 510 -79 195 -176
434 -214 530 -39 96 -77 190 -86 208 -69 155 -133 370 -133 451 0 38 5 49 39
81 52 49 73 54 300 64 74 4 137 9 141 11 4 2 7 58 8 124 l0 120 -241 -7 c-307
-7 -1301 -8 -1599 0 l-228 6 0 -124z"/>
</g>
</svg>
