<svg xmlns="http://www.w3.org/2000/svg" viewBox="0 0 376.1 88.7"><path fill="transparent" d="M0 0h376.1v88.7H0V0z"/><path d="M360.8 55.1c2.5 0 4 1.4 4 3.9s-1.7 4-4.2 4-4-1.4-4-3.9 1.7-4 4.2-4zm0 .6c-2.1 0-2.6 1.6-2.6 3.2s.8 3.5 2.3 3.5 2.6-1.5 2.6-3.2-.8-3.5-2.3-3.5zM70.4 70.6v6.3h20.1v-6.3l-2.9 3.2h-4l-3.2-3.2-3.2 3.2h-4l-2.9-3.2zM57 25.5v6.3h20.1v-6.3l-2.9 3.2h-4L67 25.5l-3.2 3.2h-4l-2.9-3.2zm26.8 0v6.3h20.1v-6.3l-2.9 3.2h-4l-3.2-3.2-3.2 3.2h-4l-2.9-3.2zm-3.3 11.4c-3.2 0-4.7 2.3-7.9 2.3s-4.7-2.4-7.9-2.3-4.3 2.3-7.3 2.3-5.1-2.1-7.3-2v19.9c.1 4.2 3.3 10.2 7.3 10.2s4.3-2.2 7.3-2.3 4.7 2.3 7.9 2.3 4.7-2.3 7.9-2.3 4.7 2.3 7.9 2.3 4.7-2.4 7.9-2.3 4.3 2.2 7.3 2.3 7.2-6 7.3-10.2V37.2c-2.2-.1-4.4 2.1-7.3 2s-4.3-2.2-7.3-2.3-4.7 2.3-7.9 2.3-4.7-2.3-7.9-2.3zm0 51.3c-1.3 0-32.9-13.7-32.9-31.1v-38h65.9v38c0 17.4-31.7 31.1-33 31.1zm-4.7-29.4l-1.4-2.4 1.4-2.4H73l-1.4-2.4-1.4 2.4h-2.8l1.4 2.4-1.4 2.4h2.8l1.4 2.4 1.4-2.4h2.8zm17.7-8.7l-1.4-2.4 1.4-2.4h-2.8l-1.4-2.4-1.4 2.4h-2.8l1.4 2.4-1.4 2.4H88l1.4 2.4 1.4-2.4h2.8zm-12.7 0l-1.4-2.4 1.4-2.4H78l-1.4-2.4-1.4 2.4h-2.8l1.4 2.4-1.4 2.4h2.8l1.4 2.4 1.4-2.4h2.8zm7.6 8.7L87 56.4l1.4-2.4h-2.8l-1.4-2.4-1.4 2.4H80l1.4 2.4-1.4 2.4h2.8l1.4 2.4 1.4-2.4h2.8zM64.2 41.3h32.5v21.6H64.2V41.3zM40 37.6c-1.9 0-4.2-2.4-4-3.9 1.1-8.2 5.3-5.5 8.4-7.9.9 1.1 2.2 11.8-4.4 11.8zm98.4 7.4a9.3 9.3 0 0 1-3.4 5.7c1.8-.1 4.6.2 5.2-2a3.2 3.2 0 0 0-1.7-3.7zm-4.9-1.2c-6.2-.3-8.6 3.4-6.5 4.8 3.9 2.7 6.5-4.9 6.5-4.8zm.3-8.9a7.6 7.6 0 0 1-3.8 2 53.8 53.8 0 0 1 6.4 0 10.7 10.7 0 0 1-2.6-2zm-12-7.4a4.8 4.8 0 1 0 4.8-4.8 4.8 4.8 0 0 0-4.8 4.8zm19.4 3.9a2.7 2.7 0 0 1 3.2-.7c1.4.5 2.3 1.7 2.1 2.7 7.1-.1 8.8-1.8 8.9-1.7-2.1 3.8-8.1 6.6-10.4 6.8 3.2 1.1 9.6 4.8 9.6 11.9 0 10.4-10.1 11.9-15.8 10.4a4.2 4.2 0 0 1 2.8 2H116v-21a11.9 11.9 0 0 1 4.2-2.8 1.8 1.8 0 0 0 1-1.8A9.6 9.6 0 0 1 116 34V22s3.1-4.3 10.4-4.3a11.5 11.5 0 0 1 8.9 4.9s2.4-2 7.2-2c10.8 0 13.2 10.4 13.2 10.4a17.6 17.6 0 0 0-8.9-3.7 2.3 2.3 0 0 1-2.3 1.7 2.4 2.4 0 0 1-2.3-1.4l-.9.6a2.5 2.5 0 0 1 .2 1.1 2.5 2.5 0 0 1-1 1.8l.8.5zm-16.7-3.9a2.2 2.2 0 1 1 2.2 2.2 2.2 2.2 0 0 1-2.2-2.2zm-79.6 8.9v26.5H5.2A23.4 23.4 0 0 1 7.8 58l-1.7-1.4c-.1-.1 5.3-7.1 9.2-7.2a8 8 0 0 1-1.4-1.4c1.4-1.5 3.9-1.7 12.1-2.3s9.4-2.9 9.5-9.5c2 2.4 5.5 5.4 9.5.3zM24.8 22.9c-2.6-1.8-4-2.5-4.9-2.3s-2.6 3-2.6 2.9a32.8 32.8 0 0 1 7.5-.6zM15 33.8c-1.9-1.6-4.3-4.7-4.6-6.9a3 3 0 0 1 .9-2.6A5.1 5.1 0 0 1 11 22c1.1-3.4 17.4-3.6 20.7-3.5 7.6.3 9.2 0 12.9-1.4-.1-.1-1.3 5.6-8.3 5.5v.9c2.8.1 6.1-.6 8.1-2.9-.1 1.9.7 4.3-3.2 5.2s-6 .7-7.2 11.2c-.2 3 0 5.5-4.9 6.6S11.9 45 9.7 46.7l-.4-.8a7.9 7.9 0 0 0 3.7-7.2 3.9 3.9 0 0 1 1.7-.6c0 1-1.3 3.2 4.6 3.2.1 0 5.5.6 3.2-6.3-.7-2.2-1.4-4.7-4-4.6 0-.1-3.4.2-1.7 3.5 2.4.5 5.1 1.1 5.5 2.8s-1 2.7-2 2.3-3.8-2-5.7-2C10.9 37 4.4 41.2.2 33.3c1.2 1.3 2.4 2.2 6.3 2.3s4.7-1.6 8.6-1.7zM354.1 0h4.2v.8h-4.2V0zM104 0h4.2v.8H104V0zm271 3.5v5a2 2 0 0 0 .1.8l.5.2h.5v.3h-3.3v-.3h.5l.5-.2a2 2 0 0 0 .1-.8v-5a2 2 0 0 0-.1-.8l-.5-.2h-.5v-.3h3.3v.3h-.5l-.5.2a2 2 0 0 0-.1.8zm-361.3 5V3.8a11.1 11.1 0 0 0 0-1.1H12c-.3 0-.4.1-.4.4V4h-.3c0-.6 0-1.2-.1-1.8h6.4c-.1.6-.1 1.2-.1 1.8h-.3v-.9c0-.3-.1-.4-.4-.4h-1.7v5.8a2 2 0 0 0 .1.8l.5.2h.5v.3h-3.3v-.3h.5l.5-.2a2 2 0 0 0 .1-.8zm7 0v-5a2 2 0 0 0-.1-.8l-.5-.2h-.5v-.3h6a7.5 7.5 0 0 0-.2 1.7H25v-.7a.3.3 0 0 0-.1-.3 6.9 6.9 0 0 0-2.2-.2h-.9v3h2.5a.4.4 0 0 0 .1-.3v-.7h.3v2.5h-.3v-.7a.4.4 0 0 0-.1-.3h-2.5v3.1H25a2.1 2.1 0 0 0 .4-1.3h.4a9.6 9.6 0 0 0-.2 1.8h-5.8v-.3h.4l.5-.2a2 2 0 0 0 .1-.8zm18.5-.9l-1.4-3.8-1.9 4.9-.4 1.2H35l-.3-1.2-1.3-5.8a.6.6 0 0 0-.6-.6h-.3V2h2.8v.3h-.5c-.3 0-.5.1-.4.7l1.1 5L37 4.7c.3-.9.7-1.8 1-2.7h.4a14.2 14.2 0 0 0 .5 1.4l1.7 4.8 1.5-5.4c.1-.3-.1-.3-.5-.4h-.4v-.3h2.3v.3h-.4a.4.4 0 0 0-.4.3l-1.7 6c-.1.3-.2.7-.3 1.1h-.6c-.2-.9-.5-1.5-.8-2.3zm14-4.2v5a2 2 0 0 0 .1.8l.5.2h.5v.3H51v-.3h.5l.5-.2a2 2 0 0 0 .1-.8V5.9h-4.5v2.5a2 2 0 0 0 .1.8l.5.2h.5v.3h-3.3v-.3h.5l.5-.2a2 2 0 0 0 .1-.8v-5a2 2 0 0 0-.1-.8l-.5-.2h-.5v-.3h3.3v.3h-.5l-.5.2a2 2 0 0 0-.1.8v2h4.5v-2a2 2 0 0 0-.1-.8l-.5-.2H51v-.3h3.3v.3h-.5l-.5.2a2 2 0 0 0-.1.8zm5.7 3.4h2.8l-1.4-3.3-1.4 3.3zM60.8 2l2.7 6.3.4.8a.6.6 0 0 0 .4.4h.4v.3h-3v-.3h.5a.4.4 0 0 0 .5-.2 2.6 2.6 0 0 0-.2-.7L62 7.3h-3.2l-.3.7a6.4 6.4 0 0 0-.4 1.2c0 .2.2.3.5.3h.4v.3h-2.6v-.3h.4a.8.8 0 0 0 .6-.5l2-4.5 1-2.4h.4zm8.2.6v5.8a2 2 0 0 0 .1.8l.5.2h.5v.3H67v-.3h.5l.5-.2a2 2 0 0 0 .1-.8v-5a2 2 0 0 0-.1-.8l-.5-.2H67v-.3h3.9c1.8 0 2.3.9 2.3 1.7A2.4 2.4 0 0 1 71 6l2.5 3.3a.9.9 0 0 0 .7.3v.3h-1.6l-.5-.6L70 6.5l-.6-.7 1.1-.2A1.7 1.7 0 0 0 72 4a1.5 1.5 0 0 0-1.8-1.5h-1.1zm8.1 5.8v-5a2 2 0 0 0-.1-.8l-.5-.2H76v-.3h6a7.5 7.5 0 0 0-.2 1.7h-.4v-.7a.3.3 0 0 0-.1-.3 6.9 6.9 0 0 0-2.2-.2h-.9v3h2.5a.4.4 0 0 0 .1-.3v-.6h.3v2.5h-.3v-.7a.4.4 0 0 0-.1-.3h-2.5v3.1h3.2a2.1 2.1 0 0 0 .4-1.3h.4a9.6 9.6 0 0 0-.2 1.8h-5.8v-.3h.4l.5-.2a2 2 0 0 0 .1-.8zm18.5-.9l-1.4-3.8-1.9 4.9-.4 1.2h-.6L91 8.6l-1.3-5.8a.6.6 0 0 0-.6-.6H89v-.3h2.8v.3h-.5c-.3 0-.5.1-.4.7l1.1 5 1.4-3.5c.3-.9.7-1.8 1-2.7h.4a14.2 14.2 0 0 0 .5 1.4L97 7.9l1.5-5.4c.1-.3-.1-.3-.5-.4h-.4v-.3h2.3v.3h-.4a.4.4 0 0 0-.4.3l-1.7 6c-.1.3-.2.7-.3 1.1h-.6c-.2-.9-.5-1.5-.8-2.3zm8.7-.8h2.8l-1.4-3.3-1.4 3.3zm1.9-4.8l2.7 6.3.4.8a.6.6 0 0 0 .4.4h.4v.3h-3v-.3h.5a.4.4 0 0 0 .5-.2 2.6 2.6 0 0 0-.2-.7l-.5-1.3h-3.2l-.3.7a6.4 6.4 0 0 0-.4 1.2c0 .2.2.3.5.3h.4v.3h-2.6v-.3h.4a.8.8 0 0 0 .6-.5l2-4.5 1-2.4h.4zm7.1 6.5v-5a2 2 0 0 0-.1-.8l-.5-.2h-.5v-.3h1.9l5.3 6.6V3.5a2 2 0 0 0-.1-.8l-.5-.2h-.5v-.3h2.6v.3h-.5l-.5.2a2 2 0 0 0-.1.8v6.6l-1-.2-5.3-6.5v5.1a2 2 0 0 0 .1.8l.5.2h.9v.3h-2.6v-.3h.5l.5-.2a2 2 0 0 0 .1-.8zm12.4-1.7h2.8l-1.4-3.3-1.4 3.3zm1.9-4.8l2.7 6.3.4.8a.6.6 0 0 0 .4.4h.4v.3h-3v-.3h.5a.4.4 0 0 0 .5-.2 2.6 2.6 0 0 0-.2-.7l-.5-1.3h-3.2l-.3.7a6.4 6.4 0 0 0-.4 1.2c0 .2.2.3.5.3h.4v.3h-2.6v-.3h.4a.8.8 0 0 0 .6-.5l2-4.5 1-2.4h.4zm7.1 6.5v-5a2 2 0 0 0-.1-.8l-.5-.2h-.5v-.3h1.9l5.5 6.6V3.5a2 2 0 0 0-.1-.8l-.5-.2h-.4v-.3h2.6v.3h-.5l-.5.2a2 2 0 0 0-.1.8v6.6l-1-.2-5.3-6.5v5.1a2 2 0 0 0 .1.8l.5.2h.5v.3h-2.6v-.3h.5l.5-.2a2 2 0 0 0 .1-.8zm16.4.3v-1a.3.3 0 0 0-.4-.4h-.9V7h2.7v.3h-.3c-.1 0-.1.1-.1.4v1.9a12.6 12.6 0 0 1-2.9.6c-2.5 0-4.5-1.3-4.5-4.1s2-4 4.7-4a8.8 8.8 0 0 1 2.8.5 7 7 0 0 0-.2 1.7h-.3v-.6a1 1 0 0 0-.9-.9l-1.6-.2A3.1 3.1 0 0 0 146 6c0 2.2 1.3 3.8 3.6 3.8a2.1 2.1 0 0 0 1.6-.4 1.1 1.1 0 0 0 .1-.5zm6.2-1.9h2.8l-1.4-3.3-1.4 3.3zm1.9-4.8l2.7 6.3.4.8a.6.6 0 0 0 .4.4h.4v.3h-3v-.3h.5a.4.4 0 0 0 .5-.2 2.6 2.6 0 0 0-.2-.7l-.5-1.3h-3.2l-.3.7a6.4 6.4 0 0 0-.4 1.2c0 .2.2.3.5.3h.4v.3h-2.6v-.3h.4a.8.8 0 0 0 .6-.5l2-4.5 1-2.4h.4zm14 .4c-1.9 0-2.8 1.4-2.8 3.2s.9 4 3.1 4 2.8-1.5 2.8-3.5-1-3.7-3.1-3.7zm-.1 7.7a3.8 3.8 0 0 1-4-4.1 4 4 0 0 1 4.2-4.1c2.4 0 4.1 1.3 4.1 3.8a4.3 4.3 0 0 1-4.3 4.3zm13.7-1.6V2.7h-1.7c-.3 0-.4.1-.4.4V4h-.3c0-.6 0-1.2-.1-1.8h6.4c-.1.6-.1 1.2-.1 1.8h-.3v-.9c0-.3-.1-.4-.4-.4H188v5.8a2 2 0 0 0 .1.8l.5.2h.5v.3h-3.3v-.3h.5l.5-.2a2 2 0 0 0 .1-.8zm7 0v-5a2 2 0 0 0-.1-.8l-.5-.2h-.5v-.3h6a7.5 7.5 0 0 0-.2 1.7h-.4v-.7a.3.3 0 0 0-.1-.3 6.9 6.9 0 0 0-2.2-.2h-.8v3h2.5a.4.4 0 0 0 .1-.3v-.7h.3v2.5h-.3v-.7a.4.4 0 0 0-.1-.3H195v3.1h3.2a2.1 2.1 0 0 0 .4-1.3h.4a9.6 9.6 0 0 0-.2 1.8H193v-.3h.4l.5-.2a2 2 0 0 0 .1-.8zm12.9-1v-4a2 2 0 0 0-.1-.8l-.5-.2h-.5v-.3h3.4v.3h-.5l-.5.2a2 2 0 0 0-.1.8v3.8c0 1.6.8 2 2.3 2a2 2 0 0 0 2.3-2.3V3.4a2 2 0 0 0-.1-.8l-.5-.2h-.5v-.3h2.6v.3h-.5l-.5.2a2 2 0 0 0-.1.8v3.2c0 2.4-.9 3.4-3.2 3.4s-3-.6-3-2.6zm11.6-4.8v5.8a2 2 0 0 0 .1.8l.5.2h.5v.3h-3.3v-.3h.5l.5-.2a2 2 0 0 0 .1-.8v-5a1.9 1.9 0 0 0-.1-.8l-.5-.2h-.5v-.3h3.9c1.1 0 2.3.4 2.3 1.7a2.5 2.5 0 0 1-2.7 2.4h-.7v-.4h.7a1.6 1.6 0 0 0 1.6-1.7 1.6 1.6 0 0 0-1.8-1.7h-1.1zm10.3-.3c-1.9 0-2.8 1.4-2.8 3.2s.9 4 3.1 4 2.8-1.5 2.8-3.5-1-3.7-3.1-3.7zm-.1 7.7a3.8 3.8 0 0 1-4-4.1 4 4 0 0 1 4.2-4.1c2.4 0 4.1 1.3 4.1 3.8a4.3 4.3 0 0 1-4.3 4.3zm8.7-3.9v2.3a2 2 0 0 0 .1.8l.5.2h.5v.3H235v-.3h.5l.5-.2a2 2 0 0 0 .1-.8v-5a2 2 0 0 0-.1-.8l-.5-.2h-.5v-.3h3.3v.3h-.5l-.5.2a2 2 0 0 0-.1.8v2.4l3.1-3 .3-.4v-.3h1.9v.3h-.5a1.4 1.4 0 0 0-.9.4l-3 2.7 3.7 3.5a1.5 1.5 0 0 0 .7.5h.2v.3h-1.6l-3.9-3.7h-.1zm11.7-3.8c-1.9 0-2.8 1.4-2.8 3.2s.9 4 3.1 4 2.8-1.5 2.8-3.5-1-3.7-3.1-3.7zm-.1 7.7a3.8 3.8 0 0 1-4-4.1 4 4 0 0 1 4.2-4.1c2.4 0 4.1 1.3 4.1 3.8a4.3 4.3 0 0 1-4.3 4.3zm15-7.7c-1.9 0-2.8 1.4-2.8 3.2s.9 4 3.1 4 2.8-1.5 2.8-3.5-1-3.7-3.1-3.7zm-.1 7.7a3.8 3.8 0 0 1-4-4.1 4 4 0 0 1 4.2-4.1c2.4 0 4.1 1.3 4.1 3.8a4.3 4.3 0 0 1-4.3 4.3zm13.7-1.6V2.7h-1.7c-.3 0-.4.1-.4.4V4h-.3c0-.6 0-1.2-.1-1.8h6.5c-.1.6-.1 1.2-.1 1.8h-.3v-.9c0-.3-.1-.4-.4-.4h-1.7a11 11 0 0 0 0 1.1v4.7a2 2 0 0 0 .1.8l.5.2h.5v.3h-3.3v-.3h.3l.5-.2a2 2 0 0 0 .1-.8zm7 0v-5a2 2 0 0 0-.1-.8l-.5-.2h-.5v-.3h6a7.5 7.5 0 0 0-.2 1.7h-.4v-.7a.3.3 0 0 0-.1-.3 6.9 6.9 0 0 0-2.2-.2h-.9v3h2.5a.4.4 0 0 0 .1-.3v-.7h.3v2.5h-.3v-.7a.4.4 0 0 0-.1-.3h-2.5v3.1h3.2a2.1 2.1 0 0 0 .4-1.3h.4a9.6 9.6 0 0 0-.2 1.8h-5.8v-.3h.5l.5-.2a2 2 0 0 0 .1-.8zm14.1-5v5a2 2 0 0 0 .1.8l.5.2h.5v.3h-3.3v-.3h.7l.5-.2a2 2 0 0 0 .1-.8v-5a2 2 0 0 0-.1-.8l-.5-.2h-.5v-.3h3.3v.3h-.5l-.5.2a2 2 0 0 0-.1.8zm5.5 2.7v2.3a2 2 0 0 0 .1.8l.5.2h.5v.3h-3.3v-.3h.5l.5-.2a2 2 0 0 0 .1-.8v-5a2 2 0 0 0-.1-.8l-.5-.2h-.5v-.3h3.3v.3h-.5l-.5.2a2 2 0 0 0-.1.8v2.4l3.1-3 .3-.4v-.3h1.9v.3h-.5a1.4 1.4 0 0 0-.9.4l-3 2.7 3.7 3.5a1.5 1.5 0 0 0 .7.5h.2v.3h-1.6L304 6.2h-.1zm10.1.6h2.9l-1.4-3.3-1.4 3.3zM316 2l2.7 6.3.4.8a.6.6 0 0 0 .4.4h.4v.3h-3v-.3h.5a.4.4 0 0 0 .5-.2 2.6 2.6 0 0 0-.2-.7l-.5-1.3H314l-.3.7a6.4 6.4 0 0 0-.4 1.2c0 .2.2.3.5.3h.4v.3h-2.6v-.3h.4a.8.8 0 0 0 .6-.5l2-4.5 1-2.4h.4zm12 4.8h2.8l-1.4-3.3-1.4 3.3zm1.9-4.8l2.7 6.3.4.8a.6.6 0 0 0 .4.4h.4v.3h-3v-.3h.5a.4.4 0 0 0 .5-.2 2.6 2.6 0 0 0-.2-.7l-.5-1.3h-3.2l-.3.7a6.4 6.4 0 0 0-.4 1.2c0 .2.2.3.5.3h.4v.3h-2.6v-.3h.4a.8.8 0 0 0 .6-.5l2-4.5 1-2.4h.4zm19 1.5v5a2 2 0 0 0 .1.8l.5.2h.5v.3h-3.1v-.3h.4l.5-.2a2 2 0 0 0 .1-.8V3.4l-.5.9-2 4.2-.6 1.4h-.2l-3.1-6.6v5.1a2 2 0 0 0 .1.8l.5.2h.5v.3H340v-.3h.5l.5-.2a2 2 0 0 0 .1-.8v-5a2 2 0 0 0-.1-.8l-.5-.2h-.5v-.3h2.1l3 6.2 2.9-6.2h2.1v.3h-.5l-.5.2a2 2 0 0 0-.1.8zm5.7 3.4h2.8L356 3.6l-1.4 3.3zm1.9-4.8l2.7 6.3.4.8a.6.6 0 0 0 .4.4h.4v.3h-3v-.3h.5a.4.4 0 0 0 .5-.2 2.6 2.6 0 0 0-.2-.7l-.5-1.3h-3.2l-.3.7a6.4 6.4 0 0 0-.4 1.2c0 .2.2.3.5.3h.4v.3H352v-.3h.4a.8.8 0 0 0 .6-.5l2-4.5 1-2.4h.4zm7.1 5.4v-4a2 2 0 0 0-.1-.8l-.5-.2h-.5v-.3h3.3v.3h-.5l-.5.2a2 2 0 0 0-.1.8v3.8c0 1.6.8 2 2.3 2a2 2 0 0 0 2.3-2.3V3.4a2 2 0 0 0-.1-.8l-.5-.2h-.5v-.3h2.6v.3h-.5l-.5.2a2 2 0 0 0-.1.8v3.2c0 2.4-.9 3.4-3.2 3.4s-3-.6-3-2.6zM208 0h4.2v.8H208V0zm151.9 25.6l-3.9 10h8l-4.1-10zm5 12.2H355l-1.7 4.4c-.6 1.5.2 2.2.9 2.2h2v1.5h-8.9v-1.5h1.2c1-.1 1.7-1.2 2.2-2.4l7.1-17.3 1-2.7.6-1.6.6-1.6h2.8l10.2 24a2.5 2.5 0 0 0 2.2 1.7h.9V46h-12.2v-1.5h2.1c.6 0 1.1-.9.6-2.2l-1.8-4.5zm-194-13.5l6.2 15.2 5.6-13.9a14.9 14.9 0 0 0 1.2-3.9c0-.7-.7-1-1.5-1.1h-1.8v-1.5h9.1v1.5h-1.3c-.9.1-1.4.7-1.9 1.9l-8.2 19.6c-.6 1.3-1 2.6-1.5 3.9h-3l-9.4-22.5c-.5-1.1-1.1-2.7-2.4-2.8h-1.6v-1.5H173v1.5h-2a1 1 0 0 0-1 .7 9.2 9.2 0 0 0 .8 2.8zm31.8.3v16.1a9.4 9.4 0 0 0 .3 3.2c.2.3.6.5 1.6.6h1.5v1.6h-12.3v-1.6h1.5c1-.1 1.5-.2 1.6-.6a9.4 9.4 0 0 0 .3-3.2V24.6a9.4 9.4 0 0 0-.3-3.2c-.2-.3-.6-.5-1.6-.6h-1.5v-1.6h12.3v1.5h-1.5c-1 .1-1.5.2-1.6.6a9.4 9.4 0 0 0-.3 3.2zm32.9 18l-.9 1.9a17.3 17.3 0 0 1-9.1 2.2c-9 0-15.6-5-15.6-14.5s7.4-13.6 15.8-13.6a22.6 22.6 0 0 1 9.7 1.9l.2.4a52.5 52.5 0 0 0-.9 6h-1.6l-.2-3.4a9.4 9.4 0 0 0-7.1-2.7c-6.5 0-10 4.7-10 10.9s4.2 12.4 11.6 12.4a16.9 16.9 0 0 0 7.5-2l.5.5zm19.1-21v19.1a9.5 9.5 0 0 0 .3 3.2c.2.3.6.5 1.6.6h1.4v1.6h-12.2v-1.6h1.5c1-.1 1.5-.2 1.6-.6a9.4 9.4 0 0 0 .3-3.2V21.6h-4.6c-1.1 0-2.2 0-2.4.4a1.8 1.8 0 0 0-.4.9l-.2 2.7H240a45.2 45.2 0 0 0-.5-6.3l.2-.2h24.5l.2.2a45.2 45.2 0 0 0-.5 6.3h-1.6l-.2-2.7a1.8 1.8 0 0 0-.4-.9c-.3-.4-1.4-.4-2.4-.4h-4.6zm27.6-.8c-7.3 0-9.1 5.5-9.1 11.4s2.7 12.3 8.3 12.3c7.3 0 9.1-5.4 9.1-11.4s-2.7-12.3-8.3-12.3zm0-2.2c8.8 0 14.2 4.8 14.2 13.8s-6 14.3-15 14.3-14.2-4.8-14.2-13.8 6-14.3 15-14.3zm21.2 22.1V24.6a9.5 9.5 0 0 0-.3-3.2c-.2-.4-.6-.6-1.6-.7h-1.5v-1.5h14.6c4-.1 7.7 1.1 7.7 5.8s-2.6 5.8-5.9 7l7.1 10.8a5.5 5.5 0 0 0 1.1 1.2 4 4 0 0 0 1.6.6v1.6h-7.4l-8.8-13.7.3-.7c3.6.3 6.3-1.9 6.3-5.6s-2.2-5-5.3-5a6.4 6.4 0 0 0-2.5.4v19.2a9.5 9.5 0 0 0 .3 3.2c.2.3.6.5 1.6.6h1.5v1.6h-12.1v-1.6h1.5c1-.1 1.5-.2 1.6-.6a9.5 9.5 0 0 0 .3-3.2zm36-16.1v16.1a9.4 9.4 0 0 0 .3 3.2c.2.3.6.5 1.6.6h1.5v1.6h-12.3v-1.6h1.4c1-.1 1.5-.2 1.6-.6a9.5 9.5 0 0 0 .3-3.2V24.6a9.4 9.4 0 0 0-.3-3.2c-.2-.3-.6-.5-1.6-.6h-1.5v-1.6h12.3v1.5h-1.5c-1 .1-1.5.2-1.6.6a9.4 9.4 0 0 0-.3 3.2zm28.9 36.8v-4.6a2.7 2.7 0 0 0-.1-.9l-.5-.2h-.4v-.4h2.3l1.2 1.5 3.5 4.1v-4a2.7 2.7 0 0 0-.1-.9l-.5-.2h-.4v-.4h2.6v.3h-.4l-.5.2a2.7 2.7 0 0 0-.1.9V63h-1l-1.4-1.6L369 57v4.4a2.7 2.7 0 0 0 .1.9l.5.2h.4v.4h-2.6v-.4h.4l.5-.2a2.7 2.7 0 0 0 .1-.9zm-204.1-.5v-4.1a2.7 2.7 0 0 0-.1-.9l-.5-.2h-.4v-.4h3.5v.4h-.4l-.5.2a2.7 2.7 0 0 0-.1.9v2.8c0 1.6.1 2.6 2 2.6s2.1-1 2.1-2.6v-2.7a2.7 2.7 0 0 0-.1-.9l-.5-.2h-.3v-.4h2.6v.3h-.4l-.5.2a2.7 2.7 0 0 0-.1.9v3.3c0 2-1.1 3-3.1 3s-3.2-.9-3.2-2.2zm10.5.5v-4.6a2.7 2.7 0 0 0-.1-.9l-.5-.2h-.4v-.4h2.3l1.2 1.5 3.5 4.1v-4a2.7 2.7 0 0 0-.1-.9l-.5-.2h-.4v-.4h2.6v.3h-.4l-.5.2a2.7 2.7 0 0 0-.1.9V63h-1l-1.4-1.6-3.6-4.4v4.4a2.7 2.7 0 0 0 .1.9l.5.2h.4v.4h-2.6v-.4h.4l.5-.2a2.7 2.7 0 0 0 .1-.9zm12.6-4.6v4.6a2.7 2.7 0 0 0 .1.9l.5.2h.4v.5h-3.5v-.5h.4l.5-.2a2.7 2.7 0 0 0 .1-.9v-4.6a2.7 2.7 0 0 0-.1-.9l-.5-.2h-.4v-.5h3.5v.5h-.4l-.5.2a2.7 2.7 0 0 0-.1.9zm6.3-.1l1.8 4.3 1.6-3.9a4.2 4.2 0 0 0 .3-1.1.4.4 0 0 0-.4-.3h-.5v-.4h2.6v.4h-.4a.7.7 0 0 0-.5.5l-2.3 5.6-.4 1.1h-.8l-2.7-6.4a1.1 1.1 0 0 0-.7-.8h-.5v-.4h3.6v.4h-.6a.3.3 0 0 0-.3.2 2.6 2.6 0 0 0 .2.8zm10.2-.8v2.7h1.5c.4 0 .6 0 .6-.2v-.6h.4v2.4h-.4v-.6c0-.3-.2-.4-.6-.4h-1.5v3h1.4l1.4-.2.3-1.1h.4v1.8a16.2 16.2 0 0 1-2.8.1h-2.7v-.3l.4-.2a.6.6 0 0 0 .2-.6v-5a2.7 2.7 0 0 0-.1-.9l-.5-.2h-.4v-.4h5.8v1.7h-.4v-.8a2.2 2.2 0 0 0-1.3-.2h-1.4zm7 5.4v-4.6a2.7 2.7 0 0 0-.1-.9l-.5-.2h-.3v-.4h4.1c1.1 0 2.2.3 2.2 1.7a2.2 2.2 0 0 1-1.7 2l2 3.1.3.3.5.2v.5h-2.1l-2.5-3.9v-.2a1.5 1.5 0 0 0 1.8-1.6 1.4 1.4 0 0 0-1.5-1.4h-.7v5.4a2.7 2.7 0 0 0 .1.9l.5.2h.4v.5H210v-.5h.4l.5-.2a2.7 2.7 0 0 0 .1-.9zm9.2-.7h.5v1a2.3 2.3 0 0 0 1.8.9 1.5 1.5 0 0 0 1.8-1.5 1.1 1.1 0 0 0-.9-1l-1.6-.5a2 2 0 0 1-1.6-1.9c0-1.8 1.3-2.5 3-2.5a5.8 5.8 0 0 1 2.1.4 16.3 16.3 0 0 0-.1 1.7h-.5v-.9a2.1 2.1 0 0 0-1.5-.6 1.3 1.3 0 0 0-1.5 1.4 1.2 1.2 0 0 0 1.2 1.1l1.3.3a2 2 0 0 1 1.7 1.9c0 1.9-1.6 2.7-3.3 2.7a5.4 5.4 0 0 1-2.3-.5 9.5 9.5 0 0 0 .2-1.9zm10.7-3.8v4.6a2.7 2.7 0 0 0 .1.9l.5.2h.4v.5h-3.5v-.5h.4l.5-.2a2.7 2.7 0 0 0 .1-.9v-4.6a2.7 2.7 0 0 0-.1-.9l-.5-.2h-.4v-.5h3.5v.5h-.4l-.5.2a2.7 2.7 0 0 0-.1.9zm7.6-.9v5.4a2.7 2.7 0 0 0 .1.9l.5.2h.4v.5h-3.5v-.5h.4l.5-.2a2.7 2.7 0 0 0 .1-.9v-5.4h-2v1h-.5a12.8 12.8 0 0 0-.1-1.8h7c0 .6-.1 1.1-.1 1.8h-.5v-1h-2zm9.1 2.9l2.1-3.6h.9v.2l-2 2.9-.6 1.1v1.8a2.7 2.7 0 0 0 .1.9l.5.2h.4v.5h-3.5v-.5h.4l.5-.2a2.7 2.7 0 0 0 .1-.9v-1.6l-.5-1-1.1-1.8-.6-.7a1 1 0 0 0-.9-.4v-.4l1.8-.4a3.4 3.4 0 0 1 1.3 1.5l1.2 2.3zm14-3.2c-2.1 0-2.6 1.6-2.6 3.2s.8 3.5 2.3 3.5 2.6-1.5 2.6-3.2-.8-3.5-2.3-3.5zm0-.6c2.5 0 4 1.4 4 3.9s-1.7 4-4.2 4-4-1.4-4-3.9 1.7-4 4.2-4zm9.1.8v2.7h1.3c.4 0 .6 0 .6-.2v-.6h.4v2.4h-.4v-.6c0-.3-.2-.4-.6-.4h-1.3v2.1a2.7 2.7 0 0 0 .1.9l.5.2h.5v.5h-3.6v-.5h.4l.5-.2a2.7 2.7 0 0 0 .1-.9v-4.6a2.7 2.7 0 0 0-.1-.9l-.5-.2h-.4v-.4h5.6v1.7h-.4V56a2.2 2.2 0 0 0-1.3-.2h-1.3zm13.1 4.6l1.7-3.9.6-1.4h.5l.5 1.6 1.5 3.8 1.1-4.2a1.4 1.4 0 0 0 0-.4.4.4 0 0 0-.4-.2h-.5v-.4h2.4v.4h-.4a.9.9 0 0 0-.5.8l-1.4 4.8c-.1.5-.2 1.1-.4 1.6h-.8l-.4-1.2-1.7-4.2-1.7 4-.5 1.4h-.8l-1.6-6.7a.5.5 0 0 0-.4-.5h-.4v-.4h3.2v.4h-.5a.4.4 0 0 0-.3.3v.3l.9 4.2zm12.3-4.6v2.7h1.5c.4 0 .6 0 .6-.2v-.6h.4v2.4h-.4v-.6c0-.3-.2-.4-.6-.4H296v3h1.4l1.4-.2.3-1.1h.4v1.8a16.2 16.2 0 0 1-2.8.1H294v-.3l.4-.2a.6.6 0 0 0 .2-.6v-5a2.7 2.7 0 0 0-.1-.9l-.5-.2h-.4v-.4h5.8v1.7h-.4V56a2.2 2.2 0 0 0-1.3-.2H296zm8.5.9v5.4h1.5l1.4-.2.3-1.1h.4v1.9a16.2 16.2 0 0 1-2.8.1h-2.7v-.3l.4-.2a.6.6 0 0 0 .2-.6v-5a2.7 2.7 0 0 0-.1-.9l-.5-.2h-.6v-.5h3.5v.6h-.4l-.5.2a2.7 2.7 0 0 0-.1.9zm8.5 0v5.4h1.4l1.4-.2.3-1.1h.4v1.9a16.2 16.2 0 0 1-2.8.1H311v-.3l.4-.2a.6.6 0 0 0 .2-.6v-5a2.7 2.7 0 0 0-.1-.9l-.5-.1h-.4v-.5h3.5v.5h-.4l-.5.2a2.7 2.7 0 0 0-.1.9zm8.5 0v4.6a2.7 2.7 0 0 0 .1.9l.5.2h.4v.5H319v-.5h.4l.5-.2a2.7 2.7 0 0 0 .1-.9v-4.6a2.7 2.7 0 0 0-.1-.9l-.5-.2h-.4v-.5h3.5v.6h-.4l-.5.2a2.7 2.7 0 0 0-.1.9zm4.4 4.6v-4.6a2.7 2.7 0 0 0-.1-.9l-.5-.2h-.4v-.4h2.3l1.2 1.5 3.5 4.1v-4a2.7 2.7 0 0 0-.1-.9l-.5-.2h-.4v-.4h2.6v.4h-.4l-.5.2a2.7 2.7 0 0 0-.1.9V63h-1l-1.4-1.6-3.6-4.4v4.4a2.7 2.7 0 0 0 .1.9l.5.2h.4v.4h-2.6v-.4h.4l.5-.2a2.7 2.7 0 0 0 .1-.9zm17.9-.8v1.8a8.9 8.9 0 0 1-3.3.7c-2.5 0-4.4-1.4-4.4-4.1s2.1-3.9 4.5-3.9a7.7 7.7 0 0 1 3.1.5l-.2 1.8h-.4v-1a3.3 3.3 0 0 0-2.3-.8 2.8 2.8 0 0 0-2.8 3.1c0 1.9 1 3.6 3 3.6l1.4-.3v-1.2c0-.3-.3-.4-.6-.4h-.6v-.5h3.3v.4c-.4.1-.5.1-.5.4zm7.3-4.6v5.4a2.7 2.7 0 0 0 .1.9l.5.2h.4v.5h-3.5v-.5h.4l.5-.2a2.7 2.7 0 0 0 .1-.9v-5.4h-2v1h-.5a12.7 12.7 0 0 0-.1-1.8h7c0 .6-.1 1.1-.1 1.8h-.5v-1h-2z" fill="#231f20"/></svg>