<svg xmlns="http://www.w3.org/2000/svg" viewBox="0 0 214.83 153.58"><path d="M43.11 65.11h4.14v.83h-4.14v-.83zM97.41 136v6.33h20.14V136l-2.88 3.17h-4l-3.19-3.17-3.16 3.17h-4L97.41 136zM84 90.86v6.33h20.14v-6.33L101.3 94h-4l-3.16-3.17-3.2 3.17h-4L84 90.86zm26.75 0v6.33h20.14v-6.33L128.05 94h-4l-3.16-3.17L117.7 94h-4l-2.88-3.17zm-3.31 11.43c-3.22 0-4.7 2.31-7.92 2.31s-4.7-2.38-7.92-2.31c-3 .06-4.33 2.26-7.33 2.31s-5.13-2.12-7.34-2v19.91c.11 4.17 3.33 10.15 7.32 10.15 3 0 4.35-2.23 7.35-2.29 3.22-.07 4.7 2.31 7.92 2.31s4.7-2.31 7.92-2.31 4.7 2.31 7.92 2.31 4.7-2.38 7.92-2.31c3 .06 4.33 2.24 7.33 2.29 4 0 7.23-6 7.34-10.15v-19.94c-2.21-.11-4.37 2.07-7.34 2s-4.33-2.24-7.33-2.31c-3.22-.07-4.7 2.31-7.92 2.31s-4.7-2.31-7.92-2.31zm0 51.3c-1.3 0-32.94-13.71-32.94-31.1v-38h65.89v38c0 17.4-31.66 31.1-33 31.1zm-4.71-29.36l-1.38-2.39 1.38-2.39H100l-1.38-2.39-1.38 2.39h-2.76l1.38 2.39-1.38 2.39h2.76l1.38 2.39 1.38-2.39h2.76zm17.71-8.72l-1.38-2.39 1.38-2.39h-2.76l-1.38-2.39-1.3 2.38h-2.8l1.38 2.39-1.38 2.39h2.8l1.38 2.39 1.38-2.39h2.76zm-12.67 0l-1.38-2.39 1.38-2.39H105l-1.38-2.39-1.38 2.39h-2.76l1.38 2.39-1.38 2.39h2.76l1.38 2.39 1.38-2.4h2.76zm7.63 8.72l-1.38-2.39 1.38-2.39h-2.76l-1.38-2.39-1.38 2.39h-2.76l1.38 2.39-1.38 2.39h2.76l1.38 2.39 1.38-2.39h2.76zm-24.21-17.54h32.52v21.58H91.23v-21.59zm-24.18-3.74c-1.86 0-4.21-2.41-4-3.91 1.09-8.17 5.3-5.54 8.4-7.93.88 1.15 2.18 11.83-4.38 11.83zm98.41 7.42a9.34 9.34 0 0 1-3.45 5.75c1.75-.05 4.57.18 5.18-2a3.22 3.22 0 0 0-1.73-3.74zm-4.89-1.15c-6.18-.27-8.58 3.42-6.51 4.83 3.93 2.67 6.48-4.91 6.51-4.83zm.29-8.92a7.58 7.58 0 0 1-3.76 2 53.81 53.81 0 0 1 6.35 0 10.73 10.73 0 0 1-2.59-2zm-12-7.37a4.85 4.85 0 1 0 4.85-4.85 4.85 4.85 0 0 0-4.85 4.85zm19.41 3.95a2.72 2.72 0 0 1 3.21-.7c1.43.49 2.33 1.7 2.06 2.73 7.12-.14 8.82-1.79 8.87-1.73-2.07 3.82-8.13 6.56-10.42 6.78 3.24 1.11 9.59 4.8 9.55 11.93 0 10.42-10.11 11.87-15.79 10.37a4.17 4.17 0 0 1 2.81 2H143v-21a11.94 11.94 0 0 1 4.15-2.8 1.81 1.81 0 0 0 1-1.78 9.58 9.58 0 0 1-5.18-3.17V87.4s3.08-4.32 10.36-4.32A11.46 11.46 0 0 1 162.3 88s2.42-2 7.19-2c10.76 0 13.24 10.36 13.24 10.36a17.62 17.62 0 0 0-8.9-3.74 2.29 2.29 0 0 1-2.34 1.66 2.37 2.37 0 0 1-2.26-1.37l-.88.57a2.46 2.46 0 0 1 .16 1.09 2.54 2.54 0 0 1-1 1.8l.81.54zm-16.73-3.95a2.17 2.17 0 1 1 2.17 2.17 2.17 2.17 0 0 1-2.17-2.17zm-79.63 8.86v26.47H32.23a23.51 23.51 0 0 1 2.59-4.89c-1-.81-1.81-1.55-1.73-1.44-.09-.11 5.31-7.12 9.21-7.19a8 8 0 0 1-1.44-1.44c1.39-1.55 3.87-1.66 12.09-2.3s9.35-2.87 9.5-9.51c2 2.45 5.48 5.41 9.49.3zM51.8 88.27c-2.63-1.81-4-2.5-4.89-2.31s-2.61 3-2.59 2.88a32.8 32.8 0 0 1 7.48-.58zM42 99.2c-1.88-1.58-4.28-4.74-4.61-6.91a3 3 0 0 1 .87-2.59 5.14 5.14 0 0 1-.29-2.3c1.14-3.41 17.38-3.56 20.72-3.45 7.59.34 9.21 0 12.95-1.44-.1-.13-1.25 5.57-8.34 5.47a8.64 8.64 0 0 0 0 .86c2.8.05 6.13-.58 8.06-2.88-.06 1.93.67 4.3-3.16 5.18-3.69.85-6 .73-7.19 11.22-.24 3 0 5.55-4.89 6.62-4.71 1-17.17 1.35-19.41 3.1l-.45-.8a7.86 7.86 0 0 0 3.74-7.19 3.87 3.87 0 0 1 1.73-.57c0 1-1.26 3.17 4.6 3.17.11 0 5.51.64 3.17-6.33-.73-2.18-1.38-4.66-4-4.61 0-.05-3.41.16-1.73 3.53 2.39.5 5.11 1.09 5.48 2.8s-1 2.73-2 2.3-3.77-2-5.75-2c-3.66 0-10.2 4.15-14.39-3.71 1.21 1.3 2.36 2.16 6.33 2.27s4.71-1.62 8.63-1.73zM10.4 5.71l6.16 15.18L22.14 7a14.82 14.82 0 0 0 1.22-3.84c0-.71-.67-1-1.45-1.06L20.1 2V.53c1.92 0 3.42.11 4.55.11s2.59-.07 4.51-.11V2l-1.26.12c-.86.08-1.37.71-1.85 1.84L17.88 23.5c-.55 1.29-1 2.59-1.49 3.88h-3L4 5c-.47-1.1-1.1-2.71-2.43-2.82L0 2V.53c2.59 0 4.59.11 6.12.11S9.61.57 12.56.53V2l-2 .12a1 1 0 0 0-1 .75 9.15 9.15 0 0 0 .82 2.82zM42.1 6v16a9.41 9.41 0 0 0 .28 3.18c.16.31.59.47 1.61.55l1.45.12v1.59c-1.61 0-3.77-.11-6.09-.11s-4.51.07-6.12.11v-1.59l1.45-.12c1-.08 1.45-.24 1.61-.55a9.42 9.42 0 0 0 .27-3.18V6a9.42 9.42 0 0 0-.27-3.17c-.16-.31-.59-.47-1.61-.55l-1.45-.12V.57c1.61 0 3.77.11 6.12.11s4.48-.07 6.09-.11v1.59l-1.45.12c-1 .08-1.45.24-1.61.55A9.41 9.41 0 0 0 42.1 6zm32.79 17.89l-.89 1.9a17.25 17.25 0 0 1-9 2.16c-8.94 0-15.54-5-15.54-14.41C49.46 4.54 56.8 0 65.15 0a22.48 22.48 0 0 1 9.63 1.85l.24.43a52.27 52.27 0 0 0-.9 6h-1.55l-.2-3.38a9.32 9.32 0 0 0-7.06-2.71c-6.51 0-10 4.63-10 10.84 0 7.18 4.16 12.37 11.57 12.37a16.81 16.81 0 0 0 7.51-2l.47.47zM93.89 3v19a9.45 9.45 0 0 0 .27 3.18c.16.31.59.47 1.61.55l1.45.12v1.59c-1.61 0-3.76-.11-6.08-.11s-4.51.07-6.12.11v-1.59l1.45-.12c1-.08 1.45-.24 1.61-.55a9.43 9.43 0 0 0 .27-3.18V3h-4.58c-1.06 0-2.15 0-2.43.35a1.76 1.76 0 0 0-.35.94L80.79 7H79.2a45 45 0 0 0-.51-6.24l.24-.2c4.13 0 8.21.12 12.17.12S99.17.6 103.31.56l.24.2A44.89 44.89 0 0 0 103 7h-1.59l-.2-2.71a1.75 1.75 0 0 0-.35-.94C100.59 3 99.49 3 98.43 3h-4.58zm27.46-.79c-7.3 0-9 5.46-9 11.35 0 6.48 2.71 12.21 8.24 12.21 7.3 0 9-5.42 9-11.31 0-6.48-2.71-12.25-8.24-12.25zm0-2.2c8.79 0 14.13 4.79 14.13 13.74 0 9.27-5.93 14.21-14.92 14.21-8.79 0-14.13-4.79-14.13-13.74 0-9.27 5.93-14.21 14.92-14.21zm21.16 22V6a9.42 9.42 0 0 0-.27-3.17c-.2-.39-.59-.59-1.61-.67l-1.45-.12V.57c2.59 0 4.59.12 6.6.12 2.67 0 5.3-.08 8-.12 4-.08 7.69 1.14 7.69 5.81 0 3.45-2.59 5.77-5.85 6.94L162.67 24a5.51 5.51 0 0 0 1.14 1.22 4 4 0 0 0 1.61.55v1.59c-1.26 0-2.55-.11-3.81-.11s-2.36.07-3.53.11l-8.79-13.63.28-.71c3.61.31 6.28-1.92 6.28-5.61 0-3.22-2.24-4.94-5.3-4.94a6.41 6.41 0 0 0-2.51.35V22a9.43 9.43 0 0 0 .27 3.18c.16.31.59.47 1.61.55l1.45.12v1.59c-1.61 0-3.77-.11-6.09-.11s-4.52.07-6.12.11v-1.59l1.45-.12c1-.08 1.45-.24 1.61-.55a9.43 9.43 0 0 0 .27-3.18zm35.82-16v16a9.41 9.41 0 0 0 .27 3.18c.16.31.59.47 1.61.55l1.45.12v1.59c-1.61 0-3.77-.11-6.09-.11s-4.51.07-6.12.11v-1.59l1.45-.12c1-.08 1.45-.24 1.61-.55a9.42 9.42 0 0 0 .27-3.18V6a9.42 9.42 0 0 0-.27-3.17c-.16-.31-.59-.47-1.61-.55l-1.45-.12V.57c1.61 0 3.77.11 6.12.11s4.48-.07 6.09-.11v1.59l-1.45.12c-1 .08-1.45.24-1.61.55a9.41 9.41 0 0 0-.27 3.17zm20.23 1l-3.93 10h8l-4.08-10zm5 12.17h-9.85l-1.71 4.4c-.55 1.49.24 2.19.94 2.23l2 .12v1.47c-1.88 0-3.3-.11-4.44-.11s-2.55.07-4.44.11v-1.47l1.18-.12c1-.12 1.73-1.21 2.2-2.35l7.11-17.18 1-2.71.63-1.61.59-1.61h2.79l10.17 23.74a2.46 2.46 0 0 0 2.16 1.72l.94.12v1.47c-2.63 0-4.55-.11-6.09-.11s-3.49.07-6.08.11v-1.47l2.08-.12c.63 0 1.06-.9.55-2.15l-1.77-4.46zm3.72 23.33V38a2.67 2.67 0 0 0-.08-.9.48.48 0 0 0-.46-.19h-.41v-.42h2.28c.38.5.75 1 1.15 1.49l3.49 4.07v-4a2.68 2.68 0 0 0-.08-.9.48.48 0 0 0-.46-.19h-.41v-.42h2.56v.42h-.41a.48.48 0 0 0-.46.19 2.68 2.68 0 0 0-.08.9v6.2l-1-.1c-.46-.51-.93-1-1.36-1.56l-3.62-4.35v4.36a2.67 2.67 0 0 0 .08.9.48.48 0 0 0 .46.19h.41v.42h-2.56v-.42h.41a.48.48 0 0 0 .46-.19 2.67 2.67 0 0 0 .08-.9zM3.22 42.05V38a2.68 2.68 0 0 0-.08-.9.48.48 0 0 0-.46-.19h-.41v-.42h3.47v.42h-.41a.48.48 0 0 0-.46.19 2.68 2.68 0 0 0-.08.9v2.77c0 1.57.1 2.57 2 2.57s2.08-1 2.08-2.65V38a2.68 2.68 0 0 0-.08-.9.48.48 0 0 0-.46-.19h-.41v-.42h2.56v.42h-.41a.48.48 0 0 0-.46.19 2.68 2.68 0 0 0-.08.9v3.26c0 2-1.08 3-3.11 3s-3.2-.91-3.2-2.17zm10.52.46V38a2.68 2.68 0 0 0-.08-.9.48.48 0 0 0-.46-.19h-.41v-.42h2.28c.38.5.75 1 1.15 1.49l3.49 4.07v-4a2.68 2.68 0 0 0-.08-.9.48.48 0 0 0-.46-.19h-.41v-.42h2.56v.42h-.41a.48.48 0 0 0-.46.19 2.68 2.68 0 0 0-.08.9v6.2l-1-.1c-.46-.51-.93-1-1.36-1.56l-3.62-4.35v4.36a2.68 2.68 0 0 0 .08.9.48.48 0 0 0 .46.19h.41v.42h-2.56v-.42h.41a.48.48 0 0 0 .46-.19 2.68 2.68 0 0 0 .08-.9zM26.35 38v4.55a2.68 2.68 0 0 0 .08.9.52.52 0 0 0 .46.16h.41v.45h-3.47v-.45h.41a.52.52 0 0 0 .46-.16 2.68 2.68 0 0 0 .08-.9V38a2.68 2.68 0 0 0-.08-.9.52.52 0 0 0-.46-.16h-.41v-.45h3.47v.45h-.41a.52.52 0 0 0-.46.16 2.68 2.68 0 0 0-.08.9zm6.29-.08l1.76 4.32 1.59-3.94a4.22 4.22 0 0 0 .35-1.09.36.36 0 0 0-.41-.3h-.51v-.42h2.59v.42h-.36a.67.67 0 0 0-.53.53L34.78 43c-.16.37-.28.74-.42 1.11h-.86l-2.67-6.39a1.09 1.09 0 0 0-.69-.8h-.46v-.42h3.57v.42h-.56a.28.28 0 0 0-.29.21 2.6 2.6 0 0 0 .23.8zm10.19-.79v2.68h1.49c.39 0 .61 0 .64-.23l.07-.64h.45v2.41H45l-.07-.56c0-.31-.25-.41-.64-.41H42.8v3h1.43a3.8 3.8 0 0 0 1.36-.19l.26-1.05h.44L46.2 44a16 16 0 0 1-2.81.12h-2.72v-.26l.36-.2a.64.64 0 0 0 .22-.64v-5a2.68 2.68 0 0 0-.08-.9.48.48 0 0 0-.46-.19h-.41v-.42h4.19a15.14 15.14 0 0 1 1.63 0L46 38.13h-.4l-.09-.84a2.19 2.19 0 0 0-1.29-.21h-1.43zm7 5.42V38a2.68 2.68 0 0 0-.08-.9.48.48 0 0 0-.46-.19h-.41v-.42h4.15c1.14 0 2.19.32 2.19 1.65a2.19 2.19 0 0 1-1.67 2l2 3.06a1.56 1.56 0 0 0 .32.35 1.14 1.14 0 0 0 .46.16v.45h-2.08l-2.5-3.88.08-.2a1.54 1.54 0 0 0 1.79-1.6A1.36 1.36 0 0 0 52.1 37a1.82 1.82 0 0 0-.72.1v5.44a2.69 2.69 0 0 0 .08.9.52.52 0 0 0 .46.16h.41v.45h-3.47v-.45h.41a.52.52 0 0 0 .46-.16 2.69 2.69 0 0 0 .08-.9zm9.21-.74h.45l.08 1a2.28 2.28 0 0 0 1.75.86 1.54 1.54 0 0 0 1.75-1.48 1.08 1.08 0 0 0-.93-1l-1.57-.47a2 2 0 0 1-1.63-1.9c0-1.79 1.33-2.47 3-2.47a5.76 5.76 0 0 1 2.08.38 16.2 16.2 0 0 0-.1 1.72h-.52l-.07-.92a2.11 2.11 0 0 0-1.49-.61 1.34 1.34 0 0 0-1.53 1.35 1.23 1.23 0 0 0 1.18 1.08l1.27.34a2 2 0 0 1 1.69 1.92c0 1.9-1.58 2.69-3.27 2.69a5.43 5.43 0 0 1-2.34-.51 9.55 9.55 0 0 0 .17-1.93zM69.74 38v4.55a2.68 2.68 0 0 0 .08.9.52.52 0 0 0 .46.16h.41v.45h-3.47v-.45h.41a.52.52 0 0 0 .46-.16 2.68 2.68 0 0 0 .08-.9V38a2.68 2.68 0 0 0-.08-.9.52.52 0 0 0-.46-.16h-.41v-.45h3.47v.45h-.41a.52.52 0 0 0-.46.16 2.68 2.68 0 0 0-.08.9zm7.62-.85v5.41a2.69 2.69 0 0 0 .08.9.52.52 0 0 0 .46.16h.41v.45h-3.47v-.45h.41a.52.52 0 0 0 .46-.16 2.69 2.69 0 0 0 .08-.9v-5.41h-1.3a1.2 1.2 0 0 0-.69.1.5.5 0 0 0-.1.27l-.06.77h-.45a12.8 12.8 0 0 0-.15-1.78h7.01c0 .59-.06 1.11-.08 1.83h-.45l-.06-.77a.5.5 0 0 0-.1-.27 1.2 1.2 0 0 0-.69-.1h-1.3zm9.08 2.93l2.1-3.59h.86v.21l-2 2.91a7.13 7.13 0 0 0-.59 1.12v1.82a2.7 2.7 0 0 0 .08.91.52.52 0 0 0 .46.16h.41v.45h-3.47v-.45h.41a.52.52 0 0 0 .46-.16 2.7 2.7 0 0 0 .08-.91V41a6.94 6.94 0 0 0-.49-1l-1.13-1.82a6.38 6.38 0 0 0-.58-.75 1 1 0 0 0-.87-.37v-.41l1.78-.39a3.36 3.36 0 0 1 1.27 1.51l1.2 2.27zm14-3.16c-2.08 0-2.57 1.55-2.57 3.23 0 1.84.77 3.48 2.35 3.48 2.08 0 2.57-1.54 2.57-3.22 0-1.84-.77-3.49-2.35-3.49zm0-.63c2.5 0 4 1.36 4 3.91s-1.69 4-4.25 4-4-1.36-4-3.91 1.69-4 4.25-4zm9.09.84v2.72h1.32c.39 0 .61 0 .64-.23l.07-.59h.44v2.36h-.45l-.07-.56c0-.31-.25-.41-.64-.41h-1.32v2.09a2.68 2.68 0 0 0 .08.9.52.52 0 0 0 .46.16h.53v.45h-3.58v-.45h.41a.52.52 0 0 0 .46-.16 2.67 2.67 0 0 0 .08-.9V38a2.67 2.67 0 0 0-.08-.9.48.48 0 0 0-.46-.19h-.41v-.42h4.01a15.15 15.15 0 0 1 1.63 0l-.09 1.67h-.4l-.09-.84a2.19 2.19 0 0 0-1.29-.21h-1.25zm13.13 4.58l1.67-3.94.57-1.39h.5c.18.51.36 1 .55 1.49l1.52 3.8 1.1-4.19a1.38 1.38 0 0 0 0-.37.37.37 0 0 0-.39-.22h-.51v-.42h2.42v.42h-.37a.93.93 0 0 0-.48.77l-1.36 4.83c-.15.52-.25 1.06-.37 1.6h-.82c-.15-.39-.27-.78-.43-1.17l-1.67-4.19-1.73 4c-.2.46-.35.93-.53 1.4h-.78L120 37.35a.49.49 0 0 0-.41-.47h-.36v-.42h3.24v.42H122a.37.37 0 0 0-.34.26 1.86 1.86 0 0 0 0 .31l.91 4.24zm12.27-4.58v2.68h1.49c.39 0 .62 0 .64-.23l.07-.64h.45v2.41h-.45l-.07-.56c0-.31-.25-.41-.64-.41h-1.49v3h1.43a3.8 3.8 0 0 0 1.36-.19l.26-1.05h.44l-.15 1.86a16 16 0 0 1-2.81.12h-2.71v-.26l.36-.2a.64.64 0 0 0 .22-.64v-5a2.69 2.69 0 0 0-.08-.9.48.48 0 0 0-.46-.19h-.41v-.42h4.19a15.14 15.14 0 0 1 1.63 0l-.09 1.67h-.4l-.09-.84a2.19 2.19 0 0 0-1.29-.21h-1.43zm8.55.86v5.42h1.43a3.81 3.81 0 0 0 1.36-.19l.26-1.14h.44l-.15 1.92a16 16 0 0 1-2.81.12h-2.71v-.26l.36-.2a.64.64 0 0 0 .22-.64v-5a2.68 2.68 0 0 0-.08-.9.52.52 0 0 0-.46-.16h-.41v-.45h3.47v.45h-.41a.52.52 0 0 0-.46.16 2.68 2.68 0 0 0-.08.9zm8.55 0v5.42h1.43a3.81 3.81 0 0 0 1.36-.19l.18-1.12h.44l-.07 1.9a16 16 0 0 1-2.81.12h-2.71v-.26l.36-.2a.64.64 0 0 0 .22-.64v-5a2.68 2.68 0 0 0-.08-.9.52.52 0 0 0-.46-.16h-.41v-.45h3.47v.45h-.41a.52.52 0 0 0-.46.16 2.68 2.68 0 0 0-.08.9zm8.55 0v4.55a2.68 2.68 0 0 0 .08.9.52.52 0 0 0 .46.16h.41v.45h-3.47v-.45h.41a.52.52 0 0 0 .46-.16 2.68 2.68 0 0 0 .08-.9V38a2.68 2.68 0 0 0-.08-.9.52.52 0 0 0-.46-.16h-.41v-.45h3.47v.45h-.41a.52.52 0 0 0-.46.16 2.68 2.68 0 0 0-.08.9zm4.45 4.55V38a2.68 2.68 0 0 0-.08-.9.48.48 0 0 0-.46-.19h-.41v-.42h2.28c.38.5.75 1 1.15 1.49L171 42v-4a2.68 2.68 0 0 0-.08-.9.48.48 0 0 0-.46-.19h-.41v-.42h2.56v.42h-.41a.48.48 0 0 0-.46.19 2.69 2.69 0 0 0-.08.9v6.2l-1-.1c-.46-.51-.93-1-1.36-1.56l-3.62-4.35v4.36a2.67 2.67 0 0 0 .08.9.48.48 0 0 0 .46.19h.41v.42h-2.56v-.42h.41a.48.48 0 0 0 .46-.19 2.68 2.68 0 0 0 .08-.9zm17.9-.79v1.82a8.91 8.91 0 0 1-3.27.67c-2.55 0-4.42-1.43-4.42-4.1s2.09-3.86 4.47-3.86a7.78 7.78 0 0 1 3.08.53c0 .53-.13 1.35-.19 1.83h-.44l-.06-1a3.28 3.28 0 0 0-2.34-.77 2.77 2.77 0 0 0-2.84 3.09c0 1.93 1 3.62 3 3.62a3.92 3.92 0 0 0 1.42-.28v-1.48c0-.35-.28-.4-.64-.41h-.59V41h3.27v.38c-.38.08-.46.12-.46.4zm7.33-4.62v5.41a2.68 2.68 0 0 0 .08.9.52.52 0 0 0 .46.16h.41v.45h-3.47v-.45h.41a.52.52 0 0 0 .46-.16 2.68 2.68 0 0 0 .08-.9v-5.41h-1.3a1.2 1.2 0 0 0-.69.1.5.5 0 0 0-.1.27l-.06.77H186a12.77 12.77 0 0 0-.15-1.78h7.01c0 .59-.06 1.11-.08 1.83h-.45l-.06-.77a.5.5 0 0 0-.1-.27 1.2 1.2 0 0 0-.69-.1h-1.3zm9.43-.22c-2.08 0-2.57 1.55-2.57 3.23 0 1.84.77 3.48 2.35 3.48 2.08 0 2.57-1.54 2.57-3.22 0-1.84-.77-3.49-2.35-3.49zm0-.63c2.5 0 4 1.36 4 3.91s-1.69 4-4.25 4-4-1.36-4-3.91 1.69-4 4.25-4zM124 51.47h4.14v.83H124v-.83zM34.64 59.9v-5.79h-1.72c-.33 0-.42.1-.44.36v.87h-.34c0-.6 0-1.21-.08-1.78h6.33c-.06.58-.08 1.18-.08 1.78H38v-.87c0-.27-.11-.36-.44-.36h-1.72v5.79a2 2 0 0 0 .1.83.51.51 0 0 0 .46.17h.53v.34h-3.24v-.34h.53a.51.51 0 0 0 .46-.17 2 2 0 0 0 .1-.83zm6.94 0v-5a2 2 0 0 0-.1-.83.51.51 0 0 0-.46-.17h-.53v-.34h5.91a7.4 7.4 0 0 0-.18 1.68h-.39v-.72a.29.29 0 0 0-.1-.3 6.87 6.87 0 0 0-2.17-.23 3.81 3.81 0 0 0-.93.09v3h1.28a3.07 3.07 0 0 0 1.17-.12.42.42 0 0 0 .09-.29l.06-.58h.34v2.51h-.34l-.06-.65a.37.37 0 0 0-.09-.28 2.75 2.75 0 0 0-1.17-.13h-1.28v3.1a3.81 3.81 0 0 0 .93.09 10.2 10.2 0 0 0 2.24-.14 2.05 2.05 0 0 0 .39-1.24h.39a9.52 9.52 0 0 0-.18 1.82h-5.77v-.34h.4a.54.54 0 0 0 .46-.17 2 2 0 0 0 .1-.83zm18.33-.85l-1.38-3.75-1.93 4.89c-.14.38-.29.75-.4 1.14h-.55c-.08-.41-.17-.75-.25-1.14l-1.32-5.7a.56.56 0 0 0-.55-.55h-.31v-.34H56v.34h-.46c-.29 0-.51.08-.37.73l1.1 4.93 1.38-3.45c.34-.87.7-1.76 1-2.67H59a14 14 0 0 0 .45 1.4l1.72 4.8 1.47-5.37c.07-.27-.09-.33-.51-.36h-.44v-.34h2.32v.34h-.35a.42.42 0 0 0-.42.32l-1.69 5.95c-.09.32-.21.66-.3 1.12h-.55c-.24-.87-.51-1.51-.79-2.28zm13.83-4.12v5a2 2 0 0 0 .1.83.51.51 0 0 0 .46.17h.53v.34h-3.24v-.34h.53a.51.51 0 0 0 .46-.17 2 2 0 0 0 .1-.83v-2.46h-4.43v2.46a2 2 0 0 0 .1.83.51.51 0 0 0 .46.17h.53v.34H66.1v-.34h.53a.51.51 0 0 0 .46-.17 2 2 0 0 0 .1-.83v-5a2 2 0 0 0-.1-.83.51.51 0 0 0-.46-.17h-.53v-.34h3.24v.34h-.53a.51.51 0 0 0-.46.17 2 2 0 0 0-.1.83v2h4.43v-2a2 2 0 0 0-.1-.83.51.51 0 0 0-.46-.17h-.53v-.34h3.24v.34h-.53a.51.51 0 0 0-.46.17 2 2 0 0 0-.1.83zm5.67 3.32h2.8l-1.39-3.3-1.41 3.3zm1.86-4.77l2.68 6.28c.1.22.22.52.35.75a.61.61 0 0 0 .44.38h.38v.34h-2.94v-.34h.52a.42.42 0 0 0 .45-.22A2.57 2.57 0 0 0 83 60l-.51-1.27H79.3l-.31.74a6.37 6.37 0 0 0-.39 1.15c0 .23.19.28.53.31h.41v.34H77v-.34h.41a.79.79 0 0 0 .6-.54l2-4.48c.34-.77.72-1.59 1-2.39h.35zm8.16.64v5.77a2 2 0 0 0 .1.83.51.51 0 0 0 .46.17h.53v.34h-3.24v-.34h.53a.51.51 0 0 0 .46-.17 2 2 0 0 0 .1-.83v-5a2 2 0 0 0-.1-.83.54.54 0 0 0-.46-.17h-.45v-.34h3.82c1.77 0 2.24.86 2.24 1.66a2.37 2.37 0 0 1-2.16 2.14l2.51 3.27a.85.85 0 0 0 .68.29v.34H92.9c-.14-.21-.31-.4-.45-.6l-2-2.73c-.18-.24-.39-.45-.58-.69a7.58 7.58 0 0 1 1-.18 1.63 1.63 0 0 0 1.44-1.55 1.5 1.5 0 0 0-1.75-1.53 4.31 4.31 0 0 0-1.13.13zm8 5.77v-5a2 2 0 0 0-.1-.83.51.51 0 0 0-.47-.17h-.53v-.34h5.91a7.41 7.41 0 0 0-.18 1.68h-.39v-.72a.29.29 0 0 0-.1-.3 6.87 6.87 0 0 0-2.17-.23 3.81 3.81 0 0 0-.93.09v3h1.28A3.07 3.07 0 0 0 101 57a.42.42 0 0 0 .09-.29l.06-.58h.34v2.51h-.34l-.06-.65a.37.37 0 0 0-.09-.28 2.75 2.75 0 0 0-1.17-.13h-1.28v3.1a3.81 3.81 0 0 0 .93.09 10.2 10.2 0 0 0 2.24-.14 2 2 0 0 0 .39-1.24h.39a9.51 9.51 0 0 0-.18 1.82h-5.77v-.34h.4a.54.54 0 0 0 .47-.17 2 2 0 0 0 .1-.83zm18.33-.85l-1.38-3.75-1.93 4.89c-.14.38-.29.75-.4 1.14h-.55c-.08-.41-.17-.75-.25-1.14L110 54.5a.56.56 0 0 0-.55-.55h-.31v-.34h2.78v.34h-.46c-.29 0-.51.08-.37.73l1.1 4.93 1.38-3.45c.34-.87.7-1.76 1-2.67h.35a14 14 0 0 0 .45 1.4l1.72 4.8 1.47-5.37c.07-.27-.09-.33-.51-.36h-.44v-.34h2.32v.34h-.35a.42.42 0 0 0-.42.32l-1.69 5.95c-.09.32-.21.66-.3 1.12h-.55c-.24-.87-.51-1.51-.79-2.28zm8.62-.8h2.8l-1.39-3.3-1.41 3.3zm1.86-4.77l2.68 6.28c.1.22.22.52.35.75a.61.61 0 0 0 .44.38h.38v.34h-2.94v-.34h.52a.42.42 0 0 0 .45-.22A2.57 2.57 0 0 0 128 60l-.51-1.27h-3.19l-.31.74a6.37 6.37 0 0 0-.39 1.15c0 .23.19.28.53.31h.41v.34H122v-.34h.41a.79.79 0 0 0 .6-.54l2-4.48c.34-.77.72-1.59 1-2.39h.35zm7 6.42v-5a2 2 0 0 0-.1-.83.54.54 0 0 0-.46-.17h-.49v-.34h1.93l5.29 6.53v-5.16a2 2 0 0 0-.1-.83.54.54 0 0 0-.46-.17h-.49v-.34h2.61v.34h-.49a.54.54 0 0 0-.46.17 2 2 0 0 0-.1.83v6.49l-1-.18-5.21-6.47v5.09a2 2 0 0 0 .1.83.54.54 0 0 0 .46.17h.49v.34h-2.61v-.34h.49a.54.54 0 0 0 .46-.17 2 2 0 0 0 .1-.83zm12.29-1.65h2.8L147 55l-1.41 3.3zm1.86-4.77l2.68 6.28c.1.22.22.52.35.75a.61.61 0 0 0 .44.38h.38v.34h-2.94v-.34h.52a.42.42 0 0 0 .45-.22 2.58 2.58 0 0 0-.23-.71l-.51-1.27h-3.19l-.31.74a6.37 6.37 0 0 0-.39 1.15c0 .23.19.28.53.31h.41v.34h-2.54v-.34h.41a.79.79 0 0 0 .6-.54l2-4.48c.34-.77.72-1.59 1-2.39h.35zm7 6.42v-5a2 2 0 0 0-.1-.83.54.54 0 0 0-.46-.17h-.49v-.34h1.93l5.29 6.53v-5.16a2 2 0 0 0-.1-.83.54.54 0 0 0-.46-.17h-.49v-.34h2.61v.34h-.49a.54.54 0 0 0-.46.17 2 2 0 0 0-.1.83v6.49l-1-.18-5.07-6.42v5.09a2 2 0 0 0 .1.83.54.54 0 0 0 .46.17h.49v.34h-2.61v-.34h.49a.54.54 0 0 0 .46-.17 2 2 0 0 0 .1-.83zm16.23.25V59a.33.33 0 0 0-.38-.39l-.92-.08v-.34h2.71v.28l-.32.11c-.12 0-.12.09-.12.41v1.86a12.44 12.44 0 0 1-2.91.56c-2.47 0-4.46-1.28-4.46-4.06 0-2.43 2-4 4.67-4a8.73 8.73 0 0 1 2.74.45 6.93 6.93 0 0 0-.22 1.68h-.34v-.59a1 1 0 0 0-.92-.89 4.76 4.76 0 0 0-1.55-.2 3 3 0 0 0-3.2 3.35c0 2.2 1.28 3.78 3.56 3.78a2.06 2.06 0 0 0 1.55-.39 1.06 1.06 0 0 0 .06-.45zm6.18-1.89h2.8l-1.39-3.3-1.41 3.3zm1.86-4.77l2.68 6.28c.1.22.22.52.35.75a.61.61 0 0 0 .44.38h.38v.34h-2.94v-.34h.52a.42.42 0 0 0 .45-.22 2.58 2.58 0 0 0-.23-.71l-.51-1.27h-3.19l-.31.74a6.37 6.37 0 0 0-.39 1.15c0 .23.19.28.53.31h.41v.34h-2.54v-.34h.41a.79.79 0 0 0 .6-.54l2-4.48c.34-.77.72-1.59 1-2.39h.35zm9.11 11.62H192v.83h-4.14v-.83zm20.77 3.48v5a1.94 1.94 0 0 0 .1.83.51.51 0 0 0 .46.17h.53v.34h-3.24v-.34h.53a.51.51 0 0 0 .46-.17 2 2 0 0 0 .1-.83v-5a2 2 0 0 0-.1-.83.51.51 0 0 0-.46-.17h-.53v-.34h3.24v.34h-.53a.51.51 0 0 0-.46.17 2 2 0 0 0-.1.83zM8.87 67.5c-1.93 0-2.8 1.35-2.8 3.17s.91 4 3.1 4c1.85 0 2.74-1.44 2.74-3.47 0-2.19-1-3.66-3-3.66zm-.06 7.6a3.79 3.79 0 0 1-3.93-4 3.91 3.91 0 0 1 4.16-4c2.37 0 4.05 1.33 4.05 3.78a4.24 4.24 0 0 1-4.28 4.28zm13.52-1.55v-5.79h-1.72c-.33 0-.42.1-.44.37V69h-.34c0-.6 0-1.21-.08-1.78h6.38c-.06.58-.08 1.18-.08 1.78h-.34v-.87c0-.27-.11-.37-.44-.37h-1.72a11.07 11.07 0 0 0 0 1.11v4.68a2 2 0 0 0 .1.83.51.51 0 0 0 .46.17h.53v.34H21.4v-.34h.53a.51.51 0 0 0 .46-.17 2 2 0 0 0 .1-.83zm6.94 0v-5a2 2 0 0 0-.1-.83.51.51 0 0 0-.46-.17h-.53v-.34h5.91a7.4 7.4 0 0 0-.18 1.68h-.39v-.72a.29.29 0 0 0-.1-.3 6.88 6.88 0 0 0-2.17-.23 3.83 3.83 0 0 0-.93.09v3h1.28a3.07 3.07 0 0 0 1.17-.12.42.42 0 0 0 .09-.29l.06-.58h.34v2.51h-.34l-.06-.65a.37.37 0 0 0-.09-.28 2.75 2.75 0 0 0-1.17-.13h-1.28v3.1a3.83 3.83 0 0 0 .93.09 10.2 10.2 0 0 0 2.24-.14 2.05 2.05 0 0 0 .39-1.24h.39a9.52 9.52 0 0 0-.18 1.81h-5.77v-.34h.4a.54.54 0 0 0 .46-.17 2 2 0 0 0 .1-.83zm12.78-1v-3.93a2 2 0 0 0-.1-.83.51.51 0 0 0-.46-.17h-.53v-.34h3.24v.34h-.53a.51.51 0 0 0-.46.17 2 2 0 0 0-.1.83v3.8c0 1.57.82 2 2.28 2a2 2 0 0 0 2.28-2.29v-3.54a2 2 0 0 0-.1-.83.54.54 0 0 0-.46-.17h-.49v-.34h2.61v.34h-.49a.54.54 0 0 0-.46.17 2 2 0 0 0-.1.83v3.2c0 2.37-.9 3.32-3.13 3.32-1.88 0-3-.56-3-2.59zm11.45-4.74v5.77a2 2 0 0 0 .1.83.51.51 0 0 0 .46.17h.53v.34h-3.24v-.34h.53a.51.51 0 0 0 .46-.17 2 2 0 0 0 .1-.83v-5a1.84 1.84 0 0 0-.11-.81.57.57 0 0 0-.48-.19h-.5v-.34h3.88c1.07 0 2.29.44 2.29 1.69a2.49 2.49 0 0 1-2.66 2.38 3.38 3.38 0 0 1-.66-.07l-.11-.4a2.39 2.39 0 0 0 .73.11 1.59 1.59 0 0 0 1.59-1.65 1.54 1.54 0 0 0-1.79-1.65 4.32 4.32 0 0 0-1.13.13zm10.2-.28c-1.93 0-2.8 1.35-2.8 3.17s.91 4 3.1 4c1.85 0 2.74-1.44 2.74-3.47 0-2.19-1-3.66-3-3.66zm-.06 7.6a3.79 3.79 0 0 1-3.93-4 3.91 3.91 0 0 1 4.16-4c2.37 0 4.05 1.33 4.05 3.78a4.24 4.24 0 0 1-4.28 4.28zm8.6-3.82v2.27a2 2 0 0 0 .1.83.51.51 0 0 0 .46.17h.53v.34h-3.24v-.34h.53a.51.51 0 0 0 .46-.17 2 2 0 0 0 .1-.83v-5a2 2 0 0 0-.1-.83.51.51 0 0 0-.46-.17h-.53v-.34h3.24v.34h-.53a.51.51 0 0 0-.46.17 2 2 0 0 0-.1.83V71l3.08-3a1.14 1.14 0 0 0 .32-.43v-.3h1.89v.34h-.46a1.41 1.41 0 0 0-.86.42l-2.94 2.65 3.65 3.45a1.47 1.47 0 0 0 .69.45h.23v.34h-1.6l-3.85-3.71-.11.08zm11.55-3.78c-1.93 0-2.8 1.35-2.8 3.17s.91 4 3.1 4c1.85 0 2.74-1.44 2.74-3.47 0-2.19-1-3.66-3-3.66zm-.06 7.6a3.79 3.79 0 0 1-3.93-4 3.91 3.91 0 0 1 4.16-4c2.37 0 4.05 1.33 4.05 3.78a4.24 4.24 0 0 1-4.28 4.28zm14.88-7.6c-1.93 0-2.8 1.35-2.8 3.17s.91 4 3.1 4c1.85 0 2.74-1.44 2.74-3.47 0-2.19-1-3.66-3-3.66zm-.06 7.6a3.79 3.79 0 0 1-3.93-4 3.91 3.91 0 0 1 4.16-4c2.37 0 4.05 1.33 4.05 3.78a4.24 4.24 0 0 1-4.28 4.28zm13.52-1.55v-5.79h-1.72c-.33 0-.42.1-.44.37v.87h-.34c0-.6 0-1.21-.08-1.78h6.38c-.06.58-.08 1.18-.08 1.78h-.34v-.87c0-.27-.11-.37-.44-.37h-1.72a11 11 0 0 0 0 1.11v4.68a2 2 0 0 0 .1.83.51.51 0 0 0 .46.17h.53v.34h-3.24v-.34h.53a.51.51 0 0 0 .46-.17 2 2 0 0 0 .1-.83zm6.94 0v-5a2 2 0 0 0-.1-.83.51.51 0 0 0-.46-.17h-.53v-.34h5.91a7.41 7.41 0 0 0-.18 1.68h-.39v-.72a.29.29 0 0 0-.1-.3 6.88 6.88 0 0 0-2.17-.23 3.82 3.82 0 0 0-.93.09v3h1.28a3.07 3.07 0 0 0 1.17-.12.42.42 0 0 0 .09-.29l.06-.58h.34v2.51h-.34l-.06-.65a.36.36 0 0 0-.09-.28 2.75 2.75 0 0 0-1.17-.13h-1.28v3.1a3.83 3.83 0 0 0 .93.09 10.2 10.2 0 0 0 2.24-.14 2.05 2.05 0 0 0 .39-1.24h.38a9.51 9.51 0 0 0-.18 1.81h-5.77v-.34h.4a.54.54 0 0 0 .46-.17 2 2 0 0 0 .1-.83zm13.94-5v5a2 2 0 0 0 .1.83.51.51 0 0 0 .46.17h.53v.34h-3.24v-.34h.53a.51.51 0 0 0 .46-.17 2 2 0 0 0 .1-.83v-5a2 2 0 0 0-.1-.83.51.51 0 0 0-.46-.17h-.53v-.34h3.24v.34h-.53a.51.51 0 0 0-.46.17 2 2 0 0 0-.1.83zm5.41 2.7v2.27a2 2 0 0 0 .1.83.51.51 0 0 0 .46.17h.53v.34h-3.24v-.34h.53a.51.51 0 0 0 .46-.17 2 2 0 0 0 .1-.83v-5a2 2 0 0 0-.1-.83.51.51 0 0 0-.46-.17h-.53v-.34h3.24v.34h-.53a.51.51 0 0 0-.46.17 2 2 0 0 0-.1.83V71l3.08-3a1.14 1.14 0 0 0 .32-.43v-.3h1.89v.34h-.46a1.41 1.41 0 0 0-.86.42l-2.94 2.65L143 74.1a1.47 1.47 0 0 0 .69.45h.23v.34h-1.6l-3.85-3.71-.11.08zm10 .62h2.8l-1.39-3.3-1.41 3.3zm1.86-4.77l2.68 6.28c.1.22.22.52.35.75a.61.61 0 0 0 .44.38h.38v.34h-2.94v-.34h.52a.42.42 0 0 0 .45-.22 2.57 2.57 0 0 0-.23-.71l-.51-1.27h-3.19l-.31.74a6.37 6.37 0 0 0-.39 1.15c0 .23.19.28.53.31h.41v.34h-2.54v-.34h.41a.79.79 0 0 0 .6-.54l2-4.48c.34-.77.72-1.59 1-2.39h.35zm11.86 4.77h2.8l-1.39-3.3-1.41 3.3zm1.86-4.77l2.68 6.28c.1.22.22.52.35.75a.61.61 0 0 0 .44.38h.38v.34h-2.94v-.34h.52a.42.42 0 0 0 .45-.22 2.57 2.57 0 0 0-.23-.71l-.51-1.27h-3.19l-.31.74a6.38 6.38 0 0 0-.39 1.15c0 .23.19.28.53.31h.41v.34h-2.54v-.34h.41a.79.79 0 0 0 .6-.54l2-4.48c.34-.77.72-1.59 1-2.39h.35zm18.76 1.45v5a2 2 0 0 0 .1.83.51.51 0 0 0 .46.17h.53v.34h-3.08v-.34h.38a.54.54 0 0 0 .47-.17 2 2 0 0 0 .1-.83v-5a9 9 0 0 0-.49.91l-2 4.18c-.21.45-.4.94-.6 1.4h-.22l-3.07-6.49v5a2 2 0 0 0 .1.83.54.54 0 0 0 .46.17h.49v.34h-2.61v-.34h.49a.54.54 0 0 0 .46-.17 2 2 0 0 0 .1-.83v-5a2 2 0 0 0-.1-.83.54.54 0 0 0-.46-.17h-.49v-.34h2.1l2.92 6.15 2.9-6.15h2.05v.34h-.46a.54.54 0 0 0-.46.17 2 2 0 0 0-.1.83zm5.65 3.32h2.8l-1.39-3.3-1.41 3.3zm1.86-4.77l2.68 6.28c.1.22.22.52.35.75a.61.61 0 0 0 .44.38h.38v.34h-2.94v-.34h.52a.42.42 0 0 0 .45-.22 2.58 2.58 0 0 0-.23-.71l-.51-1.27h-3.19l-.31.74a6.37 6.37 0 0 0-.39 1.15c0 .23.19.28.53.31h.41v.34h-2.54v-.34h.41a.79.79 0 0 0 .6-.54l2-4.48c.34-.77.72-1.59 1-2.39h.35zm7 5.38v-3.93a2 2 0 0 0-.1-.83.51.51 0 0 0-.46-.17h-.53v-.34h3.24v.34h-.53a.51.51 0 0 0-.46.17 2 2 0 0 0-.1.83v3.8c0 1.57.82 2 2.28 2a2 2 0 0 0 2.28-2.29v-3.54a2 2 0 0 0-.1-.83.54.54 0 0 0-.46-.17h-.49v-.34h2.61v.34h-.49a.54.54 0 0 0-.46.17 2 2 0 0 0-.1.83v3.2c0 2.37-.9 3.32-3.13 3.32-1.88 0-3-.56-3-2.59z" fill="#231f20"/></svg>