<svg xmlns="http://www.w3.org/2000/svg" viewBox="0 0 376.135 88.743"><path fill="transparent" d="M0 .014h376.123v88.729H0V.014z"/><path d="M360.715 55.076c2.5 0 4.024 1.363 4.024 3.912 0 2.639-1.688 4.047-4.248 4.047-2.5 0-4.024-1.365-4.024-3.912 0-2.639 1.688-4.047 4.248-4.047zm0 .625c-2.079 0-2.571 1.555-2.571 3.23 0 1.846.771 3.477 2.348 3.477 2.079 0 2.571-1.543 2.571-3.219 0-1.846-.771-3.488-2.348-3.488zM70.363 70.638v6.33h20.144v-6.33l-2.878 3.164h-4.03l-3.164-3.164-3.164 3.164h-4.03l-2.878-3.164zM56.986 25.462v6.335H77.13v-6.331l-2.878 3.166h-4.03l-3.164-3.166-3.164 3.166h-4.03l-2.878-3.166zm26.754 0v6.335h20.143v-6.331l-2.878 3.166h-4.03l-3.164-3.166-3.164 3.166h-4.03l-2.878-3.166zm-3.305 11.426c-3.223 0-4.7 2.308-7.923 2.308s-4.7-2.376-7.923-2.308c-3 .064-4.331 2.258-7.334 2.308-2.971.049-5.13-2.124-7.337-2.019v19.908c.112 4.168 3.332 10.154 7.324 10.154 3-.049 4.346-2.231 7.348-2.293 3.222-.068 4.7 2.307 7.923 2.307s4.7-2.307 7.923-2.307 4.7 2.307 7.922 2.307 4.7-2.375 7.923-2.307c3 .063 4.329 2.244 7.332 2.293 3.991 0 7.228-5.986 7.341-10.154V37.178c-2.207-.106-4.366 2.068-7.337 2.019-3-.05-4.332-2.244-7.335-2.308-3.222-.068-4.7 2.308-7.923 2.308s-4.7-2.308-7.922-2.308zm-.01 51.3c-1.3 0-32.94-13.707-32.94-31.105V19.132h65.894v37.954c0 17.4-31.662 31.105-32.955 31.105zM75.72 58.827l-1.379-2.391 1.379-2.389h-2.759l-1.38-2.391-1.379 2.391h-2.76l1.379 2.389-1.379 2.391h2.759l1.379 2.389 1.38-2.389h2.759zm17.708-8.723l-1.379-2.389 1.379-2.391h-2.759l-1.38-2.389-1.379 2.389h-2.758l1.379 2.391-1.379 2.392h2.759l1.379 2.391 1.38-2.391h2.759zm-12.669 0l-1.38-2.389 1.38-2.391H78l-1.38-2.389-1.379 2.389h-2.759l1.379 2.391-1.379 2.389h2.759l1.379 2.391L78 50.104h2.759zm7.631 8.723l-1.379-2.391 1.379-2.389h-2.759l-1.38-2.391-1.379 2.391h-2.76l1.379 2.389-1.379 2.391h2.759l1.379 2.389 1.38-2.389h2.759zM64.178 41.286h32.517v21.58H64.177v-21.58zm-24.175-3.737c-1.863 0-4.213-2.408-4.013-3.906 1.093-8.175 5.3-5.542 8.4-7.925.884 1.149 2.181 11.831-4.383 11.831zm98.413 7.421a9.339 9.339 0 0 1-3.455 5.756c1.751-.055 4.575.182 5.18-2.014a3.225 3.225 0 0 0-1.726-3.742zm-4.892-1.15c-6.182-.272-8.58 3.424-6.514 4.828 3.929 2.672 6.48-4.916 6.514-4.828zm.287-8.918a7.585 7.585 0 0 1-3.76 2.026 53.849 53.849 0 0 1 6.352 0 10.728 10.728 0 0 1-2.591-2.026zm-11.959-7.366a4.847 4.847 0 1 0 4.847-4.847 4.847 4.847 0 0 0-4.847 4.847zm19.41 3.947a2.723 2.723 0 0 1 3.206-.7c1.434.494 2.33 1.7 2.059 2.731 7.122-.136 8.818-1.789 8.869-1.726-2.072 3.815-8.131 6.562-10.419 6.778 3.242 1.109 9.586 4.8 9.555 11.926 0 10.416-10.107 11.871-15.789 10.369a4.168 4.168 0 0 1 2.808 2H115.97V41.828a11.929 11.929 0 0 1 4.15-2.8 1.813 1.813 0 0 0 1.028-1.776 9.585 9.585 0 0 1-5.179-3.165V22.01s3.083-4.313 10.359-4.313a11.456 11.456 0 0 1 8.921 4.891s2.422-2.042 7.192-2.014c10.757 0 13.237 10.364 13.237 10.364a17.614 17.614 0 0 0-8.9-3.745 2.285 2.285 0 0 1-2.341 1.657 2.37 2.37 0 0 1-2.258-1.368l-.884.573a2.47 2.47 0 0 1 .158 1.092 2.543 2.543 0 0 1-1 1.8l.813.543zm-16.729-3.947a2.166 2.166 0 1 1 2.162 2.161 2.166 2.166 0 0 1-2.166-2.165zM44.9 36.396v26.473H5.185a23.439 23.439 0 0 1 2.591-4.891c-.988-.815-1.815-1.553-1.726-1.439-.089-.113 5.308-7.125 9.207-7.2a7.973 7.973 0 0 1-1.438-1.437c1.394-1.549 3.872-1.656 12.085-2.3 8.2-.725 9.355-2.871 9.5-9.511 2.03 2.445 5.476 5.414 9.495.3zM24.752 22.872c-2.628-1.808-3.96-2.5-4.889-2.306-.857.176-2.612 3.015-2.591 2.881a32.808 32.808 0 0 1 7.48-.576zm-9.781 10.935c-1.877-1.584-4.278-4.743-4.609-6.907a3.009 3.009 0 0 1 .869-2.592 5.142 5.142 0 0 1-.294-2.3c1.142-3.406 17.383-3.564 20.722-3.454 7.594.339 9.207 0 12.949-1.438-.1-.127-1.253 5.566-8.345 5.466-.012.576-.012.786 0 .864 2.8.053 6.129-.58 8.057-2.878-.056 1.93.673 4.3-3.164 5.181-3.686.846-5.985.732-7.194 11.222-.244 2.952.017 5.549-4.891 6.617-4.714 1.027-17.169 1.351-19.409 3.1l-.448-.795a7.863 7.863 0 0 0 3.738-7.196 3.872 3.872 0 0 1 1.728-.575c-.047.985-1.259 3.174 4.6 3.166.113.008 5.514.641 3.17-6.33-.733-2.182-1.377-4.656-4.033-4.605-.016-.051-3.409.158-1.734 3.528 2.387.5 5.105 1.087 5.476 2.8.291 1.764-1.008 2.725-2.02 2.3-.98-.414-3.77-2-5.746-2-3.662 0-10.2 4.154-14.386-3.713 1.211 1.3 2.356 2.159 6.327 2.271 3.919.109 4.705-1.616 8.632-1.726zM354.052-.003h4.184v.837h-4.184v-.837zM103.99.014h4.184v.837h-4.184V.017zm271.042 3.5v5.012a1.972 1.972 0 0 0 .1.837.517.517 0 0 0 .47.168l.537.034v.34a40.51 40.51 0 0 0-3.275 0v-.34l.536-.034a.518.518 0 0 0 .47-.168 1.974 1.974 0 0 0 .1-.837V3.514a1.973 1.973 0 0 0-.1-.837.515.515 0 0 0-.47-.167l-.536-.034v-.34a40.51 40.51 0 0 0 3.275 0v.34l-.537.034a.515.515 0 0 0-.47.167 1.971 1.971 0 0 0-.1.837zm-361.3 5.011V3.8a11.144 11.144 0 0 0-.045-1.117h-1.735c-.335 0-.425.1-.447.369l-.045.882h-.346c0-.6-.022-1.217-.078-1.8.8 0 1.61.033 2.414.033h1.621c.8 0 1.61-.033 2.415-.033a19.07 19.07 0 0 0-.078 1.8h-.346l-.045-.882c-.022-.269-.111-.369-.447-.369h-1.733a11.07 11.07 0 0 0-.044 1.117v4.725a1.978 1.978 0 0 0 .1.838.517.517 0 0 0 .47.168l.536.034v.34a40.435 40.435 0 0 0-3.276 0v-.34l.537-.034a.517.517 0 0 0 .47-.168 1.978 1.978 0 0 0 .1-.838zm7.006 0V3.517a1.972 1.972 0 0 0-.1-.836.517.517 0 0 0-.469-.168l-.537-.033v-.34c.615.011 1.252.033 1.889.033.972 0 2-.033 2.634-.033.506 0 1.011.011 1.447.033a7.473 7.473 0 0 0-.179 1.7h-.392v-.727a.3.3 0 0 0-.1-.3 6.943 6.943 0 0 0-2.193-.234 3.837 3.837 0 0 0-.937.089v2.984c.357.023.758.034 1.294.034a3.1 3.1 0 0 0 1.183-.123.425.425 0 0 0 .089-.29l.056-.582h.34c-.011.458-.033.883-.033 1.3s.021.838.033 1.241h-.34l-.056-.659a.371.371 0 0 0-.089-.28 2.783 2.783 0 0 0-1.183-.134c-.536 0-.948 0-1.294.034v3.13a3.862 3.862 0 0 0 .937.089 10.266 10.266 0 0 0 2.26-.145 2.069 2.069 0 0 0 .392-1.252h.391a9.606 9.606 0 0 0-.179 1.833c-.492.011-1.38.045-2.206.034-.859-.011-1.741-.034-2.434-.034-.425 0-.793.023-1.2.034v-.34l.4-.034a.547.547 0 0 0 .469-.168 1.972 1.972 0 0 0 .1-.837zm18.517-.856l-1.4-3.787-1.945 4.937c-.146.38-.291.76-.4 1.151h-.559c-.078-.413-.168-.76-.257-1.151l-1.331-5.752a.565.565 0 0 0-.559-.559l-.313-.034v-.34c.47.011.928.033 1.409.033s.939-.022 1.408-.033v.34l-.469.034c-.291.022-.514.078-.369.737l1.107 4.981 1.4-3.488c.347-.883.7-1.777 1.006-2.694h.358a14.2 14.2 0 0 0 .458 1.413l1.733 4.848 1.486-5.429c.067-.268-.089-.336-.514-.369l-.447-.034v-.34c.391.011.771.033 1.173.033s.783-.022 1.174-.033v.34l-.357.034a.428.428 0 0 0-.425.324l-1.71 6.01c-.089.324-.212.67-.3 1.128h-.559c-.246-.882-.514-1.53-.793-2.3zm13.97-4.156v5.012a1.972 1.972 0 0 0 .1.837.516.516 0 0 0 .469.168l.537.034v.34a40.435 40.435 0 0 0-3.275 0v-.34l.536-.034a.518.518 0 0 0 .47-.168 1.973 1.973 0 0 0 .1-.837V6.036a13.517 13.517 0 0 0-.928-.022h-2.616c-.492 0-.794.011-.928.022v2.489a1.966 1.966 0 0 0 .1.837.517.517 0 0 0 .469.168l.537.034v.34a40.435 40.435 0 0 0-3.276 0v-.34l.537-.034a.518.518 0 0 0 .47-.168 1.973 1.973 0 0 0 .1-.837V3.513a1.971 1.971 0 0 0-.1-.837.517.517 0 0 0-.47-.168l-.537-.033v-.34a40.472 40.472 0 0 0 3.276 0v.34l-.537.033a.516.516 0 0 0-.469.168 1.963 1.963 0 0 0-.1.837v1.986c.134.011.436.022.928.022h2.616c.492 0 .794-.011.928-.022V3.513a1.971 1.971 0 0 0-.1-.837.517.517 0 0 0-.47-.168l-.536-.033v-.34a40.472 40.472 0 0 0 3.275 0v.34l-.537.033a.515.515 0 0 0-.469.168 1.969 1.969 0 0 0-.1.837zm5.731 3.35h2.828l-1.408-3.331-1.424 3.336zm1.878-4.818l2.705 6.347c.1.223.224.524.358.758a.621.621 0 0 0 .447.379l.38.034v.34c-.492-.012-.984-.033-1.486-.033-.392 0-.883.021-1.487.033v-.34l.526-.034a.429.429 0 0 0 .458-.223 2.6 2.6 0 0 0-.235-.714l-.514-1.283h-3.224l-.313.748a6.438 6.438 0 0 0-.391 1.16c0 .234.19.279.536.313l.414.034v.34c-.536-.012-.961-.033-1.285-.033-.436 0-.861.021-1.286.033v-.34l.413-.034a.8.8 0 0 0 .6-.546l1.99-4.523c.347-.783.727-1.61 1.029-2.415h.357zm8.242.652v5.831a1.974 1.974 0 0 0 .1.837.517.517 0 0 0 .469.168l.537.034v.34a40.472 40.472 0 0 0-3.276 0v-.34l.537-.034a.517.517 0 0 0 .47-.168 1.973 1.973 0 0 0 .1-.837V3.516a1.971 1.971 0 0 0-.1-.837.546.546 0 0 0-.47-.168l-.458-.033v-.34c.592.011 1.241.033 1.9.033s1.308-.022 1.956-.033c1.789-.034 2.258.872 2.258 1.677a2.4 2.4 0 0 1-2.18 2.157l2.537 3.3a.858.858 0 0 0 .682.29v.34c-.291-.012-.548-.033-.805-.033s-.5.021-.76.033c-.145-.215-.313-.407-.458-.608l-2.057-2.757c-.179-.246-.391-.458-.581-.692a7.7 7.7 0 0 1 1.051-.179 1.651 1.651 0 0 0 1.453-1.565 1.513 1.513 0 0 0-1.766-1.543 4.336 4.336 0 0 0-1.14.134zm8.1 5.831V3.517a1.972 1.972 0 0 0-.1-.836.518.518 0 0 0-.47-.168l-.537-.033v-.34c.615.011 1.252.033 1.889.033.971 0 2-.033 2.634-.033.506 0 1.01.011 1.446.033a7.5 7.5 0 0 0-.179 1.7h-.391v-.727a.294.294 0 0 0-.1-.3 6.938 6.938 0 0 0-2.192-.234 3.833 3.833 0 0 0-.937.089v2.984c.357.023.758.034 1.294.034a3.1 3.1 0 0 0 1.183-.123.425.425 0 0 0 .089-.29l.056-.582h.339c-.011.458-.032.883-.032 1.3s.021.838.032 1.241h-.338l-.056-.659a.371.371 0 0 0-.089-.28 2.783 2.783 0 0 0-1.183-.134c-.536 0-.948 0-1.294.034v3.13a3.857 3.857 0 0 0 .937.089 10.263 10.263 0 0 0 2.259-.145 2.068 2.068 0 0 0 .392-1.252h.392a9.614 9.614 0 0 0-.179 1.833c-.492.011-1.379.045-2.205.034-.859-.011-1.741-.034-2.434-.034-.425 0-.794.023-1.2.034v-.34l.4-.034a.549.549 0 0 0 .47-.168 1.972 1.972 0 0 0 .1-.837zm18.517-.856l-1.4-3.787-1.945 4.937c-.145.38-.291.76-.4 1.151h-.559c-.078-.413-.168-.76-.257-1.151l-1.33-5.752a.565.565 0 0 0-.559-.559l-.313-.034v-.34c.469.011.928.033 1.408.033s.939-.022 1.409-.033v.34l-.47.034c-.29.022-.514.078-.369.737l1.107 4.981 1.4-3.488c.347-.883.7-1.777 1.006-2.694h.358a14.2 14.2 0 0 0 .459 1.413l1.732 4.848 1.487-5.429c.067-.268-.089-.336-.514-.369l-.447-.034v-.34c.392.011.772.033 1.174.033s.783-.022 1.174-.033v.34l-.358.034a.428.428 0 0 0-.425.324l-1.71 6.01c-.089.324-.212.67-.3 1.128h-.559c-.246-.882-.514-1.53-.794-2.3zm8.705-.806h2.828l-1.409-3.331-1.419 3.331zm1.878-4.818l2.705 6.347c.1.223.224.524.358.758a.62.62 0 0 0 .447.379l.38.034v.34c-.492-.012-.984-.033-1.487-.033-.392 0-.883.021-1.487.033v-.34l.525-.034a.429.429 0 0 0 .459-.223 2.6 2.6 0 0 0-.235-.714l-.514-1.283h-3.219l-.313.748a6.442 6.442 0 0 0-.392 1.16c0 .234.19.279.537.313l.414.034v.34c-.537-.012-.961-.033-1.285-.033-.436 0-.861.021-1.286.033v-.34l.414-.034a.8.8 0 0 0 .6-.546l1.99-4.523c.347-.783.727-1.61 1.028-2.415h.358zm7.084 6.479V3.516a1.968 1.968 0 0 0-.1-.838.546.546 0 0 0-.469-.167l-.492-.034v-.34c.492.011.939.033 1.341.033.2 0 .4-.022.6-.033l5.343 6.6.034-5.217a1.976 1.976 0 0 0-.1-.838.547.547 0 0 0-.47-.167l-.492-.034v-.34c.447.011.894.033 1.3.033.447 0 .85-.022 1.342-.033v.34l-.492.034a.546.546 0 0 0-.469.167 1.975 1.975 0 0 0-.1.838v6.166c0 .134.022.279.033.413l-1.006-.179-5.265-6.536-.023 5.145a1.973 1.973 0 0 0 .1.837.546.546 0 0 0 .469.168l.492.034v.34c-.492-.012-.894-.033-1.342-.033-.4 0-.849.021-1.3.033v-.34l.492-.034a.547.547 0 0 0 .469-.168 1.965 1.965 0 0 0 .1-.837zm12.417-1.662h2.828l-1.408-3.331-1.419 3.331zm1.877-4.818l2.705 6.347c.1.223.224.524.358.758a.621.621 0 0 0 .447.379l.38.034v.34c-.492-.012-.983-.033-1.487-.033-.391 0-.883.021-1.486.033v-.34l.525-.034a.429.429 0 0 0 .459-.223 2.6 2.6 0 0 0-.235-.714l-.514-1.283h-3.22l-.313.748a6.438 6.438 0 0 0-.391 1.16c0 .234.19.279.536.313l.414.034v.34c-.537-.012-.961-.033-1.286-.033-.436 0-.861.021-1.286.033v-.34l.414-.034a.8.8 0 0 0 .6-.546l1.99-4.523c.347-.783.727-1.61 1.029-2.415h.359zm7.084 6.479V3.515a1.976 1.976 0 0 0-.1-.838.547.547 0 0 0-.47-.167l-.492-.034v-.34c.492.011.939.033 1.341.033.2 0 .4-.022.6-.033l5.344 6.6.033-5.217a1.975 1.975 0 0 0-.1-.838.546.546 0 0 0-.469-.167l-.492-.034v-.34c.447.011.894.033 1.3.033.447 0 .85-.022 1.341-.033v.34l-.492.034a.547.547 0 0 0-.47.167 1.975 1.975 0 0 0-.1.838v6.166c0 .134.022.279.034.413l-1.006-.179-5.265-6.536-.022 5.145a1.973 1.973 0 0 0 .1.837.547.547 0 0 0 .469.168l.492.034v.34c-.492-.012-.895-.033-1.341-.033-.4 0-.85.021-1.3.033v-.34l.492-.034a.548.548 0 0 0 .47-.168 1.973 1.973 0 0 0 .1-.837zm16.4.252V7.651a.336.336 0 0 0-.38-.391l-.928-.079v-.339c.458.011.917.022 1.364.022s.917-.01 1.375-.022l.045.283-.324.113c-.123.045-.123.089-.123.413v1.874a12.557 12.557 0 0 1-2.94.57c-2.493 0-4.5-1.295-4.5-4.1 0-2.459 2.023-4.047 4.717-4.047a8.808 8.808 0 0 1 2.772.458 7.026 7.026 0 0 0-.224 1.7h-.346v-.592a1.023 1.023 0 0 0-.928-.895 4.809 4.809 0 0 0-1.565-.2 3.055 3.055 0 0 0-3.231 3.387c0 2.228 1.3 3.823 3.6 3.823a2.079 2.079 0 0 0 1.565-.391 1.064 1.064 0 0 0 .056-.457zm6.246-1.913h2.828l-1.408-3.331-1.42 3.331zm1.878-4.818l2.705 6.347c.1.223.224.524.358.758a.621.621 0 0 0 .447.379l.38.034v.34c-.492-.012-.984-.033-1.487-.033-.391 0-.883.021-1.487.033v-.34l.525-.034a.429.429 0 0 0 .459-.223 2.612 2.612 0 0 0-.234-.714l-.515-1.283h-3.219l-.313.748a6.438 6.438 0 0 0-.391 1.16c0 .234.19.279.536.313l.413.034v.34c-.536-.012-.961-.033-1.285-.033-.436 0-.861.021-1.286.033v-.34l.414-.034a.8.8 0 0 0 .6-.546l1.99-4.523c.347-.783.727-1.61 1.029-2.415h.357zm13.978.369c-1.945 0-2.828 1.364-2.828 3.2 0 1.956.916 4.013 3.13 4.013 1.867 0 2.772-1.453 2.772-3.51 0-2.213-1-3.7-3.074-3.7zm-.056 7.68a3.823 3.823 0 0 1-3.968-4.069 3.953 3.953 0 0 1 4.2-4.08c2.392 0 4.091 1.342 4.091 3.823a4.28 4.28 0 0 1-4.326 4.326zm13.654-1.569V3.802c0-.424-.011-.782-.044-1.117h-1.733c-.335 0-.425.1-.447.369l-.044.882h-.348c0-.6-.022-1.217-.078-1.8.8 0 1.609.033 2.414.033h1.621c.805 0 1.61-.033 2.414-.033a19.07 19.07 0 0 0-.078 1.8h-.347l-.045-.882c-.022-.269-.111-.369-.446-.369h-1.733c-.033.335-.044.692-.044 1.117v4.725a1.978 1.978 0 0 0 .1.838.517.517 0 0 0 .469.168l.537.034v.34a40.51 40.51 0 0 0-3.275 0v-.34l.537-.034a.517.517 0 0 0 .469-.168 1.978 1.978 0 0 0 .1-.838zm7.006 0v-5.01a1.973 1.973 0 0 0-.1-.836.518.518 0 0 0-.47-.168l-.536-.033v-.34c.615.011 1.252.033 1.889.033.972 0 2-.033 2.634-.033.506 0 1.011.011 1.447.033a7.472 7.472 0 0 0-.18 1.7h-.391v-.727a.294.294 0 0 0-.1-.3 6.936 6.936 0 0 0-2.192-.234 3.829 3.829 0 0 0-.937.089v2.984c.356.023.758.034 1.294.034a3.1 3.1 0 0 0 1.183-.123.423.423 0 0 0 .089-.29l.057-.582h.339c-.011.458-.032.883-.032 1.3s.022.838.032 1.241h-.339l-.057-.659a.37.37 0 0 0-.089-.28 2.785 2.785 0 0 0-1.183-.134c-.536 0-.948 0-1.294.034v3.13a3.853 3.853 0 0 0 .937.089 10.265 10.265 0 0 0 2.26-.145 2.067 2.067 0 0 0 .392-1.252h.392a9.574 9.574 0 0 0-.179 1.833c-.492.011-1.38.045-2.206.034-.858-.011-1.74-.034-2.434-.034-.425 0-.794.023-1.2.034v-.34l.4-.034a.548.548 0 0 0 .47-.168 1.972 1.972 0 0 0 .1-.837zm12.905-1.046V3.516a1.976 1.976 0 0 0-.1-.838.515.515 0 0 0-.47-.168l-.536-.033v-.34a40.472 40.472 0 0 0 3.275 0v.34l-.536.033a.515.515 0 0 0-.47.168 1.955 1.955 0 0 0-.1.838v3.842c0 1.586.828 2.044 2.3 2.044a2.035 2.035 0 0 0 2.3-2.312V3.516a1.977 1.977 0 0 0-.1-.838.547.547 0 0 0-.47-.168l-.492-.033v-.34c.447.011.895.033 1.3.033.447 0 .85-.022 1.342-.033v.34l-.492.033a.547.547 0 0 0-.47.168 1.977 1.977 0 0 0-.1.838v3.228c0 2.391-.905 3.352-3.163 3.352-1.9 0-3.018-.57-3.018-2.614zm11.567-4.784v5.831a1.973 1.973 0 0 0 .1.837.517.517 0 0 0 .47.168l.536.034v.34a40.435 40.435 0 0 0-3.275 0v-.34l.537-.034a.516.516 0 0 0 .469-.168 1.972 1.972 0 0 0 .1-.837V3.516a1.866 1.866 0 0 0-.111-.815.572.572 0 0 0-.48-.19l-.5-.033v-.34c.738.011 1.375.033 2.013.033s1.3-.022 1.9-.033c1.084-.023 2.313.447 2.313 1.71a2.513 2.513 0 0 1-2.683 2.4 3.4 3.4 0 0 1-.671-.067l-.111-.4a2.4 2.4 0 0 0 .737.112 1.609 1.609 0 0 0 1.61-1.665 1.558 1.558 0 0 0-1.811-1.666 4.329 4.329 0 0 0-1.14.134zm10.3-.28c-1.945 0-2.828 1.364-2.828 3.2 0 1.956.916 4.013 3.13 4.013 1.866 0 2.771-1.453 2.771-3.51 0-2.213-.994-3.7-3.073-3.7zm-.057 7.68a3.823 3.823 0 0 1-3.968-4.069 3.953 3.953 0 0 1 4.2-4.08c2.392 0 4.091 1.342 4.091 3.823a4.28 4.28 0 0 1-4.326 4.326zm8.683-3.857v2.288a1.952 1.952 0 0 0 .1.837.516.516 0 0 0 .469.168l.537.034v.34a40.51 40.51 0 0 0-3.275 0v-.34l.536-.034a.517.517 0 0 0 .47-.168 1.972 1.972 0 0 0 .1-.837V3.516a1.97 1.97 0 0 0-.1-.837.515.515 0 0 0-.47-.167l-.536-.034v-.34a40.472 40.472 0 0 0 3.275 0v.34l-.537.034a.513.513 0 0 0-.469.167 1.951 1.951 0 0 0-.1.837v2.389l3.108-3.025a1.165 1.165 0 0 0 .324-.436v-.306c.357.011.67.033 1 .033s.625-.022.894-.033v.34l-.47.022a1.423 1.423 0 0 0-.871.424l-2.974 2.679 3.688 3.482a1.492 1.492 0 0 0 .693.458l.234.022v.34c-.212-.012-.481-.033-.737-.033s-.537.021-.884.033l-3.89-3.745-.112.078zm11.668-3.823c-1.945 0-2.828 1.364-2.828 3.2 0 1.956.917 4.013 3.13 4.013 1.867 0 2.772-1.453 2.772-3.51 0-2.213-1-3.7-3.074-3.7zm-.056 7.68a3.824 3.824 0 0 1-3.969-4.069 3.953 3.953 0 0 1 4.2-4.08c2.393 0 4.092 1.342 4.092 3.823a4.28 4.28 0 0 1-4.326 4.326zm15.029-7.68c-1.945 0-2.828 1.364-2.828 3.2 0 1.956.916 4.013 3.13 4.013 1.866 0 2.772-1.453 2.772-3.51 0-2.213-1-3.7-3.074-3.7zm-.057 7.68a3.823 3.823 0 0 1-3.968-4.069 3.953 3.953 0 0 1 4.2-4.08c2.392 0 4.091 1.342 4.091 3.823a4.28 4.28 0 0 1-4.326 4.326zm13.655-1.569V3.803c0-.424-.012-.782-.045-1.117h-1.732c-.336 0-.425.1-.448.369l-.044.882h-.347c0-.6-.023-1.217-.078-1.8.8 0 1.609.033 2.414.033h1.621c.8 0 1.609-.033 2.415-.033a18.74 18.74 0 0 0-.078 1.8h-.347l-.045-.882c-.022-.269-.112-.369-.447-.369h-1.732a11 11 0 0 0-.045 1.117v4.725a1.978 1.978 0 0 0 .1.838.518.518 0 0 0 .47.168l.536.034v.34a40.424 40.424 0 0 0-3.275 0v-.34l.537-.034a.519.519 0 0 0 .47-.168 1.978 1.978 0 0 0 .1-.838zm7.006 0V3.517a1.973 1.973 0 0 0-.1-.836.518.518 0 0 0-.47-.168l-.537-.033v-.34c.615.011 1.252.033 1.89.033.971 0 2-.033 2.634-.033.506 0 1.011.011 1.446.033a7.478 7.478 0 0 0-.179 1.7h-.392v-.727a.294.294 0 0 0-.1-.3 6.939 6.939 0 0 0-2.192-.234 3.837 3.837 0 0 0-.937.089v2.984c.357.023.759.034 1.294.034a3.1 3.1 0 0 0 1.183-.123.427.427 0 0 0 .09-.29l.056-.582h.34c-.011.458-.032.883-.032 1.3s.021.838.032 1.241h-.34l-.056-.659a.373.373 0 0 0-.09-.28 2.781 2.781 0 0 0-1.183-.134c-.535 0-.948 0-1.294.034v3.13a3.861 3.861 0 0 0 .938.089 10.27 10.27 0 0 0 2.26-.145 2.077 2.077 0 0 0 .391-1.252h.392a9.647 9.647 0 0 0-.179 1.833c-.492.011-1.38.045-2.2.034-.859-.011-1.741-.034-2.434-.034-.426 0-.794.023-1.2.034v-.34l.4-.034a.548.548 0 0 0 .47-.168 1.973 1.973 0 0 0 .1-.837zm14.079-5.012v5.012a1.957 1.957 0 0 0 .1.837.516.516 0 0 0 .469.168l.537.034v.34a40.472 40.472 0 0 0-3.275 0v-.34l.537-.034a.516.516 0 0 0 .469-.168 1.974 1.974 0 0 0 .1-.837V3.516a1.973 1.973 0 0 0-.1-.837.513.513 0 0 0-.469-.167l-.537-.034v-.34a40.435 40.435 0 0 0 3.275 0v.34l-.537.034a.513.513 0 0 0-.469.167 1.956 1.956 0 0 0-.1.837zm5.463 2.724v2.288a1.974 1.974 0 0 0 .1.837.518.518 0 0 0 .47.168l.536.034v.34a40.424 40.424 0 0 0-3.274 0v-.34l.536-.034a.518.518 0 0 0 .47-.168 1.973 1.973 0 0 0 .1-.837V3.516a1.972 1.972 0 0 0-.1-.837.515.515 0 0 0-.47-.167l-.536-.034v-.34a40.424 40.424 0 0 0 3.274 0v.34l-.536.034a.515.515 0 0 0-.47.167 1.972 1.972 0 0 0-.1.837v2.389l3.107-3.025a1.154 1.154 0 0 0 .324-.436v-.306c.357.011.671.033 1 .033s.626-.022.894-.033v.34l-.47.022a1.423 1.423 0 0 0-.872.424l-2.974 2.679 3.689 3.482a1.491 1.491 0 0 0 .692.458l.235.022v.34c-.213-.012-.48-.033-.738-.033s-.536.021-.883.033l-3.89-3.745-.112.078zm10.08.626h2.828l-1.408-3.331-1.42 3.331zm1.878-4.818l2.705 6.347c.1.223.224.524.358.758a.618.618 0 0 0 .446.379l.381.034v.34c-.492-.012-.984-.033-1.487-.033-.391 0-.883.021-1.486.033v-.34l.525-.034a.429.429 0 0 0 .458-.223 2.611 2.611 0 0 0-.234-.714l-.515-1.283h-3.219l-.313.748a6.442 6.442 0 0 0-.392 1.16c0 .234.19.279.537.313l.413.034v.34c-.536-.012-.961-.033-1.285-.033-.435 0-.86.021-1.285.033v-.34l.413-.034a.8.8 0 0 0 .6-.546l1.99-4.523c.346-.783.727-1.61 1.028-2.415h.357zm11.979 4.818h2.828l-1.409-3.331-1.419 3.331zm1.878-4.818l2.708 6.349c.1.223.223.524.357.758a.621.621 0 0 0 .447.379l.38.034v.34c-.492-.012-.983-.033-1.486-.033-.392 0-.884.021-1.487.033v-.34l.525-.034a.43.43 0 0 0 .459-.223 2.586 2.586 0 0 0-.235-.714l-.514-1.283h-3.22l-.312.748a6.372 6.372 0 0 0-.392 1.16c0 .234.189.279.536.313l.414.034v.34c-.537-.012-.962-.033-1.286-.033-.436 0-.86.021-1.285.033v-.34l.413-.034a.8.8 0 0 0 .6-.546l1.99-4.523c.347-.783.726-1.61 1.028-2.415h.368zm18.952 1.468v5.012a1.973 1.973 0 0 0 .1.837.519.519 0 0 0 .47.168l.537.034v.34a40.546 40.546 0 0 0-1.621-.033c-.548 0-1.073.01-1.5.033v-.34l.38-.034a.548.548 0 0 0 .47-.168 1.973 1.973 0 0 0 .1-.837V3.461a9.081 9.081 0 0 0-.492.916l-1.989 4.222c-.213.458-.4.95-.6 1.419h-.223l-3.1-6.558-.022 5.067a1.971 1.971 0 0 0 .1.837.548.548 0 0 0 .47.168l.492.034v.34c-.492-.012-.895-.033-1.342-.033-.4 0-.85.021-1.3.033v-.34l.492-.034a.548.548 0 0 0 .47-.168 1.989 1.989 0 0 0 .1-.837V3.515a1.987 1.987 0 0 0-.1-.837.547.547 0 0 0-.47-.167l-.492-.034v-.34c.347.011.7.033 1.062.033s.715-.022 1.062-.033l2.951 6.211 2.929-6.211c.357.011.7.033 1.061.033s.716-.022 1.04-.033v.34l-.47.034a.548.548 0 0 0-.47.167 1.972 1.972 0 0 0-.1.837zm5.71 3.35h2.828l-1.408-3.331-1.42 3.331zm1.878-4.818l2.705 6.347c.1.223.224.524.357.758a.621.621 0 0 0 .447.379l.38.034v.34c-.491-.012-.983-.033-1.486-.033-.392 0-.883.021-1.486.033v-.34l.525-.034a.429.429 0 0 0 .458-.223 2.585 2.585 0 0 0-.235-.714l-.514-1.283h-3.22l-.312.748a6.442 6.442 0 0 0-.392 1.16c0 .234.189.279.536.313l.414.034v.34c-.536-.012-.961-.033-1.285-.033-.437 0-.861.021-1.286.033v-.34l.414-.034a.8.8 0 0 0 .6-.546l1.989-4.523c.347-.783.728-1.61 1.029-2.415h.357zm7.073 5.434V3.517a1.976 1.976 0 0 0-.1-.838.516.516 0 0 0-.47-.168l-.537-.033v-.34a40.424 40.424 0 0 0 3.275 0v.34l-.536.033a.516.516 0 0 0-.47.168 1.976 1.976 0 0 0-.1.838v3.842c0 1.586.827 2.044 2.3 2.044a2.035 2.035 0 0 0 2.3-2.312V3.517a1.976 1.976 0 0 0-.1-.838.545.545 0 0 0-.469-.168l-.492-.033v-.34c.447.011.895.033 1.3.033.447 0 .85-.022 1.341-.033v.34l-.491.033a.547.547 0 0 0-.47.168 1.976 1.976 0 0 0-.1.838v3.228c0 2.391-.905 3.352-3.164 3.352-1.9 0-3.017-.57-3.017-2.614zM207.827-.003h4.184v.837h-4.184v-.837zm151.918 25.629l-3.942 10.013h8.042l-4.1-10.013zm5.006 12.221h-9.893l-1.656 4.4c-.552 1.494.237 2.2.946 2.242l1.971.119v1.473c-1.892-.039-3.311-.113-4.454-.113s-2.561.074-4.454.113v-1.473l1.182-.119c1.025-.119 1.735-1.219 2.208-2.359l7.135-17.254 1.025-2.72.63-1.616.592-1.616h2.8l10.209 23.835a2.47 2.47 0 0 0 2.168 1.731l.946.119v1.473c-2.641-.039-4.572-.113-6.109-.113s-3.509.074-6.11.113v-1.473l2.089-.119c.631-.039 1.065-.9.553-2.162l-1.774-4.482zM170.84 24.305l6.188 15.244 5.6-13.905a14.863 14.863 0 0 0 1.222-3.86c0-.709-.67-1.023-1.459-1.063l-1.813-.118v-1.474c1.931.039 3.43.115 4.573.115s2.6-.075 4.533-.115v1.468l-1.261.118c-.868.079-1.38.709-1.853 1.851l-8.2 19.616c-.551 1.3-.985 2.6-1.5 3.9h-3l-9.418-22.526c-.474-1.1-1.1-2.718-2.444-2.836l-1.616-.118v-1.474c2.6.039 4.612.115 6.149.115s3.508-.075 6.465-.115v1.469l-1.971.118a.982.982 0 0 0-1.024.748 9.183 9.183 0 0 0 .827 2.836zm31.824.272v16.06a9.448 9.448 0 0 0 .276 3.187c.157.314.591.473 1.616.551l1.458.119v1.592c-1.615-.039-3.784-.113-6.109-.113-2.365 0-4.533.074-6.149.113v-1.589l1.459-.119c1.024-.078 1.458-.236 1.615-.551a9.429 9.429 0 0 0 .275-3.187V24.577a9.424 9.424 0 0 0-.275-3.187c-.157-.315-.591-.473-1.615-.551l-1.459-.119v-1.592c1.616.039 3.784.115 6.149.115 2.325 0 4.494-.075 6.109-.115v1.592l-1.458.119c-1.025.079-1.459.236-1.616.551a9.442 9.442 0 0 0-.276 3.187zm32.924 17.963l-.868 1.932a17.33 17.33 0 0 1-9.074 2.168c-8.979 0-15.6-5.047-15.6-14.467 0-9.066 7.37-13.6 15.757-13.6a22.573 22.573 0 0 1 9.666 1.853l.237.434a52.522 52.522 0 0 0-.907 6.031h-1.553l-.2-3.391a9.361 9.361 0 0 0-7.088-2.72c-6.537 0-10 4.652-10 10.879 0 7.214 4.174 12.418 11.616 12.418a16.889 16.889 0 0 0 7.539-2.01l.474.473zm19.06-20.971v19.063a9.477 9.477 0 0 0 .275 3.191c.157.314.59.473 1.612.551l1.455.119v1.592c-1.612-.039-3.776-.113-6.1-.113-2.364 0-4.529.074-6.141.113v-1.588l1.455-.119c1.022-.078 1.455-.236 1.611-.551a9.441 9.441 0 0 0 .276-3.191V21.57h-4.6c-1.062 0-2.163 0-2.438.354a1.77 1.77 0 0 0-.354.945l-.2 2.718h-1.593a45.189 45.189 0 0 0-.512-6.264l.236-.2c4.149.04 8.239.119 12.218.119 4.018 0 8.107-.079 12.258-.119l.236.2a45.178 45.178 0 0 0-.513 6.264h-1.592l-.2-2.718a1.763 1.763 0 0 0-.353-.945c-.275-.354-1.377-.354-2.438-.354h-4.6zm27.569-.789c-7.332 0-9.065 5.479-9.065 11.392 0 6.5 2.72 12.258 8.277 12.258 7.332 0 9.066-5.439 9.066-11.351 0-6.5-2.721-12.3-8.278-12.3zm0-2.207c8.83 0 14.19 4.809 14.19 13.8 0 9.3-5.951 14.27-14.978 14.27-8.83 0-14.19-4.809-14.19-13.8 0-9.3 5.952-14.27 14.978-14.27zm21.248 22.059V24.577a9.451 9.451 0 0 0-.275-3.187c-.2-.394-.592-.591-1.616-.67l-1.459-.118v-1.476c2.6.04 4.612.119 6.623.119 2.68 0 5.32-.079 8-.119 4.02-.079 7.726 1.144 7.726 5.832 0 3.465-2.6 5.789-5.873 6.971l7.135 10.792a5.532 5.532 0 0 0 1.144 1.221 3.993 3.993 0 0 0 1.615.553v1.592c-1.262-.039-2.561-.113-3.823-.113-1.183 0-2.365.074-3.548.113l-8.83-13.685.276-.709c3.626.315 6.308-1.93 6.308-5.632 0-3.23-2.248-4.963-5.322-4.963a6.435 6.435 0 0 0-2.523.354v19.182a9.477 9.477 0 0 0 .275 3.191c.158.314.592.473 1.616.551l1.459.119v1.592c-1.616-.039-3.785-.113-6.109-.113-2.366 0-4.534.074-6.15.113v-1.59l1.459-.119c1.024-.078 1.459-.236 1.616-.551a9.477 9.477 0 0 0 .275-3.191zm35.969-16.055v16.06a9.447 9.447 0 0 0 .276 3.187c.157.314.592.473 1.616.551l1.458.119v1.592c-1.615-.039-3.784-.113-6.109-.113-2.365 0-4.533.074-6.149.113v-1.589l1.459-.119c1.024-.078 1.458-.236 1.616-.551a9.454 9.454 0 0 0 .275-3.187V24.577a9.448 9.448 0 0 0-.275-3.187c-.158-.315-.592-.473-1.616-.551l-1.459-.119v-1.592c1.616.039 3.784.115 6.149.115 2.325 0 4.494-.075 6.109-.115v1.592l-1.458.119c-1.024.079-1.459.236-1.616.551a9.442 9.442 0 0 0-.276 3.187zm28.877 36.754v-4.553a2.66 2.66 0 0 0-.079-.9.475.475 0 0 0-.458-.191l-.413-.033v-.418c.447.012.894.033 1.341.033.313 0 .626-.021.939-.033.38.5.749 1.021 1.151 1.49l3.487 4.066v-4.01a2.67 2.67 0 0 0-.078-.9.475.475 0 0 0-.458-.191l-.414-.033v-.418c.425.012.861.033 1.286.033s.85-.021 1.274-.033v.418l-.414.033a.476.476 0 0 0-.458.191 2.67 2.67 0 0 0-.078.9v5.07c0 .393.022.795.033 1.129l-1-.1c-.458-.514-.928-1.039-1.363-1.558l-3.622-4.352-.022 4.363a2.676 2.676 0 0 0 .078.9.477.477 0 0 0 .459.189l.413.033v.418c-.425-.01-.85-.031-1.274-.031s-.86.022-1.285.031v-.418l.413-.033a.475.475 0 0 0 .458-.189 2.667 2.667 0 0 0 .079-.9zm-204.059-.464v-4.088a2.682 2.682 0 0 0-.078-.9.476.476 0 0 0-.459-.191l-.413-.033v-.418c.459.012 1.073.033 1.744.033s1.274-.021 1.732-.033v.418l-.413.033a.477.477 0 0 0-.458.191 2.682 2.682 0 0 0-.078.9v2.77c0 1.574.1 2.568 1.99 2.568 1.867 0 2.079-1.027 2.079-2.647v-2.691a2.672 2.672 0 0 0-.078-.9.475.475 0 0 0-.458-.191l-.414-.033v-.418c.425.012.86.033 1.285.033s.85-.021 1.274-.033v.418l-.413.033a.475.475 0 0 0-.458.191 2.665 2.665 0 0 0-.079.9v3.262c0 2.043-1.084 2.994-3.107 2.994-2.113 0-3.2-.906-3.2-2.168zm10.517.465v-4.553a2.7 2.7 0 0 0-.078-.9.477.477 0 0 0-.458-.191l-.414-.033v-.418c.447.012.894.033 1.341.033.313 0 .626-.021.939-.033.38.5.749 1.021 1.151 1.49l3.488 4.066v-4.01a2.665 2.665 0 0 0-.079-.9.475.475 0 0 0-.458-.191l-.414-.033v-.418c.424.012.86.033 1.286.033s.849-.021 1.274-.033v.418l-.414.033a.475.475 0 0 0-.458.191 2.665 2.665 0 0 0-.079.9v5.07c0 .393.022.795.034 1.129l-1-.1c-.458-.514-.927-1.039-1.364-1.558l-3.622-4.352-.023 4.363a2.674 2.674 0 0 0 .079.9.475.475 0 0 0 .458.189l.413.033v.418c-.425-.01-.85-.031-1.274-.031s-.861.022-1.285.031v-.418l.414-.033a.477.477 0 0 0 .458-.189 2.707 2.707 0 0 0 .078-.9zm12.648-4.555v4.555a2.671 2.671 0 0 0 .079.9.517.517 0 0 0 .458.156l.414.033v.451c-.459-.01-1.073-.031-1.733-.031s-1.285.022-1.744.031v-.451l.414-.033a.518.518 0 0 0 .458-.156 2.689 2.689 0 0 0 .078-.9v-4.555a2.669 2.669 0 0 0-.078-.9.523.523 0 0 0-.458-.158l-.414-.033v-.451c.458.012 1.073.033 1.744.033s1.274-.021 1.733-.033v.451l-.414.033a.522.522 0 0 0-.458.158 2.65 2.65 0 0 0-.079.9zm6.29-.076l1.755 4.322 1.587-3.943a4.2 4.2 0 0 0 .347-1.094.358.358 0 0 0-.413-.3l-.515-.033v-.418c.548.012.973.033 1.3.033s.737-.021 1.285-.033v.418l-.357.033a.675.675 0 0 0-.525.525l-2.325 5.562c-.156.369-.279.738-.425 1.107h-.85l-2.672-6.391a1.087 1.087 0 0 0-.692-.8l-.459-.033v-.418c.738.012 1.309.033 1.744.033s1-.021 1.833-.033v.418l-.559.033a.281.281 0 0 0-.291.213 2.615 2.615 0 0 0 .235.8zm10.192-.787v2.683c.257.022.5.022.749.022h.737c.392 0 .615-.022.638-.234l.066-.637h.447c-.011.4-.033.793-.033 1.2s.022.8.033 1.207h-.447l-.066-.559c-.034-.312-.246-.414-.638-.414h-.737c-.246 0-.492.012-.749.033v2.982c.47.023.95.035 1.431.035a3.786 3.786 0 0 0 1.364-.191l.258-1.053h.439l-.124 1.768a16.192 16.192 0 0 1-2.811.123c-.458-.012-.916-.035-1.375-.035s-.928.023-1.341.035v-.258l.357-.2a.637.637 0 0 0 .224-.637v-5.007a2.7 2.7 0 0 0-.078-.9.481.481 0 0 0-.459-.19l-.413-.033v-.418c.737.012 1.308.033 1.744.033 1.051 0 1.81-.021 2.448-.033a15.015 15.015 0 0 1 1.632.033l-.09 1.666h-.4l-.09-.84a2.212 2.212 0 0 0-1.285-.211c-.481 0-.961.01-1.431.033zm6.971 5.418v-4.555a2.655 2.655 0 0 0-.078-.9.476.476 0 0 0-.458-.191l-.414-.033v-.418c.738.012 1.308.033 1.878.033.76 0 1.509-.021 2.269-.033 1.14-.024 2.191.324 2.191 1.654a2.188 2.188 0 0 1-1.666 1.976l2.023 3.061a1.588 1.588 0 0 0 .324.346 1.141 1.141 0 0 0 .458.156v.451c-.357-.01-.726-.031-1.084-.031-.336 0-.671.022-1.006.031l-2.5-3.881.079-.2a1.536 1.536 0 0 0 1.788-1.6 1.36 1.36 0 0 0-1.509-1.408 1.849 1.849 0 0 0-.716.1v5.441a2.7 2.7 0 0 0 .078.9.519.519 0 0 0 .459.156l.413.033v.451c-.458-.01-1.073-.031-1.732-.031s-1.286.022-1.744.031v-.451l.414-.033a.518.518 0 0 0 .458-.156 2.676 2.676 0 0 0 .078-.9zm9.211-.746h.451l.079.984a2.284 2.284 0 0 0 1.752.861 1.545 1.545 0 0 0 1.753-1.477 1.082 1.082 0 0 0-.927-1.039l-1.567-.469a2.026 2.026 0 0 1-1.632-1.9c0-1.789 1.33-2.471 2.951-2.471a5.782 5.782 0 0 1 2.079.379 16.3 16.3 0 0 0-.1 1.723h-.458l-.067-.918a2.12 2.12 0 0 0-1.486-.613 1.34 1.34 0 0 0-1.532 1.352 1.225 1.225 0 0 0 1.185 1.084l1.274.336a1.965 1.965 0 0 1 1.687 1.922c0 1.9-1.576 2.7-3.272 2.7a5.415 5.415 0 0 1-2.339-.516 9.506 9.506 0 0 0 .168-1.934zm10.7-3.809v4.555a2.676 2.676 0 0 0 .078.9.519.519 0 0 0 .459.156l.413.033v.451c-.458-.01-1.073-.031-1.733-.031s-1.286.022-1.744.031v-.451l.414-.033a.519.519 0 0 0 .458-.156 2.679 2.679 0 0 0 .078-.9v-4.555a2.658 2.658 0 0 0-.078-.9.523.523 0 0 0-.458-.158l-.414-.033v-.451c.458.012 1.073.033 1.744.033s1.274-.021 1.733-.033v.451l-.413.033a.524.524 0 0 0-.459.158 2.655 2.655 0 0 0-.078.9zm7.621-.852v5.406a2.712 2.712 0 0 0 .077.9.517.517 0 0 0 .457.156l.413.033v.451c-.457-.01-1.07-.031-1.731-.031s-1.284.022-1.741.031v-.451l.412-.033a.515.515 0 0 0 .457-.156 2.676 2.676 0 0 0 .078-.9v-5.406h-1.3a1.214 1.214 0 0 0-.691.1.509.509 0 0 0-.1.268l-.057.771h-.451a12.782 12.782 0 0 0-.145-1.777c1.244-.043 2.4-.022 3.531-.022s2.3-.021 3.477-.033c-.022.592-.056 1.105-.078 1.832h-.458l-.057-.771a.5.5 0 0 0-.1-.268 1.212 1.212 0 0 0-.691-.1h-1.3zm9.074 2.932l2.1-3.592h.861v.213l-1.968 2.908a7.213 7.213 0 0 0-.593 1.119v1.824a2.681 2.681 0 0 0 .079.906.527.527 0 0 0 .458.156l.414.033v.451c-.459-.01-1.073-.031-1.733-.031s-1.285.022-1.744.031v-.451l.414-.033a.53.53 0 0 0 .459-.156 2.727 2.727 0 0 0 .077-.906v-1.557a7 7 0 0 0-.491-.951l-1.129-1.822a6.45 6.45 0 0 0-.581-.75 1.038 1.038 0 0 0-.872-.369v-.414l1.777-.391a3.359 3.359 0 0 1 1.274 1.51l1.2 2.271zm13.986-3.16c-2.079 0-2.57 1.555-2.57 3.23 0 1.846.771 3.477 2.347 3.477 2.08 0 2.571-1.543 2.571-3.219 0-1.846-.772-3.488-2.348-3.488zm0-.625c2.5 0 4.024 1.363 4.024 3.912 0 2.639-1.687 4.047-4.248 4.047-2.5 0-4.024-1.365-4.024-3.912 0-2.639 1.688-4.047 4.248-4.047zm9.094.838v2.717c.257.022.5.022.749.022h.569c.392 0 .615-.022.638-.234l.067-.592h.447c-.012.357-.033.748-.033 1.15s.021.8.033 1.205h-.447l-.067-.557c-.033-.312-.246-.414-.638-.414h-.569c-.246 0-.492.012-.749.033v2.088a2.7 2.7 0 0 0 .078.9.52.52 0 0 0 .459.156l.525.033v.451c-.57-.01-1.186-.031-1.845-.031s-1.286.022-1.744.031v-.451l.414-.033a.518.518 0 0 0 .458-.156 2.7 2.7 0 0 0 .078-.9v-4.551a2.7 2.7 0 0 0-.078-.9.481.481 0 0 0-.458-.19l-.414-.033v-.418c.738.012 1.308.033 1.744.033.872 0 1.632-.021 2.269-.033a15.028 15.028 0 0 1 1.633.033l-.09 1.666h-.4l-.09-.84a2.21 2.21 0 0 0-1.285-.211c-.3 0-.782.01-1.252.033zm13.135 4.584l1.665-3.936.57-1.387h.5c.179.516.357 1.006.548 1.492l1.52 3.8 1.1-4.189a1.389 1.389 0 0 0 .044-.367.366.366 0 0 0-.391-.225l-.515-.033v-.418c.5.012.894.033 1.207.033s.693-.021 1.208-.033v.418l-.369.033a.93.93 0 0 0-.481.772l-1.364 4.826c-.145.525-.245 1.06-.368 1.6h-.813c-.146-.392-.269-.783-.425-1.174l-1.666-4.189-1.732 3.967c-.2.457-.347.926-.525 1.4h-.782l-1.554-6.725a.494.494 0 0 0-.414-.471l-.357-.033v-.418c.737.012 1.308.033 1.744.033s.994-.021 1.5-.033v.418l-.47.033a.369.369 0 0 0-.336.258 1.872 1.872 0 0 0 .034.313l.905 4.244h.023zm12.274-4.584v2.687c.258.022.5.022.749.022h.738c.391 0 .614-.022.637-.234l.067-.637h.447c-.012.4-.034.793-.034 1.2s.022.8.034 1.207h-.451l-.067-.559c-.033-.312-.246-.414-.637-.414h-.738c-.246 0-.491.012-.749.033v2.982c.47.023.95.035 1.432.035a3.791 3.791 0 0 0 1.364-.191l.259-1.051h.439l-.123 1.768a16.19 16.19 0 0 1-2.811.123c-.459-.012-.917-.035-1.375-.035s-.928.023-1.342.035v-.258l.357-.2a.635.635 0 0 0 .224-.637v-5.009a2.676 2.676 0 0 0-.078-.9.479.479 0 0 0-.458-.19l-.414-.033v-.418c.738.012 1.309.033 1.744.033 1.051 0 1.811-.021 2.448-.033a15 15 0 0 1 1.632.033l-.09 1.666h-.4l-.089-.84a2.214 2.214 0 0 0-1.285-.211c-.481 0-.962.01-1.432.033zm8.548.865v5.422c.469.023.95.035 1.431.035a3.786 3.786 0 0 0 1.364-.191l.259-1.139h.438l-.123 1.855a16.191 16.191 0 0 1-2.811.123c-.458-.012-.917-.035-1.375-.035s-.928.023-1.342.035v-.258l.358-.2a.635.635 0 0 0 .225-.637v-5a2.66 2.66 0 0 0-.079-.9.52.52 0 0 0-.458-.158l-.414-.033v-.451c.459.012 1.074.033 1.744.033s1.274-.021 1.733-.033v.451l-.414.033a.522.522 0 0 0-.458.158 2.668 2.668 0 0 0-.078.9zm8.547 0v5.422c.469.023.95.035 1.431.035a3.786 3.786 0 0 0 1.364-.191l.259-1.139h.438l-.123 1.855a16.191 16.191 0 0 1-2.811.123c-.458-.012-.916-.035-1.375-.035s-.928.023-1.341.035v-.258l.357-.2a.637.637 0 0 0 .224-.637v-5a2.7 2.7 0 0 0-.078-.9.523.523 0 0 0-.458-.158l-.414-.033v-.451c.458.012 1.073.033 1.744.033s1.274-.021 1.732-.033v.451l-.414.033a.523.523 0 0 0-.458.158 2.672 2.672 0 0 0-.078.9zm8.547 0v4.555a2.7 2.7 0 0 0 .078.9.519.519 0 0 0 .459.156l.413.033v.451c-.458-.01-1.073-.031-1.732-.031s-1.285.022-1.744.031v-.451l.413-.033a.519.519 0 0 0 .459-.156 2.677 2.677 0 0 0 .078-.9v-4.553a2.656 2.656 0 0 0-.078-.9.524.524 0 0 0-.459-.158l-.413-.033v-.451c.459.012 1.073.033 1.744.033s1.274-.021 1.732-.033v.451l-.413.033a.524.524 0 0 0-.459.158 2.683 2.683 0 0 0-.078.9zm4.446 4.555v-4.553a2.66 2.66 0 0 0-.079-.9.475.475 0 0 0-.458-.191l-.413-.033v-.418c.446.012.894.033 1.341.033.313 0 .626-.021.939-.033.38.5.749 1.021 1.151 1.49l3.487 4.066v-4.01a2.669 2.669 0 0 0-.078-.9.476.476 0 0 0-.458-.191l-.414-.033v-.418c.425.012.861.033 1.286.033s.849-.021 1.274-.033v.418l-.414.033a.478.478 0 0 0-.459.191 2.706 2.706 0 0 0-.077.9v5.07c0 .393.022.795.033 1.129l-1-.1c-.458-.514-.928-1.039-1.363-1.558l-3.622-4.352-.022 4.363a2.676 2.676 0 0 0 .078.9.476.476 0 0 0 .458.189l.414.033v.418c-.425-.01-.85-.031-1.275-.031s-.86.022-1.285.031v-.418l.413-.033a.475.475 0 0 0 .458-.189 2.667 2.667 0 0 0 .079-.9zm17.9-.791v1.822a8.916 8.916 0 0 1-3.267.672c-2.546 0-4.424-1.432-4.424-4.1 0-2.57 2.09-3.855 4.469-3.855a7.749 7.749 0 0 1 3.076.525 72.543 72.543 0 0 1-.19 1.832h-.439l-.057-.961a3.277 3.277 0 0 0-2.342-.771 2.769 2.769 0 0 0-2.84 3.086c0 1.933.994 3.621 3.007 3.621a3.9 3.9 0 0 0 1.42-.279v-1.475c0-.348-.28-.4-.638-.414l-.592-.024v-.457c.548.012 1.095.033 1.644.033s1.084-.022 1.632-.033v.379c-.381.078-.459.123-.459.4zm7.328-4.615v5.406a2.713 2.713 0 0 0 .077.9.518.518 0 0 0 .458.156l.412.033v.451c-.457-.01-1.07-.031-1.73-.031s-1.284.022-1.741.031v-.451l.412-.033a.518.518 0 0 0 .458-.156 2.7 2.7 0 0 0 .078-.9v-5.406h-1.3a1.216 1.216 0 0 0-.692.1.51.51 0 0 0-.1.268l-.057.771h-.451a12.749 12.749 0 0 0-.153-1.776c1.244-.043 2.4-.022 3.532-.022s2.3-.021 3.476-.033c-.022.592-.056 1.105-.078 1.832h-.451l-.057-.771a.51.51 0 0 0-.1-.268 1.214 1.214 0 0 0-.691-.1h-1.3z" fill="#fff"/></svg>