<svg viewBox="0 0 50 50" xmlns="http://www.w3.org/2000/svg"><path d="M45 1H5C2.8 1 1 2.8 1 5v40c0 2.2 1.8 4 4 4h40c2.2 0 4-1.8 4-4V5c0-2.2-1.8-4-4-4z" fill="#CF3427"/><path d="M39.7 19s-.3-2.1-1.2-3c-1.1-1.2-2.4-1.2-3-1.3-4.2-.2-10.5-.2-10.5-.2s-6.3 0-10.5.3c-.6.1-1.9.1-3 1.3-.9.9-1.2 3-1.2 3s-.3 2-.3 4.4v3c0 2.4.3 4.5.3 4.5s.3 2.1 1.2 3c1.1 1.2 2.6 1.2 3.3 1.3 2.4.2 10.2.2 10.2.2s6.3.1 10.5-.2c.6-.1 1.9-.1 3-1.3.9-.9 1.2-3 1.2-3s.3-2.1.3-4.5v-3c0-2.4-.3-4.5-.3-4.5zM21 29v-8l8 4-8 4z" fill="#FFF"/></svg>