<svg xmlns="http://www.w3.org/2000/svg" width="317.512" height="1629.958"><g data-name="Group 1832"><g data-name="Group 1824" fill="none" stroke-miterlimit="10" stroke-width="8"><g data-name="Group 1696" stroke="#7ac777"><path data-name="Path 4936" d="M286.449 235.769H243.19c-62.062 0-112.373-61.269-112.373-136.848V.001"/><path data-name="Path 4937" d="M286.449 197.514h-40.23c-46.461 0-84.125-45.867-84.125-102.447V0"/><path data-name="Path 4938" d="M286.449 159.42h-40.083c-29.233 0-52.931-28.859-52.931-64.459V0"/></g><g data-name="Group 1698" stroke="#35a08b"><path data-name="Path 4936" d="M130.817 620.213v-321.82c0-75.627 50.311-136.936 112.373-136.936h43.258"/><path data-name="Path 4937" d="M162.228 620.635V302.066c0-56.62 37.665-102.52 84.125-102.52h40.095"/><path data-name="Path 4938" d="M192.925 621V302.468c0-35.6 23.698-64.46 52.931-64.46h40.592"/></g><g data-name="Group 1822" stroke="#35a08b"><path data-name="Path 4936" d="M130.816 295.787v321.82c0 75.627 50.312 136.936 112.373 136.936h43.259"/><path data-name="Path 4937" d="M162.228 295.366v318.569c0 56.62 37.664 102.52 84.125 102.52h40.095"/><path data-name="Path 4938" d="M192.925 295v318.532c0 35.6 23.7 64.46 52.931 64.46h40.592"/></g></g><g data-name="Group 1816" opacity=".145"><g data-name="Group 1699"><g data-name="Group 1696" fill="none" stroke="#469385" stroke-miterlimit="10" stroke-width="9"><path data-name="Path 4936" d="M157.03 1397h-42.4A110.134 110.134 0 0 1 4.5 1286.866V1103.5"/><path data-name="Path 4937" d="M159.32 1366.213h-41.718a82.448 82.448 0 0 1-82.449-82.448v-180.268"/><path data-name="Path 4938" d="M169.628 1335.556h-51.882a51.876 51.876 0 0 1-51.876-51.876v-181.335"/></g></g><g data-name="Group 1703"><g data-name="Group 1696" fill="none" stroke="#469385" stroke-miterlimit="10" stroke-width="9"><path data-name="Path 4936" d="M160.482 1335.299h42.4a110.134 110.134 0 0 1 110.13 110.137v183.363"/><path data-name="Path 4937" d="M158.192 1366.089h41.718a82.448 82.448 0 0 1 82.449 82.448v180.268"/><path data-name="Path 4938" d="M147.887 1396.746h51.879a51.876 51.876 0 0 1 51.876 51.876v181.335"/></g></g></g><g data-name="Group 1828" opacity=".145"><g data-name="Group 1699"><g data-name="Group 1696" fill="none" stroke="#469385" stroke-miterlimit="10" stroke-width="9"><path data-name="Path 4936" d="M157.03 810.3h-42.4A110.134 110.134 0 0 0 4.5 920.436V1103.8"/><path data-name="Path 4937" d="M159.32 841.089h-41.718a82.448 82.448 0 0 0-82.449 82.448v180.268"/><path data-name="Path 4938" d="M169.625 871.746h-51.876c-28.649 0-51.873 22.972-51.873 51.31v179.356"/></g></g><g data-name="Group 1703"><g data-name="Group 1696" fill="none" stroke="#469385" stroke-miterlimit="10" stroke-width="9"><path data-name="Path 4936" d="M160.482 872h42.4a110.134 110.134 0 0 0 110.13-110.133V578.5"/><path data-name="Path 4937" d="M158.192 841.214h41.718a82.448 82.448 0 0 0 82.449-82.448V578.498"/><path data-name="Path 4938" d="M147.887 810.556h51.879a51.876 51.876 0 0 0 51.876-51.876V577.345"/></g></g></g></g></svg>