<svg id="Layer_1" data-name="Layer 1" xmlns="http://www.w3.org/2000/svg" viewBox="0 0 38.23 457.49"><defs><style>.cls-1{fill:none;stroke:#fff;stroke-miterlimit:10;stroke-width:.5px}</style></defs><path class="cls-1" d="M20.38 389.74a8.71 8.71 0 014.21 3.16 8.61 8.61 0 011.24 2.48 8.88 8.88 0 01.43 2.72 8.62 8.62 0 01-3.56 7 8.43 8.43 0 01-2.32 1.17 2.06 2.06 0 01-.59.09 1.91 1.91 0 01-1.79-1.31 2 2 0 01-.09-.58 1.9 1.9 0 011.33-1.82 4.67 4.67 0 001.26-.64 4.81 4.81 0 002-3.91 5 5 0 00-.25-1.56 4.91 4.91 0 00-.71-1.41 4.86 4.86 0 00-2.36-1.78 4.57 4.57 0 00-2.92 0 10.8 10.8 0 00-3 1.54 11.53 11.53 0 00-4.73 9.38 12.06 12.06 0 00.47 3.67 12.38 12.38 0 001.68 3.35c1.43 2 4 4.2 9.77 5.42m.87-3a19.62 19.62 0 01-4.21-1 8.74 8.74 0 01-4.2-3.16 9.26 9.26 0 01-1.25-2.47 9 9 0 01-.43-2.73 8.63 8.63 0 013.57-7 8.16 8.16 0 012.32-1.17 2 2 0 01.59-.09 1.92 1.92 0 011.82 1.32 2.06 2.06 0 01.09.59 1.91 1.91 0 01-1.33 1.82 4.65 4.65 0 00-1.26.63 4.83 4.83 0 00-2 3.92 5 5 0 00.25 1.56 6 6 0 003 3.43 5.19 5.19 0 001.65.27 4.83 4.83 0 001.42-.21 11.34 11.34 0 002.94-1.8 11.54 11.54 0 004.74-9.39 12.87 12.87 0 00-.39-3.83 12.08 12.08 0 00-1.5-3.4 9.73 9.73 0 00-5.89-4.3m7.81 12.17l15.19-14.31"/><path class="cls-1" d="M20.38 416.7a8.71 8.71 0 014.21 3.16 8.61 8.61 0 011.24 2.48 8.92 8.92 0 01.43 2.72 8.62 8.62 0 01-3.56 7 8.43 8.43 0 01-2.32 1.17 2.06 2.06 0 01-.59.09A1.91 1.91 0 0118 432a2 2 0 01-.09-.58 1.9 1.9 0 011.33-1.82 4.67 4.67 0 001.26-.64 4.8 4.8 0 002-3.91 5 5 0 00-.25-1.56 5 5 0 00-.71-1.41 4.92 4.92 0 00-2.36-1.78 4.57 4.57 0 00-2.92 0 11.07 11.07 0 00-3 1.54 11.54 11.54 0 00-4.73 9.38A12 12 0 009 434.9a12.24 12.24 0 001.68 3.35c1.43 2 4 4.2 9.77 5.42m.87-3a19.62 19.62 0 01-4.21-1 8.74 8.74 0 01-4.2-3.16 9.26 9.26 0 01-1.25-2.51 9 9 0 01-.43-2.73 8.63 8.63 0 013.57-7 8.16 8.16 0 012.32-1.17 2 2 0 01.59-.09 1.91 1.91 0 01.58 3.73 4.4 4.4 0 00-1.26.64 4.8 4.8 0 00-2 3.91 5 5 0 00.25 1.56 6 6 0 003 3.43 5.19 5.19 0 001.65.27 4.83 4.83 0 001.42-.21 11.08 11.08 0 002.94-1.8 11.53 11.53 0 004.74-9.39 12.87 12.87 0 00-.39-3.83 11.89 11.89 0 00-1.5-3.32 9.7 9.7 0 00-5.89-4.31m7.81 12.17l15.19-14.31m-23.87-75.74a8.92 8.92 0 015.88 8.36 8.62 8.62 0 01-3.56 7 8.43 8.43 0 01-2.32 1.17 1.77 1.77 0 01-.59.09 1.91 1.91 0 01-1.79-1.3 2.06 2.06 0 01-.09-.59 1.9 1.9 0 011.33-1.82 5 5 0 001.26-.63 4.83 4.83 0 002-3.92 5 5 0 00-.25-1.56 5.19 5.19 0 00-.71-1.41 4.84 4.84 0 00-2.36-1.77 4.57 4.57 0 00-2.92 0 11 11 0 00-3 1.53 11.56 11.56 0 00-4.73 9.39 12.16 12.16 0 002.26 7.05c1.43 2 4 4.2 9.77 5.42m.87-3a19.64 19.64 0 01-4.21-1 8.68 8.68 0 01-4.2-3.16 8.89 8.89 0 01-1.68-5.2 8.63 8.63 0 013.57-7 8.16 8.16 0 012.32-1.17 2 2 0 01.59-.09 1.91 1.91 0 01.58 3.73 4.4 4.4 0 00-1.26.64 4.81 4.81 0 00-2 3.91 5 5 0 00.25 1.56 5.16 5.16 0 00.7 1.41 5.36 5.36 0 002.32 2 4.92 4.92 0 001.65.27 4.52 4.52 0 001.42-.21 11.08 11.08 0 002.94-1.8 11.51 11.51 0 004.74-9.38 12.94 12.94 0 00-.39-3.84 12 12 0 00-1.55-3.36 9.7 9.7 0 00-5.89-4.31m22.92-2.14"/><path class="cls-1" d="M20.38 362.78a8.69 8.69 0 014.21 3.15 9.1 9.1 0 011.67 5.2 8.46 8.46 0 01-5.88 8.19 1.54 1.54 0 01-.59.09 1.89 1.89 0 01-1.79-1.32 2 2 0 01-.09-.59 1.9 1.9 0 011.33-1.82 4.65 4.65 0 001.26-.63 4.82 4.82 0 002-3.92 5 5 0 00-.25-1.56 5.19 5.19 0 00-.71-1.41 4.84 4.84 0 00-2.36-1.77 4.57 4.57 0 00-2.92 0 11 11 0 00-3 1.53 11.56 11.56 0 00-4.73 9.39A12 12 0 009 381a12.1 12.1 0 001.68 3.35c1.43 2 4 4.2 9.77 5.42m.87-3a19.64 19.64 0 01-4.21-1 8.68 8.68 0 01-4.2-3.16 8.89 8.89 0 01-1.68-5.2 8.64 8.64 0 013.57-7 8.43 8.43 0 012.32-1.17 2 2 0 01.59-.09 1.91 1.91 0 01.58 3.73 4.4 4.4 0 00-1.26.64 4.82 4.82 0 00-2 3.92 5.08 5.08 0 00.25 1.56 5.24 5.24 0 00.7 1.4 5.36 5.36 0 002.32 2 4.92 4.92 0 001.65.27 4.52 4.52 0 001.42-.21 11.08 11.08 0 002.94-1.8 11.51 11.51 0 004.74-9.38 12.84 12.84 0 00-.39-3.83 12 12 0 00-1.55-3.37 9.7 9.7 0 00-5.89-4.31m-.84-77.88a8.69 8.69 0 014.21 3.11 9.1 9.1 0 011.67 5.21 8.46 8.46 0 01-5.88 8.18 1.78 1.78 0 01-.59.1A1.91 1.91 0 0118 297.2a2 2 0 01-.09-.59 1.91 1.91 0 011.33-1.82 4.65 4.65 0 001.26-.63 4.82 4.82 0 002-3.92 5.08 5.08 0 00-.25-1.56 5.19 5.19 0 00-.71-1.41 4.9 4.9 0 00-2.36-1.77 4.57 4.57 0 00-2.92 0 11 11 0 00-3 1.53 11.56 11.56 0 00-4.73 9.39 12 12 0 00.58 3.7 12.1 12.1 0 001.68 3.35c1.43 2 4 4.21 9.77 5.42m.87-3a19.64 19.64 0 01-4.21-1 8.66 8.66 0 01-4.2-3.15 9.26 9.26 0 01-1.25-2.47 9 9 0 01-.43-2.73 8.66 8.66 0 013.57-7 8.41 8.41 0 012.32-1.16 1.7 1.7 0 01.59-.1 1.93 1.93 0 011.82 1.33 2 2 0 01.09.59 1.91 1.91 0 01-1.44 1.8 4.38 4.38 0 00-1.26.63 4.82 4.82 0 00-2 3.92 5.08 5.08 0 00.25 1.56 6 6 0 003 3.43 5.19 5.19 0 001.65.27 4.53 4.53 0 001.42-.22 11 11 0 002.94-1.79 11.54 11.54 0 004.74-9.39 12.84 12.84 0 00-.39-3.83 12 12 0 00-1.55-3.37 9.78 9.78 0 00-5.89-4.31m23.05-2.22"/><path class="cls-1" d="M20.38 308.85a8.71 8.71 0 014.21 3.15 8.61 8.61 0 011.24 2.48 8.88 8.88 0 01.43 2.72 8.63 8.63 0 01-3.56 7 8.72 8.72 0 01-2.32 1.17 2.06 2.06 0 01-.59.09 1.91 1.91 0 01-1.79-1.3 2 2 0 01-.09-.59 1.92 1.92 0 011.33-1.82 4.65 4.65 0 001.26-.63 4.82 4.82 0 002-3.92 5 5 0 00-.25-1.55 5.11 5.11 0 00-.71-1.42 4.9 4.9 0 00-2.36-1.77 4.57 4.57 0 00-2.92 0 10.8 10.8 0 00-3 1.54 11.53 11.53 0 00-4.73 9.38A12 12 0 009 327a12.1 12.1 0 001.68 3.35c1.43 2 4 4.21 9.77 5.42m.87-3a19.64 19.64 0 01-4.21-1 8.66 8.66 0 01-4.2-3.15 9.26 9.26 0 01-1.25-2.47 9 9 0 01-.43-2.73 8.66 8.66 0 013.57-7 8.41 8.41 0 012.32-1.16 1.49 1.49 0 01.59-.09 1.91 1.91 0 011.82 1.32 2 2 0 01.09.59 1.91 1.91 0 01-1.33 1.82 4.38 4.38 0 00-1.26.63 4.82 4.82 0 00-2 3.92 5 5 0 00.25 1.56 6 6 0 003 3.43 5.19 5.19 0 001.65.27 4.53 4.53 0 001.42-.22 11 11 0 002.94-1.79 11.54 11.54 0 004.74-9.39 12.84 12.84 0 00-.39-3.83 12 12 0 00-1.55-3.37 9.73 9.73 0 00-5.89-4.3M20.38 228a8.71 8.71 0 014.21 3.16 8.61 8.61 0 011.24 2.48 8.92 8.92 0 01.43 2.72 8.62 8.62 0 01-3.56 7 8.43 8.43 0 01-2.32 1.17 2.06 2.06 0 01-.59.09 1.91 1.91 0 01-1.79-1.35 2 2 0 01-.09-.58 1.9 1.9 0 011.33-1.82 4.67 4.67 0 001.26-.64 4.8 4.8 0 002-3.91 5 5 0 00-.25-1.56 4.91 4.91 0 00-.71-1.41 4.86 4.86 0 00-2.36-1.78 4.57 4.57 0 00-2.92 0 11.07 11.07 0 00-3 1.54 11.54 11.54 0 00-4.73 9.38 12.06 12.06 0 00.47 3.67 12.24 12.24 0 001.68 3.35c1.43 2 4 4.2 9.77 5.42m.87-3a19.62 19.62 0 01-4.21-1 8.74 8.74 0 01-4.2-3.16 9.26 9.26 0 01-1.25-2.47 9 9 0 01-.43-2.73 8.63 8.63 0 013.57-7 8.16 8.16 0 012.32-1.17 2 2 0 01.59-.09 1.92 1.92 0 011.82 1.32 2.06 2.06 0 01.09.59 1.91 1.91 0 01-1.33 1.78 4.65 4.65 0 00-1.26.63 4.83 4.83 0 00-2 3.92 5 5 0 00.25 1.56 6 6 0 003 3.43 5.19 5.19 0 001.65.27 4.83 4.83 0 001.42-.21 11.34 11.34 0 002.94-1.8 11.53 11.53 0 004.74-9.39 12.87 12.87 0 00-.39-3.83 11.89 11.89 0 00-1.55-3.36 9.7 9.7 0 00-5.89-4.31m7.81 12.17l15.19-14.31"/><path class="cls-1" d="M20.38 254.92a8.77 8.77 0 014.21 3.16 8.61 8.61 0 011.24 2.48 8.92 8.92 0 01.43 2.72 8.62 8.62 0 01-3.56 7 8.43 8.43 0 01-2.32 1.17 2.06 2.06 0 01-.59.09 1.91 1.91 0 01-1.79-1.31 2 2 0 01-.09-.58 1.9 1.9 0 011.33-1.82 4.67 4.67 0 001.26-.64 4.8 4.8 0 002-3.91 5 5 0 00-.25-1.56 5 5 0 00-.71-1.41 4.78 4.78 0 00-3.88-2 4.59 4.59 0 00-1.4.22 11.36 11.36 0 00-3 1.54 11.54 11.54 0 00-4.73 9.39 12 12 0 00.58 3.7 12.24 12.24 0 001.68 3.35c1.43 2 4 4.2 9.77 5.42m.87-3a19.62 19.62 0 01-4.21-1 8.74 8.74 0 01-4.2-3.16 9.11 9.11 0 01-1.25-2.47 9 9 0 01-.43-2.73 8.63 8.63 0 013.57-7 8.16 8.16 0 012.32-1.17 2 2 0 01.59-.09 1.91 1.91 0 01.58 3.73 4.4 4.4 0 00-1.26.64 4.8 4.8 0 00-2 3.91 5 5 0 00.25 1.56 5.31 5.31 0 00.7 1.41 5.43 5.43 0 002.32 2 5.19 5.19 0 001.65.27 4.83 4.83 0 001.42-.21 11.08 11.08 0 002.94-1.8 11.52 11.52 0 004.74-9.38 12.9 12.9 0 00-.39-3.84 11.89 11.89 0 00-1.55-3.36 9.7 9.7 0 00-5.89-4.31m7.81 12.17l15.19-14.31M20.38 174a8.92 8.92 0 015.88 8.36 8.62 8.62 0 01-3.56 7 8.43 8.43 0 01-2.32 1.17 1.77 1.77 0 01-.59.09 1.91 1.91 0 01-1.79-1.27 2 2 0 01-.09-.59 1.9 1.9 0 011.33-1.82 4.65 4.65 0 001.26-.63 4.82 4.82 0 002-3.92 5 5 0 00-.25-1.56 5.19 5.19 0 00-.71-1.41 4.84 4.84 0 00-2.36-1.77 4.57 4.57 0 00-2.92 0 11 11 0 00-3 1.53 11.56 11.56 0 00-4.73 9.39 12 12 0 00.58 3.7 12.1 12.1 0 001.68 3.35c1.43 2 4 4.2 9.77 5.42m.87-3a19.64 19.64 0 01-4.21-1 8.68 8.68 0 01-4.2-3.16 8.89 8.89 0 01-1.68-5.2 8.64 8.64 0 013.57-7 8.43 8.43 0 012.32-1.17 2 2 0 01.59-.09 1.91 1.91 0 01.58 3.73 4.4 4.4 0 00-1.26.64 4.81 4.81 0 00-2 3.91 5 5 0 00.25 1.56 5.16 5.16 0 00.7 1.41 5.36 5.36 0 002.32 2 4.92 4.92 0 001.65.27 4.52 4.52 0 001.42-.21 11.08 11.08 0 002.94-1.8 11.51 11.51 0 004.74-9.38 12.94 12.94 0 00-.39-3.84 12 12 0 00-1.55-3.36 9.7 9.7 0 00-5.97-4.35m7.81 12.18l15.19-14.32"/><path class="cls-1" d="M20.38 201a8.69 8.69 0 014.21 3.15 9.1 9.1 0 011.67 5.2 8.46 8.46 0 01-5.88 8.19 1.78 1.78 0 01-.59.1 1.91 1.91 0 01-1.79-1.33 2 2 0 01-.09-.59 1.9 1.9 0 011.33-1.82 4.65 4.65 0 001.26-.63 4.82 4.82 0 002-3.92 5 5 0 00-.25-1.56 5.19 5.19 0 00-.71-1.41 4.84 4.84 0 00-2.36-1.77 4.57 4.57 0 00-2.92 0 11 11 0 00-3 1.53 11.56 11.56 0 00-4.73 9.39 12 12 0 00.58 3.7 12.1 12.1 0 001.68 3.35c1.43 2 4 4.21 9.77 5.42m.87-3a19.64 19.64 0 01-4.21-1 8.68 8.68 0 01-4.2-3.16 8.89 8.89 0 01-1.68-5.2 8.64 8.64 0 013.57-7 8.43 8.43 0 012.32-1.17 2 2 0 01.59-.09 1.93 1.93 0 011.82 1.33 2 2 0 01.09.59 1.92 1.92 0 01-1.33 1.82 4.38 4.38 0 00-1.26.63 4.82 4.82 0 00-2 3.92 5.08 5.08 0 00.25 1.56 5.24 5.24 0 00.7 1.4 5.36 5.36 0 002.32 2 4.92 4.92 0 001.65.27 4.52 4.52 0 001.42-.21 11.08 11.08 0 002.94-1.8 11.51 11.51 0 004.74-9.38 12.84 12.84 0 00-.39-3.83 12 12 0 00-1.55-3.37 9.7 9.7 0 00-5.97-4.31m7.81 12.18l15.19-14.32m-23.87-75.75a8.72 8.72 0 015.45 5.64 8.88 8.88 0 01.43 2.72 8.46 8.46 0 01-5.88 8.18 1.78 1.78 0 01-.59.1 1.91 1.91 0 01-1.79-1.33 2 2 0 01-.09-.59 1.92 1.92 0 011.3-1.83 4.65 4.65 0 001.26-.63 4.82 4.82 0 002-3.92 5 5 0 00-.25-1.55 5.11 5.11 0 00-.71-1.42 4.9 4.9 0 00-2.36-1.77 4.57 4.57 0 00-2.92 0 11 11 0 00-3 1.53 11.56 11.56 0 00-4.73 9.39 12 12 0 00.5 3.67 12.1 12.1 0 001.68 3.35c1.43 2 4 4.21 9.77 5.42m.87-3a19.64 19.64 0 01-4.21-1 8.66 8.66 0 01-4.2-3.15 9.26 9.26 0 01-1.25-2.47 9 9 0 01-.43-2.73 8.66 8.66 0 013.57-7 8.41 8.41 0 012.32-1.16 1.7 1.7 0 01.59-.1 1.93 1.93 0 011.82 1.33 2 2 0 01.09.59 1.91 1.91 0 01-1.33 1.82 4.38 4.38 0 00-1.26.63 4.82 4.82 0 00-2 3.92 5 5 0 00.25 1.56 6 6 0 003 3.43A5.19 5.19 0 0020 140a4.53 4.53 0 001.42-.22 11 11 0 002.92-1.78 11.54 11.54 0 004.74-9.39 12.84 12.84 0 00-.39-3.83 12 12 0 00-1.55-3.37 9.73 9.73 0 00-5.89-4.3m7.81 12.17l15.19-14.32"/><path class="cls-1" d="M20.38 147.07a8.71 8.71 0 014.21 3.16 8.61 8.61 0 011.24 2.48 8.88 8.88 0 01.43 2.72 8.63 8.63 0 01-3.56 7 8.72 8.72 0 01-2.32 1.17 2.06 2.06 0 01-.59.09 1.91 1.91 0 01-1.79-1.31 2 2 0 01-.09-.58 1.92 1.92 0 011.3-1.8 4.65 4.65 0 001.26-.63 4.82 4.82 0 002-3.92 5 5 0 00-.25-1.55 4.91 4.91 0 00-.71-1.41 4.86 4.86 0 00-2.36-1.78 4.57 4.57 0 00-2.92 0 10.8 10.8 0 00-3 1.54 11.53 11.53 0 00-4.73 9.38 12 12 0 00.58 3.7 12.3 12.3 0 001.68 3.36c1.43 2 4 4.2 9.77 5.41m.87-3a19.64 19.64 0 01-4.21-1 8.66 8.66 0 01-4.2-3.15 9.26 9.26 0 01-1.25-2.47 9 9 0 01-.43-2.73 8.66 8.66 0 013.57-7 8.41 8.41 0 012.32-1.16 1.69 1.69 0 01.59-.09 1.92 1.92 0 011.82 1.32 2 2 0 01.09.59 1.91 1.91 0 01-1.33 1.82 4.38 4.38 0 00-1.26.63 4.82 4.82 0 00-2 3.92 5 5 0 00.25 1.56 6 6 0 003 3.43 5.19 5.19 0 001.65.27 4.83 4.83 0 001.42-.21 11.34 11.34 0 002.94-1.8 11.54 11.54 0 004.74-9.39 12.84 12.84 0 00-.39-3.83 12.08 12.08 0 00-1.55-3.37 9.73 9.73 0 00-5.89-4.3m7.81 12.17l15.19-14.32m-23.9-75.81a8.71 8.71 0 014.21 3.16 8.61 8.61 0 011.24 2.48 8.92 8.92 0 01.43 2.72 8.62 8.62 0 01-3.56 7 8.43 8.43 0 01-2.32 1.17 2.06 2.06 0 01-.59.09A1.91 1.91 0 0118 81.49a2 2 0 01-.09-.58 1.9 1.9 0 011.33-1.82 4.67 4.67 0 001.26-.64 4.8 4.8 0 002-3.91 5 5 0 00-.31-1.54 5 5 0 00-.71-1.41 4.92 4.92 0 00-2.36-1.78 4.57 4.57 0 00-2.92 0 11.07 11.07 0 00-3 1.54 11.54 11.54 0 00-4.73 9.38A12 12 0 009 84.38a12.24 12.24 0 001.68 3.35c1.43 2 4 4.2 9.77 5.42m.87-3a19.62 19.62 0 01-4.21-1 8.74 8.74 0 01-4.2-3.15 9.26 9.26 0 01-1.25-2.47 9 9 0 01-.43-2.73 8.63 8.63 0 013.57-7 8.16 8.16 0 012.32-1.17 2 2 0 01.59-.09 1.94 1.94 0 011.82 1.32 2.06 2.06 0 01.09.59 1.91 1.91 0 01-1.33 1.82 4.4 4.4 0 00-1.26.64 4.8 4.8 0 00-2 3.91 5 5 0 00.25 1.56 6 6 0 003 3.43 5.19 5.19 0 001.65.27 4.83 4.83 0 001.42-.21A11.34 11.34 0 0024.34 84a11.53 11.53 0 004.74-9.39 12.87 12.87 0 00-.39-3.83 11.89 11.89 0 00-1.55-3.36 9.7 9.7 0 00-5.89-4.31m23-2.11"/><path class="cls-1" d="M20.38 93.14a8.77 8.77 0 014.21 3.16 9 9 0 011.67 5.2 8.62 8.62 0 01-3.56 7 8.43 8.43 0 01-2.32 1.17 2.06 2.06 0 01-.59.09 1.9 1.9 0 01-1.79-1.31 2 2 0 01-.09-.58 1.9 1.9 0 011.33-1.82 4.67 4.67 0 001.26-.64 4.8 4.8 0 002-3.91 5 5 0 00-.25-1.56 5.19 5.19 0 00-.71-1.41 4.73 4.73 0 00-5.28-1.82 11.36 11.36 0 00-3 1.54 11.56 11.56 0 00-4.73 9.39 12 12 0 00.58 3.7 12.24 12.24 0 001.68 3.35c1.43 2 4 4.2 9.77 5.42m.87-3a19.64 19.64 0 01-4.21-1 8.74 8.74 0 01-4.2-3.16 8.89 8.89 0 01-1.68-5.2 8.63 8.63 0 013.57-7 8.16 8.16 0 012.32-1.17 2 2 0 01.59-.09 1.91 1.91 0 01.58 3.73 4.4 4.4 0 00-1.26.64 4.8 4.8 0 00-2 3.91 5 5 0 00.25 1.56 5.16 5.16 0 00.7 1.41 5.43 5.43 0 002.32 2A5.19 5.19 0 0020 113a4.83 4.83 0 001.42-.21 11.08 11.08 0 002.94-1.8 11.52 11.52 0 004.74-9.38 12.94 12.94 0 00-.39-3.84 12 12 0 00-1.55-3.36 9.7 9.7 0 00-5.89-4.31m-.89-77.85a8.92 8.92 0 015.88 8.36 8.46 8.46 0 01-5.88 8.19 1.54 1.54 0 01-.59.09A1.89 1.89 0 0118 27.57a2 2 0 01-.09-.59 1.9 1.9 0 011.33-1.82 4.65 4.65 0 001.26-.63 4.82 4.82 0 002-3.92 5 5 0 00-.25-1.56 5.19 5.19 0 00-.71-1.41 4.84 4.84 0 00-2.36-1.77 4.57 4.57 0 00-2.92 0 11 11 0 00-3 1.53 11.56 11.56 0 00-4.73 9.39A12 12 0 009 30.45a12.1 12.1 0 001.68 3.35c1.43 2 4 4.2 9.77 5.42m.87-3a19.64 19.64 0 01-4.21-1 8.68 8.68 0 01-4.2-3.16 8.89 8.89 0 01-1.68-5.2 8.64 8.64 0 013.57-7 8.43 8.43 0 012.32-1.17 2 2 0 01.59-.09 1.91 1.91 0 01.58 3.73A4.4 4.4 0 0017 23a4.82 4.82 0 00-2 3.92 5.08 5.08 0 00.25 1.56 5.24 5.24 0 00.7 1.4 5.36 5.36 0 002.32 2 4.92 4.92 0 001.65.27 4.52 4.52 0 001.42-.21 11.08 11.08 0 002.94-1.8 11.51 11.51 0 004.74-9.38 12.94 12.94 0 00-.39-3.84 12 12 0 00-1.55-3.36 9.7 9.7 0 00-5.89-4.31m7.87 12.15L44.25 7.08"/><path class="cls-1" d="M20.38 39.22a8.69 8.69 0 014.21 3.15 9.1 9.1 0 011.67 5.2 8.46 8.46 0 01-5.88 8.19 1.78 1.78 0 01-.59.1A1.91 1.91 0 0118 54.53a2 2 0 01-.09-.59 1.9 1.9 0 011.33-1.82 4.65 4.65 0 001.26-.63 4.82 4.82 0 002-3.92 5 5 0 00-.31-1.57 5.19 5.19 0 00-.71-1.41 4.9 4.9 0 00-2.36-1.77 4.57 4.57 0 00-2.92 0 11 11 0 00-3 1.53 11.56 11.56 0 00-4.73 9.39A12 12 0 009 57.41a12.1 12.1 0 001.68 3.35c1.43 2 4 4.21 9.77 5.42m.87-3a19.64 19.64 0 01-4.21-1 8.68 8.68 0 01-4.2-3.18 8.89 8.89 0 01-1.68-5.2 8.64 8.64 0 013.57-7 8.43 8.43 0 012.32-1.17 2 2 0 01.59-.09 1.93 1.93 0 011.82 1.33 2 2 0 01.09.59 1.91 1.91 0 01-1.33 1.82 4.38 4.38 0 00-1.26.63 4.82 4.82 0 00-2 3.92 5.08 5.08 0 00.25 1.56A5.46 5.46 0 0016 56.8a5.34 5.34 0 002.32 2 4.93 4.93 0 001.65.28 4.53 4.53 0 001.42-.22 11.08 11.08 0 002.94-1.8 11.51 11.51 0 004.74-9.38 12.84 12.84 0 00-.39-3.83 12 12 0 00-1.55-3.37 9.74 9.74 0 00-5.89-4.31M44.25 34"/></svg>