<svg width="100" height="228" fill="none" xmlns="http://www.w3.org/2000/svg"><path d="M32.598 133.354l26.872 49.658c1.097 2.083 1.45 4.257 1.145 6.297-.535 3.629-3.182 6.805-7.305 8.367l5.213 9.867c8.148-2.909 13.328-9.141 14.38-16.233.577-3.905-.092-8.064-2.197-12.054l-26.752-49.469" stroke="#99B9AF" stroke-miterlimit="10"/><path d="M56.35 125.185l26.94 49.854c3.088 5.844 4.07 11.943 3.222 17.668-1.567 10.602-9.421 19.949-21.813 24.098l-1.093.365 5.197 9.837 1.093-.367c16.413-5.497 26.817-17.873 28.9-31.935 1.122-7.593-.18-15.67-4.274-23.425L67.5 121.277M30.368 12.464L57.24 62.122c1.097 2.083 1.45 4.257 1.146 6.297-.535 3.63-3.183 6.805-7.306 8.368l5.214 9.867c8.147-2.91 13.328-9.142 14.38-16.233.577-3.905-.092-8.064-2.198-12.054L41.722 8.894" stroke="#99B9AF" stroke-miterlimit="10"/><path d="M54.12 4.292l26.94 49.854c3.088 5.845 4.07 11.943 3.222 17.668-1.567 10.603-9.42 19.949-21.812 24.098l-1.094.365 5.197 9.838 1.094-.368c16.413-5.497 26.816-17.873 28.899-31.935 1.123-7.592-.18-15.67-4.273-23.425L65.273.384m-32.587 133.36L5.506 83.448C1.385 75.644.076 67.515 1.205 59.877 3.3 45.727 13.766 33.279 30.28 27.75l1.103-.368 5.23 9.9-1.103.37c-12.464 4.176-20.363 13.575-21.94 24.24-.852 5.76.137 11.89 3.245 17.775l27.1 50.146" stroke="#99B9AF" stroke-miterlimit="10"/><path d="M56.382 125.188L29.47 75.423c-2.122-4.02-2.795-8.201-2.214-12.132 1.058-7.134 6.268-13.405 14.471-16.33l5.246 9.928c-4.15 1.569-6.813 4.765-7.351 8.416-.304 2.05.049 4.237 1.158 6.336l27.036 49.964" stroke="#99B9AF" stroke-miterlimit="10"/></svg>