<svg id="Layer_2" data-name="Layer 2" xmlns="http://www.w3.org/2000/svg" viewBox="0 0 65.38 61.04"><defs><style>.cls-1{fill:none;stroke:#1d1d1b;stroke-miterlimit:10;stroke-width:.5px}</style></defs><g id="Layer_1-2" data-name="Layer 1"><path class="cls-1" d="M44.86 2.56L47.14.68h-4.55l2.27 1.88zM2.97 42.61L.7 40.74h4.55l-2.28 1.87zm17.02 13.95l2.27-1.87h-4.55l2.28 1.87zm-8.3-6.58l2.28-1.87H9.41l2.28 1.87zM2.97 18.69L.7 16.81h4.55l-2.28 1.88zm41.89 34.66l2.28-1.87h-4.55l2.27 1.87zM28.95 40.26l2.28-1.87h-4.56l2.28 1.87zm-8.54-7.2l2.28-1.87h-4.55l2.27 1.87zm24.02-3.38l2.27-1.87h-4.55l2.28 1.87zm-16.4-14.03l2.28-1.87h-4.56l2.28 1.87zm8.81 31.49l2.27-1.87h-4.55l2.28 1.87zM11.69 26.05l2.28-1.87H9.41l2.28 1.87zm24.94-3.38l2.28-1.88h-4.55l2.27 1.88zM19.99 8.7l2.27-1.87h-4.55l2.28 1.87zm-8.3-6.58L13.97.25H9.41l2.28 1.87zm42 7.8l-2.27-1.87h4.55l-2.28 1.87zm8.72 7.37l2.27-1.87h-4.55l2.28 1.87zm-8.72 43.43l-2.27-1.87h4.55l-2.28 1.87zm0-23.93l-2.27-1.87h4.55l-2.28 1.87zm8.72 7.36l2.27-1.87h-4.55l2.28 1.87z"/><path class="cls-1" d="M22.41 36.9h13.3l-6.65 5.47-5.89-4.84-.76-.63zM37.8 26.22h13.3l-6.65 5.47-5.89-4.84-.76-.63zM13.42 5.37h13.3l-6.65 5.46-5.89-4.84-.76-.62z"/></g></svg>