<svg xmlns="http://www.w3.org/2000/svg" viewBox="0 0 333.29 79.05"><path d="M114.42 73.29l-1.13-2.25h-6.28v-4.03h6.13v-2.24h-6.13v-3.78h6.28l1.13-2.24h-9.96v14.54zm-19.66 0v-12.3h3.44l.97-2.24H87.81v2.24h4.4v12.3zm45.71 0V58.75h-2.55v5.95h-7.57v-5.95h-2.54v14.54h2.54v-6.35h7.57v6.35zm16.72.01l-1.12-2.24h-6.29v-4.04h6.13v-2.24h-6.13V61h6.29l1.12-2.24h-9.96V73.3zm17.31-.01l-3.55-5.71c1.74-.28 3.44-1.68 3.44-4.27 0-2.68-1.87-4.55-4.75-4.55h-6.39V73.3h2.55v-5.43h2.53l3.23 5.43h2.94zm-5.21-7.67h-3.49V61h3.49c1.44 0 2.49.92 2.49 2.31 0 1.39-1.05 2.31-2.49 2.31m21.63 7.68l-1.12-2.24h-6.29v-4.04h6.13v-2.24h-6.13V61h6.29l1.12-2.24h-9.96V73.3zm19.52-.01V58.75h-2.55v10.09l-7.43-10.09h-2.62v14.54h2.55V62.91l7.59 10.38zm18.57-12.51c-1.17-1.3-2.82-2.27-5.2-2.27-4.21 0-7.63 2.96-7.63 7.52s3.42 7.54 7.63 7.54c2.53 0 4.56-1.04 5.99-2.63v-5.45h-5.83v2.24h3.29V70c-.65.61-1.96 1.31-3.45 1.31-2.88 0-5.01-2.22-5.01-5.28 0-3.05 2.14-5.26 5.01-5.26 1.5 0 2.75.73 3.53 1.68l1.67-1.67zm20.82 12.51l-5.71-14.54h-3.18l-5.71 14.54h2.9l1.07-2.79h6.67l1.07 2.79h2.89zm-4.69-5.04h-5.23l2.62-6.93 2.61 6.93zm30.14 5.04l3.65-14.54h-2.86l-2.31 10.9-3.01-10.9h-2.03l-3.01 10.9-2.34-10.9h-2.85l3.67 14.54h2.72l2.81-10.73 2.84 10.73zm21.49 0l-5.71-14.54h-3.18l-5.71 14.54h2.9l1.07-2.79h6.67l1.07 2.79h2.89zm-4.68-5.04h-5.23l2.62-6.93 2.61 6.93zm21.48 5.04l-6.34-7.67 5.91-6.87h-3.16l-5.69 6.93v-6.93h-2.55v14.54h2.55v-4.65l1.26-1.48 4.88 6.13zm18.57 0l-5.71-14.54h-3.18l-5.71 14.54h2.9l1.07-2.79h6.67l1.07 2.79h2.89zm-4.69-5.04h-5.23l2.62-6.93 2.61 6.93zm5.38-19.2V22.63h-5.66v16.6l-12.32-16.6h-5.82v26.42h5.67V31.82l12.67 17.23zm-218.16-.16l6.48-26.42h-6.38L111.24 41l-5.02-18.53h-4.43L96.73 41l-3.57-18.53h-6.33l6.51 26.42h6.02l4.63-18.14 4.66 18.14zm29.46.2l-2.18-4.95h-10.98v-5.98h10.7V33.2h-10.7v-5.58h10.98l2.18-4.95h-18.82v26.42zm108.56-22.77c-2.1-2.39-5.25-4.25-9.8-4.25-7.85 0-14.28 5.36-14.28 13.79 0 8.39 5.81 13.83 13.65 13.83 4.87 0 9.32-2 12.05-5.04V34.42H242.6v4.96h5.99v3.2c-1.09 1-3.34 2.04-5.71 2.04-4.87 0-8.41-3.72-8.41-8.75 0-5.04 3.54-8.75 8.41-8.75 2.62 0 4.73 1.37 6 3.04l3.81-3.84zm38.19 23.21c8.05 0 14.2-5.7 14.2-13.67 0-7.96-5.86-13.67-13.91-13.67-8.01 0-13.87 5.7-13.87 13.67-.01 7.97 5.57 13.67 13.58 13.67m.28-4.99c-4.9 0-8.05-3.76-8.05-8.67 0-4.95 3.15-8.67 8.05-8.67s8.09 3.72 8.09 8.67c.01 4.91-3.18 8.67-8.09 8.67m-21.91 4.51V27.59h6.65l2.18-4.96h-22.3v4.96h7.77v21.46zM189.2 22.63h5.66v26.42h-5.66zm-24.92 26.42V44.1h-10.05V22.63h-5.66v26.42zm20.32 0V44.1h-10.05V22.63h-5.67v26.42zm39.86 0V22.63h-5.66v16.6l-12.32-16.6h-5.82v26.42h5.67V31.82L219 49.05zM136.4 13.93c3.34 0 5.69-2.43 5.69-5.76 0-3.32-2.35-5.76-5.69-5.76-3.34 0-5.69 2.43-5.69 5.76 0 3.33 2.35 5.76 5.69 5.76m0-1.73c-2.25 0-3.69-1.74-3.69-4.02 0-2.3 1.43-4.02 3.69-4.02 2.24 0 3.69 1.72 3.69 4.02 0 2.28-1.45 4.02-3.69 4.02m-42.72 1.53L97.66 2.6h-2.22l-2.98 9.01-2.97-9.01h-2.22l3.98 11.13zm82.06 0L171.37 2.6h-2.44l-4.37 11.13h2.22l.82-2.14h5.11l.82 2.14h2.21zm-3.59-3.85h-4.01l2-5.31 2.01 5.31zM101.64 2.6h1.95v11.13h-1.95zm14.25 2.93l1.31-1.32c-.85-1.01-2.09-1.79-3.92-1.79-3.29 0-5.84 2.33-5.84 5.76 0 3.42 2.55 5.76 5.84 5.76 1.83 0 3.06-.78 3.92-1.79l-1.31-1.31c-.57.8-1.53 1.37-2.61 1.37-2.2 0-3.84-1.68-3.84-4.02s1.64-4.02 3.84-4.02c1.08-.02 2.04.57 2.61 1.36m9.46 8.2V4.32h2.64l.74-1.72h-8.7v1.72h3.37v9.41zm29.11 0l-2.72-4.37c1.33-.22 2.64-1.28 2.64-3.27 0-2.05-1.43-3.49-3.64-3.49h-4.89v11.13h1.95V9.58h1.94l2.47 4.15h2.25zm-3.98-5.87h-2.67V4.32h2.67c1.1 0 1.9.7 1.9 1.77s-.8 1.77-1.9 1.77m8.41-5.26h1.95v11.13h-1.95zm31.36 11.33c3.22 0 4.8-1.83 4.8-4.6V2.6h-1.97v6.67c0 1.77-.99 2.92-2.84 2.92-1.87 0-2.85-1.15-2.85-2.92V2.6h-1.97v6.74c.01 2.74 1.59 4.59 4.83 4.59m19.15-.2V2.6h-1.95v7.73l-5.7-7.73h-1.99v11.13h1.94V5.79l5.81 7.94zm5.18-11.13h1.95v11.13h-1.95zm12.68 11.13l3.97-11.13h-2.22l-2.97 9.01-2.97-9.01h-2.22l3.97 11.13zm15.95 0l-.86-1.72h-4.81V8.93h4.69V7.21h-4.69V4.32h4.81l.86-1.72h-7.62v11.13zm13.32 0l-2.72-4.37c1.33-.22 2.64-1.28 2.64-3.27 0-2.05-1.43-3.49-3.64-3.49h-4.89v11.13h1.95V9.58h1.94l2.47 4.15h2.25zm-3.99-5.87h-2.67V4.32h2.67c1.1 0 1.9.7 1.9 1.77s-.8 1.77-1.9 1.77m15.03-2.58l1.3-1.31c-1.03-.99-2.43-1.54-4.16-1.54-2.44 0-4.05 1.42-4.05 3.25 0 4.11 6.49 2.65 6.49 4.99 0 .73-.63 1.52-2.24 1.52-1.43 0-2.54-.62-3.31-1.35l-1.26 1.28-.03.04c.98 1.05 2.47 1.77 4.52 1.77 3 0 4.3-1.58 4.3-3.44 0-4.16-6.47-2.87-6.47-4.94 0-.83.73-1.39 1.89-1.39 1.09.01 2.18.37 3.02 1.12m6.15-2.68h1.95v11.13h-1.95zm11.46 11.13V4.32h2.64l.73-1.72h-8.69v1.72h3.37v9.41zm11.89 0V9.11l3.91-6.51h-2.24l-2.64 4.78-2.67-4.78h-2.23l3.92 6.51v4.62zm17.62.2c3.34 0 5.69-2.43 5.69-5.76 0-3.32-2.35-5.76-5.69-5.76-3.34 0-5.69 2.43-5.69 5.76 0 3.33 2.35 5.76 5.69 5.76m0-1.73c-2.25 0-3.69-1.74-3.69-4.02 0-2.3 1.43-4.02 3.69-4.02 2.24 0 3.69 1.72 3.69 4.02 0 2.28-1.46 4.02-3.69 4.02m12.02 1.53v-4.8h4.66V7.21h-4.66V4.32h4.8l.87-1.72h-7.62v11.13zM12.61 56.11c3.25-.05 4.7-2.45 7.95-2.52 3.49-.08 5.09 2.54 8.57 2.54 3.49 0 5.08-2.54 8.57-2.54s5.08 2.54 8.57 2.54 5.08-2.62 8.57-2.54c3.25.08 4.68 2.48 7.93 2.52.01 0 .02-.01.03-.01-7.73 8.37-20.47 15.09-25.14 17.15-3.73-1.5-17.78-8.43-26.01-17.33.32.08.63.19.96.19M64.6 39.56l-8.58 8.67-8.59-8.67H64.6zm-26.32-9.82h17.17l-8.58 8.67-8.59-8.67zm8.01 9.82l-8.58 8.67-8.59-8.67h17.17zM29.12 19.92h17.17l-8.58 8.67-8.59-8.67zm-1.15 19.64l-8.58 8.67-8.59-8.67h17.17zm-8.01-9.82h17.17l-8.58 8.67-8.59-8.67zM69.03 5.57v8.93H5.55V5.57h63.48zM.3.27l-.01 43.1c0 19.44 33.67 34.42 36.78 35.24l.84.22.8-.32c.35-.14 35.57-15.41 35.57-35.14V.27H.3z" fill="#004b34"/></svg>