<svg xmlns="http://www.w3.org/2000/svg" viewBox="0 0 143.26 35.09"><path d="M6.02 7.31c-.7-.6-1.6-1.81-1.72-2.64-.09-.61.32-.99.32-.99s-.2-.6-.11-.88c.43-1.3 6.5-1.36 7.75-1.32 2.84.13 3.44 0 4.84-.55-.04-.05-.47 2.12-3.12 2.08-.01.22-.01.3 0 .33 1.05.02 2.29-.22 3.01-1.1-.02.74.25 1.64-1.18 1.98-1.38.32-2.24.28-2.69 4.28-.09 1.13.01 2.12-1.83 2.52-1.76.39-6.42.51-7.25 1.18l-.17-.3c.92-.65 1.51-1.65 1.4-2.74.19-.12.47-.22.65-.22-.02.38-.47 1.21 1.72 1.21.04 0 2.06.24 1.18-2.42-.27-.83-.51-1.78-1.51-1.76 0-.02-1.27.06-.65 1.35.89.19 1.91.41 2.05 1.07.11.67-.38 1.04-.75.88s-1.41-.76-2.15-.76C4.44 8.51 2 10.09.43 7.09c.45.5.88.82 2.37.87 1.45.05 1.75-.61 3.22-.65m3.65-4.17c-.98-.69-1.48-.95-1.83-.88-.32.07-.98 1.15-.97 1.1.82-.17 2.05-.27 2.8-.22M17.2 8.3v10.1H2.36c.02-.04.54-1.37.97-1.86-.37-.31-.68-.59-.65-.55-.03-.04 1.98-2.72 3.44-2.74-.28-.24-.55-.54-.54-.55.52-.59 1.45-.63 4.52-.88 3.06-.28 3.5-1.1 3.55-3.63.76.93 2.05 2.06 3.55.11m29.77-3.38c0-.46.36-.83.81-.83s.81.37.81.83-.36.83-.81.83a.824.824 0 0 1-.81-.83m6.25 1.5c.19-.32.7-.44 1.2-.27.54.19.87.65.77 1.04 2.66-.05 3.3-.68 3.32-.66-.78 1.45-3.04 2.5-3.9 2.58 1.21.42 3.58 1.83 3.57 4.55 0 3.97-3.78 4.53-5.9 3.95.68.18 1.03.64 1.05.76h-9.56v-8.02c.28-.34.86-.77 1.55-1.07.43-.19.38-.68.38-.68-1.16-.21-1.93-1.21-1.93-1.21V2.78s1.15-1.65 3.87-1.65C49.81 1.15 50.97 3 50.97 3s.91-.78 2.69-.77c4.02 0 4.95 3.95 4.95 3.95-1.18-1.02-2.62-1.34-3.33-1.43-.07.36-.44.63-.88.63-.4 0-.73-.22-.84-.52l-.33.22a.943.943 0 0 1-.32 1.1l.31.24zm-7.25-1.5c0 1.02.81 1.85 1.81 1.85s1.81-.83 1.81-1.85-.81-1.85-1.81-1.85-1.81.83-1.81 1.85m4.47 2.81c-.31.34-.8.63-1.4.77.62-.04 1.8-.05 2.37 0-.43-.19-.97-.77-.97-.77m-.11 3.4c-2.31-.1-3.21 1.31-2.43 1.84 1.46 1.02 2.42-1.87 2.43-1.84m1.83.44c-.03 0-.12 1.3-1.29 2.19.65-.02 1.71.07 1.94-.77.22-.91-.53-1.38-.65-1.42M15.37 8.74c-.7 0-1.57-.92-1.5-1.49.41-3.12 1.98-2.11 3.14-3.02.33.43.82 4.51-1.64 4.51m9.04 1.42h12.16v8.23H24.41v-8.23zm9.05 6.69l-.51-.91.51-.91h-1.03l-.51-.91-.51.91h-1.03l.51.91-.51.91h1.03l.51.91.51-.91h1.03zm-2.85-3.32l-.51-.91.51-.91h-1.03l-.52-.91-.52.91h-1.03l.52.91-.52.91h1.03l.52.91.52-.91h1.03zm4.73 0l-.52-.91.52-.91h-1.03l-.52-.91-.52.91h-1.02l.51.91-.51.91h1.03l.52.91.52-.91h1.02zm-6.62 3.32l-.51-.91.51-.91h-1.03l-.52-.91-.52.91h-1.03l.52.91-.52.91h1.03l.52.91.52-.91h1.03zm1.76 11.2c-.49 0-12.31-5.23-12.31-11.86V1.71H42.8v14.47c0 6.65-11.83 11.87-12.32 11.87m.01-19.56c-1.2 0-1.76.88-2.96.88s-1.76-.91-2.96-.88c-1.12.02-1.62.86-2.74.88-1.11.02-1.92-.81-2.74-.77v7.59c.04 1.59 1.25 3.87 2.74 3.87 1.12-.02 1.62-.85 2.75-.88 1.2-.02 1.76.88 2.96.88 1.21 0 1.76-.88 2.96-.88s1.76.88 2.96.88 1.76-.9 2.96-.88c1.12.03 1.62.86 2.74.88 1.49 0 2.7-2.28 2.74-3.87V8.6c-.82-.04-1.63.79-2.74.77-1.12-.02-1.62-.86-2.74-.88-1.21-.03-1.76.88-2.96.88-1.22 0-1.77-.88-2.97-.88m1.23-4.36v2.41h7.53V4.13l-1.08 1.21h-1.51l-1.18-1.21-1.18 1.21h-1.51l-1.07-1.21zm-10 0v2.41h7.53V4.13l-1.08 1.21h-1.51l-1.18-1.21-1.18 1.21h-1.51l-1.07-1.21zm5 17.23v2.41h7.53v-2.41l-1.08 1.21h-1.51l-1.18-1.21-1.18 1.21h-1.51l-1.07-1.21zm100-15.7l-1.13-2.77-1.09 2.77h2.22zm3.39 2.48v.41c-.73-.01-1.26-.03-1.69-.03-.42 0-.97.02-1.69.03v-.41l.58-.03c.18-.01.29-.25.15-.6l-.49-1.24h-2.74l-.46 1.22c-.15.41.07.61.26.62l.54.03v.41c-.52-.01-.92-.03-1.23-.03-.32 0-.71.02-1.23.03v-.41l.33-.03c.28-.03.48-.34.61-.65l1.97-4.77.28-.75.17-.45.16-.45h.77l2.82 6.59c.12.27.26.43.6.48l.29.03zm-12.6-7.04v.44l.4.03c.28.02.4.07.45.15.07.13.08.42.08.88v4.44c0 .46-.01.75-.08.88-.04.09-.16.13-.45.15l-.4.03v.44c.45-.01 1.05-.03 1.7-.03.64 0 1.24.02 1.69.03V8.1l-.4-.03c-.28-.02-.4-.07-.45-.15-.07-.13-.08-.42-.08-.88V2.6c0-.46.01-.75.08-.88.04-.09.16-.13.45-.15l.4-.03V1.1c-.45.01-1.05.03-1.69.03-.65 0-1.25-.02-1.7-.03m-1.88 6.52l-1.97-2.98c.9-.33 1.62-.97 1.62-1.93 0-1.3-1.02-1.63-2.13-1.61-.74.01-1.47.03-2.21.03-.56 0-1.11-.02-1.83-.03v.41l.4.03c.28.02.39.08.45.19.07.13.08.42.08.88v4.44c0 .46-.01.75-.08.88-.04.09-.16.13-.45.15l-.4.03v.44c.45-.01 1.05-.03 1.7-.03.64 0 1.24.02 1.69.03v-.44l-.4-.03c-.28-.02-.4-.07-.45-.15-.07-.13-.08-.42-.08-.88v-5.3c.17-.09.47-.1.7-.1.85 0 1.47.48 1.47 1.37 0 1.02-.74 1.64-1.74 1.56l-.08.2 2.44 3.78c.33-.01.65-.03.98-.03.35 0 .71.02 1.06.03v-.44c-.21-.04-.35-.08-.45-.15-.12-.11-.24-.23-.32-.35m-9.18-2.67c0-1.8-.75-3.4-2.29-3.4-2.03 0-2.51 1.51-2.51 3.15 0 1.8.75 3.39 2.29 3.39 2.03 0 2.51-1.5 2.51-3.14m1.63-.19c0 2.57-1.65 3.94-4.14 3.94-2.44 0-3.92-1.33-3.92-3.81 0-2.57 1.65-3.94 4.14-3.94 2.44-.01 3.92 1.32 3.92 3.81M95.76 1.13c-1.1 0-2.23-.02-3.38-.03l-.07.05c.09.52.12 1.02.14 1.73h.44l.06-.75c.01-.12.05-.21.1-.26.08-.1.38-.1.68-.1H95v5.27c0 .46-.01.75-.08.88-.04.09-.16.13-.45.15l-.4.03v.44c.44-.01 1.04-.03 1.7-.03.64 0 1.24.02 1.69.03V8.1l-.4-.03c-.28-.02-.4-.07-.45-.15-.07-.13-.08-.42-.08-.88V1.77h1.27c.29 0 .6 0 .67.1.04.06.09.14.1.26l.06.75h.44c.02-.71.06-1.21.14-1.73l-.07-.05c-1.13.01-2.27.03-3.38.03m-7.15.42c.74 0 1.42.2 1.96.75l.06.94h.43c.05-.47.14-1.28.25-1.67l-.07-.12c-1.05-.44-1.78-.51-2.67-.51-2.32 0-4.36 1.25-4.36 3.76 0 2.6 1.83 4 4.31 4 .87 0 1.75-.14 2.51-.6l.24-.53-.13-.13c-.56.33-1.44.56-2.08.56-2.06 0-3.21-1.44-3.21-3.43-.01-1.73.95-3.02 2.76-3.02m-8.9-.45v.44l.4.03c.28.02.4.07.45.15.07.13.08.42.08.88v4.44c0 .46-.01.75-.08.88-.04.09-.16.13-.45.15l-.4.03v.44c.45-.01 1.05-.03 1.7-.03.64 0 1.24.02 1.69.03V8.1l-.4-.03c-.28-.02-.4-.07-.45-.15-.07-.13-.08-.42-.08-.88V2.6c0-.46.01-.75.08-.88.04-.09.16-.13.45-.15l.4-.03V1.1c-.45.01-1.05.03-1.69.03-.66 0-1.26-.02-1.7-.03m-2.38.03c.32 0 .72-.02 1.25-.03v.41l-.35.03c-.24.02-.38.19-.51.51l-2.27 5.42c-.15.36-.27.72-.41 1.08h-.83l-2.6-6.23c-.13-.3-.31-.75-.68-.78l-.45-.03V1.1c.72.01 1.28.03 1.7.03s.97-.02 1.79-.03v.41l-.54.03c-.16.01-.28.11-.28.21 0 .22.13.55.23.78l1.71 4.21 1.55-3.84c.18-.46.34-.87.34-1.07s-.19-.28-.4-.29l-.5-.03V1.1c.52.01.93.03 1.25.03M62.78 16.28v-4.15c0-.48-.01-.78-.08-.92-.06-.11-.17-.17-.46-.19l-.42-.03v-.42c.47.01 1.09.03 1.77.03.67 0 1.29-.02 1.76-.03v.42l-.42.03c-.29.02-.41.08-.46.19-.07.14-.08.44-.08.92v2.81c0 1.6.1 2.61 2.02 2.61 1.89 0 2.11-1.04 2.11-2.68v-2.73c0-.48-.01-.78-.08-.92-.06-.11-.17-.17-.46-.19l-.42-.03v-.42c.43.01.87.03 1.3.03s.86-.02 1.29-.03V11l-.42.03c-.29.02-.41.08-.46.19-.07.14-.08.44-.08.92v3.31c0 2.07-1.1 3.04-3.15 3.04-2.16-.01-3.26-.93-3.26-2.21m9.45.47v-4.62c0-.48-.01-.78-.08-.92-.06-.11-.17-.17-.47-.19l-.42-.03v-.42c.45.01.9.03 1.36.03.32 0 .64-.02.95-.03.38.5.76 1.04 1.17 1.51l3.54 4.12v-4.07c0-.48-.01-.78-.08-.92-.06-.11-.17-.17-.46-.19l-.42-.03v-.42c.43.01.87.03 1.3.03s.86-.02 1.29-.03v.42l-.42.03c-.29.02-.41.08-.46.19-.07.14-.08.44-.08.92v5.14c0 .4.02.81.03 1.14l-1.01-.1c-.47-.52-.94-1.05-1.38-1.58l-3.67-4.42-.02 4.43c0 .48.01.78.08.92.06.11.17.17.46.19l.42.03v.42c-.43-.01-.86-.03-1.29-.03s-.87.02-1.3.03v-.42l.42-.03c.3-.02.41-.08.47-.19.06-.13.07-.43.07-.91m11.46-4.62v4.62c0 .47.01.78.08.92.05.09.17.14.47.16l.42.03v.46c-.46-.01-1.09-.03-1.76-.03-.68 0-1.3.02-1.77.03v-.46l.42-.03c.29-.02.42-.07.47-.16.07-.14.08-.44.08-.92v-4.62c0-.47-.01-.78-.08-.92-.05-.09-.17-.13-.47-.16l-.42-.03v-.46c.46.01 1.09.03 1.77.03.67 0 1.29-.02 1.76-.03v.46l-.42.03c-.29.02-.42.07-.47.16-.07.14-.08.45-.08.92m5.01-.08l1.78 4.38 1.61-4c.19-.48.35-.91.35-1.11s-.19-.29-.42-.31l-.52-.03v-.42c.56.01.99.03 1.32.03s.75-.02 1.3-.03v.42l-.36.03c-.25.02-.4.2-.53.53l-2.36 5.64c-.16.37-.28.75-.43 1.12h-.86l-2.71-6.48c-.14-.32-.32-.78-.7-.82l-.46-.03v-.42c.75.01 1.33.03 1.77.03.44 0 1.01-.02 1.86-.03v.42l-.57.03c-.17.01-.3.11-.3.22-.01.24.12.59.23.83m8.96-.79v2.72c.26.02.51.02.76.02h.75c.4 0 .62-.02.65-.24l.07-.65h.45c-.01.41-.03.81-.03 1.21 0 .41.02.82.03 1.22h-.45l-.07-.57c-.04-.32-.25-.42-.65-.42h-.75c-.25 0-.5.01-.76.03v3.03c.48.02.96.03 1.45.03.52 0 1.36-.1 1.38-.19l.26-1.06h.44l-.12 1.79c-.8.15-2.11.15-2.85.12-.46-.01-.93-.03-1.39-.03-.47 0-.94.02-1.36.03v-.26l.36-.2c.18-.1.23-.3.23-.65v-5.07c0-.48-.01-.78-.08-.92-.06-.11-.17-.17-.47-.19l-.42-.03v-.42c.75.01 1.33.03 1.77.03 1.07 0 1.84-.02 2.48-.03.63-.01 1.13-.01 1.65.03l-.09 1.69h-.41l-.09-.85c-.02-.17-.78-.22-1.3-.22-.47.01-.96.02-1.44.05m5.86 5.49v-4.62c0-.47-.01-.78-.08-.92-.06-.11-.17-.17-.46-.19l-.42-.03v-.42c.75.01 1.33.03 1.9.03.77 0 1.53-.02 2.3-.03 1.16-.02 2.22.33 2.22 1.68 0 1-.75 1.67-1.69 2.01l2.05 3.1c.08.12.2.25.33.35.1.08.25.11.46.16v.46c-.36-.01-.74-.03-1.1-.03-.34 0-.68.02-1.02.03l-2.54-3.94.08-.2c1.04.09 1.81-.56 1.81-1.62 0-.93-.64-1.43-1.53-1.43-.24 0-.54.01-.73.1v5.52c0 .48.01.78.08.92.05.09.17.14.47.16l.42.03v.46c-.46-.01-1.09-.03-1.76-.03-.68 0-1.3.02-1.77.03v-.46l.42-.03c.29-.02.42-.07.46-.16.08-.15.1-.45.1-.93m8.12-.75h.46l.08 1c.31.52 1.19.87 1.78.87.96 0 1.78-.51 1.78-1.5 0-.49-.29-.86-.94-1.06l-1.59-.48c-.95-.28-1.66-.95-1.66-1.93 0-1.81 1.35-2.51 2.99-2.51.7 0 1.45.12 2.11.39-.06.5-.1 1.16-.1 1.75h-.46l-.07-.93c-.34-.39-.97-.62-1.51-.62-1.05 0-1.55.61-1.55 1.37 0 .51.36.88 1.2 1.1l1.29.34c1.04.27 1.71.93 1.71 1.95 0 1.93-1.6 2.73-3.32 2.73-.81 0-1.64-.17-2.37-.52.14-.66.17-1.31.17-1.95m9.64-3.87v4.62c0 .47.01.78.08.92.04.09.17.14.46.16l.42.03v.46c-.46-.01-1.09-.03-1.76-.03-.68 0-1.3.02-1.77.03v-.46l.42-.03c.3-.02.42-.07.46-.16.07-.14.08-.44.08-.92v-4.62c0-.47-.01-.78-.08-.92-.05-.09-.17-.13-.46-.16l-.42-.03v-.46c.47.01 1.09.03 1.77.03.67 0 1.29-.02 1.76-.03v.46l-.42.03c-.29.02-.42.07-.46.16-.07.14-.08.45-.08.92m6.51-.86v5.48c0 .48.01.78.08.92.05.09.17.14.46.16l.42.03v.46c-.46-.01-1.09-.03-1.75-.03-.68 0-1.3.02-1.77.03v-.46l.42-.03c.29-.02.42-.07.46-.16.07-.14.08-.44.08-.92v-5.48h-1.32c-.3 0-.62 0-.7.1-.04.06-.09.15-.1.27l-.06.78h-.46c-.02-.74-.06-1.26-.15-1.8 1.26-.04 2.44-.02 3.58-.02 1.15 0 2.33-.02 3.52-.03-.02.6-.06 1.12-.08 1.86h-.46l-.06-.78a.566.566 0 0 0-.1-.27c-.08-.1-.4-.1-.7-.1h-1.31v-.01zm7.99 2.97l2.13-3.64h.87v.22l-1.99 2.95c-.24.35-.43.75-.6 1.13v1.85c0 .48.01.78.08.92.04.09.17.14.46.16l.42.03v.46c-.46-.01-1.09-.03-1.76-.03-.68 0-1.3.02-1.77.03v-.46l.42-.03c.29-.02.42-.07.47-.16.07-.14.08-.44.08-.92v-1.58c-.22-.49-.35-.73-.5-.97l-1.15-1.85c-.16-.25-.4-.54-.59-.76-.26-.28-.5-.38-.88-.38v-.42l1.8-.4c.62.34.97.93 1.29 1.53l1.22 2.32zm-7.72 13.18c-1.6 0-2.38-1.65-2.38-3.53 0-1.7.5-3.28 2.61-3.28 1.6 0 2.38 1.67 2.38 3.54 0 1.7-.5 3.27-2.61 3.27m.23-7.44c-2.6 0-4.31 1.43-4.31 4.1 0 2.59 1.54 3.97 4.08 3.97 2.6 0 4.31-1.43 4.31-4.1 0-2.59-1.54-3.97-4.08-3.97m6.18 6.35v-4.62c0-.48-.01-.78-.08-.92-.06-.11-.17-.17-.47-.19l-.42-.03v-.42c.45.01.91.03 1.36.03.32 0 .64-.02.95-.03.39.5.76 1.04 1.17 1.51l3.54 4.12v-4.07c0-.48-.01-.78-.08-.92-.06-.11-.17-.17-.46-.19l-.42-.03v-.42c.43.01.87.03 1.3.03.43 0 .86-.02 1.29-.03v.42l-.42.03c-.29.02-.41.08-.47.19-.07.14-.08.44-.08.92v5.14c0 .4.02.81.03 1.15l-1.01-.1c-.47-.52-.94-1.05-1.38-1.58l-3.67-4.42-.02 4.43c0 .48.01.78.08.92.05.11.17.17.46.19l.42.03v.42c-.43-.01-.86-.03-1.29-.03s-.87.02-1.3.03v-.42l.42-.03c.3-.02.41-.08.47-.19.07-.14.08-.45.08-.92m-72.59-.85l1.69-3.99.58-1.41h.51c.18.52.36 1.02.55 1.51l1.54 3.85 1.11-4.25c.04-.13.05-.24.05-.37s-.2-.21-.4-.23l-.52-.03v-.42c.51.01.91.03 1.22.03s.7-.02 1.22-.03v.42l-.38.03c-.2.02-.35.31-.49.78l-1.38 4.89c-.15.53-.25 1.08-.38 1.62h-.83c-.15-.4-.27-.79-.43-1.19l-1.69-4.25-1.73 4.04c-.2.47-.35.94-.53 1.42h-.79l-1.57-6.82c-.08-.33-.22-.45-.42-.48l-.36-.03v-.42c.75.01 1.32.03 1.77.03.44 0 1.01-.02 1.52-.03v.42l-.49.03c-.15.01-.34.14-.34.26 0 .08.01.19.04.32l.91 4.3h.02zm11.24-4.65v2.72c.26.02.51.02.76.02h.75c.4 0 .62-.02.65-.24l.07-.65h.45c-.01.41-.03.8-.03 1.21s.02.82.03 1.23h-.45l-.07-.57c-.03-.32-.25-.42-.65-.42h-.75c-.25 0-.5.01-.76.03v3.03c.48.02.96.03 1.45.03.52 0 1.36-.1 1.38-.19l.26-1.07h.44l-.12 1.79c-.8.15-2.11.15-2.85.12-.46-.01-.93-.03-1.39-.03-.48 0-.94.02-1.36.03v-.26l.36-.2c.18-.1.22-.29.22-.65v-5.08c0-.47-.01-.78-.08-.92-.06-.11-.17-.17-.46-.19l-.42-.03v-.42c.75.01 1.32.03 1.77.03 1.07 0 1.84-.02 2.48-.03.63-.01 1.13-.01 1.66.03l-.09 1.69h-.41l-.09-.85c-.02-.17-.78-.22-1.3-.22-.49.03-.98.04-1.45.06m7.22.88v5.49c.48.02.96.03 1.45.03.52 0 1.36-.1 1.38-.19l.26-1.15h.45l-.12 1.88c-.8.15-2.11.15-2.85.12-.46-.01-.93-.03-1.39-.03-.48 0-.94.02-1.36.03v-.26l.36-.2c.18-.1.22-.3.22-.65V21.7c0-.48-.01-.78-.08-.92-.05-.09-.17-.14-.46-.16l-.42-.03v-.46c.47.01 1.09.03 1.77.03.67 0 1.29-.02 1.76-.03v.46l-.42.03c-.29.02-.42.07-.47.16-.07.15-.08.45-.08.93m7.22 0v5.49c.48.02.96.03 1.45.03.52 0 1.36-.1 1.39-.19l.26-1.15h.44l-.12 1.88c-.8.15-2.11.15-2.85.12-.46-.01-.93-.03-1.39-.03-.48 0-.94.02-1.36.03v-.26l.36-.2c.18-.1.22-.3.22-.65V21.7c0-.48-.01-.78-.08-.92-.04-.09-.17-.14-.46-.16l-.42-.03v-.46c.47.01 1.09.03 1.77.03.67 0 1.29-.02 1.76-.03v.46l-.42.03c-.3.02-.42.07-.46.16-.08.15-.09.45-.09.93m7.07 0v4.62c0 .48.01.78.08.92.05.09.17.14.46.16l.42.03v.46c-.47-.01-1.09-.03-1.76-.03-.68 0-1.3.02-1.77.03v-.46l.42-.03c.29-.02.42-.07.47-.16.07-.14.08-.44.08-.92v-4.62c0-.47-.01-.78-.08-.92-.05-.09-.17-.14-.47-.16l-.42-.03v-.46c.47.01 1.09.03 1.77.03.67 0 1.29-.02 1.76-.03v.46l-.42.03c-.3.02-.42.07-.46.16-.07.14-.08.44-.08.92m3.07 4.62v-4.62c0-.48-.01-.78-.08-.92-.06-.11-.17-.17-.47-.19l-.42-.03v-.42c.45.01.91.03 1.36.03.32 0 .64-.02.95-.03.39.5.76 1.04 1.17 1.51l3.54 4.12v-4.07c0-.48-.01-.78-.08-.92-.06-.11-.17-.17-.47-.19l-.42-.03v-.42c.43.01.87.03 1.3.03s.86-.02 1.29-.03v.42l-.42.03c-.29.02-.41.08-.47.19-.07.14-.08.44-.08.92v5.14c0 .4.02.81.03 1.15l-1.01-.1c-.47-.52-.94-1.05-1.38-1.58l-3.67-4.42-.02 4.43c0 .48.01.78.08.92.06.11.17.17.46.19l.42.03v.42c-.43-.01-.86-.03-1.29-.03s-.87.02-1.3.03v-.42l.42-.03c.3-.02.41-.08.47-.19.08-.14.09-.45.09-.92m16.63-.81v1.85c-1.04.41-2.14.68-3.31.68-2.58 0-4.49-1.45-4.49-4.16 0-2.61 2.12-3.91 4.53-3.91 1.03 0 2.04.09 3.12.53-.05.53-.14 1.37-.19 1.86h-.45l-.06-.98c-.44-.52-1.45-.78-2.38-.78-1.88 0-2.88 1.34-2.88 3.13 0 1.96 1.01 3.67 3.05 3.67.5 0 .96-.1 1.44-.28v-1.5c0-.35-.28-.41-.65-.42l-.6-.02v-.47c.56.01 1.11.03 1.67.03.55 0 1.1-.02 1.65-.03v.39c-.37.08-.45.13-.45.41m5.91-4.68v5.48c0 .48.01.78.08.92.05.09.17.14.46.16l.42.03v.46c-.46-.01-1.09-.03-1.76-.03-.68 0-1.3.02-1.77.03v-.46l.42-.03c.29-.02.42-.07.46-.16.07-.14.08-.44.08-.92v-5.48h-1.32c-.3 0-.62 0-.7.1-.05.06-.09.15-.1.27l-.06.78h-.46c-.02-.74-.06-1.26-.15-1.8 1.26-.04 2.44-.02 3.58-.02 1.15 0 2.33-.02 3.52-.03-.02.6-.06 1.12-.08 1.86h-.46l-.06-.78a.526.526 0 0 0-.1-.27c-.08-.1-.4-.1-.7-.1h-1.3v-.01zm-43.42 9.73h1.62v.31h-1.62v-.31zm60.42 2.82V31.9c0-.16-.01-.27-.04-.32-.03-.04-.08-.06-.18-.06l-.21-.01v-.13c.23.01.43.01.64.01.2 0 .4 0 .63-.01v.13l-.21.01c-.1 0-.16.02-.18.06-.03.05-.04.16-.04.32v1.45c0 .6.32.77.89.77.47 0 .89-.17.89-.87V31.9c0-.16-.01-.27-.04-.32-.03-.04-.08-.05-.18-.06l-.19-.01v-.13c.17.01.35.01.5.01.17 0 .33-.01.52-.01v.13l-.19.01c-.1.01-.16.02-.18.06-.03.05-.04.16-.04.32v1.22c0 .9-.35 1.26-1.23 1.26-.73 0-1.16-.22-1.16-.99m-2.75-2.04l1.05 2.39c.04.08.09.2.14.29.05.08.1.13.17.14l.15.01v.13c-.19-.01-.38-.01-.58-.01-.15 0-.34.01-.58.01v-.13l.2-.01c.09 0 .18-.03.18-.08 0-.06-.05-.17-.09-.27l-.2-.48h-1.25l-.12.28c-.04.09-.15.37-.15.44 0 .09.07.11.21.12l.16.01v.13c-.21-.01-.37-.01-.5-.01-.17 0-.33.01-.5.01v-.14l.16-.01c.1-.01.19-.1.23-.21l.77-1.71c.14-.29.28-.61.4-.91l.15.01zm-.73 1.81h1.1l-.55-1.26-.55 1.26zm-2.22-1.26v1.89c0 .16.01.27.04.32.03.04.08.06.18.06l.21.01v.13c-.23-.01-.43-.01-.63-.01-.21 0-.42 0-.58.01v-.13l.15-.01c.11-.01.16-.02.18-.06.03-.05.04-.16.04-.32v-1.91c-.07.11-.13.23-.19.34l-.77 1.59c-.08.17-.16.36-.23.53h-.09l-1.2-2.47-.01 1.91c0 .16.01.27.04.32.03.04.08.05.18.06l.19.01v.13c-.19-.01-.35-.01-.52-.01-.16 0-.33.01-.5.01v-.12l.19-.01c.1-.01.16-.02.18-.06.03-.05.04-.16.04-.32V31.9c0-.16-.01-.27-.04-.32-.02-.04-.08-.05-.18-.06l-.19-.01v-.13c.14.01.27.01.41.01s.28-.01.41-.01l1.15 2.34 1.14-2.34c.14.01.27.01.41.01s.28-.01.4-.01v.13l-.18.01c-.1.01-.16.02-.18.06-.04.05-.05.16-.05.32m-7.35-.55l1.05 2.39c.04.08.09.2.14.29.05.08.1.13.17.14l.15.01v.13c-.19-.01-.38-.01-.58-.01-.15 0-.34.01-.58.01v-.13l.2-.01c.09 0 .18-.03.18-.08 0-.06-.05-.17-.09-.27l-.2-.48h-1.25l-.12.28c-.04.09-.15.37-.15.44 0 .09.07.11.21.12l.16.01v.13c-.21-.01-.37-.01-.5-.01-.17 0-.33.01-.5.01v-.14l.16-.01c.1-.01.19-.1.24-.21l.77-1.71c.13-.29.28-.61.4-.91l.14.01zm-.73 1.81h1.1l-.55-1.26-.55 1.26zm-4.65-1.81l1.05 2.39c.04.08.09.2.14.29.05.08.1.13.17.14l.15.01v.13c-.19-.01-.38-.01-.58-.01-.15 0-.34.01-.58.01v-.13l.2-.01c.09 0 .18-.03.18-.08 0-.06-.05-.17-.09-.27l-.2-.48H118l-.12.28c-.04.09-.15.37-.15.44 0 .09.07.11.21.12l.16.01v.13c-.21-.01-.37-.01-.5-.01-.17 0-.33.01-.5.01v-.14l.16-.01c.1-.01.19-.1.23-.21l.77-1.71c.13-.29.28-.61.4-.91l.15.01zm-.73 1.81h1.1l-.55-1.26-.55 1.26zm-3.91-.24v.86c0 .16.01.27.04.32.03.04.08.06.18.06l.21.01v.13c-.23-.01-.43-.01-.63-.01-.21 0-.42 0-.64.01v-.12l.21-.01c.1 0 .16-.02.18-.06.03-.05.04-.16.04-.32V31.9c0-.16-.01-.27-.04-.32-.03-.04-.08-.06-.18-.06l-.21-.01v-.13c.23.01.43.01.64.01.2 0 .4 0 .63-.01v.13l-.21.01c-.1 0-.16.02-.18.06-.03.05-.04.16-.04.32v.9l1.21-1.14c.07-.06.12-.13.12-.16v-.12c.14.01.26.01.39.01.12 0 .24-.01.35-.01v.13l-.18.01c-.11 0-.23.06-.34.16l-1.15 1.01L116 34c.11.1.19.16.27.17l.09.01v.13c-.08-.01-.19-.01-.29-.01-.1 0-.21.01-.34.01l-1.51-1.41-.05.02zm-2.12-1.02v1.89c0 .16.01.27.04.32.03.04.08.06.18.06l.21.01v.13c-.22-.01-.43-.01-.63-.01-.21 0-.42 0-.64.01v-.13l.21-.01c.1 0 .16-.02.18-.06.03-.05.04-.16.04-.32V31.9c0-.16-.01-.27-.04-.32-.03-.04-.08-.06-.18-.06l-.21-.01v-.13c.22.01.43.01.64.01.2 0 .4 0 .63-.01v.13l-.21.01c-.1 0-.16.02-.18.06-.04.05-.04.16-.04.32m-5.47 1.89V31.9c0-.16-.01-.27-.04-.32-.03-.04-.08-.06-.18-.06l-.21-.01v-.13c.24.01.49.01.73.01.38 0 .77-.01 1.02-.01.2 0 .39.01.56.01-.05.18-.07.42-.07.64h-.14v-.27c0-.05 0-.1-.04-.11-.23-.08-.57-.09-.85-.09-.12 0-.24.01-.36.03v1.12c.14.01.3.01.5.01.26 0 .41-.02.46-.05.02-.02.03-.05.03-.11l.02-.22h.13c0 .17-.01.33-.01.49s.01.32.01.47h-.13l-.02-.25c0-.06-.01-.09-.03-.1-.05-.03-.19-.05-.46-.05-.21 0-.37 0-.5.01v1.18c.12.03.25.03.36.03.35 0 .8-.01.88-.06.07-.03.12-.22.15-.47h.15c-.04.2-.07.46-.07.69-.19 0-.54.02-.86.01-.33 0-.68-.01-.94-.01-.17 0-.31.01-.46.01v-.11l.16-.01c.1-.01.16-.02.18-.06.02-.05.03-.16.03-.32m-2.72 0v-1.78c0-.16 0-.29-.02-.42h-.67c-.13 0-.16.04-.17.14l-.02.33h-.13c0-.23-.01-.46-.03-.68.31 0 .62.01.94.01h.63c.31 0 .62-.01.94-.01-.02.22-.03.45-.03.68h-.13l-.02-.33c-.01-.1-.04-.14-.17-.14h-.67c-.01.13-.02.26-.02.42v1.78c0 .16.01.27.04.32.03.04.08.06.18.06l.21.01v.13c-.23-.01-.43-.01-.63-.01-.21 0-.42 0-.64.01v-.13l.21-.01c.1 0 .16-.02.18-.06.01-.05.02-.16.02-.32m-5.3.59c-.88 0-1.54-.59-1.54-1.53 0-.87.62-1.54 1.63-1.54.93 0 1.59.5 1.59 1.44 0 .9-.73 1.63-1.68 1.63m.02-2.9c-.76 0-1.1.51-1.1 1.2 0 .74.35 1.51 1.21 1.51.72 0 1.08-.55 1.08-1.32 0-.83-.38-1.39-1.19-1.39m-5.83 2.9c-.88 0-1.54-.59-1.54-1.53 0-.87.62-1.54 1.63-1.54.93 0 1.59.5 1.59 1.44 0 .9-.73 1.63-1.68 1.63m.02-2.9c-.75 0-1.1.51-1.1 1.2 0 .74.36 1.51 1.22 1.51.72 0 1.08-.55 1.08-1.32-.01-.83-.39-1.39-1.2-1.39m-4.53 1.44v.86c0 .16.01.27.04.32.03.04.08.06.18.06l.21.01v.13c-.22-.01-.43-.01-.63-.01-.21 0-.42 0-.64.01v-.12l.21-.01c.1 0 .16-.02.18-.06.03-.05.04-.16.04-.32V31.9c0-.16-.01-.27-.04-.32-.03-.04-.08-.06-.18-.06l-.21-.01v-.13c.23.01.43.01.64.01.2 0 .4 0 .63-.01v.13l-.21.01c-.1 0-.16.02-.18.06-.03.05-.04.16-.04.32v.9l1.21-1.14c.07-.06.13-.13.13-.16v-.12c.14.01.26.01.39.01.12 0 .24-.01.35-.01v.13l-.18.01c-.11 0-.23.06-.34.16l-1.15 1.01L90.08 34c.11.1.19.16.27.17l.09.01v.13c-.08-.01-.19-.01-.29-.01-.11 0-.21.01-.34.01L88.3 32.9l-.06.02zm-3.37 1.46c-.88 0-1.54-.59-1.54-1.53 0-.87.63-1.54 1.63-1.54.93 0 1.59.5 1.59 1.44 0 .9-.73 1.63-1.68 1.63m.02-2.9c-.75 0-1.1.51-1.1 1.2 0 .74.36 1.51 1.21 1.51.73 0 1.08-.55 1.08-1.32 0-.83-.38-1.39-1.19-1.39m-4 .11v2.2c0 .16.01.27.04.32.03.04.08.06.18.06l.21.01v.13c-.23-.01-.43-.01-.63-.01-.21 0-.42 0-.64.01v-.13l.21-.01c.1 0 .16-.02.18-.06.03-.05.04-.16.04-.32V31.9c0-.15-.01-.26-.04-.31-.03-.04-.08-.06-.19-.07l-.19-.01v-.13c.29.01.53.01.78.01s.5-.01.74-.01c.42-.01.9.17.9.65 0 .53-.47.9-1.04.9-.09 0-.17-.01-.26-.02l-.04-.15c.1.03.19.04.29.04.35 0 .62-.27.62-.63 0-.44-.27-.63-.7-.63-.21 0-.34.02-.46.05m-4.49 1.8V31.9c0-.16-.01-.27-.04-.32-.03-.04-.08-.06-.18-.06l-.21-.01v-.13c.23.01.43.01.64.01.2 0 .4 0 .63-.01v.13l-.21.01c-.1 0-.16.02-.18.06-.03.05-.04.16-.04.32v1.45c0 .6.32.77.89.77.47 0 .89-.17.89-.87V31.9c0-.16-.01-.27-.04-.32-.03-.04-.08-.05-.18-.06l-.19-.01v-.13c.17.01.35.01.5.01.17 0 .33-.01.52-.01v.13l-.19.01c-.1.01-.16.02-.18.06-.03.05-.04.16-.04.32v1.22c0 .9-.35 1.26-1.23 1.26-.73 0-1.16-.22-1.16-.99m-5.01.4V31.9c0-.16-.01-.27-.04-.32-.03-.04-.08-.06-.18-.06l-.21-.01v-.13c.24.01.49.01.73.01.38 0 .78-.01 1.02-.01.2 0 .39.01.56.01-.05.18-.07.42-.07.64h-.15v-.27c0-.05 0-.1-.04-.11-.23-.08-.57-.09-.85-.09-.12 0-.24.01-.36.03v1.12c.14.01.29.01.5.01.26 0 .41-.02.46-.05.02-.02.03-.05.04-.11l.02-.22h.13c-.01.17-.01.33-.01.49s.01.32.01.47h-.13l-.02-.25c-.01-.06-.01-.09-.04-.1-.05-.03-.19-.05-.46-.05-.21 0-.37 0-.5.01v1.18c.12.03.25.03.36.03.35 0 .8-.01.88-.06.07-.03.12-.22.15-.47h.15c-.04.2-.07.46-.07.69-.19 0-.54.02-.86.01-.33 0-.67-.01-.94-.01-.16 0-.31.01-.46.01v-.11l.16-.01c.1-.01.16-.02.18-.06.03-.05.04-.16.04-.32m-2.72 0v-1.78c0-.16 0-.29-.02-.42h-.67c-.13 0-.17.04-.17.14l-.02.33h-.14c0-.23-.01-.46-.03-.68.31 0 .62.01.94.01h.63c.31 0 .62-.01.94-.01-.02.22-.03.45-.03.68h-.14l-.02-.33c-.01-.1-.04-.14-.17-.14h-.67c-.01.13-.02.26-.02.42v1.78c0 .16.01.27.04.32.03.04.08.06.18.06l.21.01v.13c-.23-.01-.43-.01-.63-.01-.21 0-.42 0-.64.01v-.13l.21-.01c.1 0 .16-.02.18-.06.03-.05.04-.16.04-.32m-5.3.59c-.88 0-1.54-.59-1.54-1.53 0-.87.62-1.54 1.63-1.54.93 0 1.59.5 1.59 1.44 0 .9-.73 1.63-1.68 1.63m.02-2.9c-.75 0-1.1.51-1.1 1.2 0 .74.36 1.51 1.22 1.51.72 0 1.08-.55 1.08-1.32-.01-.83-.39-1.39-1.2-1.39m-5.43-.13l1.05 2.39c.04.08.09.2.14.29.05.08.1.13.17.14l.15.01v.13c-.19-.01-.38-.01-.58-.01-.15 0-.34.01-.58.01v-.13l.2-.01c.09 0 .18-.03.18-.08 0-.06-.05-.17-.09-.27l-.2-.48h-1.25l-.12.28c-.04.09-.15.37-.15.44 0 .09.07.11.21.12l.16.01v.13c-.21-.01-.37-.01-.5-.01-.17 0-.33.01-.5.01v-.14l.16-.01c.1-.01.19-.1.23-.21l.77-1.71c.13-.29.28-.61.4-.91l.15.01zm-.72 1.81h1.1l-.55-1.26-.55 1.26zm-2.43.72v-.42c0-.1-.03-.14-.15-.15l-.36-.03v-.13c.18 0 .36.01.53.01.18 0 .36 0 .53-.01l.02.11-.13.04c-.05.02-.05.03-.05.16v.71c-.37.1-.84.21-1.14.21-.97 0-1.75-.49-1.75-1.55 0-.93.79-1.52 1.83-1.52.54 0 .88.12 1.08.17-.05.2-.09.42-.09.64h-.14v-.22c0-.2-.16-.27-.36-.34-.12-.05-.31-.08-.59-.08-.83 0-1.25.53-1.25 1.28 0 .84.5 1.44 1.4 1.44.33 0 .58-.07.61-.15.01-.04.01-.06.01-.17m-6.36-.09V31.9c0-.16-.01-.27-.04-.32-.03-.04-.08-.05-.18-.06l-.19-.01v-.13c.19.01.36.01.52.01.08 0 .16-.01.24-.01l2.07 2.49.01-1.97c0-.16-.01-.27-.04-.32-.03-.04-.08-.05-.18-.06l-.19-.01v-.13c.17.01.35.01.5.01.17 0 .33-.01.52-.01v.13l-.19.01c-.1.01-.16.02-.18.06-.03.05-.04.16-.04.32v2.32c0 .05.01.1.01.15l-.39-.07-2.04-2.46-.01 1.94c0 .16.01.27.04.32.03.04.08.05.18.06l.19.01v.13c-.19-.01-.35-.01-.52-.01-.16 0-.33.01-.5.01v-.12l.19-.01c.1-.01.16-.02.18-.06.03-.05.04-.16.04-.32m-2.75-2.44l1.05 2.39c.04.08.09.2.14.29.05.08.09.13.17.14l.15.01v.13c-.19-.01-.38-.01-.58-.01-.15 0-.34.01-.58.01v-.13l.2-.01c.09 0 .18-.03.18-.08 0-.06-.05-.17-.09-.27l-.2-.48h-1.25l-.12.28c-.04.09-.15.37-.15.44 0 .09.07.11.21.12l.16.01v.13c-.21-.01-.37-.01-.5-.01-.17 0-.34.01-.5.01v-.14l.16-.01c.1-.01.19-.1.23-.21l.77-1.71c.13-.29.28-.61.4-.91l.15.01zm-.73 1.81h1.1l-.55-1.26-.55 1.26zm-4.82.63V31.9c0-.16-.01-.27-.04-.32-.03-.04-.08-.05-.18-.06l-.19-.01v-.13c.19.01.36.01.52.01.08 0 .16-.01.24-.01l2.07 2.49.01-1.97c0-.16-.01-.27-.04-.32-.03-.04-.08-.05-.18-.06l-.19-.01v-.13c.17.01.35.01.5.01.17 0 .33-.01.52-.01v.13l-.19.01c-.1.01-.16.02-.18.06-.03.05-.04.16-.04.32v2.32c0 .05.01.1.01.15l-.39-.07-2.04-2.46-.01 1.94c0 .16.01.27.04.32.03.04.08.05.18.06l.19.01v.13c-.19-.01-.35-.01-.52-.01-.16 0-.33.01-.5.01v-.12l.19-.01c.1-.01.16-.02.18-.06.03-.05.04-.16.04-.32m-2.75-2.44l1.05 2.39c.04.08.09.2.14.29.05.08.1.13.17.14l.15.01v.13c-.19-.01-.38-.01-.58-.01-.15 0-.34.01-.58.01v-.13l.2-.01c.09 0 .18-.03.18-.08 0-.06-.05-.17-.09-.27l-.2-.48h-1.25l-.12.28c-.04.09-.15.37-.15.44 0 .09.07.11.21.12l.16.01v.13c-.21-.01-.37-.01-.5-.01-.17 0-.33.01-.5.01v-.14l.16-.01c.1-.01.19-.1.23-.21l.77-1.71c.13-.29.28-.61.4-.91l.15.01zm-.73 1.81h1.1l-.55-1.26-.55 1.26zm-3.38.3l-.54-1.43-.76 1.86c-.06.14-.11.29-.16.43h-.22c-.03-.16-.06-.29-.1-.43l-.52-2.17c-.04-.18-.13-.2-.22-.21l-.12-.01v-.12c.18.01.36.01.55.01s.36-.01.55-.01v.13l-.18.01c-.11.01-.2.03-.14.28l.43 1.88.54-1.31c.14-.33.27-.67.39-1.01h.14c.04.17.12.36.18.53l.67 1.83.58-2.05c.03-.1-.03-.13-.2-.14l-.17-.01v-.14c.15.01.3.01.46.01s.3-.01.45-.01v.13l-.14.01c-.1.01-.14.05-.17.12l-.66 2.26c-.03.12-.08.25-.12.42h-.22c-.09-.32-.19-.57-.3-.86m-7.19.33V31.9c0-.16-.01-.27-.04-.32-.03-.04-.08-.06-.18-.06l-.21-.01v-.13c.24.01.49.01.73.01.38 0 .78-.01 1.02-.01.2 0 .39.01.56.01-.05.18-.07.42-.07.64h-.15v-.27c0-.05-.01-.1-.04-.11-.23-.08-.57-.09-.85-.09-.12 0-.24.01-.36.03v1.12c.14.01.29.01.5.01.26 0 .41-.02.46-.05.02-.02.03-.05.03-.11l.02-.22h.13c0 .17-.01.33-.01.49s.01.32.01.47h-.13l-.02-.25c0-.06-.01-.09-.03-.1-.05-.03-.19-.05-.46-.05-.21 0-.37 0-.5.01v1.18c.12.03.25.03.36.03.35 0 .8-.01.88-.06.07-.03.12-.22.15-.47h.15c-.04.2-.07.46-.07.69-.19 0-.54.02-.86.01-.33 0-.68-.01-.94-.01-.17 0-.31.01-.46.01v-.11l.16-.01c.1-.01.16-.02.18-.06.03-.05.04-.16.04-.32m-3.14-2.2v2.2c0 .16.01.27.04.32.03.04.08.06.18.06l.21.01v.13c-.23-.01-.43-.01-.63-.01-.21 0-.42 0-.64.01v-.13l.21-.01c.1 0 .16-.02.18-.06.03-.05.04-.16.04-.32V31.9c0-.16-.01-.27-.04-.32-.03-.04-.08-.05-.18-.06l-.18-.01v-.13c.23.01.48.01.74.01s.51-.01.76-.01c.69-.01.88.33.88.63 0 .46-.43.73-.85.81l.99 1.24c.06.08.16.1.26.11v.13c-.11-.01-.21-.01-.31-.01s-.19.01-.3.01c-.06-.08-.12-.15-.18-.23l-.8-1.04c-.07-.09-.15-.17-.23-.26.14-.04.28-.05.41-.07.3-.05.56-.28.56-.59 0-.46-.35-.58-.69-.58-.19.01-.31.03-.43.06m-3.21-.24l1.05 2.39c.04.08.09.2.14.29.05.08.1.13.17.14l.15.01v.13c-.19-.01-.38-.01-.58-.01-.15 0-.34.01-.58.01v-.13l.2-.01c.09 0 .18-.03.18-.08 0-.06-.05-.17-.09-.27l-.2-.48h-1.24l-.12.28c-.04.09-.15.37-.15.44 0 .09.07.11.21.12l.16.01v.13c-.21-.01-.37-.01-.5-.01-.17 0-.33.01-.5.01v-.14l.16-.01c.1-.01.19-.1.23-.21l.77-1.71c.13-.29.28-.61.4-.91l.14.01zm-.72 1.81h1.1l-.55-1.26-.55 1.26zM16.8 31.9v1.89c0 .16.01.27.04.32.03.04.08.06.18.06l.21.01v.13c-.23-.01-.43-.01-.63-.01-.21 0-.42 0-.64.01v-.13l.21-.01c.1 0 .16-.02.18-.06.03-.05.04-.16.04-.32v-.94c-.05 0-.17-.01-.36-.01h-1.01c-.19 0-.31 0-.36.01v.94c0 .16.01.27.04.32.03.04.08.06.18.06l.21.01v.13c-.23-.01-.43-.01-.63-.01-.21 0-.42 0-.64.01v-.13l.21-.01c.1 0 .16-.02.18-.06.03-.05.04-.16.04-.32V31.9c0-.16-.01-.27-.04-.32-.03-.04-.08-.06-.18-.06l-.21-.01v-.13c.22.01.43.01.64.01.2 0 .4 0 .63-.01v.13l-.21.01c-.1 0-.16.02-.18.06-.03.05-.04.16-.04.32v.75c.05 0 .17.01.36.01h1.01c.19 0 .31-.01.36-.01v-.75c0-.16-.01-.27-.04-.32-.03-.04-.08-.06-.18-.06l-.21-.01v-.13c.23.01.43.01.64.01.2 0 .4 0 .63-.01v.13l-.21.01c-.1 0-.16.02-.18.06-.03.05-.04.16-.04.32m-5.42 1.56l-.54-1.43-.75 1.86c-.06.14-.11.29-.16.43h-.22c-.03-.16-.07-.29-.1-.43l-.52-2.17c-.04-.18-.13-.2-.22-.21l-.12-.01v-.12c.18.01.36.01.55.01.19 0 .36-.01.55-.01v.13l-.18.01c-.11.01-.2.03-.14.28l.43 1.88.54-1.31c.14-.33.27-.67.39-1.01h.14c.04.17.12.36.18.53l.67 1.83.58-2.05c.03-.1-.03-.13-.2-.14l-.17-.01v-.14c.15.01.3.01.46.01s.3-.01.45-.01v.13l-.14.01c-.1.01-.14.05-.16.12l-.66 2.26c-.03.12-.08.25-.12.42h-.22c-.11-.32-.21-.57-.32-.86m-7.19.33V31.9c0-.16-.01-.27-.04-.32-.03-.04-.08-.06-.18-.06l-.21-.01v-.13c.24.01.49.01.73.01.38 0 .77-.01 1.02-.01.2 0 .39.01.56.01-.05.18-.07.42-.07.64h-.15v-.27c0-.05 0-.1-.04-.11-.23-.08-.57-.09-.85-.09-.12 0-.24.01-.36.03v1.12c.14.01.3.01.5.01.26 0 .41-.02.46-.05.02-.02.03-.05.03-.11l.02-.22h.13c0 .17-.01.33-.01.49s.01.32.01.47h-.13l-.02-.25c0-.06-.01-.09-.03-.1-.05-.03-.19-.05-.46-.05-.21 0-.37 0-.5.01v1.18c.12.03.25.03.36.03.35 0 .8-.01.88-.06.07-.03.12-.22.15-.47h.15c-.04.2-.07.46-.07.69-.19 0-.54.02-.86.01-.33 0-.68-.01-.95-.01-.16 0-.31.01-.46.01v-.11l.16-.01c.1-.01.16-.02.18-.06.04-.05.05-.16.05-.32m-2.72 0v-1.78c0-.16 0-.29-.02-.42H.78c-.13 0-.16.04-.17.14l-.02.33H.45c0-.23-.01-.46-.03-.68.31 0 .62.01.94.01h.63c.31 0 .62-.01.94-.01-.02.22-.03.45-.03.68h-.13l-.02-.33c-.01-.1-.04-.14-.17-.14h-.67c-.01.13-.02.26-.02.42v1.78c0 .16.01.27.04.32.03.04.08.06.18.06l.21.01v.13c-.22-.01-.43-.01-.63-.01-.21 0-.42 0-.64.01v-.13l.2-.01c.1 0 .16-.02.18-.06.03-.05.04-.16.04-.32m140.26-1.89v1.89c0 .16.01.27.04.32.02.04.08.06.18.06l.21.01v.13c-.23-.01-.43-.01-.63-.01-.21 0-.42 0-.64.01v-.13l.21-.01c.1 0 .16-.02.18-.06.03-.05.04-.16.04-.32V31.9c0-.16-.01-.27-.04-.32-.03-.04-.08-.06-.18-.06l-.21-.01v-.13c.23.01.43.01.64.01.2 0 .4 0 .63-.01v.13l-.21.01c-.1 0-.16.02-.18.06-.04.05-.04.16-.04.32M36.51 30.58h1.62v.31h-1.62v-.31zm97.07-.01h1.62v.31h-1.62v-.31z" fill="#fff"/></svg>