<svg id="Layer_1" data-name="Layer 1" xmlns="http://www.w3.org/2000/svg" viewBox="0 0 212.75 61.53"><defs><style>.cls-1{fill:#004b34;}</style></defs><title>VUW Logo-mobile version</title><polygon class="cls-1" points="23.86 61.29 22.89 59.35 17.45 59.35 17.45 55.86 22.76 55.86 22.76 53.92 17.45 53.92 17.45 50.66 22.89 50.66 23.86 48.72 15.25 48.72 15.25 61.29 23.86 61.29"/><polygon class="cls-1" points="6.86 61.29 6.86 50.66 9.84 50.66 10.67 48.72 0.85 48.72 0.85 50.66 4.66 50.66 4.66 61.29 6.86 61.29"/><polygon class="cls-1" points="46.39 61.29 46.39 48.72 44.19 48.72 44.19 53.86 37.64 53.86 37.64 48.72 35.44 48.72 35.44 61.29 37.64 61.29 37.64 55.8 44.19 55.8 44.19 61.29 46.39 61.29"/><polygon class="cls-1" points="60.85 61.3 59.88 59.36 54.44 59.36 54.44 55.87 59.75 55.87 59.75 53.93 54.44 53.93 54.44 50.66 59.88 50.66 60.85 48.73 52.24 48.73 52.24 61.3 60.85 61.3"/><path class="cls-1" d="M76,61.17l-3.07-4.94a3.52,3.52,0,0,0,3-3.69,3.82,3.82,0,0,0-4.11-3.94H66.24V61.17h2.2v-4.7h2.19l2.79,4.7Zm-4.5-6.63h-3v-4h3a2,2,0,1,1,0,4" transform="translate(-0.14 0.12)"/><polygon class="cls-1" points="90.03 61.3 89.05 59.36 83.62 59.36 83.62 55.87 88.92 55.87 88.92 53.93 83.62 53.93 83.62 50.66 89.05 50.66 90.03 48.73 81.41 48.73 81.41 61.3 90.03 61.3"/><polygon class="cls-1" points="106.9 61.29 106.9 48.72 104.7 48.72 104.7 57.44 98.27 48.72 96.01 48.72 96.01 61.29 98.21 61.29 98.21 52.32 104.78 61.29 106.9 61.29"/><path class="cls-1" d="M123.11,50.36a5.78,5.78,0,0,0-4.5-2,6.51,6.51,0,1,0,0,13,6.81,6.81,0,0,0,5.18-2.27V54.42h-5v1.94h2.84v2a4.6,4.6,0,0,1-3,1.14,4.56,4.56,0,0,1,0-9.11,4,4,0,0,1,3.06,1.45Z" transform="translate(-0.14 0.12)"/><path class="cls-1" d="M141.11,61.17,136.17,48.6h-2.75l-4.94,12.57H131l.92-2.41h5.77l.92,2.41Zm-4.05-4.35h-4.53l2.26-6Z" transform="translate(-0.14 0.12)"/><polygon class="cls-1" points="162.98 61.29 166.13 48.72 163.66 48.72 161.66 58.14 159.06 48.72 157.31 48.72 154.71 58.14 152.68 48.72 150.21 48.72 153.39 61.29 155.74 61.29 158.18 52.01 160.63 61.29 162.98 61.29"/><path class="cls-1" d="M181.71,61.17,176.77,48.6H174l-4.94,12.57h2.51l.92-2.41h5.77l.92,2.41Zm-4.05-4.35h-4.53l2.26-6Z" transform="translate(-0.14 0.12)"/><polygon class="cls-1" points="196.1 61.29 190.61 54.65 195.72 48.72 192.99 48.72 188.07 54.71 188.07 48.72 185.86 48.72 185.86 61.29 188.07 61.29 188.07 57.27 189.16 55.99 193.38 61.29 196.1 61.29"/><path class="cls-1" d="M212.29,61.17,207.35,48.6H204.6l-4.94,12.57h2.51l.92-2.41h5.77l.92,2.41Zm-4-4.35h-4.53l2.27-6Z" transform="translate(-0.14 0.12)"/><polygon class="cls-1" points="212.75 40.33 212.75 17.48 207.86 17.48 207.86 31.84 197.21 17.48 192.17 17.48 192.17 40.33 197.07 40.33 197.07 25.43 208.03 40.33 212.75 40.33"/><polygon class="cls-1" points="24.08 40.18 29.68 17.34 24.17 17.34 21.12 33.36 16.77 17.34 12.95 17.34 8.57 33.36 5.48 17.34 0 17.34 5.64 40.18 10.84 40.18 14.84 24.5 18.88 40.18 24.08 40.18"/><polygon class="cls-1" points="49.56 40.36 47.67 36.08 38.18 36.08 38.18 30.91 47.43 30.91 47.43 26.62 38.18 26.62 38.18 21.79 47.67 21.79 49.56 17.51 33.28 17.51 33.28 40.36 49.56 40.36"/><path class="cls-1" d="M143.58,20.55a10.85,10.85,0,0,0-8.47-3.68c-6.79,0-12.35,4.64-12.35,11.93s5,12,11.81,12A14.15,14.15,0,0,0,145,36.41V27.56H134.86v4.28h5.19v2.77a7.89,7.89,0,0,1-4.94,1.76,7.2,7.2,0,0,1-7.27-7.57,7.2,7.2,0,0,1,7.27-7.57,6.49,6.49,0,0,1,5.18,2.63Z" transform="translate(-0.14 0.12)"/><path class="cls-1" d="M176.61,40.62c7,0,12.28-4.93,12.28-11.81S183.82,17,176.86,17s-12,4.93-12,11.82,4.82,11.81,11.75,11.81m.25-4.31c-4.24,0-7-3.26-7-7.5s2.73-7.51,7-7.51,7,3.22,7,7.51-2.75,7.5-7,7.5" transform="translate(-0.14 0.12)"/><polygon class="cls-1" points="157.77 40.33 157.77 21.76 163.52 21.76 165.4 17.48 146.12 17.48 146.12 21.76 152.84 21.76 152.84 40.33 157.77 40.33"/><rect class="cls-1" x="88.54" y="17.48" width="4.9" height="22.85"/><polygon class="cls-1" points="66.99 40.33 66.99 36.05 58.29 36.05 58.29 17.48 53.4 17.48 53.4 40.33 66.99 40.33"/><polygon class="cls-1" points="84.56 40.33 84.56 36.05 75.86 36.05 75.86 17.48 70.97 17.48 70.97 40.33 84.56 40.33"/><polygon class="cls-1" points="119.03 40.33 119.03 17.48 114.14 17.48 114.14 31.84 103.48 17.48 98.45 17.48 98.45 40.33 103.35 40.33 103.35 25.43 114.31 40.33 119.03 40.33"/><path class="cls-1" d="M43,9.84a4.77,4.77,0,0,0,4.92-5,4.92,4.92,0,1,0-9.84,0,4.77,4.77,0,0,0,4.92,5m0-1.5a3.2,3.2,0,0,1-3.19-3.48,3.2,3.2,0,1,1,6.38,0A3.2,3.2,0,0,1,43,8.34" transform="translate(-0.14 0.12)"/><polygon class="cls-1" points="5.93 9.78 9.37 0.16 7.45 0.16 4.88 7.95 2.31 0.16 0.39 0.16 3.83 9.78 5.93 9.78"/><path class="cls-1" d="M77,9.66,73.26,0H71.15L67.37,9.66h1.92L70,7.82h4.42l.71,1.84ZM73.93,6.33H70.47L72.2,1.74Z" transform="translate(-0.14 0.12)"/><rect class="cls-1" x="12.81" y="0.16" width="1.69" height="9.62"/><path class="cls-1" d="M25.28,2.57l1.13-1.14A4.25,4.25,0,0,0,23-.12a4.85,4.85,0,0,0-5.05,5,4.85,4.85,0,0,0,5.05,5,4.27,4.27,0,0,0,3.39-1.55L25.28,7.15A2.82,2.82,0,0,1,23,8.34,3.3,3.3,0,0,1,19.7,4.86,3.3,3.3,0,0,1,23,1.38a2.86,2.86,0,0,1,2.26,1.19" transform="translate(-0.14 0.12)"/><polygon class="cls-1" points="33.32 9.78 33.32 1.64 35.6 1.64 36.24 0.16 28.72 0.16 28.72 1.64 31.63 1.64 31.63 9.78 33.32 9.78"/><path class="cls-1" d="M58.63,9.66,56.28,5.88a2.69,2.69,0,0,0,2.28-2.82,2.92,2.92,0,0,0-3.14-3H51.19V9.66h1.69V6.07h1.67l2.14,3.59ZM55.19,4.59H52.88V1.53h2.31a1.51,1.51,0,0,1,1.64,1.53,1.52,1.52,0,0,1-1.64,1.53" transform="translate(-0.14 0.12)"/><rect class="cls-1" x="62.32" y="0.16" width="1.69" height="9.62"/><path class="cls-1" d="M89.58,9.84c2.79,0,4.16-1.59,4.16-4V0H92V5.81a2.47,2.47,0,1,1-4.93,0V0h-1.7V5.87c0,2.37,1.37,4,4.17,4" transform="translate(-0.14 0.12)"/><polygon class="cls-1" points="106 9.78 106 0.16 104.32 0.16 104.32 6.84 99.39 0.16 97.67 0.16 97.67 9.78 99.35 9.78 99.35 2.92 104.38 9.78 106 9.78"/><rect class="cls-1" x="110.48" y="0.16" width="1.69" height="9.62"/><polygon class="cls-1" points="121.45 9.78 124.89 0.16 122.97 0.16 120.4 7.95 117.83 0.16 115.91 0.16 119.34 9.78 121.45 9.78"/><polygon class="cls-1" points="135.25 9.78 134.5 8.3 130.34 8.3 130.34 5.63 134.4 5.63 134.4 4.14 130.34 4.14 130.34 1.64 134.5 1.64 135.25 0.16 128.65 0.16 128.65 9.78 135.25 9.78"/><path class="cls-1" d="M146.9,9.66l-2.35-3.78a2.69,2.69,0,0,0,2.28-2.82,2.92,2.92,0,0,0-3.15-3h-4.22V9.66h1.68V6.07h1.68L145,9.66Zm-3.45-5.07h-2.31V1.53h2.31a1.51,1.51,0,0,1,1.65,1.53,1.52,1.52,0,0,1-1.65,1.53" transform="translate(-0.14 0.12)"/><path class="cls-1" d="M156.46,2.36l1.12-1.13A5,5,0,0,0,154-.1c-2.1,0-3.5,1.22-3.5,2.81,0,3.55,5.61,2.29,5.61,4.32,0,.63-.55,1.31-1.93,1.31a4.1,4.1,0,0,1-2.87-1.17L150.2,8.28l0,0a5.17,5.17,0,0,0,3.91,1.53c2.6,0,3.73-1.37,3.73-3,0-3.6-5.6-2.49-5.6-4.28,0-.72.63-1.19,1.63-1.19a4,4,0,0,1,2.62,1" transform="translate(-0.14 0.12)"/><rect class="cls-1" x="161.63" y="0.16" width="1.69" height="9.62"/><polygon class="cls-1" points="171.54 9.78 171.54 1.64 173.82 1.64 174.46 0.16 166.94 0.16 166.94 1.64 169.86 1.64 169.86 9.78 171.54 9.78"/><polygon class="cls-1" points="181.82 9.78 181.82 5.79 185.2 0.16 183.27 0.16 180.99 4.29 178.68 0.16 176.75 0.16 180.14 5.79 180.14 9.78 181.82 9.78"/><path class="cls-1" d="M197.2,9.84a4.77,4.77,0,0,0,4.92-5,4.92,4.92,0,1,0-9.84,0,4.77,4.77,0,0,0,4.92,5m0-1.5A3.2,3.2,0,0,1,194,4.86a3.2,3.2,0,1,1,6.38,0,3.21,3.21,0,0,1-3.19,3.48" transform="translate(-0.14 0.12)"/><polygon class="cls-1" points="207.46 9.78 207.46 5.63 211.49 5.63 211.49 4.14 207.46 4.14 207.46 1.64 211.61 1.64 212.37 0.16 205.77 0.16 205.77 9.78 207.46 9.78"/></svg>