<svg xmlns="http://www.w3.org/2000/svg" viewBox="0 0 286.96 93.05"><style>.st1{fill:#004b34}</style><path fill="none" d="M-23.09 -23.96H310.55V115.9H-23.09z"/><path class="st1" d="M231.76 79.52h-1.51v5.44h1.51c1.64 0 2.6-1.24 2.6-2.71C234.37 80.71 233.47 79.52 231.76 79.52zM187.8 83.49L190.38 83.49 189.09 79.74zM208.04 83.49L210.62 83.49 209.33 79.74z"/><path class="st1" d="M75.33 71.43v21.62h211.64V71.43H75.33zM133.07 86.59h-1.7l-3.96-5.67v5.67h-1.77v-8.7h1.82l3.85 5.46v-5.46h1.77V86.59zM142.31 81.36v1.63h-3.3v1.97h3.38l.72 1.63h-5.87v-8.7h5.87l-.72 1.63h-3.38v1.84H142.31zM155.05 86.59h-1.88l-1.46-5.97-1.44 5.97h-1.88l-2.09-8.7h1.98l1.17 6.29 1.58-6.29h1.38l1.57 6.29 1.16-6.29h1.99L155.05 86.59zM171.9 86.59h-6.32v-1.5l3.92-5.57h-3.92v-1.63h6.23v1.48l-3.92 5.58h4.01V86.59zM180.94 81.36v1.63h-3.3v1.97h3.38l.72 1.63h-5.87v-8.7h5.87l-.72 1.63h-3.38v1.84H180.94zM191.38 86.59l-.51-1.47h-3.56l-.52 1.47h-2.02l3.21-8.7h2.22l3.2 8.7H191.38zM202.02 86.59h-5.28v-8.7h1.77v7.07h3.51V86.59zM211.62 86.59l-.51-1.47h-3.56l-.52 1.47h-2.02l3.21-8.7h2.22l3.2 8.7H211.62zM224.27 86.59h-1.7l-3.96-5.67v5.67h-1.77v-8.7h1.82l3.85 5.46v-5.46h1.77V86.59zM231.76 86.59h-3.27v-8.7h3.27c2.6 0 4.41 1.73 4.41 4.36C236.17 84.87 234.37 86.59 231.76 86.59zM98.15 63.02L97.18 61.1 91.81 61.1 91.81 57.64 97.05 57.64 97.05 55.73 91.81 55.73 91.81 52.5 97.18 52.5 98.15 50.58 89.63 50.58 89.63 63.02zM81.33 63.02L81.33 52.5 84.27 52.5 85.1 50.58 75.38 50.58 75.38 52.5 79.15 52.5 79.15 63.02zM121.3 63.02L121.3 50.58 119.11 50.58 119.11 55.67 112.64 55.67 112.64 50.58 110.46 50.58 110.46 63.02 112.64 63.02 112.64 57.59 119.11 57.59 119.11 63.02zM135.61 63.03L134.64 61.11 129.26 61.11 129.26 57.66 134.51 57.66 134.51 55.74 129.26 55.74 129.26 52.51 134.64 52.51 135.61 50.59 127.08 50.59 127.08 63.03zM150.42 63.02l-3.04-4.89c1.49-.24 2.94-1.43 2.94-3.66 0-2.29-1.6-3.9-4.06-3.9h-5.46v12.44h2.18v-4.64h2.16l2.76 4.64H150.42zM145.96 56.45h-2.98V52.5h2.98c1.23 0 2.13.78 2.13 1.98C148.09 55.67 147.19 56.45 145.96 56.45M164.47 63.03L163.51 61.11 158.13 61.11 158.13 57.66 163.38 57.66 163.38 55.74 158.13 55.74 158.13 52.51 163.51 52.51 164.47 50.59 155.95 50.59 155.95 63.03zM181.17 63.02L181.17 50.58 178.99 50.58 178.99 59.21 172.63 50.58 170.39 50.58 170.39 63.02 172.57 63.02 172.57 54.14 179.06 63.02zM197.07 52.32c-1.01-1.11-2.41-1.95-4.45-1.95-3.6 0-6.53 2.54-6.53 6.44 0 3.9 2.93 6.45 6.53 6.45 2.17 0 3.9-.89 5.13-2.25v-4.66h-4.99v1.92h2.81v1.94c-.56.52-1.68 1.12-2.95 1.12-2.46 0-4.29-1.9-4.29-4.51 0-2.61 1.83-4.5 4.29-4.5 1.28 0 2.35.62 3.03 1.44L197.07 52.32zM214.88 63.02l-4.89-12.44h-2.72l-4.89 12.44h2.48l.91-2.39h5.71l.91 2.39H214.88zM210.87 58.71h-4.48l2.24-5.93L210.87 58.71zM238.07 63.02L241.18 50.58 238.74 50.58 236.76 59.91 234.19 50.58 232.45 50.58 229.88 59.91 227.87 50.58 225.43 50.58 228.57 63.02 230.9 63.02 233.31 53.84 235.73 63.02zM256.46 63.02l-4.89-12.44h-2.72l-4.89 12.44h2.48l.91-2.39h5.71l.91 2.39H256.46zM252.45 58.71h-4.48l2.24-5.93L252.45 58.71zM270.83 63.02L265.4 56.45 270.46 50.58 267.75 50.58 262.88 56.51 262.88 50.58 260.7 50.58 260.7 63.02 262.88 63.02 262.88 59.04 263.97 57.77 268.14 63.02zM286.72 63.02l-4.89-12.44h-2.72l-4.89 12.44h2.48l.91-2.39h5.71l.91 2.39H286.72zM282.71 58.71h-4.48l2.24-5.93L282.71 58.71zM282.39 19.35L282.39 33.7 271.73 19.35 266.7 19.35 266.7 42.19 271.6 42.19 271.6 27.29 282.56 42.19 287.28 42.19 287.28 19.35zM98.61 42.05L104.21 19.2 98.7 19.2 95.64 35.23 91.3 19.2 87.47 19.2 83.1 35.23 80.01 19.2 74.53 19.2 80.17 42.05 85.37 42.05 89.37 26.36 93.4 42.05zM124.08 42.22L122.2 37.94 112.71 37.94 112.71 32.77 121.96 32.77 121.96 28.49 112.71 28.49 112.71 23.66 122.2 23.66 124.08 19.38 107.81 19.38 107.81 42.22zM217.97 22.54c-1.82-2.07-4.54-3.68-8.48-3.68-6.79 0-12.35 4.63-12.35 11.93 0 7.26 5.02 11.96 11.81 11.96 4.21 0 8.06-1.73 10.42-4.36v-8.85h-10.12v4.29h5.18v2.77c-.94.86-2.89 1.76-4.94 1.76-4.21 0-7.27-3.21-7.27-7.57 0-4.36 3.06-7.57 7.27-7.57 2.27 0 4.09 1.18 5.19 2.63L217.97 22.54zM251 42.61c6.96 0 12.28-4.93 12.28-11.82 0-6.89-5.07-11.82-12.03-11.82-6.93 0-12 4.93-12 11.82C239.25 37.67 244.07 42.61 251 42.61M251.24 38.29c-4.24 0-6.96-3.25-6.96-7.5 0-4.28 2.72-7.5 6.96-7.5 4.24 0 7 3.22 7 7.5C258.24 35.04 255.49 38.29 251.24 38.29M232.3 42.19L232.3 23.63 238.05 23.63 239.93 19.35 220.64 19.35 220.64 23.63 227.37 23.63 227.37 42.19zM163.06 19.35H167.96V42.2H163.06zM141.52 42.19L141.52 37.91 132.82 37.91 132.82 19.35 127.92 19.35 127.92 42.19zM159.09 42.19L159.09 37.91 150.39 37.91 150.39 19.35 145.5 19.35 145.5 42.19zM193.56 42.19L193.56 19.35 188.66 19.35 188.66 33.7 178.01 19.35 172.98 19.35 172.98 42.19 177.87 42.19 177.87 27.29 188.84 42.19zM117.4 11.82c2.89 0 4.92-2.1 4.92-4.98 0-2.87-2.03-4.98-4.92-4.98-2.89 0-4.92 2.11-4.92 4.98C112.48 9.71 114.51 11.82 117.4 11.82M117.4 10.32c-1.95 0-3.19-1.5-3.19-3.48 0-1.99 1.24-3.48 3.19-3.48 1.93 0 3.19 1.49 3.19 3.48C120.59 8.82 119.34 10.32 117.4 10.32M80.46 11.65L83.89 2.02 81.98 2.02 79.41 9.82 76.83 2.02 74.92 2.02 78.35 11.65zM151.42 11.65l-3.78-9.62h-2.11l-3.78 9.62h1.92l.71-1.85h4.42l.71 1.85H151.42zM148.32 8.31h-3.46l1.73-4.59L148.32 8.31zM87.34 2.02H89.03V11.639999999999999H87.34zM99.66 4.55l1.13-1.14c-.74-.87-1.81-1.55-3.39-1.55-2.84 0-5.05 2.02-5.05 4.98s2.21 4.98 5.05 4.98c1.59 0 2.65-.68 3.39-1.55l-1.13-1.14c-.49.69-1.32 1.19-2.26 1.19-1.9 0-3.32-1.46-3.32-3.48s1.42-3.48 3.32-3.48C98.34 3.36 99.17 3.87 99.66 4.55M107.85 11.65L107.85 3.51 110.13 3.51 110.76 2.02 103.25 2.02 103.25 3.51 106.16 3.51 106.16 11.65zM133.02 11.65l-2.35-3.78c1.15-.19 2.28-1.11 2.28-2.83 0-1.78-1.24-3.02-3.15-3.02h-4.23v9.62h1.69V8.05h1.68l2.14 3.59H133.02zM129.57 6.57h-2.31V3.51h2.31c.95 0 1.65.61 1.65 1.53S130.53 6.57 129.57 6.57M136.85 2.02H138.54V11.639999999999999H136.85zM163.97 11.82c2.79 0 4.16-1.58 4.16-3.98V2.02h-1.7v5.77c0 1.53-.85 2.53-2.45 2.53-1.62 0-2.47-.99-2.47-2.53V2.02h-1.7v5.83C159.8 10.22 161.17 11.82 163.97 11.82M180.53 11.65L180.53 2.02 178.84 2.02 178.84 8.7 173.92 2.02 172.19 2.02 172.19 11.65 173.88 11.65 173.88 4.78 178.9 11.65zM185.01 2.02H186.7V11.639999999999999H185.01zM195.98 11.65L199.42 2.02 197.5 2.02 194.93 9.82 192.36 2.02 190.44 2.02 193.87 11.65zM209.77 11.65L209.03 10.16 204.87 10.16 204.87 7.49 208.93 7.49 208.93 6.01 204.87 6.01 204.87 3.51 209.03 3.51 209.77 2.02 203.18 2.02 203.18 11.65zM221.29 11.65l-2.35-3.78c1.15-.19 2.28-1.11 2.28-2.83 0-1.78-1.24-3.02-3.15-3.02h-4.23v9.62h1.69V8.05h1.68l2.14 3.59H221.29zM217.84 6.57h-2.31V3.51h2.31c.95 0 1.65.61 1.65 1.53S218.8 6.57 217.84 6.57M230.84 4.34l1.12-1.13c-.89-.86-2.1-1.33-3.59-1.33-2.11 0-3.51 1.23-3.51 2.81 0 3.55 5.61 2.3 5.61 4.32 0 .63-.55 1.31-1.94 1.31-1.24 0-2.2-.53-2.86-1.17l-1.09 1.1-.03.03c.85.91 2.14 1.53 3.91 1.53 2.6 0 3.72-1.37 3.72-2.97 0-3.59-5.6-2.48-5.6-4.27 0-.72.64-1.2 1.63-1.2C229.17 3.38 230.11 3.69 230.84 4.34M236.16 2.02H237.85V11.639999999999999H236.16zM246.07 11.65L246.07 3.51 248.35 3.51 248.99 2.02 241.47 2.02 241.47 3.51 244.38 3.51 244.38 11.65zM256.35 11.65L256.35 7.65 259.73 2.02 257.8 2.02 255.52 6.15 253.21 2.02 251.27 2.02 254.67 7.65 254.67 11.65z"/><g><path class="st1" d="M271.59,11.82c2.89,0,4.92-2.1,4.92-4.98c0-2.87-2.03-4.98-4.92-4.98c-2.89,0-4.92,2.11-4.92,4.98 C266.67,9.71,268.7,11.82,271.59,11.82 M271.59,10.32c-1.95,0-3.19-1.5-3.19-3.48c0-1.99,1.24-3.48,3.19-3.48 c1.93,0,3.19,1.49,3.19,3.48C274.78,8.82,273.52,10.32,271.59,10.32"/></g><path class="st1" d="M281.99 11.65L281.99 7.49 286.02 7.49 286.02 6.01 281.99 6.01 281.99 3.51 286.14 3.51 286.89 2.02 280.3 2.02 280.3 11.65zM32.23 26.34L24.98 33.67 39.51 33.67z"/><g><path class="st1" d="M4.37,4.57h55.03v9.88H4.37V4.57z M39.6,33.76h14.81L47,41.24L39.6,33.76l-7.41,7.47l-7.41-7.47l-7.43,7.47 l-7.39-7.47h14.82l-7.39-7.47h14.78l-7.4-7.47h14.81l-7.4,7.47h14.83L39.6,33.76z M7.47,45.36c0.85,0.67,1.79,1.08,2.79,1.08 c2.8-0.05,4.05-2.12,6.85-2.18c3-0.07,4.38,2.19,7.39,2.19c3,0,4.38-2.19,7.39-2.19c3,0,4.38,2.19,7.39,2.19 c3.01,0,4.39-2.26,7.39-2.19c2.8,0.06,4.04,2.13,6.84,2.18c1,0,1.95-0.41,2.81-1.09c-1.93,2.69-4.95,5.75-9.62,9.14 c-5.99,4.34-12.28,7.37-14.81,8.42c-2.53-1.05-8.81-4.08-14.8-8.42C12.42,51.11,9.4,48.05,7.47,45.36 M63.79,0.06L63.79,0.06 l0-0.06H0v0.06h-0.01v37.1c0,17.01,30.64,30.41,31.89,30.41c1.25,0,31.91-13.4,31.91-30.41V0.06z"/><path class="st1" d="M38.41,11.62l1.68-3.8V7.29h-3.12v0.67h2.25l-1.64,3.66H38.41z M33.89,9.42c-0.47,0-0.88-0.24-0.88-0.77 c0-0.34,0.3-0.75,0.86-0.75c0.67,0,0.93,0.55,0.97,1.02C34.62,9.22,34.26,9.42,33.89,9.42 M33.71,11.69c1.25,0,1.91-0.99,1.91-2.23 c0-1.21-0.51-2.24-1.78-2.24c-0.97,0-1.6,0.66-1.6,1.45c0,0.92,0.67,1.4,1.45,1.4c0.51,0,0.96-0.32,1.16-0.61v0.13 c0,0.71-0.36,1.42-1.14,1.42c-0.41,0-0.66-0.14-0.89-0.38l-0.35,0.57C32.76,11.5,33.17,11.69,33.71,11.69 M29.05,11.02 c-0.49,0-0.9-0.23-0.9-0.61c0-0.45,0.62-0.65,0.9-0.68c0.27,0.03,0.89,0.23,0.89,0.68C29.94,10.79,29.53,11.02,29.05,11.02 M29.05,9.09c-0.27-0.05-0.82-0.2-0.82-0.61c0-0.36,0.35-0.58,0.82-0.58c0.46,0,0.82,0.21,0.82,0.58 C29.87,8.89,29.32,9.04,29.05,9.09 M29.05,11.7c0.88,0,1.65-0.41,1.65-1.19c0-0.55-0.45-0.95-0.97-1.12 c0.49-0.16,0.91-0.47,0.91-1.03c0-0.8-0.83-1.14-1.59-1.14c-0.77,0-1.59,0.34-1.59,1.14c0,0.55,0.41,0.87,0.9,1.03 c-0.53,0.18-0.97,0.57-0.97,1.12C27.39,11.29,28.16,11.7,29.05,11.7 M25.6,11.62V7.29h-0.66l-1.25,1.26l0.44,0.46l0.71-0.73v3.34 H25.6z"/></g></svg>
