<svg id="Layer_1" data-name="Layer 1" xmlns="http://www.w3.org/2000/svg" viewBox="0 0 213.67 172.3"><defs><style>.cls-1{fill:#004b34;}</style></defs><title>VUW Logo-Simplified-Portrait-cmyk</title><polygon class="cls-1" points="24.54 171.82 23.57 169.89 18.13 169.89 18.13 166.4 23.44 166.4 23.44 164.46 18.13 164.46 18.13 161.19 23.57 161.19 24.54 159.25 15.93 159.25 15.93 171.82 24.54 171.82"/><polygon class="cls-1" points="7.54 171.82 7.54 161.19 10.52 161.19 11.35 159.25 1.53 159.25 1.53 161.19 5.34 161.19 5.34 171.82 7.54 171.82"/><polygon class="cls-1" points="47.07 171.82 47.07 159.25 44.87 159.25 44.87 164.4 38.33 164.4 38.33 159.25 36.12 159.25 36.12 171.82 38.33 171.82 38.33 166.34 44.87 166.34 44.87 171.82 47.07 171.82"/><polygon class="cls-1" points="61.53 171.84 60.56 169.9 55.13 169.9 55.13 166.41 60.43 166.41 60.43 164.47 55.13 164.47 55.13 161.2 60.56 161.2 61.53 159.26 52.92 159.26 52.92 171.84 61.53 171.84"/><path class="cls-1" d="M76.5,171.82l-3.07-4.93a3.53,3.53,0,0,0,3-3.7,3.82,3.82,0,0,0-4.11-3.94H66.78v12.57H69v-4.69h2.19L74,171.82ZM72,165.19H69v-4h3a2,2,0,1,1,0,4"/><polygon class="cls-1" points="90.71 171.84 89.73 169.9 84.3 169.9 84.3 166.41 89.6 166.41 89.6 164.47 84.3 164.47 84.3 161.2 89.73 161.2 90.71 159.26 82.09 159.26 82.09 171.84 90.71 171.84"/><polygon class="cls-1" points="107.59 171.82 107.59 159.25 105.38 159.25 105.38 167.98 98.95 159.25 96.69 159.25 96.69 171.82 98.9 171.82 98.9 162.85 105.46 171.82 107.59 171.82"/><path class="cls-1" d="M123.65,161a5.81,5.81,0,0,0-4.5-2,6.51,6.51,0,1,0,0,13,6.82,6.82,0,0,0,5.19-2.28v-4.71h-5V167h2.84v2a4.57,4.57,0,0,1-3,1.13,4.56,4.56,0,0,1,0-9.11,4,4,0,0,1,3.06,1.46Z"/><path class="cls-1" d="M141.65,171.82l-4.94-12.57H134L129,171.82h2.51l.92-2.41h5.77l.92,2.41Zm-4.05-4.35h-4.53l2.27-6Z"/><polygon class="cls-1" points="163.66 171.82 166.81 159.25 164.34 159.25 162.34 168.68 159.74 159.25 157.99 159.25 155.39 168.68 153.36 159.25 150.89 159.25 154.07 171.82 156.43 171.82 158.86 162.55 161.31 171.82 163.66 171.82"/><path class="cls-1" d="M182.25,171.82l-4.94-12.57h-2.75l-4.94,12.57h2.51l.92-2.41h5.77l.92,2.41Zm-4.05-4.35h-4.53l2.27-6Z"/><polygon class="cls-1" points="196.78 171.82 191.29 165.19 196.4 159.25 193.67 159.25 188.75 165.25 188.75 159.25 186.54 159.25 186.54 171.82 188.75 171.82 188.75 167.81 189.84 166.53 194.06 171.82 196.78 171.82"/><path class="cls-1" d="M212.83,171.82l-4.94-12.57h-2.75l-4.94,12.57h2.51l.92-2.41h5.77l.92,2.41Zm-4.05-4.35h-4.52l2.26-6Z"/><polygon class="cls-1" points="213.44 150.87 213.44 128.02 208.54 128.02 208.54 142.37 197.89 128.02 192.85 128.02 192.85 150.87 197.75 150.87 197.75 135.97 208.71 150.87 213.44 150.87"/><polygon class="cls-1" points="24.76 150.72 30.36 127.87 24.85 127.87 21.8 143.9 17.45 127.87 13.63 127.87 9.25 143.9 6.16 127.87 0.68 127.87 6.32 150.72 11.52 150.72 15.52 135.03 19.56 150.72 24.76 150.72"/><polygon class="cls-1" points="50.24 150.9 48.36 146.62 38.86 146.62 38.86 141.44 48.12 141.44 48.12 137.16 38.86 137.16 38.86 132.33 48.36 132.33 50.24 128.05 33.97 128.05 33.97 150.9 50.24 150.9"/><path class="cls-1" d="M144.13,131.21a10.84,10.84,0,0,0-8.48-3.68c-6.79,0-12.35,4.63-12.35,11.93s5,12,11.81,12a14.12,14.12,0,0,0,10.42-4.36v-8.85H135.41v4.29h5.18v2.77a7.89,7.89,0,0,1-4.94,1.76,7.58,7.58,0,0,1,0-15.14,6.52,6.52,0,0,1,5.19,2.63Z"/><path class="cls-1" d="M177.15,151.28c7,0,12.28-4.93,12.28-11.82s-5.07-11.82-12-11.82-12,4.94-12,11.82,4.82,11.82,11.75,11.82m.25-4.32c-4.24,0-7-3.25-7-7.5s2.73-7.5,7-7.5,7,3.22,7,7.5-2.76,7.5-7,7.5"/><polygon class="cls-1" points="158.45 150.87 158.45 132.3 164.2 132.3 166.08 128.02 146.8 128.02 146.8 132.3 153.52 132.3 153.52 150.87 158.45 150.87"/><rect class="cls-1" x="89.22" y="128.02" width="4.9" height="22.85"/><polygon class="cls-1" points="67.67 150.87 67.67 146.59 58.97 146.59 58.97 128.02 54.08 128.02 54.08 150.87 67.67 150.87"/><polygon class="cls-1" points="85.24 150.87 85.24 146.59 76.55 146.59 76.55 128.02 71.65 128.02 71.65 150.87 85.24 150.87"/><polygon class="cls-1" points="119.71 150.87 119.71 128.02 114.82 128.02 114.82 142.37 104.17 128.02 99.13 128.02 99.13 150.87 104.03 150.87 104.03 135.97 114.99 150.87 119.71 150.87"/><path class="cls-1" d="M43.56,120.49a5,5,0,1,0-4.92-5,4.77,4.77,0,0,0,4.92,5m0-1.5a3.49,3.49,0,1,1,3.19-3.47A3.19,3.19,0,0,1,43.56,119"/><polygon class="cls-1" points="6.61 120.32 10.05 110.7 8.13 110.7 5.56 118.49 2.99 110.7 1.07 110.7 4.51 120.32 6.61 120.32"/><path class="cls-1" d="M77.58,120.32,73.8,110.7H71.69l-3.78,9.62h1.92l.71-1.85H75l.71,1.85ZM74.48,117H71l1.73-4.59Z"/><rect class="cls-1" x="13.49" y="110.7" width="1.69" height="9.62"/><path class="cls-1" d="M25.82,113.22,27,112.08a4.24,4.24,0,0,0-3.39-1.54,5,5,0,1,0,0,9.95A4.24,4.24,0,0,0,27,118.94l-1.13-1.13A2.81,2.81,0,0,1,23.56,119a3.48,3.48,0,0,1,0-6.95,2.84,2.84,0,0,1,2.26,1.18"/><polygon class="cls-1" points="34 120.32 34 112.18 36.28 112.18 36.92 110.7 29.4 110.7 29.4 112.18 32.32 112.18 32.32 120.32 34 120.32"/><path class="cls-1" d="M59.18,120.32l-2.35-3.78a2.7,2.7,0,0,0,2.27-2.83,2.92,2.92,0,0,0-3.14-3H51.73v9.62h1.69v-3.59h1.67l2.14,3.59Zm-3.45-5.08H53.42v-3.06h2.31a1.53,1.53,0,1,1,0,3.06"/><rect class="cls-1" x="63.01" y="110.7" width="1.69" height="9.62"/><path class="cls-1" d="M90.13,120.49c2.78,0,4.15-1.58,4.15-4V110.7h-1.7v5.77a2.46,2.46,0,1,1-4.92,0V110.7H86v5.83c0,2.36,1.37,4,4.17,4"/><polygon class="cls-1" points="106.69 120.32 106.69 110.7 105 110.7 105 117.38 100.08 110.7 98.35 110.7 98.35 120.32 100.03 120.32 100.03 113.45 105.06 120.32 106.69 120.32"/><rect class="cls-1" x="111.16" y="110.7" width="1.69" height="9.62"/><polygon class="cls-1" points="122.13 120.32 125.57 110.7 123.65 110.7 121.08 118.49 118.51 110.7 116.59 110.7 120.03 120.32 122.13 120.32"/><polygon class="cls-1" points="135.93 120.32 135.18 118.83 131.02 118.83 131.02 116.16 135.08 116.16 135.08 114.68 131.02 114.68 131.02 112.18 135.18 112.18 135.93 110.7 129.34 110.7 129.34 120.32 135.93 120.32"/><path class="cls-1" d="M147.44,120.32l-2.35-3.78a2.7,2.7,0,0,0,2.28-2.83,2.92,2.92,0,0,0-3.14-3H140v9.62h1.68v-3.59h1.68l2.14,3.59ZM144,115.24h-2.32v-3.06H144a1.53,1.53,0,1,1,0,3.06"/><path class="cls-1" d="M157,113l1.12-1.13a5,5,0,0,0-3.59-1.33c-2.11,0-3.51,1.23-3.51,2.81,0,3.56,5.61,2.3,5.61,4.32,0,.64-.55,1.31-1.93,1.31a4.14,4.14,0,0,1-2.87-1.16l-1.09,1.1,0,0a5.17,5.17,0,0,0,3.91,1.52c2.59,0,3.72-1.37,3.72-3,0-3.59-5.6-2.48-5.6-4.27,0-.72.63-1.2,1.63-1.2a4,4,0,0,1,2.62,1"/><rect class="cls-1" x="162.31" y="110.7" width="1.69" height="9.62"/><polygon class="cls-1" points="172.22 120.32 172.22 112.18 174.5 112.18 175.14 110.7 167.62 110.7 167.62 112.18 170.54 112.18 170.54 120.32 172.22 120.32"/><polygon class="cls-1" points="182.51 120.32 182.51 116.32 185.89 110.7 183.95 110.7 181.67 114.82 179.36 110.7 177.43 110.7 180.82 116.32 180.82 120.32 182.51 120.32"/><path class="cls-1" d="M197.74,120.49a5,5,0,1,0-4.92-5,4.77,4.77,0,0,0,4.92,5m0-1.5a3.49,3.49,0,1,1,3.19-3.47,3.19,3.19,0,0,1-3.19,3.47"/><polygon class="cls-1" points="208.14 120.32 208.14 116.16 212.17 116.16 212.17 114.68 208.14 114.68 208.14 112.18 212.29 112.18 213.05 110.7 206.45 110.7 206.45 120.32 208.14 120.32"/><path class="cls-1" d="M77.94,66.13c3.83-.06,5.55-2.89,9.38-3,4.11-.09,6,3,10.11,3s6-3,10.11-3,6,3,10.12,3,6-3.08,10.11-3c3.83.09,5.52,2.92,9.35,3h0C128,76,113,83.92,107.49,86.35c-4.39-1.77-21-9.94-30.69-20.45a5,5,0,0,0,1.14.23m61.35-19.54L129.16,56.83,119,46.59ZM108.23,35h20.25L118.36,45.24Zm9.45,11.58L107.55,56.83,97.42,46.59ZM97.42,23.43h20.26L107.55,33.66ZM96.07,46.59,85.94,56.83,75.81,46.59ZM86.62,35h20.25L96.75,45.24ZM144.51,6.5V17H69.61V6.5ZM63.42.24V51.09c0,22.94,39.72,40.61,43.4,41.58l1,.26.95-.38c.42-.17,42-18.18,42-41.46V.24Z"/></svg>