<?xml version="1.0" encoding="utf-8"?>
<!-- Generator: Adobe Illustrator 23.0.6, SVG Export Plug-In . SVG Version: 6.00 Build 0)  -->
<svg version="1.1" id="Layer_1" xmlns="http://www.w3.org/2000/svg" xmlns:xlink="http://www.w3.org/1999/xlink" x="0px" y="0px"
	 viewBox="0 0 333.29 79.05" style="enable-background:new 0 0 333.29 79.05;" xml:space="preserve">
<style type="text/css">
	.st0{fill:#FFFFFF;}
</style>
<polygon class="st0" points="114.42,73.29 113.29,71.04 107.01,71.04 107.01,67.01 113.14,67.01 113.14,64.77 107.01,64.77 
	107.01,60.99 113.29,60.99 114.42,58.75 104.46,58.75 104.46,73.29 "/>
<polygon class="st0" points="94.76,73.29 94.76,60.99 98.2,60.99 99.17,58.75 87.81,58.75 87.81,60.99 92.21,60.99 92.21,73.29 "/>
<polygon class="st0" points="140.47,73.29 140.47,58.75 137.92,58.75 137.92,64.7 130.35,64.7 130.35,58.75 127.81,58.75 
	127.81,73.29 130.35,73.29 130.35,66.94 137.92,66.94 137.92,73.29 "/>
<polygon class="st0" points="157.19,73.3 156.07,71.06 149.78,71.06 149.78,67.02 155.91,67.02 155.91,64.78 149.78,64.78 
	149.78,61 156.07,61 157.19,58.76 147.23,58.76 147.23,73.3 "/>
<path class="st0" d="M174.5,73.29l-3.55-5.71c1.74-0.28,3.44-1.68,3.44-4.27c0-2.68-1.87-4.55-4.75-4.55h-6.39v14.54h2.55v-5.43
	h2.53l3.23,5.43H174.5z M169.29,65.62h-3.49v-4.62h3.49c1.44,0,2.49,0.92,2.49,2.31C171.78,64.7,170.73,65.62,169.29,65.62"/>
<polygon class="st0" points="190.92,73.3 189.8,71.06 183.51,71.06 183.51,67.02 189.64,67.02 189.64,64.78 183.51,64.78 183.51,61 
	189.8,61 190.92,58.76 180.96,58.76 180.96,73.3 "/>
<polygon class="st0" points="210.44,73.29 210.44,58.75 207.89,58.75 207.89,68.84 200.46,58.75 197.84,58.75 197.84,73.29 
	200.39,73.29 200.39,62.91 207.98,73.29 "/>
<path class="st0" d="M229.01,60.78c-1.17-1.3-2.82-2.27-5.2-2.27c-4.21,0-7.63,2.96-7.63,7.52c0,4.56,3.42,7.54,7.63,7.54
	c2.53,0,4.56-1.04,5.99-2.63v-5.45h-5.83v2.24h3.29V70c-0.65,0.61-1.96,1.31-3.45,1.31c-2.88,0-5.01-2.22-5.01-5.28
	c0-3.05,2.14-5.26,5.01-5.26c1.5,0,2.75,0.73,3.53,1.68L229.01,60.78z"/>
<path class="st0" d="M249.83,73.29l-5.71-14.54h-3.18l-5.71,14.54h2.9l1.07-2.79h6.67l1.07,2.79H249.83z M245.14,68.25h-5.23
	l2.62-6.93L245.14,68.25z"/>
<polygon class="st0" points="275.28,73.29 278.93,58.75 276.07,58.75 273.76,69.65 270.75,58.75 268.72,58.75 265.71,69.65 
	263.37,58.75 260.52,58.75 264.19,73.29 266.91,73.29 269.72,62.56 272.56,73.29 "/>
<path class="st0" d="M296.77,73.29l-5.71-14.54h-3.18l-5.71,14.54h2.9l1.07-2.79h6.67l1.07,2.79H296.77z M292.09,68.25h-5.23
	l2.62-6.93L292.09,68.25z"/>
<polygon class="st0" points="313.57,73.29 307.23,65.62 313.14,58.75 309.98,58.75 304.29,65.68 304.29,58.75 301.74,58.75 
	301.74,73.29 304.29,73.29 304.29,68.64 305.55,67.16 310.43,73.29 "/>
<path class="st0" d="M332.14,73.29l-5.71-14.54h-3.18l-5.71,14.54h2.9l1.07-2.79h6.67l1.07,2.79H332.14z M327.45,68.25h-5.23
	l2.62-6.93L327.45,68.25z"/>
<polygon class="st0" points="332.83,49.05 332.83,22.63 327.17,22.63 327.17,39.23 314.85,22.63 309.03,22.63 309.03,49.05 
	314.7,49.05 314.7,31.82 327.37,49.05 "/>
<polygon class="st0" points="114.67,48.89 121.15,22.47 114.77,22.47 111.24,41 106.22,22.47 101.79,22.47 96.73,41 93.16,22.47 
	86.83,22.47 93.34,48.89 99.36,48.89 103.99,30.75 108.65,48.89 "/>
<polygon class="st0" points="144.13,49.09 141.95,44.14 130.97,44.14 130.97,38.16 141.67,38.16 141.67,33.2 130.97,33.2 
	130.97,27.62 141.95,27.62 144.13,22.67 125.31,22.67 125.31,49.09 "/>
<path class="st0" d="M252.69,26.32c-2.1-2.39-5.25-4.25-9.8-4.25c-7.85,0-14.28,5.36-14.28,13.79c0,8.39,5.81,13.83,13.65,13.83
	c4.87,0,9.32-2,12.05-5.04V34.42h-11.71v4.96h5.99v3.2c-1.09,1-3.34,2.04-5.71,2.04c-4.87,0-8.41-3.72-8.41-8.75
	c0-5.04,3.54-8.75,8.41-8.75c2.62,0,4.73,1.37,6,3.04L252.69,26.32z"/>
<path class="st0" d="M290.88,49.53c8.05,0,14.2-5.7,14.2-13.67c0-7.96-5.86-13.67-13.91-13.67c-8.01,0-13.87,5.7-13.87,13.67
	C277.29,43.83,282.87,49.53,290.88,49.53 M291.16,44.54c-4.9,0-8.05-3.76-8.05-8.67c0-4.95,3.15-8.67,8.05-8.67
	c4.9,0,8.09,3.72,8.09,8.67C299.26,40.78,296.07,44.54,291.16,44.54"/>
<polygon class="st0" points="269.25,49.05 269.25,27.59 275.9,27.59 278.08,22.63 255.78,22.63 255.78,27.59 263.55,27.59 
	263.55,49.05 "/>
<rect x="189.2" y="22.63" class="st0" width="5.66" height="26.42"/>
<polygon class="st0" points="164.28,49.05 164.28,44.1 154.23,44.1 154.23,22.63 148.57,22.63 148.57,49.05 "/>
<polygon class="st0" points="184.6,49.05 184.6,44.1 174.55,44.1 174.55,22.63 168.88,22.63 168.88,49.05 "/>
<polygon class="st0" points="224.46,49.05 224.46,22.63 218.8,22.63 218.8,39.23 206.48,22.63 200.66,22.63 200.66,49.05 
	206.33,49.05 206.33,31.82 219,49.05 "/>
<path class="st0" d="M136.4,13.93c3.34,0,5.69-2.43,5.69-5.76c0-3.32-2.35-5.76-5.69-5.76c-3.34,0-5.69,2.43-5.69,5.76
	C130.71,11.5,133.06,13.93,136.4,13.93 M136.4,12.2c-2.25,0-3.69-1.74-3.69-4.02c0-2.3,1.43-4.02,3.69-4.02
	c2.24,0,3.69,1.72,3.69,4.02C140.09,10.46,138.64,12.2,136.4,12.2"/>
<polygon class="st0" points="93.68,13.73 97.66,2.6 95.44,2.6 92.46,11.61 89.49,2.6 87.27,2.6 91.25,13.73 "/>
<path class="st0" d="M175.74,13.73L171.37,2.6h-2.44l-4.37,11.13h2.22l0.82-2.14h5.11l0.82,2.14H175.74z M172.15,9.88h-4.01l2-5.31
	L172.15,9.88z"/>
<rect x="101.64" y="2.6" class="st0" width="1.95" height="11.13"/>
<path class="st0" d="M115.89,5.53l1.31-1.32c-0.85-1.01-2.09-1.79-3.92-1.79c-3.29,0-5.84,2.33-5.84,5.76
	c0,3.42,2.55,5.76,5.84,5.76c1.83,0,3.06-0.78,3.92-1.79l-1.31-1.31c-0.57,0.8-1.53,1.37-2.61,1.37c-2.2,0-3.84-1.68-3.84-4.02
	s1.64-4.02,3.84-4.02C114.36,4.15,115.32,4.74,115.89,5.53"/>
<polygon class="st0" points="125.35,13.73 125.35,4.32 127.99,4.32 128.73,2.6 120.03,2.6 120.03,4.32 123.4,4.32 123.4,13.73 "/>
<path class="st0" d="M154.46,13.73l-2.72-4.37c1.33-0.22,2.64-1.28,2.64-3.27c0-2.05-1.43-3.49-3.64-3.49h-4.89v11.13h1.95V9.58
	h1.94l2.47,4.15H154.46z M150.48,7.86h-2.67V4.32h2.67c1.1,0,1.9,0.7,1.9,1.77S151.58,7.86,150.48,7.86"/>
<rect x="158.89" y="2.6" class="st0" width="1.95" height="11.13"/>
<path class="st0" d="M190.25,13.93c3.22,0,4.8-1.83,4.8-4.6V2.6h-1.97v6.67c0,1.77-0.99,2.92-2.84,2.92c-1.87,0-2.85-1.15-2.85-2.92
	V2.6h-1.97v6.74C185.43,12.08,187.01,13.93,190.25,13.93"/>
<polygon class="st0" points="209.4,13.73 209.4,2.6 207.45,2.6 207.45,10.33 201.75,2.6 199.76,2.6 199.76,13.73 201.7,13.73 
	201.7,5.79 207.51,13.73 "/>
<rect x="214.58" y="2.6" class="st0" width="1.95" height="11.13"/>
<polygon class="st0" points="227.26,13.73 231.23,2.6 229.01,2.6 226.04,11.61 223.07,2.6 220.85,2.6 224.82,13.73 "/>
<polygon class="st0" points="243.21,13.73 242.35,12.01 237.54,12.01 237.54,8.93 242.23,8.93 242.23,7.21 237.54,7.21 237.54,4.32 
	242.35,4.32 243.21,2.6 235.59,2.6 235.59,13.73 "/>
<path class="st0" d="M256.53,13.73l-2.72-4.37c1.33-0.22,2.64-1.28,2.64-3.27c0-2.05-1.43-3.49-3.64-3.49h-4.89v11.13h1.95V9.58
	h1.94l2.47,4.15H256.53z M252.54,7.86h-2.67V4.32h2.67c1.1,0,1.9,0.7,1.9,1.77S253.64,7.86,252.54,7.86"/>
<path class="st0" d="M267.57,5.28l1.3-1.31c-1.03-0.99-2.43-1.54-4.16-1.54c-2.44,0-4.05,1.42-4.05,3.25c0,4.11,6.49,2.65,6.49,4.99
	c0,0.73-0.63,1.52-2.24,1.52c-1.43,0-2.54-0.62-3.31-1.35l-1.26,1.28l-0.03,0.04c0.98,1.05,2.47,1.77,4.52,1.77
	c3,0,4.3-1.58,4.3-3.44c0-4.16-6.47-2.87-6.47-4.94c0-0.83,0.73-1.39,1.89-1.39C265.64,4.17,266.73,4.53,267.57,5.28"/>
<rect x="273.72" y="2.6" class="st0" width="1.95" height="11.13"/>
<polygon class="st0" points="285.18,13.73 285.18,4.32 287.82,4.32 288.55,2.6 279.86,2.6 279.86,4.32 283.23,4.32 283.23,13.73 "/>
<polygon class="st0" points="297.07,13.73 297.07,9.11 300.98,2.6 298.74,2.6 296.1,7.38 293.43,2.6 291.2,2.6 295.12,9.11 
	295.12,13.73 "/>
<path class="st0" d="M314.69,13.93c3.34,0,5.69-2.43,5.69-5.76c0-3.32-2.35-5.76-5.69-5.76c-3.34,0-5.69,2.43-5.69,5.76
	C309,11.5,311.35,13.93,314.69,13.93 M314.69,12.2c-2.25,0-3.69-1.74-3.69-4.02c0-2.3,1.43-4.02,3.69-4.02
	c2.24,0,3.69,1.72,3.69,4.02C318.38,10.46,316.92,12.2,314.69,12.2"/>
<polygon class="st0" points="326.71,13.73 326.71,8.93 331.37,8.93 331.37,7.21 326.71,7.21 326.71,4.32 331.51,4.32 332.38,2.6 
	324.76,2.6 324.76,13.73 "/>
<path class="st0" d="M12.61,56.11c3.25-0.05,4.7-2.45,7.95-2.52c3.49-0.08,5.09,2.54,8.57,2.54c3.49,0,5.08-2.54,8.57-2.54
	c3.49,0,5.08,2.54,8.57,2.54c3.49,0,5.08-2.62,8.57-2.54c3.25,0.08,4.68,2.48,7.93,2.52c0.01,0,0.02-0.01,0.03-0.01
	c-7.73,8.37-20.47,15.09-25.14,17.15c-3.73-1.5-17.78-8.43-26.01-17.33C11.97,56,12.28,56.11,12.61,56.11 M64.6,39.56l-8.58,8.67
	l-8.59-8.67H64.6z M38.28,29.74h17.17l-8.58,8.67L38.28,29.74z M46.29,39.56l-8.58,8.67l-8.59-8.67H46.29z M29.12,19.92h17.17
	l-8.58,8.67L29.12,19.92z M27.97,39.56l-8.58,8.67l-8.59-8.67H27.97z M19.96,29.74h17.17l-8.58,8.67L19.96,29.74z M69.03,5.57v8.93
	H5.55l0-8.93H69.03z M0.3,0.27l-0.01,43.1c0,19.44,33.67,34.42,36.78,35.24l0.84,0.22l0.8-0.32c0.35-0.14,35.57-15.41,35.57-35.14
	V0.27H0.3z"/>
</svg>
