<?xml version="1.0" encoding="utf-8"?>
<!-- Generator: Adobe Illustrator 24.2.3, SVG Export Plug-In . SVG Version: 6.00 Build 0)  -->
<svg version="1.1" id="Layer_1" xmlns="http://www.w3.org/2000/svg" xmlns:xlink="http://www.w3.org/1999/xlink" x="0px" y="0px"
	 viewBox="0 0 87.3 92.7" style="enable-background:new 0 0 87.3 92.7;" xml:space="preserve">
<style type="text/css">
	.st0{fill:#004B34;}
</style>
<path class="st0" d="M14.5,65.9c3.8-0.1,5.6-2.9,9.4-3c4.1-0.1,6,3,10.1,3s6-3,10.1-3s6,3,10.1,3s6-3.1,10.1-3
	c3.8,0.1,5.5,2.9,9.4,3l0,0c-9.1,9.9-24.1,17.8-29.6,20.2c-4.4-1.8-21-9.9-30.7-20.5C13.7,65.8,14.1,65.9,14.5,65.9 M75.9,46.3
	L65.7,56.6L55.6,46.3L75.9,46.3z M44.8,34.8h20.3L54.9,45L44.8,34.8z M54.3,46.3L44.1,56.6L34,46.3L54.3,46.3z M34,23.2h20.3
	L44.1,33.4L34,23.2z M32.7,46.3L22.5,56.6L12.4,46.3H32.7z M23.2,34.8h20.2L33.3,45L23.2,34.8z M81.1,6.3v10.5H6.2V6.3H81.1z M0,0
	v50.8c0,22.9,39.7,40.6,43.4,41.6l1,0.3l0.9-0.4c0.4-0.2,42-18.2,42-41.5V0H0z"/>
</svg>
