<svg width="1512" height="381" fill="none" xmlns="http://www.w3.org/2000/svg"><path d="M-21.296 392.845l98.898-64.205s9.735-6.516 24.437-16.005c5.178-3.339 10.265-5.011 14.964-5.656a35.435 35.435 0 0 1 4.813-.327c8.612.005 15.258 3.077 17.958 4.538.038-1.522.128-3.144.128-4.55 0-8.516-.664-14.866-.722-15.144h.032l-.057-.211h.134v-.072c-7.035-2.511-14.804-4.55-22.663-4.917l.026-.55-.026.55c-.9-.044-1.8-.066-2.694-.066-7.775 0-15.442 1.65-22.286 6.022-19.655 12.544-25.407 15.983-25.42 15.994l-99.268 64.477M688.808-15.44c-6.575 11.85-267.641 171.777-275.283 176.61 0 0-11.395 7.222-14.772 9.4-5.069 3.261-11.267 4.455-17.696 4.455-16.649-.016-35.111-7.961-40.646-10.511l.383-.9-.383.9c-1.053-.483-1.659-.789-1.666-.789l.434-.955-.459.944s-3.48-1.844-8.593-3.694c-5.107-1.856-11.829-3.694-18.162-3.694-8.688.083-16.336 3.277-19.247 14.549 10.214 1.4 19.675 5.911 21.737 6.95 15.832 7.067 26.288 11.25 26.314 11.261l-.364.989.402-.972s1.2.539 3.384 1.367c2.183.827 5.343 1.927 9.211 3.033 7.738 2.211 18.309 4.416 29.621 4.411 11.312 0 23.346-2.206 34.064-8.756C422.009 186.147 706.115 7.566 710.807 1.4" stroke="#FEF9F0" stroke-width="2" stroke-miterlimit="10"/><path d="M267.987 187.164c9.933 1.389 19.17 5.711 21.513 6.872l.026-.061c12.621 5.633 21.75 9.411 25.075 10.767l-1.123-25.045-.026-.011c-2.208-1.116-12.059-5.772-22.151-6.883l.012-.133-.012.133a37.161 37.161 0 0 0-4.124-.239c-8.682.084-16.298 3.3-19.19 14.6v0zm-31.172 17.4c-8.689.083-16.324 3.316-19.222 14.627 9.933 1.389 19.177 5.711 21.513 6.878l.026-.061c12.614 5.633 21.75 9.411 25.076 10.767l-1.124-25.05a77.697 77.697 0 0 0-6.154-2.711c-3.849-1.506-8.969-3.15-14.242-3.945l-.102.361-1.947-.588c-1.277-.134-2.56-.267-3.824-.267v-.011zm-44.042 30.85c10.214 1.399 19.668 5.911 21.73 6.949 12.506 5.578 21.558 9.323 24.865 10.673l-1.123-25.05a75.915 75.915 0 0 0-6.461-2.817c-4.226-1.628-9.895-3.416-15.615-4.061l.019-.172-.019.167a37.2 37.2 0 0 0-4.219-.25c-8.67.083-16.273 3.294-19.177 14.555v.006zm50.515-32.389c11.133 1.756 21.188 7.05 21.239 7.072l.53.278v.022c12.429 5.545 21.424 9.267 24.718 10.606l-1.124-25.05a75.846 75.846 0 0 0-6.46-2.817c-4.226-1.628-9.895-3.416-15.615-4.061l.019-.172-.019.167a36.766 36.766 0 0 0-4.194-.25c-8.574.077-16.1 3.244-19.081 14.199l-.013.006zm21.832 58.822c.377.244 1.015.533 2.12.533 1.838.005 5.011-.861 9.965-4.4 11.261-8.039 13.285-20.089 13.298-27.866 0-2.195-.166-4.028-.326-5.311-.077-.628-.16-1.106-.217-1.439-2.222-.9-11.561-4.723-24.808-10.617l1.149 25.494c.077.367.671 3.289.671 7.633.006 4.484-.728 10.439-3.352 16.317l.862-.572.204-.161.064.072.377.311-.007.006zm90.031-132.371a34.01 34.01 0 0 0-3.67 2.783c-2.784 2.417-5.803 5.917-6.933 10.106l-.977-.289.977.289c-2.068 7.544-2.586 17.749-2.688 20.505 3.563 1.622 11.204 4.839 20.154 7.216a18.034 18.034 0 0 1-.102-2.005c-.032-5.189 2.056-17.005 16.904-26.394l-22.413-12.983c-.256.15-.645.372-1.245.772h-.007zm-21.149 11.077c-8.51-.016-15.334 6.578-16.738 14.045 11.586 1.516 22.311 7.216 22.368 7.233 0 0 .135.067.23.111.154-3.439.709-12.066 2.503-19.227-2.898-1.445-5.727-2.162-8.376-2.167l.013.005zM168.016 251.78c9.806 1.322 18.935 5.517 21.533 6.8l.032-.078c12.62 5.633 21.749 9.411 25.075 10.767l-1.123-25.045-.026-.011c-2.202-1.116-12.059-5.772-22.152-6.883l.013-.133-.013.133a37.324 37.324 0 0 0-4.13-.239c-8.708.084-16.336 3.311-19.209 14.689v0zm185.022-42.316c4.533-3.234 7.501-7.195 9.449-11.578-9.921-1.994-17.569-4.828-20.793-6.128.179 1.35.371 3.312.371 5.756 0 4.178-.613 9.622-2.803 15.111.671.428 1.711.95 3.562.95 2.299 0 5.65-.867 10.208-4.117l.006.006zm-235.046 74.821c20.927 1.445 40.978 13.283 46.692 16.917l-1.105-24.667a77.778 77.778 0 0 0-6.249-2.744c-3.901-1.522-9.091-3.172-14.415-3.939l-.064.217-1.302-.395c-1.437-.166-2.867-.283-4.277-.283-8.765.089-16.445 3.35-19.273 14.9l-.007-.006zm198.799-54.405c1.839.006 5.011-.861 9.965-4.4 5.184-3.705 8.357-8.227 10.342-12.816 2.343-5.428 2.943-10.945 2.943-15.15 0-2.167-.16-3.983-.319-5.244a27.755 27.755 0 0 0-.211-1.412c-2.177-.883-11.178-4.566-23.971-10.244l1.155 25.6c.077.366.671 3.289.671 7.633.006 4.228-.626 9.772-2.899 15.328l.211.172c.377.244 1.015.533 2.12.533h-.007zm-173.289 37.933c11.153 1.695 21.265 6.978 21.482 7.089 12.601 5.628 21.724 9.4 25.043 10.755l-1.123-25.049a77.831 77.831 0 0 0-6.543-2.85c-4.271-1.645-10.004-3.434-15.756-4.05l.026-.267-.026.267a37.024 37.024 0 0 0-3.983-.223c-8.612.084-16.164 3.262-19.12 14.334v-.006z" stroke="#FEF9F0" stroke-width="2" stroke-miterlimit="10"/><path d="M241.679 278.146c1.839.006 5.011-.861 9.965-4.4 11.261-8.038 13.291-20.094 13.304-27.872 0-2.188-.166-4.027-.326-5.311a21.533 21.533 0 0 0-.217-1.438c-2.183-.884-11.229-4.589-24.092-10.3l1.155 25.66c.071.339.671 3.273.671 7.65 0 4.206-.613 9.717-2.86 15.239l.281.233c.376.245 1.015.534 2.119.534v.005zm-92.202 63.861c13.834-9.834 15.417-28.117 15.405-35.544 0-1.417-.045-2.223-.077-2.695a96.921 96.921 0 0 0-3.715-2.322 129.433 129.433 0 0 0-10.993-5.844c-2.688-1.267-5.695-2.517-8.829-3.706l.044.4c.071.756.166 1.845.262 3.222.185 2.745.358 6.611.358 11.122-.007 11.356-1.169 26.689-6.263 38.511.658.433 1.711.972 3.607.972 2.298 0 5.656-.866 10.214-4.116h-.013z" stroke="#FEF9F0" stroke-width="2" stroke-miterlimit="10"/><path d="M216.852 294.413c1.839.005 5.012-.861 9.965-4.4 11.262-8.039 13.285-20.089 13.298-27.866 0-2.195-.166-4.028-.326-5.312a21.533 21.533 0 0 0-.217-1.438c-2.17-.878-11.178-4.567-23.977-10.245l1.155 25.6c.077.367.67 3.289.67 7.639.007 4.227-.625 9.772-2.898 15.322l.211.172c.377.244 1.015.533 2.119.533v-.005z" stroke="#FEF9F0" stroke-width="2" stroke-miterlimit="10"/><path d="M192.134 310.646c1.839.005 5.012-.861 9.965-4.4 11.261-8.039 13.291-20.089 13.304-27.866 0-2.195-.166-4.028-.325-5.311-.077-.628-.16-1.106-.217-1.445-2.171-.878-11.14-4.55-23.889-10.205l1.156 25.688c.07.334.677 3.273.677 7.65 0 4.217-.62 9.745-2.88 15.283l.096.078c.377.245 1.015.533 2.12.533l-.007-.005z" stroke="#FEF9F0" stroke-width="2" stroke-miterlimit="10"/><path d="M165.558 327.518c2.381 0 6.295-.889 11.913-4.894 11.261-8.039 13.291-20.095 13.303-27.872 0-2.189-.166-4.028-.325-5.311-.077-.628-.16-1.106-.217-1.439-2.209-.895-11.459-4.678-24.584-10.517l1.149 25.628c.006.094.115 1.3.115 3.344 0 4.395-.594 12.528-3.805 20.667l.057.022c.498.178 1.284.372 2.401.372h-.007zm126.515-81.399c1.838.005 5.011-.861 9.965-4.4 11.261-8.039 13.291-20.094 13.304-27.872 0-2.189-.166-4.028-.326-5.311a26.34 26.34 0 0 0-.217-1.439c-2.183-.883-11.235-4.589-24.092-10.3l1.155 25.661c.07.339.671 3.272.671 7.65 0 4.205-.613 9.717-2.86 15.239l.274.233c.377.244 1.015.533 2.12.533l.006.006zM3.639 435.511l99.971-64.86 11.733-7.745.064-.166v-.017h.013l.064-.067.051-.044.032-.022.019-.017.025-.017h.013v-.005h.013l.019-.017.038-.028.326-.205 1.398-.9a5222.07 5222.07 0 0 1 6.505-4.183c4.13-2.656 7.233-6.917 9.576-12.056 4.232-9.244 5.758-21.233 6.198-31.599a21.77 21.77 0 0 0-.995-.562 34.702 34.702 0 0 0-3.773-1.722c-3.237-1.255-7.808-2.511-13.113-2.511-1.142 0-2.342.117-3.543.245.128 1.183.3 3.238.294 5.894-.013 8.011-1.532 21.055-11.37 27.355-9.799 6.211-15.053 8.245-15.634 8.461L-8.1 415.395m1171.81-216.914c0-2.461.2-4.434.38-5.795-3.24 1.306-10.94 4.161-20.93 6.167 1.96 4.411 4.95 8.4 9.52 11.655 4.58 3.272 7.95 4.139 10.27 4.145 1.87 0 2.91-.528 3.59-.961-2.2-5.528-2.83-11.006-2.83-15.206v-.005zm126.07 73.643l1.16-25.744c-12.89 5.717-21.94 9.428-24.13 10.311-.05.339-.14.822-.21 1.456a41.273 41.273 0 0 0-.34 5.338c.02 7.823 2.06 19.956 13.39 28.039 4.98 3.561 8.17 4.433 10.03 4.428 1.37-.011 2.04-.434 2.35-.711-2.29-5.589-2.92-11.167-2.92-15.428 0-4.406.61-7.361.68-7.694l-.01.005zm-100.54-64.899l1.16-25.755c-12.88 5.716-21.94 9.422-24.13 10.311-.05.333-.13.805-.21 1.427a42.383 42.383 0 0 0-.33 5.273c0 4.227.61 9.777 2.97 15.244 2 4.616 5.18 9.166 10.4 12.894 4.98 3.561 8.17 4.433 10.03 4.428 1.37-.011 2.04-.433 2.35-.711-2.29-5.589-2.93-11.167-2.93-15.428 0-4.383.61-7.322.69-7.683h0z" stroke="#FEF9F0" stroke-width="2" stroke-miterlimit="10"/><path d="M1264.91 255.802l1.16-25.833c-12.94 5.75-22.05 9.478-24.24 10.361-.06.339-.14.822-.22 1.456a41.598 41.598 0 0 0-.33 5.344c.01 7.822 2.05 19.95 13.38 28.039 4.98 3.561 8.18 4.433 10.03 4.427 1.47-.011 2.15-.5 2.43-.766-2.26-5.561-2.89-11.106-2.89-15.345 0-4.383.61-7.322.69-7.683h-.01z" stroke="#FEF9F0" stroke-width="2" stroke-miterlimit="10"/><path d="M1239.94 239.441l1.15-25.649c-13.35 5.933-22.74 9.783-24.97 10.683-.06.339-.14.822-.22 1.455a43.545 43.545 0 0 0-.33 5.345c.01 7.822 2.06 19.955 13.39 28.038 4.98 3.561 8.17 4.433 10.03 4.428 1.92-.017 2.5-.856 2.57-.928l.19.15.88.583c-2.64-5.911-3.38-11.899-3.38-16.41 0-4.384.61-7.334.69-7.689v-.006zm74.61 49.161l1.16-25.844c-12.84 5.694-21.86 9.388-24.04 10.272-.06.339-.14.822-.22 1.455a43.518 43.518 0 0 0-.33 5.339c.01 7.822 2.05 19.95 13.39 28.039 4.98 3.561 8.18 4.433 10.02 4.427 1.24-.011 1.88-.35 2.23-.622-2.27-5.566-2.9-11.122-2.9-15.366 0-4.406.61-7.367.68-7.7h.01zm201.41 129.032l-100.25-65.05c-.59-.222-5.88-2.266-15.73-8.511-9.9-6.333-11.43-19.455-11.44-27.516 0-2.694.17-4.733.3-5.933-1.21-.128-2.43-.245-3.58-.245-8.01 0-14.35 2.845-16.98 4.256-.48.255-.81.444-1.02.578.44 10.427 1.98 22.488 6.25 31.788 2.36 5.167 5.47 9.456 9.63 12.128 6.25 4.022 8.27 5.322 8.42 5.422l.15.133.07.156 11.81 7.8 100.55 65.243m-137.1-144.97l.66.355-.66-.355z" stroke="#FEF9F0" stroke-width="2" stroke-miterlimit="10"/><path d="M1365.03 308.252c0-7.339.46-12.861.67-14.85-8.52 3.227-15.71 7.094-19.94 9.622a91.381 91.381 0 0 0-3.74 2.339c-.04.472-.08 1.277-.08 2.711-.02 7.472 1.57 25.872 15.5 35.76 4.59 3.267 7.96 4.139 10.28 4.139 1.9 0 2.96-.544 3.63-.983-5.13-11.889-6.31-27.316-6.32-38.738v0zm1.41-15.123l-.38.378.38-.378zm-151.66-119.515l-.58.067c-10.15 1.117-19.49 5.733-21.7 6.85l-.03.022-1.13 25.205c3.34-1.361 12.53-5.161 25.23-10.833l.03.061c2.35-1.172 11.65-5.522 21.64-6.916-2.92-11.378-10.58-14.611-19.32-14.7-1.36 0-2.75.083-4.14.239v.005zm-148.99-28.283h.79-.79zm173.87 44.655c-5.75.65-11.46 2.445-15.71 4.089-3.17 1.222-5.51 2.339-6.5 2.833l-1.13 25.217c3.3-1.345 12.37-5.095 24.87-10.672v-.023l.53-.277c.06-.023 10.17-5.35 21.37-7.117-3.01-11.033-10.58-14.211-19.21-14.294-1.39 0-2.8.089-4.21.25l-.01-.006zm-74.28-24.699c-5.57 2.561-24.14 10.555-40.89 10.566-6.47 0-12.7-1.2-17.8-4.483-3.51-2.267-9.08-5.806-15.47-9.845l.41-.705-.41.705c-7.85-4.966-16.94-10.683-25.22-15.888-11.42-7.178-48.3-29.867-50.8-31.433m151.86 50.288s-.61.306-1.67.795" stroke="#FEF9F0" stroke-width="2" stroke-miterlimit="10"/><path d="M1165.39 191.003l-.37-.989s10.53-4.211 26.44-11.311c2.02-1.017 11.58-5.594 21.91-7.005-2.93-11.345-10.63-14.561-19.37-14.65-9.57-.011-19.98 4.177-24.53 6.277-1.52.7-2.39 1.15-2.39 1.156m-174.957-35.533c3.869 2.633 38.887 23.416 46.897 28.816l-1.26-.833 1.33.878c.16.111.31.211.48.322 7.58 5.117 16.16 10.861 24.33 16.261l1.91 1.256.05-.039-.05.039c8.72 5.755 16.84 11.022 22.43 14.438 10.78 6.589 22.88 8.811 34.27 8.811 17.07 0 32.47-4.994 39.07-7.494 2.2-.833 3.4-1.372 3.41-1.378m-21.24-21.161c0 .906-.06 1.561-.11 2.028 9.01-2.394 16.71-5.628 20.29-7.261-.1-2.767-.62-13.033-2.71-20.628l.98-.288-.98.288c-1.69-6.327-7.56-9.794-10.49-11.694-.97-.639-6.52-3.094-6.52-3.094l-22.67 12.966c15.34 9.483 22.24 22.417 22.21 27.689v-.006zm22.17-6.155c.1-.05.23-.111.25-.117.06-.017 10.84-5.755 22.5-7.278-1.41-7.516-8.28-14.155-16.85-14.138-2.67 0-5.51.722-8.42 2.177 1.81 7.211 2.37 15.906 2.52 19.356v0zm375.12 212.008l-99.85-64.86c-.03-.022-5.83-3.489-25.56-16.083-6.9-4.4-14.61-6.061-22.43-6.061-.9 0-1.81.022-2.71.067-7.86.366-15.66 2.366-22.7 4.872l.03.155h-.46c-.07.022-.14.05-.21.072l.64.139-.02.189-.09.828c-.07.733-.17 1.811-.26 3.172a169.1 169.1 0 0 0-.36 11.039c0 1.422.09 3.061.13 4.594 2.69-1.466 9.39-4.572 18.08-4.577 1.56 0 3.17.1 4.85.333 4.72.65 9.85 2.333 15.05 5.689 14.79 9.544 24.58 16.094 24.58 16.094l99.48 64.583M1340.19 254.73h0l.02.261h.01l-.03-.261zm.03.261c-5.79.622-11.55 2.428-15.85 4.078-3.21 1.233-5.58 2.366-6.58 2.866l-1.13 25.217c3.33-1.361 12.51-5.156 25.2-10.822.22-.106 10.39-5.422 21.62-7.128-2.98-11.15-10.58-14.35-19.24-14.433-1.33 0-2.67.083-4.01.228l-.01-.006zm50.25 32.239l.02.544-.02-.544z" stroke="#FEF9F0" stroke-width="2" stroke-miterlimit="10"/><path d="M1364.12 271.463l-.06-.222c-5.36.778-10.58 2.433-14.51 3.966a76.684 76.684 0 0 0-6.29 2.762l-1.12 24.827c5.73-3.644 25.91-15.566 46.98-17.016-2.85-11.628-10.58-14.911-19.4-15-1.41 0-2.84.122-4.27.283l-1.33.406v-.006zm-48.88-33h.15-.15zm-49.5-32.621l-1.95.588-.1-.366c-5.3.8-10.46 2.45-14.33 3.966-3.03 1.184-5.24 2.25-6.19 2.728l-1.13 25.217c3.34-1.362 12.52-5.161 25.23-10.834l.02.061c2.36-1.172 11.65-5.522 21.64-6.916-2.92-11.389-10.6-14.644-19.34-14.728-1.27 0-2.56.134-3.85.267v.017zm24.6 16.199l.01.167c-5.75.65-11.46 2.45-15.71 4.089-3.17 1.222-5.51 2.339-6.5 2.833l-1.13 25.217c3.32-1.356 12.42-5.117 25-10.728 2.05-1.033 11.6-5.589 21.89-7.006-2.92-11.338-10.58-14.572-19.3-14.655-1.41 0-2.83.089-4.24.25l-.02-.167v0zm-50.69-32.221l.01.166-.01-.166zm75.67 48.71c-10.14 1.117-20.05 5.794-22.28 6.917l-.03.016-1.13 25.206c3.33-1.361 12.53-5.161 25.23-10.834l.03.073c2.62-1.289 11.81-5.511 21.67-6.839-2.89-11.45-10.57-14.7-19.34-14.789-1.37 0-2.76.089-4.15.239v.011z" stroke="#FEF9F0" stroke-width="2" stroke-miterlimit="10"/><path d="M1340.03 304.707l1.15-25.788c-13.21 5.877-22.52 9.683-24.74 10.583-.06.339-.14.822-.22 1.455a43.545 43.545 0 0 0-.33 5.345c.01 7.822 2.05 19.949 13.39 28.038 5.65 4.034 9.58 4.928 11.98 4.928 1.27 0 1.99-.222 2.47-.417-3.22-8.183-3.81-16.361-3.82-20.777 0-2.056.11-3.267.13-3.367h-.01zm-125.81-81.121l1.16-25.833c-12.95 5.744-22.06 9.477-24.24 10.361-.06.339-.14.822-.22 1.455a43.518 43.518 0 0 0-.33 5.339c.01 7.822 2.06 19.955 13.39 28.039 4.98 3.561 8.17 4.433 10.03 4.427 1.46-.011 2.14-.5 2.41-.766-2.25-5.561-2.89-11.106-2.88-15.339 0-4.383.61-7.328.68-7.683v0zm-359.284-96.855l48.538-30.596h-97.421l48.883 30.596zM605 95.768c9.305 5.917 26.855 16.454 48.714 29.664l47.009-29.307L605 95.771v-.003zm151.23-30.699l46.819 29.208 51.938-29.208H756.23zM702.807 34l50.464 29.211L804.853 34H702.807zm1.265 60.475l46.895-29.406h-98.676l51.781 29.406zm96.571 1.28h-94.521l47.262 29.562 47.259-29.562z" stroke="#FEF9F0" stroke-width="2" stroke-miterlimit="10"/><path d="M624.457 100.91c5.454 3.466 15.735 9.639 28.542 17.379l27.541-17.172-56.083-.207z" stroke="#FEF9F0" stroke-width="2" stroke-miterlimit="10"/><path d="M643.848 105.8c1.772 1.126 5.117 3.134 9.28 5.649l8.952-5.582-18.235-.067h.003zm81.002-4.89c5.453 3.466 15.734 9.639 28.542 17.379l27.54-17.172-56.082-.207v0z" stroke="#FEF9F0" stroke-width="2" stroke-miterlimit="10"/><path d="M744.241 105.8c1.771 1.126 5.116 3.134 9.279 5.649l8.953-5.582-18.236-.067h.004zm-19.366-66.83c5.454 3.466 15.735 9.639 28.542 17.379l27.541-17.172-56.083-.207z" stroke="#FEF9F0" stroke-width="2" stroke-miterlimit="10"/><path d="M744.266 43.86c1.772 1.126 5.117 3.134 9.28 5.649l8.953-5.583-18.236-.067h.003zm-69.092 26.43c5.454 3.467 15.735 9.64 28.542 17.38l27.541-17.172-56.083-.207z" stroke="#FEF9F0" stroke-width="2" stroke-miterlimit="10"/><path d="M694.565 75.18c1.772 1.127 5.117 3.135 9.28 5.65l8.953-5.582-18.236-.067h.003zm81.423-4.89c5.454 3.467 15.735 9.64 28.542 17.38l27.541-17.172-56.083-.207z" stroke="#FEF9F0" stroke-width="2" stroke-miterlimit="10"/><path d="M795.376 75.18c1.771 1.127 5.116 3.135 9.279 5.65l8.953-5.582-18.236-.067h.004zm30.981 26.11c5.454 3.466 15.734 9.639 28.542 17.379l27.541-17.172-56.083-.207z" stroke="#FEF9F0" stroke-width="2" stroke-miterlimit="10"/><path d="M845.748 106.179c1.772 1.127 5.117 3.135 9.28 5.65l8.952-5.583-18.235-.067h.003zM788.677 1.41a45.964 45.964 0 0 0 5.624 4.69l.172.116 55.859 33.439 89.731 56.538 23.978 15.089.472.3.064.039 3.039 1.911 24.507 15.416m23.077-14.739l-23.313-14.81-25.976-16.5L836.096.439m17.696-18.356L1094.81 126.62l26.73 14.556M869.917-35.978c4.648 3.722 245.103 150.476 245.103 150.476l30.31 12.828m-788.934 1.378l26.749-14.206s240.453-146.754 245.1-150.476M378.81 141.681l30.176-13.894L637.259-12.611" stroke="#FEF9F0" stroke-width="2" stroke-miterlimit="10"/></svg>