<svg id="Layer_1" data-name="Layer 1" xmlns="http://www.w3.org/2000/svg" viewBox="0 0 104.79 511.19"><defs><style>.cls-1{fill:none;stroke:#000;stroke-miterlimit:10;stroke-width:.5px}</style></defs><path class="cls-1" d="M22.07 203.58h4.16v-25.14a5 5 0 0 1-4.05 2.83zM9.92 255.35h4.23v.2l-.01-.02h.01v-1.59H9.92v1.41z"/><path class="cls-1" d="M9.92 255.35h4.24v1.45H9.92zm12.14-48.74L22 225.05a2.49 2.49 0 0 1-.54 1.56 3.58 3.58 0 0 1-2.95 1.09h-4a4 4 0 0 0-3.8 2.66 10.61 10.61 0 0 0-.76 3.88v19.7h4.23v-19.18a2.53 2.53 0 0 1 .54-1.56 3.56 3.56 0 0 1 3-1.08h4a4 4 0 0 0 3.79-2.66 11 11 0 0 0 .77-3.9v-18.95zm0-1.59h4.17v1.58h-4.17zm.01-1.44h4.16v1.44h-4.16zm-7.92 53.23H9.92v25.09c1.17-1.56 2.39-2.82 4.23-2.89zm7.92-106.54h4.16v-25.15a5 5 0 0 1-4.05 2.88zM9.92 202.04h4.23v.19l-.01-.01.01-.01v-1.58H9.92v1.41z"/><path class="cls-1" d="M9.92 202.04h4.24v1.45H9.92zm12.14-48.75L22 171.74a2.48 2.48 0 0 1-.54 1.55 3.55 3.55 0 0 1-2.95 1.09h-4a4 4 0 0 0-3.8 2.66 10.65 10.65 0 0 0-.76 3.88v19.71h4.23v-19.19a2.48 2.48 0 0 1 .54-1.55 3.53 3.53 0 0 1 3-1.09h4a3.94 3.94 0 0 0 3.79-2.66 11 11 0 0 0 .77-3.89v-19z"/><path class="cls-1" d="M22.06 151.71h4.17v1.58h-4.17zm.01-1.44h4.16v1.44h-4.16zm-7.92 53.22H9.92v25.09c1.17-1.55 2.39-2.82 4.23-2.88zm7.92-106.87h4.16V71.47a5 5 0 0 1-4.05 2.83zM9.92 148.39h4.23v.19l-.01-.01.01-.01v-1.58H9.92v1.41z"/><path class="cls-1" d="M9.92 148.39h4.24v1.45H9.92zm12.14-48.75L22 118.09a2.48 2.48 0 0 1-.54 1.55 3.55 3.55 0 0 1-2.95 1.09h-4a4 4 0 0 0-3.8 2.66 10.66 10.66 0 0 0-.76 3.89V147h4.23v-19.21a2.48 2.48 0 0 1 .54-1.55 3.53 3.53 0 0 1 3-1.09h4a3.94 3.94 0 0 0 3.79-2.66 11 11 0 0 0 .77-3.89v-19z"/><path class="cls-1" d="M22.06 98.06h4.17v1.58h-4.17zm.01-1.44h4.16v1.44h-4.16zm-7.92 53.22H9.92v25.09c1.17-1.55 2.39-2.82 4.23-2.88zM22.07 43.3h4.16V18.16A5 5 0 0 1 22.18 21zM9.92 95.07h4.23v.19l-.01-.01.01-.01v-1.58H9.92v1.41z"/><path class="cls-1" d="M9.92 95.07h4.24v1.45H9.92zm12.14-48.75L22 64.77a2.48 2.48 0 0 1-.54 1.55 3.55 3.55 0 0 1-2.95 1.09h-4a4 4 0 0 0-3.8 2.66A10.66 10.66 0 0 0 9.92 74v19.7h4.23V74.48a2.49 2.49 0 0 1 .54-1.56 3.56 3.56 0 0 1 3-1.09h4a3.94 3.94 0 0 0 3.79-2.66 11 11 0 0 0 .77-3.89v-19z"/><path class="cls-1" d="M22.06 44.74h4.17v1.58h-4.17zm.01-1.44h4.16v1.44h-4.16zm-7.92 53.22H9.92v25.09c1.17-1.55 2.39-2.82 4.23-2.88zm7.92 320.05h4.16v-25.14a5 5 0 0 1-4.05 2.82zM9.92 468.34h4.23v.19l-.01-.01.01-.01v-1.58H9.92v1.41z"/><path class="cls-1" d="M9.92 468.34h4.24v1.45H9.92zm12.14-48.75L22 438a2.48 2.48 0 0 1-.54 1.55 3.55 3.55 0 0 1-2.95 1.09h-4a4 4 0 0 0-3.8 2.66 10.66 10.66 0 0 0-.76 3.89v19.7h4.23v-19.14a2.49 2.49 0 0 1 .54-1.56 3.56 3.56 0 0 1 3-1.09h4a3.94 3.94 0 0 0 3.79-2.66 11 11 0 0 0 .77-3.89v-19z"/><path class="cls-1" d="M22.06 418.01h4.17v1.58h-4.17zm.01-1.44h4.16v1.44h-4.16zm-7.92 53.22H9.92v25.09c1.17-1.55 2.39-2.82 4.23-2.88zm7.92-106.54h4.16v-25.14a5 5 0 0 1-4.05 2.82zM9.92 415.02h4.23v.2l-.01-.02.01-.01v-1.58H9.92v1.41z"/><path class="cls-1" d="M9.92 415.02h4.24v1.45H9.92zm12.14-48.74L22 384.72a2.51 2.51 0 0 1-.54 1.56 3.55 3.55 0 0 1-2.95 1.08h-4a4 4 0 0 0-3.8 2.66 10.7 10.7 0 0 0-.76 3.89v19.7h4.23v-19.18a2.49 2.49 0 0 1 .54-1.56 3.53 3.53 0 0 1 3-1.08h4a4 4 0 0 0 3.79-2.66 11.05 11.05 0 0 0 .77-3.9v-19z"/><path class="cls-1" d="M22.06 364.69h4.17v1.58h-4.17zm.01-1.44h4.16v1.44h-4.16zm-7.92 53.23H9.92v25.08c1.17-1.55 2.39-2.82 4.23-2.88zm7.92-106.88h4.16v-25.14a5 5 0 0 1-4.05 2.82zM9.92 361.37h4.23v.2l-.01-.02h.01v-1.59H9.92v1.41z"/><path class="cls-1" d="M9.92 361.37h4.24v1.45H9.92zm12.14-48.74L22 331.07a2.49 2.49 0 0 1-.54 1.56 3.55 3.55 0 0 1-2.95 1.08h-4a4 4 0 0 0-3.8 2.66 10.7 10.7 0 0 0-.76 3.89V360h4.23v-19.22a2.49 2.49 0 0 1 .54-1.56 3.53 3.53 0 0 1 3-1.08h4a4 4 0 0 0 3.79-2.66 11.05 11.05 0 0 0 .77-3.9v-18.95zm0-1.59h4.17v1.58h-4.17zm.01-1.44h4.16v1.44h-4.16zm-7.92 53.23H9.92v25.08c1.17-1.55 2.39-2.82 4.23-2.88zm7.92-106.55h4.16v-25.14a5 5 0 0 1-4.05 2.86zM9.92 308.05h4.23v.2l-.01-.02h.01v-1.59H9.92v1.41z"/><path class="cls-1" d="M9.92 308.05h4.24v1.45H9.92zm12.14-48.74L22 277.75a2.49 2.49 0 0 1-.54 1.56 3.58 3.58 0 0 1-2.95 1.09h-4a4 4 0 0 0-3.8 2.66 10.61 10.61 0 0 0-.76 3.88v19.7h4.23v-19.18a2.48 2.48 0 0 1 .54-1.55 3.53 3.53 0 0 1 3-1.09h4a4 4 0 0 0 3.79-2.66 11 11 0 0 0 .77-3.9v-18.95zm0-1.58h4.17v1.58h-4.17zm.01-1.45h4.16v1.44h-4.16zm-7.92 53.23H9.92v25.09c1.17-1.56 2.39-2.82 4.23-2.89zm21.34-105.93h-4.15v-25.14a5 5 0 0 0 4.05 2.83zm12.16 51.77h-4.24v.2l.01-.02h-.01v-1.59h4.24v1.41z"/><path class="cls-1" d="M43.41 255.35h4.24v1.45h-4.24zm-7.9-48.74l.06 18.44a2.49 2.49 0 0 0 .54 1.56 3.58 3.58 0 0 0 3 1.09h4a4 4 0 0 1 3.8 2.66 10.61 10.61 0 0 1 .76 3.88v19.7h-4.26v-19.18a2.53 2.53 0 0 0-.54-1.56 3.58 3.58 0 0 0-3-1.08h-4a4 4 0 0 1-3.79-2.66 10.79 10.79 0 0 1-.77-3.9v-18.95zm-4.17-1.59h4.17v1.58h-4.17zm0-1.44h4.16v1.44h-4.16zm12.07 53.23h4.24v25.09c-1.17-1.56-2.39-2.82-4.24-2.89zm-7.92-106.54h-4.15v-25.15a5 5 0 0 0 4.05 2.88zm12.16 51.77h-4.24v.19l.01-.01-.01-.01v-1.58h4.24v1.41z"/><path class="cls-1" d="M43.41 202.04h4.24v1.45h-4.24zm-7.9-48.75l.06 18.45a2.48 2.48 0 0 0 .54 1.55 3.55 3.55 0 0 0 3 1.09h4a4 4 0 0 1 3.8 2.66 10.65 10.65 0 0 1 .76 3.88v19.71h-4.26v-19.19a2.48 2.48 0 0 0-.54-1.55 3.55 3.55 0 0 0-3-1.09h-4a3.94 3.94 0 0 1-3.79-2.66 10.75 10.75 0 0 1-.77-3.89v-19z"/><path class="cls-1" d="M31.34 151.71h4.17v1.58h-4.17zm0-1.44h4.16v1.44h-4.16zm12.07 53.22h4.24v25.09c-1.17-1.55-2.39-2.82-4.24-2.88zM35.49 96.62h-4.15V71.47a5 5 0 0 0 4.05 2.83zm12.16 51.77h-4.24v.19l.01-.01-.01-.01v-1.58h4.24v1.41z"/><path class="cls-1" d="M43.41 148.39h4.24v1.45h-4.24zm-7.9-48.75l.06 18.45a2.48 2.48 0 0 0 .54 1.55 3.55 3.55 0 0 0 3 1.09h4a4 4 0 0 1 3.8 2.66 10.66 10.66 0 0 1 .76 3.89V147h-4.26v-19.21a2.48 2.48 0 0 0-.54-1.55 3.55 3.55 0 0 0-3-1.09h-4a3.94 3.94 0 0 1-3.79-2.66 10.75 10.75 0 0 1-.77-3.89v-19z"/><path class="cls-1" d="M31.34 98.06h4.17v1.58h-4.17zm0-1.44h4.16v1.44h-4.16zm12.07 53.22h4.24v25.09c-1.17-1.55-2.39-2.82-4.24-2.88zM35.49 43.3h-4.15V18.16A5 5 0 0 0 35.39 21zm12.16 51.77h-4.24v.19l.01-.01-.01-.01v-1.58h4.24v1.41z"/><path class="cls-1" d="M43.41 95.07h4.24v1.45h-4.24zm-7.9-48.75l.06 18.45a2.48 2.48 0 0 0 .54 1.55 3.55 3.55 0 0 0 3 1.09h4a4 4 0 0 1 3.8 2.66 10.66 10.66 0 0 1 .74 3.93v19.7h-4.24V74.48a2.49 2.49 0 0 0-.54-1.56 3.58 3.58 0 0 0-3-1.09h-4a3.94 3.94 0 0 1-3.79-2.66 10.75 10.75 0 0 1-.77-3.89v-19z"/><path class="cls-1" d="M31.34 44.74h4.17v1.58h-4.17zm0-1.44h4.16v1.44h-4.16zm12.07 53.22h4.24v25.09c-1.17-1.55-2.39-2.82-4.24-2.88zm-7.92 320.05h-4.15v-25.14a5 5 0 0 0 4.05 2.82zm12.16 51.77h-4.24v.19l.01-.01-.01-.01v-1.58h4.24v1.41z"/><path class="cls-1" d="M43.41 468.34h4.24v1.45h-4.24zm-7.9-48.75l.06 18.41a2.48 2.48 0 0 0 .54 1.55 3.55 3.55 0 0 0 3 1.09h4a4 4 0 0 1 3.8 2.66 10.66 10.66 0 0 1 .76 3.89v19.7h-4.26v-19.14a2.49 2.49 0 0 0-.54-1.56 3.58 3.58 0 0 0-3-1.09h-4a3.94 3.94 0 0 1-3.79-2.66 10.75 10.75 0 0 1-.77-3.89v-19z"/><path class="cls-1" d="M31.34 418.01h4.17v1.58h-4.17zm0-1.44h4.16v1.44h-4.16zm12.07 53.22h4.24v25.09c-1.17-1.55-2.39-2.82-4.24-2.88zm-7.92-106.54h-4.15v-25.14a5 5 0 0 0 4.05 2.82zm12.16 51.77h-4.24v.2l.01-.02-.01-.01v-1.58h4.24v1.41z"/><path class="cls-1" d="M43.41 415.02h4.24v1.45h-4.24zm-7.9-48.74l.06 18.44a2.51 2.51 0 0 0 .54 1.56 3.55 3.55 0 0 0 3 1.08h4a4 4 0 0 1 3.8 2.66 10.7 10.7 0 0 1 .76 3.89v19.7h-4.26v-19.18a2.49 2.49 0 0 0-.54-1.56 3.55 3.55 0 0 0-3-1.08h-4a4 4 0 0 1-3.79-2.66 10.83 10.83 0 0 1-.77-3.9v-19z"/><path class="cls-1" d="M31.34 364.69h4.17v1.58h-4.17zm0-1.44h4.16v1.44h-4.16zm12.07 53.23h4.24v25.08c-1.17-1.55-2.39-2.82-4.24-2.88zM35.49 309.6h-4.15v-25.14a5 5 0 0 0 4.05 2.82zm12.16 51.77h-4.24v.2l.01-.02h-.01v-1.59h4.24v1.41z"/><path class="cls-1" d="M43.41 361.37h4.24v1.45h-4.24zm-7.9-48.74l.06 18.44a2.49 2.49 0 0 0 .54 1.56 3.55 3.55 0 0 0 3 1.08h4a4 4 0 0 1 3.8 2.66 10.7 10.7 0 0 1 .76 3.89V360h-4.26v-19.22a2.49 2.49 0 0 0-.54-1.56 3.55 3.55 0 0 0-3-1.08h-4a4 4 0 0 1-3.79-2.66 10.83 10.83 0 0 1-.77-3.9v-18.95zm-4.17-1.59h4.17v1.58h-4.17zm0-1.44h4.16v1.44h-4.16zm12.07 53.23h4.24v25.08c-1.17-1.55-2.39-2.82-4.24-2.88zm-7.92-106.55h-4.15v-25.14a5 5 0 0 0 4.05 2.86zm12.16 51.77h-4.24v.2l.01-.02h-.01v-1.59h4.24v1.41z"/><path class="cls-1" d="M43.41 308.05h4.24v1.45h-4.24zm-7.9-48.74l.06 18.44a2.49 2.49 0 0 0 .54 1.56 3.58 3.58 0 0 0 3 1.09h4a4 4 0 0 1 3.8 2.66 10.61 10.61 0 0 1 .76 3.88v19.7h-4.26v-19.18a2.48 2.48 0 0 0-.54-1.55 3.55 3.55 0 0 0-3-1.09h-4a4 4 0 0 1-3.79-2.66 10.79 10.79 0 0 1-.77-3.9v-18.95zm-4.17-1.58h4.17v1.58h-4.17zm0-1.45h4.16v1.44h-4.16zm12.07 53.23h4.24v25.09c-1.17-1.56-2.39-2.82-4.24-2.89zm21.67-105.93h4.15v-25.14a5 5 0 0 1-4 2.83zm-12.16 51.77h4.24v.2l-.01-.02h.01v-1.59h-4.24v1.41z"/><path class="cls-1" d="M52.92 255.35h4.24v1.45h-4.24zm12.14-48.74L65 225.05a2.49 2.49 0 0 1-.54 1.56 3.58 3.58 0 0 1-2.95 1.09h-4a3.94 3.94 0 0 0-3.79 2.66 10.88 10.88 0 0 0-.77 3.88v19.7h4.24v-19.18a2.53 2.53 0 0 1 .54-1.56 3.58 3.58 0 0 1 3-1.08h4a4 4 0 0 0 3.8-2.66 10.74 10.74 0 0 0 .76-3.9v-18.95zm.01-1.59h4.17v1.58h-4.17zm.01-1.44h4.16v1.44h-4.16zm-7.92 53.23h-4.24v25.09c1.17-1.56 2.39-2.82 4.24-2.89zm7.92-106.54h4.15v-25.15a5 5 0 0 1-4 2.83zm-12.16 51.77h4.24v.19l-.01-.01.01-.01v-1.58h-4.24v1.41z"/><path class="cls-1" d="M52.92 202.04h4.24v1.45h-4.24zm12.14-48.75L65 171.74a2.48 2.48 0 0 1-.54 1.55 3.55 3.55 0 0 1-2.95 1.09h-4a3.94 3.94 0 0 0-3.82 2.62 10.92 10.92 0 0 0-.77 3.88v19.71h4.24v-19.15a2.48 2.48 0 0 1 .54-1.55 3.55 3.55 0 0 1 3-1.09h4a4 4 0 0 0 3.8-2.66 10.7 10.7 0 0 0 .76-3.89v-19z"/><path class="cls-1" d="M65.07 151.71h4.17v1.58h-4.17zm.01-1.44h4.16v1.44h-4.16zm-7.92 53.22h-4.24v25.09c1.17-1.55 2.39-2.82 4.24-2.88zm7.92-106.87h4.15V71.47a5 5 0 0 1-4 2.83zm-12.16 51.77h4.24v.19l-.01-.01.01-.01v-1.58h-4.24v1.41z"/><path class="cls-1" d="M52.92 148.39h4.24v1.45h-4.24zm12.14-48.75L65 118.09a2.48 2.48 0 0 1-.54 1.55 3.55 3.55 0 0 1-2.95 1.09h-4a3.94 3.94 0 0 0-3.79 2.66 10.93 10.93 0 0 0-.77 3.89V147h4.24v-19.21a2.48 2.48 0 0 1 .54-1.55 3.55 3.55 0 0 1 3-1.09h4a4 4 0 0 0 3.8-2.66 10.7 10.7 0 0 0 .76-3.89v-19z"/><path class="cls-1" d="M65.07 98.06h4.17v1.58h-4.17zm.01-1.44h4.16v1.44h-4.16zm-7.92 53.22h-4.24v25.09c1.17-1.55 2.39-2.82 4.24-2.88zM65.08 43.3h4.15V18.16a5 5 0 0 1-4 2.82zM52.92 95.07h4.24v.19l-.01-.01.01-.01v-1.58h-4.24v1.41z"/><path class="cls-1" d="M52.92 95.07h4.24v1.45h-4.24zm12.14-48.75L65 64.77a2.48 2.48 0 0 1-.54 1.55 3.55 3.55 0 0 1-2.95 1.09h-4a4 4 0 0 0-3.79 2.66 10.93 10.93 0 0 0-.8 3.93v19.7h4.24V74.48a2.49 2.49 0 0 1 .54-1.56 3.58 3.58 0 0 1 3-1.09h4a4 4 0 0 0 3.8-2.66 10.7 10.7 0 0 0 .76-3.89v-19z"/><path class="cls-1" d="M65.07 44.74h4.17v1.58h-4.17zm.01-1.44h4.16v1.44h-4.16zm-7.92 53.22h-4.24v25.09c1.17-1.55 2.39-2.82 4.24-2.88zm7.92 320.05h4.15v-25.14a5 5 0 0 1-4 2.82zm-12.16 51.77h4.24v.19l-.01-.01.01-.01v-1.58h-4.24v1.41z"/><path class="cls-1" d="M52.92 468.34h4.24v1.45h-4.24zm12.14-48.75L65 438a2.48 2.48 0 0 1-.54 1.55 3.55 3.55 0 0 1-2.95 1.09h-4a4 4 0 0 0-3.79 2.66 10.93 10.93 0 0 0-.77 3.89v19.7h4.24v-19.14a2.49 2.49 0 0 1 .54-1.56 3.58 3.58 0 0 1 3-1.09h4a4 4 0 0 0 3.8-2.66 10.7 10.7 0 0 0 .76-3.89v-19z"/><path class="cls-1" d="M65.07 418.01h4.17v1.58h-4.17zm.01-1.44h4.16v1.44h-4.16zm-7.92 53.22h-4.24v25.09c1.17-1.55 2.39-2.82 4.24-2.88zm7.92-106.54h4.15v-25.14a5 5 0 0 1-4 2.82zm-12.16 51.77h4.24v.2l-.01-.02.01-.01v-1.58h-4.24v1.41z"/><path class="cls-1" d="M52.92 415.02h4.24v1.45h-4.24zm12.14-48.74L65 384.72a2.51 2.51 0 0 1-.54 1.56 3.55 3.55 0 0 1-2.95 1.08h-4a4 4 0 0 0-3.82 2.64 11 11 0 0 0-.77 3.89v19.7h4.24v-19.16a2.49 2.49 0 0 1 .54-1.56 3.55 3.55 0 0 1 3-1.08h4a4 4 0 0 0 3.8-2.66 10.78 10.78 0 0 0 .76-3.9v-19z"/><path class="cls-1" d="M65.07 364.69h4.17v1.58h-4.17zm.01-1.44h4.16v1.44h-4.16zm-7.92 53.23h-4.24v25.08c1.17-1.55 2.39-2.82 4.24-2.88zm7.92-106.88h4.15v-25.14a5 5 0 0 1-4 2.82zm-12.16 51.77h4.24v.2l-.01-.02h.01v-1.59h-4.24v1.41z"/><path class="cls-1" d="M52.92 361.37h4.24v1.45h-4.24zm12.14-48.74L65 331.07a2.49 2.49 0 0 1-.54 1.56 3.55 3.55 0 0 1-2.95 1.08h-4a4 4 0 0 0-3.79 2.66 11 11 0 0 0-.77 3.89V360h4.24v-19.22a2.49 2.49 0 0 1 .54-1.56 3.55 3.55 0 0 1 3-1.08h4a4 4 0 0 0 3.8-2.66 10.78 10.78 0 0 0 .76-3.9v-18.95zm.01-1.59h4.17v1.58h-4.17zm.01-1.44h4.16v1.44h-4.16zm-7.92 53.23h-4.24v25.08c1.17-1.55 2.39-2.82 4.24-2.88zm7.92-106.55h4.15v-25.14a5 5 0 0 1-4 2.83zm-12.16 51.77h4.24v.2l-.01-.02h.01v-1.59h-4.24v1.41z"/><path class="cls-1" d="M52.92 308.05h4.24v1.45h-4.24zm12.14-48.74L65 277.75a2.49 2.49 0 0 1-.54 1.56 3.58 3.58 0 0 1-2.95 1.09h-4a3.94 3.94 0 0 0-3.79 2.66 10.88 10.88 0 0 0-.77 3.88v19.7h4.24v-19.18a2.48 2.48 0 0 1 .54-1.55 3.55 3.55 0 0 1 3-1.09h4a4 4 0 0 0 3.8-2.66 10.74 10.74 0 0 0 .76-3.9v-18.95zm.01-1.58h4.17v1.58h-4.17zm.01-1.45h4.16v1.44h-4.16zm-7.92 53.23h-4.24v25.09c1.17-1.56 2.39-2.82 4.24-2.89zM78.5 203.58h-4.16v-25.14a5 5 0 0 0 4 2.83zm12.16 51.77h-4.24v.2l.01-.02h-.01v-1.59h4.24v1.41z"/><path class="cls-1" d="M86.42 255.35h4.24v1.45h-4.24zm-7.91-48.74l.07 18.44a2.49 2.49 0 0 0 .54 1.56 3.56 3.56 0 0 0 2.95 1.09h4a4 4 0 0 1 3.79 2.66 10.88 10.88 0 0 1 .77 3.88v19.7h-4.21v-19.18a2.53 2.53 0 0 0-.54-1.56 3.59 3.59 0 0 0-3-1.08h-4a4 4 0 0 1-3.8-2.66 11 11 0 0 1-.77-3.9v-18.95zm-4.17-1.59h4.17v1.58h-4.17zm0-1.44h4.16v1.44h-4.16zm12.08 53.23h4.24v25.09c-1.18-1.56-2.39-2.82-4.24-2.89zM78.5 150.27h-4.16v-25.15a5 5 0 0 0 4 2.83zm12.16 51.77h-4.24v.19l.01-.01-.01-.01v-1.58h4.24v1.41z"/><path class="cls-1" d="M86.42 202.04h4.24v1.45h-4.24zm-7.91-48.75l.07 18.45a2.48 2.48 0 0 0 .54 1.55 3.53 3.53 0 0 0 2.95 1.09h4a4 4 0 0 1 3.82 2.62 10.92 10.92 0 0 1 .77 3.88v19.71h-4.24v-19.15a2.48 2.48 0 0 0-.54-1.55 3.56 3.56 0 0 0-3-1.09h-4a4 4 0 0 1-3.8-2.66 11 11 0 0 1-.77-3.89v-19z"/><path class="cls-1" d="M74.34 151.71h4.17v1.58h-4.17zm0-1.44h4.16v1.44h-4.16zm12.08 53.22h4.24v25.09c-1.18-1.55-2.39-2.82-4.24-2.88zM78.5 96.62h-4.16V71.47a5 5 0 0 0 4 2.83zm12.16 51.77h-4.24v.19l.01-.01-.01-.01v-1.58h4.24v1.41z"/><path class="cls-1" d="M86.42 148.39h4.24v1.45h-4.24zm-7.91-48.75l.07 18.45a2.48 2.48 0 0 0 .54 1.55 3.53 3.53 0 0 0 2.95 1.09h4a4 4 0 0 1 3.79 2.66 10.93 10.93 0 0 1 .77 3.89V147h-4.21v-19.21a2.48 2.48 0 0 0-.54-1.55 3.56 3.56 0 0 0-3-1.09h-4a4 4 0 0 1-3.8-2.66 11 11 0 0 1-.77-3.89v-19z"/><path class="cls-1" d="M74.34 98.06h4.17v1.58h-4.17zm0-1.44h4.16v1.44h-4.16zm12.08 53.22h4.24v25.09c-1.18-1.55-2.39-2.82-4.24-2.88zM78.5 43.3h-4.16V18.16a5 5 0 0 0 4 2.82zm12.16 51.77h-4.24v.19l.01-.01-.01-.01v-1.58h4.24v1.41z"/><path class="cls-1" d="M86.42 95.07h4.24v1.45h-4.24zm-7.91-48.75l.07 18.45a2.48 2.48 0 0 0 .54 1.55 3.53 3.53 0 0 0 2.95 1.09h4a4 4 0 0 1 3.79 2.66 10.93 10.93 0 0 1 .8 3.93v19.7h-4.24V74.48a2.49 2.49 0 0 0-.54-1.56 3.59 3.59 0 0 0-3-1.09h-4a4 4 0 0 1-3.8-2.66 11 11 0 0 1-.77-3.89v-19z"/><path class="cls-1" d="M74.34 44.74h4.17v1.58h-4.17zm0-1.44h4.16v1.44h-4.16zm12.08 53.22h4.24v25.09c-1.18-1.55-2.39-2.82-4.24-2.88zM78.5 416.57h-4.16v-25.14a5 5 0 0 0 4 2.82zm12.16 51.77h-4.24v.19l.01-.01-.01-.01v-1.58h4.24v1.41z"/><path class="cls-1" d="M86.42 468.34h4.24v1.45h-4.24zm-7.91-48.75l.07 18.41a2.48 2.48 0 0 0 .54 1.55 3.53 3.53 0 0 0 2.95 1.09h4a4 4 0 0 1 3.79 2.66 10.93 10.93 0 0 1 .77 3.89v19.7h-4.21v-19.14a2.49 2.49 0 0 0-.54-1.56 3.59 3.59 0 0 0-3-1.09h-4a4 4 0 0 1-3.8-2.66 11 11 0 0 1-.77-3.89v-19z"/><path class="cls-1" d="M74.34 418.01h4.17v1.58h-4.17zm0-1.44h4.16v1.44h-4.16zm12.08 53.22h4.24v25.09c-1.18-1.55-2.39-2.82-4.24-2.88zM78.5 363.25h-4.16v-25.14a5 5 0 0 0 4 2.82zm12.16 51.77h-4.24v.2l.01-.02-.01-.01v-1.58h4.24v1.41z"/><path class="cls-1" d="M86.42 415.02h4.24v1.45h-4.24zm-7.91-48.74l.07 18.44a2.51 2.51 0 0 0 .54 1.56 3.53 3.53 0 0 0 2.95 1.08h4a4 4 0 0 1 3.82 2.64 11 11 0 0 1 .77 3.89v19.7h-4.24v-19.16a2.49 2.49 0 0 0-.54-1.56 3.56 3.56 0 0 0-3-1.08h-4a4 4 0 0 1-3.8-2.66 11.05 11.05 0 0 1-.77-3.9v-19z"/><path class="cls-1" d="M74.34 364.69h4.17v1.58h-4.17zm0-1.44h4.16v1.44h-4.16zm12.08 53.23h4.24v25.08c-1.18-1.55-2.39-2.82-4.24-2.88zM78.5 309.6h-4.16v-25.14a5 5 0 0 0 4 2.82zm12.16 51.77h-4.24v.2l.01-.02h-.01v-1.59h4.24v1.41z"/><path class="cls-1" d="M86.42 361.37h4.24v1.45h-4.24zm-7.91-48.74l.07 18.44a2.49 2.49 0 0 0 .54 1.56 3.53 3.53 0 0 0 2.95 1.08h4a4 4 0 0 1 3.79 2.66 11 11 0 0 1 .77 3.89V360h-4.21v-19.22a2.49 2.49 0 0 0-.54-1.56 3.56 3.56 0 0 0-3-1.08h-4a4 4 0 0 1-3.8-2.66 11.05 11.05 0 0 1-.77-3.9v-18.95zm-4.17-1.59h4.17v1.58h-4.17zm0-1.44h4.16v1.44h-4.16zm12.08 53.23h4.24v25.08c-1.18-1.55-2.39-2.82-4.24-2.88zM78.5 256.28h-4.16v-25.14a5 5 0 0 0 4 2.83zm12.16 51.77h-4.24v.2l.01-.02h-.01v-1.59h4.24v1.41z"/><path class="cls-1" d="M86.42 308.05h4.24v1.45h-4.24zm-7.91-48.74l.07 18.44a2.49 2.49 0 0 0 .54 1.56 3.56 3.56 0 0 0 2.95 1.09h4a4 4 0 0 1 3.79 2.66 10.88 10.88 0 0 1 .77 3.88v19.7h-4.21v-19.18a2.48 2.48 0 0 0-.54-1.55 3.56 3.56 0 0 0-3-1.09h-4a4 4 0 0 1-3.8-2.66 11 11 0 0 1-.77-3.9v-18.95zm-4.17-1.58h4.17v1.58h-4.17zm0-1.45h4.16v1.44h-4.16zm12.08 53.23h4.24v25.09c-1.18-1.56-2.39-2.82-4.24-2.89z"/></svg>