<svg id="Layer_1" data-name="Layer 1" xmlns="http://www.w3.org/2000/svg" viewBox="0 0 110.45 503.03"><defs><style>.cls-1{fill:none;stroke:#fff;stroke-miterlimit:10;stroke-width:.5px}</style></defs><path class="cls-1" d="M28 435.27a8.78 8.78 0 0 1 5.45 5.64 8.92 8.92 0 0 1 .43 2.72 8.63 8.63 0 0 1-3.57 7 8.24 8.24 0 0 1-2.31 1.19 2.06 2.06 0 0 1-.59.09 1.9 1.9 0 0 1-1.82-1.33 2 2 0 0 1-.09-.58 1.91 1.91 0 0 1 1.32-1.82 4.59 4.59 0 0 0 1.27-.64 4.82 4.82 0 0 0 2-3.91 5 5 0 0 0-.24-1.56 5.19 5.19 0 0 0-.71-1.41 5 5 0 0 0-2.36-1.78 5.21 5.21 0 0 0-1.52-.26 5.3 5.3 0 0 0-1.4.22 11.36 11.36 0 0 0-3.05 1.54 11.57 11.57 0 0 0-4.81 9.39 12 12 0 0 0 .59 3.7 12.24 12.24 0 0 0 1.68 3.35c1.43 2 4 4.2 9.77 5.42m.87-3a19.64 19.64 0 0 1-4.21-1 8.82 8.82 0 0 1-4.21-3.16 9.09 9.09 0 0 1-1.24-2.47 9 9 0 0 1-.43-2.73 8.63 8.63 0 0 1 3.57-7 8.16 8.16 0 0 1 2.32-1.17 2 2 0 0 1 .58-.09 1.91 1.91 0 0 1 1.82 1.33 1.69 1.69 0 0 1 .1.58 1.91 1.91 0 0 1-1.33 1.82 4.4 4.4 0 0 0-1.26.64 4.8 4.8 0 0 0-2 3.91 5 5 0 0 0 .25 1.56 4.65 4.65 0 0 0 .7 1.41 5.43 5.43 0 0 0 2.32 2 5.17 5.17 0 0 0 1.64.27 4.78 4.78 0 0 0 1.42-.21 11.13 11.13 0 0 0 2.95-1.8 11.55 11.55 0 0 0 4.74-9.38 12.9 12.9 0 0 0-.39-3.84 11.64 11.64 0 0 0-1.56-3.36 9.65 9.65 0 0 0-5.88-4.31m23.03-2.14"/><path class="cls-1" d="M28 462.23a8.77 8.77 0 0 1 4.21 3.16 9 9 0 0 1 1.67 5.2 8.63 8.63 0 0 1-3.57 7 8.24 8.24 0 0 1-2.31 1.19 1.77 1.77 0 0 1-.59.09 1.91 1.91 0 0 1-1.82-1.32 2.06 2.06 0 0 1-.09-.59 1.91 1.91 0 0 1 1.32-1.82 4.63 4.63 0 0 0 3.18-4.55 5 5 0 0 0-.24-1.56 5.19 5.19 0 0 0-.71-1.41 4.88 4.88 0 0 0-2.36-1.77 4.57 4.57 0 0 0-2.92 0 11 11 0 0 0-3.05 1.53 11.57 11.57 0 0 0-4.72 9.35 12.27 12.27 0 0 0 2.27 7c1.43 2 4 4.2 9.77 5.42m.87-3a19.64 19.64 0 0 1-4.21-1 8.75 8.75 0 0 1-4.21-3.15 9 9 0 0 1-1.67-5.2 8.63 8.63 0 0 1 3.57-7 8.16 8.16 0 0 1 2.32-1.17 2 2 0 0 1 .58-.09 1.91 1.91 0 0 1 1.82 1.33 1.69 1.69 0 0 1 .1.58 1.91 1.91 0 0 1-1.33 1.82 4.4 4.4 0 0 0-1.26.64 4.81 4.81 0 0 0-2 3.91 5 5 0 0 0 .25 1.56 4.65 4.65 0 0 0 .7 1.41 5.36 5.36 0 0 0 2.32 2 4.91 4.91 0 0 0 1.64.27 4.48 4.48 0 0 0 1.42-.21 11.13 11.13 0 0 0 2.95-1.8 11.53 11.53 0 0 0 4.74-9.38 12.94 12.94 0 0 0-.39-3.84 11.76 11.76 0 0 0-1.56-3.36 9.65 9.65 0 0 0-5.88-4.31m7.81 12.18l15.19-14.32M28 381.35a8.69 8.69 0 0 1 4.21 3.15 9.1 9.1 0 0 1 1.67 5.2 8.66 8.66 0 0 1-3.57 7 8.49 8.49 0 0 1-2.31 1.19 1.78 1.78 0 0 1-.59.1 1.91 1.91 0 0 1-1.82-1.33 2 2 0 0 1-.09-.59 1.91 1.91 0 0 1 1.32-1.82 4.57 4.57 0 0 0 1.27-.63 4.84 4.84 0 0 0 2-3.92 5 5 0 0 0-.24-1.56 5.19 5.19 0 0 0-.71-1.41 5 5 0 0 0-2.43-1.73 4.57 4.57 0 0 0-2.92 0 11 11 0 0 0-3.05 1.53 11.57 11.57 0 0 0-4.74 9.31 12 12 0 0 0 .59 3.7 12.1 12.1 0 0 0 1.68 3.35c1.43 2 4 4.21 9.77 5.42m.87-3a19.64 19.64 0 0 1-4.21-1 8.75 8.75 0 0 1-4.21-3.16 9 9 0 0 1-1.67-5.2 8.64 8.64 0 0 1 3.57-7 8.43 8.43 0 0 1 2.32-1.17 2 2 0 0 1 .58-.09 1.91 1.91 0 0 1 1.82 1.31 1.7 1.7 0 0 1 .1.59 1.91 1.91 0 0 1-1.33 1.82 4.38 4.38 0 0 0-1.26.63 4.82 4.82 0 0 0-2 3.92 5.08 5.08 0 0 0 .25 1.56 4.89 4.89 0 0 0 .7 1.41 5.34 5.34 0 0 0 2.32 2 4.91 4.91 0 0 0 1.64.27A4.48 4.48 0 0 0 29 401a11.13 11.13 0 0 0 2.95-1.8 11.53 11.53 0 0 0 4.74-9.38 12.84 12.84 0 0 0-.39-3.83 11.7 11.7 0 0 0-1.56-3.37 9.65 9.65 0 0 0-5.88-4.31m7.81 12.18l15.19-14.32"/><path class="cls-1" d="M28 408.31a8.69 8.69 0 0 1 4.21 3.15 9.1 9.1 0 0 1 1.67 5.21 8.64 8.64 0 0 1-3.57 7 8.49 8.49 0 0 1-2.31 1.18 1.78 1.78 0 0 1-.59.1 1.91 1.91 0 0 1-1.82-1.33 2 2 0 0 1-.09-.59 1.91 1.91 0 0 1 1.32-1.82 4.57 4.57 0 0 0 1.27-.63 4.84 4.84 0 0 0 2-3.92 5.06 5.06 0 0 0-.24-1.56 5.19 5.19 0 0 0-.71-1.41 5 5 0 0 0-2.36-1.77 4.57 4.57 0 0 0-2.92 0 11 11 0 0 0-3.05 1.53A11.57 11.57 0 0 0 16 422.8a12 12 0 0 0 .59 3.7 12.1 12.1 0 0 0 1.68 3.35c1.43 2 4 4.21 9.77 5.42m.87-3a19.64 19.64 0 0 1-4.21-1 8.73 8.73 0 0 1-4.21-3.15 9.23 9.23 0 0 1-1.24-2.47 9 9 0 0 1-.43-2.73 8.66 8.66 0 0 1 3.57-7 8.41 8.41 0 0 1 2.32-1.16 1.69 1.69 0 0 1 .58-.1 1.91 1.91 0 0 1 1.82 1.34 1.74 1.74 0 0 1 .1.59 1.91 1.91 0 0 1-1.33 1.82 4.38 4.38 0 0 0-1.26.63 4.82 4.82 0 0 0-2 3.92 5.08 5.08 0 0 0 .25 1.56 4.89 4.89 0 0 0 .7 1.41 5.43 5.43 0 0 0 2.32 2 5.17 5.17 0 0 0 1.64.27A4.49 4.49 0 0 0 29 428a11.09 11.09 0 0 0 2.95-1.79 11.57 11.57 0 0 0 4.74-9.39 12.84 12.84 0 0 0-.39-3.83 11.7 11.7 0 0 0-1.56-3.37 9.73 9.73 0 0 0-5.88-4.31m7.81 12.18l15.19-14.32M28 327.42a8.71 8.71 0 0 1 4.21 3.16 8.61 8.61 0 0 1 1.24 2.48 8.88 8.88 0 0 1 .43 2.72 8.64 8.64 0 0 1-3.57 7A8.51 8.51 0 0 1 28 344a2.06 2.06 0 0 1-.59.09 1.91 1.91 0 0 1-1.82-1.33 2 2 0 0 1-.09-.58 1.91 1.91 0 0 1 1.32-1.82 4.59 4.59 0 0 0 1.27-.64 4.84 4.84 0 0 0 2-3.92 5.05 5.05 0 0 0-.95-3 4.9 4.9 0 0 0-2.43-1.8 4.57 4.57 0 0 0-2.92 0 10.8 10.8 0 0 0-3.05 1.54 11.53 11.53 0 0 0-4.74 9.37 12 12 0 0 0 .59 3.7 12.3 12.3 0 0 0 1.68 3.39c1.43 2 4 4.2 9.77 5.41m.87-3a19.64 19.64 0 0 1-4.21-1 8.73 8.73 0 0 1-4.21-3.15 9.23 9.23 0 0 1-1.24-2.47 9 9 0 0 1-.43-2.73 8.66 8.66 0 0 1 3.57-7 8.41 8.41 0 0 1 2.32-1.16 1.67 1.67 0 0 1 .58-.09 1.91 1.91 0 0 1 1.82 1.32 1.78 1.78 0 0 1 .1.59 1.91 1.91 0 0 1-1.33 1.82 4.38 4.38 0 0 0-1.26.63 4.82 4.82 0 0 0-2 3.92 5 5 0 0 0 .25 1.56 4.89 4.89 0 0 0 .7 1.41 5.43 5.43 0 0 0 2.32 2 5.17 5.17 0 0 0 1.64.27 4.78 4.78 0 0 0 1.42-.21 11.4 11.4 0 0 0 2.95-1.8 11.57 11.57 0 0 0 4.74-9.39 12.84 12.84 0 0 0-.39-3.83 11.82 11.82 0 0 0-1.56-3.37 9.68 9.68 0 0 0-5.88-4.3m7.81 12.17l15.19-14.32"/><path class="cls-1" d="M28 354.38a8.71 8.71 0 0 1 4.21 3.16 8.61 8.61 0 0 1 1.21 2.46 8.92 8.92 0 0 1 .43 2.72 8.63 8.63 0 0 1-3.57 7 8.24 8.24 0 0 1-2.28 1.21 2.06 2.06 0 0 1-.59.09 1.91 1.91 0 0 1-1.82-1.33 2 2 0 0 1-.09-.58 1.91 1.91 0 0 1 1.32-1.82 4.59 4.59 0 0 0 1.27-.64 4.82 4.82 0 0 0 2-3.91 5 5 0 0 0-.24-1.56 5 5 0 0 0-3.14-3.18 4.57 4.57 0 0 0-2.92 0 11.07 11.07 0 0 0-3.05 1.54 11.55 11.55 0 0 0-4.74 9.33 12.07 12.07 0 0 0 .59 3.71 12.24 12.24 0 0 0 1.68 3.35c1.43 2 4 4.2 9.77 5.42m.87-3a19.62 19.62 0 0 1-4.21-1 8.82 8.82 0 0 1-4.21-3.16 9.23 9.23 0 0 1-1.24-2.47 9 9 0 0 1-.43-2.73 8.63 8.63 0 0 1 3.57-7 8.16 8.16 0 0 1 2.32-1.17 2 2 0 0 1 .58-.09 1.91 1.91 0 0 1 1.82 1.27 1.78 1.78 0 0 1 .1.59 1.91 1.91 0 0 1-1.33 1.82 4.65 4.65 0 0 0-1.26.63 4.83 4.83 0 0 0-2 3.92 5 5 0 0 0 .25 1.56 4.89 4.89 0 0 0 .7 1.41 5.43 5.43 0 0 0 2.32 2 5.17 5.17 0 0 0 1.64.27A4.78 4.78 0 0 0 29 374a11.4 11.4 0 0 0 2.95-1.8 11.55 11.55 0 0 0 4.74-9.39 12.87 12.87 0 0 0-.39-3.83 11.64 11.64 0 0 0-1.56-3.36 9.65 9.65 0 0 0-5.88-4.31m7.81 12.17l15.19-14.31M28 273.49a8.77 8.77 0 0 1 4.21 3.16 9 9 0 0 1 1.67 5.2 8.63 8.63 0 0 1-3.57 7A8.24 8.24 0 0 1 28 290a2.06 2.06 0 0 1-.59.09 1.91 1.91 0 0 1-1.82-1.32 2.06 2.06 0 0 1-.09-.59 1.91 1.91 0 0 1 1.32-1.82 4.59 4.59 0 0 0 1.27-.64 4.82 4.82 0 0 0 2-3.91 5 5 0 0 0-.24-1.56 5.19 5.19 0 0 0-.71-1.41 4.88 4.88 0 0 0-2.36-1.77 4.62 4.62 0 0 0-1.52-.26 4.9 4.9 0 0 0-1.4.21 11.36 11.36 0 0 0-3.05 1.54A11.57 11.57 0 0 0 16 288a12.27 12.27 0 0 0 2.27 7c1.43 2 4 4.2 9.77 5.42m.87-3a19.64 19.64 0 0 1-4.21-1 8.75 8.75 0 0 1-4.21-3.16 9 9 0 0 1-1.67-5.2 8.63 8.63 0 0 1 3.57-7 8.16 8.16 0 0 1 2.32-1.17 2 2 0 0 1 .58-.09 1.91 1.91 0 0 1 1.82 1.33 1.69 1.69 0 0 1 .1.58 1.91 1.91 0 0 1-1.33 1.82 4.4 4.4 0 0 0-1.26.64 4.8 4.8 0 0 0-2 3.91 5 5 0 0 0 .25 1.56 4.65 4.65 0 0 0 .7 1.41 5.43 5.43 0 0 0 2.32 2 4.91 4.91 0 0 0 1.64.27 4.78 4.78 0 0 0 1.42-.21 11.13 11.13 0 0 0 2.95-1.8 11.53 11.53 0 0 0 4.77-9.31 12.94 12.94 0 0 0-.39-3.84 11.76 11.76 0 0 0-1.56-3.36 9.65 9.65 0 0 0-5.88-4.31m7.81 12.18l15.19-14.32"/><path class="cls-1" d="M28 300.45a8.92 8.92 0 0 1 5.88 8.36 8.63 8.63 0 0 1-3.57 7A8.24 8.24 0 0 1 28 317a1.77 1.77 0 0 1-.59.09 1.91 1.91 0 0 1-1.82-1.32 2 2 0 0 1-.09-.59 1.91 1.91 0 0 1 1.32-1.82 4.57 4.57 0 0 0 1.27-.63 4.84 4.84 0 0 0 2-3.92 5 5 0 0 0-.24-1.56 5.19 5.19 0 0 0-.71-1.41 4.88 4.88 0 0 0-2.36-1.77 4.57 4.57 0 0 0-2.92 0 11 11 0 0 0-3.05 1.53A11.57 11.57 0 0 0 16 315a12 12 0 0 0 .59 3.7 12.1 12.1 0 0 0 1.68 3.3c1.43 2 4 4.2 9.77 5.42m.87-3a19.64 19.64 0 0 1-4.21-1 8.75 8.75 0 0 1-4.21-3.16 9 9 0 0 1-1.67-5.2 8.64 8.64 0 0 1 3.57-7 8.43 8.43 0 0 1 2.32-1.17 2 2 0 0 1 .58-.09 1.91 1.91 0 0 1 1.82 1.33 1.69 1.69 0 0 1 .1.58 1.91 1.91 0 0 1-1.33 1.82 4.4 4.4 0 0 0-1.26.64 4.81 4.81 0 0 0-2 3.91 5 5 0 0 0 .25 1.56 4.65 4.65 0 0 0 .7 1.41 5.36 5.36 0 0 0 2.32 2 4.91 4.91 0 0 0 1.64.27 4.48 4.48 0 0 0 1.42-.21 11.13 11.13 0 0 0 2.95-1.8 11.53 11.53 0 0 0 4.74-9.38 12.94 12.94 0 0 0-.39-3.84 11.76 11.76 0 0 0-1.56-3.36 9.65 9.65 0 0 0-5.88-4.31m7.81 12.18l15.19-14.32M28 219.57a8.69 8.69 0 0 1 4.21 3.15 9.1 9.1 0 0 1 1.67 5.2 8.65 8.65 0 0 1-3.57 7 8.49 8.49 0 0 1-2.31 1.19 1.78 1.78 0 0 1-.59.1 1.91 1.91 0 0 1-1.82-1.33 2 2 0 0 1-.09-.59 1.91 1.91 0 0 1 1.32-1.82 4.57 4.57 0 0 0 1.27-.63 4.84 4.84 0 0 0 2-3.92 5 5 0 0 0-.24-1.56 5.19 5.19 0 0 0-.71-1.41 5 5 0 0 0-2.36-1.77 4.57 4.57 0 0 0-2.92 0 11 11 0 0 0-3.05 1.53 11.57 11.57 0 0 0-4.81 9.35 12 12 0 0 0 .59 3.7 12.1 12.1 0 0 0 1.68 3.35c1.43 2 4 4.21 9.77 5.42m.87-3a19.64 19.64 0 0 1-4.21-1 8.75 8.75 0 0 1-4.21-3.16 8.92 8.92 0 0 1-1.67-5.19 8.52 8.52 0 0 1 5.89-8.2 2 2 0 0 1 .58-.09 1.91 1.91 0 0 1 1.82 1.33 1.7 1.7 0 0 1 .1.59 1.91 1.91 0 0 1-1.33 1.82 4.38 4.38 0 0 0-1.26.63 4.82 4.82 0 0 0-2 3.92 5.08 5.08 0 0 0 .25 1.56 4.89 4.89 0 0 0 .7 1.41 5.34 5.34 0 0 0 2.32 2 4.91 4.91 0 0 0 1.64.28 4.49 4.49 0 0 0 1.42-.22 11.36 11.36 0 0 0 2.95-1.79 11.57 11.57 0 0 0 4.77-9.42 12.84 12.84 0 0 0-.39-3.83 11.7 11.7 0 0 0-1.56-3.37 9.69 9.69 0 0 0-5.88-4.31m7.81 12.18l15.19-14.32"/><path class="cls-1" d="M28 246.53a8.72 8.72 0 0 1 5.45 5.64 8.88 8.88 0 0 1 .43 2.72 8.64 8.64 0 0 1-3.57 7 8.49 8.49 0 0 1-2.31 1.18 1.78 1.78 0 0 1-.59.1 1.91 1.91 0 0 1-1.82-1.33 2 2 0 0 1-.09-.59 1.92 1.92 0 0 1 1.32-1.82 4.57 4.57 0 0 0 1.27-.63 4.84 4.84 0 0 0 2-3.92 5 5 0 0 0-.24-1.55 5.11 5.11 0 0 0-.71-1.42 5 5 0 0 0-2.36-1.77 4.57 4.57 0 0 0-2.92 0 11 11 0 0 0-3.05 1.53A11.57 11.57 0 0 0 16 261a12 12 0 0 0 .59 3.7 12.1 12.1 0 0 0 1.68 3.35c1.43 2 4 4.21 9.77 5.42m.87-3a19.64 19.64 0 0 1-4.21-1 8.73 8.73 0 0 1-4.21-3.15 9.23 9.23 0 0 1-1.24-2.47 9 9 0 0 1-.43-2.73 8.66 8.66 0 0 1 3.57-7 8.41 8.41 0 0 1 2.32-1.12 1.69 1.69 0 0 1 .58-.1 1.91 1.91 0 0 1 1.82 1.33 1.74 1.74 0 0 1 .1.59 1.91 1.91 0 0 1-1.33 1.82 4.38 4.38 0 0 0-1.26.63 4.82 4.82 0 0 0-2 3.92 5 5 0 0 0 .25 1.56 4.89 4.89 0 0 0 .7 1.41 5.43 5.43 0 0 0 2.32 2 5.17 5.17 0 0 0 1.64.27 4.49 4.49 0 0 0 1.42-.22 11.09 11.09 0 0 0 2.95-1.79 11.57 11.57 0 0 0 4.77-9.42 12.84 12.84 0 0 0-.39-3.83 11.7 11.7 0 0 0-1.56-3.37 9.68 9.68 0 0 0-5.88-4.3m7.81 12.17l15.19-14.32M28 165.64a8.71 8.71 0 0 1 4.21 3.16 8.61 8.61 0 0 1 1.24 2.48 8.88 8.88 0 0 1 .43 2.72 8.63 8.63 0 0 1-3.57 7 8.51 8.51 0 0 1-2.31 1.19 2.06 2.06 0 0 1-.59.09 1.91 1.91 0 0 1-1.85-1.28 2 2 0 0 1-.09-.58 1.91 1.91 0 0 1 1.32-1.82 4.59 4.59 0 0 0 1.27-.64A4.83 4.83 0 0 0 30 174a5 5 0 0 0-.24-1.56 5 5 0 0 0-3.07-3.19 4.57 4.57 0 0 0-2.92 0 10.8 10.8 0 0 0-3.05 1.54 11.53 11.53 0 0 0-4.72 9.34 12.07 12.07 0 0 0 .59 3.71 12.38 12.38 0 0 0 1.68 3.35c1.43 2 4 4.2 9.77 5.42m.87-3a19.62 19.62 0 0 1-4.21-1 8.82 8.82 0 0 1-4.21-3.16 9.23 9.23 0 0 1-1.24-2.45 9 9 0 0 1-.43-2.73 8.63 8.63 0 0 1 3.57-7 8.16 8.16 0 0 1 2.32-1.17 2 2 0 0 1 .58-.09 1.91 1.91 0 0 1 1.82 1.32 1.78 1.78 0 0 1 .1.59 1.91 1.91 0 0 1-1.33 1.82 4.38 4.38 0 0 0-1.26.63 4.83 4.83 0 0 0-2 3.92 5 5 0 0 0 .25 1.56 4.89 4.89 0 0 0 .7 1.41 5.43 5.43 0 0 0 2.32 2 5.17 5.17 0 0 0 1.64.27 4.78 4.78 0 0 0 1.47-.23 11.4 11.4 0 0 0 2.95-1.8 11.57 11.57 0 0 0 4.74-9.39 12.87 12.87 0 0 0-.39-3.83 11.82 11.82 0 0 0-1.56-3.37 9.68 9.68 0 0 0-5.88-4.3m7.81 12.17l15.19-14.32"/><path class="cls-1" d="M28 192.6a8.71 8.71 0 0 1 4.21 3.16 8.61 8.61 0 0 1 1.24 2.48 8.92 8.92 0 0 1 .43 2.72 8.63 8.63 0 0 1-3.57 7 8.24 8.24 0 0 1-2.31 1.19 2.06 2.06 0 0 1-.59.09 1.91 1.91 0 0 1-1.82-1.33 2 2 0 0 1-.09-.58 1.91 1.91 0 0 1 1.32-1.82 4.59 4.59 0 0 0 1.27-.64A4.82 4.82 0 0 0 30 201a5 5 0 0 0-.24-1.56 5 5 0 0 0-.71-1.41 5 5 0 0 0-2.36-1.78 4.57 4.57 0 0 0-2.92 0 11.07 11.07 0 0 0-3.05 1.54 11.55 11.55 0 0 0-4.72 9.3 12 12 0 0 0 .59 3.71 12.24 12.24 0 0 0 1.68 3.35c1.43 2 4 4.2 9.77 5.42m.87-3a19.62 19.62 0 0 1-4.21-1 8.82 8.82 0 0 1-4.21-3.16 9.23 9.23 0 0 1-1.24-2.47 9 9 0 0 1-.43-2.73 8.63 8.63 0 0 1 3.57-7 8.16 8.16 0 0 1 2.32-1.21 2 2 0 0 1 .58-.09 1.92 1.92 0 0 1 1.82 1.32 1.78 1.78 0 0 1 .1.59 1.91 1.91 0 0 1-1.33 1.82 4.65 4.65 0 0 0-1.26.63 4.83 4.83 0 0 0-2 3.92 5 5 0 0 0 .25 1.56 4.89 4.89 0 0 0 .7 1.41 5.43 5.43 0 0 0 2.32 2 5.17 5.17 0 0 0 1.64.27 4.78 4.78 0 0 0 1.42-.21 11.4 11.4 0 0 0 2.95-1.8 11.55 11.55 0 0 0 4.74-9.39 12.87 12.87 0 0 0-.39-3.83 11.64 11.64 0 0 0-1.56-3.36 9.65 9.65 0 0 0-5.88-4.31m7.81 12.17l15.19-14.31M28 111.71a8.77 8.77 0 0 1 4.21 3.16 9 9 0 0 1 1.67 5.2 8.63 8.63 0 0 1-3.57 7 8.24 8.24 0 0 1-2.31 1.19 1.77 1.77 0 0 1-.59.09 1.91 1.91 0 0 1-1.85-1.35 2.06 2.06 0 0 1-.09-.59 1.91 1.91 0 0 1 1.32-1.82 4.63 4.63 0 0 0 3.21-4.52 5 5 0 0 0-.24-1.56 5.19 5.19 0 0 0-.71-1.41 4.88 4.88 0 0 0-2.36-1.77 4.57 4.57 0 0 0-2.92 0 11 11 0 0 0-3.05 1.53 11.57 11.57 0 0 0-4.72 9.35 12.27 12.27 0 0 0 2.27 7c1.43 2 4 4.2 9.77 5.42m.87-3a19.64 19.64 0 0 1-4.21-1 8.75 8.75 0 0 1-4.21-3.16 9 9 0 0 1-1.67-5.2 8.63 8.63 0 0 1 3.57-7 8.16 8.16 0 0 1 2.32-1.17 2 2 0 0 1 .58-.09 1.91 1.91 0 0 1 1.82 1.33 1.69 1.69 0 0 1 .1.58 1.91 1.91 0 0 1-1.33 1.82 4.4 4.4 0 0 0-1.26.64 4.81 4.81 0 0 0-2 3.91 5 5 0 0 0 .25 1.56 4.65 4.65 0 0 0 .7 1.41 5.36 5.36 0 0 0 2.32 2 4.91 4.91 0 0 0 1.64.27 4.78 4.78 0 0 0 1.42-.21 11.13 11.13 0 0 0 2.95-1.8 11.53 11.53 0 0 0 4.74-9.38 12.94 12.94 0 0 0-.39-3.84 11.76 11.76 0 0 0-1.53-3.3 9.65 9.65 0 0 0-5.88-4.31m7.81 12.18l15.19-14.32"/><path class="cls-1" d="M28 138.67a8.92 8.92 0 0 1 5.85 8.33 8.66 8.66 0 0 1-3.57 7 8.49 8.49 0 0 1-2.28 1.22 1.54 1.54 0 0 1-.59.09 1.89 1.89 0 0 1-1.85-1.31 2 2 0 0 1-.09-.59 1.91 1.91 0 0 1 1.32-1.82 4.57 4.57 0 0 0 1.27-.63A4.84 4.84 0 0 0 30 147a5 5 0 0 0-.24-1.56 5.19 5.19 0 0 0-.71-1.41 4.88 4.88 0 0 0-2.36-1.77 4.57 4.57 0 0 0-2.92 0 11 11 0 0 0-3.05 1.53 11.57 11.57 0 0 0-4.72 9.38 12 12 0 0 0 .59 3.7 12.1 12.1 0 0 0 1.68 3.35c1.43 2 4 4.2 9.77 5.42m.87-3a19.64 19.64 0 0 1-4.21-1 8.75 8.75 0 0 1-4.21-3.16 9 9 0 0 1-1.67-5.2 8.64 8.64 0 0 1 3.57-7 8.43 8.43 0 0 1 2.32-1.17 2 2 0 0 1 .58-.09 1.91 1.91 0 0 1 1.82 1.33 1.69 1.69 0 0 1 .1.58 1.91 1.91 0 0 1-1.33 1.82 4.4 4.4 0 0 0-1.26.64 4.82 4.82 0 0 0-2 3.92 5.08 5.08 0 0 0 .25 1.56 4.71 4.71 0 0 0 .7 1.4 5.36 5.36 0 0 0 2.32 2 4.91 4.91 0 0 0 1.64.27 4.48 4.48 0 0 0 1.42-.21 11.13 11.13 0 0 0 2.95-1.8 11.53 11.53 0 0 0 4.74-9.38 12.94 12.94 0 0 0-.39-3.84 11.76 11.76 0 0 0-1.53-3.31 9.65 9.65 0 0 0-5.88-4.31M28 57.79a8.69 8.69 0 0 1 4.21 3.15 9.1 9.1 0 0 1 1.67 5.2 8.65 8.65 0 0 1-3.57 7A8.49 8.49 0 0 1 28 74.33a1.78 1.78 0 0 1-.59.1 1.91 1.91 0 0 1-1.82-1.33 2 2 0 0 1-.09-.59 1.91 1.91 0 0 1 1.32-1.82 4.57 4.57 0 0 0 1.27-.63 4.84 4.84 0 0 0 2-3.92 5 5 0 0 0-.24-1.56 5.19 5.19 0 0 0-.71-1.41 5 5 0 0 0-2.36-1.77 4.57 4.57 0 0 0-2.92 0 11 11 0 0 0-3.05 1.53A11.57 11.57 0 0 0 16 72.28a12 12 0 0 0 .59 3.7 12.1 12.1 0 0 0 1.68 3.35c1.43 2 4 4.21 9.77 5.42m.87-3a19.64 19.64 0 0 1-4.21-1 8.73 8.73 0 0 1-4.21-3.15 9.23 9.23 0 0 1-1.24-2.47 9 9 0 0 1-.43-2.73 8.52 8.52 0 0 1 5.89-8.2 2 2 0 0 1 .58-.09 1.91 1.91 0 0 1 1.82 1.33 1.74 1.74 0 0 1 .1.59 1.91 1.91 0 0 1-1.33 1.82 4.38 4.38 0 0 0-1.26.63 4.82 4.82 0 0 0-2 3.92 5.08 5.08 0 0 0 .28 1.6 4.89 4.89 0 0 0 .7 1.41 5.34 5.34 0 0 0 2.32 2 4.91 4.91 0 0 0 1.64.28 4.49 4.49 0 0 0 1.44-.25 11.36 11.36 0 0 0 2.95-1.79 11.57 11.57 0 0 0 4.74-9.39 12.84 12.84 0 0 0-.39-3.83 11.7 11.7 0 0 0-1.56-3.37 9.73 9.73 0 0 0-5.88-4.31m22.98-2.14"/><path class="cls-1" d="M28 84.75a8.71 8.71 0 0 1 4.21 3.16 8.61 8.61 0 0 1 1.24 2.48 8.88 8.88 0 0 1 .43 2.72 8.64 8.64 0 0 1-3.57 7A8.81 8.81 0 0 1 28 101.3a2.06 2.06 0 0 1-.59.09 1.91 1.91 0 0 1-1.82-1.33 2 2 0 0 1-.09-.59 1.92 1.92 0 0 1 1.32-1.82 4.57 4.57 0 0 0 1.24-.65 4.84 4.84 0 0 0 2-3.92 5 5 0 0 0-.24-1.55 5.11 5.11 0 0 0-.71-1.42 5 5 0 0 0-2.36-1.77 4.57 4.57 0 0 0-2.92 0 11 11 0 0 0-3.05 1.53A11.57 11.57 0 0 0 16 99.24a12 12 0 0 0 .59 3.7 12.1 12.1 0 0 0 1.68 3.35c1.43 2 4 4.21 9.77 5.42m.87-3a19.64 19.64 0 0 1-4.21-1 8.73 8.73 0 0 1-4.21-3.15 9.23 9.23 0 0 1-1.24-2.47 9 9 0 0 1-.43-2.73 8.66 8.66 0 0 1 3.57-7 8.41 8.41 0 0 1 2.32-1.16 1.69 1.69 0 0 1 .58-.1 1.91 1.91 0 0 1 1.82 1.33 1.74 1.74 0 0 1 .1.59 1.91 1.91 0 0 1-1.33 1.82 4.38 4.38 0 0 0-1.26.63 4.82 4.82 0 0 0-2 3.92 5 5 0 0 0 .25 1.56 4.89 4.89 0 0 0 .7 1.41 5.43 5.43 0 0 0 2.32 2 5.17 5.17 0 0 0 1.64.27 4.49 4.49 0 0 0 1.47-.23 11.09 11.09 0 0 0 2.95-1.79 11.57 11.57 0 0 0 4.74-9.39 12.84 12.84 0 0 0-.39-3.83A11.7 11.7 0 0 0 34.72 86a9.68 9.68 0 0 0-5.88-4.3m16.39 338.47c5.77-1.17 8.34-3.42 9.77-5.42a12.1 12.1 0 0 0 1.68-3.35 12 12 0 0 0 .58-3.7 11.56 11.56 0 0 0-4.73-9.39 11 11 0 0 0-3.05-1.53 4.57 4.57 0 0 0-2.92 0 4.84 4.84 0 0 0-2.36 1.77 5.19 5.19 0 0 0-.71 1.41 5 5 0 0 0-.25 1.56 4.82 4.82 0 0 0 2 3.92 4.65 4.65 0 0 0 1.26.63 1.9 1.9 0 0 1 1.33 1.82 2 2 0 0 1-.09.59 1.89 1.89 0 0 1-1.82 1.32 1.54 1.54 0 0 1-.59-.09 8.43 8.43 0 0 1-2.33-1.13 8.62 8.62 0 0 1-3.56-7 8.84 8.84 0 0 1 5.88-8.36m-.87-3a9.7 9.7 0 0 0-5.89 4.31 12 12 0 0 0-1.56 3.31 12.94 12.94 0 0 0-.39 3.84 11.51 11.51 0 0 0 4.74 9.38 11 11 0 0 0 2.95 1.8 4.42 4.42 0 0 0 1.41.21 4.92 4.92 0 0 0 1.65-.27 5.36 5.36 0 0 0 2.32-2 5.24 5.24 0 0 0 .7-1.4 5.08 5.08 0 0 0 .25-1.56 4.82 4.82 0 0 0-2-3.92 4.4 4.4 0 0 0-1.26-.64 1.91 1.91 0 0 1-1.33-1.82 1.92 1.92 0 0 1 2.5-1.82 8.43 8.43 0 0 1 2.32 1.17 8.64 8.64 0 0 1 3.57 7 8.89 8.89 0 0 1-1.68 5.2 8.68 8.68 0 0 1-4.2 3.16 19.64 19.64 0 0 1-4.21 1M21.43 388"/><path class="cls-1" d="M45.23 447.13c5.77-1.21 8.34-3.42 9.77-5.42a12.1 12.1 0 0 0 1.68-3.35 12 12 0 0 0 .58-3.7 11.56 11.56 0 0 0-4.73-9.39 11 11 0 0 0-3.05-1.53 4.57 4.57 0 0 0-2.92 0 4.9 4.9 0 0 0-2.36 1.77 5.19 5.19 0 0 0-.71 1.41 5 5 0 0 0-.25 1.56 4.82 4.82 0 0 0 2 3.92 4.65 4.65 0 0 0 1.26.63 1.9 1.9 0 0 1 1.33 1.82 2 2 0 0 1-.09.59 1.91 1.91 0 0 1-1.82 1.33 1.78 1.78 0 0 1-.59-.1 8.46 8.46 0 0 1-5.88-8.19 9.1 9.1 0 0 1 1.67-5.2 8.69 8.69 0 0 1 4.21-3.15m-.87-3a9.74 9.74 0 0 0-5.89 4.31 12 12 0 0 0-1.57 3.37 12.84 12.84 0 0 0-.39 3.83 11.51 11.51 0 0 0 4.73 9.36 11 11 0 0 0 2.95 1.8 4.43 4.43 0 0 0 1.41.22 4.93 4.93 0 0 0 1.65-.28 5.34 5.34 0 0 0 2.32-2 5.46 5.46 0 0 0 .7-1.41 5.08 5.08 0 0 0 .25-1.56 4.82 4.82 0 0 0-2-3.92 4.38 4.38 0 0 0-1.26-.63 1.91 1.91 0 0 1-1.33-1.82 2 2 0 0 1 .09-.59 1.93 1.93 0 0 1 1.88-1.32 2 2 0 0 1 .59.09 8.43 8.43 0 0 1 2.32 1.17 8.64 8.64 0 0 1 3.57 7 8.89 8.89 0 0 1-1.68 5.2 8.68 8.68 0 0 1-4.2 3.16 19.64 19.64 0 0 1-4.21 1m.84-77.87c5.77-1.24 8.34-3.42 9.77-5.42a12.1 12.1 0 0 0 1.68-3.35 12 12 0 0 0 .58-3.7 11.56 11.56 0 0 0-4.73-9.39 11 11 0 0 0-3.05-1.53 4.57 4.57 0 0 0-2.92 0 4.9 4.9 0 0 0-2.36 1.77 5.11 5.11 0 0 0-.71 1.42 5 5 0 0 0-.25 1.55 4.82 4.82 0 0 0 2 3.92 4.65 4.65 0 0 0 1.26.63 1.92 1.92 0 0 1 1.3 1.86 2 2 0 0 1-.09.59 1.91 1.91 0 0 1-1.82 1.33 2.06 2.06 0 0 1-.59-.09 9 9 0 0 1-2.3-1.17 8.63 8.63 0 0 1-3.56-7 8.88 8.88 0 0 1 .43-2.72 8.61 8.61 0 0 1 1.24-2.48 8.71 8.71 0 0 1 4.21-3.16m-.87-3a9.73 9.73 0 0 0-5.89 4.3 12 12 0 0 0-1.56 3.32 12.84 12.84 0 0 0-.39 3.83 11.54 11.54 0 0 0 4.74 9.39 10.94 10.94 0 0 0 2.95 1.79 4.43 4.43 0 0 0 1.41.22 5.19 5.19 0 0 0 1.65-.27 6 6 0 0 0 3-3.43 5 5 0 0 0 .25-1.56 4.82 4.82 0 0 0-2-3.92 4.38 4.38 0 0 0-1.26-.63 1.91 1.91 0 0 1-1.33-1.82 2 2 0 0 1 .09-.59A1.93 1.93 0 0 1 48 345.6a1.7 1.7 0 0 1 .59.1 8.41 8.41 0 0 1 2.32 1.16 8.66 8.66 0 0 1 3.57 7 9 9 0 0 1-.43 2.73 9.26 9.26 0 0 1-1.25 2.47 8.66 8.66 0 0 1-4.2 3.15 19.64 19.64 0 0 1-4.21 1M21.43 334.1"/><path class="cls-1" d="M45.23 393.2c5.77-1.2 8.34-3.42 9.77-5.41a12.3 12.3 0 0 0 1.68-3.36 12 12 0 0 0 .58-3.7 11.53 11.53 0 0 0-4.73-9.38 10.8 10.8 0 0 0-3.05-1.54 4.57 4.57 0 0 0-2.92 0 4.86 4.86 0 0 0-2.36 1.78 4.91 4.91 0 0 0-.71 1.41 5 5 0 0 0-.25 1.55 4.82 4.82 0 0 0 2 3.92 4.67 4.67 0 0 0 1.26.64 1.9 1.9 0 0 1 1.3 1.89 2 2 0 0 1-.09.58 1.91 1.91 0 0 1-1.82 1.33 2.06 2.06 0 0 1-.59-.09 8.72 8.72 0 0 1-2.3-1.2 8.63 8.63 0 0 1-3.56-7 8.88 8.88 0 0 1 .43-2.72 8.61 8.61 0 0 1 1.24-2.48 8.71 8.71 0 0 1 4.21-3.16m-.87-3a9.73 9.73 0 0 0-5.89 4.3 12.08 12.08 0 0 0-1.56 3.32 12.87 12.87 0 0 0-.39 3.83 11.54 11.54 0 0 0 4.74 9.39 11.23 11.23 0 0 0 2.95 1.8 4.72 4.72 0 0 0 1.41.21 5.19 5.19 0 0 0 1.65-.27 6 6 0 0 0 3-3.43 5 5 0 0 0 .25-1.56 4.82 4.82 0 0 0-2-3.92 4.38 4.38 0 0 0-1.26-.63 1.91 1.91 0 0 1-1.33-1.82 2.06 2.06 0 0 1 .09-.59 1.92 1.92 0 0 1 1.89-1.32 2 2 0 0 1 .59.09 8.41 8.41 0 0 1 2.32 1.16 8.66 8.66 0 0 1 3.57 7 9 9 0 0 1-.43 2.73 9.26 9.26 0 0 1-1.25 2.47 8.66 8.66 0 0 1-4.2 3.15 19.64 19.64 0 0 1-4.21 1m.84-77.85c5.77-1.22 8.34-3.43 9.77-5.42a12.24 12.24 0 0 0 1.68-3.35 12 12 0 0 0 .58-3.71 11.54 11.54 0 0 0-4.73-9.38 11.07 11.07 0 0 0-3.05-1.54 4.57 4.57 0 0 0-2.92 0 4.92 4.92 0 0 0-2.36 1.78 5 5 0 0 0-.71 1.41 5 5 0 0 0-.25 1.56 4.8 4.8 0 0 0 2 3.91 4.67 4.67 0 0 0 1.26.64 1.9 1.9 0 0 1 1.33 1.82 2 2 0 0 1-.09.58 1.91 1.91 0 0 1-1.85 1.38 2.06 2.06 0 0 1-.59-.09 8.43 8.43 0 0 1-2.3-1.18 8.62 8.62 0 0 1-3.56-7 8.92 8.92 0 0 1 .43-2.72 8.61 8.61 0 0 1 1.24-2.48 8.77 8.77 0 0 1 4.21-3.16m-.87-3a9.7 9.7 0 0 0-5.89 4.31A11.89 11.89 0 0 0 37 290a12.87 12.87 0 0 0-.39 3.83 11.53 11.53 0 0 0 4.74 9.39 11 11 0 0 0 2.95 1.8 4.72 4.72 0 0 0 1.41.21 5.19 5.19 0 0 0 1.65-.27 5.43 5.43 0 0 0 2.32-2 5.31 5.31 0 0 0 .7-1.41 5 5 0 0 0 .25-1.56 4.8 4.8 0 0 0-2-3.91 4.4 4.4 0 0 0-1.26-.64 1.91 1.91 0 0 1-1.33-1.82 1.92 1.92 0 0 1 2.5-1.82 8.16 8.16 0 0 1 2.32 1.17 8.63 8.63 0 0 1 3.57 7 9 9 0 0 1-.43 2.73 9.26 9.26 0 0 1-1.25 2.47 8.74 8.74 0 0 1-4.2 3.16 19.62 19.62 0 0 1-4.21 1m-22.91-29.15"/><path class="cls-1" d="M45.23 339.28c5.77-1.22 8.34-3.43 9.77-5.42a12.16 12.16 0 0 0 2.26-7.05 11.56 11.56 0 0 0-4.73-9.39 11.36 11.36 0 0 0-3.05-1.54 4.9 4.9 0 0 0-1.4-.21 4.62 4.62 0 0 0-1.52.26 4.84 4.84 0 0 0-2.36 1.77 5.19 5.19 0 0 0-.71 1.41 5 5 0 0 0-.25 1.56 4.8 4.8 0 0 0 2 3.91 4.67 4.67 0 0 0 1.26.64 1.9 1.9 0 0 1 1.3 1.78 2.06 2.06 0 0 1-.09.59 1.91 1.91 0 0 1-1.82 1.41 2.06 2.06 0 0 1-.59-.09 8.43 8.43 0 0 1-2.3-1.22 8.62 8.62 0 0 1-3.56-7 9 9 0 0 1 1.67-5.2 8.77 8.77 0 0 1 4.21-3.16m-.87-3a9.7 9.7 0 0 0-5.89 4.31A12 12 0 0 0 37 317a12.94 12.94 0 0 0-.39 3.84 11.51 11.51 0 0 0 4.74 9.38 11 11 0 0 0 2.95 1.8 4.72 4.72 0 0 0 1.41.21 4.92 4.92 0 0 0 1.65-.27 5.43 5.43 0 0 0 2.32-2 5.16 5.16 0 0 0 .7-1.41 5 5 0 0 0 .25-1.56 4.8 4.8 0 0 0-2-3.91 4.4 4.4 0 0 0-1.26-.64 1.91 1.91 0 0 1-1.33-1.82 1.92 1.92 0 0 1 2.5-1.82 8.16 8.16 0 0 1 2.32 1.17 8.63 8.63 0 0 1 3.57 7 8.89 8.89 0 0 1-1.68 5.2 8.68 8.68 0 0 1-4.2 3.16 19.64 19.64 0 0 1-4.21 1m.89-77.94C51 257.18 53.57 255 55 253a12.1 12.1 0 0 0 1.68-3.35 12 12 0 0 0 .58-3.7 11.56 11.56 0 0 0-4.73-9.39 11 11 0 0 0-3.05-1.56 4.57 4.57 0 0 0-2.92 0 4.84 4.84 0 0 0-2.36 1.77 5.19 5.19 0 0 0-.71 1.41 5 5 0 0 0-.25 1.56 4.82 4.82 0 0 0 2 3.92 4.65 4.65 0 0 0 1.26.63 1.9 1.9 0 0 1 1.33 1.82 2 2 0 0 1-.09.59 1.91 1.91 0 0 1-1.82 1.33 1.78 1.78 0 0 1-.59-.1 8.46 8.46 0 0 1-5.88-8.19 9.1 9.1 0 0 1 1.67-5.2 8.69 8.69 0 0 1 4.21-3.15m-.87-3a9.7 9.7 0 0 0-5.89 4.31 12 12 0 0 0-1.57 3.37 12.84 12.84 0 0 0-.39 3.83 11.51 11.51 0 0 0 4.74 9.38 11 11 0 0 0 2.95 1.8 4.42 4.42 0 0 0 1.41.21 4.92 4.92 0 0 0 1.65-.27 5.36 5.36 0 0 0 2.32-2 5.24 5.24 0 0 0 .7-1.4 5.08 5.08 0 0 0 .25-1.56 4.82 4.82 0 0 0-2-3.92 4.14 4.14 0 0 0-1.26-.63 1.92 1.92 0 0 1-1.33-1.82 2 2 0 0 1 .09-.59 1.93 1.93 0 0 1 1.87-1.35 2 2 0 0 1 .59.09 8.43 8.43 0 0 1 2.29 1.16 8.64 8.64 0 0 1 3.57 7 8.89 8.89 0 0 1-1.68 5.2 8.68 8.68 0 0 1-4.2 3.16 19.64 19.64 0 0 1-4.21 1m-22.93-29.11"/><path class="cls-1" d="M45.23 285.35c5.77-1.21 8.34-3.42 9.77-5.42a12.1 12.1 0 0 0 1.68-3.35 12 12 0 0 0 .58-3.7 11.56 11.56 0 0 0-4.73-9.39 11 11 0 0 0-3.05-1.49 4.57 4.57 0 0 0-2.92 0 4.9 4.9 0 0 0-2.36 1.77 5.19 5.19 0 0 0-.71 1.41 5 5 0 0 0-.25 1.56 4.82 4.82 0 0 0 2 3.92 4.65 4.65 0 0 0 1.26.63 1.9 1.9 0 0 1 1.33 1.82 2 2 0 0 1-.09.59 1.91 1.91 0 0 1-1.85 1.3 1.78 1.78 0 0 1-.59-.1 8.46 8.46 0 0 1-5.88-8.19 9.1 9.1 0 0 1 1.67-5.2 8.69 8.69 0 0 1 4.21-3.15m-.87-3a9.74 9.74 0 0 0-5.89 4.31A12 12 0 0 0 37 263a12.84 12.84 0 0 0-.39 3.83 11.54 11.54 0 0 0 4.74 9.39 11.2 11.2 0 0 0 2.94 1.78 4.43 4.43 0 0 0 1.41.22 4.93 4.93 0 0 0 1.65-.28 5.34 5.34 0 0 0 2.32-2 5.46 5.46 0 0 0 .7-1.41 5.08 5.08 0 0 0 .25-1.56 4.82 4.82 0 0 0-2-3.92 4.38 4.38 0 0 0-1.26-.63 1.91 1.91 0 0 1-1.33-1.82 2 2 0 0 1 .09-.59 1.93 1.93 0 0 1 1.88-1.3 2 2 0 0 1 .59.09 8.52 8.52 0 0 1 5.89 8.2 8.83 8.83 0 0 1-1.68 5.19 8.68 8.68 0 0 1-4.2 3.16 19.64 19.64 0 0 1-4.21 1m.84-77.89C51 203.25 53.57 201 55 199a12.1 12.1 0 0 0 1.68-3.35 12 12 0 0 0 .58-3.7 11.53 11.53 0 0 0-4.73-9.38 10.8 10.8 0 0 0-3.05-1.54 4.57 4.57 0 0 0-2.92 0 4.86 4.86 0 0 0-2.36 1.78 4.91 4.91 0 0 0-.71 1.41 5 5 0 0 0-.25 1.55 4.82 4.82 0 0 0 2 3.92 4.65 4.65 0 0 0 1.26.63 1.92 1.92 0 0 1 1.33 1.83 2 2 0 0 1-.09.58 1.91 1.91 0 0 1-1.82 1.33 2.06 2.06 0 0 1-.59-.09 8.72 8.72 0 0 1-2.33-1.09 8.63 8.63 0 0 1-3.56-7 8.88 8.88 0 0 1 .43-2.72 8.61 8.61 0 0 1 1.24-2.48 8.71 8.71 0 0 1 4.21-3.16m-.87-3a9.73 9.73 0 0 0-5.89 4.3 12.08 12.08 0 0 0-1.56 3.32 12.84 12.84 0 0 0-.4 3.86 11.54 11.54 0 0 0 4.74 9.39 10.94 10.94 0 0 0 2.95 1.79 4.43 4.43 0 0 0 1.41.22 5.19 5.19 0 0 0 1.65-.27 6 6 0 0 0 3-3.43 5 5 0 0 0 .25-1.56 4.82 4.82 0 0 0-2-3.92 4.38 4.38 0 0 0-1.26-.63 1.91 1.91 0 0 1-1.33-1.82 2 2 0 0 1 .09-.59 1.92 1.92 0 0 1 1.9-1.35 1.69 1.69 0 0 1 .59.09 8.41 8.41 0 0 1 2.32 1.16 8.66 8.66 0 0 1 3.57 7 9 9 0 0 1-.43 2.73 9.26 9.26 0 0 1-1.25 2.47 8.66 8.66 0 0 1-4.2 3.15 19.64 19.64 0 0 1-4.21 1m-22.96-29.11"/><path class="cls-1" d="M45.23 231.43C51 230.21 53.57 228 55 226a12.38 12.38 0 0 0 1.68-3.35 12.06 12.06 0 0 0 .58-3.71 11.53 11.53 0 0 0-4.73-9.38 10.8 10.8 0 0 0-3.05-1.56 4.57 4.57 0 0 0-2.92 0 4.86 4.86 0 0 0-2.36 1.78 4.91 4.91 0 0 0-.71 1.41 5 5 0 0 0-.25 1.56 4.81 4.81 0 0 0 2 3.91 4.67 4.67 0 0 0 1.26.64 1.9 1.9 0 0 1 1.33 1.82 2 2 0 0 1-.09.58 1.91 1.91 0 0 1-1.82 1.33 2.06 2.06 0 0 1-.59-.09 8.43 8.43 0 0 1-2.33-1.1 8.62 8.62 0 0 1-3.56-7 8.88 8.88 0 0 1 .43-2.72 8.61 8.61 0 0 1 1.24-2.48 8.71 8.71 0 0 1 4.21-3.16m-.87-3a9.73 9.73 0 0 0-5.89 4.3A12.08 12.08 0 0 0 37 209.1a12.87 12.87 0 0 0-.39 3.83 11.54 11.54 0 0 0 4.74 9.39 11.23 11.23 0 0 0 2.95 1.8 4.72 4.72 0 0 0 1.41.21 5.19 5.19 0 0 0 1.65-.27 6 6 0 0 0 3-3.43 5 5 0 0 0 .25-1.56 4.83 4.83 0 0 0-2-3.92 4.38 4.38 0 0 0-1.26-.63 1.91 1.91 0 0 1-1.33-1.82 2.06 2.06 0 0 1 .09-.59 1.92 1.92 0 0 1 1.89-1.32 2 2 0 0 1 .59.09 8.16 8.16 0 0 1 2.32 1.17 8.63 8.63 0 0 1 3.57 7 9 9 0 0 1-.48 2.75 9.26 9.26 0 0 1-1.25 2.47 8.74 8.74 0 0 1-4.2 3.16 19.62 19.62 0 0 1-4.21 1m-7.72-14.83l-15.19-14.31m23.8-48.75c5.77-1.22 8.34-3.43 9.77-5.42a12.24 12.24 0 0 0 1.68-3.35 12 12 0 0 0 .58-3.7 11.56 11.56 0 0 0-4.73-9.39 11.36 11.36 0 0 0-3.05-1.54 5.3 5.3 0 0 0-1.4-.22 5.21 5.21 0 0 0-1.52.26A4.92 4.92 0 0 0 44.2 129a5.19 5.19 0 0 0-.71 1.41 5 5 0 0 0-.25 1.56 4.8 4.8 0 0 0 2 3.91 4.67 4.67 0 0 0 1.26.64 1.9 1.9 0 0 1 1.33 1.82 2 2 0 0 1-.09.58 1.9 1.9 0 0 1-1.82 1.33 2.06 2.06 0 0 1-.59-.09A8.43 8.43 0 0 1 43 139a8.62 8.62 0 0 1-3.56-7 8.92 8.92 0 0 1 .43-2.72 8.78 8.78 0 0 1 5.45-5.64m-.87-3a9.7 9.7 0 0 0-5.89 4.31 11.89 11.89 0 0 0-1.56 3.26 12.9 12.9 0 0 0-.39 3.84 11.52 11.52 0 0 0 4.74 9.38 11 11 0 0 0 2.95 1.8 4.72 4.72 0 0 0 1.41.21 5.19 5.19 0 0 0 1.65-.27 5.43 5.43 0 0 0 2.32-2 5.16 5.16 0 0 0 .7-1.41 5 5 0 0 0 .25-1.56 4.8 4.8 0 0 0-2-3.91 4.4 4.4 0 0 0-1.26-.64 1.91 1.91 0 0 1-1.33-1.82 1.92 1.92 0 0 1 2.5-1.82 8.16 8.16 0 0 1 2.32 1.17 8.63 8.63 0 0 1 3.57 7 9 9 0 0 1-.43 2.73 9.11 9.11 0 0 1-1.25 2.47 8.74 8.74 0 0 1-4.2 3.16 19.64 19.64 0 0 1-4.21 1M21.43 118.4"/><path class="cls-1" d="M45.23 177.5c5.77-1.22 8.34-3.42 9.77-5.42a12.16 12.16 0 0 0 2.26-7.08 11.56 11.56 0 0 0-4.73-9.39 11 11 0 0 0-3.05-1.53 4.57 4.57 0 0 0-2.92 0 4.84 4.84 0 0 0-2.36 1.77 5.19 5.19 0 0 0-.71 1.41 5 5 0 0 0-.25 1.56 4.83 4.83 0 0 0 2 3.92 5 5 0 0 0 1.26.63 1.9 1.9 0 0 1 1.33 1.82 2.06 2.06 0 0 1-.09.59 1.91 1.91 0 0 1-1.82 1.32 1.77 1.77 0 0 1-.59-.09 8.43 8.43 0 0 1-2.33-1.1 8.62 8.62 0 0 1-3.56-7 9 9 0 0 1 1.67-5.2 8.77 8.77 0 0 1 4.21-3.16m-.87-3a9.7 9.7 0 0 0-5.89 4.31 12 12 0 0 0-1.56 3.31 12.94 12.94 0 0 0-.4 3.83 11.51 11.51 0 0 0 4.74 9.38 11 11 0 0 0 2.95 1.8 4.42 4.42 0 0 0 1.41.21 4.92 4.92 0 0 0 1.65-.27 5.36 5.36 0 0 0 2.32-2 5.16 5.16 0 0 0 .7-1.41 5 5 0 0 0 .25-1.56 4.81 4.81 0 0 0-2-3.91 4.4 4.4 0 0 0-1.26-.64 1.91 1.91 0 0 1-1.33-1.82 1.92 1.92 0 0 1 2.5-1.82 8.16 8.16 0 0 1 2.32 1.17 8.63 8.63 0 0 1 3.57 7 8.89 8.89 0 0 1-1.68 5.2 8.68 8.68 0 0 1-4.2 3.16 19.64 19.64 0 0 1-4.21 1m.9-77.88C51 95.4 53.57 93.19 55 91.19a12.1 12.1 0 0 0 1.68-3.35 12 12 0 0 0 .58-3.7 11.56 11.56 0 0 0-4.73-9.39 11 11 0 0 0-3.05-1.53 4.57 4.57 0 0 0-2.92 0A4.9 4.9 0 0 0 44.2 75a5.19 5.19 0 0 0-.71 1.41 5 5 0 0 0-.25 1.59 4.82 4.82 0 0 0 2 3.92 4.65 4.65 0 0 0 1.26.63 1.9 1.9 0 0 1 1.33 1.82 2 2 0 0 1-.09.59 1.91 1.91 0 0 1-1.82 1.33 1.78 1.78 0 0 1-.59-.1A8.46 8.46 0 0 1 39.42 78a9.1 9.1 0 0 1 1.67-5.2 8.69 8.69 0 0 1 4.21-3.15m-.87-3a9.7 9.7 0 0 0-5.89 4.31A12 12 0 0 0 37 74.29a12.84 12.84 0 0 0-.39 3.83 11.51 11.51 0 0 0 4.74 9.38 11 11 0 0 0 2.95 1.8 4.42 4.42 0 0 0 1.41.21 4.92 4.92 0 0 0 1.65-.27 5.34 5.34 0 0 0 2.32-2 5.46 5.46 0 0 0 .7-1.41 5.08 5.08 0 0 0 .25-1.56 4.82 4.82 0 0 0-2-3.92 4.38 4.38 0 0 0-1.26-.63 1.91 1.91 0 0 1-1.33-1.82 2 2 0 0 1 .09-.59A1.93 1.93 0 0 1 48 76a2 2 0 0 1 .59.09 8.43 8.43 0 0 1 2.32 1.17 8.64 8.64 0 0 1 3.57 7 8.89 8.89 0 0 1-1.68 5.2 8.68 8.68 0 0 1-4.2 3.16 19.64 19.64 0 0 1-4.21 1m-7.77-14.83L21.43 64.47"/><path class="cls-1" d="M45.23 123.57c5.77-1.21 8.34-3.42 9.77-5.42a12.1 12.1 0 0 0 1.68-3.35 12 12 0 0 0 .58-3.7 11.56 11.56 0 0 0-4.73-9.39 11 11 0 0 0-3.05-1.53 4.57 4.57 0 0 0-2.92 0A4.9 4.9 0 0 0 44.2 102a5.19 5.19 0 0 0-.71 1.41 5.08 5.08 0 0 0-.25 1.56 4.82 4.82 0 0 0 2 3.92 4.65 4.65 0 0 0 1.26.63 1.91 1.91 0 0 1 1.33 1.82 2 2 0 0 1-.09.59 1.91 1.91 0 0 1-1.82 1.33 1.78 1.78 0 0 1-.59-.1 8.46 8.46 0 0 1-5.91-8.16 9.1 9.1 0 0 1 1.67-5.21 8.69 8.69 0 0 1 4.21-3.15m-.87-3a9.78 9.78 0 0 0-5.89 4.31 12 12 0 0 0-1.54 3.3 12.84 12.84 0 0 0-.39 3.83 11.54 11.54 0 0 0 4.74 9.39 11.2 11.2 0 0 0 2.95 1.79 4.43 4.43 0 0 0 1.41.22 5.19 5.19 0 0 0 1.65-.27 6 6 0 0 0 3-3.43 5.08 5.08 0 0 0 .25-1.56 4.82 4.82 0 0 0-2-3.92 4.38 4.38 0 0 0-1.26-.63 1.91 1.91 0 0 1-1.33-1.82 2 2 0 0 1 .09-.59 1.93 1.93 0 0 1 1.89-1.33 2 2 0 0 1 .59.09 8.52 8.52 0 0 1 5.89 8.2A9 9 0 0 1 54 114a9.26 9.26 0 0 1-1.25 2.47 8.66 8.66 0 0 1-4.2 3.15 19.64 19.64 0 0 1-4.21 1m.89-77.94c5.77-1.21 8.34-3.42 9.77-5.41a12.3 12.3 0 0 0 1.68-3.36 12 12 0 0 0 .58-3.7 11.53 11.53 0 0 0-4.73-9.38 10.8 10.8 0 0 0-3.05-1.54 4.57 4.57 0 0 0-2.92 0 4.86 4.86 0 0 0-2.36 1.78 4.91 4.91 0 0 0-.71 1.41 5 5 0 0 0-.25 1.55 4.82 4.82 0 0 0 2 3.92 4.67 4.67 0 0 0 1.26.64 1.9 1.9 0 0 1 1.33 1.82 2 2 0 0 1-.09.58 1.91 1.91 0 0 1-1.82 1.33 2.06 2.06 0 0 1-.59-.09A8.72 8.72 0 0 1 43 31.1a8.63 8.63 0 0 1-3.56-7 8.88 8.88 0 0 1 .43-2.72 8.61 8.61 0 0 1 1.24-2.48 8.71 8.71 0 0 1 4.21-3.16m-.87-3A9.73 9.73 0 0 0 38.54 17 12.08 12.08 0 0 0 37 20.36a12.84 12.84 0 0 0-.39 3.83 11.54 11.54 0 0 0 4.74 9.39 11.23 11.23 0 0 0 2.95 1.8 4.72 4.72 0 0 0 1.41.21 5.19 5.19 0 0 0 1.65-.27 6 6 0 0 0 3-3.43 5 5 0 0 0 .25-1.56 4.82 4.82 0 0 0-2-3.92 4.38 4.38 0 0 0-1.26-.63A1.91 1.91 0 0 1 46.06 24a2.06 2.06 0 0 1 .09-.59A1.92 1.92 0 0 1 48 22.05a1.69 1.69 0 0 1 .59.09 8.41 8.41 0 0 1 2.32 1.16 8.66 8.66 0 0 1 3.57 7 9 9 0 0 1-.48 2.76 9.26 9.26 0 0 1-1.25 2.47 8.66 8.66 0 0 1-4.2 3.15 19.64 19.64 0 0 1-4.21 1m-7.72-14.82L21.43 10.54"/><path class="cls-1" d="M45.23 69.65c5.77-1.22 8.34-3.43 9.77-5.42a12.24 12.24 0 0 0 1.68-3.35 12.06 12.06 0 0 0 .58-3.71 11.54 11.54 0 0 0-4.73-9.38 11.07 11.07 0 0 0-3.05-1.54 4.57 4.57 0 0 0-2.92 0 4.86 4.86 0 0 0-2.36 1.78 4.91 4.91 0 0 0-.71 1.41 5 5 0 0 0-.25 1.56 4.8 4.8 0 0 0 2 3.91 4.67 4.67 0 0 0 1.26.64 1.9 1.9 0 0 1 1.33 1.82 2 2 0 0 1-.09.58 1.91 1.91 0 0 1-1.82 1.33 2.06 2.06 0 0 1-.59-.09A8.43 8.43 0 0 1 43 58.06a8.62 8.62 0 0 1-3.56-7 8.92 8.92 0 0 1 .43-2.72 8.61 8.61 0 0 1 1.24-2.48 8.71 8.71 0 0 1 4.21-3.16m-.87-3a9.7 9.7 0 0 0-5.91 4.3A11.89 11.89 0 0 0 37 47.32a12.87 12.87 0 0 0-.39 3.83 11.53 11.53 0 0 0 4.74 9.39 11.23 11.23 0 0 0 2.95 1.8 4.72 4.72 0 0 0 1.41.21 5.19 5.19 0 0 0 1.65-.27 6 6 0 0 0 3-3.43 5 5 0 0 0 .25-1.56 4.83 4.83 0 0 0-2-3.92 4.65 4.65 0 0 0-1.26-.63 1.91 1.91 0 0 1-1.33-1.82 2.06 2.06 0 0 1 .09-.59A1.92 1.92 0 0 1 48 49a2 2 0 0 1 .59.09 8.16 8.16 0 0 1 2.32 1.17 8.63 8.63 0 0 1 3.57 7A9 9 0 0 1 54 60a9.26 9.26 0 0 1-1.25 2.47 8.74 8.74 0 0 1-4.2 3.16 19.62 19.62 0 0 1-4.21 1m-7.72-14.81L21.43 37.51m47.95 397.76a8.78 8.78 0 0 1 5.45 5.64 8.92 8.92 0 0 1 .43 2.72 8.62 8.62 0 0 1-3.56 7 8.43 8.43 0 0 1-2.32 1.17 2.06 2.06 0 0 1-.59.09 1.9 1.9 0 0 1-1.79-1.31 2 2 0 0 1-.09-.58 1.9 1.9 0 0 1 1.33-1.82 4.67 4.67 0 0 0 1.26-.64 4.83 4.83 0 0 0 2-3.91 5 5 0 0 0-.25-1.56 5.19 5.19 0 0 0-.71-1.41 4.92 4.92 0 0 0-2.36-1.78 5.21 5.21 0 0 0-1.52-.26 5.3 5.3 0 0 0-1.4.22 11.36 11.36 0 0 0-3.05 1.54 11.56 11.56 0 0 0-4.73 9.39 12 12 0 0 0 .58 3.7 12.24 12.24 0 0 0 1.68 3.35c1.43 2 4 4.2 9.77 5.42m.87-3a19.64 19.64 0 0 1-4.21-1 8.74 8.74 0 0 1-4.2-3.16 8.83 8.83 0 0 1-1.25-2.47 9 9 0 0 1-.43-2.73 8.63 8.63 0 0 1 3.57-7 8.16 8.16 0 0 1 2.32-1.17 2 2 0 0 1 .59-.09 1.91 1.91 0 0 1 .58 3.73A4.4 4.4 0 0 0 66 446a4.8 4.8 0 0 0-2 3.91 5 5 0 0 0 .25 1.56 5.16 5.16 0 0 0 .7 1.41 5.43 5.43 0 0 0 2.32 2 5.19 5.19 0 0 0 1.65.27 4.72 4.72 0 0 0 1.41-.21 11 11 0 0 0 3-1.8 11.52 11.52 0 0 0 4.74-9.38 12.9 12.9 0 0 0-.39-3.84 11.89 11.89 0 0 0-1.55-3.36 9.7 9.7 0 0 0-5.89-4.31m23.01-2.15"/><path class="cls-1" d="M69.38 462.23a8.77 8.77 0 0 1 4.21 3.16 9 9 0 0 1 1.67 5.2 8.62 8.62 0 0 1-3.56 7 8.43 8.43 0 0 1-2.32 1.17 1.77 1.77 0 0 1-.59.09 1.91 1.91 0 0 1-1.79-1.3 2.06 2.06 0 0 1-.09-.59 1.9 1.9 0 0 1 1.33-1.82 5 5 0 0 0 1.26-.63 4.86 4.86 0 0 0 2-3.92 5 5 0 0 0-.25-1.56 5.19 5.19 0 0 0-.71-1.41 4.84 4.84 0 0 0-2.36-1.77 4.57 4.57 0 0 0-2.92 0 11 11 0 0 0-3.05 1.53 11.56 11.56 0 0 0-4.73 9.39 12.16 12.16 0 0 0 2.26 7c1.43 2 4 4.2 9.77 5.42m.87-3a19.64 19.64 0 0 1-4.21-1 8.87 8.87 0 0 1-5.45-5.63 8.89 8.89 0 0 1-.43-2.73 8.63 8.63 0 0 1 3.57-7 8.16 8.16 0 0 1 2.32-1.17 2 2 0 0 1 .59-.09 1.91 1.91 0 0 1 .58 3.73 4.4 4.4 0 0 0-1.26.64 4.81 4.81 0 0 0-2 3.91 5 5 0 0 0 .25 1.56 5.16 5.16 0 0 0 .7 1.41 5.36 5.36 0 0 0 2.32 2 4.92 4.92 0 0 0 1.65.27 4.42 4.42 0 0 0 1.41-.21 11 11 0 0 0 3-1.8 11.51 11.51 0 0 0 4.74-9.38 12.94 12.94 0 0 0-.39-3.84 12 12 0 0 0-1.55-3.36 9.7 9.7 0 0 0-5.89-4.31m7.81 12.18l15.19-14.32m-23.95-75.7a8.69 8.69 0 0 1 4.21 3.15 9.1 9.1 0 0 1 1.67 5.2 8.46 8.46 0 0 1-5.88 8.19 1.78 1.78 0 0 1-.59.1 1.91 1.91 0 0 1-1.79-1.33 2 2 0 0 1-.09-.59 1.9 1.9 0 0 1 1.33-1.82 4.65 4.65 0 0 0 1.26-.63 4.84 4.84 0 0 0 2-3.92 5 5 0 0 0-.25-1.56 5.19 5.19 0 0 0-.71-1.41 4.9 4.9 0 0 0-2.42-1.73 4.57 4.57 0 0 0-2.92 0 11 11 0 0 0-3.05 1.53 11.56 11.56 0 0 0-4.73 9.39 12 12 0 0 0 .58 3.7 12.1 12.1 0 0 0 1.68 3.35c1.43 2 4 4.21 9.77 5.42m.87-3a19.64 19.64 0 0 1-4.21-1 8.87 8.87 0 0 1-5.45-5.63 8.89 8.89 0 0 1-.43-2.73 8.64 8.64 0 0 1 3.57-7 8.43 8.43 0 0 1 2.32-1.17 2 2 0 0 1 .59-.09 1.93 1.93 0 0 1 1.82 1.23 2 2 0 0 1 .09.59 1.91 1.91 0 0 1-1.33 1.82A4.38 4.38 0 0 0 66 392a4.82 4.82 0 0 0-2 3.92 5.08 5.08 0 0 0 .25 1.56 5.46 5.46 0 0 0 .7 1.41 5.34 5.34 0 0 0 2.32 2 4.92 4.92 0 0 0 1.65.27 4.42 4.42 0 0 0 1.41-.21 11 11 0 0 0 3-1.8 11.51 11.51 0 0 0 4.74-9.38 12.84 12.84 0 0 0-.39-3.83 12 12 0 0 0-1.55-3.37 9.7 9.7 0 0 0-5.89-4.31m7.81 12.18l15.19-14.32"/><path class="cls-1" d="M69.38 408.31a8.69 8.69 0 0 1 4.21 3.15 9.1 9.1 0 0 1 1.67 5.21 8.46 8.46 0 0 1-5.88 8.18 1.78 1.78 0 0 1-.59.1 1.91 1.91 0 0 1-1.79-1.33 2 2 0 0 1-.09-.59 1.91 1.91 0 0 1 1.33-1.82 4.65 4.65 0 0 0 1.26-.63 4.84 4.84 0 0 0 2-3.92 5.08 5.08 0 0 0-.25-1.56 5.19 5.19 0 0 0-.71-1.41 4.9 4.9 0 0 0-2.36-1.77 4.57 4.57 0 0 0-2.92 0 11 11 0 0 0-3.05 1.53 11.56 11.56 0 0 0-4.73 9.39 12 12 0 0 0 .58 3.7 12.1 12.1 0 0 0 1.68 3.35c1.43 2 4 4.21 9.77 5.42m.87-3a19.64 19.64 0 0 1-4.21-1 8.66 8.66 0 0 1-4.2-3.15 8.89 8.89 0 0 1-1.68-5.2 8.66 8.66 0 0 1 3.57-7 8.41 8.41 0 0 1 2.32-1.16 1.7 1.7 0 0 1 .59-.1 1.93 1.93 0 0 1 1.76 1.3 2 2 0 0 1 .09.59 1.91 1.91 0 0 1-1.33 1.82A4.38 4.38 0 0 0 66 419a4.82 4.82 0 0 0-2 3.92 5.08 5.08 0 0 0 .25 1.56 6 6 0 0 0 3 3.43 5.19 5.19 0 0 0 1.65.27 4.43 4.43 0 0 0 1.41-.22 10.94 10.94 0 0 0 3-1.79 11.54 11.54 0 0 0 4.74-9.39 12.84 12.84 0 0 0-.39-3.83 12 12 0 0 0-1.55-3.37 9.78 9.78 0 0 0-5.89-4.31m7.81 12.18l15.19-14.32m-23.84-75.71a8.71 8.71 0 0 1 4.21 3.16 8.61 8.61 0 0 1 1.24 2.48 8.88 8.88 0 0 1 .43 2.72 8.63 8.63 0 0 1-3.56 7 8.72 8.72 0 0 1-2.32 1.22 2.06 2.06 0 0 1-.59.09 1.91 1.91 0 0 1-1.79-1.36 2 2 0 0 1-.09-.58 1.9 1.9 0 0 1 1.33-1.82 4.67 4.67 0 0 0 1.26-.64 4.84 4.84 0 0 0 2-3.92 5 5 0 0 0-.25-1.55 4.91 4.91 0 0 0-.71-1.41 4.86 4.86 0 0 0-2.42-1.81 4.57 4.57 0 0 0-2.92 0 10.8 10.8 0 0 0-3.05 1.54 11.53 11.53 0 0 0-4.73 9.38 12 12 0 0 0 .58 3.7 12.3 12.3 0 0 0 1.68 3.38c1.43 2 4 4.2 9.77 5.41m.87-3a19.64 19.64 0 0 1-4.21-1 8.66 8.66 0 0 1-4.2-3.15 8.89 8.89 0 0 1-1.68-5.2 8.66 8.66 0 0 1 3.57-7 8.41 8.41 0 0 1 2.32-1.16 1.69 1.69 0 0 1 .59-.09 1.92 1.92 0 0 1 1.82 1.32 2.06 2.06 0 0 1 .09.59 1.91 1.91 0 0 1-1.33 1.82 4.38 4.38 0 0 0-1.26.63 4.82 4.82 0 0 0-2 3.92 5 5 0 0 0 .25 1.56 6 6 0 0 0 3 3.43 5.19 5.19 0 0 0 1.65.27 4.72 4.72 0 0 0 1.41-.21 11.23 11.23 0 0 0 3-1.8 11.54 11.54 0 0 0 4.74-9.39 12.84 12.84 0 0 0-.39-3.83 12.08 12.08 0 0 0-1.55-3.37 9.73 9.73 0 0 0-5.89-4.3m7.81 12.17l15.19-14.32"/><path class="cls-1" d="M69.38 354.38a8.71 8.71 0 0 1 4.21 3.16 8.61 8.61 0 0 1 1.24 2.46 8.92 8.92 0 0 1 .43 2.72 8.62 8.62 0 0 1-3.56 7 8.43 8.43 0 0 1-2.32 1.17 2.06 2.06 0 0 1-.59.09 1.91 1.91 0 0 1-1.79-1.29 2 2 0 0 1-.09-.58 1.9 1.9 0 0 1 1.33-1.82 4.67 4.67 0 0 0 1.26-.64 4.83 4.83 0 0 0 2-3.91 5 5 0 0 0-.25-1.56 4.91 4.91 0 0 0-.71-1.41 4.86 4.86 0 0 0-2.42-1.77 4.57 4.57 0 0 0-2.92 0 11.07 11.07 0 0 0-3.05 1.54 11.54 11.54 0 0 0-4.73 9.38 12.06 12.06 0 0 0 .58 3.71 12.24 12.24 0 0 0 1.68 3.35c1.43 2 4 4.2 9.77 5.42m.87-3a19.62 19.62 0 0 1-4.21-1 8.74 8.74 0 0 1-4.2-3.16 8.89 8.89 0 0 1-1.68-5.2 8.63 8.63 0 0 1 3.57-7 8.16 8.16 0 0 1 2.32-1.17 2 2 0 0 1 .59-.09 1.92 1.92 0 0 1 1.82 1.22 2.06 2.06 0 0 1 .09.59 1.91 1.91 0 0 1-1.33 1.82 4.65 4.65 0 0 0-1.26.63 4.83 4.83 0 0 0-2 3.92 5 5 0 0 0 .25 1.56 6 6 0 0 0 3 3.43 5.19 5.19 0 0 0 1.65.27 4.72 4.72 0 0 0 1.41-.21 11.23 11.23 0 0 0 3-1.8 11.53 11.53 0 0 0 4.74-9.39 12.87 12.87 0 0 0-.39-3.83 11.89 11.89 0 0 0-1.55-3.36 9.7 9.7 0 0 0-5.89-4.31m7.81 12.17l15.19-14.31m-23.87-75.69a8.77 8.77 0 0 1 4.21 3.16 9 9 0 0 1 1.67 5.2 8.62 8.62 0 0 1-3.56 7 8.43 8.43 0 0 1-2.32 1.15 2.06 2.06 0 0 1-.59.09 1.91 1.91 0 0 1-1.79-1.28 2.06 2.06 0 0 1-.09-.59 1.9 1.9 0 0 1 1.33-1.82 4.67 4.67 0 0 0 1.26-.64 4.83 4.83 0 0 0 2-3.91 5 5 0 0 0-.25-1.56 5.19 5.19 0 0 0-.71-1.41 4.84 4.84 0 0 0-2.36-1.77 4.62 4.62 0 0 0-1.52-.26 4.9 4.9 0 0 0-1.4.21 11.36 11.36 0 0 0-3.05 1.54 11.56 11.56 0 0 0-4.79 9.4 12.16 12.16 0 0 0 2.26 7c1.43 2 4 4.2 9.77 5.42m.87-3a19.64 19.64 0 0 1-4.21-1 8.87 8.87 0 0 1-5.45-5.63 8.89 8.89 0 0 1-.43-2.73 8.63 8.63 0 0 1 3.57-7 8.16 8.16 0 0 1 2.32-1.17 2 2 0 0 1 .59-.09 1.91 1.91 0 0 1 .58 3.73 4.4 4.4 0 0 0-1.26.64 4.8 4.8 0 0 0-2 3.91 5 5 0 0 0 .25 1.56 5.16 5.16 0 0 0 .7 1.41 5.43 5.43 0 0 0 2.32 2 4.92 4.92 0 0 0 1.65.27 4.72 4.72 0 0 0 1.41-.21 11 11 0 0 0 3-1.8 11.51 11.51 0 0 0 4.72-9.31 12.94 12.94 0 0 0-.39-3.84 12 12 0 0 0-1.55-3.36 9.7 9.7 0 0 0-5.89-4.31m7.81 12.18l15.19-14.32"/><path class="cls-1" d="M69.38 300.45a8.92 8.92 0 0 1 5.88 8.36 8.62 8.62 0 0 1-3.56 7 8.43 8.43 0 0 1-2.32 1.19 1.77 1.77 0 0 1-.59.09 1.91 1.91 0 0 1-1.79-1.32 2 2 0 0 1-.09-.59 1.9 1.9 0 0 1 1.33-1.82 4.65 4.65 0 0 0 1.26-.63 4.84 4.84 0 0 0 2-3.92 5 5 0 0 0-.25-1.56 5.19 5.19 0 0 0-.71-1.41 4.84 4.84 0 0 0-2.36-1.77 4.57 4.57 0 0 0-2.92 0 11 11 0 0 0-3.05 1.53 11.56 11.56 0 0 0-4.79 9.4 12 12 0 0 0 .58 3.7 12.1 12.1 0 0 0 1.68 3.3c1.43 2 4 4.2 9.77 5.42m.87-3a19.64 19.64 0 0 1-4.21-1 8.87 8.87 0 0 1-5.45-5.63 8.89 8.89 0 0 1-.43-2.73 8.64 8.64 0 0 1 3.57-7 8.43 8.43 0 0 1 2.32-1.17 2 2 0 0 1 .59-.09 1.91 1.91 0 0 1 .58 3.73 4.4 4.4 0 0 0-1.26.64 4.81 4.81 0 0 0-2 3.91 5 5 0 0 0 .25 1.56A5.16 5.16 0 0 0 65 318a5.36 5.36 0 0 0 2.32 2 4.92 4.92 0 0 0 1.65.27 4.42 4.42 0 0 0 1.41-.21 11 11 0 0 0 3-1.8 11.51 11.51 0 0 0 4.74-9.38 12.94 12.94 0 0 0-.39-3.84 12 12 0 0 0-1.55-3.36 9.7 9.7 0 0 0-5.89-4.31m7.81 12.18l15.19-14.32m-23.91-75.66a8.69 8.69 0 0 1 4.21 3.15 9.1 9.1 0 0 1 1.67 5.2 8.46 8.46 0 0 1-5.88 8.19 1.78 1.78 0 0 1-.59.1 1.91 1.91 0 0 1-1.79-1.33 2 2 0 0 1-.09-.59 1.9 1.9 0 0 1 1.33-1.82 4.65 4.65 0 0 0 1.26-.63 4.84 4.84 0 0 0 2-3.92 5 5 0 0 0-.25-1.56 5.19 5.19 0 0 0-.71-1.41 4.9 4.9 0 0 0-2.36-1.77 4.57 4.57 0 0 0-2.92 0 11 11 0 0 0-3.05 1.53 11.56 11.56 0 0 0-4.73 9.39 12 12 0 0 0 .58 3.7 12.1 12.1 0 0 0 1.68 3.35c1.43 2 4 4.21 9.77 5.42m.87-3a19.64 19.64 0 0 1-4.21-1 8.68 8.68 0 0 1-4.2-3.16 8.78 8.78 0 0 1-1.25-2.46 9 9 0 0 1-.43-2.73 8.52 8.52 0 0 1 5.89-8.2 2 2 0 0 1 .59-.09 1.93 1.93 0 0 1 1.82 1.33 2 2 0 0 1 .09.59 1.91 1.91 0 0 1-1.33 1.82 4.38 4.38 0 0 0-1.26.63 4.82 4.82 0 0 0-2 3.92 5.08 5.08 0 0 0 .25 1.56 5.46 5.46 0 0 0 .7 1.41 5.34 5.34 0 0 0 2.32 2 4.93 4.93 0 0 0 1.65.28 4.43 4.43 0 0 0 1.41-.22 11.2 11.2 0 0 0 3-1.79 11.54 11.54 0 0 0 4.66-9.46 12.84 12.84 0 0 0-.39-3.83 12 12 0 0 0-1.55-3.37 9.74 9.74 0 0 0-5.89-4.31m7.81 12.18l15.19-14.32"/><path class="cls-1" d="M69.38 246.53a8.72 8.72 0 0 1 5.45 5.64 8.88 8.88 0 0 1 .43 2.72 8.46 8.46 0 0 1-5.88 8.18 1.78 1.78 0 0 1-.59.1 1.91 1.91 0 0 1-1.79-1.33 2 2 0 0 1-.09-.59 1.92 1.92 0 0 1 1.33-1.82 4.65 4.65 0 0 0 1.26-.63 4.84 4.84 0 0 0 2-3.92 5 5 0 0 0-.25-1.55 5.11 5.11 0 0 0-.71-1.42 4.9 4.9 0 0 0-2.36-1.77 4.57 4.57 0 0 0-2.92 0 11 11 0 0 0-3.05 1.53 11.56 11.56 0 0 0-4.79 9.33 12 12 0 0 0 .58 3.7 12.1 12.1 0 0 0 1.68 3.35c1.43 2 4 4.21 9.77 5.42m.87-3a19.64 19.64 0 0 1-4.21-1 8.66 8.66 0 0 1-4.2-3.15 8.89 8.89 0 0 1-1.68-5.2 8.66 8.66 0 0 1 3.57-7 8.41 8.41 0 0 1 2.32-1.12 1.7 1.7 0 0 1 .59-.1 1.93 1.93 0 0 1 1.82 1.33 2 2 0 0 1 .09.59 1.91 1.91 0 0 1-1.33 1.82 4.38 4.38 0 0 0-1.26.63 4.82 4.82 0 0 0-2 3.92 5 5 0 0 0 .25 1.56 6 6 0 0 0 3 3.43 5.19 5.19 0 0 0 1.65.27 4.43 4.43 0 0 0 1.41-.22 10.94 10.94 0 0 0 3-1.79 11.54 11.54 0 0 0 4.74-9.44 12.84 12.84 0 0 0-.39-3.83 12 12 0 0 0-1.55-3.37 9.73 9.73 0 0 0-5.89-4.3m7.81 12.17l15.19-14.32m-23.87-75.71a8.71 8.71 0 0 1 4.21 3.16 8.61 8.61 0 0 1 1.24 2.48 8.88 8.88 0 0 1 .43 2.72 8.62 8.62 0 0 1-3.56 7 8.72 8.72 0 0 1-2.32 1.17 2.06 2.06 0 0 1-.59.09A1.91 1.91 0 0 1 67 181a2 2 0 0 1-.09-.58 1.9 1.9 0 0 1 1.33-1.82 4.67 4.67 0 0 0 1.26-.64 4.84 4.84 0 0 0 2-3.91 5 5 0 0 0-.25-1.56 4.91 4.91 0 0 0-.71-1.41 4.86 4.86 0 0 0-2.36-1.78 4.57 4.57 0 0 0-2.92 0 10.8 10.8 0 0 0-3.05 1.54 11.53 11.53 0 0 0-4.73 9.38 12.06 12.06 0 0 0 .58 3.71 12.38 12.38 0 0 0 1.68 3.35c1.43 2 4 4.2 9.77 5.42m.87-3a19.62 19.62 0 0 1-4.21-1 8.74 8.74 0 0 1-4.2-3.16 8.89 8.89 0 0 1-1.68-5.2 8.63 8.63 0 0 1 3.57-7 8.16 8.16 0 0 1 2.32-1.17 2 2 0 0 1 .59-.09 1.92 1.92 0 0 1 1.82 1.32 2.06 2.06 0 0 1 .09.59 1.91 1.91 0 0 1-1.33 1.82 4.38 4.38 0 0 0-1.26.63 4.83 4.83 0 0 0-2 3.92 5 5 0 0 0 .25 1.56 6 6 0 0 0 3 3.43 5.19 5.19 0 0 0 1.65.27 4.72 4.72 0 0 0 1.41-.21 11.23 11.23 0 0 0 3-1.8 11.54 11.54 0 0 0 4.74-9.39 12.87 12.87 0 0 0-.39-3.83 12.08 12.08 0 0 0-1.55-3.37 9.73 9.73 0 0 0-5.89-4.3m7.81 12.17l15.19-14.32"/><path class="cls-1" d="M69.38 192.6a8.71 8.71 0 0 1 4.21 3.16 8.61 8.61 0 0 1 1.24 2.48 8.92 8.92 0 0 1 .43 2.72 8.62 8.62 0 0 1-3.56 7 8.43 8.43 0 0 1-2.32 1.17 2.06 2.06 0 0 1-.59.09 1.91 1.91 0 0 1-1.79-1.31 2 2 0 0 1-.09-.58 1.9 1.9 0 0 1 1.33-1.82 4.67 4.67 0 0 0 1.26-.64 4.83 4.83 0 0 0 2-3.91 5 5 0 0 0-.25-1.56 5 5 0 0 0-.71-1.41 4.92 4.92 0 0 0-2.36-1.78 4.57 4.57 0 0 0-2.92 0 11.07 11.07 0 0 0-3.05 1.54 11.54 11.54 0 0 0-4.73 9.38 12 12 0 0 0 .52 3.67 12.24 12.24 0 0 0 1.68 3.35c1.43 2 4 4.2 9.77 5.42m.87-3a19.62 19.62 0 0 1-4.21-1 8.74 8.74 0 0 1-4.2-3.16 8.89 8.89 0 0 1-1.68-5.2 8.63 8.63 0 0 1 3.57-7 8.16 8.16 0 0 1 2.32-1.21 2 2 0 0 1 .59-.09 1.94 1.94 0 0 1 1.82 1.32 2.06 2.06 0 0 1 .09.59 1.91 1.91 0 0 1-1.33 1.82 4.65 4.65 0 0 0-1.26.63 4.83 4.83 0 0 0-2 3.92 5 5 0 0 0 .25 1.56 6 6 0 0 0 3 3.43 5.19 5.19 0 0 0 1.65.27 4.72 4.72 0 0 0 1.41-.21 11.23 11.23 0 0 0 3-1.8 11.53 11.53 0 0 0 4.74-9.39 12.87 12.87 0 0 0-.39-3.83 11.89 11.89 0 0 0-1.55-3.36 9.7 9.7 0 0 0-5.89-4.31m7.81 12.17l15.19-14.31m-23.87-75.7a8.77 8.77 0 0 1 4.21 3.16 9 9 0 0 1 1.67 5.2 8.62 8.62 0 0 1-3.56 7 8.43 8.43 0 0 1-2.32 1.17 1.77 1.77 0 0 1-.59.09A1.91 1.91 0 0 1 67 127a2.06 2.06 0 0 1-.09-.59 1.9 1.9 0 0 1 1.33-1.82 5 5 0 0 0 1.26-.63 4.86 4.86 0 0 0 2-3.92 5 5 0 0 0-.25-1.56 5.19 5.19 0 0 0-.71-1.41 4.84 4.84 0 0 0-2.36-1.77 4.57 4.57 0 0 0-2.92 0 11 11 0 0 0-3.05 1.53 11.56 11.56 0 0 0-4.73 9.39 12.16 12.16 0 0 0 2.26 7c1.43 2 4 4.2 9.77 5.42m.87-3a19.64 19.64 0 0 1-4.21-1 8.87 8.87 0 0 1-5.45-5.63 8.89 8.89 0 0 1-.43-2.73 8.63 8.63 0 0 1 3.57-7 8.16 8.16 0 0 1 2.32-1.17 2 2 0 0 1 .59-.09 1.91 1.91 0 0 1 .58 3.73 4.4 4.4 0 0 0-1.26.64 4.81 4.81 0 0 0-2 3.91 5 5 0 0 0 .25 1.56 5.16 5.16 0 0 0 .7 1.41 5.36 5.36 0 0 0 2.32 2 4.92 4.92 0 0 0 1.65.27 4.72 4.72 0 0 0 1.41-.21 11 11 0 0 0 3-1.8 11.51 11.51 0 0 0 4.74-9.38 12.94 12.94 0 0 0-.39-3.84 12 12 0 0 0-1.63-3.31 9.7 9.7 0 0 0-5.89-4.31m7.81 12.18l15.19-14.32"/><path class="cls-1" d="M69.38 138.67a8.92 8.92 0 0 1 5.88 8.33 8.46 8.46 0 0 1-5.88 8.19 1.54 1.54 0 0 1-.59.09A1.89 1.89 0 0 1 67 154a2 2 0 0 1-.09-.59 1.9 1.9 0 0 1 1.33-1.82 4.65 4.65 0 0 0 1.26-.63 4.84 4.84 0 0 0 2-3.92 5 5 0 0 0-.25-1.56 5.19 5.19 0 0 0-.71-1.41 4.84 4.84 0 0 0-2.36-1.77 4.57 4.57 0 0 0-2.92 0 11 11 0 0 0-3.05 1.53 11.56 11.56 0 0 0-4.73 9.39 12 12 0 0 0 .58 3.7 12.1 12.1 0 0 0 1.68 3.35c1.43 2 4 4.2 9.77 5.42m.87-3a19.64 19.64 0 0 1-4.21-1 8.87 8.87 0 0 1-5.51-5.69 8.89 8.89 0 0 1-.43-2.73 8.64 8.64 0 0 1 3.57-7 8.43 8.43 0 0 1 2.32-1.17 2 2 0 0 1 .59-.09 1.91 1.91 0 0 1 .58 3.73 4.4 4.4 0 0 0-1.26.64 4.82 4.82 0 0 0-2 3.92 5.08 5.08 0 0 0 .25 1.56 5.24 5.24 0 0 0 .7 1.4 5.36 5.36 0 0 0 2.32 2 4.92 4.92 0 0 0 1.65.27 4.42 4.42 0 0 0 1.41-.21 11 11 0 0 0 3-1.8 11.51 11.51 0 0 0 4.74-9.38 12.94 12.94 0 0 0-.39-3.84 12 12 0 0 0-1.57-3.3 9.7 9.7 0 0 0-5.89-4.31m-.87-77.9a8.69 8.69 0 0 1 4.21 3.15 9.1 9.1 0 0 1 1.67 5.2 8.46 8.46 0 0 1-5.88 8.19 1.78 1.78 0 0 1-.59.1A1.91 1.91 0 0 1 67 73.1a2 2 0 0 1-.09-.59 1.9 1.9 0 0 1 1.33-1.82 4.65 4.65 0 0 0 1.26-.63 4.84 4.84 0 0 0 2-3.92 5 5 0 0 0-.25-1.56 5.19 5.19 0 0 0-.71-1.41 4.9 4.9 0 0 0-2.36-1.77 4.57 4.57 0 0 0-2.92 0 11 11 0 0 0-3.05 1.53 11.56 11.56 0 0 0-4.73 9.39A12 12 0 0 0 58 76a12.1 12.1 0 0 0 1.68 3.35c1.43 2 4 4.21 9.77 5.42m.87-3a19.64 19.64 0 0 1-4.21-1 8.66 8.66 0 0 1-4.2-3.15 8.89 8.89 0 0 1-1.68-5.2 8.52 8.52 0 0 1 5.89-8.2 2 2 0 0 1 .59-.09 1.93 1.93 0 0 1 1.82 1.33 2 2 0 0 1 .09.59 1.91 1.91 0 0 1-1.33 1.82 4.38 4.38 0 0 0-1.26.63 4.82 4.82 0 0 0-2 3.92 5.08 5.08 0 0 0 .28 1.58 5.46 5.46 0 0 0 .7 1.41 5.34 5.34 0 0 0 2.32 2 4.93 4.93 0 0 0 1.65.28 4.43 4.43 0 0 0 1.41-.22 11.2 11.2 0 0 0 3-1.79 11.54 11.54 0 0 0 4.74-9.39 12.84 12.84 0 0 0-.39-3.83 12 12 0 0 0-1.55-3.37 9.78 9.78 0 0 0-5.89-4.31m22.95-2.17"/><path class="cls-1" d="M69.38 84.75a8.71 8.71 0 0 1 4.21 3.16 8.61 8.61 0 0 1 1.24 2.48 8.88 8.88 0 0 1 .43 2.72 8.63 8.63 0 0 1-3.56 7 9 9 0 0 1-2.32 1.17 2.06 2.06 0 0 1-.59.09 1.91 1.91 0 0 1-1.79-1.31 2 2 0 0 1-.09-.59 1.92 1.92 0 0 1 1.33-1.82 4.65 4.65 0 0 0 1.23-.65 4.84 4.84 0 0 0 2-3.92 5 5 0 0 0-.25-1.55 5.11 5.11 0 0 0-.71-1.42 4.9 4.9 0 0 0-2.36-1.77 4.57 4.57 0 0 0-2.92 0 11 11 0 0 0-3.05 1.53 11.56 11.56 0 0 0-4.73 9.39 12 12 0 0 0 .58 3.7 12.1 12.1 0 0 0 1.68 3.35c1.43 2 4 4.21 9.77 5.42m.87-3a19.64 19.64 0 0 1-4.21-1 8.66 8.66 0 0 1-4.2-3.15 8.89 8.89 0 0 1-1.68-5.2 8.66 8.66 0 0 1 3.57-7 8.41 8.41 0 0 1 2.32-1.16 1.7 1.7 0 0 1 .59-.1 1.93 1.93 0 0 1 1.82 1.33 2 2 0 0 1 .09.59 1.91 1.91 0 0 1-1.33 1.82 4.38 4.38 0 0 0-1.26.63 4.82 4.82 0 0 0-2 3.92 5 5 0 0 0 .25 1.56 6 6 0 0 0 3 3.43 5.19 5.19 0 0 0 1.65.27 4.43 4.43 0 0 0 1.41-.22 10.94 10.94 0 0 0 3-1.79 11.54 11.54 0 0 0 4.74-9.39 12.84 12.84 0 0 0-.39-3.83A12 12 0 0 0 76.14 86a9.73 9.73 0 0 0-5.89-4.3m16.39 338.47c5.77-1.22 8.34-3.42 9.77-5.42a12.1 12.1 0 0 0 1.68-3.35 12 12 0 0 0 .59-3.7 11.57 11.57 0 0 0-4.74-9.39 11 11 0 0 0-3-1.53 4.57 4.57 0 0 0-2.92 0 4.88 4.88 0 0 0-2.36 1.77 5.19 5.19 0 0 0-.76 1.45 5 5 0 0 0-.24 1.56 4.81 4.81 0 0 0 2 3.92 4.57 4.57 0 0 0 1.27.63 1.91 1.91 0 0 1 1.32 1.82 2 2 0 0 1-.09.59 1.89 1.89 0 0 1-1.82 1.32 1.54 1.54 0 0 1-.59-.09 8.43 8.43 0 0 1-2.32-1.17 8.65 8.65 0 0 1-3.56-7 8.84 8.84 0 0 1 5.88-8.36m-.87-3a9.65 9.65 0 0 0-5.88 4.26 11.76 11.76 0 0 0-1.56 3.36 12.94 12.94 0 0 0-.39 3.84 11.53 11.53 0 0 0 4.74 9.38 11.13 11.13 0 0 0 3 1.8 4.48 4.48 0 0 0 1.42.21 4.91 4.91 0 0 0 1.64-.27 5.36 5.36 0 0 0 2.32-2 4.71 4.71 0 0 0 .7-1.4 5.08 5.08 0 0 0 .25-1.56 4.82 4.82 0 0 0-2-3.92 4.4 4.4 0 0 0-1.26-.64 1.91 1.91 0 0 1-1.33-1.82 1.69 1.69 0 0 1 .1-.58 1.91 1.91 0 0 1 1.82-1.33 2 2 0 0 1 .58.09 8.43 8.43 0 0 1 2.32 1.17 8.64 8.64 0 0 1 3.57 7 9 9 0 0 1-1.67 5.2 8.75 8.75 0 0 1-4.25 3.16 19.64 19.64 0 0 1-4.21 1M78 402.35L62.84 388"/><path class="cls-1" d="M86.64 447.13c5.77-1.21 8.34-3.42 9.77-5.42a12.1 12.1 0 0 0 1.68-3.35 12 12 0 0 0 .59-3.7 11.57 11.57 0 0 0-4.74-9.39 11 11 0 0 0-3-1.53 4.57 4.57 0 0 0-2.92 0 5 5 0 0 0-2.36 1.77 5.19 5.19 0 0 0-.76 1.49 5 5 0 0 0-.24 1.56 4.81 4.81 0 0 0 2 3.92 4.57 4.57 0 0 0 1.27.63 1.91 1.91 0 0 1 1.32 1.82 2 2 0 0 1-.09.59 1.91 1.91 0 0 1-1.82 1.33 1.78 1.78 0 0 1-.59-.1 8.46 8.46 0 0 1-5.88-8.19 9.1 9.1 0 0 1 1.67-5.2 8.69 8.69 0 0 1 4.21-3.15m-.87-3a9.69 9.69 0 0 0-5.88 4.23 11.7 11.7 0 0 0-1.56 3.37 12.84 12.84 0 0 0-.39 3.83 11.53 11.53 0 0 0 4.7 9.36 11.13 11.13 0 0 0 3 1.8 4.49 4.49 0 0 0 1.42.22 4.91 4.91 0 0 0 1.64-.28 5.34 5.34 0 0 0 2.32-2 4.89 4.89 0 0 0 .7-1.41 5.08 5.08 0 0 0 .25-1.56 4.82 4.82 0 0 0-2-3.92 4.38 4.38 0 0 0-1.26-.63 1.91 1.91 0 0 1-1.33-1.82 1.7 1.7 0 0 1 .1-.59 1.91 1.91 0 0 1 1.82-1.33 2 2 0 0 1 .58.09 8.43 8.43 0 0 1 2.32 1.17 8.64 8.64 0 0 1 3.57 7 9 9 0 0 1-1.67 5.2 8.75 8.75 0 0 1-4.21 3.19 19.64 19.64 0 0 1-4.21 1M78 429.31L62.84 415m23.8-48.76c5.77-1.21 8.34-3.42 9.77-5.42a12.1 12.1 0 0 0 1.68-3.35 12 12 0 0 0 .59-3.7 11.57 11.57 0 0 0-4.74-9.39 11 11 0 0 0-3-1.53 4.57 4.57 0 0 0-2.92 0 5 5 0 0 0-2.36 1.77 5.11 5.11 0 0 0-.71 1.42 5 5 0 0 0-.24 1.55 4.81 4.81 0 0 0 2 3.92 4.57 4.57 0 0 0 1.27.63 1.92 1.92 0 0 1 1.23 1.86 2 2 0 0 1-.09.59 1.91 1.91 0 0 1-1.82 1.33 2.06 2.06 0 0 1-.59-.09 9 9 0 0 1-2.32-1.17 8.66 8.66 0 0 1-3.56-7 8.88 8.88 0 0 1 .43-2.72 8.61 8.61 0 0 1 1.24-2.48 8.71 8.71 0 0 1 4.21-3.16m-.87-3a9.68 9.68 0 0 0-5.88 4.3 11.7 11.7 0 0 0-1.56 3.37 12.84 12.84 0 0 0-.39 3.83 11.57 11.57 0 0 0 4.74 9.39 11.09 11.09 0 0 0 3 1.79 4.49 4.49 0 0 0 1.42.22 5.17 5.17 0 0 0 1.64-.27 5.43 5.43 0 0 0 2.32-2 4.89 4.89 0 0 0 .7-1.41 5 5 0 0 0 .25-1.56 4.82 4.82 0 0 0-2-3.92 4.38 4.38 0 0 0-1.26-.63 1.91 1.91 0 0 1-1.33-1.82 1.74 1.74 0 0 1 .1-.59 1.91 1.91 0 0 1 1.82-1.33 1.69 1.69 0 0 1 .58.1 8.41 8.41 0 0 1 2.32 1.16 8.66 8.66 0 0 1 3.57 7 9 9 0 0 1-.43 2.73 9.23 9.23 0 0 1-1.24 2.47 8.73 8.73 0 0 1-4.21 3.11 19.64 19.64 0 0 1-4.21 1M78 348.42L62.84 334.1"/><path class="cls-1" d="M86.64 393.2c5.77-1.21 8.34-3.42 9.77-5.41a12.3 12.3 0 0 0 1.68-3.36 12 12 0 0 0 .59-3.7 11.53 11.53 0 0 0-4.74-9.38 10.8 10.8 0 0 0-3-1.54 4.57 4.57 0 0 0-2.92 0A5 5 0 0 0 84.9 373a5 5 0 0 0-.24 1.55 4.81 4.81 0 0 0 2 3.92 4.59 4.59 0 0 0 1.27.64 1.91 1.91 0 0 1 1.28 1.89 2 2 0 0 1-.09.58 1.91 1.91 0 0 1-1.82 1.33 2.06 2.06 0 0 1-.59-.09 8.51 8.51 0 0 1-5.88-8.19 8.88 8.88 0 0 1 .43-2.72 8.61 8.61 0 0 1 1.24-2.48 8.71 8.71 0 0 1 4.21-3.16m-.87-3a9.68 9.68 0 0 0-5.88 4.3 11.82 11.82 0 0 0-1.56 3.37 12.87 12.87 0 0 0-.39 3.83 11.57 11.57 0 0 0 4.74 9.39 11.4 11.4 0 0 0 3 1.8 4.78 4.78 0 0 0 1.42.21 5.17 5.17 0 0 0 1.64-.27 5.43 5.43 0 0 0 2.32-2 4.89 4.89 0 0 0 .7-1.41 5 5 0 0 0 .25-1.56 4.82 4.82 0 0 0-2-3.92 4.38 4.38 0 0 0-1.26-.63 1.91 1.91 0 0 1-1.33-1.82 1.78 1.78 0 0 1 .1-.59 1.91 1.91 0 0 1 1.82-1.32 2 2 0 0 1 .58.09 8.41 8.41 0 0 1 2.32 1.16 8.66 8.66 0 0 1 3.57 7 9 9 0 0 1-.43 2.73 9.23 9.23 0 0 1-1.24 2.47 8.73 8.73 0 0 1-4.21 3.1 19.64 19.64 0 0 1-4.21 1M78 375.38l-15.16-14.32m23.8-48.74c5.77-1.22 8.34-3.43 9.77-5.42a12.24 12.24 0 0 0 1.68-3.35 12 12 0 0 0 .59-3.71 11.55 11.55 0 0 0-4.74-9.38 11.07 11.07 0 0 0-3-1.54A4.57 4.57 0 0 0 88 289a5 5 0 0 0-2.36 1.78 5 5 0 0 0-.71 1.41 5 5 0 0 0-.24 1.56 4.79 4.79 0 0 0 2 3.91 4.59 4.59 0 0 0 1.27.64 1.91 1.91 0 0 1 1.32 1.82 2 2 0 0 1-.09.58 1.91 1.91 0 0 1-1.89 1.3 2.06 2.06 0 0 1-.59-.09 8.43 8.43 0 0 1-2.32-1.17 8.65 8.65 0 0 1-3.56-7 8.92 8.92 0 0 1 .43-2.72 8.61 8.61 0 0 1 1.24-2.48 8.77 8.77 0 0 1 4.21-3.16m-.87-3a9.65 9.65 0 0 0-5.84 4.25 11.64 11.64 0 0 0-1.6 3.37 12.87 12.87 0 0 0-.39 3.83 11.55 11.55 0 0 0 4.74 9.39 11.13 11.13 0 0 0 3 1.8 4.78 4.78 0 0 0 1.42.21 5.17 5.17 0 0 0 1.64-.27 5.43 5.43 0 0 0 2.32-2 4.77 4.77 0 0 0 .7-1.41A5 5 0 0 0 92 300a4.8 4.8 0 0 0-2-3.91 4.4 4.4 0 0 0-1.26-.64 1.91 1.91 0 0 1-1.33-1.82 1.69 1.69 0 0 1 .1-.58 1.91 1.91 0 0 1 1.82-1.33 2 2 0 0 1 .58.09 8.16 8.16 0 0 1 2.32 1.17 8.63 8.63 0 0 1 3.57 7 9 9 0 0 1-.43 2.73 9.23 9.23 0 0 1-1.24 2.47 8.82 8.82 0 0 1-4.13 3.14 19.62 19.62 0 0 1-4.21 1M78 294.49l-15.16-14.31"/><path class="cls-1" d="M86.64 339.28c5.77-1.22 8.34-3.43 9.77-5.42a12.27 12.27 0 0 0 2.27-7.05 11.57 11.57 0 0 0-4.74-9.39 11.36 11.36 0 0 0-3-1.54 4.9 4.9 0 0 0-1.4-.21 4.62 4.62 0 0 0-1.52.26 4.88 4.88 0 0 0-2.36 1.77 5.19 5.19 0 0 0-.71 1.41 5 5 0 0 0-.24 1.56 4.79 4.79 0 0 0 2 3.91 4.59 4.59 0 0 0 1.27.64 1.91 1.91 0 0 1 1.23 1.78 2.06 2.06 0 0 1-.09.59A1.91 1.91 0 0 1 87.3 329a2.06 2.06 0 0 1-.59-.09 8.43 8.43 0 0 1-2.32-1.17 8.65 8.65 0 0 1-3.56-7 9 9 0 0 1 1.67-5.2 8.77 8.77 0 0 1 4.21-3.16m-.87-3a9.65 9.65 0 0 0-5.84 4.21 11.76 11.76 0 0 0-1.6 3.41 12.94 12.94 0 0 0-.39 3.84 11.53 11.53 0 0 0 4.74 9.38 11.13 11.13 0 0 0 3 1.8 4.78 4.78 0 0 0 1.42.21 4.91 4.91 0 0 0 1.64-.27 5.43 5.43 0 0 0 2.32-2 4.65 4.65 0 0 0 .7-1.41 5 5 0 0 0 .25-1.56 4.8 4.8 0 0 0-2-3.91 4.4 4.4 0 0 0-1.26-.64 1.91 1.91 0 0 1-1.33-1.82 1.69 1.69 0 0 1 .1-.58 1.91 1.91 0 0 1 1.82-1.33 2 2 0 0 1 .58.09 8.16 8.16 0 0 1 2.32 1.17 8.63 8.63 0 0 1 3.57 7 9 9 0 0 1-1.67 5.2 8.75 8.75 0 0 1-4.21 3.11 19.64 19.64 0 0 1-4.21 1M78 321.46l-15.16-14.32m23.8-48.75c5.77-1.21 8.36-3.39 9.77-5.39a12.1 12.1 0 0 0 1.68-3.35 12 12 0 0 0 .59-3.7 11.57 11.57 0 0 0-4.74-9.39 11 11 0 0 0-3-1.53A4.57 4.57 0 0 0 88 235a4.88 4.88 0 0 0-2.36 1.77 5.19 5.19 0 0 0-.71 1.41 5 5 0 0 0-.24 1.56 4.81 4.81 0 0 0 2 3.92 4.57 4.57 0 0 0 1.27.63 1.91 1.91 0 0 1 1.32 1.82 2 2 0 0 1-.09.59 1.91 1.91 0 0 1-1.82 1.33 1.78 1.78 0 0 1-.59-.1 8.46 8.46 0 0 1-5.88-8.19 9.1 9.1 0 0 1 1.67-5.2 8.69 8.69 0 0 1 4.21-3.15m-.87-3A9.65 9.65 0 0 0 80 232.7a11.7 11.7 0 0 0-1.56 3.37 12.84 12.84 0 0 0-.44 3.83 11.53 11.53 0 0 0 4.74 9.38 11.13 11.13 0 0 0 3 1.8 4.48 4.48 0 0 0 1.42.21 4.91 4.91 0 0 0 1.64-.27 5.36 5.36 0 0 0 2.32-2 4.71 4.71 0 0 0 .7-1.4A5.08 5.08 0 0 0 92 246a4.82 4.82 0 0 0-2-3.92 4.14 4.14 0 0 0-1.26-.63 1.92 1.92 0 0 1-1.33-1.82 1.7 1.7 0 0 1 .1-.59 1.91 1.91 0 0 1 1.82-1.33 2 2 0 0 1 .58.09 8.43 8.43 0 0 1 2.38 1.2 8.64 8.64 0 0 1 3.57 7 9 9 0 0 1-1.67 5.2 8.75 8.75 0 0 1-4.19 3.19 19.64 19.64 0 0 1-4.21 1M78 240.57l-15.16-14.32"/><path class="cls-1" d="M86.64 285.35c5.77-1.21 8.34-3.42 9.77-5.42a12.1 12.1 0 0 0 1.68-3.35 12 12 0 0 0 .59-3.7 11.57 11.57 0 0 0-4.74-9.39 11 11 0 0 0-3-1.53A4.57 4.57 0 0 0 88 262a5 5 0 0 0-2.36 1.77 5.19 5.19 0 0 0-.71 1.41 5 5 0 0 0-.24 1.56 4.81 4.81 0 0 0 2 3.92 4.57 4.57 0 0 0 1.27.63 1.91 1.91 0 0 1 1.32 1.82 2 2 0 0 1-.09.59 1.91 1.91 0 0 1-1.89 1.3 1.78 1.78 0 0 1-.59-.1 8.46 8.46 0 0 1-5.88-8.19 9.1 9.1 0 0 1 1.67-5.2 8.69 8.69 0 0 1 4.21-3.15m-.87-3a9.69 9.69 0 0 0-5.84 4.3 11.7 11.7 0 0 0-1.6 3.34 12.84 12.84 0 0 0-.39 3.83 11.57 11.57 0 0 0 4.74 9.39 11.36 11.36 0 0 0 3 1.79 4.49 4.49 0 0 0 1.42.22 4.91 4.91 0 0 0 1.64-.28 5.34 5.34 0 0 0 2.32-2 4.89 4.89 0 0 0 .7-1.41A5.08 5.08 0 0 0 92 273a4.82 4.82 0 0 0-2-3.92 4.38 4.38 0 0 0-1.26-.63 1.91 1.91 0 0 1-1.33-1.82 1.7 1.7 0 0 1 .1-.59 1.91 1.91 0 0 1 1.82-1.33 2 2 0 0 1 .58.09 8.52 8.52 0 0 1 5.89 8.2 8.92 8.92 0 0 1-1.67 5.19 8.75 8.75 0 0 1-4.13 3.16 19.64 19.64 0 0 1-4.21 1M78 267.53l-15.16-14.32m23.8-48.75c5.77-1.21 8.36-3.46 9.77-5.46a12.1 12.1 0 0 0 1.68-3.35 12 12 0 0 0 .59-3.7 11.53 11.53 0 0 0-4.74-9.38 10.8 10.8 0 0 0-3-1.54 4.57 4.57 0 0 0-2.92 0 5 5 0 0 0-3.07 3.19 5 5 0 0 0-.24 1.55 4.81 4.81 0 0 0 2 3.92 4.57 4.57 0 0 0 1.27.63 1.93 1.93 0 0 1 1.32 1.83 2 2 0 0 1-.09.58 1.91 1.91 0 0 1-1.82 1.33 2.06 2.06 0 0 1-.59-.09 8.51 8.51 0 0 1-5.88-8.19 8.88 8.88 0 0 1 .43-2.72 8.61 8.61 0 0 1 1.24-2.48 8.71 8.71 0 0 1 4.21-3.16m-.87-3a9.68 9.68 0 0 0-5.88 4.3 11.82 11.82 0 0 0-1.56 3.37A12.84 12.84 0 0 0 78 186a11.57 11.57 0 0 0 4.74 9.39 11.09 11.09 0 0 0 3 1.79 4.49 4.49 0 0 0 1.42.22 5.17 5.17 0 0 0 1.64-.27 5.43 5.43 0 0 0 2.32-2 4.89 4.89 0 0 0 .7-1.41 5 5 0 0 0 .25-1.56 4.82 4.82 0 0 0-2-3.92 4.38 4.38 0 0 0-1.26-.63 1.91 1.91 0 0 1-1.33-1.82 1.74 1.74 0 0 1 .1-.59 1.91 1.91 0 0 1 1.82-1.32 1.67 1.67 0 0 1 .58.09 8.41 8.41 0 0 1 2.32 1.16 8.66 8.66 0 0 1 3.57 7 9 9 0 0 1-.43 2.73 9.23 9.23 0 0 1-1.24 2.47 8.73 8.73 0 0 1-4.2 3.13 19.64 19.64 0 0 1-4.21 1M78 186.64l-15.16-14.32"/><path class="cls-1" d="M86.64 231.43c5.77-1.22 8.36-3.43 9.77-5.43a12.38 12.38 0 0 0 1.68-3.35 12.07 12.07 0 0 0 .59-3.71 11.53 11.53 0 0 0-4.74-9.38 10.8 10.8 0 0 0-3-1.54 4.57 4.57 0 0 0-2.92 0 5 5 0 0 0-3.07 3.19 5 5 0 0 0-.24 1.56 4.8 4.8 0 0 0 2 3.91 4.59 4.59 0 0 0 1.27.64 1.91 1.91 0 0 1 1.32 1.82 2 2 0 0 1-.09.58 1.91 1.91 0 0 1-1.82 1.33 2.06 2.06 0 0 1-.59-.09 8.43 8.43 0 0 1-2.32-1.17 8.65 8.65 0 0 1-3.56-7 8.88 8.88 0 0 1 .43-2.72 8.61 8.61 0 0 1 1.24-2.48 8.71 8.71 0 0 1 4.21-3.16m-.87-3a9.68 9.68 0 0 0-5.88 4.3 11.82 11.82 0 0 0-1.56 3.37 12.87 12.87 0 0 0-.39 3.83 11.57 11.57 0 0 0 4.74 9.39 11.4 11.4 0 0 0 3 1.8 4.78 4.78 0 0 0 1.42.21 5.17 5.17 0 0 0 1.64-.27 5.43 5.43 0 0 0 2.32-2 4.89 4.89 0 0 0 .7-1.41 5 5 0 0 0 .25-1.56 4.83 4.83 0 0 0-2-3.92 4.38 4.38 0 0 0-1.26-.63 1.91 1.91 0 0 1-1.33-1.82 1.78 1.78 0 0 1 .1-.59 1.91 1.91 0 0 1 1.82-1.32 2 2 0 0 1 .58.09 8.16 8.16 0 0 1 2.32 1.17 8.63 8.63 0 0 1 3.57 7 9 9 0 0 1-.43 2.73 9.23 9.23 0 0 1-1.24 2.47 8.82 8.82 0 0 1-4.3 3.16 19.62 19.62 0 0 1-4.21 1M78 213.6l-15.16-14.31m23.8-48.75c5.77-1.22 8.34-3.43 9.77-5.42a12.24 12.24 0 0 0 1.68-3.35 12 12 0 0 0 .59-3.7 11.57 11.57 0 0 0-4.74-9.39 11.36 11.36 0 0 0-3-1.54 5.3 5.3 0 0 0-1.4-.22 5.21 5.21 0 0 0-1.52.26 5 5 0 0 0-2.41 1.82 5.19 5.19 0 0 0-.71 1.41 5 5 0 0 0-.24 1.56 4.79 4.79 0 0 0 2 3.91 4.59 4.59 0 0 0 1.27.64 1.91 1.91 0 0 1 1.32 1.82 2 2 0 0 1-.09.58 1.9 1.9 0 0 1-1.82 1.33 2.06 2.06 0 0 1-.59-.09 8.43 8.43 0 0 1-2.36-1.16 8.65 8.65 0 0 1-3.56-7 8.92 8.92 0 0 1 .43-2.72 8.78 8.78 0 0 1 5.45-5.64m-.87-3a9.65 9.65 0 0 0-5.84 4.21 11.64 11.64 0 0 0-1.56 3.36 12.9 12.9 0 0 0-.39 3.84 11.55 11.55 0 0 0 4.74 9.38 11.13 11.13 0 0 0 3 1.8 4.78 4.78 0 0 0 1.42.21 5.17 5.17 0 0 0 1.64-.27 5.43 5.43 0 0 0 2.32-2 4.65 4.65 0 0 0 .7-1.41 5 5 0 0 0 .25-1.56 4.8 4.8 0 0 0-2-3.91 4.4 4.4 0 0 0-1.26-.64 1.91 1.91 0 0 1-1.33-1.82 1.69 1.69 0 0 1 .1-.58 1.91 1.91 0 0 1 1.82-1.33 2 2 0 0 1 .55.08 8.16 8.16 0 0 1 2.32 1.17 8.63 8.63 0 0 1 3.57 7 9 9 0 0 1-.43 2.73 9.09 9.09 0 0 1-1.24 2.47 8.82 8.82 0 0 1-4.22 3.17 19.64 19.64 0 0 1-4.21 1M78 132.71L62.84 118.4"/><path class="cls-1" d="M86.64 177.5c5.77-1.22 8.34-3.42 9.77-5.42a12.27 12.27 0 0 0 2.27-7.08 11.57 11.57 0 0 0-4.74-9.39 11 11 0 0 0-3-1.53 4.57 4.57 0 0 0-2.92 0 4.88 4.88 0 0 0-2.36 1.77 5.19 5.19 0 0 0-.71 1.41 5 5 0 0 0-.24 1.56 4.63 4.63 0 0 0 3.23 4.55 1.91 1.91 0 0 1 1.32 1.82 2.06 2.06 0 0 1-.09.59 1.91 1.91 0 0 1-1.82 1.32 1.77 1.77 0 0 1-.59-.09 8.43 8.43 0 0 1-2.32-1.17 8.65 8.65 0 0 1-3.56-7 9 9 0 0 1 1.67-5.2 8.77 8.77 0 0 1 4.21-3.16m-.87-3a9.65 9.65 0 0 0-5.89 4.33 11.76 11.76 0 0 0-1.56 3.36A12.94 12.94 0 0 0 78 159a11.53 11.53 0 0 0 4.74 9.38 11.13 11.13 0 0 0 3 1.8 4.48 4.48 0 0 0 1.42.21 4.91 4.91 0 0 0 1.64-.27 5.36 5.36 0 0 0 2.32-2 4.65 4.65 0 0 0 .7-1.41 5 5 0 0 0 .25-1.56 4.81 4.81 0 0 0-2-3.91 4.4 4.4 0 0 0-1.26-.64 1.91 1.91 0 0 1-1.33-1.82 1.69 1.69 0 0 1 .1-.58 1.91 1.91 0 0 1 1.82-1.33 2 2 0 0 1 .6.13 8.16 8.16 0 0 1 2.32 1.17 8.63 8.63 0 0 1 3.57 7 9 9 0 0 1-1.67 5.2A8.75 8.75 0 0 1 90 173.5a19.64 19.64 0 0 1-4.21 1M78 159.68l-15.16-14.32m23.8-48.75c5.77-1.21 8.34-3.42 9.77-5.42a12.1 12.1 0 0 0 1.68-3.35 12 12 0 0 0 .59-3.7 11.57 11.57 0 0 0-4.74-9.39 11 11 0 0 0-3-1.53 4.57 4.57 0 0 0-2.92 0A5 5 0 0 0 85.61 75a5.19 5.19 0 0 0-.71 1.41 5 5 0 0 0-.24 1.59 4.81 4.81 0 0 0 2 3.92 4.57 4.57 0 0 0 1.27.63 1.91 1.91 0 0 1 1.32 1.82 2 2 0 0 1-.09.59 1.91 1.91 0 0 1-1.82 1.33 1.78 1.78 0 0 1-.59-.1A8.46 8.46 0 0 1 80.83 78a9.1 9.1 0 0 1 1.67-5.2 8.69 8.69 0 0 1 4.21-3.15m-.87-3A9.65 9.65 0 0 0 80 70.92a11.7 11.7 0 0 0-1.56 3.37 12.84 12.84 0 0 0-.44 3.83 11.53 11.53 0 0 0 4.74 9.38 11.13 11.13 0 0 0 3 1.8 4.48 4.48 0 0 0 1.42.21 4.91 4.91 0 0 0 1.64-.27 5.34 5.34 0 0 0 2.32-2 4.89 4.89 0 0 0 .7-1.41 5.08 5.08 0 0 0 .18-1.57 4.82 4.82 0 0 0-2-3.92 4.38 4.38 0 0 0-1.26-.63 1.91 1.91 0 0 1-1.33-1.82 1.7 1.7 0 0 1 .1-.59 1.91 1.91 0 0 1 1.88-1.3 2 2 0 0 1 .58.09 8.43 8.43 0 0 1 2.32 1.17 8.64 8.64 0 0 1 3.57 7 9 9 0 0 1-1.67 5.2A8.75 8.75 0 0 1 90 92.61a19.64 19.64 0 0 1-4.21 1M78 78.79L62.84 64.47"/><path class="cls-1" d="M86.64 123.57c5.77-1.21 8.34-3.42 9.77-5.42a12.1 12.1 0 0 0 1.68-3.35 12 12 0 0 0 .59-3.7 11.57 11.57 0 0 0-4.74-9.39 11 11 0 0 0-3-1.53 4.57 4.57 0 0 0-2.92 0 5 5 0 0 0-2.41 1.82 5.19 5.19 0 0 0-.71 1.41 5.06 5.06 0 0 0-.24 1.56 4.81 4.81 0 0 0 2 3.92 4.57 4.57 0 0 0 1.27.63 1.91 1.91 0 0 1 1.32 1.82 2 2 0 0 1-.09.59 1.91 1.91 0 0 1-1.82 1.33 1.78 1.78 0 0 1-.59-.1 8.46 8.46 0 0 1-5.92-8.16 9.1 9.1 0 0 1 1.67-5.21 8.69 8.69 0 0 1 4.21-3.15m-.87-3A9.73 9.73 0 0 0 80 97.88a11.7 11.7 0 0 0-1.56 3.37 12.84 12.84 0 0 0-.39 3.83 11.57 11.57 0 0 0 4.74 9.39 11.36 11.36 0 0 0 3 1.79 4.49 4.49 0 0 0 1.42.22 5.17 5.17 0 0 0 1.64-.27 5.43 5.43 0 0 0 2.32-2 4.89 4.89 0 0 0 .7-1.41 5.08 5.08 0 0 0 .25-1.56 4.82 4.82 0 0 0-2-3.92 4.38 4.38 0 0 0-1.26-.63 1.91 1.91 0 0 1-1.33-1.82 1.74 1.74 0 0 1 .1-.59 1.91 1.91 0 0 1 1.82-1.33 2 2 0 0 1 .55.05 8.52 8.52 0 0 1 5.89 8.2 9 9 0 0 1-.43 2.73 9.23 9.23 0 0 1-1.24 2.47 8.73 8.73 0 0 1-4.22 3.17 19.64 19.64 0 0 1-4.21 1M78 105.75L62.84 91.43m23.8-48.75c5.77-1.21 8.34-3.42 9.77-5.41a12.3 12.3 0 0 0 1.68-3.36 12 12 0 0 0 .59-3.7 11.53 11.53 0 0 0-4.74-9.38 10.8 10.8 0 0 0-3-1.54 4.57 4.57 0 0 0-2.92 0 5 5 0 0 0-3.07 3.19 5 5 0 0 0-.24 1.55 4.81 4.81 0 0 0 2 3.92 4.59 4.59 0 0 0 1.27.64 1.91 1.91 0 0 1 1.32 1.82 2 2 0 0 1-.09.58 1.91 1.91 0 0 1-1.82 1.33 2.06 2.06 0 0 1-.59-.09 8.51 8.51 0 0 1-5.88-8.19 8.88 8.88 0 0 1 .43-2.72 8.61 8.61 0 0 1 1.24-2.48 8.71 8.71 0 0 1 4.21-3.16m-.87-3A9.68 9.68 0 0 0 80 17a11.82 11.82 0 0 0-1.56 3.37 12.84 12.84 0 0 0-.44 3.82 11.57 11.57 0 0 0 4.74 9.39 11.4 11.4 0 0 0 3 1.8 4.78 4.78 0 0 0 1.42.21 5.17 5.17 0 0 0 1.64-.27 5.43 5.43 0 0 0 2.32-2 4.89 4.89 0 0 0 .7-1.41 5 5 0 0 0 .18-1.58 4.82 4.82 0 0 0-2-3.92 4.38 4.38 0 0 0-1.26-.63A1.91 1.91 0 0 1 87.47 24a1.78 1.78 0 0 1 .1-.59 1.91 1.91 0 0 1 1.82-1.32 1.67 1.67 0 0 1 .58.09 8.41 8.41 0 0 1 2.32 1.16 8.66 8.66 0 0 1 3.57 7 9 9 0 0 1-.43 2.73 9.23 9.23 0 0 1-1.24 2.47A8.73 8.73 0 0 1 90 38.68a19.64 19.64 0 0 1-4.21 1M78 24.86L62.84 10.54"/><path class="cls-1" d="M86.64 69.65c5.77-1.22 8.34-3.43 9.77-5.42a12.24 12.24 0 0 0 1.68-3.35 12.07 12.07 0 0 0 .59-3.71 11.55 11.55 0 0 0-4.74-9.38 11.07 11.07 0 0 0-3-1.54 4.57 4.57 0 0 0-2.92 0 5 5 0 0 0-3.07 3.19 5 5 0 0 0-.29 1.56 4.79 4.79 0 0 0 2 3.91 4.59 4.59 0 0 0 1.27.64 1.91 1.91 0 0 1 1.32 1.82 2 2 0 0 1-.09.58 1.91 1.91 0 0 1-1.82 1.33 2.06 2.06 0 0 1-.59-.09 8.43 8.43 0 0 1-2.32-1.17 8.65 8.65 0 0 1-3.56-7 8.92 8.92 0 0 1 .43-2.72 8.61 8.61 0 0 1 1.24-2.48 8.71 8.71 0 0 1 4.21-3.16m-.87-3A9.65 9.65 0 0 0 80 44a11.64 11.64 0 0 0-1.56 3.36 12.87 12.87 0 0 0-.44 3.79 11.55 11.55 0 0 0 4.74 9.39 11.4 11.4 0 0 0 3 1.8 4.78 4.78 0 0 0 1.42.21 5.17 5.17 0 0 0 1.64-.27 5.43 5.43 0 0 0 2.32-2 4.89 4.89 0 0 0 .7-1.41 5 5 0 0 0 .18-1.58 4.83 4.83 0 0 0-2-3.92 4.65 4.65 0 0 0-1.26-.63 1.91 1.91 0 0 1-1.33-1.82 1.78 1.78 0 0 1 .1-.59A1.91 1.91 0 0 1 89.39 49a2 2 0 0 1 .58.09 8.16 8.16 0 0 1 2.32 1.17 8.63 8.63 0 0 1 3.57 7 9 9 0 0 1-.43 2.74 9.23 9.23 0 0 1-1.24 2.47A8.82 8.82 0 0 1 90 65.65a19.62 19.62 0 0 1-4.21 1M78 51.82L62.84 37.51"/></svg>