<svg width="420" height="16" fill="none" xmlns="http://www.w3.org/2000/svg"><path d="M164 5V1h-22a4.526 4.526 0 0 1 1.707 1.591c.434.685.699 1.481.77 2.313L164 5zm45.752 10v-3H210l-.025.007V12H208v3h1.752z" stroke="#0D4C38" stroke-width=".5" stroke-miterlimit="10"/><path d="M209 12v3h2v-3h-2zm-42-7.408l15.974.052c.49-.002.967.161 1.351.464a3.069 3.069 0 0 1 .944 2.535v3.438a3.424 3.424 0 0 0 .627 1.998 3.46 3.46 0 0 0 1.678 1.268 9.252 9.252 0 0 0 3.361.653H208v-3.644h-16.615a2.2 2.2 0 0 1-1.351-.464 3.073 3.073 0 0 1-.936-2.535V4.919a3.417 3.417 0 0 0-.629-1.993 3.458 3.458 0 0 0-1.675-1.264A9.412 9.412 0 0 0 183.416 1H167v3.592zM165 1v4h2V1h-2zm-1 0v4h1V1h-1zm47 11v3h22c-1.368-.822-2.473-1.68-2.534-2.979L211 12zm-94-7V1H95a4.502 4.502 0 0 1 1.73 1.583c.443.684.715 1.484.79 2.32L117 5zm45.881 10v-3H163l-.006.007-.006-.007H162v3h.881zm.119-3v3h1v-3h-1zm-42.965-7.408l16.355.052c.5-.001.984.163 1.374.464.352.322.621.719.789 1.158.168.44.228.911.178 1.377v3.438a3.36 3.36 0 0 0 .641 1.998 3.53 3.53 0 0 0 1.717 1.268 9.698 9.698 0 0 0 3.439.653H162v-3.644h-17.011a2.242 2.242 0 0 1-1.374-.464 3.04 3.04 0 0 1-.788-1.158 2.955 2.955 0 0 1-.178-1.377V4.919a3.311 3.311 0 0 0-.634-2 3.482 3.482 0 0 0-1.724-1.257A9.792 9.792 0 0 0 136.843 1H120l.035 3.592zM119 1v4h1V1h-1zm-2 0v4h2V1h-2z" stroke="#0D4C38" stroke-width=".5" stroke-miterlimit="10"/><path d="M164 12v3h22c-1.359-.822-2.473-1.68-2.525-2.979L164 12zM71 5V1H49a4.514 4.514 0 0 1 1.706 1.591c.434.685.7 1.481.77 2.313L71 5zm44.881 10v-3H116l-.006.007-.007-.007H115v3h.881zm.119-3v3h1v-3h-1zM73.035 4.592l16.349.052c.498-.001.983.163 1.373.464.35.322.62.719.788 1.158.168.44.228.911.178 1.377v3.438a3.366 3.366 0 0 0 .64 1.998 3.534 3.534 0 0 0 1.717 1.268 9.702 9.702 0 0 0 3.447.653H115v-3.644H97.978a2.24 2.24 0 0 1-1.373-.464 3.046 3.046 0 0 1-.788-1.158 2.966 2.966 0 0 1-.178-1.377V4.919a3.315 3.315 0 0 0-.633-2 3.483 3.483 0 0 0-1.724-1.257A9.783 9.783 0 0 0 89.835 1H73l.035 3.592zM72 1v4h1V1h-1zm-1 0v4h1V1h-1zm46 11v3h22c-1.359-.822-2.473-1.68-2.525-2.979L117 12zM24 5V1H2a4.513 4.513 0 0 1 1.712 1.59 5.13 5.13 0 0 1 .773 2.314L24 5zm44.881 10v-3H69l-.006.007-.007-.007H68v3h.881zM69 12v3h1v-3h-1z" stroke="#0D4C38" stroke-width=".5" stroke-miterlimit="10"/><path d="M27.035 4.54l15.952.052c.486 0 .96.163 1.34.464a3.05 3.05 0 0 1 .942 2.536v3.438a3.423 3.423 0 0 0 .625 1.998 3.455 3.455 0 0 0 1.675 1.267 9.265 9.265 0 0 0 3.398.705H68v-3.644H51.382a2.161 2.161 0 0 1-1.349-.464 3.077 3.077 0 0 1-.942-2.535V4.919a3.372 3.372 0 0 0-.618-2 3.404 3.404 0 0 0-1.682-1.257A9.343 9.343 0 0 0 43.428 1H27l.035 3.54zM25 1v4h2V1h-2zm-1 0v4h1V1h-1zm46 11v3h22c-1.36-.822-2.473-1.68-2.525-2.979L70 12zm280-7V1h-22a4.52 4.52 0 0 1 1.702 1.593 5.14 5.14 0 0 1 .766 2.31L350 5zm45.762 10v-3H396l-.013.007-.012-.007H394v3h1.762zm.238-3v3h1v-3h-1zm-42.965-7.408l15.944.052c.488-.001.961.163 1.342.464a3.043 3.043 0 0 1 .945 2.535v3.438a3.415 3.415 0 0 0 .626 1.998 3.462 3.462 0 0 0 1.677 1.268 9.296 9.296 0 0 0 3.369.653H394v-3.644h-16.577a2.168 2.168 0 0 1-1.351-.464 3.073 3.073 0 0 1-.944-2.535V4.919a3.364 3.364 0 0 0-.619-2 3.403 3.403 0 0 0-1.685-1.257A9.368 9.368 0 0 0 369.455 1H353l.035 3.592zM352 1v4h1V1h-1zm-2 0v4h2V1h-2zm47 11v3h22c-1.359-.822-2.473-1.68-2.525-2.979L397 12zm-93-7V1h-22a4.52 4.52 0 0 1 1.702 1.593 5.14 5.14 0 0 1 .766 2.31L304 5zm44.876 10v-3H349l-.012.007-.007-.007H348v3h.876zm.124-3v3h1v-3h-1z" stroke="#0D4C38" stroke-width=".5" stroke-miterlimit="10"/><path d="M306.044 4.592l16.346.052c.502 0 .99.163 1.383.464.35.323.618.72.784 1.16.166.44.225.91.174 1.375v3.438a3.36 3.36 0 0 0 .641 1.998 3.53 3.53 0 0 0 1.717 1.268 9.742 9.742 0 0 0 3.448.653H348v-3.644h-17.002a2.252 2.252 0 0 1-1.383-.464 3.052 3.052 0 0 1-.784-1.16 2.961 2.961 0 0 1-.173-1.375V4.919a3.362 3.362 0 0 0-.644-1.993 3.532 3.532 0 0 0-1.714-1.264A9.869 9.869 0 0 0 322.843 1H306l.044 3.592zM305 1v4h1V1h-1zm-1 0v4h1V1h-1zm46 11v3h22c-1.36-.822-2.474-1.68-2.526-2.979L350 12zm-93-7V1h-22a4.52 4.52 0 0 1 1.702 1.593 5.14 5.14 0 0 1 .766 2.31L257 5zm44.876 10v-3H302l-.012.007V12H301v3h.876zm.124-3v3h1v-3h-1zm-43-7.408l16.35.052c.502-.002.99.161 1.383.464.349.323.618.72.784 1.16.166.44.225.91.173 1.375v3.438a3.374 3.374 0 0 0 .641 1.998 3.537 3.537 0 0 0 1.718 1.268 9.743 9.743 0 0 0 3.449.653H301v-3.644h-17.041a2.252 2.252 0 0 1-1.383-.464 3.04 3.04 0 0 1-.784-1.16 2.962 2.962 0 0 1-.174-1.375V4.919a3.367 3.367 0 0 0-.643-1.993 3.54 3.54 0 0 0-1.715-1.264A9.87 9.87 0 0 0 275.802 1H259v3.592zM258 1v4h1V1h-1zm-1 0v4h1V1h-1z" stroke="#0D4C38" stroke-width=".5" stroke-miterlimit="10"/><path d="M303 12v3h22c-1.36-.822-2.474-1.68-2.526-2.979L303 12zm-93-7V1h-22a4.512 4.512 0 0 1 1.722 1.586c.439.685.708 1.483.781 2.318L210 5zm45.752 10v-3H256l-.025.007V12H254v3h1.752z" stroke="#0D4C38" stroke-width=".5" stroke-miterlimit="10"/><path d="M255 12v3h2v-3h-2zm-42-7.408l15.974.052c.49-.002.967.161 1.351.464a3.069 3.069 0 0 1 .944 2.535v3.438a3.424 3.424 0 0 0 .627 1.998 3.46 3.46 0 0 0 1.678 1.268 9.252 9.252 0 0 0 3.361.653H254v-3.644h-16.615a2.16 2.16 0 0 1-1.343-.464 3.053 3.053 0 0 1-.944-2.535V4.919a3.417 3.417 0 0 0-.629-1.993 3.458 3.458 0 0 0-1.675-1.264A9.412 9.412 0 0 0 229.416 1H213v3.592zM211 1v4h2V1h-2zm-1 0v4h1V1h-1zm47 11v3h22c-1.368-.822-2.473-1.68-2.534-2.979L257 12z" stroke="#0D4C38" stroke-width=".5" stroke-miterlimit="10"/></svg>