<svg xmlns="http://www.w3.org/2000/svg" viewBox="0 0 376.14 88.74"><path fill="transparent" d="M0 .01h376.12v88.73H0V.01z"/><path d="M360.71 55.08c2.5 0 4 1.36 4 3.91s-1.69 4-4.25 4-4-1.37-4-3.91 1.69-4 4.25-4zm0 .63c-2.08 0-2.57 1.55-2.57 3.23 0 1.85.77 3.48 2.35 3.48 2.08 0 2.57-1.54 2.57-3.22 0-1.85-.77-3.49-2.35-3.49zM70.36 70.64v6.33H90.5v-6.33l-2.88 3.16h-4l-3.16-3.16-3.16 3.16h-4l-2.88-3.16zM56.95 25.47v6.33h20.14v-6.33l-2.88 3.17h-4l-3.16-3.17-3.16 3.17h-4l-2.94-3.17zm26.75 0v6.33h20.14v-6.33l-2.88 3.17h-4l-3.16-3.17-3.16 3.17h-4l-2.88-3.17zM80.39 36.9c-3.22 0-4.7 2.31-7.92 2.31s-4.7-2.38-7.92-2.31c-3 .06-4.33 2.26-7.33 2.31s-5.13-2.12-7.34-2v19.91c.11 4.17 3.33 10.15 7.32 10.15 3 0 4.35-2.23 7.35-2.29 3.22-.07 4.7 2.31 7.92 2.31s4.7-2.31 7.92-2.31 4.7 2.31 7.92 2.31 4.7-2.37 7.92-2.31c3 .06 4.33 2.24 7.33 2.29 4 0 7.23-6 7.34-10.15V37.18c-2.21-.11-4.37 2.07-7.34 2s-4.33-2.24-7.33-2.31c-3.22-.07-4.7 2.31-7.92 2.31s-4.7-2.31-7.92-2.31zm0 51.3c-1.3 0-32.94-13.71-32.94-31.11v-38h65.89v38c0 17.4-31.66 31.11-33 31.11zm-4.71-29.36l-1.38-2.39 1.38-2.39h-2.73l-1.37-2.36-1.38 2.39h-2.76l1.38 2.39-1.38 2.39h2.76l1.38 2.39 1.38-2.39h2.76zm17.71-8.72l-1.34-2.42 1.38-2.39h-2.76l-1.38-2.39-1.34 2.41h-2.8l1.38 2.39-1.38 2.39h2.8l1.38 2.39 1.38-2.39h2.76zm-12.67 0l-1.34-2.42 1.38-2.39h-2.81l-1.38-2.39-1.38 2.39h-2.76l1.38 2.39-1.38 2.39h2.76l1.38 2.39 1.38-2.39h2.76zm7.63 8.72l-1.38-2.39 1.38-2.39h-2.76l-1.34-2.36-1.38 2.39h-2.76l1.38 2.39-1.38 2.39h2.76l1.38 2.39 1.38-2.39h2.76zM64.14 41.3h32.52v21.58H64.18V41.29zm-24.19-3.75c-1.86 0-4.21-2.41-4-3.91 1.09-8.17 5.3-5.54 8.4-7.93.88 1.15 2.18 11.83-4.38 11.83zm98.41 7.42a9.34 9.34 0 01-3.41 5.73c1.75-.05 4.57.18 5.18-2a3.22 3.22 0 00-1.73-3.74zm-4.89-1.15c-6.18-.27-8.58 3.42-6.51 4.83 3.93 2.67 6.48-4.92 6.51-4.83zm.29-8.92a7.59 7.59 0 01-3.76 2 53.85 53.85 0 016.35 0 10.73 10.73 0 01-2.59-2zm-12-7.37a4.85 4.85 0 104.85-4.85 4.85 4.85 0 00-4.85 4.85zm19.41 3.95a2.72 2.72 0 013.21-.7c1.43.49 2.33 1.7 2.06 2.73 7.12-.14 8.82-1.79 8.87-1.73-2.07 3.81-8.13 6.56-10.42 6.78 3.24 1.11 9.59 4.8 9.55 11.93 0 10.42-10.11 11.87-15.79 10.37a4.17 4.17 0 012.81 2h-25.51v-21a11.93 11.93 0 014.15-2.8 1.81 1.81 0 001-1.78 9.58 9.58 0 01-5.18-3.16V22.01s3.13-4.31 10.41-4.31a11.46 11.46 0 018.92 4.89s2.42-2 7.19-2c10.76 0 13.24 10.36 13.24 10.36a17.61 17.61 0 00-8.9-3.74 2.29 2.29 0 01-2.34 1.66 2.37 2.37 0 01-2.26-1.37l-.88.57a2.47 2.47 0 01.16 1.09 2.54 2.54 0 01-1 1.8l.81.54zm-16.73-3.95a2.17 2.17 0 112.17 2.17 2.17 2.17 0 01-2.17-2.17zm-79.63 8.86v26.47H5.18a23.44 23.44 0 012.59-4.89c-1-.81-1.81-1.55-1.73-1.44-.09-.11 5.31-7.12 9.21-7.2a8 8 0 01-1.44-1.44c1.39-1.55 3.87-1.66 12.08-2.3s9.35-2.87 9.5-9.51c2 2.45 5.48 5.41 9.49.3zM24.75 22.88c-2.63-1.81-4-2.5-4.89-2.31s-2.61 3-2.59 2.88a32.81 32.81 0 017.48-.58zm-9.8 10.93c-1.88-1.58-4.28-4.74-4.61-6.91a3 3 0 01.87-2.59 5.14 5.14 0 01-.29-2.3c1.14-3.41 17.38-3.56 20.72-3.45 7.59.34 9.21 0 12.95-1.44-.1-.13-1.25 5.57-8.34 5.47v.86c2.8.05 6.13-.58 8.06-2.88-.06 1.93.67 4.3-3.16 5.18-3.69.85-6 .73-7.19 11.22-.24 3 0 5.55-4.89 6.62-4.71 1-17.17 1.35-19.41 3.1l-.45-.79a7.86 7.86 0 003.74-7.2 3.87 3.87 0 011.73-.57c0 1-1.26 3.17 4.6 3.17.11 0 5.51.64 3.17-6.33-.73-2.18-1.38-4.66-4-4.61 0-.05-3.41.16-1.73 3.53 2.39.5 5.11 1.09 5.48 2.8s-1 2.73-2 2.3-3.77-2-5.75-2c-3.66 0-10.2 4.15-14.39-3.71 1.21 1.3 2.36 2.16 6.33 2.27s4.71-1.62 8.63-1.73zM354.05 0h4.18v.84h-4.18V0zM103.99 0h4.18v.84h-4.22V0zm271 3.5v5a2 2 0 00.1.84.52.52 0 00.47.17h.54v.34h-3.27v-.34h.54a.52.52 0 00.47-.17 2 2 0 00.1-.84v-5a2 2 0 00-.1-.84.52.52 0 00-.47-.17h-.54v-.34h3.27v.34h-.54a.52.52 0 00-.47.17 2 2 0 00-.1.84zm-361.3 5V3.77a11.14 11.14 0 000-1.12h-1.74c-.34 0-.42.1-.45.37v.88h-.35c0-.6 0-1.22-.08-1.8h6.44c-.06.58-.08 1.2-.08 1.8h-.35v-.88c0-.27-.11-.37-.45-.37H14.9V8.5a2 2 0 00.1.84.52.52 0 00.47.17h.54v.34h-3.27v-.34h.54a.52.52 0 00.47-.17 2 2 0 00.1-.84zm7 0v-5a2 2 0 00-.1-.84.52.52 0 00-.47-.17h-.54v-.34h5.97a7.47 7.47 0 00-.18 1.7h-.39v-.73a.3.3 0 00-.1-.3 6.94 6.94 0 00-2.19-.23 3.84 3.84 0 00-.94.09v3h1.29a3.1 3.1 0 001.18-.12.42.42 0 00.09-.29l.06-.58h.34v2.54h-.34l-.06-.66a.37.37 0 00-.09-.28 2.78 2.78 0 00-1.18-.13h-1.29v3.13a3.86 3.86 0 00.94.09 10.27 10.27 0 002.26-.15 2.07 2.07 0 00.39-1.25h.39a9.61 9.61 0 00-.18 1.83h-5.84v-.34h.4a.55.55 0 00.47-.17 2 2 0 00.1-.84zm18.56-.8l-1.4-3.79-1.9 4.92c-.15.38-.29.76-.4 1.15h-.6c-.08-.41-.17-.76-.26-1.15l-1.33-5.75a.57.57 0 00-.56-.56h-.31v-.34h2.82v.34h-.47c-.29 0-.51.08-.37.74l1.11 5 1.37-3.56c.35-.88.7-1.78 1-2.69h.36a14.2 14.2 0 00.46 1.41l1.73 4.85 1.49-5.43c.07-.27-.09-.34-.51-.37h-.45v-.34h2.34v.34h-.36a.43.43 0 00-.42.32l-1.71 6c-.09.32-.21.67-.3 1.13h-.56c-.25-.88-.51-1.53-.79-2.3zm14-4.16v5a2 2 0 00.1.84.52.52 0 00.47.17h.54v.34h-3.27v-.34h.54a.52.52 0 00.47-.17 2 2 0 00.1-.84V6.05h-4.48v2.49a2 2 0 00.1.84.52.52 0 00.47.17h.54v.34h-3.27v-.34h.54a.52.52 0 00.47-.17 2 2 0 00.1-.84v-5a2 2 0 00-.1-.84.52.52 0 00-.47-.17h-.54v-.34h3.27v.34h-.54a.52.52 0 00-.47.17 2 2 0 00-.1.84v2h4.48v-2a2 2 0 00-.1-.84.52.52 0 00-.47-.17h-.54v-.34h3.27v.34h-.54a.52.52 0 00-.47.17 2 2 0 00-.1.84zm5.73 3.35h2.83L60.4 3.56l-1.45 3.31zm1.88-4.82l2.71 6.35c.1.22.22.52.36.76a.62.62 0 00.45.38h.38v.34h-2.98v-.34h.53a.43.43 0 00.46-.22 2.6 2.6 0 00-.23-.71l-.59-1.31h-3.22l-.31.75a6.44 6.44 0 00-.39 1.16c0 .23.19.28.54.31h.41v.34H56.4v-.34h.41a.8.8 0 00.6-.55l2-4.52c.35-.78.73-1.61 1-2.41h.36zm8.25.65v5.83a2 2 0 00.1.84.52.52 0 00.47.17h.54v.34h-3.27v-.34h.54a.52.52 0 00.47-.17 2 2 0 00.1-.84v-5a2 2 0 00-.11-.85.55.55 0 00-.47-.17h-.46v-.34h3.9c1.79 0 2.26.87 2.26 1.68A2.4 2.4 0 0171 6.03l2.54 3.3a.86.86 0 00.68.29v.34h-1.57c-.14-.22-.31-.41-.46-.61l-2.06-2.76c-.18-.25-.39-.46-.58-.69a7.7 7.7 0 011.05-.18 1.65 1.65 0 001.45-1.56 1.51 1.51 0 00-1.77-1.54 4.34 4.34 0 00-1.14.13zm8.1 5.83v-5a2 2 0 00-.1-.84.52.52 0 00-.47-.17h-.54V2.2h5.97a7.5 7.5 0 00-.18 1.7h-.39v-.73a.29.29 0 00-.1-.3 6.94 6.94 0 00-2.19-.23 3.83 3.83 0 00-.94.09v3h1.29a3.1 3.1 0 001.18-.12.42.42 0 00.09-.29l.06-.58h.34v2.54h-.34l-.06-.66a.37.37 0 00-.09-.28 2.78 2.78 0 00-1.18-.13h-1.29v3.13a3.86 3.86 0 00.94.09 10.26 10.26 0 002.26-.15 2.07 2.07 0 00.39-1.25h.39a9.61 9.61 0 00-.18 1.83h-5.84v-.34h.4a.55.55 0 00.47-.17 2 2 0 00.1-.84zm18.52-.86l-1.4-3.79-1.95 4.94c-.15.38-.29.76-.4 1.15h-.56c-.08-.41-.17-.76-.26-1.15l-1.33-5.75a.56.56 0 00-.56-.56h-.31v-.34h2.82v.34h-.47c-.29 0-.51.08-.37.74l1.11 5 1.4-3.49c.35-.88.7-1.78 1-2.69h.36a14.2 14.2 0 00.46 1.41L97 8.35l1.49-5.43c.07-.27-.09-.34-.51-.37h-.45v-.34h2.34v.34h-.36a.43.43 0 00-.42.32l-1.71 6c-.09.32-.21.67-.3 1.13h-.56c-.25-.88-.51-1.53-.79-2.3zm8.71-.81h2.83l-1.41-3.33-1.42 3.33zm1.88-4.82l2.63 6.34c.1.22.22.52.36.76a.62.62 0 00.45.38h.38v.34h-2.98v-.34h.53a.43.43 0 00.46-.22 2.6 2.6 0 00-.23-.71l-.51-1.28h-3.22l-.31.75a6.44 6.44 0 00-.39 1.16c0 .23.19.28.54.31h.41v.34h-2.58v-.34h.41a.8.8 0 00.6-.55l2-4.52c.35-.78.73-1.61 1-2.41h.36zm7.08 6.48v-5a2 2 0 00-.1-.84.55.55 0 00-.47-.17h-.49v-.34h1.94l5.34 6.6V3.57a2 2 0 00-.1-.84.55.55 0 00-.47-.17h-.49v-.34h2.64v.34h-.49a.55.55 0 00-.47.17 2 2 0 00-.1.84v6.54l-1-.18-5.26-6.54v5.15a2 2 0 00.1.84.55.55 0 00.47.17h.49v.34h-2.64v-.34h.49a.55.55 0 00.47-.17 2 2 0 00.1-.84zm12.42-1.66h2.83l-1.41-3.33-1.42 3.33zm1.88-4.82l2.71 6.35c.1.22.22.52.36.76a.62.62 0 00.45.38h.38v.34h-2.98v-.34h.52a.43.43 0 00.46-.22 2.6 2.6 0 00-.23-.71l-.51-1.28h-3.22l-.31.75a6.44 6.44 0 00-.39 1.16c0 .23.19.28.54.31h.41v.34h-2.58v-.34h.41a.8.8 0 00.6-.55l2-4.52c.35-.78.73-1.61 1-2.41h.36zm7.08 6.48v-5a2 2 0 00-.1-.84.55.55 0 00-.47-.17h-.49v-.34h1.94l5.29 6.51V3.48a2 2 0 00-.1-.84.55.55 0 00-.47-.17h-.49v-.34h2.64v.34h-.49a.55.55 0 00-.47.17 2 2 0 00-.1.84v6.63l-1-.18-5.27-6.54v5.15a2 2 0 00.1.84.55.55 0 00.47.17h.49v.34h-2.64v-.34h.49a.55.55 0 00.47-.17 2 2 0 00.1-.84zm16.4.25V7.7a.34.34 0 00-.38-.39l-.93-.08v-.34h2.74v.28l-.32.11c-.12 0-.12.09-.12.41v1.87a12.56 12.56 0 01-2.94.57c-2.49 0-4.5-1.29-4.5-4.1 0-2.46 2-4 4.72-4a8.81 8.81 0 012.77.46 7 7 0 00-.22 1.7h-.35V3.6a1 1 0 00-.93-.89 4.81 4.81 0 00-1.56-.2 3.06 3.06 0 00-3.23 3.39c0 2.23 1.3 3.82 3.6 3.82a2.08 2.08 0 001.56-.39 1.06 1.06 0 00.06-.46zm6.25-1.91h2.83l-1.41-3.33-1.42 3.33zm1.88-4.82l2.64 6.34c.1.22.22.52.36.76a.62.62 0 00.45.38h.38v.34h-2.98v-.34h.53a.43.43 0 00.46-.22 2.61 2.61 0 00-.23-.71l-.51-1.28h-3.22l-.31.75a6.44 6.44 0 00-.39 1.16c0 .23.19.28.54.31h.41v.34h-2.58v-.34h.41a.8.8 0 00.6-.55l2-4.52c.35-.78.73-1.61 1-2.41h.36zm14 .37c-1.94 0-2.83 1.36-2.83 3.2s.92 4 3.13 4c1.87 0 2.77-1.45 2.77-3.51 0-2.21-1-3.7-3.07-3.7zm-.06 7.68a3.82 3.82 0 01-4-4.07 4 4 0 014.2-4.08c2.39 0 4.09 1.34 4.09 3.82a4.28 4.28 0 01-4.33 4.33zm13.65-1.57V2.69h-1.73c-.33 0-.42.1-.45.37v.88h-.35c0-.6 0-1.22-.08-1.8h6.44c-.06.58-.08 1.2-.08 1.8h-.35v-.88c0-.27-.11-.37-.45-.37h-1.9v5.85a2 2 0 00.1.84.52.52 0 00.47.17h.54v.34h-3.27v-.34h.54a.52.52 0 00.47-.17 2 2 0 00.1-.84zm7 0v-5a2 2 0 00-.1-.84.52.52 0 00-.47-.17h-.54v-.34h5.97a7.47 7.47 0 00-.18 1.7h-.39v-.73a.29.29 0 00-.1-.3 6.94 6.94 0 00-2.19-.23 3.83 3.83 0 00-.94.09v3h1.29a3.1 3.1 0 001.18-.12.42.42 0 00.09-.29l.06-.58h.34v2.54h-.34l-.06-.66a.37.37 0 00-.09-.28 2.79 2.79 0 00-1.18-.13h-1.29v3.13a3.85 3.85 0 00.94.09 10.27 10.27 0 002.26-.15 2.07 2.07 0 00.39-1.25h.39a9.57 9.57 0 00-.18 1.83h-5.84v-.34h.4a.55.55 0 00.47-.17 2 2 0 00.1-.84zm12.91-1v-4a2 2 0 00-.1-.84.52.52 0 00-.47-.17h-.54v-.34h3.27v.34h-.54a.52.52 0 00-.47.17 2 2 0 00-.1.84v3.84c0 1.59.83 2 2.3 2a2 2 0 002.3-2.31V3.5a2 2 0 00-.1-.84.55.55 0 00-.47-.17h-.49v-.34h2.64v.34h-.49a.55.55 0 00-.47.17 2 2 0 00-.1.84v3.23c0 2.39-.91 3.35-3.16 3.35-1.9 0-3-.57-3-2.61zm11.5-4.84v5.83a2 2 0 00.1.84.52.52 0 00.47.17h.54v.34h-3.27v-.34h.54a.52.52 0 00.47-.17 2 2 0 00.1-.84v-5a1.87 1.87 0 00-.11-.81.57.57 0 00-.48-.19h-.5v-.34h3.9c1.08 0 2.31.45 2.31 1.71a2.51 2.51 0 01-2.68 2.4 3.4 3.4 0 01-.67-.07l-.11-.4a2.4 2.4 0 00.74.11 1.61 1.61 0 001.61-1.67 1.56 1.56 0 00-1.81-1.67 4.33 4.33 0 00-1.14.13zm10.3-.28c-1.95 0-2.83 1.36-2.83 3.2s.92 4 3.13 4c1.87 0 2.77-1.45 2.77-3.51 0-2.21-1-3.7-3.07-3.7zm-.06 7.68a3.82 3.82 0 01-4-4.07 4 4 0 014.2-4.08c2.39 0 4.09 1.34 4.09 3.82a4.28 4.28 0 01-4.33 4.33zm8.68-3.86v2.29a2 2 0 00.1.84.52.52 0 00.47.17h.54v.34h-3.27v-.34h.54a.52.52 0 00.47-.17 2 2 0 00.1-.84v-5a2 2 0 00-.1-.84.52.52 0 00-.47-.17h-.54v-.34h3.27v.34h-.54a.51.51 0 00-.47.17 2 2 0 00-.1.84v2.39l3.11-3a1.17 1.17 0 00.32-.44v-.31h1.89v.34h-.47a1.42 1.42 0 00-.87.42l-3 2.68 3.69 3.48a1.49 1.49 0 00.69.46h.23v.34h-1.62l-3.89-3.74-.11.08zm11.72-3.82c-1.95 0-2.83 1.36-2.83 3.2s.92 4 3.13 4c1.87 0 2.77-1.45 2.77-3.51 0-2.21-1-3.7-3.07-3.7zm-.06 7.68a3.82 3.82 0 01-4-4.07 4 4 0 014.2-4.08c2.39 0 4.09 1.34 4.09 3.82a4.28 4.28 0 01-4.33 4.33zm15-7.68c-1.95 0-2.83 1.36-2.83 3.2s.92 4 3.13 4c1.87 0 2.77-1.45 2.77-3.51 0-2.21-1-3.7-3.07-3.7zm-.06 7.68a3.82 3.82 0 01-4-4.07 4 4 0 014.2-4.08c2.39 0 4.09 1.34 4.09 3.82a4.28 4.28 0 01-4.33 4.33zm13.66-1.57V2.68h-1.73c-.34 0-.42.1-.45.37v.88h-.35c0-.6 0-1.22-.08-1.8h6.44c-.06.58-.08 1.2-.08 1.8h-.35v-.88c0-.27-.11-.37-.45-.37h-1.73a11 11 0 000 1.12v4.73a2 2 0 00.1.84.52.52 0 00.47.17h.54v.34h-3.28v-.34h.54a.52.52 0 00.47-.17 2 2 0 00.1-.84zm7 0v-5a2 2 0 00-.1-.84.52.52 0 00-.47-.17h-.54v-.34h5.97a7.48 7.48 0 00-.18 1.7h-.39v-.73a.29.29 0 00-.1-.3 6.94 6.94 0 00-2.19-.23 3.84 3.84 0 00-.94.09v3h1.29a3.1 3.1 0 001.18-.12.43.43 0 00.09-.29l.06-.58h.34v2.54h-.34l-.06-.66a.37.37 0 00-.09-.28 2.78 2.78 0 00-1.18-.13h-1.29v3.13a3.86 3.86 0 00.94.09 10.27 10.27 0 002.26-.15 2.08 2.08 0 00.39-1.25h.39a9.65 9.65 0 00-.18 1.83h-5.83V9.5h.4a.55.55 0 00.47-.17 2 2 0 00.1-.84zm14.08-5v5a2 2 0 00.1.84.52.52 0 00.47.17h.54v.34h-3.27v-.34h.54a.52.52 0 00.47-.17 2 2 0 00.1-.84v-5a2 2 0 00-.1-.84.51.51 0 00-.47-.17h-.54v-.34h3.27v.34h-.54a.51.51 0 00-.47.17 2 2 0 00-.1.84zm5.46 2.72v2.29a2 2 0 00.1.84.52.52 0 00.47.17h.54v.34h-3.27v-.34h.54a.52.52 0 00.47-.17 2 2 0 00.1-.84v-5a2 2 0 00-.1-.84.52.52 0 00-.47-.17h-.54v-.34h3.27v.34h-.54a.52.52 0 00-.47.17 2 2 0 00-.1.84v2.39l3.11-3a1.15 1.15 0 00.32-.44v-.31h1.89v.34h-.47a1.42 1.42 0 00-.87.42l-3 2.68 3.69 3.48a1.49 1.49 0 00.69.46h.24v.34h-1.62l-3.89-3.74-.11.08zm10.08.63h2.84l-1.41-3.33-1.42 3.33zm1.88-4.82l2.71 6.35c.1.22.22.52.36.76a.62.62 0 00.45.38h.38v.34h-2.98v-.34h.53a.43.43 0 00.46-.22 2.61 2.61 0 00-.23-.71l-.51-1.28h-3.21l-.31.75a6.44 6.44 0 00-.39 1.16c0 .23.19.28.54.31h.41v.34h-2.58v-.34h.41a.8.8 0 00.6-.55l2-4.52c.35-.78.73-1.61 1-2.41h.32zm12 4.82h2.83l-1.41-3.33-1.46 3.32zm1.88-4.82l2.71 6.35c.1.22.22.52.36.76a.62.62 0 00.45.38h.38v.34h-2.98v-.34h.53a.43.43 0 00.46-.22 2.59 2.59 0 00-.24-.71l-.59-1.3h-3.22l-.31.75a6.37 6.37 0 00-.39 1.16c0 .23.19.28.54.31h.41v.34h-2.58v-.34h.41a.8.8 0 00.6-.55l2-4.52c.35-.78.73-1.61 1-2.41h.36zm19 1.47v5a2 2 0 00.1.84.52.52 0 00.47.17h.54v.34h-3.12v-.34h.38a.55.55 0 00.47-.17 2 2 0 00.1-.84V3.46a9.08 9.08 0 00-.49.92l-2 4.22c-.21.46-.4.95-.6 1.42h-.22l-3.1-6.56v5.07a2 2 0 00.1.84.55.55 0 00.47.17h.49v.34h-2.64v-.34h.49a.55.55 0 00.47-.17 2 2 0 00.1-.84v-5a2 2 0 00-.1-.84.55.55 0 00-.47-.17h-.49v-.34h2.12l3 6.21 2.93-6.21h2.06v.34h-.47a.55.55 0 00-.47.17 2 2 0 00-.1.84zm5.71 3.35h2.83l-1.46-3.34-1.42 3.33zm1.88-4.82l2.71 6.35c.1.22.22.52.36.76a.62.62 0 00.45.38h.38v.34h-2.98v-.34h.53a.43.43 0 00.46-.22 2.58 2.58 0 00-.24-.71l-.51-1.28h-3.22l-.31.75a6.44 6.44 0 00-.39 1.16c0 .23.19.28.54.31h.41v.34h-2.58v-.34h.41a.8.8 0 00.6-.55l2-4.52c.35-.78.73-1.61 1-2.41h.36zm7.07 5.43v-4a2 2 0 00-.1-.84.52.52 0 00-.47-.17h-.54v-.34h3.28v.34h-.54a.52.52 0 00-.47.17 2 2 0 00-.1.84v3.84c0 1.59.83 2 2.3 2a2 2 0 002.3-2.31V3.45a2 2 0 00-.1-.84.54.54 0 00-.47-.17h-.49V2.1h2.64v.34h-.49a.55.55 0 00-.47.17 2 2 0 00-.1.84v3.23c0 2.39-.91 3.35-3.16 3.35-1.9 0-3-.57-3-2.61zM207.83 0h4.18v.84h-4.18V0zm151.92 25.63l-3.94 10h8l-4.1-10zm5 12.22h-9.89l-1.66 4.4c-.55 1.49.24 2.2.95 2.24l2 .12v1.47c-1.89 0-3.31-.11-4.45-.11s-2.56.07-4.45.11v-1.47l1.18-.12c1-.12 1.74-1.22 2.21-2.36l7.13-17.25 1-2.72.63-1.62.59-1.62h2.8l10.16 23.85a2.47 2.47 0 002.17 1.73l.95.12v1.47c-2.64 0-4.57-.11-6.11-.11s-3.51.07-6.11.11v-1.47l2.09-.12c.63 0 1.06-.9.55-2.16l-1.77-4.48zM170.84 24.31l6.19 15.24 5.6-13.91a14.86 14.86 0 001.22-3.86c0-.71-.67-1-1.46-1.06l-1.81-.12v-1.47c1.93 0 3.43.11 4.57.11s2.6-.08 4.53-.11v1.47l-1.26.12c-.87.08-1.38.71-1.85 1.85l-8.2 19.62c-.55 1.3-1 2.6-1.5 3.9h-3l-9.42-22.53c-.47-1.1-1.1-2.72-2.44-2.84l-1.62-.12v-1.47c2.6 0 4.61.11 6.15.11s3.51-.08 6.46-.11v1.47l-2 .12a1 1 0 00-1 .75 9.18 9.18 0 00.83 2.84zm31.82.27v16.06a9.45 9.45 0 00.28 3.19c.16.31.59.47 1.62.55l1.46.12v1.59c-1.62 0-3.78-.11-6.11-.11s-4.53.07-6.15.11V44.5l1.46-.12c1-.08 1.46-.24 1.62-.55a9.43 9.43 0 00.28-3.19V24.58a9.42 9.42 0 00-.28-3.19c-.16-.31-.59-.47-1.62-.55l-1.47-.14v-1.59c1.62 0 3.78.11 6.15.11s4.49-.08 6.11-.11v1.59l-1.46.12c-1 .08-1.46.24-1.62.55a9.44 9.44 0 00-.28 3.19zm32.92 18l-.87 1.93a17.33 17.33 0 01-9.07 2.17c-9 0-15.6-5-15.6-14.47 0-9.07 7.37-13.6 15.76-13.6a22.57 22.57 0 019.67 1.85l.24.43a52.52 52.52 0 00-.91 6h-1.55l-.2-3.39a9.36 9.36 0 00-7.09-2.72c-6.54 0-10 4.65-10 10.88 0 7.21 4.17 12.42 11.62 12.42a16.89 16.89 0 007.54-2l.47.47zm19.06-21v19.06a9.48 9.48 0 00.28 3.19c.16.31.59.47 1.61.55l1.42.12v1.59c-1.61 0-3.78-.11-6.1-.11s-4.53.07-6.14.11V44.5l1.46-.12c1-.08 1.46-.24 1.61-.55a9.44 9.44 0 00.28-3.19V21.57h-4.6c-1.06 0-2.16 0-2.44.35a1.77 1.77 0 00-.35.95l-.2 2.72h-1.52a45.19 45.19 0 00-.51-6.26l.24-.2c4.15 0 8.24.12 12.22.12s8.11-.08 12.26-.12l.24.2a45.18 45.18 0 00-.51 6.26h-1.59l-.2-2.72a1.76 1.76 0 00-.35-.95c-.28-.35-1.38-.35-2.44-.35h-4.6zm27.57-.79c-7.33 0-9.07 5.48-9.07 11.39 0 6.5 2.72 12.26 8.28 12.26 7.33 0 9.07-5.44 9.07-11.35 0-6.5-2.72-12.3-8.28-12.3zm0-2.21c8.83 0 14.19 4.81 14.19 13.8 0 9.3-6 14.27-15 14.27-8.83 0-14.19-4.81-14.19-13.8 0-9.3 6-14.27 15-14.27zm21.25 22.06V24.58a9.45 9.45 0 00-.28-3.19c-.2-.39-.59-.59-1.62-.67l-1.46-.12v-1.48c2.6 0 4.61.12 6.62.12 2.68 0 5.32-.08 8-.12 4-.08 7.73 1.14 7.73 5.83 0 3.47-2.6 5.79-5.87 7l7.14 10.75a5.53 5.53 0 001.14 1.22 4 4 0 001.62.55v1.59c-1.26 0-2.56-.11-3.82-.11s-2.37.07-3.55.11l-8.83-13.68.28-.71c3.63.31 6.31-1.93 6.31-5.63 0-3.23-2.25-5-5.32-5a6.43 6.43 0 00-2.52.35v19.18a9.48 9.48 0 00.28 3.19c.16.31.59.47 1.62.55l1.46.12v1.59c-1.62 0-3.79-.11-6.11-.11s-4.53.07-6.15.11V44.5l1.46-.12c1-.08 1.46-.24 1.62-.55a9.48 9.48 0 00.28-3.19zm36-16.06v16.06a9.45 9.45 0 00.28 3.19c.16.31.59.47 1.62.55l1.46.12v1.59c-1.62 0-3.78-.11-6.11-.11s-4.53.07-6.15.11V44.5l1.46-.12c1-.08 1.46-.24 1.62-.55a9.45 9.45 0 00.28-3.19V24.58a9.45 9.45 0 00-.28-3.19c-.16-.31-.59-.47-1.62-.55l-1.46-.12v-1.59c1.62 0 3.78.11 6.15.11s4.49-.08 6.11-.11v1.57l-1.46.12c-1 .08-1.46.24-1.62.55a9.44 9.44 0 00-.28 3.19zm28.88 36.75v-4.55a2.66 2.66 0 00-.08-.9.47.47 0 00-.46-.19h-.41v-.42h2.28c.38.5.75 1 1.15 1.49l3.49 4.07v-4a2.67 2.67 0 00-.08-.9.47.47 0 00-.46-.19h-.41v-.42h2.56v.38h-.41a.48.48 0 00-.46.19 2.67 2.67 0 00-.08.9v6.2l-1-.1c-.46-.51-.93-1-1.36-1.56l-3.66-4.36v4.36a2.68 2.68 0 00.08.9.48.48 0 00.46.19h.41v.42h-2.56v-.42h.41a.47.47 0 00.46-.19 2.67 2.67 0 00.08-.9zm-204.06-.46v-4.09a2.68 2.68 0 00-.08-.9.48.48 0 00-.46-.19h-.41v-.42h3.47v.43h-.41a.48.48 0 00-.46.19 2.68 2.68 0 00-.08.9v2.77c0 1.57.1 2.57 2 2.57s2.08-1 2.08-2.65v-2.69a2.67 2.67 0 00-.08-.9.48.48 0 00-.46-.19h-.44v-.42h2.56v.42h-.41a.48.48 0 00-.46.19 2.66 2.66 0 00-.08.9v3.26c0 2-1.08 3-3.11 3s-3.2-.91-3.2-2.17zm10.52.46v-4.55a2.7 2.7 0 00-.08-.9.48.48 0 00-.46-.19h-.41v-.42h2.28c.38.5.75 1 1.15 1.49l3.49 4.07v-4a2.66 2.66 0 00-.08-.9.48.48 0 00-.46-.19h-.41v-.42h2.56v.38h-.43a.48.48 0 00-.46.19 2.66 2.66 0 00-.08.9v6.2l-1-.1c-.46-.51-.93-1-1.36-1.56l-3.62-4.35v4.36a2.67 2.67 0 00.08.9.48.48 0 00.46.19h.41v.42h-2.56v-.42h.41a.48.48 0 00.46-.19 2.71 2.71 0 00.08-.9zm12.65-4.55v4.55a2.67 2.67 0 00.08.9.52.52 0 00.46.16h.41v.45h-3.47v-.45h.41a.52.52 0 00.46-.16 2.69 2.69 0 00.08-.9v-4.55a2.67 2.67 0 00-.08-.9.52.52 0 00-.46-.16h-.41v-.45h3.47v.43h-.45a.52.52 0 00-.46.16 2.65 2.65 0 00-.08.9zm6.29-.08l1.75 4.32 1.59-3.94a4.19 4.19 0 00.35-1.09.36.36 0 00-.48-.29h-.51v-.42h2.59v.42h-.36a.68.68 0 00-.53.53l-2.33 5.56c-.16.37-.28.74-.42 1.11h-.85l-2.67-6.39a1.09 1.09 0 00-.69-.8h-.46v-.42h3.57v.41h-.56a.28.28 0 00-.29.21 2.62 2.62 0 00.24.8zm10.19-.79v2.68h1.49c.39 0 .62 0 .64-.23l.07-.64h.45v2.41h-.45l-.07-.56c0-.31-.25-.41-.64-.41h-1.49v3h1.43a3.79 3.79 0 001.36-.19l.26-1.05h.44l-.12 1.77a16.19 16.19 0 01-2.81.12h-2.71v-.26l.36-.2a.64.64 0 00.22-.64v-5a2.7 2.7 0 00-.08-.9.48.48 0 00-.46-.19h-.41v-.42h4.19a15 15 0 011.63 0l-.09 1.67h-.4l-.09-.84a2.21 2.21 0 00-1.29-.21h-1.43zm7 5.42v-4.55a2.66 2.66 0 00-.08-.9.48.48 0 00-.46-.19l-.44.01v-.42h4.15c1.14 0 2.19.32 2.19 1.65a2.19 2.19 0 01-1.67 2l2 3.06a1.59 1.59 0 00.32.35 1.14 1.14 0 00.46.16v.45h-2.08l-2.5-3.88.08-.2a1.54 1.54 0 001.79-1.6 1.36 1.36 0 00-1.51-1.41 1.85 1.85 0 00-.72.1v5.44a2.7 2.7 0 00.08.9.52.52 0 00.46.16h.41v.45h-3.47v-.45h.41a.52.52 0 00.46-.16 2.68 2.68 0 00.08-.9zm9.21-.75h.45l.08 1a2.28 2.28 0 001.75.86 1.55 1.55 0 001.75-1.48 1.08 1.08 0 00-.93-1l-1.57-.47a2 2 0 01-1.63-1.9c0-1.79 1.33-2.47 3-2.47a5.78 5.78 0 012.08.38 16.3 16.3 0 00-.1 1.72h-.46l-.07-.92a2.12 2.12 0 00-1.49-.61 1.34 1.34 0 00-1.53 1.35 1.22 1.22 0 001.19 1.08l1.27.34a2 2 0 011.69 1.92c0 1.9-1.58 2.7-3.27 2.7a5.41 5.41 0 01-2.34-.52 9.51 9.51 0 00.17-1.93zm10.7-3.81v4.55a2.68 2.68 0 00.08.9.52.52 0 00.46.16h.41v.45h-3.47v-.45h.41a.52.52 0 00.46-.16 2.68 2.68 0 00.08-.9v-4.55a2.66 2.66 0 00-.08-.9.52.52 0 00-.46-.16h-.41v-.45h3.47v.44h-.41a.52.52 0 00-.46.16 2.66 2.66 0 00-.08.9zm7.62-.85v5.41a2.71 2.71 0 00.08.9.52.52 0 00.46.16h.41v.45h-3.47v-.45h.41a.51.51 0 00.46-.16 2.68 2.68 0 00.08-.9v-5.41h-1.3a1.21 1.21 0 00-.69.1.51.51 0 00-.1.27l-.06.77h-.45a12.78 12.78 0 00-.15-1.78h7.01c0 .59-.06 1.11-.08 1.83h-.52l-.06-.77a.5.5 0 00-.1-.27 1.21 1.21 0 00-.69-.1h-1.3zm9.07 2.93l2.1-3.59h.86v.21l-2 2.91a7.21 7.21 0 00-.59 1.12v1.82a2.68 2.68 0 00.08.91.53.53 0 00.46.16h.41v.45h-3.47v-.45h.41a.53.53 0 00.46-.16 2.73 2.73 0 00.08-.91v-1.56a7 7 0 00-.49-1l-1.13-1.82a6.45 6.45 0 00-.58-.75 1 1 0 00-.87-.37v-.41l1.78-.39a3.36 3.36 0 011.27 1.51l1.2 2.27zm14-3.16c-2.08 0-2.57 1.55-2.57 3.23 0 1.85.77 3.48 2.35 3.48 2.08 0 2.57-1.54 2.57-3.22 0-1.85-.77-3.49-2.35-3.49zm0-.62c2.5 0 4 1.36 4 3.91s-1.69 4-4.25 4-4-1.37-4-3.91 1.69-4 4.25-4zm9.09.84v2.72h1.32c.39 0 .62 0 .64-.23l.07-.59h.45v2.36h-.45l-.07-.56c0-.31-.25-.41-.64-.41h-1.32v2.09a2.7 2.7 0 00.08.9.52.52 0 00.46.16h.53v.45h-3.58v-.45h.41a.52.52 0 00.46-.16 2.7 2.7 0 00.08-.9v-4.55a2.7 2.7 0 00-.08-.9.48.48 0 00-.46-.19h-.41v-.42h4.01a15 15 0 011.63 0l-.09 1.67h-.4l-.09-.84a2.21 2.21 0 00-1.29-.21h-1.25zm13.13 4.58l1.66-3.94.57-1.39h.5c.18.52.36 1 .55 1.49l1.52 3.8 1.1-4.19a1.39 1.39 0 000-.37.37.37 0 00-.39-.22h-.51v-.42h2.42v.45h-.37a.93.93 0 00-.48.77l-1.37 4.81c-.15.53-.25 1.06-.37 1.6h-.83c-.15-.39-.27-.78-.42-1.17l-1.67-4.19-1.73 4c-.2.46-.35.93-.53 1.4h-.78l-1.55-6.72a.49.49 0 00-.41-.47h-.36v-.42h3.24v.39h-.47a.37.37 0 00-.34.26 1.87 1.87 0 000 .31l.91 4.24zm12.2-4.57v2.68h1.49c.39 0 .61 0 .64-.23l.07-.64h.45v2.41h-.45l-.07-.56c0-.31-.25-.41-.64-.41h-1.49v3h1.43a3.79 3.79 0 001.36-.19l.26-1.05h.44l-.12 1.77a16.19 16.19 0 01-2.81.12h-2.71v-.26l.36-.2a.63.63 0 00.22-.64v-5a2.68 2.68 0 00-.08-.9.48.48 0 00-.46-.19h-.41v-.42h4.19a15 15 0 011.63 0l-.09 1.67h-.4l-.09-.84a2.21 2.21 0 00-1.29-.21h-1.43zm8.55.87v5.42h1.43a3.79 3.79 0 001.36-.19l.26-1.14h.44l-.12 1.86a16.19 16.19 0 01-2.81.12h-2.71v-.26l.36-.2a.63.63 0 00.22-.64v-5a2.66 2.66 0 00-.08-.9.52.52 0 00-.46-.16h-.44v-.45h3.47v.45h-.41a.52.52 0 00-.46.16 2.67 2.67 0 00-.08.9zm8.55 0v5.42h1.43a3.79 3.79 0 001.36-.19l.26-1.14h.44l-.12 1.86a16.19 16.19 0 01-2.81.12h-2.71v-.26l.36-.2a.64.64 0 00.22-.64v-5a2.7 2.7 0 00-.08-.9.52.52 0 00-.45-.16h-.41v-.45h3.47v.45h-.41a.52.52 0 00-.46.16 2.67 2.67 0 00-.08.9zm8.55 0v4.55a2.7 2.7 0 00.08.9.52.52 0 00.46.16h.41v.45h-3.47v-.45h.41a.52.52 0 00.46-.16 2.68 2.68 0 00.08-.9v-4.55a2.66 2.66 0 00-.08-.9.52.52 0 00-.46-.16h-.41v-.45h3.47v.42h-.41a.52.52 0 00-.46.16 2.68 2.68 0 00-.08.9zm4.45 4.55v-4.55a2.66 2.66 0 00-.08-.9.47.47 0 00-.46-.19h-.41v-.42h2.28c.38.5.75 1 1.15 1.49l3.49 4.07v-4a2.67 2.67 0 00-.08-.9.48.48 0 00-.46-.19h-.41v-.42h2.56v.37h-.41a.48.48 0 00-.46.19 2.71 2.71 0 00-.08.9v6.2l-1-.1c-.46-.51-.93-1-1.36-1.56l-3.62-4.35v4.36a2.68 2.68 0 00.08.9.48.48 0 00.46.19h.41v.42h-2.56v-.42h.41a.47.47 0 00.46-.19 2.67 2.67 0 00.08-.9zm17.9-.79v1.82a8.92 8.92 0 01-3.27.67c-2.55 0-4.42-1.43-4.42-4.1s2.09-3.86 4.47-3.86a7.75 7.75 0 013.08.53c0 .53-.13 1.35-.19 1.83h-.44l-.06-1a3.28 3.28 0 00-2.34-.77 2.77 2.77 0 00-2.84 3.09c0 1.93 1 3.62 3 3.62a3.9 3.9 0 001.42-.28v-1.4c0-.35-.28-.4-.64-.41h-.59v-.46h3.27v.38c-.38.08-.46.12-.46.4zm7.33-4.62v5.41a2.71 2.71 0 00.08.9.52.52 0 00.46.16h.41v.45h-3.47v-.45h.41a.52.52 0 00.46-.16 2.7 2.7 0 00.08-.9v-5.41h-1.3a1.22 1.22 0 00-.69.1.51.51 0 00-.1.27l-.06.77h-.45a12.75 12.75 0 00-.15-1.78h7.01c0 .59-.06 1.11-.08 1.83h-.45l-.06-.77a.51.51 0 00-.1-.27 1.21 1.21 0 00-.69-.1h-1.3z" fill="#fff"/></svg>