<svg xmlns="http://www.w3.org/2000/svg" viewBox="0 0 214.835 153.585"><path d="M43.115 65.106h4.142v.828h-4.142v-.828zm54.3 70.925v6.331h20.144v-6.331l-2.878 3.165h-4.03l-3.164-3.165-3.167 3.169h-4.03l-2.878-3.165zM84.038 90.856v6.33h20.144v-6.33l-2.878 3.165h-4.03l-3.164-3.165-3.164 3.165h-4.03l-2.878-3.165zm26.754 0v6.33h20.144v-6.33l-2.878 3.165h-4.03l-3.164-3.165-3.164 3.165h-4.03l-2.878-3.165zm-3.305 11.426c-3.222 0-4.7 2.308-7.922 2.308s-4.7-2.377-7.923-2.308c-3 .064-4.331 2.258-7.335 2.308-2.971.049-5.131-2.124-7.338-2.019v19.909c.113 4.168 3.333 10.154 7.324 10.154 3-.05 4.346-2.23 7.348-2.294 3.222-.069 4.7 2.308 7.923 2.308s4.7-2.308 7.922-2.308 4.7 2.308 7.922 2.308 4.7-2.376 7.923-2.308c3 .064 4.329 2.244 7.332 2.294 3.991 0 7.228-5.986 7.341-10.154v-19.908c-2.207-.105-4.366 2.068-7.338 2.019-3-.05-4.332-2.244-7.335-2.308-3.222-.069-4.7 2.308-7.923 2.308s-4.7-2.308-7.922-2.308zm-.01 51.3c-1.3 0-32.94-13.706-32.94-31.1V84.526h65.895v37.954c0 17.4-31.662 31.1-32.955 31.1zm-4.705-29.362l-1.38-2.389 1.38-2.39h-2.759l-1.38-2.389-1.38 2.389h-2.759l1.38 2.39-1.38 2.389h2.759l1.38 2.389 1.38-2.389h2.759zm17.708-8.722l-1.38-2.39 1.38-2.389h-2.759l-1.38-2.39-1.38 2.39H112.2l1.38 2.389-1.38 2.39h2.759l1.38 2.389 1.38-2.389h2.759zm-12.67 0l-1.38-2.39 1.38-2.389h-2.759l-1.38-2.39-1.38 2.39H99.53l1.379 2.389-1.379 2.39h2.759l1.38 2.389 1.38-2.389h2.759zm7.631 8.722l-1.38-2.389 1.38-2.39h-2.759l-1.38-2.389-1.38 2.389h-2.759l1.38 2.39-1.38 2.389h2.759l1.38 2.389 1.38-2.389h2.759zm-24.213-17.541h32.516v21.581H91.226v-21.578zm-24.175-3.737c-1.863 0-4.213-2.408-4.013-3.906 1.094-8.175 5.3-5.543 8.4-7.925.884 1.149 2.18 11.831-4.383 11.831zm98.413 7.421a9.336 9.336 0 0 1-3.455 5.755c1.751-.053 4.575.182 5.18-2.013a3.224 3.224 0 0 0-1.725-3.741zm-4.891-1.151c-6.182-.271-8.58 3.423-6.514 4.828 3.929 2.672 6.48-4.915 6.514-4.828zm.287-8.918a7.581 7.581 0 0 1-3.76 2.026 53.81 53.81 0 0 1 6.352 0 10.733 10.733 0 0 1-2.591-2.026zM148.9 92.93a4.847 4.847 0 1 0 4.847-4.847 4.847 4.847 0 0 0-4.847 4.847zm19.41 3.948a2.721 2.721 0 0 1 3.206-.7c1.434.494 2.33 1.7 2.059 2.731 7.122-.135 8.818-1.789 8.869-1.726-2.072 3.815-8.131 6.563-10.419 6.778 3.242 1.109 9.586 4.8 9.555 11.926 0 10.416-10.108 11.87-15.789 10.368a4.171 4.171 0 0 1 2.808 2.005h-25.581v-21.038a11.937 11.937 0 0 1 4.15-2.8 1.812 1.812 0 0 0 1.028-1.776 9.582 9.582 0 0 1-5.179-3.165V87.4s3.079-4.316 10.358-4.316a11.456 11.456 0 0 1 8.921 4.891s2.422-2.042 7.192-2.013c10.757 0 13.237 10.363 13.237 10.363a17.62 17.62 0 0 0-8.9-3.744 2.285 2.285 0 0 1-2.341 1.657 2.371 2.371 0 0 1-2.258-1.368l-.884.574a2.464 2.464 0 0 1 .157 1.091 2.542 2.542 0 0 1-1 1.8l.814.543zm-16.729-3.948a2.166 2.166 0 1 1 2.166 2.166 2.166 2.166 0 0 1-2.166-2.166zm-79.634 8.86v26.473H32.234a23.509 23.509 0 0 1 2.591-4.892c-.988-.813-1.815-1.552-1.726-1.439-.089-.113 5.308-7.125 9.207-7.195a8.014 8.014 0 0 1-1.438-1.437c1.394-1.55 3.872-1.657 12.085-2.3 8.2-.725 9.355-2.873 9.5-9.512 2.031 2.446 5.476 5.414 9.495.3zM51.8 88.266c-2.628-1.807-3.961-2.5-4.889-2.306-.858.176-2.612 3.015-2.591 2.882a32.8 32.8 0 0 1 7.48-.576zM42.019 99.2c-1.877-1.584-4.278-4.743-4.609-6.907a3.009 3.009 0 0 1 .868-2.593 5.143 5.143 0 0 1-.294-2.3c1.142-3.406 17.384-3.564 20.722-3.454 7.594.34 9.207 0 12.949-1.439-.1-.127-1.253 5.566-8.345 5.467a8.635 8.635 0 0 0 0 .864c2.8.053 6.13-.58 8.057-2.878-.056 1.93.673 4.3-3.164 5.18-3.686.846-5.985.732-7.194 11.222-.245 2.952.017 5.55-4.891 6.617-4.714 1.027-17.169 1.351-19.409 3.1l-.448-.8A7.863 7.863 0 0 0 40 104.092a3.875 3.875 0 0 1 1.727-.575c-.047.985-1.258 3.173 4.6 3.165.113.008 5.514.641 3.17-6.329-.734-2.182-1.378-4.656-4.033-4.605-.015-.05-3.409.158-1.734 3.529 2.387.5 5.106 1.087 5.476 2.8.291 1.764-1.008 2.725-2.02 2.3-.98-.414-3.77-2-5.747-2-3.661 0-10.2 4.154-14.385-3.713 1.211 1.3 2.356 2.159 6.327 2.27 3.919.11 4.705-1.616 8.632-1.726zM10.4 5.708l6.164 15.182 5.575-13.849a14.822 14.822 0 0 0 1.217-3.845c0-.706-.667-1.02-1.453-1.059l-1.806-.118V.551c1.924.039 3.416.114 4.554.114S27.242.59 29.166.551v1.468l-1.256.118c-.864.079-1.374.706-1.845 1.844L17.9 23.519c-.549 1.295-.981 2.589-1.492 3.884h-2.984L4.041 4.962c-.471-1.1-1.1-2.706-2.434-2.824L0 2.02V.552c2.591.039 4.593.114 6.124.114S9.618.591 12.562.552V2.02l-1.963.118a.978.978 0 0 0-1.02.746 9.145 9.145 0 0 0 .824 2.825zm31.7.271v15.994a9.408 9.408 0 0 0 .275 3.175c.157.314.589.471 1.61.549l1.453.118V27.4c-1.61-.04-3.769-.115-6.085-.115-2.356 0-4.515.075-6.124.115v-1.586l1.453-.118c1.021-.078 1.453-.235 1.61-.549a9.417 9.417 0 0 0 .274-3.175V5.98a9.416 9.416 0 0 0-.274-3.175c-.157-.313-.589-.47-1.61-.548l-1.453-.119V.553c1.609.039 3.769.114 6.124.114 2.316 0 4.476-.075 6.085-.114v1.585l-1.453.119c-1.021.078-1.453.235-1.61.548A9.407 9.407 0 0 0 42.1 5.98zm32.79 17.89l-.864 1.924a17.25 17.25 0 0 1-9.037 2.159c-8.942 0-15.536-5.025-15.536-14.408C49.453 4.515 56.793 0 65.146 0a22.482 22.482 0 0 1 9.627 1.846l.236.432a52.273 52.273 0 0 0-.9 6.007h-1.546l-.2-3.377A9.322 9.322 0 0 0 65.3 2.2c-6.51 0-9.962 4.633-9.962 10.835 0 7.185 4.157 12.366 11.569 12.366a16.812 16.812 0 0 0 7.509-2l.471.471zM93.873 2.984V21.97a9.45 9.45 0 0 0 .274 3.177c.157.314.588.471 1.606.549l1.449.118V27.4c-1.606-.04-3.761-.115-6.077-.115-2.356 0-4.511.075-6.116.115v-1.586l1.449-.118c1.019-.078 1.449-.235 1.605-.549a9.43 9.43 0 0 0 .274-3.177V2.984h-4.582c-1.058 0-2.154 0-2.429.353a1.756 1.756 0 0 0-.352.941l-.2 2.707H79.19a44.97 44.97 0 0 0-.51-6.239l.235-.2c4.133.04 8.206.118 12.168.118 4 0 8.075-.079 12.208-.118l.236.2a44.894 44.894 0 0 0-.51 6.239h-1.586l-.2-2.707a1.753 1.753 0 0 0-.353-.941c-.274-.353-1.371-.353-2.428-.353h-4.582zm27.458-.785c-7.3 0-9.03 5.457-9.03 11.346 0 6.478 2.709 12.21 8.244 12.21 7.3 0 9.029-5.418 9.029-11.306 0-6.478-2.709-12.249-8.244-12.249zm0-2.2c8.794 0 14.133 4.79 14.133 13.741 0 9.265-5.928 14.212-14.919 14.212-8.794 0-14.133-4.789-14.133-13.74C106.412 4.947 112.34 0 121.33 0zm21.162 21.971V5.98a9.416 9.416 0 0 0-.274-3.175c-.2-.392-.589-.588-1.61-.667l-1.452-.118V.55c2.591.04 4.593.118 6.6.118 2.669 0 5.3-.079 7.969-.118 4-.078 7.695 1.139 7.695 5.808 0 3.452-2.591 5.766-5.85 6.943l7.106 10.749a5.511 5.511 0 0 0 1.139 1.216 4 4 0 0 0 1.609.55V27.4c-1.256-.04-2.551-.115-3.808-.115-1.178 0-2.355.075-3.533.115l-8.794-13.63.275-.706c3.611.313 6.281-1.922 6.281-5.61 0-3.217-2.238-4.943-5.3-4.943a6.406 6.406 0 0 0-2.512.353v19.1a9.425 9.425 0 0 0 .275 3.177c.157.314.589.471 1.609.549l1.453.118V27.4c-1.61-.04-3.769-.115-6.085-.115-2.356 0-4.515.075-6.124.115v-1.586l1.452-.118c1.021-.078 1.453-.235 1.61-.549a9.43 9.43 0 0 0 .274-3.177zm35.823-15.991v15.994a9.413 9.413 0 0 0 .275 3.175c.157.314.589.471 1.609.549l1.453.118V27.4c-1.609-.04-3.769-.115-6.085-.115-2.356 0-4.515.075-6.124.115v-1.586l1.453-.118c1.021-.078 1.452-.235 1.609-.549a9.417 9.417 0 0 0 .274-3.175V5.98a9.416 9.416 0 0 0-.274-3.175c-.157-.313-.589-.47-1.609-.548l-1.453-.119V.553c1.609.039 3.769.114 6.124.114 2.316 0 4.476-.075 6.085-.114v1.585l-1.453.119c-1.021.078-1.452.235-1.609.548a9.412 9.412 0 0 0-.275 3.175zm20.228 1.048L194.616 17h8.009l-4.083-9.972zm4.986 12.171h-9.854l-1.649 4.385c-.549 1.488.236 2.192.942 2.231l1.963.119V27.4c-1.885-.04-3.3-.115-4.436-.115s-2.551.075-4.436.115v-1.468l1.178-.119c1.021-.117 1.727-1.214 2.2-2.349l7.106-17.184 1.021-2.709.628-1.61.589-1.609h2.787l10.167 23.739a2.457 2.457 0 0 0 2.16 1.722l.942.119V27.4c-2.63-.04-4.554-.115-6.085-.115s-3.494.075-6.085.115v-1.468l2.08-.119c.628-.039 1.06-.9.55-2.153l-1.767-4.463zm3.719 23.335V37.98a2.674 2.674 0 0 0-.079-.9.476.476 0 0 0-.458-.19l-.413-.034v-.418c.447.011.894.033 1.341.033.313 0 .626-.021.939-.033.38.5.749 1.022 1.151 1.491l3.488 4.066v-4.01a2.683 2.683 0 0 0-.078-.9.476.476 0 0 0-.458-.19l-.414-.034v-.418c.425.011.861.033 1.286.033s.849-.021 1.274-.033v.418l-.413.034a.477.477 0 0 0-.458.19 2.683 2.683 0 0 0-.078.9v5.072c0 .391.022.793.034 1.128l-.995-.1c-.458-.514-.928-1.039-1.364-1.557l-3.622-4.353-.022 4.364a2.672 2.672 0 0 0 .079.9.477.477 0 0 0 .458.19l.413.034v.418c-.425-.012-.849-.033-1.274-.033s-.861.021-1.285.033v-.418l.413-.034a.477.477 0 0 0 .458-.19 2.672 2.672 0 0 0 .079-.9zM3.188 42.068V37.98a2.684 2.684 0 0 0-.078-.9.477.477 0 0 0-.458-.19l-.414-.034v-.418c.458.011 1.073.033 1.744.033s1.274-.021 1.733-.033v.418l-.414.034a.477.477 0 0 0-.458.19 2.681 2.681 0 0 0-.078.9v2.77c0 1.575.1 2.569 1.99 2.569 1.867 0 2.079-1.028 2.079-2.648V37.98a2.675 2.675 0 0 0-.078-.9.477.477 0 0 0-.458-.19l-.413-.034v-.418c.425.011.861.033 1.285.033s.85-.021 1.274-.033v.418l-.413.034a.477.477 0 0 0-.458.19 2.675 2.675 0 0 0-.078.9v3.262c0 2.044-1.084 2.994-3.108 2.994-2.113 0-3.2-.905-3.2-2.168zm10.517.465V37.98a2.684 2.684 0 0 0-.078-.9.477.477 0 0 0-.458-.19l-.414-.034v-.418c.447.011.894.033 1.341.033.313 0 .626-.021.939-.033.38.5.749 1.022 1.151 1.491l3.488 4.066v-4.01a2.683 2.683 0 0 0-.078-.9.476.476 0 0 0-.458-.19l-.414-.034v-.418c.425.011.861.033 1.286.033s.849-.021 1.274-.033v.418l-.414.034a.476.476 0 0 0-.458.19 2.682 2.682 0 0 0-.078.9v5.072c0 .391.023.793.034 1.128l-.995-.1c-.458-.514-.928-1.039-1.364-1.557l-3.622-4.353-.022 4.364a2.678 2.678 0 0 0 .078.9.478.478 0 0 0 .458.19l.414.034v.418c-.425-.012-.85-.033-1.275-.033s-.861.021-1.285.033v-.418l.414-.034a.478.478 0 0 0 .458-.19 2.682 2.682 0 0 0 .078-.9zm12.648-4.554v4.554a2.682 2.682 0 0 0 .078.9.522.522 0 0 0 .458.156l.414.034v.452c-.458-.012-1.073-.033-1.732-.033s-1.286.021-1.744.033v-.452l.414-.034a.522.522 0 0 0 .458-.156 2.684 2.684 0 0 0 .078-.9v-4.554a2.68 2.68 0 0 0-.078-.9.522.522 0 0 0-.458-.156l-.414-.034v-.452c.458.011 1.073.033 1.744.033s1.274-.021 1.732-.033v.452l-.414.034a.522.522 0 0 0-.458.156 2.678 2.678 0 0 0-.078.9zm6.29-.077l1.755 4.323 1.587-3.943a4.218 4.218 0 0 0 .347-1.095.357.357 0 0 0-.414-.3l-.514-.034v-.418c.548.011.973.033 1.3.033s.738-.021 1.286-.033v.418l-.358.034a.674.674 0 0 0-.525.525l-2.325 5.563c-.156.368-.279.737-.425 1.106H33.5l-2.672-6.39a1.087 1.087 0 0 0-.693-.8l-.458-.034v-.418c.738.011 1.308.033 1.744.033s1-.021 1.833-.033v.418l-.559.034a.278.278 0 0 0-.29.212 2.6 2.6 0 0 0 .235.8zm10.192-.787V39.8c.257.022.5.022.749.022h.738c.391 0 .615-.022.637-.235l.067-.637h.447c-.011.4-.034.794-.034 1.2s.022.805.034 1.207h-.447l-.067-.559c-.034-.313-.246-.414-.637-.414h-.738a8.34 8.34 0 0 0-.749.034V43.4c.47.023.95.034 1.431.034a3.8 3.8 0 0 0 1.364-.19l.259-1.051h.439l-.123 1.766a16.033 16.033 0 0 1-2.81.123c-.458-.011-.917-.034-1.375-.034s-.928.022-1.341.034v-.257l.358-.2a.636.636 0 0 0 .223-.638v-5a2.68 2.68 0 0 0-.078-.9.477.477 0 0 0-.458-.19l-.414-.034v-.419c.738.011 1.308.034 1.744.034 1.051 0 1.811-.022 2.448-.034a15.14 15.14 0 0 1 1.632.034l-.089 1.665h-.4l-.09-.838a2.195 2.195 0 0 0-1.285-.213c-.481 0-.961.011-1.431.034zm6.971 5.417v-4.553a2.681 2.681 0 0 0-.078-.9.477.477 0 0 0-.458-.19l-.414-.034v-.419c.738.011 1.308.034 1.878.034.76 0 1.509-.022 2.269-.034 1.14-.022 2.191.324 2.191 1.654a2.187 2.187 0 0 1-1.665 1.977l2.023 3.06a1.564 1.564 0 0 0 .324.346 1.142 1.142 0 0 0 .458.157v.452c-.358-.012-.727-.033-1.084-.033-.335 0-.671.021-1.006.033l-2.5-3.881.078-.2a1.537 1.537 0 0 0 1.789-1.6 1.36 1.36 0 0 0-1.509-1.407 1.822 1.822 0 0 0-.715.1v5.44a2.688 2.688 0 0 0 .078.9.522.522 0 0 0 .458.156l.414.034v.452c-.458-.012-1.073-.033-1.733-.033s-1.285.021-1.744.033v-.452l.414-.034a.522.522 0 0 0 .458-.156 2.686 2.686 0 0 0 .078-.9zm9.211-.745h.451l.079.984a2.284 2.284 0 0 0 1.753.861 1.544 1.544 0 0 0 1.752-1.476 1.083 1.083 0 0 0-.926-1.039l-1.566-.47a2.024 2.024 0 0 1-1.632-1.9c0-1.789 1.33-2.471 2.951-2.471a5.757 5.757 0 0 1 2.079.38 16.2 16.2 0 0 0-.1 1.721H63.4l-.067-.917a2.114 2.114 0 0 0-1.487-.615 1.34 1.34 0 0 0-1.531 1.353 1.226 1.226 0 0 0 1.185 1.084l1.274.335a1.967 1.967 0 0 1 1.688 1.923c0 1.9-1.576 2.694-3.273 2.694a5.428 5.428 0 0 1-2.339-.514 9.548 9.548 0 0 0 .168-1.934zm10.7-3.808v4.554a2.683 2.683 0 0 0 .078.9.522.522 0 0 0 .458.156l.414.034v.452c-.458-.012-1.073-.033-1.733-.033s-1.286.021-1.744.033v-.452l.414-.034a.522.522 0 0 0 .458-.156 2.684 2.684 0 0 0 .078-.9v-4.554a2.681 2.681 0 0 0-.078-.9.522.522 0 0 0-.458-.156l-.414-.034v-.452c.458.011 1.073.033 1.744.033s1.274-.021 1.733-.033v.452l-.414.034a.522.522 0 0 0-.458.156 2.68 2.68 0 0 0-.078.9zm7.62-.853v5.406a2.689 2.689 0 0 0 .078.9.52.52 0 0 0 .457.156l.413.034v.452c-.457-.012-1.071-.033-1.73-.033s-1.284.021-1.741.033v-.452l.412-.034a.519.519 0 0 0 .457-.156 2.689 2.689 0 0 0 .078-.9v-5.406h-1.3a1.2 1.2 0 0 0-.691.1.5.5 0 0 0-.1.268l-.056.771h-.454a12.8 12.8 0 0 0-.145-1.777c1.244-.045 2.4-.022 3.532-.022s2.3-.022 3.476-.034c-.022.592-.056 1.106-.078 1.833h-.451l-.056-.771a.5.5 0 0 0-.1-.268 1.2 1.2 0 0 0-.691-.1h-1.3zm9.075 2.932l2.1-3.591h.861v.212l-1.967 2.909a7.132 7.132 0 0 0-.592 1.119v1.824a2.7 2.7 0 0 0 .078.907.523.523 0 0 0 .458.157l.414.034v.452c-.458-.012-1.073-.033-1.733-.033s-1.286.021-1.744.033v-.452l.414-.034a.523.523 0 0 0 .458-.157 2.7 2.7 0 0 0 .078-.907v-1.555a6.937 6.937 0 0 0-.492-.951l-1.129-1.824a6.384 6.384 0 0 0-.581-.75 1.035 1.035 0 0 0-.872-.369v-.413l1.777-.391a3.36 3.36 0 0 1 1.274 1.51l1.2 2.271zM100.4 36.9c-2.079 0-2.571 1.554-2.571 3.231 0 1.845.771 3.476 2.347 3.476 2.079 0 2.571-1.543 2.571-3.219 0-1.845-.771-3.488-2.348-3.488zm0-.626c2.5 0 4.024 1.364 4.024 3.913 0 2.638-1.688 4.046-4.248 4.046-2.5 0-4.024-1.364-4.024-3.912 0-2.638 1.688-4.047 4.248-4.047zm9.094.839v2.716c.257.023.5.023.749.023h.57c.391 0 .615-.023.637-.234l.067-.591h.447c-.011.357-.034.748-.034 1.15s.022.8.034 1.206h-.447l-.067-.558c-.034-.312-.246-.413-.637-.413h-.57a8.34 8.34 0 0 0-.749.034v2.087a2.681 2.681 0 0 0 .078.9.522.522 0 0 0 .458.156l.525.034v.452c-.57-.012-1.185-.033-1.845-.033s-1.286.021-1.744.033v-.452l.414-.034a.522.522 0 0 0 .458-.156 2.674 2.674 0 0 0 .078-.9v-4.554a2.672 2.672 0 0 0-.078-.9.477.477 0 0 0-.458-.19l-.414-.034v-.419c.738.011 1.308.034 1.744.034.872 0 1.632-.022 2.269-.034a15.146 15.146 0 0 1 1.632.034l-.09 1.665h-.4l-.089-.838a2.195 2.195 0 0 0-1.286-.213c-.3 0-.782.011-1.252.034zm13.135 4.585l1.666-3.937.57-1.386h.5c.179.514.358 1.006.548 1.491l1.52 3.8 1.1-4.189a1.378 1.378 0 0 0 .045-.369.366.366 0 0 0-.391-.223l-.514-.034v-.418c.5.011.895.033 1.208.033s.693-.021 1.207-.033v.418l-.369.034a.926.926 0 0 0-.481.771l-1.364 4.826c-.146.525-.246 1.061-.369 1.6h-.816c-.145-.391-.268-.782-.425-1.173l-1.665-4.189-1.732 3.965c-.2.458-.347.927-.525 1.4h-.782L120 37.354a.491.491 0 0 0-.414-.469l-.358-.034v-.418c.738.011 1.308.033 1.744.033s.995-.021 1.5-.033v.418l-.469.034a.367.367 0 0 0-.335.257 1.856 1.856 0 0 0 .034.313l.898 4.245h.022zm12.275-4.585V39.8c.257.022.5.022.749.022h.738c.391 0 .615-.022.637-.235l.067-.637h.447c-.011.4-.034.794-.034 1.2s.022.805.034 1.207h-.447l-.067-.559c-.034-.313-.246-.414-.637-.414h-.738a8.34 8.34 0 0 0-.749.034V43.4c.47.023.95.034 1.431.034a3.8 3.8 0 0 0 1.364-.19l.259-1.051h.439l-.123 1.766a16.032 16.032 0 0 1-2.81.123c-.458-.011-.917-.034-1.375-.034s-.928.022-1.342.034v-.257l.358-.2a.636.636 0 0 0 .223-.638v-5a2.69 2.69 0 0 0-.078-.9.478.478 0 0 0-.458-.19l-.414-.034v-.419c.738.011 1.308.034 1.744.034 1.051 0 1.811-.022 2.448-.034a15.14 15.14 0 0 1 1.632.034l-.09 1.665h-.4l-.09-.838a2.194 2.194 0 0 0-1.285-.213c-.481 0-.961.011-1.431.034zm8.547.865V43.4c.469.023.95.034 1.431.034a3.809 3.809 0 0 0 1.364-.19l.254-1.144h.439l-.123 1.855a16.032 16.032 0 0 1-2.811.123c-.458-.011-.916-.034-1.375-.034s-.928.022-1.341.034v-.257l.358-.2a.636.636 0 0 0 .223-.637v-5a2.685 2.685 0 0 0-.078-.9.522.522 0 0 0-.458-.156l-.414-.034v-.452c.458.011 1.073.033 1.744.033s1.274-.021 1.733-.033v.452l-.414.034a.522.522 0 0 0-.458.156 2.682 2.682 0 0 0-.078.9zm8.547 0V43.4c.47.023.951.034 1.431.034a3.807 3.807 0 0 0 1.364-.19l.259-1.139h.439l-.124 1.855a16.029 16.029 0 0 1-2.81.123c-.458-.011-.917-.034-1.375-.034s-.928.022-1.341.034v-.257l.358-.2a.636.636 0 0 0 .223-.637v-5a2.676 2.676 0 0 0-.078-.9.522.522 0 0 0-.458-.156l-.413-.034v-.452c.458.011 1.073.033 1.744.033s1.274-.021 1.733-.033v.452l-.414.034a.522.522 0 0 0-.458.156 2.68 2.68 0 0 0-.079.9zm8.547 0v4.554a2.682 2.682 0 0 0 .078.9.522.522 0 0 0 .458.156l.414.034v.452c-.458-.012-1.073-.033-1.733-.033s-1.286.021-1.744.033v-.452l.414-.034a.523.523 0 0 0 .458-.156 2.684 2.684 0 0 0 .078-.9v-4.554a2.681 2.681 0 0 0-.078-.9.523.523 0 0 0-.458-.156l-.414-.034v-.452c.458.011 1.073.033 1.744.033s1.274-.021 1.733-.033v.452l-.414.034a.522.522 0 0 0-.458.156 2.678 2.678 0 0 0-.078.9zm4.446 4.554V37.98a2.682 2.682 0 0 0-.078-.9.476.476 0 0 0-.458-.19l-.414-.034v-.418c.447.011.894.033 1.341.033.313 0 .626-.021.939-.033.38.5.749 1.022 1.151 1.491l3.488 4.066v-4.01a2.68 2.68 0 0 0-.079-.9.476.476 0 0 0-.458-.19l-.414-.034v-.418c.425.011.861.033 1.286.033s.85-.021 1.274-.033v.418l-.414.034a.477.477 0 0 0-.458.19 2.692 2.692 0 0 0-.078.9v5.072c0 .391.022.793.034 1.128l-.995-.1c-.458-.514-.928-1.039-1.364-1.557l-3.622-4.353-.022 4.364a2.675 2.675 0 0 0 .078.9.478.478 0 0 0 .458.19l.413.034v.418c-.425-.012-.849-.033-1.275-.033s-.861.021-1.285.033v-.418l.414-.034a.478.478 0 0 0 .458-.19 2.681 2.681 0 0 0 .078-.9zm17.9-.79v1.822a8.914 8.914 0 0 1-3.266.671c-2.546 0-4.424-1.431-4.424-4.1 0-2.571 2.09-3.857 4.469-3.857a7.778 7.778 0 0 1 3.076.525 73.207 73.207 0 0 1-.19 1.834h-.44l-.056-.962a3.277 3.277 0 0 0-2.343-.771 2.768 2.768 0 0 0-2.839 3.085c0 1.934.995 3.622 3.007 3.622a3.916 3.916 0 0 0 1.42-.279v-1.476c0-.347-.28-.4-.637-.413l-.592-.022v-.461c.548.011 1.1.034 1.643.034s1.084-.022 1.632-.034v.38c-.38.078-.458.123-.458.4zm7.328-4.617v5.406a2.68 2.68 0 0 0 .078.9.52.52 0 0 0 .457.156l.412.034v.452c-.457-.012-1.071-.033-1.73-.033s-1.284.021-1.741.033v-.452l.412-.034a.519.519 0 0 0 .457-.156 2.683 2.683 0 0 0 .078-.9v-5.406h-1.3a1.2 1.2 0 0 0-.692.1.5.5 0 0 0-.1.268l-.056.771h-.451a12.774 12.774 0 0 0-.146-1.777c1.244-.045 2.4-.022 3.532-.022s2.3-.022 3.476-.034c-.022.592-.056 1.106-.078 1.833h-.451l-.056-.771a.5.5 0 0 0-.1-.268 1.2 1.2 0 0 0-.691-.1h-1.3zm9.433-.224c-2.079 0-2.571 1.554-2.571 3.231 0 1.845.771 3.476 2.347 3.476 2.079 0 2.571-1.543 2.571-3.219 0-1.845-.771-3.488-2.348-3.488zm0-.626c2.5 0 4.024 1.364 4.024 3.913 0 2.638-1.688 4.046-4.248 4.046-2.5 0-4.024-1.364-4.024-3.912 0-2.638 1.688-4.047 4.248-4.047zm-75.611 15.2h4.142v.825h-4.142v-.829zM34.683 59.9v-4.678c0-.42-.011-.774-.044-1.106h-1.715c-.332 0-.421.1-.443.365l-.044.874h-.343c0-.6-.022-1.205-.077-1.781.8 0 1.594.033 2.39.033h1.6c.8 0 1.594-.033 2.39-.033a18.974 18.974 0 0 0-.077 1.781h-.343l-.045-.874c-.022-.265-.11-.365-.443-.365h-1.715c-.033.332-.044.686-.044 1.106V59.9a1.953 1.953 0 0 0 .1.829.51.51 0 0 0 .465.166l.531.034v.336a39.704 39.704 0 0 0-3.238 0v-.335l.531-.034a.511.511 0 0 0 .465-.166 1.955 1.955 0 0 0 .1-.829zm6.936 0v-4.96a1.948 1.948 0 0 0-.1-.828.511.511 0 0 0-.465-.166l-.531-.033v-.337c.609.011 1.239.033 1.87.033.962 0 1.978-.033 2.607-.033.5 0 1 .011 1.432.033a7.4 7.4 0 0 0-.177 1.682h-.387v-.72a.292.292 0 0 0-.1-.3 6.87 6.87 0 0 0-2.171-.232 3.814 3.814 0 0 0-.928.088v2.955c.354.022.751.033 1.281.033a3.067 3.067 0 0 0 1.171-.122.418.418 0 0 0 .088-.288l.056-.576h.335c-.011.454-.032.874-.032 1.284s.021.83.032 1.229h-.336l-.056-.653a.365.365 0 0 0-.088-.277 2.752 2.752 0 0 0-1.171-.133c-.53 0-.939 0-1.281.033v3.1a3.813 3.813 0 0 0 .928.089 10.2 10.2 0 0 0 2.237-.144 2.052 2.052 0 0 0 .388-1.24h.387a9.521 9.521 0 0 0-.177 1.815c-.487.011-1.366.044-2.183.033-.85-.011-1.723-.033-2.409-.033-.421 0-.786.022-1.184.033v-.335l.4-.034a.54.54 0 0 0 .465-.166 1.95 1.95 0 0 0 .1-.829zm18.332-.847l-1.384-3.749-1.926 4.888c-.144.376-.288.752-.4 1.139h-.551c-.077-.409-.166-.752-.254-1.139l-1.317-5.7a.559.559 0 0 0-.553-.553l-.31-.034v-.336c.465.011.919.032 1.394.032s.93-.021 1.394-.032v.336l-.465.034c-.288.022-.509.077-.365.73l1.1 4.931 1.383-3.453c.343-.874.7-1.759 1-2.667h.354a14.02 14.02 0 0 0 .454 1.4l1.715 4.8 1.472-5.375c.066-.266-.089-.332-.509-.365l-.443-.034v-.336c.387.011.763.032 1.162.032s.775-.021 1.162-.032v.336l-.354.034a.423.423 0 0 0-.42.321l-1.693 5.95c-.088.321-.21.664-.3 1.117h-.553c-.243-.874-.509-1.515-.786-2.278zm13.831-4.115V59.9a1.95 1.95 0 0 0 .1.829.51.51 0 0 0 .465.166l.531.034v.336a39.668 39.668 0 0 0-3.238 0v-.335l.531-.034a.51.51 0 0 0 .465-.166 1.952 1.952 0 0 0 .1-.829v-2.464a13.254 13.254 0 0 0-.918-.022h-2.59c-.487 0-.786.011-.918.022V59.9a1.95 1.95 0 0 0 .1.829.51.51 0 0 0 .465.166l.531.034v.336a39.704 39.704 0 0 0-3.238 0v-.335l.531-.034a.51.51 0 0 0 .465-.166 1.952 1.952 0 0 0 .1-.829V54.94a1.95 1.95 0 0 0-.1-.828.512.512 0 0 0-.465-.166l-.531-.033v-.336a42.087 42.087 0 0 0 3.238 0v.336l-.531.033a.511.511 0 0 0-.465.166 1.948 1.948 0 0 0-.1.828v1.967c.133.011.432.022.918.022h2.59c.487 0 .786-.011.918-.022V54.94a1.95 1.95 0 0 0-.1-.828.512.512 0 0 0-.465-.166l-.531-.033v-.336a42.049 42.049 0 0 0 3.238 0v.336l-.531.033a.512.512 0 0 0-.465.166 1.948 1.948 0 0 0-.1.828zm5.674 3.317h2.8l-1.394-3.3-1.406 3.3zm1.859-4.77l2.678 6.284c.1.221.221.519.354.751a.614.614 0 0 0 .443.375l.376.034v.336c-.487-.011-.974-.032-1.472-.032-.387 0-.874.021-1.472.032v-.335l.52-.034a.424.424 0 0 0 .454-.221 2.573 2.573 0 0 0-.232-.707l-.509-1.27h-3.187l-.31.74a6.372 6.372 0 0 0-.387 1.148c0 .232.188.276.531.309l.41.034v.336c-.531-.011-.952-.032-1.273-.032-.432 0-.852.021-1.273.032v-.335l.41-.034a.791.791 0 0 0 .6-.541l1.97-4.478c.343-.775.719-1.594 1.018-2.391h.354zm8.164.642V59.9a1.954 1.954 0 0 0 .1.829.51.51 0 0 0 .465.166l.531.034v.336a39.668 39.668 0 0 0-3.238 0v-.335l.531-.034a.51.51 0 0 0 .465-.166 1.95 1.95 0 0 0 .1-.829V54.94a1.948 1.948 0 0 0-.1-.828.54.54 0 0 0-.465-.166l-.454-.033v-.337c.586.011 1.228.033 1.881.033s1.295-.022 1.936-.033c1.771-.033 2.236.863 2.236 1.66a2.374 2.374 0 0 1-2.158 2.136l2.512 3.271a.85.85 0 0 0 .675.288v.336c-.288-.011-.543-.032-.8-.032s-.5.021-.753.032c-.144-.213-.31-.4-.454-.6l-2.036-2.73c-.177-.243-.387-.453-.575-.685a7.583 7.583 0 0 1 1.04-.177 1.634 1.634 0 0 0 1.439-1.549A1.5 1.5 0 0 0 90.609 54a4.309 4.309 0 0 0-1.129.133zM97.5 59.9v-4.96a1.952 1.952 0 0 0-.1-.828.513.513 0 0 0-.465-.166l-.531-.033v-.337c.609.011 1.24.033 1.87.033.962 0 1.978-.033 2.607-.033.5 0 1 .011 1.432.033a7.405 7.405 0 0 0-.177 1.682h-.386v-.72a.292.292 0 0 0-.1-.3 6.87 6.87 0 0 0-2.171-.232 3.812 3.812 0 0 0-.928.088v2.955a20.4 20.4 0 0 0 1.281.033A3.068 3.068 0 0 0 101 57a.419.419 0 0 0 .088-.288l.056-.576h.336c-.011.454-.032.874-.032 1.284s.021.83.032 1.229h-.336l-.056-.653a.366.366 0 0 0-.088-.277 2.752 2.752 0 0 0-1.171-.133c-.53 0-.939 0-1.281.033v3.1a3.811 3.811 0 0 0 .928.089 10.2 10.2 0 0 0 2.237-.144 2.05 2.05 0 0 0 .388-1.24h.388a9.512 9.512 0 0 0-.177 1.815c-.487.011-1.366.044-2.183.033-.85-.011-1.723-.033-2.409-.033-.421 0-.786.022-1.185.033v-.342l.4-.034a.541.541 0 0 0 .465-.166 1.954 1.954 0 0 0 .1-.829zm18.332-.847l-1.383-3.749-1.926 4.888c-.144.376-.288.752-.4 1.139h-.553c-.078-.409-.166-.752-.255-1.139L110 54.5a.559.559 0 0 0-.553-.553l-.31-.034v-.336c.465.011.919.032 1.395.032s.93-.021 1.394-.032v.336l-.465.034c-.288.022-.509.077-.365.73l1.1 4.931 1.383-3.453c.343-.874.7-1.759 1-2.667h.354a14.011 14.011 0 0 0 .454 1.4l1.715 4.8 1.472-5.375c.066-.266-.089-.332-.509-.365l-.443-.034v-.336c.387.011.763.032 1.162.032s.775-.021 1.162-.032v.336l-.354.034a.423.423 0 0 0-.42.321l-1.693 5.95c-.088.321-.21.664-.3 1.117h-.553c-.244-.874-.509-1.515-.786-2.278zm8.618-.8h2.8l-1.394-3.3-1.406 3.3zm1.859-4.77l2.678 6.284c.1.221.221.519.354.751a.614.614 0 0 0 .443.375l.376.034v.336c-.487-.011-.974-.032-1.472-.032-.387 0-.874.021-1.472.032v-.333l.52-.034a.424.424 0 0 0 .454-.221 2.573 2.573 0 0 0-.232-.707l-.509-1.27h-3.187l-.31.74a6.373 6.373 0 0 0-.387 1.148c0 .232.188.276.531.309l.409.034v.336c-.531-.011-.952-.032-1.272-.032-.432 0-.852.021-1.273.032v-.335l.409-.034a.791.791 0 0 0 .6-.541l1.97-4.478c.343-.775.719-1.594 1.018-2.391h.354zm7.014 6.415v-4.961a1.957 1.957 0 0 0-.1-.83.541.541 0 0 0-.465-.166l-.487-.034v-.336c.487.011.93.032 1.328.032.2 0 .4-.021.6-.032l5.29 6.53.033-5.165a1.957 1.957 0 0 0-.1-.83.541.541 0 0 0-.465-.166l-.487-.034v-.336c.443.011.885.032 1.284.032.443 0 .841-.021 1.328-.032v.336l-.487.034a.54.54 0 0 0-.465.166 1.953 1.953 0 0 0-.1.83v6.1c0 .133.022.277.033.409l-1-.177-5.212-6.47-.022 5.094a1.949 1.949 0 0 0 .1.829.54.54 0 0 0 .465.166l.487.034v.336c-.487-.011-.885-.032-1.328-.032-.4 0-.841.021-1.284.032v-.327l.487-.034a.54.54 0 0 0 .465-.166 1.954 1.954 0 0 0 .1-.829zm12.292-1.645h2.8l-1.394-3.3-1.406 3.3zm1.859-4.77l2.678 6.284c.1.221.221.519.354.751a.613.613 0 0 0 .443.375l.376.034v.336c-.487-.011-.974-.032-1.472-.032-.387 0-.874.021-1.472.032v-.333l.52-.034a.424.424 0 0 0 .454-.221 2.576 2.576 0 0 0-.233-.707l-.509-1.27h-3.187l-.31.74a6.371 6.371 0 0 0-.387 1.148c0 .232.188.276.531.309l.409.034v.336c-.531-.011-.952-.032-1.272-.032-.431 0-.852.021-1.273.032v-.335l.41-.034a.791.791 0 0 0 .6-.541l1.97-4.478c.343-.775.719-1.594 1.018-2.391h.354zm7.013 6.415v-4.961a1.957 1.957 0 0 0-.1-.83.541.541 0 0 0-.465-.166l-.487-.034v-.336c.487.011.93.032 1.328.032.2 0 .4-.021.6-.032l5.29 6.53.033-5.165a1.953 1.953 0 0 0-.1-.83.54.54 0 0 0-.465-.166l-.487-.034v-.336c.443.011.885.032 1.284.032.443 0 .841-.021 1.328-.032v.336l-.487.034a.54.54 0 0 0-.465.166 1.952 1.952 0 0 0-.1.83v6.1c0 .133.022.277.033.409l-1-.177-5.212-6.47L155 59.9a1.95 1.95 0 0 0 .1.829.54.54 0 0 0 .465.166l.487.034v.336c-.487-.011-.885-.032-1.328-.032-.4 0-.841.021-1.284.032v-.335l.487-.034a.54.54 0 0 0 .465-.166 1.955 1.955 0 0 0 .1-.829zm16.232.249v-1.115a.332.332 0 0 0-.376-.387l-.919-.078v-.336c.454.011.908.021 1.35.021s.908-.01 1.361-.021l.044.28-.321.112c-.122.044-.122.088-.122.409v1.855a12.435 12.435 0 0 1-2.911.564c-2.468 0-4.46-1.282-4.46-4.061 0-2.435 2-4.007 4.67-4.007a8.726 8.726 0 0 1 2.745.454 6.931 6.931 0 0 0-.221 1.682h-.343v-.586a1.012 1.012 0 0 0-.919-.886 4.759 4.759 0 0 0-1.549-.2 3.025 3.025 0 0 0-3.2 3.354c0 2.2 1.284 3.784 3.563 3.784a2.06 2.06 0 0 0 1.55-.386 1.059 1.059 0 0 0 .055-.453zm6.183-1.894h2.8l-1.394-3.3-1.406 3.3zm1.86-4.77l2.678 6.284c.1.221.221.519.354.751a.614.614 0 0 0 .443.375l.376.034v.336c-.487-.011-.974-.032-1.472-.032-.387 0-.874.021-1.472.032v-.333l.52-.034a.425.425 0 0 0 .454-.221 2.576 2.576 0 0 0-.233-.707l-.51-1.268h-3.187l-.31.74a6.373 6.373 0 0 0-.387 1.148c0 .232.188.276.531.309l.41.034v.336c-.531-.011-.952-.032-1.273-.032-.431 0-.852.021-1.273.032v-.337l.409-.034a.79.79 0 0 0 .6-.541l1.97-4.478c.343-.775.719-1.594 1.018-2.391h.354zm9.112 11.619h4.142v.828h-4.142v-.828zm20.771 3.483v4.962a1.945 1.945 0 0 0 .1.829.51.51 0 0 0 .465.166l.532.034v.336a41.642 41.642 0 0 0-3.238 0v-.336l.531-.034a.51.51 0 0 0 .465-.166 1.949 1.949 0 0 0 .1-.829v-4.962a1.95 1.95 0 0 0-.1-.829.51.51 0 0 0-.465-.165l-.531-.034v-.336a42.049 42.049 0 0 0 3.238 0v.336l-.532.034a.51.51 0 0 0-.465.165 1.946 1.946 0 0 0-.1.829zM8.873 67.5c-1.926 0-2.8 1.35-2.8 3.165 0 1.937.908 3.973 3.1 3.973 1.848 0 2.745-1.439 2.745-3.475 0-2.191-.985-3.663-3.043-3.663zm-.055 7.6a3.785 3.785 0 0 1-3.929-4.028 3.914 3.914 0 0 1 4.161-4.039c2.368 0 4.051 1.328 4.051 3.785a4.238 4.238 0 0 1-4.283 4.283zm13.518-1.554v-4.678c0-.42-.011-.774-.044-1.106h-1.715c-.332 0-.421.1-.443.365l-.044.874h-.343c0-.6-.022-1.205-.077-1.781.8 0 1.594.033 2.39.033h1.6c.8 0 1.594-.033 2.391-.033a18.974 18.974 0 0 0-.077 1.781h-.343l-.044-.874c-.022-.266-.111-.365-.443-.365h-1.715a11.065 11.065 0 0 0-.044 1.106v4.678a1.957 1.957 0 0 0 .1.829.51.51 0 0 0 .465.166l.531.034v.336a41.642 41.642 0 0 0-3.238 0v-.336l.531-.034a.51.51 0 0 0 .465-.166 1.953 1.953 0 0 0 .1-.829zm6.936 0v-4.963a1.947 1.947 0 0 0-.1-.828.51.51 0 0 0-.465-.166l-.531-.034v-.337c.609.011 1.239.033 1.87.033.961 0 1.977-.033 2.607-.033.5 0 1 .011 1.432.033a7.4 7.4 0 0 0-.177 1.682h-.387v-.713a.292.292 0 0 0-.1-.3 6.876 6.876 0 0 0-2.171-.232 3.826 3.826 0 0 0-.928.088v2.955c.354.022.751.033 1.281.033a3.068 3.068 0 0 0 1.171-.122.42.42 0 0 0 .088-.288l.056-.575h.336c-.011.454-.032.874-.032 1.284s.021.83.032 1.228h-.336l-.056-.653a.366.366 0 0 0-.088-.277 2.751 2.751 0 0 0-1.171-.133c-.53 0-.939 0-1.281.033v3.1a3.827 3.827 0 0 0 .928.088 10.2 10.2 0 0 0 2.237-.144 2.05 2.05 0 0 0 .388-1.239h.387a9.516 9.516 0 0 0-.177 1.815c-.487.011-1.366.044-2.183.033-.851-.011-1.723-.033-2.409-.033-.42 0-.786.022-1.184.033v-.337l.4-.034a.54.54 0 0 0 .465-.165 1.951 1.951 0 0 0 .1-.829zm12.776-1.035V68.59a1.956 1.956 0 0 0-.1-.829.511.511 0 0 0-.465-.166l-.531-.034v-.336a42.049 42.049 0 0 0 3.238 0v.336l-.531.034a.511.511 0 0 0-.465.166 1.954 1.954 0 0 0-.1.829v3.8c0 1.57.819 2.024 2.28 2.024a2.015 2.015 0 0 0 2.28-2.289V68.59a1.953 1.953 0 0 0-.1-.829.54.54 0 0 0-.465-.166l-.487-.034v-.336c.443.011.885.032 1.284.032.443 0 .841-.021 1.328-.032v.336l-.487.034a.54.54 0 0 0-.465.166 1.954 1.954 0 0 0-.1.829v3.2c0 2.367-.9 3.318-3.132 3.318-1.881 0-2.988-.565-2.988-2.588zm11.451-4.738v5.774a1.952 1.952 0 0 0 .1.829.511.511 0 0 0 .465.165l.531.034v.336a41.642 41.642 0 0 0-3.238 0v-.336l.531-.034a.51.51 0 0 0 .465-.165 1.95 1.95 0 0 0 .1-.829v-4.962a1.845 1.845 0 0 0-.111-.807.565.565 0 0 0-.476-.188l-.5-.034v-.337c.731.011 1.361.033 1.992.033s1.284-.022 1.881-.033c1.073-.022 2.291.443 2.291 1.693a2.488 2.488 0 0 1-2.656 2.379 3.376 3.376 0 0 1-.664-.066l-.111-.4a2.394 2.394 0 0 0 .73.111 1.593 1.593 0 0 0 1.594-1.649 1.543 1.543 0 0 0-1.793-1.649 4.317 4.317 0 0 0-1.129.133zm10.2-.277c-1.926 0-2.8 1.35-2.8 3.165 0 1.937.908 3.973 3.1 3.973 1.848 0 2.745-1.439 2.745-3.475 0-2.191-.985-3.663-3.043-3.663zm-.055 7.6a3.785 3.785 0 0 1-3.929-4.028 3.914 3.914 0 0 1 4.161-4.039c2.368 0 4.05 1.328 4.05 3.785a4.237 4.237 0 0 1-4.283 4.283zm8.6-3.818v2.265a1.951 1.951 0 0 0 .1.829.51.51 0 0 0 .465.166l.531.034v.336a41.603 41.603 0 0 0-3.238 0v-.336l.531-.034a.51.51 0 0 0 .465-.166 1.95 1.95 0 0 0 .1-.829v-4.962a1.951 1.951 0 0 0-.1-.829.511.511 0 0 0-.465-.165l-.531-.034v-.336a42.087 42.087 0 0 0 3.238 0v.336l-.531.034a.511.511 0 0 0-.465.165 1.952 1.952 0 0 0-.1.829v2.365l3.077-2.995a1.142 1.142 0 0 0 .321-.432v-.3c.354.011.664.032.985.032s.62-.021.885-.032v.336l-.465.023a1.409 1.409 0 0 0-.863.42L73.24 70.65l3.652 3.448a1.475 1.475 0 0 0 .686.453l.232.022v.336c-.21-.011-.476-.032-.73-.032s-.531.021-.874.032l-3.851-3.707-.111.078zm11.551-3.785c-1.926 0-2.8 1.35-2.8 3.165 0 1.937.908 3.973 3.1 3.973 1.848 0 2.744-1.439 2.744-3.475 0-2.191-.985-3.663-3.043-3.663zm-.055 7.6a3.785 3.785 0 0 1-3.929-4.028 3.914 3.914 0 0 1 4.161-4.039c2.368 0 4.05 1.328 4.05 3.785a4.238 4.238 0 0 1-4.283 4.283zm14.879-7.6c-1.926 0-2.8 1.35-2.8 3.165 0 1.937.908 3.973 3.1 3.973 1.848 0 2.745-1.439 2.745-3.475 0-2.191-.985-3.663-3.043-3.663zm-.055 7.6a3.785 3.785 0 0 1-3.929-4.028 3.913 3.913 0 0 1 4.161-4.039c2.368 0 4.051 1.328 4.051 3.785a4.238 4.238 0 0 1-4.283 4.283zm13.518-1.554v-4.678c0-.42-.011-.774-.044-1.106h-1.715c-.332 0-.42.1-.443.365l-.044.874h-.343c0-.6-.022-1.205-.077-1.781.8 0 1.594.033 2.39.033h1.6c.8 0 1.594-.033 2.39-.033a18.974 18.974 0 0 0-.077 1.781h-.343l-.045-.874c-.022-.266-.11-.365-.443-.365h-1.715a11 11 0 0 0-.044 1.106v4.678a1.953 1.953 0 0 0 .1.829.51.51 0 0 0 .465.166l.531.034v.336a41.603 41.603 0 0 0-3.238 0v-.336l.531-.034a.51.51 0 0 0 .465-.166 1.957 1.957 0 0 0 .1-.829zm6.936 0v-4.963a1.946 1.946 0 0 0-.1-.828.51.51 0 0 0-.465-.166l-.532-.034v-.337c.609.011 1.24.033 1.87.033.962 0 1.978-.033 2.607-.033.5 0 1 .011 1.432.033a7.407 7.407 0 0 0-.177 1.682h-.387v-.706a.292.292 0 0 0-.1-.3 6.878 6.878 0 0 0-2.171-.232 3.825 3.825 0 0 0-.928.088v2.955a20.4 20.4 0 0 0 1.281.033 3.069 3.069 0 0 0 1.171-.122.418.418 0 0 0 .088-.288l.056-.575H123c-.011.454-.032.874-.032 1.284s.021.83.032 1.228h-.336l-.056-.653a.364.364 0 0 0-.088-.277 2.753 2.753 0 0 0-1.171-.133c-.53 0-.939 0-1.281.033v3.1a3.826 3.826 0 0 0 .928.088 10.2 10.2 0 0 0 2.237-.144 2.051 2.051 0 0 0 .388-1.239h.387a9.506 9.506 0 0 0-.177 1.815c-.487.011-1.366.044-2.183.033-.85-.011-1.723-.033-2.409-.033-.421 0-.786.022-1.184.033v-.337l.4-.034a.541.541 0 0 0 .465-.165 1.95 1.95 0 0 0 .1-.829zm13.939-4.962v4.962a1.947 1.947 0 0 0 .1.829.509.509 0 0 0 .465.166l.531.034v.336a41.642 41.642 0 0 0-3.238 0v-.336l.531-.034a.511.511 0 0 0 .465-.166 1.952 1.952 0 0 0 .1-.829v-4.962a1.954 1.954 0 0 0-.1-.829.511.511 0 0 0-.465-.165l-.531-.034v-.336a42.087 42.087 0 0 0 3.238 0v.336l-.531.034a.51.51 0 0 0-.465.165 1.949 1.949 0 0 0-.1.829zm5.409 2.7v2.265a1.949 1.949 0 0 0 .1.829.51.51 0 0 0 .465.166l.531.034v.336a41.603 41.603 0 0 0-3.238 0v-.336l.531-.034a.51.51 0 0 0 .465-.166 1.949 1.949 0 0 0 .1-.829V68.58a1.95 1.95 0 0 0-.1-.829.511.511 0 0 0-.465-.165l-.531-.034v-.336a42.087 42.087 0 0 0 3.238 0v.336l-.531.034a.51.51 0 0 0-.465.165 1.95 1.95 0 0 0-.1.829v2.365l3.076-2.995a1.14 1.14 0 0 0 .321-.432v-.3c.354.011.664.032.985.032s.62-.021.885-.032v.336l-.465.023a1.408 1.408 0 0 0-.863.42l-2.944 2.652 3.652 3.448a1.474 1.474 0 0 0 .686.453l.232.022v.336c-.21-.011-.476-.032-.73-.032s-.531.021-.874.032l-3.851-3.707-.111.078zm9.979.62h2.8l-1.395-3.3-1.405 3.3zm1.859-4.77l2.678 6.283c.1.221.221.519.354.751a.613.613 0 0 0 .443.375l.376.034v.336c-.487-.011-.974-.032-1.472-.032-.387 0-.874.021-1.472.032v-.336l.52-.034a.424.424 0 0 0 .454-.221 2.573 2.573 0 0 0-.232-.707l-.509-1.27h-3.187l-.31.74a6.374 6.374 0 0 0-.387 1.148c0 .232.188.276.531.309l.409.034v.336c-.531-.011-.952-.032-1.272-.032-.432 0-.852.021-1.273.032v-.336l.409-.034a.791.791 0 0 0 .6-.541l1.97-4.478c.343-.775.719-1.594 1.018-2.39h.348zm11.858 4.77h2.8l-1.394-3.3-1.405 3.3zm1.859-4.77l2.678 6.283c.1.221.221.519.354.751a.613.613 0 0 0 .443.375l.376.034v.336c-.487-.011-.974-.032-1.472-.032-.387 0-.874.021-1.472.032v-.336l.52-.034a.424.424 0 0 0 .454-.221 2.573 2.573 0 0 0-.232-.707l-.509-1.27h-3.191l-.31.74a6.376 6.376 0 0 0-.388 1.148c0 .232.188.276.531.309l.409.034v.336c-.531-.011-.952-.032-1.273-.032-.431 0-.852.021-1.273.032v-.336l.409-.034a.791.791 0 0 0 .6-.541l1.97-4.478c.343-.775.719-1.594 1.018-2.39h.354zm18.764 1.453v4.962a1.952 1.952 0 0 0 .1.829.511.511 0 0 0 .465.166l.531.034v.336c-.575-.022-1.1-.032-1.6-.032-.542 0-1.062.01-1.483.032v-.336l.376-.034a.542.542 0 0 0 .465-.166 1.958 1.958 0 0 0 .1-.829v-5.016a8.979 8.979 0 0 0-.487.907l-1.97 4.18c-.21.454-.4.94-.6 1.4h-.221l-3.066-6.492-.022 5.017a1.949 1.949 0 0 0 .1.829.54.54 0 0 0 .465.166l.487.034v.336c-.487-.011-.885-.032-1.328-.032-.4 0-.841.021-1.284.032v-.336l.487-.034a.541.541 0 0 0 .465-.166 1.957 1.957 0 0 0 .1-.829v-4.962a1.959 1.959 0 0 0-.1-.829.541.541 0 0 0-.465-.165l-.487-.034v-.336c.343.011.7.032 1.051.032s.709-.021 1.051-.032l2.922 6.149 2.9-6.149c.354.011.7.032 1.051.032s.709-.021 1.029-.032v.336l-.465.034a.542.542 0 0 0-.465.165 1.954 1.954 0 0 0-.1.829zm5.652 3.317h2.8l-1.394-3.3-1.406 3.3zm1.859-4.77l2.678 6.283c.1.221.221.519.354.751a.613.613 0 0 0 .442.375l.376.034v.336c-.487-.011-.974-.032-1.472-.032-.387 0-.874.021-1.472.032v-.336l.52-.034a.424.424 0 0 0 .454-.221 2.581 2.581 0 0 0-.232-.707l-.509-1.27h-3.187l-.31.74a6.374 6.374 0 0 0-.387 1.148c0 .232.188.276.531.309l.41.034v.336c-.531-.011-.952-.032-1.273-.032-.431 0-.852.021-1.273.032v-.336l.409-.034a.791.791 0 0 0 .6-.541l1.97-4.478c.343-.775.719-1.594 1.018-2.39h.354zm7 5.38V68.59a1.955 1.955 0 0 0-.1-.829.511.511 0 0 0-.465-.166l-.531-.034v-.336a42.049 42.049 0 0 0 3.238 0v.336l-.531.034a.511.511 0 0 0-.465.166 1.952 1.952 0 0 0-.1.829v3.8c0 1.57.819 2.024 2.28 2.024a2.015 2.015 0 0 0 2.28-2.289V68.59a1.956 1.956 0 0 0-.1-.829.54.54 0 0 0-.465-.166l-.487-.034v-.336c.443.011.885.032 1.284.032.443 0 .841-.021 1.328-.032v.336l-.487.034a.54.54 0 0 0-.465.166 1.956 1.956 0 0 0-.1.829v3.2c0 2.367-.9 3.318-3.132 3.318-1.881 0-2.988-.565-2.988-2.588z" fill="#fff"/></svg>