<svg xmlns="http://www.w3.org/2000/svg" viewBox="0 0 214.8 28"><path d="M10.4 5.7l6.2 15.2 5.6-13.8a14.8 14.8 0 0 0 1.2-3.8c0-.7-.7-1-1.5-1.1h-1.8V.7h9.1v1.5h-1.3c-.9.1-1.4.7-1.8 1.8l-8.2 19.5-1.5 3.9h-3L4 5c-.5-1.1-1.1-2.7-2.4-2.8H0V.7h12.6v1.5h-2a1 1 0 0 0-1 .7 9.1 9.1 0 0 0 .8 2.8zm31.7.3v16a9.4 9.4 0 0 0 .3 3.2c.2.3.6.5 1.6.5h1.5v1.7H33.3v-1.6h1.5c1-.1 1.5-.2 1.6-.5a9.4 9.4 0 0 0 .3-3.2v-16a9.4 9.4 0 0 0-.3-3.2c-.2-.3-.6-.5-1.6-.5h-1.5V.8h12.2v1.6H44c-1 .1-1.5.2-1.6.5a9.4 9.4 0 0 0-.3 3.2zm32.8 17.9l-.9 1.9a17.2 17.2 0 0 1-9 2.2c-8.9 0-15.5-5-15.5-14.4S56.8.1 65.2.1a22.5 22.5 0 0 1 9.6 1.8l.2.4a52.3 52.3 0 0 0-.9 6h-1.5l-.2-3.4a9.3 9.3 0 0 0-7.1-2.7c-6.5 0-10 4.6-10 10.8S59.5 25.4 67 25.4a16.8 16.8 0 0 0 7.5-2l.5.5zM93.9 3v19a9.4 9.4 0 0 0 .3 3.2c.2.3.6.5 1.6.5h1.4v1.7H85.1v-1.6h1.4c1-.1 1.4-.2 1.6-.5a9.4 9.4 0 0 0 .3-3.2v-19h-4.6c-1.1 0-2.2 0-2.4.4a1.8 1.8 0 0 0-.4.9l-.2 2.7h-1.6a45 45 0 0 0-.5-6.2l.2-.2h24.4l.2.2a44.9 44.9 0 0 0-.5 6.2h-1.5l-.2-2.7a1.8 1.8 0 0 0-.4-.9c-.3-.4-1.4-.4-2.4-.4h-4.6zm27.5-.8c-7.3 0-9 5.5-9 11.3s2.7 12.2 8.2 12.2c7.3 0 9-5.4 9-11.3s-2.7-12.2-8.2-12.2zm0-2.2c8.8 0 14.1 4.8 14.1 13.7s-5.9 14.2-14.9 14.2-14.1-4.8-14.1-13.7S112.4 0 121.4 0zm21.2 22V6a9.4 9.4 0 0 0-.3-3.2c-.2-.4-.6-.6-1.6-.7h-1.5V.6h14.6c4-.1 7.7 1.1 7.7 5.8s-2.6 5.8-5.8 6.9l7.1 10.7a5.5 5.5 0 0 0 1.1 1.2 4 4 0 0 0 1.6.5v1.7h-7.3l-8.8-13.6.3-.7c3.6.3 6.3-1.9 6.3-5.6s-2.2-4.9-5.3-4.9a6.4 6.4 0 0 0-2.5.4v19.1a9.4 9.4 0 0 0 .3 3.2c.2.3.6.5 1.6.5h1.5v1.6h-12.4v-1.6h1.5c1-.1 1.5-.2 1.6-.5a9.4 9.4 0 0 0 .3-3.2zm35.8-16v16a9.4 9.4 0 0 0 .3 3.2c.2.3.6.5 1.6.5h1.5v1.7h-12.3v-1.6h1.5c1-.1 1.5-.2 1.6-.5a9.4 9.4 0 0 0 .3-3.2v-16a9.4 9.4 0 0 0-.3-3.2c-.2-.3-.6-.5-1.6-.5h-1.5V.8h12.2v1.6h-1.5c-1 .1-1.5.2-1.6.5a9.4 9.4 0 0 0-.3 3.2zm20.2 1l-3.9 10h8l-4.1-10zm5 12.2h-9.9l-1.6 4.4c-.5 1.5.2 2.2.9 2.2h2v1.6h-8.9v-1.5h1.2c1-.1 1.7-1.2 2.2-2.3l7.1-17.2 1-2.7.6-1.6.6-1.6h2.8l10.2 23.7a2.5 2.5 0 0 0 2.2 1.7h.9v1.5h-12.2v-1.5h2.1c.6 0 1.1-.9.6-2.2l-1.8-4.5z" fill="#231f20"/></svg>