<svg xmlns="http://www.w3.org/2000/svg" viewBox="0 0 214.8 153.6"><path d="M43.1 65.1h4.1v.8h-4.1v-.8zM97.4 136v6.3h20.1V136l-2.9 3.2h-4l-3.2-3.2-3.2 3.2h-4l-2.9-3.2zM84 90.9v6.3h20.1v-6.3l-2.9 3.2h-4L94 90.9l-3.2 3.2h-4l-2.9-3.2zm26.8 0v6.3h20.1v-6.3l-2.9 3.2h-4l-3.2-3.2-3.2 3.2h-4l-2.9-3.2zm-3.3 11.4c-3.2 0-4.7 2.3-7.9 2.3s-4.7-2.4-7.9-2.3-4.3 2.3-7.3 2.3-5.1-2.1-7.3-2v19.9c.1 4.2 3.3 10.2 7.3 10.2s4.3-2.2 7.3-2.3 4.7 2.3 7.9 2.3 4.7-2.3 7.9-2.3 4.7 2.3 7.9 2.3 4.7-2.4 7.9-2.3 4.3 2.2 7.3 2.3 7.2-6 7.3-10.2v-19.9c-2.2-.1-4.4 2.1-7.3 2s-4.3-2.2-7.3-2.3-4.7 2.3-7.9 2.3-4.7-2.3-7.9-2.3zm0 51.3c-1.3 0-32.9-13.7-32.9-31.1v-38h65.9v38c0 17.4-31.7 31.1-33 31.1zm-4.7-29.4l-1.4-2.4 1.4-2.4H100l-1.4-2.4-1.4 2.4h-2.8l1.4 2.4-1.4 2.4h2.8l1.4 2.4 1.4-2.4h2.8zm17.7-8.7l-1.4-2.4 1.4-2.4h-2.8l-1.4-2.4-1.4 2.4h-2.8l1.4 2.4-1.4 2.4h2.9l1.4 2.4 1.4-2.4h2.8zm-12.7 0l-1.4-2.4 1.4-2.4H105l-1.4-2.4-1.4 2.4h-2.8l1.4 2.4-1.4 2.4h2.8l1.4 2.4 1.4-2.4h2.8zm7.6 8.7l-1.4-2.4 1.4-2.4h-2.8l-1.4-2.4-1.4 2.4H107l1.4 2.4-1.4 2.4h2.8l1.4 2.4 1.4-2.4h2.8zm-24.2-17.5h32.5v21.6H91.2v-21.6zM67 103c-1.9 0-4.2-2.4-4-3.9 1.1-8.2 5.3-5.5 8.4-7.9.9 1.1 2.2 11.8-4.4 11.8zm98.4 7.4a9.3 9.3 0 01-3.5 5.8c1.8-.1 4.6.2 5.2-2a3.2 3.2 0 00-1.7-3.7zm-4.9-1.2c-6.2-.3-8.6 3.4-6.5 4.8 3.9 2.7 6.5-4.9 6.5-4.8zm.3-8.9a7.6 7.6 0 01-3.8 2 53.8 53.8 0 016.4 0 10.7 10.7 0 01-2.6-2zm-12-7.4a4.8 4.8 0 104.8-4.8 4.8 4.8 0 00-4.8 4.8zm19.4 3.9a2.7 2.7 0 013.2-.7c1.4.5 2.3 1.7 2.1 2.7 7.1-.1 8.8-1.8 8.9-1.7-2.1 3.8-8.1 6.6-10.4 6.8 3.2 1.1 9.6 4.8 9.6 11.9 0 10.4-10.1 11.9-15.8 10.4a4.2 4.2 0 012.8 2H143v-21a11.9 11.9 0 014.2-2.8 1.8 1.8 0 001-1.8 9.6 9.6 0 01-5.2-3.2v-12s3.1-4.3 10.4-4.3a11.5 11.5 0 018.9 4.9s2.4-2 7.2-2c10.8 0 13.2 10.4 13.2 10.4a17.6 17.6 0 00-8.9-3.7 2.3 2.3 0 01-2.3 1.7 2.4 2.4 0 01-2.3-1.4l-.9.6a2.5 2.5 0 01.2 1.1 2.5 2.5 0 01-1 1.8l.8.5zm-16.7-3.9a2.2 2.2 0 112.2 2.2 2.2 2.2 0 01-2.2-2.2zm-79.6 8.9v26.5H32.2a23.5 23.5 0 012.6-4.9l-1.7-1.4c-.1-.1 5.3-7.1 9.2-7.2a8 8 0 01-1.4-1.4c1.4-1.6 3.9-1.7 12.1-2.3s9.4-2.9 9.5-9.5c2 2.4 5.5 5.4 9.5.3zM51.8 88.3c-2.6-1.8-4-2.5-4.9-2.3s-2.6 3-2.6 2.9a32.8 32.8 0 017.5-.6zM42 99.2c-1.9-1.6-4.3-4.7-4.6-6.9a3 3 0 01.9-2.6 5.1 5.1 0 01-.3-2.3c1.1-3.4 17.4-3.6 20.7-3.5 7.6.3 9.2 0 12.9-1.4-.1-.1-1.3 5.6-8.3 5.5a8.6 8.6 0 000 .9c2.8.1 6.1-.6 8.1-2.9-.1 1.9.7 4.3-3.2 5.2s-6 .7-7.2 11.2c-.2 3 0 5.5-4.9 6.6s-17.2 1.4-19.4 3.1l-.4-.8a7.9 7.9 0 003.7-7.2 3.9 3.9 0 011.7-.6c0 1-1.3 3.2 4.6 3.2.1 0 5.5.6 3.2-6.3-.7-2.2-1.4-4.7-4-4.6 0-.1-3.4.2-1.7 3.5 2.4.5 5.1 1.1 5.5 2.8s-1 2.7-2 2.3-3.8-2-5.7-2c-3.7 0-10.2 4.2-14.4-3.7 1.2 1.3 2.4 2.2 6.3 2.3s4.7-1.6 8.6-1.7zM10.4 5.7l6.2 15.2 5.6-13.8a14.8 14.8 0 001.2-3.8c0-.7-.7-1-1.5-1.1h-1.8V.7h9.1V2h-1.3c-.9.1-1.4.7-1.8 1.8l-8.2 19.5-1.5 3.9h-3L4 5c-.5-1.1-1.1-2.7-2.4-2.8H0V.7h12.6V2h-2a1 1 0 00-1 .7 9.1 9.1 0 00.8 2.8zm31.7.3v16a9.4 9.4 0 00.3 3.2c.2.3.6.5 1.6.5h1.5v1.6H33.2v-1.6h1.5c1-.1 1.5-.2 1.6-.5a9.4 9.4 0 00.3-3.2V6a9.4 9.4 0 00-.3-3.2c-.2-.3-.6-.5-1.6-.5h-1.5V.7h12.2v1.6H44c-1 .1-1.5.2-1.6.5a9.4 9.4 0 00-.3 3.2zm32.8 17.9l-.9 1.9a17.2 17.2 0 01-9 2.2c-8.9 0-15.5-5-15.5-14.4S56.8.1 65.2.1a22.5 22.5 0 019.6 1.8l.2.4a52.3 52.3 0 00-.9 6h-1.5l-.2-3.4a9.3 9.3 0 00-7.1-2.7c-6.5 0-10 4.6-10 10.8s4.2 12.4 11.6 12.4a16.8 16.8 0 007.5-2l.5.5zM93.9 3v19a9.4 9.4 0 00.3 3.2c.2.3.6.5 1.6.5h1.4v1.6H85v-1.6h1.4c1-.1 1.4-.2 1.6-.5a9.4 9.4 0 00.3-3.2V3h-4.6c-1.1 0-2.2 0-2.4.4a1.8 1.8 0 00-.4.9L80.7 7h-1.6a45 45 0 00-.5-6.2l.2-.2h24.4l.2.2a44.9 44.9 0 00-.5 6.2h-1.6l-.2-2.7a1.8 1.8 0 00-.4-.9c-.3-.4-1.4-.4-2.4-.4h-4.6zm27.5-.8c-7.3 0-9 5.5-9 11.3s2.7 12.2 8.2 12.2c7.3 0 9-5.4 9-11.3s-2.7-12.2-8.2-12.2zm0-2.2c8.8 0 14.1 4.8 14.1 13.7s-6 14.3-15 14.3-14.1-4.8-14.1-13.7S112.3.1 121.3.1zm21.2 22V6a9.4 9.4 0 00-.3-3.2c-.2-.4-.6-.6-1.6-.7h-1.5V.6h14.6c4-.1 7.7 1.1 7.7 5.8s-2.6 5.8-5.8 6.9l7.1 10.7a5.5 5.5 0 001.1 1.2 4 4 0 001.6.5v1.6h-7.3l-8.8-13.6.3-.7c3.6.3 6.3-1.9 6.3-5.6s-2.2-4.9-5.3-4.9a6.4 6.4 0 00-2.5.4V22a9.4 9.4 0 00.3 3.2c.2.3.6.5 1.6.5h1.5v1.6h-12.4v-1.6h1.5c1-.1 1.5-.2 1.6-.5a9.4 9.4 0 00.3-3.2zm35.8-16v16a9.4 9.4 0 00.3 3.2c.2.3.6.5 1.6.5h1.5v1.6h-12.4v-1.6h1.5c1-.1 1.5-.2 1.6-.5a9.4 9.4 0 00.3-3.2V6a9.4 9.4 0 00-.3-3.2c-.2-.3-.6-.5-1.6-.5h-1.5V.7h12.2v1.6h-1.5c-1 .1-1.5.2-1.6.5a9.4 9.4 0 00-.3 3.2zm20.2 1l-3.9 10h8l-4.1-10zm5 12.2h-9.9l-1.6 4.4c-.5 1.5.2 2.2.9 2.2h2v1.5h-8.9v-1.5h1.2c1-.1 1.7-1.2 2.2-2.3l7.1-17.2 1-2.7.6-1.6.6-1.6h2.8l10.2 23.7a2.5 2.5 0 002.2 1.7h.9v1.5h-12.2v-1.5h2.1c.6 0 1.1-.9.6-2.2l-1.8-4.5zm3.7 23.3V38a2.7 2.7 0 00-.1-.9l-.5-.2h-.4v-.4h2.3l1.2 1.5 3.5 4.1v-4a2.7 2.7 0 00-.1-.9l-.5-.2h-.4v-.4h2.6v.4h-.4l-.5.2a2.7 2.7 0 00-.1.9v6.2h-1l-1.4-1.6-3.6-4.4v4.4a2.7 2.7 0 00.1.9l.5.2h.4v.4h-2.6v-.4h.4l.5-.2a2.7 2.7 0 00.1-.9zM3.2 42v-4a2.7 2.7 0 00-.1-.9l-.5-.2h-.4v-.4h3.5v.4h-.4l-.5.2a2.7 2.7 0 00-.1.9v2.8c0 1.6.1 2.6 2 2.6s2.1-1 2.1-2.6V38a2.7 2.7 0 00-.1-.9l-.5-.2h-.4v-.4h2.6v.4H10l-.5.2a2.7 2.7 0 00-.1.9v3.3c0 2-1.1 3-3.1 3s-3.2-.9-3.2-2.2zm10.5.5V38a2.7 2.7 0 00-.1-.9l-.5-.2h-.4v-.4H15l1.2 1.5 3.5 4.1v-4a2.7 2.7 0 00-.1-.9l-.5-.2h-.4v-.4h2.6v.4h-.4l-.5.2a2.7 2.7 0 00-.1.9v6.2h-1l-1.4-1.6-3.6-4.4v4.4a2.7 2.7 0 00.1.9l.5.2h.4v.4h-2.6v-.4h.4l.5-.2a2.7 2.7 0 00.1-.9zm12.6-4.6v4.6a2.7 2.7 0 00.1.9l.5.2h.4v.5h-3.5v-.5h.4l.5-.2a2.7 2.7 0 00.1-.9V38a2.7 2.7 0 00-.1-.9l-.5-.2h-.4v-.5h3.5v.5h-.4l-.5.2a2.7 2.7 0 00-.1.9zm6.3-.1l1.8 4.3 1.6-3.9a4.2 4.2 0 00.3-1.1.4.4 0 00-.4-.3h-.5v-.4H38v.4h-.4a.7.7 0 00-.5.5l-2.3 5.6-.4 1.1h-.8l-2.7-6.4a1.1 1.1 0 00-.7-.8h-.5v-.4h3.6v.4h-.6a.3.3 0 00-.3.2 2.6 2.6 0 00.2.8zm10.2-.8v2.7h1.5c.4 0 .6 0 .6-.2v-.6h.4v2.4H45v-.6c0-.3-.2-.4-.6-.4h-1.5v3h1.4l1.4-.2.3-1.1h.4v2a16 16 0 01-2.8.1h-2.7v-.3l.4-.2a.6.6 0 00.2-.6v-5a2.7 2.7 0 00-.1-.9l-.5-.2h-.4v-.4h5.8v1.7h-.4v-.8a2.2 2.2 0 00-1.3-.2h-1.4zm7 5.4V38a2.7 2.7 0 00-.1-.9l-.5-.2h-.4v-.4H53c1.1 0 2.2.3 2.2 1.7a2.2 2.2 0 01-1.7 2l2 3.1.3.3.5.2v.5h-2.1l-2.5-3.9V40a1.5 1.5 0 001.8-1.6A1.4 1.4 0 0052 37h-.7v5.4a2.7 2.7 0 00.1.9l.5.2h.4v.5h-3.5v-.5h.4l.5-.2a2.7 2.7 0 00.1-.9zm9.2-.7h.5v1a2.3 2.3 0 001.8.9 1.5 1.5 0 001.8-1.5 1.1 1.1 0 00-.9-1l-1.6-.5a2 2 0 01-1.6-1.9c0-1.8 1.3-2.5 3-2.5a5.8 5.8 0 012.1.4 16.2 16.2 0 00-.1 1.7h-.5v-.9a2.1 2.1 0 00-1.5-.6 1.3 1.3 0 00-1.5 1.4 1.2 1.2 0 001.2 1.1l1.3.3a2 2 0 011.7 1.9c0 1.9-1.6 2.7-3.3 2.7a5.4 5.4 0 01-2.3-.5 9.5 9.5 0 00.2-1.9zm10.7-3.8v4.6a2.7 2.7 0 00.1.9l.5.2h.4v.5h-3.5v-.5h.4l.5-.2a2.7 2.7 0 00.1-.9V38a2.7 2.7 0 00-.1-.9l-.5-.2h-.4v-.5h3.5v.5h-.4l-.5.2a2.7 2.7 0 00-.1.9zm7.6-.9v5.4a2.7 2.7 0 00.1.9l.5.2h.4v.5h-3.5v-.5h.4l.5-.2a2.7 2.7 0 00.1-.9V37h-2v1h-.5a12.8 12.8 0 00-.1-1.8h7c0 .6-.1 1.1-.1 1.8h-.5v-1h-2zm9.1 2.9l2.1-3.6h.9v.2l-2 2.9-.6 1.1v1.8a2.7 2.7 0 00.1.9l.5.2h.4v.5h-3.5v-.5h.4l.5-.2a2.7 2.7 0 00.1-.9V41l-.5-1-1.1-1.8-.6-.7a1 1 0 00-.9-.4v-.4l1.8-.4a3.4 3.4 0 011.3 1.5l1.2 2.3zm14-3.2c-2.1 0-2.6 1.6-2.6 3.2s.8 3.5 2.3 3.5 2.6-1.5 2.6-3.2-.8-3.5-2.3-3.5zm0-.6c2.5 0 4 1.4 4 3.9s-1.7 4-4.2 4-4-1.4-4-3.9 1.7-4 4.2-4zm9.1.8v2.7h1.3c.4 0 .6 0 .6-.2V39h.6v2.3h-.4v-.6c0-.3-.2-.4-.6-.4h-1.3v2.1a2.7 2.7 0 00.1.9l.5.2h.5v.5H107v-.5h.4l.5-.2a2.7 2.7 0 00.1-.9V38a2.7 2.7 0 00-.1-.9l-.5-.2h-.4v-.4h5.6v1.7h-.4v-.8a2.2 2.2 0 00-1.3-.2h-1.3zm13.1 4.6l1.7-3.9.6-1.4h.5l.5 1.5 1.5 3.8 1.1-4.2a1.4 1.4 0 000-.4.4.4 0 00-.4-.2h-.5v-.4h2.4v.4h-.4a.9.9 0 00-.5.8l-1.4 4.8c-.1.5-.2 1.1-.4 1.6h-.8l-.4-1.2-1.7-4.2-1.7 4-.5 1.4h-.8l-1.6-6.7a.5.5 0 00-.4-.5h-.4v-.4h3.2v.4h-.2a.4.4 0 00-.3.3v.3l.9 4.2zm12.3-4.6v2.7h1.5c.4 0 .6 0 .6-.2v-.6h.4v2.4h-.4v-.6c0-.3-.2-.4-.6-.4h-1.5v3h1.4l1.4-.2.3-1.1h.4V44a16 16 0 01-2.8.1h-2.7v-.3l.4-.2a.6.6 0 00.2-.6v-5a2.7 2.7 0 00-.1-.9l-.5-.2h-.4v-.4h5.8v1.7h-.4v-.8a2.2 2.2 0 00-1.3-.2h-1.4zm8.5.9v5.4h1.4l1.4-.2.3-1.1h.4V44a16 16 0 01-2.8.1h-2.7v-.3l.4-.2a.6.6 0 00.2-.6v-5a2.7 2.7 0 00-.1-.9l-.5-.2h-.4v-.5h3.5v.5h-.5l-.5.2a2.7 2.7 0 00-.1.9zm8.5 0v5.4h1.4l1.4-.2.3-1.1h.4V44a16 16 0 01-2.8.1h-2.7v-.3l.4-.2a.6.6 0 00.2-.6v-5a2.7 2.7 0 00-.1-.9l-.5-.2h-.4v-.5h3.5v.5h-.4l-.5.2a2.7 2.7 0 00-.1.9zm8.5 0v4.6a2.7 2.7 0 00.1.9l.5.2h.4v.5H158v-.5h.4l.5-.2a2.7 2.7 0 00.1-.9V38a2.7 2.7 0 00-.1-.9l-.5-.2h-.4v-.5h3.5v.5h-.4l-.5.2a2.7 2.7 0 00-.1.9zm4.4 4.6V38a2.7 2.7 0 00-.1-.9l-.5-.2h-.2v-.4h2.3l1.2 1.5 3.5 4v-4a2.7 2.7 0 00-.1-.9l-.5-.2h-.4v-.4h2.6v.4h-.4l-.5.2a2.7 2.7 0 00-.1.9v6.2h-1l-1.4-1.6-3.6-4.4v4.4a2.7 2.7 0 00.1.9l.5.2h.4v.4H164v-.4h.4l.5-.2a2.7 2.7 0 00.1-.9zm17.9-.8v1.8a8.9 8.9 0 01-3.3.7c-2.5 0-4.4-1.4-4.4-4.1s2.1-3.9 4.5-3.9a7.8 7.8 0 013.1.5l-.2 1.8h-.4v-1a3.3 3.3 0 00-2.3-.8 2.8 2.8 0 00-2.8 3.1c0 1.9 1 3.6 3 3.6l1.4-.3v-1.5c0-.3-.3-.4-.6-.4h-.6V41h3.3v.4c-.4.1-.5.1-.5.4zM190 37v5.4a2.7 2.7 0 00.1.9l.5.2h.4v.5h-3.5v-.5h.4l.5-.2a2.7 2.7 0 00.1-.9V37h-2v1h-.5a12.8 12.8 0 00-.1-1.8h7c0 .6-.1 1.1-.1 1.8h-.5v-1h-2zm9.4-.2c-2.1 0-2.6 1.6-2.6 3.2s.8 3.5 2.3 3.5 2.6-1.5 2.6-3.2-.8-3.5-2.3-3.5zm0-.6c2.5 0 4 1.4 4 3.9s-1.7 4-4.2 4-4-1.4-4-3.9 1.7-4 4.2-4zM124 51.5h4.1v.8H124v-.8zm-89.4 8.4v-5.8h-1.7c-.3 0-.4.1-.4.4v.9h-.3c0-.6 0-1.2-.1-1.8h6.4c-.1.6-.1 1.2-.1 1.8H38v-.9c0-.3-.1-.4-.4-.4h-1.7v5.8a2 2 0 00.1.8l.5.2h.5v.3h-3.2v-.3h.5l.5-.2a2 2 0 00.1-.8zm6.9 0v-5a1.9 1.9 0 00-.1-.8l-.5-.2h-.5v-.3h5.9a7.4 7.4 0 00-.2 1.7h-.4v-.7a.3.3 0 00-.1-.3 6.9 6.9 0 00-2.2-.2h-.9v3H45a.4.4 0 00.1-.3v-.6h.3v2.5h-.3V58a.4.4 0 00-.1-.3h-2.5v3.1h3.2a2.1 2.1 0 00.4-1.2h.4a9.5 9.5 0 00-.2 1.8h-5.8v-.3h.4l.5-.2a1.9 1.9 0 00.1-.8zm18.3-.8l-1.4-3.7-1.9 4.9-.4 1.1h-.6l-.3-1.1-1.3-5.7a.6.6 0 00-.6-.6H53v-.3h3v.3h-.5c-.3 0-.5.1-.4.7l1.1 4.9 1.4-3.5c.3-.9.7-1.8 1-2.7h.4a14 14 0 00.5 1.4l1.7 4.8 1.5-5.4c.1-.3-.1-.3-.5-.4h-.4v-.3h2.3v.3h-.4a.4.4 0 00-.4.3L61.6 60c-.1.3-.2.7-.3 1.1h-.6c-.2-.9-.5-1.5-.8-2.3zM73.6 55v5a2 2 0 00.1.8l.5.2h.5v.3h-3.2V61h.5l.5-.2a2 2 0 00.1-.8v-2.5h-4.4V60a2 2 0 00.1.8l.5.2h.5v.3h-3.2V61h.5l.5-.2a2 2 0 00.1-.8v-5a2 2 0 00-.1-.8l-.5-.2h-.5v-.3h3.2v.3h-.5l-.5.2a1.9 1.9 0 00-.1.8v2h4.4v-2a2 2 0 00-.1-.8L72 54h-.5v-.3h3.2v.3h-.5l-.5.2a1.9 1.9 0 00-.1.8zm5.7 3.3h2.8L80.7 55l-1.4 3.3zm1.9-4.8l2.7 6.3.4.8a.6.6 0 00.4.4h.4v.3h-2.9V61h.5a.4.4 0 00.5-.2 2.6 2.6 0 00-.2-.7l-.5-1.3h-3.2l-.3.7a6.4 6.4 0 00-.4 1.1c0 .2.2.3.5.3h.4v.3H77v-.3h.4a.8.8 0 00.6-.5l2-4.5 1-2.4h.4zm8.2.6v5.8a2 2 0 00.1.8l.5.2h.5v.3h-3.2v-.3h.5l.5-.2a2 2 0 00.1-.8v-5a1.9 1.9 0 00-.1-.8l-.5-.2h-.5v-.3h3.8c1.8 0 2.2.9 2.2 1.7a2.4 2.4 0 01-2.2 2.1l2.5 3.3a.9.9 0 00.7.3v.3h-1.5l-.5-.6-2-2.7-.6-.7 1-.2a1.6 1.6 0 001.4-1.5 1.5 1.5 0 00-1.7-1.5h-1.1zm8 5.8v-5a2 2 0 00-.1-.8l-.5-.2h-.5v-.3h5.9a7.4 7.4 0 00-.2 1.7h-.4v-.7a.3.3 0 00-.1-.3 6.9 6.9 0 00-2.2-.2h-.9v3h2.6a.4.4 0 00.1-.3v-.6h.3v2.5h-.3V58a.4.4 0 00-.1-.3h-2.5v3.1h3.2a2 2 0 00.4-1.2h.4a9.5 9.5 0 00-.2 1.8h-5.8v-.3h.4l.5-.2a2 2 0 00.1-.8zm18.3-.8l-1.4-3.7-1.9 4.9-.4 1.1h-.6l-.3-1.1-1.3-5.7a.6.6 0 00-.6-.6h-.3v-.3h2.8v.3h-.5c-.3 0-.5.1-.4.7l1.1 4.9 1.4-3.5c.3-.9.7-1.8 1-2.7h.4a14 14 0 00.5 1.4l1.7 4.8 1.5-5.4c.1-.3-.1-.3-.5-.4h-.4v-.3h2.3v.3h-.4a.4.4 0 00-.4.3l-1.7 5.9c-.1.3-.2.7-.3 1.1h-.6c-.2-.9-.5-1.5-.8-2.3zm8.6-.8h2.8l-1.4-3.3-1.4 3.3zm1.9-4.8l2.7 6.3.4.8a.6.6 0 00.4.4h.4v.3h-2.9V61h.5a.4.4 0 00.5-.2 2.6 2.6 0 00-.2-.7l-.5-1.3h-3.2l-.3.7a6.4 6.4 0 00-.4 1.1c0 .2.2.3.5.3h.4v.3H122v-.3h.4a.8.8 0 00.6-.5l2-4.5 1-2.4h.4zm7 6.4v-5a2 2 0 00-.1-.8l-.5-.2h-.5v-.3h1.9l5.3 6.5v-5.2a2 2 0 00-.1-.8l-.5-.2h-.5v-.3h2.6v.3h-.5l-.5.2a2 2 0 00-.1.8v6.5l-1-.2-5.2-6.5v5.1a1.9 1.9 0 00.1.8l.5.2h.5v.3H132v-.3h.5l.5-.2a2 2 0 00.1-.8zm12.3-1.6h2.8L147 55l-1.4 3.3zm1.9-4.8l2.7 6.3.4.8a.6.6 0 00.4.4h.4v.3h-2.9V61h.5a.4.4 0 00.5-.2 2.6 2.6 0 00-.2-.7l-.5-1.3h-3.2l-.3.7a6.4 6.4 0 00-.4 1.1c0 .2.2.3.5.3h.4v.3h-2.5v-.3h.4a.8.8 0 00.6-.5l2-4.5 1-2.4h.4zm7 6.4v-5a2 2 0 00-.1-.8l-.5-.2h-.5v-.3h1.9l5.3 6.5v-5.2a2 2 0 00-.1-.8l-.5-.2h-.5v-.3h2.6v.3h-.5l-.5.2a2 2 0 00-.1.8v6.5l-1-.2-5.2-6.5v5.1a2 2 0 00.1.8l.5.2h.7v.3h-2.6v-.3h.5l.5-.2a2 2 0 00.1-.8zm16.2.2V59a.3.3 0 00-.4-.4h-.9v-.3h2.7v.3h-.3c-.1 0-.1.1-.1.4v1.9a12.4 12.4 0 01-2.9.6c-2.5 0-4.5-1.3-4.5-4.1s2-4 4.7-4a8.7 8.7 0 012.7.5 6.9 6.9 0 00-.2 1.7h-.3V55a1 1 0 00-.9-.9l-1.5-.2a3 3 0 00-3.2 3.4c0 2.2 1.3 3.8 3.6 3.8a2.1 2.1 0 001.5-.4 1.1 1.1 0 00.1-.5zm6.2-1.9h2.8l-1.4-3.3-1.4 3.3zm1.9-4.8l2.7 6.3.4.8a.6.6 0 00.4.4h.4v.3h-2.9v-.3h.5a.4.4 0 00.5-.2 2.6 2.6 0 00-.2-.7l-.5-1.3h-3.2l-.3.7a6.4 6.4 0 00-.4 1.1c0 .2.2.3.5.3h.4v.3h-2.5v-.3h.4a.8.8 0 00.6-.5l2-4.5 1-2.4h.4zm9.1 11.6h4.2v.8h-4.1V65zm20.8 3.5v5a1.9 1.9 0 00.1.8l.5.2h.5v.3h-3.2v-.3h.5l.5-.2a1.9 1.9 0 00.1-.8v-5a1.9 1.9 0 00-.1-.8l-.5-.2h-.5v-.3h3.2v.3h-.5l-.5.2a1.9 1.9 0 00-.1.8zM8.8 67.4c-1.9 0-2.8 1.4-2.8 3.2s.9 4 3.1 4 2.7-1.4 2.7-3.5-1-3.7-3-3.7zM8.7 75a3.8 3.8 0 01-3.9-4A3.9 3.9 0 019 67c2.4 0 4.1 1.3 4.1 3.8a4.2 4.2 0 01-4.3 4.3zm13.5-1.6v-5.8h-1.7c-.3 0-.4.1-.4.4v1h-.3c0-.6 0-1.2-.1-1.8h6.4c-.1.6-.1 1.2-.1 1.8h-.3v-.9c0-.3-.1-.4-.4-.4h-1.7a11.1 11.1 0 000 1.1v4.7a2 2 0 00.1.8l.5.2h.5v.3h-3.2v-.3h.5l.5-.2a2 2 0 00.1-.8zm6.9 0v-5a1.9 1.9 0 00-.1-.8l-.5-.2H28v-.3h5.9a7.4 7.4 0 00-.2 1.7h-.4v-.7a.3.3 0 00-.1-.3 6.9 6.9 0 00-2.2-.2h-.9v3h2.5a.4.4 0 00.1-.3v-.6h.3v2.5h-.3v-.7a.4.4 0 00-.1-.3h-2.5v3.1h3.2a2.1 2.1 0 00.4-1.2h.4a9.5 9.5 0 00-.2 1.8h-5.8v-.3h.4l.5-.2a2 2 0 00.1-.8zm12.8-1v-3.9a2 2 0 00-.1-.8l-.5-.2H41v-.3h3.2v.3h-.5l-.5.2a2 2 0 00-.1.8v3.8c0 1.6.8 2 2.3 2a2 2 0 002.3-2.3v-3.5a2 2 0 00-.1-.8l-.5-.2h-.5v-.3h2.6v.3h-.5l-.5.2a2 2 0 00-.1.8v3.2c0 2.4-.9 3.3-3.1 3.3s-3-.6-3-2.6zm11.5-4.7v5.8a2 2 0 00.1.8l.5.2h.5v.3h-3.2v-.3h.5l.5-.2a1.9 1.9 0 00.1-.8v-5a1.8 1.8 0 00-.1-.8l-.5-.2h-.5v-.3h3.9c1.1 0 2.3.4 2.3 1.7a2.5 2.5 0 01-2.7 2.4h-.7v-.4h.7a1.6 1.6 0 001.6-1.6 1.5 1.5 0 00-1.8-1.6h-1.1zm10.2-.3c-1.9 0-2.8 1.4-2.8 3.2s.9 4 3.1 4 2.7-1.4 2.7-3.5-1-3.7-3-3.7zm-.1 7.6a3.8 3.8 0 01-3.9-4 3.9 3.9 0 014.2-4c2.4 0 4.1 1.3 4.1 3.8a4.2 4.2 0 01-4.3 4.3zm8.6-3.8v2.3a2 2 0 00.1.8l.5.2h.5v.3H70v-.3h.5l.5-.2a1.9 1.9 0 00.1-.8v-5a2 2 0 00-.1-.8l-.5-.2H70v-.3h3.2v.3h-.5l-.5.2a2 2 0 00-.1.8V71l3.1-3 .3-.4v-.3h1.9v.3H77a1.4 1.4 0 00-.9.4l-2.9 2.7 3.7 3.4a1.5 1.5 0 00.7.5h.2v.3h-1.6l-3.9-3.7h-.1zm11.6-3.8c-1.9 0-2.8 1.4-2.8 3.2s.9 4 3.1 4 2.7-1.4 2.7-3.5-1-3.7-3-3.7zm-.1 7.6a3.8 3.8 0 01-3.9-4 3.9 3.9 0 014.2-4c2.4 0 4.1 1.3 4.1 3.8a4.2 4.2 0 01-4.3 4.3zm14.9-7.6c-1.9 0-2.8 1.4-2.8 3.2s.9 4 3.1 4 2.7-1.4 2.7-3.5-1-3.7-3-3.7zm-.1 7.6a3.8 3.8 0 01-3.9-4 3.9 3.9 0 014.2-4c2.4 0 4.1 1.3 4.1 3.8a4.2 4.2 0 01-4.3 4.3zm13.5-1.6v-5.8h-1.7c-.3 0-.4.1-.4.4v1h-.3c0-.6 0-1.2-.1-1.8h6.4c-.1.6-.1 1.2-.1 1.8h-.3v-.9c0-.3-.1-.4-.4-.4h-1.7a11 11 0 000 1.1v4.7a2 2 0 00.1.8l.5.2h.5v.3H111v-.3h.5l.5-.2a2 2 0 00.1-.8zm6.9 0v-5a1.9 1.9 0 00-.1-.8l-.5-.2h-.5v-.3h5.9a7.4 7.4 0 00-.2 1.7h-.4v-.7a.3.3 0 00-.1-.3 6.9 6.9 0 00-2.2-.2h-.9v3h2.5a.4.4 0 00.1-.3v-.6h.6v2.5h-.3v-.7a.4.4 0 00-.1-.3h-2.5v3.1h3.2a2.1 2.1 0 00.4-1.2h.3a9.5 9.5 0 00-.2 1.8H118v-.3h.4l.5-.2a1.9 1.9 0 00.1-.8zm13.9-5v5a1.9 1.9 0 00.1.8l.5.2h.7v.3h-3.2v-.3h.5l.5-.2a2 2 0 00.1-.8v-5a2 2 0 00-.1-.8l-.5-.2h-.5v-.3h3.2v.3h-.5l-.5.2a1.9 1.9 0 00-.1.8zm5.4 2.7v2.3a1.9 1.9 0 00.1.8l.5.2h.5v.3H136v-.3h.5l.5-.2a1.9 1.9 0 00.1-.8v-5a1.9 1.9 0 00-.1-.8l-.5-.2h-.5v-.3h3.2v.3h-.5l-.5.2a1.9 1.9 0 00-.1.8V71l3.1-3 .3-.4v-.3h1.9v.3h-.5a1.4 1.4 0 00-.9.4l-2.9 2.7 3.7 3.4a1.5 1.5 0 00.7.5h.2v.3h-1.6l-3.9-3.7h-.1zm10 .6h2.8l-1.4-3.3-1.4 3.3zm1.9-4.8l2.7 6.3.4.8a.6.6 0 00.4.4h.4v.3H151v-.3h.5a.4.4 0 00.5-.2 2.6 2.6 0 00-.2-.7l-.5-1.3h-3.2l-.3.7a6.4 6.4 0 00-.4 1.1c0 .2.2.3.5.3h.4v.3h-2.5v-.3h.4a.8.8 0 00.6-.5l2-4.5 1-2.4h.4zm11.9 4.8h2.8l-1.4-3.3-1.4 3.3zm1.9-4.8l2.7 6.3.4.8a.6.6 0 00.4.4h.4v.3h-2.9v-.3h.5a.4.4 0 00.5-.2 2.6 2.6 0 00-.2-.7l-.5-1.3h-3.2l-.3.7a6.4 6.4 0 00-.4 1.1c0 .2.2.3.5.3h.4v.3h-2.5v-.3h.4a.8.8 0 00.6-.5l2-4.5 1-2.4h.4zm18.8 1.5v5a2 2 0 00.1.8l.5.2h.5v.3h-3.1v-.3h.4l.5-.2a2 2 0 00.1-.8v-5l-.5.9-2 4.2-.6 1.4h-.2l-3.1-6.5v5a1.9 1.9 0 00.1.8l.5.2h.5v.3h-2.6v-.3h.5l.5-.2a2 2 0 00.1-.8v-5a2 2 0 00-.1-.8l-.5-.2h-.5v-.3h2.1l2.9 6.1 2.9-6.1h2.1v.3h-.5l-.5.2a2 2 0 00-.1.8zm5.7 3.3h2.8l-1.4-3.3-1.4 3.3zm1.9-4.8l2.7 6.3.4.8a.6.6 0 00.4.4h.3v.3h-2.9v-.3h.5a.4.4 0 00.5-.2 2.6 2.6 0 00-.2-.7l-.5-1.3h-3.2l-.3.7a6.4 6.4 0 00-.4 1.1c0 .2.2.3.5.3h.4v.3h-2.5v-.3h.4a.8.8 0 00.6-.5l2-4.5 1-2.4h.4zm7 5.4v-3.9a2 2 0 00-.1-.8l-.5-.2h-.5v-.3h3.2v.3h-.5l-.5.2a2 2 0 00-.1.8v3.8c0 1.6.8 2 2.3 2a2 2 0 002.3-2.3v-3.5a2 2 0 00-.1-.8l-.5-.2h-.5v-.3h2.6v.3h-.5l-.5.2a2 2 0 00-.1.8v3.2c0 2.4-.9 3.3-3.1 3.3s-3-.6-3-2.6z" fill="#004730"/></svg>