<svg version="1.0" xmlns="http://www.w3.org/2000/svg" width="682.667" height="682.667" viewBox="0 0 512 512"><path d="M14 51.6V64l4.3.1c2.3 0 5.8.2 7.7.4 1.9.2 6.8.6 10.8.9 11.8.9 20 5.6 28 16.2 4.8 6.2 11 19.3 23.7 49.9 25 59.8 67.8 162.1 69 165 .8 1.6 4.1 9.5 7.4 17.5 15.4 37.2 32.3 77.7 33.1 79.5 1.1 2.3 14.1 33.3 27.2 65 5 12.1 9.2 22.1 9.3 22.3.2.3 15.6.4 35.5.3l14.5-.1 9.4-25.3c8.2-21.9 19.3-49.8 23.6-59.2.7-1.7 3.4-8.2 6-14.5 2.6-6.3 5.3-12.9 6-14.5 4.4-10.1 10.5-24.5 10.5-24.9 0-.5 2.2-5.6 6.6-15.3.8-1.7 1.4-3.4 1.4-3.8 0-.3.8-2.5 1.9-4.8 1.8-4.2 4-9.4 14.6-34.7 7.2-17.2 7.4-17.9 9.1-21.5.7-1.7 9.9-23.7 20.4-49 10.6-25.3 20-47.9 21.1-50.2 1-2.3 1.9-4.4 1.9-4.6 0-.3 3.3-8.3 7.3-17.9 4.1-9.5 10.5-24.7 14.2-33.8 9.4-22.6 13.8-30 21.1-35.8 4.7-3.7 8.5-5.1 16.9-5.8 3.3-.3 6.9-.7 8-.9 1.1-.2 3.7-.4 5.8-.4l3.7-.1V39.3l-16.7.5c-21.9.7-93 .7-115 0l-17.3-.5-.1 2.6c-.1 4.1.2 21.5.4 21.7.1.1 4.9.5 10.7.8 25.1 1.6 26.4 1.7 32.9 4.9 7.6 3.7 10.7 11 8.7 20.3-.3 1.6-.8 3.9-1.1 5.1-1.4 7.6-19.9 56.7-34.8 92.3-.5 1.4-1.1 2.9-1.2 3.5-.2.5-1.3 3.2-2.5 6-1.2 2.7-2.6 5.9-3 7-.4 1.1-3.5 8.7-6.8 17-3.3 8.2-14.9 37-25.7 64-10.9 26.9-23 57.2-27 67.2s-7.7 18.8-8.2 19.7c-.9 1.7-2.1-1.1-30.5-71.4-6.6-16.2-12.5-30.9-13.3-32.5-.7-1.7-4.1-10-7.5-18.5-3.4-8.5-12.7-31.5-20.7-51-7.9-19.5-17.6-43.4-21.4-53-3.9-9.6-7.7-19-8.6-20.8-6.9-15.5-13.3-37-13.3-45.1 0-3.8.5-4.9 3.9-8.1 5.2-4.9 7.3-5.4 30-6.4 7.4-.4 13.7-.9 14.1-1.1.4-.2.7-5.8.8-12.4v-12l-24.1.7c-30.7.7-130.1.8-159.9 0L14 39.2v12.4z"/></svg>