<svg xmlns="http://www.w3.org/2000/svg" width="36" height="36"><path d="M36 31c0 2.76-2.24 5-5 5H5c-2.76 0-5-2.24-5-5V5c0-2.76 2.24-5 5-5h26c2.76 0 5 2.24 5 5v26z" fill="#0078d4"/><path d="M24 31V20.9c0-1.69-.82-2.7-2.19-2.7-.82 0-1.41.46-1.78 1.36-.02.06-.04.33-.03 1.11v10.32h-7V12h7v1.06c1.02-.7 2.27-1.06 3.74-1.06 4.55 0 7.26 3.09 7.26 8.27V31h-7zM5 31V12h3.46C6.46 12 5 10.53 5 8.5S6.48 5 8.51 5 11.95 6.43 12 8.48C12 10.52 10.52 12 8.48 12H12v19H5z" style="isolation:isolate" opacity=".05"/><path d="M24.5 30.5v-9.6c0-1.97-1.03-3.2-2.69-3.2-1.3 0-1.93.91-2.24 1.68-.08.2-.07.99-.07 1.33v9.79h-6v-18h6v1.64c.8-.82 2.08-1.64 4.24-1.64 4.23 0 6.76 2.91 6.76 7.77V30.5h-6zm-19 0v-18h6v18h-6zm2.96-19c-1.71 0-2.96-1.26-2.96-3s1.27-3 3.01-3 2.95 1.23 2.99 2.99c0 1.75-1.27 3.01-3.02 3.01h-.03z" style="isolation:isolate" opacity=".07"/><path d="M6 13h5v17H6V13zm2.48-2h-.03c-1.49 0-2.46-1.11-2.46-2.5S6.98 6 8.5 6s2.46 1.08 2.49 2.5c0 1.39-.97 2.5-2.52 2.5zM30 30h-5v-9.1c0-2.2-1.23-3.7-3.19-3.7-1.5 0-2.31 1.01-2.71 1.99-.14.35-.1 1.32-.1 1.81v9h-5V13h5v2.62c.72-1.12 1.85-2.62 4.74-2.62 3.58 0 6.26 2.25 6.26 7.27V30z" fill="#fff"/></svg>