<svg viewBox="0 0 50 50" xmlns="http://www.w3.org/2000/svg"><path d="M45 1H5C2.8 1 1 2.8 1 5v40c0 2.2 1.8 4 4 4h40c2.2 0 4-1.8 4-4V5c0-2.2-1.8-4-4-4z" fill="#527FA3"/><path d="M36 10H13.5c-1.9 0-3.5 1.6-3.5 3.5v23c0 1.9 1.6 3.5 3.5 3.5h23c1.9-.1 3.5-1.6 3.5-3.5v-23c0-1.9-2.1-3.4-4-3.5zm-11 9.5c3 0 5.5 2.5 5.5 5.5S28 30.5 25 30.5 19.5 28 19.5 25s2.5-5.5 5.5-5.5zM36 34c0 1.1-.9 2-2 2H16c-1.1 0-2-.9-2-2V22.5h2.4c-.3.8-.4 1.6-.4 2.5 0 5 4 9 9 9s9-4 9-9c0-.9-.1-1.7-.4-2.5H36V34zm0-19v3c0 .5-.4 1-1 1h-3c-.5 0-1-.4-1-1v-3c0-.6.4-1 1-1h3c.6 0 1 .5 1 1z" fill="#FFF"/></svg>