<svg xmlns="http://www.w3.org/2000/svg" width="94" height="94"><ellipse cx="32.396" cy="44.044" rx="3.641" ry="4.268"/><path d="M89 0H5a5 5 0 0 0-5 5v84a5 5 0 0 0 5 5h84a5 5 0 0 0 5-5V5a5 5 0 0 0-5-5zM13.014 59.497c-2.049-.802-1.497-2.668-1.191-3.343l2.296-5.02L8.27 37.748c-.116-.4-.795-2.527 1.282-3.224 1.914-.64 2.938.238 3.55 1.494l3.729 9.303 3.909-9.269c.483-1.146 1.273-2.357 3.582-1.543 2.387.842 1.279 3.219 1.279 3.219l-8.926 20.024c-.669 1.371-1.609 2.543-3.661 1.745zm19.382-7.573c-5.031 0-8.164-3.588-8.164-8.01s3.656-8.007 8.164-8.007 8.162 3.585 8.162 8.007-2.749 8.01-8.162 8.01zm23.254-5.851c-.199 3.786-3.148 6.028-7.354 6.084-7.476.104-7.335-4.677-7.364-5.606l.009-7.405c.096-1.511.862-2.343 2.308-2.45 1.351.061 2.033.809 2.093 2.3l-.007 7.454c-.002.667.353 2.54 2.975 2.475 1.769-.047 2.83-1.133 2.906-2.715l.002-7.432c.096-1.512.807-2.329 2.202-2.419 1.44.029 2.181.762 2.247 2.259l-.017 7.455zm14.991 5.038c-.8.77-2.406.854-3.385.051-.33-.283-6.408-5.424-6.408-5.424l-.006 4.209c-.061 1.262-.822 1.957-2.346 1.951-1.459 0-2.254-.643-2.335-1.959v-11.31c.081-1.373.735-2.169 2.329-2.169 1.547 0 2.295.845 2.33 2.171l.033 3.944 5.762-5.445c.576-.531 2.179-1.22 3.436-.02 1.711 1.628-.242 3.483-.242 3.483l-3.947 3.439 4.406 3.737c1.018.866 1.216 2.53.373 3.342zM85.93 46.24c-.207 3.748-2.607 5.701-7.393 5.775-4.758-.074-7.202-2.035-7.362-5.767v-7.42c.08-1.494.776-2.36 2.292-2.36 1.371.049 2.061.859 2.137 2.354l.014 7.417c.083 1.564 1.236 2.589 2.934 2.589 1.612 0 2.848-1.021 2.928-2.589v-7.417c.056-1.494.816-2.298 2.211-2.349 1.398.051 2.16.854 2.24 2.349v7.418h-.001z"/></svg>