<svg xmlns="http://www.w3.org/2000/svg" width="317.512" height="1629.958"><g id="Group_1832" data-name="Group 1832" transform="translate(-1118.551 -11)"><g id="Group_1824" data-name="Group 1824" opacity=".4" transform="translate(269.869 11)" fill="none" stroke-miterlimit="10" stroke-width="8"><g id="Group_1696" data-name="Group 1696" transform="translate(979.499)" stroke="#7ac777"><path id="Path_4936" data-name="Path 4936" d="M384.978 117.3h-43.259c-62.062 0-112.373-61.269-112.373-136.848v-98.92" transform="translate(-229.346 118.469)" stroke-dasharray="339 341" stroke-dashoffset="340"/><path id="Path_4937" data-name="Path 4937" d="M407.244 79.045h-40.23c-46.461 0-84.125-45.867-84.125-102.447v-95.067" transform="translate(-251.612 118.469)" stroke-dasharray="283 285" stroke-dashoffset="284"/><path id="Path_4938" data-name="Path 4938" d="M429.556 41.951h-40.083c-29.233 0-52.931-28.859-52.931-64.459v-94.961" transform="translate(-273.924 117.469)" stroke-dasharray="228 230" stroke-dashoffset="229"/></g><g id="Group_1698" data-name="Group 1698" transform="rotate(90 486.837 648.294)" stroke="#35a08b"><path id="Path_4936-2" data-name="Path 4936" d="M458.756 155.631h-321.82C61.309 155.631 0 105.32 0 43.258V0" stroke-dasharray="562 564" stroke-dashoffset="563"/><path id="Path_4937-2" data-name="Path 4937" d="M421.089 124.22H102.52C45.9 124.22 0 86.555 0 40.095V0" transform="translate(38.089)" stroke-dasharray="506 508" stroke-dashoffset="507"/><path id="Path_4938-2" data-name="Path 4938" d="M382.992 93.523H64.46C28.86 93.523 0 69.825 0 40.592V0" transform="translate(76.551)" stroke-dasharray="452 454" stroke-dashoffset="453"/></g><g id="Group_1822" data-name="Group 1822" transform="rotate(-90 867.02 -112.478)" stroke="#35a08b"><path id="Path_4936-3" data-name="Path 4936" d="M458.756 0h-321.82C61.309 0 0 50.312 0 112.373v43.259" stroke-dasharray="562 564" stroke-dashoffset="563"/><path id="Path_4937-3" data-name="Path 4937" d="M421.089 0H102.52C45.9 0 0 37.664 0 84.125v40.095" transform="translate(38.088 31.412)" stroke-dasharray="506 508" stroke-dashoffset="507"/><path id="Path_4938-3" data-name="Path 4938" d="M382.992 0H64.46C28.86 0 0 23.7 0 52.931v40.592" transform="translate(76.551 62.109)" stroke-dasharray="452 454" stroke-dashoffset="453"/></g></g><g id="Group_1816" data-name="Group 1816" transform="translate(259.474 993.104)" opacity=".145"><g id="Group_1699" data-name="Group 1699" transform="translate(863.577 120.241)"><g id="Group_1696-2" data-name="Group 1696" fill="none" stroke="#469385" stroke-miterlimit="10" stroke-width="9"><path id="Path_4936-4" data-name="Path 4936" d="M381.876-6.2h-42.4a110.134 110.134 0 0 1-110.13-110.134V-299.7" transform="translate(-229.346 300.855)" stroke-dasharray="399 401" stroke-dashoffset="400"/><path id="Path_4937-4" data-name="Path 4937" d="M407.055-36.991h-41.718a82.448 82.448 0 0 1-82.449-82.448v-180.268" transform="translate(-252.235 300.859)" stroke-dasharray="352 354" stroke-dashoffset="353"/><path id="Path_4938-4" data-name="Path 4938" d="M440.3-67.509h-51.882a51.876 51.876 0 0 1-51.876-51.876V-300.72" transform="translate(-275.172 300.72)" stroke-dasharray="315 317" stroke-dashoffset="316"/></g></g><g id="Group_1703" data-name="Group 1703" transform="rotate(180 586.044 323.927)"><g id="Group_1696-3" data-name="Group 1696" fill="none" stroke="#469385" stroke-miterlimit="10" stroke-width="9"><path id="Path_4936-5" data-name="Path 4936" d="M152.53 293.5h-42.4A110.134 110.134 0 0 1 0 183.363V0" transform="translate(0 1.158)" stroke-dasharray="399 401" stroke-dashoffset="400"/><path id="Path_4937-5" data-name="Path 4937" d="M124.167 262.716H82.449A82.448 82.448 0 0 1 0 180.268V0" transform="translate(30.653 1.152)" stroke-dasharray="352 354" stroke-dashoffset="353"/><path id="Path_4938-5" data-name="Path 4938" d="M103.755 233.211H51.876A51.876 51.876 0 0 1 0 181.335V0" transform="translate(61.37)" stroke-dasharray="315 317" stroke-dashoffset="316"/></g></g></g><g id="Group_1828" data-name="Group 1828" transform="translate(1123.051 588.345)" opacity=".145"><g id="Group_1699-2" data-name="Group 1699" transform="translate(0 232.958)"><g id="Group_1696-4" data-name="Group 1696" fill="none" stroke="#469385" stroke-miterlimit="10" stroke-width="9"><path id="Path_4936-6" data-name="Path 4936" d="M381.876-299.7h-42.4a110.134 110.134 0 0 0-110.13 110.136V-6.2" transform="translate(-229.346 299.697)" stroke-dasharray="399 401" stroke-dashoffset="400"/><path id="Path_4937-6" data-name="Path 4937" d="M407.055-299.707h-41.718a82.448 82.448 0 0 0-82.449 82.448v180.268" transform="translate(-252.235 330.493)" stroke-dasharray="352 354" stroke-dashoffset="353"/><path id="Path_4938-6" data-name="Path 4938" d="M440.291-300.72h-51.876c-28.649 0-51.873 22.972-51.873 51.31v179.356" transform="translate(-275.166 362.163)" stroke-dasharray="313 315" stroke-dashoffset="314"/></g></g><g id="Group_1703-2" data-name="Group 1703" transform="rotate(180 154.256 147.327)"><g id="Group_1696-5" data-name="Group 1696" fill="none" stroke="#469385" stroke-miterlimit="10" stroke-width="9"><path id="Path_4936-7" data-name="Path 4936" d="M152.53 0h-42.4A110.134 110.134 0 0 0 0 110.133V293.5" stroke-dasharray="399 401" stroke-dashoffset="400"/><path id="Path_4937-7" data-name="Path 4937" d="M124.167 0H82.449A82.448 82.448 0 0 0 0 82.448v180.268" transform="translate(30.653 30.786)" stroke-dasharray="352 354" stroke-dashoffset="353"/><path id="Path_4938-7" data-name="Path 4938" d="M103.755 0H51.876A51.876 51.876 0 0 0 0 51.876v181.335" transform="translate(61.37 61.444)" stroke-dasharray="315 317" stroke-dashoffset="316"/></g></g></g></g><style data-made-with="vivus-instant">@keyframes dWFzHzKE_fade{0%,94.44444444444444%{stroke-opacity:1}}</style></svg>