<svg xmlns="http://www.w3.org/2000/svg" width="159.634" height="758.543"><g data-name="Group 1824"><g data-name="Group 1696" fill="#7ac777"><path data-name="Path 4936" d="M159.633 239.769h-43.259C52.206 239.769.001 176.585.001 98.921V.001h8v98.92c0 73.253 48.616 132.848 108.373 132.848h43.259z"/><path data-name="Path 4937" d="M159.633 201.514h-40.23c-48.592 0-88.125-47.752-88.125-106.447V0h8v95.069c0 54.284 35.944 98.447 80.125 98.447h40.23z"/><path data-name="Path 4938" d="M159.633 163.42H119.55c-31.392 0-56.931-30.711-56.931-68.459V0h8v94.961c0 33.337 21.951 60.459 48.931 60.459h40.082z"/></g><g data-name="Group 1698" fill="#35a08b"><path data-name="Path 4936" d="M.001 620.213v-321.82c0-77.712 52.204-140.936 116.373-140.936h43.258v8h-43.258c-59.757 0-108.373 59.635-108.373 132.936v321.82z"/><path data-name="Path 4937" d="M31.412 620.635V302.066c0-58.735 39.533-106.52 88.125-106.52h40.095v8h-40.095c-44.181 0-80.125 44.2-80.125 98.52v318.569z"/><path data-name="Path 4938" d="M62.109 621V302.468c0-37.749 25.539-68.46 56.931-68.46h40.592v8H119.04c-26.98 0-48.931 27.122-48.931 60.46V621z"/></g><g data-name="Group 1822" fill="#35a08b"><path data-name="Path 4936" d="M159.632 750.543v8h-43.259C52.2 758.543 0 695.319 0 617.607v-321.82h8v321.82c0 73.301 48.616 132.936 108.373 132.936z"/><path data-name="Path 4937" d="M159.632 712.455v8h-40.095c-48.592 0-88.125-47.785-88.125-106.52V295.366h8v318.569c0 54.32 35.944 98.52 80.125 98.52z"/><path data-name="Path 4938" d="M159.632 673.992v8H119.04c-31.392 0-56.931-30.711-56.931-68.46V295h8v318.532c0 33.338 21.95 60.46 48.931 60.46z"/></g></g></svg>