<svg id="Layer_1" data-name="Layer 1" xmlns="http://www.w3.org/2000/svg" viewBox="0 0 52.39 511.19"><defs><style>.cls-1{fill:none;stroke:#000;stroke-miterlimit:10;stroke-width:.5px}</style></defs><path class="cls-1" d="M30.19 203.58h4.15v-25.14a5 5 0 0 1-4.05 2.83zm-12.16 51.77h4.24v.2l-.01-.02h.01v-1.59h-4.24v1.41z"/><path class="cls-1" d="M18.03 255.35h4.24v1.45h-4.24zm12.14-48.74l-.06 18.44a2.49 2.49 0 0 1-.54 1.56 3.58 3.58 0 0 1-2.95 1.09h-4a4 4 0 0 0-3.8 2.66 10.61 10.61 0 0 0-.76 3.88v19.7h4.24v-19.18a2.53 2.53 0 0 1 .54-1.56 3.58 3.58 0 0 1 2.95-1.08h4a4 4 0 0 0 3.79-2.66 10.79 10.79 0 0 0 .77-3.9v-18.95zm.01-1.59h4.17v1.58h-4.17zm0-1.44h4.16v1.44h-4.16zm-7.91 53.23H18v25.09c1.17-1.56 2.39-2.82 4.24-2.89zm7.92-106.54h4.15v-25.15a5 5 0 0 1-4.05 2.88zm-12.16 51.77h4.24v.19l-.01-.01.01-.01v-1.58h-4.24v1.41z"/><path class="cls-1" d="M18.03 202.04h4.24v1.45h-4.24zm12.14-48.75l-.06 18.45a2.48 2.48 0 0 1-.54 1.55 3.55 3.55 0 0 1-2.95 1.09h-4a4 4 0 0 0-3.8 2.66 10.65 10.65 0 0 0-.76 3.88v19.71h4.24v-19.19a2.48 2.48 0 0 1 .54-1.55 3.55 3.55 0 0 1 2.95-1.09h4a3.94 3.94 0 0 0 3.79-2.66 10.75 10.75 0 0 0 .77-3.89v-19z"/><path class="cls-1" d="M30.18 151.71h4.17v1.58h-4.17zm0-1.44h4.16v1.44h-4.16zm-7.91 53.22H18v25.09c1.17-1.55 2.39-2.82 4.24-2.88zm7.92-106.87h4.15V71.47a5 5 0 0 1-4.05 2.83zm-12.16 51.77h4.24v.19l-.01-.01.01-.01v-1.58h-4.24v1.41z"/><path class="cls-1" d="M18.03 148.39h4.24v1.45h-4.24zm12.14-48.75l-.06 18.45a2.48 2.48 0 0 1-.54 1.55 3.55 3.55 0 0 1-2.95 1.09h-4a4 4 0 0 0-3.8 2.66 10.66 10.66 0 0 0-.76 3.89V147h4.24v-19.21a2.48 2.48 0 0 1 .54-1.55 3.55 3.55 0 0 1 2.95-1.09h4a3.94 3.94 0 0 0 3.79-2.66 10.75 10.75 0 0 0 .77-3.89v-19z"/><path class="cls-1" d="M30.18 98.06h4.17v1.58h-4.17zm0-1.44h4.16v1.44h-4.16zm-7.91 53.22H18v25.09c1.17-1.55 2.39-2.82 4.24-2.88zM30.19 43.3h4.15V18.16A5 5 0 0 1 30.29 21zM18.03 95.07h4.24v.19l-.01-.01.01-.01v-1.58h-4.24v1.41z"/><path class="cls-1" d="M18.03 95.07h4.24v1.45h-4.24zm12.14-48.75l-.06 18.45a2.48 2.48 0 0 1-.54 1.55 3.55 3.55 0 0 1-2.95 1.09h-4a4 4 0 0 0-3.8 2.66A10.66 10.66 0 0 0 18 74v19.7h4.24V74.48a2.49 2.49 0 0 1 .54-1.56 3.58 3.58 0 0 1 2.95-1.09h4a3.94 3.94 0 0 0 3.79-2.66 10.75 10.75 0 0 0 .77-3.89v-19z"/><path class="cls-1" d="M30.18 44.74h4.17v1.58h-4.17zm0-1.44h4.16v1.44h-4.16zm-7.91 53.22H18v25.09c1.17-1.55 2.39-2.82 4.24-2.88zm7.92 320.05h4.15v-25.14a5 5 0 0 1-4.05 2.82zm-12.16 51.77h4.24v.19l-.01-.01.01-.01v-1.58h-4.24v1.41z"/><path class="cls-1" d="M18.03 468.34h4.24v1.45h-4.24zm12.14-48.75L30.11 438a2.48 2.48 0 0 1-.54 1.55 3.55 3.55 0 0 1-2.95 1.09h-4a4 4 0 0 0-3.8 2.66 10.66 10.66 0 0 0-.76 3.89v19.7h4.24v-19.14a2.49 2.49 0 0 1 .54-1.56 3.58 3.58 0 0 1 2.95-1.09h4a3.94 3.94 0 0 0 3.79-2.66 10.75 10.75 0 0 0 .77-3.89v-19z"/><path class="cls-1" d="M30.18 418.01h4.17v1.58h-4.17zm0-1.44h4.16v1.44h-4.16zm-7.91 53.22H18v25.09c1.17-1.55 2.39-2.82 4.24-2.88zm7.92-106.54h4.15v-25.14a5 5 0 0 1-4.05 2.82zm-12.16 51.77h4.24v.2l-.01-.02.01-.01v-1.58h-4.24v1.41z"/><path class="cls-1" d="M18.03 415.02h4.24v1.45h-4.24zm12.14-48.74l-.06 18.44a2.51 2.51 0 0 1-.54 1.56 3.55 3.55 0 0 1-2.95 1.08h-4a4 4 0 0 0-3.8 2.66 10.7 10.7 0 0 0-.76 3.89v19.7h4.24v-19.18a2.49 2.49 0 0 1 .54-1.56 3.55 3.55 0 0 1 2.95-1.08h4a4 4 0 0 0 3.79-2.66 10.83 10.83 0 0 0 .77-3.9v-19z"/><path class="cls-1" d="M30.18 364.69h4.17v1.58h-4.17zm0-1.44h4.16v1.44h-4.16zm-7.91 53.23H18v25.08c1.17-1.55 2.39-2.82 4.24-2.88zm7.92-106.88h4.15v-25.14a5 5 0 0 1-4.05 2.82zm-12.16 51.77h4.24v.2l-.01-.02h.01v-1.59h-4.24v1.41z"/><path class="cls-1" d="M18.03 361.37h4.24v1.45h-4.24zm12.14-48.74l-.06 18.44a2.49 2.49 0 0 1-.54 1.56 3.55 3.55 0 0 1-2.95 1.08h-4a4 4 0 0 0-3.8 2.66 10.7 10.7 0 0 0-.76 3.89V360h4.24v-19.22a2.49 2.49 0 0 1 .54-1.56 3.55 3.55 0 0 1 2.95-1.08h4a4 4 0 0 0 3.79-2.66 10.83 10.83 0 0 0 .77-3.9v-18.95zm.01-1.59h4.17v1.58h-4.17zm0-1.44h4.16v1.44h-4.16zm-7.91 53.23H18v25.08c1.17-1.55 2.39-2.82 4.24-2.88zm7.92-106.55h4.15v-25.14a5 5 0 0 1-4.05 2.86zm-12.16 51.77h4.24v.2l-.01-.02h.01v-1.59h-4.24v1.41z"/><path class="cls-1" d="M18.03 308.05h4.24v1.45h-4.24zm12.14-48.74l-.06 18.44a2.49 2.49 0 0 1-.54 1.56 3.58 3.58 0 0 1-2.95 1.09h-4a4 4 0 0 0-3.8 2.66 10.61 10.61 0 0 0-.76 3.88v19.7h4.24v-19.18a2.48 2.48 0 0 1 .54-1.55 3.55 3.55 0 0 1 2.95-1.09h4a4 4 0 0 0 3.79-2.66 10.79 10.79 0 0 0 .77-3.9v-18.95zm.01-1.58h4.17v1.58h-4.17zm0-1.45h4.16v1.44h-4.16zm-7.91 53.23H18v25.09c1.17-1.56 2.39-2.82 4.24-2.89z"/></svg>