<svg width="434.505" height="21.527" xmlns="http://www.w3.org/2000/svg"><style>path{opacity:.3}</style><g id="Group" transform="translate(.25 .25)" fill="none" fill-rule="evenodd" stroke="#FFF" stroke-width=".5"><path d="M380.105 8.733a8.657 8.657 0 0 1 3.16-4.18 8.634 8.634 0 0 1 2.48-1.231 8.937 8.937 0 0 1 2.72-.427 8.64 8.64 0 0 1 7 3.534 8.37 8.37 0 0 1 1.17 2.304c.058.19.089.387.09.586a1.898 1.898 0 0 1-1.31 1.777 2.014 2.014 0 0 1-.58.09 1.898 1.898 0 0 1-1.82-1.321 4.62 4.62 0 0 0-.64-1.251 4.821 4.821 0 0 0-3.91-1.986c-.529 0-1.055.084-1.559.248a4.919 4.919 0 0 0-1.411.705 4.83 4.83 0 0 0-1.78 2.344 4.511 4.511 0 0 0 0 2.899 10.7 10.7 0 0 0 1.54 2.978 11.557 11.557 0 0 0 9.38 4.697c1.24.033 2.478-.125 3.67-.467a12.422 12.422 0 0 0 3.35-1.668c2-1.42 4.2-3.972 5.42-9.7m-3-.864a19.391 19.391 0 0 1-1 4.18 8.69 8.69 0 0 1-3.16 4.17 9.288 9.288 0 0 1-2.47 1.241 9.06 9.06 0 0 1-2.73.427 8.65 8.65 0 0 1-7-3.545 8.05 8.05 0 0 1-1.17-2.303 1.909 1.909 0 0 1 1.23-2.393c.191-.058.39-.088.59-.09.832 0 1.568.535 1.82 1.321.145.447.357.869.63 1.251a4.84 4.84 0 0 0 3.92 1.986c.529 0 1.055-.084 1.559-.248a5.988 5.988 0 0 0 3.431-2.979c.178-.528.27-1.081.27-1.638a4.779 4.779 0 0 0-.21-1.41 11.262 11.262 0 0 0-1.8-2.919 11.567 11.567 0 0 0-9.39-4.706 12.959 12.959 0 0 0-3.83.387 12.13 12.13 0 0 0-3.4 1.49 9.662 9.662 0 0 0-4.3 5.847" id="Shape"/><path d="M407.035 8.758a8.657 8.657 0 0 1 3.16-4.18 8.634 8.634 0 0 1 2.48-1.23 8.981 8.981 0 0 1 2.72-.428 8.639 8.639 0 0 1 7 3.535 8.34 8.34 0 0 1 1.17 2.303c.059.19.089.388.09.586a1.897 1.897 0 0 1-1.9 1.867 1.9 1.9 0 0 1-1.82-1.32 4.62 4.62 0 0 0-.64-1.252 4.81 4.81 0 0 0-3.91-1.986c-.529 0-1.055.084-1.559.248-.505.16-.981.398-1.411.706a4.894 4.894 0 0 0-1.78 2.343 4.511 4.511 0 0 0 0 2.899c.357 1.065.877 2.07 1.54 2.979a11.567 11.567 0 0 0 9.38 4.696 12.083 12.083 0 0 0 3.68-.467 12.283 12.283 0 0 0 3.35-1.668c2-1.42 4.2-3.971 5.42-9.7m-3-.864a19.333 19.333 0 0 1-1 4.18 8.683 8.683 0 0 1-3.16 4.17 9.285 9.285 0 0 1-2.51 1.241 9.056 9.056 0 0 1-2.73.427 8.65 8.65 0 0 1-7-3.544 8.101 8.101 0 0 1-1.17-2.304 1.901 1.901 0 0 1 1.527-2.46 1.91 1.91 0 0 1 2.113 1.299c.144.448.36.87.64 1.25a4.81 4.81 0 0 0 3.91 1.986c.531 0 1.058-.084 1.561-.248a5.986 5.986 0 0 0 3.429-2.979c.179-.528.27-1.08.27-1.638a4.779 4.779 0 0 0-.21-1.41 10.981 10.981 0 0 0-1.8-2.919 11.558 11.558 0 0 0-9.39-4.706 12.958 12.958 0 0 0-3.83.387 11.934 11.934 0 0 0-3.32 1.49 9.634 9.634 0 0 0-4.31 5.848m-77.791.838c1.276-3.495 4.616-5.827 8.36-5.838a8.64 8.64 0 0 1 7 3.535 8.34 8.34 0 0 1 1.17 2.303c.063.189.094.387.09.586a1.897 1.897 0 0 1-1.3 1.777c-.191.058-.39.088-.59.09a1.9 1.9 0 0 1-1.82-1.321 4.915 4.915 0 0 0-.63-1.251 4.84 4.84 0 0 0-3.92-1.986c-.529 0-1.055.084-1.559.248a5.21 5.21 0 0 0-1.411.705 4.81 4.81 0 0 0-1.77 2.343 4.511 4.511 0 0 0 0 2.9 10.89 10.89 0 0 0 1.53 2.978 11.589 11.589 0 0 0 9.39 4.697 12.218 12.218 0 0 0 7.049-2.243c2.001-1.421 4.201-3.973 5.421-9.702m-3-.863a19.335 19.335 0 0 1-1 4.18 8.625 8.625 0 0 1-3.16 4.17 8.933 8.933 0 0 1-5.2 1.668 8.65 8.65 0 0 1-7-3.545 8.102 8.102 0 0 1-1.17-2.303 1.901 1.901 0 0 1 1.527-2.46 1.911 1.911 0 0 1 2.113 1.298c.144.449.36.87.64 1.251a4.821 4.821 0 0 0 3.91 1.986c.531 0 1.058-.084 1.561-.249a5.168 5.168 0 0 0 1.409-.694 5.335 5.335 0 0 0 2-2.304c.184-.527.275-1.08.27-1.638a4.466 4.466 0 0 0-.21-1.41 10.981 10.981 0 0 0-1.8-2.92 11.537 11.537 0 0 0-9.38-4.705 13.033 13.033 0 0 0-3.84.387 12.043 12.043 0 0 0-3.36 1.539 9.638 9.638 0 0 0-4.31 5.848" id="Shape"/><path d="M353.174 8.733a8.643 8.643 0 0 1 3.15-4.18 9.147 9.147 0 0 1 5.2-1.658c3.728-.058 7.054 2.313 8.19 5.838a1.5 1.5 0 0 1 .09.586 1.877 1.877 0 0 1-1.32 1.777 2.01 2.01 0 0 1-.59.09 1.9 1.9 0 0 1-1.82-1.321 4.576 4.576 0 0 0-.63-1.251 4.83 4.83 0 0 0-3.92-1.986 5.21 5.21 0 0 0-2.97.953 4.816 4.816 0 0 0-1.77 2.343 4.511 4.511 0 0 0 0 2.9 10.92 10.92 0 0 0 1.53 2.978 11.589 11.589 0 0 0 9.39 4.697 12.082 12.082 0 0 0 3.69-.467 12.113 12.113 0 0 0 3.35-1.668c2-1.42 4.2-3.972 5.42-9.7m-3-.864a19.333 19.333 0 0 1-1 4.18 8.62 8.62 0 0 1-3.16 4.17 8.93 8.93 0 0 1-5.199 1.668 8.66 8.66 0 0 1-7-3.545 8.345 8.345 0 0 1-1.171-2.303 1.901 1.901 0 0 1 1.527-2.46 1.91 1.91 0 0 1 2.113 1.298c.145.449.361.871.64 1.251a4.833 4.833 0 0 0 3.921 1.986 5.109 5.109 0 0 0 1.559-.248c.5-.161.971-.395 1.4-.695a5.323 5.323 0 0 0 2-2.304c.184-.527.275-1.08.271-1.638a4.439 4.439 0 0 0-.211-1.41 10.979 10.979 0 0 0-1.799-2.919 11.539 11.539 0 0 0-9.381-4.706 12.92 12.92 0 0 0-3.829.387 12.036 12.036 0 0 0-3.37 1.539 9.64 9.64 0 0 0-4.311 5.848m-77.791.834a8.641 8.641 0 0 1 3.11-4.18 9.149 9.149 0 0 1 5.21-1.658c3.724-.054 7.045 2.316 8.18 5.838.067.188.101.386.1.586a1.897 1.897 0 0 1-1.29 1.777c-.191.059-.389.09-.59.09a1.91 1.91 0 0 1-1.82-1.321 4.574 4.574 0 0 0-.63-1.251 4.83 4.83 0 0 0-3.92-1.986 5.107 5.107 0 0 0-1.559.248 5.21 5.21 0 0 0-1.411.705 4.874 4.874 0 0 0-1.77 2.343 4.511 4.511 0 0 0 0 2.9 10.89 10.89 0 0 0 1.53 2.978 11.589 11.589 0 0 0 9.39 4.697 12.075 12.075 0 0 0 3.7-.576 12.124 12.124 0 0 0 3.35-1.668c2-1.42 4.21-3.972 5.42-9.7m-3-.865a19.333 19.333 0 0 1-1 4.18 8.6 8.6 0 0 1-3.15 4.17 9.27 9.27 0 0 1-2.47 1.242 9.056 9.056 0 0 1-2.73.427 8.679 8.679 0 0 1-6.999-3.545 8.33 8.33 0 0 1-1.161-2.303 1.695 1.695 0 0 1-.1-.586 1.92 1.92 0 0 1 1.33-1.807c.191-.06.39-.09.59-.09.855.023 1.59.607 1.8 1.43.141.448.354.87.63 1.251a4.833 4.833 0 0 0 3.92 1.986 5.11 5.11 0 0 0 1.56-.248 5.984 5.984 0 0 0 3.43-2.979 5.1 5.1 0 0 0 .27-1.638 4.443 4.443 0 0 0-.22-1.41 10.871 10.871 0 0 0-1.79-2.92 11.567 11.567 0 0 0-9.39-4.705 12.93 12.93 0 0 0-3.83.387 12.063 12.063 0 0 0-3.37 1.539 9.716 9.716 0 0 0-4.31 5.848" id="Shape"/><path d="M299.304 8.733a8.65 8.65 0 0 1 3.15-4.18 8.62 8.62 0 0 1 2.48-1.231 8.936 8.936 0 0 1 2.72-.427 8.65 8.65 0 0 1 7 3.534 8.656 8.656 0 0 1 1.17 2.304c.058.19.089.387.09.586a1.898 1.898 0 0 1-1.3 1.777 1.918 1.918 0 0 1-2.41-1.231 4.632 4.632 0 0 0-.63-1.251 4.833 4.833 0 0 0-3.92-1.986 5.03 5.03 0 0 0-1.55.248 5.11 5.11 0 0 0-1.42.705 4.861 4.861 0 0 0-1.77 2.343 4.5 4.5 0 0 0 0 2.9 10.672 10.672 0 0 0 1.54 2.978 11.557 11.557 0 0 0 9.38 4.697 12.084 12.084 0 0 0 3.62-.467 12.14 12.14 0 0 0 3.35-1.668c2-1.42 4.21-3.972 5.42-9.7m-3-.864a19.394 19.394 0 0 1-1 4.18 8.605 8.605 0 0 1-3.15 4.17 9.285 9.285 0 0 1-2.47 1.24 9.066 9.066 0 0 1-2.73.428 8.68 8.68 0 0 1-7-3.545 8.326 8.326 0 0 1-1.16-2.303c-.07-.188-.1-.387-.09-.586a1.896 1.896 0 0 1 1.91-1.896 1.91 1.91 0 0 1 1.82 1.32c.14.448.353.87.63 1.251a4.83 4.83 0 0 0 3.92 1.986c.528 0 1.055-.084 1.559-.248a5.99 5.99 0 0 0 3.431-2.979 5.13 5.13 0 0 0 .27-1.638 4.5 4.5 0 0 0-.22-1.41 10.922 10.922 0 0 0-1.79-2.92 11.567 11.567 0 0 0-9.39-4.705 12.93 12.93 0 0 0-3.83.387 12.036 12.036 0 0 0-3.37 1.539 9.662 9.662 0 0 0-4.3 5.848m-77.721.814a8.645 8.645 0 0 1 3.16-4.18 8.621 8.621 0 0 1 2.48-1.231 8.976 8.976 0 0 1 2.72-.427 8.641 8.641 0 0 1 7 3.534c.507.704.902 1.48 1.17 2.304.058.19.088.387.09.586a1.9 1.9 0 0 1-1.35 1.777 2.016 2.016 0 0 1-.58.09 1.897 1.897 0 0 1-1.82-1.321 4.648 4.648 0 0 0-.64-1.251 4.812 4.812 0 0 0-3.91-1.986c-.529 0-1.056.084-1.559.248a4.919 4.919 0 0 0-1.411.705 4.823 4.823 0 0 0-1.78 2.343 4.5 4.5 0 0 0 0 2.9 10.93 10.93 0 0 0 1.54 2.978 11.567 11.567 0 0 0 9.38 4.697 12.17 12.17 0 0 0 3.67-.467 12.278 12.278 0 0 0 3.35-1.668c2-1.42 4.2-3.972 5.42-9.7m-3-.864a19.45 19.45 0 0 1-1 4.18 8.69 8.69 0 0 1-3.16 4.17 9.291 9.291 0 0 1-2.47 1.24 9.065 9.065 0 0 1-2.73.428 8.65 8.65 0 0 1-7.001-3.545 8.072 8.072 0 0 1-1.169-2.303 1.906 1.906 0 0 1 1.23-2.393c.191-.058.39-.088.59-.09a1.91 1.91 0 0 1 1.78 1.321c.144.446.357.868.63 1.251a4.84 4.84 0 0 0 3.92 1.986c.528 0 1.055-.084 1.558-.248a5.99 5.99 0 0 0 3.432-2.98 5.157 5.157 0 0 0 .27-1.637 4.779 4.779 0 0 0-.21-1.41 11.264 11.264 0 0 0-1.8-2.92 11.558 11.558 0 0 0-9.39-4.706 12.956 12.956 0 0 0-3.83.388 11.927 11.927 0 0 0-3.36 1.539 9.634 9.634 0 0 0-4.31 5.848" id="Shape"/><path d="M245.434 8.733a8.709 8.709 0 0 1 3.16-4.18 8.62 8.62 0 0 1 2.48-1.231 8.976 8.976 0 0 1 2.72-.427 8.641 8.641 0 0 1 7 3.534c.507.704.902 1.48 1.17 2.304.058.19.088.387.09.586a1.898 1.898 0 0 1-1.31 1.777 2.019 2.019 0 0 1-.58.09 1.898 1.898 0 0 1-1.82-1.321 4.648 4.648 0 0 0-.64-1.251 4.812 4.812 0 0 0-3.91-1.986c-.529 0-1.056.084-1.559.248-.505.16-.982.397-1.411.705a4.733 4.733 0 0 0-2 3.853c0 .471.074.94.22 1.39.361 1.063.88 2.067 1.54 2.978a11.567 11.567 0 0 0 9.39 4.697 12.074 12.074 0 0 0 3.699-.576 12.27 12.27 0 0 0 3.351-1.668c2-1.42 4.2-3.972 5.42-9.7m-3.001-.865a19.33 19.33 0 0 1-1 4.18 8.683 8.683 0 0 1-3.16 4.17 9.142 9.142 0 0 1-2.47 1.242 9.056 9.056 0 0 1-2.73.427 8.65 8.65 0 0 1-7-3.545 8.102 8.102 0 0 1-1.17-2.304 1.901 1.901 0 0 1 1.527-2.46 1.911 1.911 0 0 1 2.113 1.299c.144.448.36.87.64 1.25a4.81 4.81 0 0 0 3.91 1.986 5.286 5.286 0 0 0 2.97-.943 5.404 5.404 0 0 0 2-2.303 5.1 5.1 0 0 0 .27-1.638 4.779 4.779 0 0 0-.21-1.41 10.982 10.982 0 0 0-1.8-2.92 11.548 11.548 0 0 0-9.38-4.706 12.989 12.989 0 0 0-3.84.388 11.927 11.927 0 0 0-3.36 1.539 9.634 9.634 0 0 0-4.31 5.848m-77.841.943c1.276-3.496 4.615-5.827 8.36-5.838a8.64 8.64 0 0 1 7 3.534c.508.704.902 1.48 1.17 2.304a1.897 1.897 0 0 1-1.18 2.363c-.191.059-.39.089-.59.09a1.9 1.9 0 0 1-1.82-1.321 4.603 4.603 0 0 0-.63-1.251 4.83 4.83 0 0 0-3.92-1.986c-.529 0-1.055.084-1.559.248a5.21 5.21 0 0 0-1.411.705 4.81 4.81 0 0 0-1.77 2.343 4.511 4.511 0 0 0 0 2.9 10.89 10.89 0 0 0 1.53 2.978 11.589 11.589 0 0 0 9.39 4.697 12.083 12.083 0 0 0 3.7-.576 12.138 12.138 0 0 0 3.35-1.668c2-1.42 4.2-3.972 5.42-9.7m-3-.865a19.332 19.332 0 0 1-1 4.18 8.625 8.625 0 0 1-3.16 4.17 8.933 8.933 0 0 1-5.2 1.669 8.66 8.66 0 0 1-6.999-3.543 8.35 8.35 0 0 1-1.171-2.306 1.9 1.9 0 0 1 1.527-2.46 1.91 1.91 0 0 1 2.113 1.299c.144.448.36.87.64 1.25a4.821 4.821 0 0 0 3.91 1.986c.531 0 1.058-.084 1.561-.248a5.165 5.165 0 0 0 1.409-.695 5.335 5.335 0 0 0 2-2.303 4.836 4.836 0 0 0 .27-1.638 4.466 4.466 0 0 0-.21-1.41 10.982 10.982 0 0 0-1.8-2.92 11.537 11.537 0 0 0-9.38-4.706 13.03 13.03 0 0 0-3.84.388 12.045 12.045 0 0 0-3.36 1.539 9.638 9.638 0 0 0-4.35 5.927" id="Shape"/><path d="M191.572 8.733a8.643 8.643 0 0 1 3.15-4.18 9.147 9.147 0 0 1 5.2-1.658c3.728-.058 7.054 2.313 8.19 5.838.067.188.101.386.1.586a1.897 1.897 0 0 1-1.33 1.777 2.011 2.011 0 0 1-.59.09 1.9 1.9 0 0 1-1.82-1.321 4.575 4.575 0 0 0-.63-1.251 4.83 4.83 0 0 0-3.92-1.986 5.216 5.216 0 0 0-2.97.953 4.81 4.81 0 0 0-1.77 2.343 4.511 4.511 0 0 0 0 2.9 10.89 10.89 0 0 0 1.53 2.978 11.589 11.589 0 0 0 9.39 4.697 12.078 12.078 0 0 0 3.7-.576 12.124 12.124 0 0 0 3.35-1.668c2-1.42 4.21-3.972 5.42-9.7m-3-.865a19.333 19.333 0 0 1-1 4.18 8.62 8.62 0 0 1-3.16 4.17 8.933 8.933 0 0 1-5.2 1.669 8.658 8.658 0 0 1-6.998-3.543 8.327 8.327 0 0 1-1.172-2.306 2.006 2.006 0 0 1-.09-.585 1.92 1.92 0 0 1 1.33-1.807 1.918 1.918 0 0 1 2.41 1.231c.141.448.354.87.63 1.25a4.832 4.832 0 0 0 3.92 1.986 5.119 5.119 0 0 0 1.561-.248c.499-.16.97-.395 1.399-.695a5.322 5.322 0 0 0 2-2.303 4.836 4.836 0 0 0 .27-1.638 4.41 4.41 0 0 0-.21-1.41 10.982 10.982 0 0 0-1.8-2.92 11.536 11.536 0 0 0-9.38-4.706 12.93 12.93 0 0 0-3.83.388 12.063 12.063 0 0 0-3.37 1.538 9.64 9.64 0 0 0-4.31 5.928M110.837 9.23a8.69 8.69 0 0 1 5.64-5.411 8.931 8.931 0 0 1 2.72-.427c3.723-.054 7.044 2.316 8.18 5.838.066.188.1.386.1.586a1.9 1.9 0 0 1-1.92 1.866 1.918 1.918 0 0 1-1.83-1.29 4.632 4.632 0 0 0-.63-1.252 4.833 4.833 0 0 0-3.92-1.985 5.03 5.03 0 0 0-1.55.248 5.11 5.11 0 0 0-1.42.705 4.861 4.861 0 0 0-1.77 2.343 4.5 4.5 0 0 0 0 2.9 10.902 10.902 0 0 0 1.53 2.978 11.586 11.586 0 0 0 9.39 4.696 12.08 12.08 0 0 0 3.67-.496 12.14 12.14 0 0 0 3.35-1.668c2-1.42 4.21-3.972 5.42-9.7m-3.001-.864a19.334 19.334 0 0 1-1 4.18 8.6 8.6 0 0 1-3.15 4.17 9.276 9.276 0 0 1-2.47 1.241 9.056 9.056 0 0 1-2.73.427 8.682 8.682 0 0 1-7-3.544 8.353 8.353 0 0 1-1.16-2.304 1.672 1.672 0 0 1-.1-.586 1.918 1.918 0 0 1 1.33-1.807c.191-.059.39-.089.59-.09.832 0 1.568.535 1.82 1.322.141.447.354.87.63 1.25a4.833 4.833 0 0 0 3.92 1.986c.529 0 1.056-.084 1.559-.248a5.984 5.984 0 0 0 3.431-2.979c.183-.55.271-1.128.26-1.708a4.443 4.443 0 0 0-.22-1.41 10.893 10.893 0 0 0-1.78-2.899 11.567 11.567 0 0 0-9.39-4.706 12.93 12.93 0 0 0-3.83.387 12.05 12.05 0 0 0-3.37 1.54 9.67 9.67 0 0 0-4.3 5.847" id="Shape"/><path d="M137.702 8.733a8.65 8.65 0 0 1 3.16-4.18 8.621 8.621 0 0 1 2.48-1.231 8.933 8.933 0 0 1 2.72-.427 8.65 8.65 0 0 1 6.999 3.534 8.63 8.63 0 0 1 1.171 2.304c.058.19.088.387.09.586a1.899 1.899 0 0 1-1.31 1.777 2.016 2.016 0 0 1-.58.09 1.918 1.918 0 0 1-1.8-1.291 4.633 4.633 0 0 0-.63-1.252 4.833 4.833 0 0 0-3.92-1.985 5.03 5.03 0 0 0-1.55.248 4.905 4.905 0 0 0-1.41.705 4.83 4.83 0 0 0-1.78 2.343 4.5 4.5 0 0 0 0 2.9 10.673 10.673 0 0 0 1.54 2.978 11.557 11.557 0 0 0 9.38 4.696 12.075 12.075 0 0 0 3.698-.575 12.34 12.34 0 0 0 3.362-1.669c2-1.42 4.2-3.971 5.41-9.7m-3-.864a19.452 19.452 0 0 1-1 4.18 8.611 8.611 0 0 1-3.15 4.17 9.285 9.285 0 0 1-2.47 1.241 9.066 9.066 0 0 1-2.73.427 8.68 8.68 0 0 1-7-3.544 8.298 8.298 0 0 1-1.16-2.304 1.645 1.645 0 0 1-.09-.586 1.906 1.906 0 0 1 1.32-1.807 2 2 0 0 1 .59-.089 1.91 1.91 0 0 1 1.82 1.32c.14.449.353.871.63 1.252a4.83 4.83 0 0 0 3.92 1.985c.531 0 1.057-.084 1.561-.248a5.99 5.99 0 0 0 3.429-2.979 5.157 5.157 0 0 0 .27-1.638 4.779 4.779 0 0 0-.21-1.41 11.264 11.264 0 0 0-1.8-2.919 11.567 11.567 0 0 0-9.39-4.706 12.926 12.926 0 0 0-3.83.387 12.102 12.102 0 0 0-3.37 1.54 9.662 9.662 0 0 0-4.3 5.847M56.9 8.733a8.654 8.654 0 0 1 3.16-4.18 8.635 8.635 0 0 1 2.481-1.231 8.977 8.977 0 0 1 2.72-.427 8.64 8.64 0 0 1 7 3.534c.508.703.902 1.48 1.17 2.304.058.19.089.387.09.586a1.898 1.898 0 0 1-1.31 1.777 2.015 2.015 0 0 1-.58.09 1.899 1.899 0 0 1-1.82-1.321 4.622 4.622 0 0 0-.64-1.251 4.81 4.81 0 0 0-3.91-1.986 5.032 5.032 0 0 0-1.54.308c-.505.159-.98.397-1.41.705a4.889 4.889 0 0 0-1.78 2.343c-.32.94-.32 1.959 0 2.899a10.95 10.95 0 0 0 1.54 2.979 11.567 11.567 0 0 0 9.38 4.696 12.08 12.08 0 0 0 3.65-.526 12.276 12.276 0 0 0 3.35-1.668c2-1.42 4.2-3.972 5.42-9.7m-3-.865a19.36 19.36 0 0 1-1 4.18 8.684 8.684 0 0 1-3.15 4.17 9.281 9.281 0 0 1-2.47 1.242 9.06 9.06 0 0 1-2.73.427 8.65 8.65 0 0 1-7-3.545 8.084 8.084 0 0 1-1.17-2.303c-.06-.19-.09-.388-.09-.586a1.928 1.928 0 0 1 1.32-1.807c.191-.058.39-.089.59-.09.832 0 1.568.534 1.82 1.321.144.449.36.87.64 1.25a4.81 4.81 0 0 0 3.91 1.987 5.03 5.03 0 0 0 1.559-.248 5.987 5.987 0 0 0 3.43-2.98c.18-.527.27-1.08.27-1.637a4.766 4.766 0 0 0-.21-1.41 11.249 11.249 0 0 0-1.87-2.97A11.557 11.557 0 0 0 65.33.096a12.958 12.958 0 0 0-3.83.387 11.93 11.93 0 0 0-3.36 1.539 9.636 9.636 0 0 0-4.31 5.848" id="Shape"/><path d="M83.831 8.733a8.714 8.714 0 0 1 3.16-4.18 9.044 9.044 0 0 1 5.2-1.658 8.64 8.64 0 0 1 7 3.534c.508.703.903 1.48 1.17 2.304.059.19.089.387.09.586a1.888 1.888 0 0 1-1.89 1.866 1.899 1.899 0 0 1-1.82-1.32 4.625 4.625 0 0 0-.64-1.251 4.81 4.81 0 0 0-3.91-1.986 5.204 5.204 0 0 0-2.97.953 4.679 4.679 0 0 0-1.82 5.242 11.25 11.25 0 0 0 1.54 2.98 11.588 11.588 0 0 0 9.39 4.695 12.084 12.084 0 0 0 3.7-.575 12.278 12.278 0 0 0 3.35-1.668c2-1.42 4.2-3.972 5.42-9.7m-3-.864a19.332 19.332 0 0 1-1 4.18 8.677 8.677 0 0 1-3.16 4.17 8.933 8.933 0 0 1-5.2 1.668 8.65 8.65 0 0 1-7-3.545 8.081 8.081 0 0 1-1.17-2.303 1.9 1.9 0 0 1 1.526-2.46 1.911 1.911 0 0 1 2.114 1.298c.144.449.36.871.64 1.251a4.81 4.81 0 0 0 3.91 1.986c.529 0 1.056-.084 1.559-.248.504-.159.98-.393 1.411-.695a5.398 5.398 0 0 0 2-2.304c.169-.51.257-1.042.26-1.579a4.746 4.746 0 0 0-.21-1.41 10.981 10.981 0 0 0-1.8-2.919 11.546 11.546 0 0 0-9.38-4.706 13.03 13.03 0 0 0-3.84.387 12.04 12.04 0 0 0-3.36 1.54 9.636 9.636 0 0 0-4.31 5.847M3 8.759c1.276-3.496 4.615-5.827 8.36-5.838 3.727-.058 7.054 2.313 8.19 5.838.068.187.099.386.09.586a1.878 1.878 0 0 1-1.32 1.777c-.191.059-.39.089-.59.09a1.899 1.899 0 0 1-1.82-1.321 4.603 4.603 0 0 0-.63-1.251 4.831 4.831 0 0 0-3.92-1.986 5.205 5.205 0 0 0-2.97.953A4.809 4.809 0 0 0 6.62 9.95a4.5 4.5 0 0 0 0 2.9c.353 1.065.869 2.07 1.53 2.978a11.588 11.588 0 0 0 9.39 4.697 12.082 12.082 0 0 0 3.66-.467 12.132 12.132 0 0 0 3.35-1.668c2-1.42 4.2-3.972 5.42-9.7m-3-.864a19.381 19.381 0 0 1-1 4.18 8.624 8.624 0 0 1-3.16 4.17 8.933 8.933 0 0 1-5.2 1.668 8.66 8.66 0 0 1-7-3.545 8.345 8.345 0 0 1-1.17-2.303 1.9 1.9 0 0 1 1.527-2.46 1.91 1.91 0 0 1 2.113 1.298c.15.46.377.894.67 1.28a4.83 4.83 0 0 0 3.92 1.986 5.115 5.115 0 0 0 1.56-.248c.499-.16.971-.395 1.4-.695a5.333 5.333 0 0 0 2-2.303 4.836 4.836 0 0 0 .27-1.638 4.458 4.458 0 0 0-.21-1.41 10.987 10.987 0 0 0-1.8-2.92A11.537 11.537 0 0 0 11.51.18a13.03 13.03 0 0 0-3.84.388 12.04 12.04 0 0 0-3.36 1.539A9.636 9.636 0 0 0 0 7.955" id="Shape"/><path d="M29.97 8.733a8.635 8.635 0 0 1 3.15-4.18 9.144 9.144 0 0 1 5.2-1.658c3.728-.058 7.054 2.313 8.19 5.838.067.188.1.386.1.586a1.898 1.898 0 0 1-1.33 1.777c-.19.059-.39.089-.59.09a1.899 1.899 0 0 1-1.82-1.321 4.603 4.603 0 0 0-.63-1.251 4.831 4.831 0 0 0-3.92-1.986 5.031 5.031 0 0 0-1.57.308c-.503.162-.978.4-1.41.705a4.868 4.868 0 0 0-1.77 2.343 4.51 4.51 0 0 0 0 2.899 10.92 10.92 0 0 0 1.53 2.979 11.588 11.588 0 0 0 9.39 4.696 12.079 12.079 0 0 0 3.67-.526 12.134 12.134 0 0 0 3.35-1.668c2-1.42 4.21-3.972 5.42-9.7m-3-.865a19.392 19.392 0 0 1-1 4.18 8.625 8.625 0 0 1-3.18 4.17 8.934 8.934 0 0 1-5.2 1.669 8.66 8.66 0 0 1-7-3.545 8.348 8.348 0 0 1-1.17-2.303 1.98 1.98 0 0 1-.09-.586 1.918 1.918 0 0 1 1.33-1.807c.191-.06.39-.09.59-.09.832 0 1.568.534 1.82 1.321.141.448.354.87.63 1.25a4.83 4.83 0 0 0 3.92 1.987 5.111 5.111 0 0 0 1.56-.248c.503-.17.978-.41 1.41-.715a5.314 5.314 0 0 0 2-2.304c.187-.526.282-1.08.28-1.638a4.471 4.471 0 0 0-.22-1.41 10.99 10.99 0 0 0-1.8-2.92A11.537 11.537 0 0 0 38.43.106a12.929 12.929 0 0 0-3.83.387 12.04 12.04 0 0 0-3.37 1.539 9.676 9.676 0 0 0-4.31 5.848" id="Shape"/></g></svg>