<svg xmlns="http://www.w3.org/2000/svg" width="459.547" height="28.737"><g fill="none" stroke="#99b9af" stroke-miterlimit="10" stroke-width=".5"><path data-name="Path 2" d="M456.329 17.107c-.59 2.71-22 16.54-45.59-1.92 5.49.18 13.07-.08 13.07-.08 12.64 14 29.66 3.95 30.23 1.94a1.5 1.5 0 0 1-1.19-1.56c.19-2.86 3.35-2.41 3.35-2.41s4.7.54 2.5 5.71c-8.13 12.68-37.02 10.4-63.2 7.26"/><path data-name="Path 3" d="M456.329 17.107c.17 3.1-7.32 8-18.78 8.76-6 .39-17.31 1.21-38.71-1.25"/><path data-name="Path 4" d="M377.199 11.377c.58-2.71 22-16.53 45.58 1.93-5.48-.18-13.06.08-13.06.08-12.65-14-29.66-3.95-30.24-1.94a1.46 1.46 0 0 1 1.19 1.56c-.18 2.86-3.35 2.4-3.35 2.4s-4.69-.54-2.49-5.71c8.16-12.68 38.33-9.65 66.5-7.82"/><path data-name="Path 5" d="M377.199 11.377c-.17-3.09 7.31-8 18.77-8.76 6-.39 14.58-1.1 41.11.77"/><path data-name="Path 6" d="M403.199 17.107c-.59 2.71-22 16.54-45.59-1.92 5.48.18 13.06-.08 13.06-.08 12.66 14.02 29.66 3.95 30.24 1.94a1.48 1.48 0 0 1-1.19-1.56c.18-2.86 3.35-2.41 3.35-2.41s4.7.54 2.49 5.71c-8.16 12.68-37.05 10.4-63.23 7.26"/><path data-name="Path 7" d="M403.199 17.107c.16 3.1-7.32 8-18.78 8.76-6 .39-17.31 1.21-38.71-1.25"/><path data-name="Path 8" d="M324.019 11.377c.59-2.71 22-16.53 45.59 1.93-5.49-.18-13.06.08-13.06.08-12.65-14-29.67-3.95-30.24-1.94a1.47 1.47 0 0 1 1.19 1.56c-.18 2.86-3.35 2.4-3.35 2.4s-4.7-.54-2.5-5.71c8.17-12.68 38.34-9.65 66.47-7.82"/><path data-name="Path 9" d="M324.019 11.377c-.17-3.09 7.32-8 18.78-8.76 6-.39 14.58-1.1 41.1.77"/><path data-name="Path 10" d="M349.429 17.107c-.58 2.71-22 16.54-45.58-1.92 5.48.18 13.06-.08 13.06-.08 12.65 14 29.66 3.95 30.24 1.94a1.48 1.48 0 0 1-1.19-1.56c.18-2.86 3.35-2.41 3.35-2.41s4.7.54 2.49 5.71c-8.16 12.68-37.05 10.37-63.23 7.26"/><path data-name="Path 11" d="M349.429 17.107c.17 3.1-7.31 8-18.77 8.76-6 .39-17.31 1.21-38.71-1.25"/><path data-name="Path 12" d="M270.259 11.377c.59-2.71 22-16.53 45.59 1.93-5.49-.18-13.06.08-13.06.08-12.65-14-29.67-3.95-30.24-1.94a1.47 1.47 0 0 1 1.19 1.56c-.19 2.86-3.35 2.4-3.35 2.4s-4.7-.54-2.5-5.71c8.17-12.68 38.34-9.65 66.47-7.82"/><path data-name="Path 13" d="M270.259 11.377c-.17-3.09 7.32-8 18.78-8.76 6-.39 14.58-1.1 41.1.77"/><path data-name="Path 14" d="M296.259 17.107c-.59 2.71-22 16.54-45.59-1.92 5.49.18 13.07-.08 13.07-.08 12.64 14 29.66 3.95 30.23 1.94a1.5 1.5 0 0 1-1.19-1.56c.19-2.86 3.35-2.41 3.35-2.41s4.7.54 2.5 5.71c-8.17 12.68-37.05 10.37-63.24 7.26"/><path data-name="Path 15" d="M296.259 17.107c.17 3.1-7.32 8-18.78 8.76-6 .39-17.31 1.21-38.7-1.25"/><path data-name="Path 16" d="M217.089 11.377c.58-2.71 22-16.53 45.58 1.93-5.48-.18-13.06.08-13.06.08-12.65-14-29.66-3.95-30.24-1.94a1.46 1.46 0 0 1 1.19 1.56c-.18 2.86-3.35 2.4-3.35 2.4s-4.69-.54-2.49-5.71c8.16-12.68 38.33-9.65 66.47-7.82"/><path data-name="Path 17" d="M217.089 11.377c-.17-3.09 7.32-8 18.77-8.76 6-.39 14.59-1.1 41.11.77"/><path data-name="Path 18" d="M242.499 17.107c-.59 2.71-22 16.54-45.59-1.92 5.49.18 13.06-.08 13.06-.08 12.65 14 29.67 3.95 30.24 1.94a1.49 1.49 0 0 1-1.19-1.56c.19-2.86 3.35-2.41 3.35-2.41s4.7.54 2.5 5.71c-8.17 12.68-37.06 10.37-63.24 7.26"/><path data-name="Path 19" d="M242.499 17.107c.17 3.1-7.32 8-18.78 8.76-6 .39-17.31 1.21-38.71-1.25"/><path data-name="Path 20" d="M163.329 11.377c.58-2.71 22-16.53 45.58 1.93-5.48-.18-13.06.08-13.06.08-12.65-14-29.66-3.95-30.24-1.94a1.46 1.46 0 0 1 1.19 1.56c-.18 2.86-3.35 2.4-3.35 2.4s-4.69-.54-2.49-5.71c8.16-12.68 38.33-9.65 66.46-7.82"/><path data-name="Path 21" d="M163.329 11.377c-.17-3.09 7.31-8 18.77-8.76 6-.39 14.58-1.1 41.11.77"/><path data-name="Path 22" d="M189.329 17.107c-.58 2.71-22 16.54-45.58-1.92 5.48.18 13.06-.08 13.06-.08 12.65 14 29.66 3.95 30.24 1.94a1.48 1.48 0 0 1-1.19-1.56c.18-2.86 3.35-2.41 3.35-2.41s4.7.54 2.49 5.71c-8.16 12.68-37.05 10.37-63.23 7.26"/><path data-name="Path 23" d="M189.329 17.107c.17 3.1-7.31 8-18.77 8.76-6 .39-17.31 1.21-38.71-1.25"/><path data-name="Path 24" d="M110.149 11.377c.59-2.71 22-16.53 45.59 1.93-5.49-.18-13.06.08-13.06.08-12.65-14-29.67-3.95-30.24-1.94a1.47 1.47 0 0 1 1.19 1.56c-.18 2.86-3.35 2.4-3.35 2.4s-4.7-.54-2.5-5.71c8.17-12.68 38.34-9.65 66.47-7.82"/><path data-name="Path 25" d="M110.149 11.377c-.17-3.09 7.32-8 18.78-8.76 6-.39 14.58-1.1 41.1.77"/><path data-name="Path 26" d="M135.559 17.107c-.58 2.71-22 16.54-45.58-1.92 5.48.18 13.06-.08 13.06-.08 12.65 14 29.66 3.95 30.24 1.94a1.48 1.48 0 0 1-1.19-1.56c.18-2.86 3.35-2.41 3.35-2.41s4.7.54 2.49 5.71c-8.16 12.68-37.05 10.37-63.23 7.26"/><path data-name="Path 27" d="M135.559 17.107c.17 3.1-7.31 8-18.77 8.76-6 .39-17.31 1.21-38.71-1.25"/><path data-name="Path 28" d="M56.389 11.377c.59-2.71 22-16.53 45.59 1.93-5.49-.18-13.06.08-13.06.08-12.65-14-29.67-3.95-30.24-1.94a1.47 1.47 0 0 1 1.19 1.56c-.19 2.86-3.35 2.4-3.35 2.4s-4.7-.54-2.5-5.71c8.17-12.68 38.34-9.65 66.47-7.82"/><path data-name="Path 29" d="M56.389 11.377c-.17-3.09 7.32-8 18.78-8.76 6-.39 14.58-1.1 41.1.77"/><path data-name="Path 30" d="M82.389 17.107c-.59 2.71-22 16.54-45.59-1.92 5.49.18 13.07-.08 13.07-.08 12.64 14 29.66 3.95 30.23 1.94a1.5 1.5 0 0 1-1.19-1.56c.19-2.86 3.35-2.41 3.35-2.41s4.7.54 2.5 5.71c-8.17 12.68-37.06 10.37-63.24 7.26"/><path data-name="Path 31" d="M82.389 17.107c.17 3.1-7.32 8-18.78 8.76-6 .39-17.31 1.21-38.71-1.25"/><path data-name="Path 32" d="M3.219 11.377c.58-2.71 22-16.53 45.58 1.93-5.48-.18-13.06.08-13.06.08-12.65-14-29.66-3.95-30.24-1.94a1.46 1.46 0 0 1 1.19 1.56c-.18 2.86-3.35 2.4-3.35 2.4s-4.69-.54-2.49-5.71c8.16-12.68 38.33-9.65 66.46-7.82"/><path data-name="Path 33" d="M3.219 11.377c-.17-3.09 7.31-8 18.77-8.76 6-.39 14.58-1.1 41.11.77"/></g></svg>