<svg id="Layer_1" data-name="Layer 1" xmlns="http://www.w3.org/2000/svg" viewBox="0 0 127.08 479.16"><defs><style>.cls-1{fill:none;stroke:#fff;stroke-miterlimit:10;stroke-width:.5px}</style></defs><path class="cls-1" d="M12.93 288.61l8.23 15.26a3.22 3.22 0 0 1 .35 1.94 3.36 3.36 0 0 1-2.24 2.57l1.6 3a6.41 6.41 0 0 0 4.4-5 6 6 0 0 0-.67-3.7l-8.2-15.2"/><path class="cls-1" d="M20.2 286.1l8.25 15.32a8.79 8.79 0 0 1 1 5.43 9.41 9.41 0 0 1-6.68 7.4l-.34.12 1.6 3 .33-.11c5-1.69 8.22-5.49 8.86-9.82a11.73 11.73 0 0 0-1.31-7.19l-8.29-15.35m-9.98 40.98l-8.33-15.46A11.73 11.73 0 0 1 4 303.18c.64-4.35 3.85-8.17 8.91-9.87l.34-.11 1.6 3-.34.11a9.48 9.48 0 0 0-6.72 7.45 8.88 8.88 0 0 0 1 5.46l8.3 15.41"/><path class="cls-1" d="M20.89 323.25L12.65 308a6.05 6.05 0 0 1-.68-3.73 6.46 6.46 0 0 1 4.43-5l1.6 2.99a3.36 3.36 0 0 0-2.25 2.59 3.19 3.19 0 0 0 .35 1.95l8.29 15.35m-12.15-70.69l8.23 15.26a3.16 3.16 0 0 1 .36 1.94 3.36 3.36 0 0 1-2.24 2.57l1.59 3a6.39 6.39 0 0 0 4.41-5 6 6 0 0 0-.67-3.7l-8.2-15.2"/><path class="cls-1" d="M19.52 249l8.25 15.32a8.79 8.79 0 0 1 1 5.43 9.45 9.45 0 0 1-6.68 7.41l-.34.11 1.59 3 .34-.11c5-1.69 8.21-5.49 8.85-9.81a11.6 11.6 0 0 0-1.31-7.2l-8.27-15.37M13 288.73l-8.37-15.45A11.71 11.71 0 0 1 3.31 266c.64-4.34 3.85-8.17 8.9-9.87l.33-.11 1.61 3-.34.11a9.49 9.49 0 0 0-6.72 7.45 8.8 8.8 0 0 0 1 5.46l8.3 15.41"/><path class="cls-1" d="M20.21 286.1L12 270.81a6 6 0 0 1-.68-3.73 6.44 6.44 0 0 1 4.43-5l1.61 3.06a3.34 3.34 0 0 0-2.25 2.58 3.12 3.12 0 0 0 .35 1.95L23.71 285m-12.04-70.55l8.23 15.26a3.13 3.13 0 0 1 .36 1.93 3.34 3.34 0 0 1-2.26 2.57l1.59 3a6.4 6.4 0 0 0 4.41-5 6.05 6.05 0 0 0-.67-3.71l-8.2-15.2"/><path class="cls-1" d="M19 211.94l8.25 15.32a8.75 8.75 0 0 1 1 5.42 9.45 9.45 0 0 1-6.68 7.41l-.34.11 1.59 3 .34-.11c5-1.69 8.21-5.49 8.85-9.81a11.62 11.62 0 0 0-1.31-7.2l-8.27-15.36m-10.05 40.99l-8.32-15.45A11.69 11.69 0 0 1 2.74 229c.64-4.35 3.85-8.18 8.9-9.88L12 219l1.6 3-.33.12a9.48 9.48 0 0 0-6.72 7.45 8.83 8.83 0 0 0 1 5.46l8.3 15.41"/><path class="cls-1" d="M19.64 249.09l-8.24-15.3a6 6 0 0 1-.68-3.72 6.43 6.43 0 0 1 4.43-5l1.61 3a3.34 3.34 0 0 0-2.25 2.58 3.11 3.11 0 0 0 .35 1.95l8.28 15.4M11 177.3l8.23 15.26a3.13 3.13 0 0 1 .35 1.93 3.31 3.31 0 0 1-2.24 2.57l1.6 3a6.43 6.43 0 0 0 4.41-5 6.06 6.06 0 0 0-.68-3.71l-8.19-15.2"/><path class="cls-1" d="M18.27 174.79l8.25 15.32a8.85 8.85 0 0 1 1 5.43 9.42 9.42 0 0 1-6.69 7.4l-.33.11 1.59 3 .34-.12c5-1.68 8.21-5.49 8.85-9.81A11.77 11.77 0 0 0 30 189l-8.28-15.36M11.7 214.57l-8.33-15.46a11.82 11.82 0 0 1-1.32-7.24C2.7 187.52 5.9 183.7 11 182l.34-.12 1.6 3.05-.34.11a9.51 9.51 0 0 0-6.72 7.45 8.82 8.82 0 0 0 1 5.46l8.3 15.41"/><path class="cls-1" d="M19 211.94l-8.25-15.29a6 6 0 0 1-.67-3.73 6.44 6.44 0 0 1 4.43-5l1.6 3a3.37 3.37 0 0 0-2.25 2.59 3.16 3.16 0 0 0 .36 1.94l8.28 15.36M11 141.43l8.23 15.26a3.13 3.13 0 0 1 .35 1.93 3.31 3.31 0 0 1-2.24 2.57l1.6 3a6.4 6.4 0 0 0 4.41-5 6.06 6.06 0 0 0-.68-3.71l-8.19-15.2"/><path class="cls-1" d="M18.27 138.92l8.25 15.32a8.85 8.85 0 0 1 1 5.43 9.44 9.44 0 0 1-6.69 7.4l-.33.11 1.59 3 .34-.12c5-1.69 8.21-5.49 8.85-9.81a11.76 11.76 0 0 0-1.31-7.2l-8.28-15.36M11.7 178.7l-8.33-15.46A11.83 11.83 0 0 1 2.05 156c.65-4.35 3.85-8.18 8.91-9.87l.34-.12 1.6 3-.34.12a9.51 9.51 0 0 0-6.72 7.45 8.82 8.82 0 0 0 1 5.46l8.3 15.41"/><path class="cls-1" d="M19 176.07l-8.25-15.3a6 6 0 0 1-.67-3.72 6.43 6.43 0 0 1 4.43-5l1.6 3.05a3.35 3.35 0 0 0-2.25 2.59 3.16 3.16 0 0 0 .36 1.94L22.46 175m-12.15-70.72l8.23 15.26a3.2 3.2 0 0 1 .35 1.93 3.34 3.34 0 0 1-2.24 2.58l1.6 3a6.41 6.41 0 0 0 4.4-5 6 6 0 0 0-.67-3.7l-8.2-15.21"/><path class="cls-1" d="M17.58 101.77l8.26 15.32a8.86 8.86 0 0 1 1 5.43 9.41 9.41 0 0 1-6.68 7.4l-.33.12 1.59 3 .33-.11c5-1.69 8.22-5.5 8.86-9.82a11.77 11.77 0 0 0-1.31-7.2L21 100.57m-10 40.98l-8.31-15.46a11.82 11.82 0 0 1-1.32-7.24c.64-4.35 3.85-8.17 8.91-9.87l.34-.12 1.6 3-.34.11a9.48 9.48 0 0 0-6.72 7.45 8.88 8.88 0 0 0 1 5.46l8.31 15.41"/><path class="cls-1" d="M18.28 138.92L10 123.63a6.05 6.05 0 0 1-.68-3.73 6.45 6.45 0 0 1 4.44-5l1.6 3.05a3.35 3.35 0 0 0-2.25 2.59 3.19 3.19 0 0 0 .35 2l8.29 15.35M9.74 67.26L18 82.52a3.22 3.22 0 0 1 .35 1.94A3.34 3.34 0 0 1 16.08 87l1.6 3a6.4 6.4 0 0 0 4.4-5 6 6 0 0 0-.67-3.7l-8.2-15.2"/><path class="cls-1" d="M17 64.75l8.26 15.32a8.86 8.86 0 0 1 1 5.43 9.44 9.44 0 0 1-6.68 7.41l-.33.11 1.59 3 .33-.11c5-1.69 8.22-5.49 8.86-9.81a11.74 11.74 0 0 0-1.31-7.2l-8.29-15.35m-9.98 40.98L2.12 89.08A11.85 11.85 0 0 1 .8 81.83c.64-4.34 3.85-8.17 8.91-9.87l.34-.11 1.6 3-.34.11a9.49 9.49 0 0 0-6.72 7.45 8.87 8.87 0 0 0 1 5.46l8.31 15.41"/><path class="cls-1" d="M17.7 101.9L9.46 86.61a6.05 6.05 0 0 1-.68-3.73 6.46 6.46 0 0 1 4.43-5l1.61 3.06a3.34 3.34 0 0 0-2.25 2.58 3.19 3.19 0 0 0 .35 2l8.29 15.35M9.05 30.12l8.23 15.26a3.13 3.13 0 0 1 .36 1.93 3.34 3.34 0 0 1-2.24 2.57l1.59 3a6.4 6.4 0 0 0 4.41-5 6 6 0 0 0-.67-3.71L12.53 29"/><path class="cls-1" d="M16.33 27.61l8.25 15.31a8.79 8.79 0 0 1 1 5.43 9.45 9.45 0 0 1-6.68 7.41l-.34.11 1.59 3 .34-.11c5-1.69 8.21-5.49 8.85-9.81A11.62 11.62 0 0 0 28 41.77L19.75 26.4M9.76 67.38L1.44 51.93a11.69 11.69 0 0 1-1.32-7.24C.76 40.34 4 36.51 9 34.81l.33-.11 1.61 3-.34.12a9.48 9.48 0 0 0-6.69 7.48 8.92 8.92 0 0 0 1 5.47l8.3 15.41"/><path class="cls-1" d="M17 64.75L8.78 49.46a6 6 0 0 1-.68-3.73 6.43 6.43 0 0 1 4.43-5l1.61 3.05a3.34 3.34 0 0 0-2.25 2.58 3.11 3.11 0 0 0 .35 1.95l8.28 15.35m-5.08 373.25l8.23 15.26a3.22 3.22 0 0 1 .35 1.94 3.36 3.36 0 0 1-2.24 2.57l1.6 3a6.41 6.41 0 0 0 4.4-5 6 6 0 0 0-.67-3.7l-8.2-15.21"/><path class="cls-1" d="M22.71 434.4L31 449.72a8.86 8.86 0 0 1 1 5.43 9.41 9.41 0 0 1-6.68 7.4l-.33.12 1.59 3 .33-.11c5-1.69 8.22-5.5 8.86-9.82a11.77 11.77 0 0 0-1.31-7.2l-8.33-15.34m-9.98 40.98l-8.33-15.46a11.8 11.8 0 0 1-1.32-7.24c.64-4.35 3.85-8.17 8.91-9.87l.34-.11 1.6 3-.34.11a9.48 9.48 0 0 0-6.72 7.45 8.88 8.88 0 0 0 1 5.46L19.58 473"/><path class="cls-1" d="M23.4 471.55l-8.24-15.29a6.05 6.05 0 0 1-.68-3.73 6.46 6.46 0 0 1 4.43-5l1.61 3.05a3.36 3.36 0 0 0-2.25 2.59 3.19 3.19 0 0 0 .35 2l8.29 15.35m-12.16-70.76L23 415a3.16 3.16 0 0 1 .36 1.94 3.36 3.36 0 0 1-2.24 2.57l1.59 3a6.39 6.39 0 0 0 4.41-5 6 6 0 0 0-.67-3.7l-8.2-15.2"/><path class="cls-1" d="M22 397.25l8.25 15.32a8.79 8.79 0 0 1 1 5.43 9.45 9.45 0 0 1-6.68 7.41l-.34.11 1.59 3 .34-.11c5-1.69 8.21-5.49 8.85-9.81a11.6 11.6 0 0 0-1.31-7.2l-8.27-15.37M15.46 437l-8.32-15.42a11.71 11.71 0 0 1-1.32-7.25c.64-4.34 3.85-8.17 8.91-9.87l.33-.11 1.61 3-.34.11A9.49 9.49 0 0 0 9.61 415a8.87 8.87 0 0 0 1 5.46l8.3 15.41"/><path class="cls-1" d="M22.72 434.4l-8.24-15.29a6.05 6.05 0 0 1-.68-3.73 6.44 6.44 0 0 1 4.43-5l1.61 3.06a3.34 3.34 0 0 0-2.25 2.56 3.12 3.12 0 0 0 .35 1.95l8.28 15.35m-12.04-70.55L22.41 378a3.13 3.13 0 0 1 .36 1.93 3.34 3.34 0 0 1-2.24 2.57l1.59 3a6.4 6.4 0 0 0 4.41-5 6.05 6.05 0 0 0-.67-3.71l-8.2-15.2"/><path class="cls-1" d="M21.46 360.24l8.25 15.31a8.79 8.79 0 0 1 1 5.43 9.45 9.45 0 0 1-6.71 7.41l-.34.11 1.59 3 .34-.11c5-1.69 8.21-5.49 8.85-9.81a11.62 11.62 0 0 0-1.31-7.2L24.88 359m-9.99 41l-8.32-15.44a11.69 11.69 0 0 1-1.32-7.24c.64-4.35 3.85-8.18 8.91-9.88l.33-.11 1.61 3-.34.12A9.48 9.48 0 0 0 9 377.93a8.85 8.85 0 0 0 1 5.47l8.3 15.41"/><path class="cls-1" d="M22.15 397.38l-8.24-15.29a6 6 0 0 1-.68-3.73 6.43 6.43 0 0 1 4.43-5l1.61 3A3.34 3.34 0 0 0 17 379a3.11 3.11 0 0 0 .35 1.95l8.28 15.35M13.5 325.6l8.23 15.26a3.06 3.06 0 0 1 .35 1.93 3.31 3.31 0 0 1-2.24 2.57l1.6 3a6.43 6.43 0 0 0 4.41-5 6.06 6.06 0 0 0-.68-3.71L17 324.5"/><path class="cls-1" d="M20.78 323.09L29 338.41a8.85 8.85 0 0 1 1 5.43 9.44 9.44 0 0 1-6.69 7.4l-.33.11 1.59 3 .34-.12c5-1.69 8.21-5.49 8.85-9.81a11.77 11.77 0 0 0-1.31-7.2l-8.28-15.36m-9.96 41.01l-8.33-15.46a11.74 11.74 0 0 1-1.31-7.24c.64-4.35 3.84-8.17 8.9-9.87l.34-.12 1.6 3-.34.12a9.51 9.51 0 0 0-6.72 7.45 8.82 8.82 0 0 0 1 5.46l8.3 15.41"/><path class="cls-1" d="M21.47 360.24L13.22 345a6.06 6.06 0 0 1-.67-3.73 6.43 6.43 0 0 1 4.43-5l1.61 3.05a3.35 3.35 0 0 0-2.26 2.59 3.16 3.16 0 0 0 .36 1.94L25 359.14m16.12-90.01l8.23 15.26a3.16 3.16 0 0 1 .36 1.94 3.36 3.36 0 0 1-2.24 2.57l1.59 3a6.39 6.39 0 0 0 4.41-5 6 6 0 0 0-.67-3.7L44.6 268"/><path class="cls-1" d="M48.4 266.62l8.25 15.32a8.79 8.79 0 0 1 1 5.43 9.43 9.43 0 0 1-6.68 7.4l-.34.12 1.59 3 .34-.11c5-1.69 8.22-5.49 8.85-9.82a11.59 11.59 0 0 0-1.31-7.19l-8.27-15.37m-10 41l-8.32-15.46a11.66 11.66 0 0 1-1.32-7.24c.64-4.35 3.85-8.17 8.91-9.87l.33-.11 1.61 3-.34.11a9.48 9.48 0 0 0-6.7 7.49 8.88 8.88 0 0 0 1 5.46l8.3 15.41"/><path class="cls-1" d="M49.09 303.77l-8.24-15.29a6.05 6.05 0 0 1-.68-3.73 6.44 6.44 0 0 1 4.43-5l1.61 3a3.36 3.36 0 0 0-2.21 2.62 3.12 3.12 0 0 0 .35 1.95l8.28 15.35M40.44 232l8.23 15.26a3.08 3.08 0 0 1 .35 1.94 3.33 3.33 0 0 1-2.23 2.57l1.59 3a6.41 6.41 0 0 0 4.41-5 6 6 0 0 0-.68-3.7l-8.19-15.2"/><path class="cls-1" d="M47.72 229.47L56 244.79a8.79 8.79 0 0 1 1 5.43 9.45 9.45 0 0 1-6.69 7.41l-.33.11 1.59 3 .34-.11c5-1.69 8.21-5.49 8.85-9.81a11.67 11.67 0 0 0-1.31-7.2l-8.28-15.37m-10.02 41l-8.33-15.45a11.77 11.77 0 0 1-1.31-7.25c.64-4.34 3.84-8.17 8.9-9.87l.34-.11 1.6 3-.33.11a9.53 9.53 0 0 0-6.73 7.45 8.88 8.88 0 0 0 1 5.46l8.3 15.41"/><path class="cls-1" d="M48.41 266.62l-8.25-15.29a6 6 0 0 1-.67-3.73 6.44 6.44 0 0 1 4.43-5l1.61 3.06a3.37 3.37 0 0 0-2.26 2.58 3.2 3.2 0 0 0 .36 1.95l8.28 15.35M39.87 195l8.23 15.26a3.05 3.05 0 0 1 .35 1.93 3.31 3.31 0 0 1-2.24 2.57l1.6 3a6.4 6.4 0 0 0 4.41-5 6.06 6.06 0 0 0-.68-3.71l-8.19-15.2"/><path class="cls-1" d="M47.15 192.46l8.25 15.32a8.83 8.83 0 0 1 1 5.42 9.45 9.45 0 0 1-6.69 7.41l-.33.11 1.59 3 .34-.12c5-1.69 8.21-5.49 8.85-9.81a11.76 11.76 0 0 0-1.31-7.2l-8.28-15.36m-9.99 41l-8.33-15.45a11.75 11.75 0 0 1-1.31-7.24c.64-4.35 3.84-8.18 8.9-9.88l.34-.11 1.6 3-.34.12a9.51 9.51 0 0 0-6.72 7.45 8.89 8.89 0 0 0 1 5.46L44 231"/><path class="cls-1" d="M47.84 229.61l-8.25-15.3a6 6 0 0 1-.67-3.72 6.43 6.43 0 0 1 4.43-5l1.65 3.03a3.35 3.35 0 0 0-2.26 2.58 3.18 3.18 0 0 0 .36 2l8.28 15.35m-12.19-70.73l8.23 15.26a3.13 3.13 0 0 1 .35 1.93 3.3 3.3 0 0 1-2.24 2.57l1.6 3a6.4 6.4 0 0 0 4.4-5 6 6 0 0 0-.67-3.71l-8.2-15.2"/><path class="cls-1" d="M46.46 155.31l8.26 15.32a8.84 8.84 0 0 1 1 5.43 9.41 9.41 0 0 1-6.68 7.4l-.33.11 1.59 3 .33-.12c5-1.68 8.22-5.49 8.86-9.81a11.77 11.77 0 0 0-1.31-7.2l-8.28-15.36m-10 41.01l-8.33-15.46a11.82 11.82 0 0 1-1.32-7.24c.64-4.35 3.85-8.17 8.91-9.87l.34-.12 1.6 3-.34.11A9.48 9.48 0 0 0 34 173a8.88 8.88 0 0 0 1 5.46l8.31 15.41"/><path class="cls-1" d="M47.16 192.46l-8.25-15.29a6.12 6.12 0 0 1-.68-3.73 6.45 6.45 0 0 1 4.44-5l1.6 3.05a3.37 3.37 0 0 0-2.27 2.57 3.16 3.16 0 0 0 .36 1.94l8.28 15.36M39.19 122l8.23 15.26a3.13 3.13 0 0 1 .35 1.93 3.31 3.31 0 0 1-2.24 2.57l1.6 3a6.4 6.4 0 0 0 4.4-5 6 6 0 0 0-.67-3.71l-8.2-15.2"/><path class="cls-1" d="M46.46 119.44l8.26 15.32a8.84 8.84 0 0 1 1 5.43 9.42 9.42 0 0 1-6.68 7.4l-.33.11 1.59 3 .33-.12c5-1.69 8.22-5.49 8.86-9.81a11.77 11.77 0 0 0-1.31-7.2l-8.28-15.36m-10 41.01l-8.33-15.46a11.82 11.82 0 0 1-1.32-7.24c.64-4.35 3.85-8.17 8.91-9.87l.34-.12 1.6 3-.34.12a9.48 9.48 0 0 0-6.76 7.49 8.88 8.88 0 0 0 1 5.46l8.34 15.4"/><path class="cls-1" d="M47.16 156.59l-8.25-15.29a6.14 6.14 0 0 1-.68-3.73 6.44 6.44 0 0 1 4.44-5l1.6 3a3.35 3.35 0 0 0-2.27 2.62 3.16 3.16 0 0 0 .36 1.94l8.28 15.36M38.5 84.8l8.24 15.26a3.22 3.22 0 0 1 .35 1.94 3.36 3.36 0 0 1-2.24 2.57l1.6 3a6.41 6.41 0 0 0 4.4-5 6 6 0 0 0-.67-3.7L42 83.7"/><path class="cls-1" d="M45.78 82.29L54 97.61a8.79 8.79 0 0 1 1 5.39 9.43 9.43 0 0 1-6.68 7.4l-.34.12 1.6 3 .33-.11c5-1.69 8.22-5.5 8.85-9.82a11.69 11.69 0 0 0-1.3-7.2l-8.26-15.3m-9.99 40.98l-8.32-15.46a11.73 11.73 0 0 1-1.32-7.24c.64-4.35 3.85-8.17 8.91-9.87l.33-.11 1.61 3-.34.11a9.48 9.48 0 0 0-6.72 7.5 8.88 8.88 0 0 0 1 5.46l8.3 15.41"/><path class="cls-1" d="M46.47 119.44l-8.24-15.29a6.05 6.05 0 0 1-.68-3.73 6.44 6.44 0 0 1 4.43-5l1.61 3a3.36 3.36 0 0 0-2.25 2.58 3.12 3.12 0 0 0 .35 1.95L50 118.34M37.93 47.78L46.17 63a3.22 3.22 0 0 1 .35 2 3.36 3.36 0 0 1-2.24 2.57l1.6 3a6.4 6.4 0 0 0 4.4-5 6 6 0 0 0-.67-3.7l-8.2-15.2"/><path class="cls-1" d="M45.21 45.27l8.25 15.32a8.79 8.79 0 0 1 1 5.43 9.45 9.45 0 0 1-6.68 7.41l-.34.11 1.59 3 .34-.11c5-1.69 8.22-5.49 8.85-9.81a11.6 11.6 0 0 0-1.31-7.2l-8.28-15.35m-9.99 40.98L30.32 69.6A11.71 11.71 0 0 1 29 62.35c.64-4.34 3.85-8.17 8.91-9.87l.33-.11 1.61 3-.34.11A9.49 9.49 0 0 0 32.79 63a8.87 8.87 0 0 0 1 5.46l8.3 15.41"/><path class="cls-1" d="M45.9 82.42l-8.24-15.29A6 6 0 0 1 37 63.4a6.44 6.44 0 0 1 4.43-5L43 61.44A3.34 3.34 0 0 0 40.77 64a3.12 3.12 0 0 0 .35 2l8.28 15.32M37.25 10.64l8.23 15.26a3.05 3.05 0 0 1 .35 1.93 3.31 3.31 0 0 1-2.23 2.57l1.59 3a6.4 6.4 0 0 0 4.41-5 6.06 6.06 0 0 0-.68-3.71L40.73 9.54"/><path class="cls-1" d="M44.53 8.13l8.25 15.31a8.79 8.79 0 0 1 1 5.43 9.45 9.45 0 0 1-6.68 7.41l-.34.11 1.59 3 .34-.11c5-1.69 8.21-5.49 8.85-9.81a11.62 11.62 0 0 0-1.31-7.2L47.94 6.93M38 47.9l-8.37-15.45a11.75 11.75 0 0 1-1.31-7.24c.64-4.35 3.85-8.18 8.9-9.88l.34-.11 1.6 3-.33.12a9.51 9.51 0 0 0-6.73 7.44 8.92 8.92 0 0 0 1 5.47l8.3 15.45"/><path class="cls-1" d="M45.22 45.27L37 30a6 6 0 0 1-.68-3.73 6.43 6.43 0 0 1 4.43-5l1.61 3.05a3.37 3.37 0 0 0-2.26 2.58 3.19 3.19 0 0 0 .36 1.95l8.28 15.35m-5.11 373.23l8.24 15.26a3.22 3.22 0 0 1 .35 1.94A3.36 3.36 0 0 1 50 437.2l1.6 3a6.41 6.41 0 0 0 4.4-5 6 6 0 0 0-.67-3.7l-8.2-15.2"/><path class="cls-1" d="M50.91 414.92l8.25 15.32a8.79 8.79 0 0 1 1 5.43 9.43 9.43 0 0 1-6.68 7.4l-.34.12 1.59 3 .34-.11c5-1.69 8.22-5.49 8.85-9.82a11.59 11.59 0 0 0-1.31-7.19l-8.27-15.37m-10 41L36 439.24a11.66 11.66 0 0 1-1.3-7.24c.64-4.35 3.85-8.17 8.91-9.87l.33-.11 1.61 3-.34.11a9.48 9.48 0 0 0-6.72 7.45 8.88 8.88 0 0 0 1 5.46l8.3 15.41"/><path class="cls-1" d="M51.6 452.07l-8.24-15.29a6.05 6.05 0 0 1-.68-3.73 6.44 6.44 0 0 1 4.43-5l1.61 3.05a3.36 3.36 0 0 0-2.25 2.59 3.12 3.12 0 0 0 .35 1.95L55.1 451M43 380.28l8.23 15.26a3.08 3.08 0 0 1 .35 1.94 3.33 3.33 0 0 1-2.23 2.57l1.59 3a6.39 6.39 0 0 0 4.41-5 6 6 0 0 0-.68-3.7l-8.19-15.2"/><path class="cls-1" d="M50.23 377.77l8.25 15.32a8.79 8.79 0 0 1 1 5.43 9.45 9.45 0 0 1-6.68 7.41l-.34.11 1.59 3 .34-.11c5-1.69 8.21-5.49 8.85-9.81a11.67 11.67 0 0 0-1.31-7.2l-8.28-15.37m-9.99 41l-8.33-15.45a11.77 11.77 0 0 1-1.33-7.25c.64-4.34 3.85-8.17 8.9-9.87l.34-.11 1.6 3-.33.11a9.52 9.52 0 0 0-6.73 7.45 8.88 8.88 0 0 0 1 5.46l8.3 15.41"/><path class="cls-1" d="M50.92 414.92l-8.24-15.29a6 6 0 0 1-.68-3.73 6.44 6.44 0 0 1 4.43-5l1.57 3.04a3.37 3.37 0 0 0-2.26 2.58 3.2 3.2 0 0 0 .36 2l8.28 15.35m-12-70.6l8.23 15.26a3.05 3.05 0 0 1 .35 1.93 3.31 3.31 0 0 1-2.23 2.54l1.59 3a6.41 6.41 0 0 0 4.41-5 6.06 6.06 0 0 0-.68-3.71l-8.19-15.2"/><path class="cls-1" d="M49.66 340.76l8.25 15.32a8.75 8.75 0 0 1 1 5.42 9.45 9.45 0 0 1-6.69 7.41l-.33.11 1.59 3 .34-.11c5-1.69 8.21-5.49 8.85-9.81a11.69 11.69 0 0 0-1.31-7.2l-8.28-15.36m-9.99 40.99l-8.33-15.45a11.75 11.75 0 0 1-1.31-7.24c.64-4.35 3.84-8.18 8.9-9.88l.34-.11 1.6 3-.29.15a9.51 9.51 0 0 0-6.73 7.45 8.91 8.91 0 0 0 1 5.46l8.3 15.41"/><path class="cls-1" d="M50.35 377.91l-8.24-15.29a6 6 0 0 1-.68-3.72 6.43 6.43 0 0 1 4.43-5l1.61 3.05a3.37 3.37 0 0 0-2.26 2.58 3.19 3.19 0 0 0 .36 1.95l8.28 15.35M41.7 306.12l8.23 15.26a3.13 3.13 0 0 1 .35 1.93 3.31 3.31 0 0 1-2.28 2.57l1.6 3a6.4 6.4 0 0 0 4.4-5 6 6 0 0 0-.67-3.71L45.18 305"/><path class="cls-1" d="M49 303.61l8.26 15.32a8.84 8.84 0 0 1 1 5.43 9.41 9.41 0 0 1-6.68 7.4l-.33.11 1.59 3 .33-.12c5-1.68 8.22-5.49 8.86-9.81a11.77 11.77 0 0 0-1.31-7.2l-8.28-15.36m-10.03 41.01l-8.33-15.46a11.82 11.82 0 0 1-1.32-7.24c.65-4.35 3.85-8.17 8.91-9.87l.34-.12 1.6 3.05-.34.11a9.48 9.48 0 0 0-6.72 7.45 8.88 8.88 0 0 0 1 5.46l8.31 15.41"/><path class="cls-1" d="M49.67 340.76l-8.25-15.29a6.12 6.12 0 0 1-.68-3.73 6.45 6.45 0 0 1 4.44-5l1.6 3a3.37 3.37 0 0 0-2.25 2.59 3.16 3.16 0 0 0 .36 1.94l8.28 15.36M69 288.61l8.23 15.26a3.16 3.16 0 0 1 .36 1.94 3.36 3.36 0 0 1-2.24 2.57l1.59 3a6.41 6.41 0 0 0 4.41-5 6 6 0 0 0-.68-3.7l-8.19-15.2"/><path class="cls-1" d="M76.32 286.1l8.25 15.32a8.79 8.79 0 0 1 1 5.43 9.43 9.43 0 0 1-6.68 7.4l-.34.12 1.59 3 .34-.11c5-1.69 8.21-5.49 8.85-9.82a11.59 11.59 0 0 0-1.33-7.17l-8.26-15.37m-9.99 40.98l-8.32-15.46a11.66 11.66 0 0 1-1.32-7.24c.64-4.35 3.85-8.17 8.9-9.87l.34-.11 1.6 3-.33.11a9.48 9.48 0 0 0-6.72 7.45 8.82 8.82 0 0 0 1 5.46l8.3 15.41"/><path class="cls-1" d="M77 323.25L68.77 308a6.05 6.05 0 0 1-.68-3.73 6.44 6.44 0 0 1 4.43-5l1.61 3.05a3.36 3.36 0 0 0-2.25 2.59 3.12 3.12 0 0 0 .35 1.95l8.28 15.35m-12.15-70.75l8.23 15.26a3.15 3.15 0 0 1 .35 1.94 3.32 3.32 0 0 1-2.24 2.57l1.6 3a6.41 6.41 0 0 0 4.41-5 6 6 0 0 0-.68-3.7l-8.19-15.2"/><path class="cls-1" d="M75.64 249l8.25 15.32a8.86 8.86 0 0 1 1 5.43 9.45 9.45 0 0 1-6.69 7.41l-.33.11 1.59 3 .34-.11c5-1.69 8.21-5.49 8.85-9.81a11.74 11.74 0 0 0-1.31-7.2l-8.28-15.37m-9.99 40.95l-8.33-15.45a11.85 11.85 0 0 1-1.32-7.28c.65-4.34 3.85-8.17 8.91-9.87l.34-.11 1.6 3-.34.11a9.52 9.52 0 0 0-6.72 7.45 8.81 8.81 0 0 0 1 5.46l8.3 15.41"/><path class="cls-1" d="M76.33 286.1l-8.25-15.29a6 6 0 0 1-.67-3.73 6.44 6.44 0 0 1 4.43-5l1.6 3.06a3.35 3.35 0 0 0-2.25 2.58 3.2 3.2 0 0 0 .36 1.95L79.83 285m-12.04-70.55L76 229.71a3.12 3.12 0 0 1 .35 1.93 3.31 3.31 0 0 1-2.24 2.57l1.6 3a6.41 6.41 0 0 0 4.41-5 6.06 6.06 0 0 0-.68-3.71l-8.19-15.2"/><path class="cls-1" d="M75.06 211.94l8.26 15.32a8.82 8.82 0 0 1 1 5.42 9.47 9.47 0 0 1-6.69 7.41l-.33.11 1.59 3 .34-.11c5-1.69 8.21-5.49 8.85-9.81a11.76 11.76 0 0 0-1.31-7.2l-8.28-15.36m-9.99 40.99l-8.33-15.45a11.83 11.83 0 0 1-1.32-7.26c.65-4.35 3.85-8.18 8.91-9.88l.34-.11 1.6 3-.34.12a9.51 9.51 0 0 0-6.72 7.45 8.84 8.84 0 0 0 1 5.46l8.3 15.41"/><path class="cls-1" d="M75.76 249.09l-8.25-15.29a6 6 0 0 1-.67-3.72 6.43 6.43 0 0 1 4.43-5l1.6 3a3.35 3.35 0 0 0-2.25 2.58 3.19 3.19 0 0 0 .36 1.95L79.26 248m-12.15-70.7l8.23 15.26a3.2 3.2 0 0 1 .35 1.93 3.33 3.33 0 0 1-2.24 2.57l1.6 3a6.41 6.41 0 0 0 4.4-5 6.05 6.05 0 0 0-.67-3.71l-8.2-15.2"/><path class="cls-1" d="M74.38 174.79l8.26 15.32a8.84 8.84 0 0 1 1 5.43 9.41 9.41 0 0 1-6.68 7.4l-.33.11 1.59 3 .33-.12c5-1.68 8.22-5.49 8.86-9.81a11.77 11.77 0 0 0-1.31-7.2l-8.3-15.33m-9.98 40.98l-8.33-15.46a11.82 11.82 0 0 1-1.32-7.24c.64-4.35 3.85-8.17 8.91-9.87l.34-.12 1.6 3.05-.34.11a9.48 9.48 0 0 0-6.68 7.45 8.88 8.88 0 0 0 1 5.51l8.3 15.41"/><path class="cls-1" d="M75.07 211.94l-8.24-15.29a6.05 6.05 0 0 1-.68-3.73 6.46 6.46 0 0 1 4.43-5l1.61 3a3.35 3.35 0 0 0-2.25 2.59 3.15 3.15 0 0 0 .35 1.94l8.29 15.36m-11.47-69.38l8.23 15.26a3.2 3.2 0 0 1 .35 1.93 3.33 3.33 0 0 1-2.24 2.57l1.6 3a6.39 6.39 0 0 0 4.4-5 6.05 6.05 0 0 0-.67-3.71l-8.2-15.2"/><path class="cls-1" d="M74.38 138.92l8.26 15.32a8.84 8.84 0 0 1 1 5.43 9.42 9.42 0 0 1-6.68 7.4l-.33.11 1.59 3 .33-.12c5-1.69 8.22-5.49 8.86-9.81a11.76 11.76 0 0 0-1.31-7.2l-8.3-15.33m-9.98 40.98l-8.33-15.46a11.83 11.83 0 0 1-1.32-7.24c.64-4.35 3.85-8.18 8.91-9.87l.34-.12 1.6 3-.34.12a9.48 9.48 0 0 0-6.68 7.49 8.88 8.88 0 0 0 1 5.46l8.3 15.41"/><path class="cls-1" d="M75.07 176.07l-8.24-15.3a6 6 0 0 1-.68-3.72 6.44 6.44 0 0 1 4.43-5l1.61 3.05a3.33 3.33 0 0 0-2.25 2.59 3.15 3.15 0 0 0 .35 1.94L78.58 175m-12.16-70.72l8.23 15.26a3.14 3.14 0 0 1 .36 1.93 3.36 3.36 0 0 1-2.24 2.58l1.59 3a6.41 6.41 0 0 0 4.41-5 6 6 0 0 0-.67-3.7l-8.2-15.21"/><path class="cls-1" d="M73.7 101.77l8.3 15.32a8.79 8.79 0 0 1 1 5.43 9.43 9.43 0 0 1-6.68 7.4l-.34.12 1.59 3 .34-.11c5-1.69 8.21-5.5 8.85-9.82a11.63 11.63 0 0 0-1.31-7.2l-8.27-15.36m-10.05 41l-8.32-15.46a11.68 11.68 0 0 1-1.32-7.24c.64-4.35 3.85-8.17 8.91-9.87l.33-.12 1.61 3-.34.14a9.48 9.48 0 0 0-6.72 7.45 8.88 8.88 0 0 0 1 5.46l8.3 15.41"/><path class="cls-1" d="M74.39 138.92l-8.24-15.29a6.05 6.05 0 0 1-.68-3.73 6.44 6.44 0 0 1 4.43-5l1.61 3.05a3.35 3.35 0 0 0-2.25 2.59 3.12 3.12 0 0 0 .35 2l8.28 15.35M65.85 67.26l8.23 15.26a3.16 3.16 0 0 1 .36 1.94A3.36 3.36 0 0 1 72.2 87l1.59 3a6.39 6.39 0 0 0 4.41-5 6 6 0 0 0-.67-3.7l-8.2-15.2"/><path class="cls-1" d="M73.13 64.75l8.25 15.32a8.79 8.79 0 0 1 1 5.43 9.45 9.45 0 0 1-6.68 7.41l-.34.11 1.59 3 .34-.11c5-1.69 8.21-5.49 8.85-9.81a11.6 11.6 0 0 0-1.31-7.2l-8.28-15.35m-9.99 40.98l-8.32-15.45a11.71 11.71 0 0 1-1.32-7.25c.64-4.34 3.85-8.17 8.91-9.87l.33-.11 1.61 3-.34.11a9.49 9.49 0 0 0-6.72 7.45 8.8 8.8 0 0 0 1 5.46L70 103.32"/><path class="cls-1" d="M73.82 101.9l-8.24-15.29a6.05 6.05 0 0 1-.68-3.73 6.44 6.44 0 0 1 4.43-5l1.61 3.06a3.34 3.34 0 0 0-2.25 2.58 3.12 3.12 0 0 0 .35 2l8.28 15.35M65.17 30.12l8.23 15.26a3.05 3.05 0 0 1 .35 1.93 3.31 3.31 0 0 1-2.24 2.57l1.6 3a6.41 6.41 0 0 0 4.41-5 6.05 6.05 0 0 0-.68-3.71L68.65 29"/><path class="cls-1" d="M72.45 27.61l8.25 15.31a8.86 8.86 0 0 1 1 5.43 9.45 9.45 0 0 1-6.7 7.41l-.33.11 1.59 3 .34-.11c5-1.69 8.21-5.49 8.85-9.81a11.76 11.76 0 0 0-1.31-7.2L75.86 26.4m-9.98 40.98l-8.33-15.45a11.75 11.75 0 0 1-1.31-7.24c.64-4.35 3.84-8.18 8.9-9.88l.34-.11 1.6 3-.34.12A9.51 9.51 0 0 0 60 45.3a8.85 8.85 0 0 0 1 5.47l8.3 15.41"/><path class="cls-1" d="M73.14 64.75l-8.25-15.29a6 6 0 0 1-.67-3.73 6.43 6.43 0 0 1 4.43-5l1.61 3.05A3.35 3.35 0 0 0 68 46.35a3.19 3.19 0 0 0 .36 1.95l8.28 15.35m-5.09 373.26l8.23 15.26a3.16 3.16 0 0 1 .36 1.94 3.36 3.36 0 0 1-2.24 2.57l1.59 3a6.41 6.41 0 0 0 4.41-5 6 6 0 0 0-.67-3.7L75 435.81"/><path class="cls-1" d="M78.83 434.4l8.25 15.32a8.79 8.79 0 0 1 1 5.43 9.43 9.43 0 0 1-6.68 7.4l-.34.12 1.59 3 .34-.11c5-1.69 8.21-5.5 8.85-9.82a11.63 11.63 0 0 0-1.31-7.2l-8.28-15.34m-9.99 40.98l-8.32-15.46a11.66 11.66 0 0 1-1.32-7.24c.64-4.35 3.85-8.17 8.91-9.87l.33-.11 1.61 3-.34.11a9.48 9.48 0 0 0-6.72 7.45 8.82 8.82 0 0 0 1 5.46L75.7 473"/><path class="cls-1" d="M79.52 471.55l-8.24-15.29a6.05 6.05 0 0 1-.68-3.73 6.44 6.44 0 0 1 4.43-5l1.61 3.05a3.36 3.36 0 0 0-2.25 2.59 3.12 3.12 0 0 0 .35 2L83 470.45m-12.13-70.69L79.1 415a3.08 3.08 0 0 1 .35 1.94 3.32 3.32 0 0 1-2.24 2.57l1.6 3a6.41 6.41 0 0 0 4.41-5 6 6 0 0 0-.68-3.7l-8.19-15.2"/><path class="cls-1" d="M78.15 397.25l8.25 15.32a8.86 8.86 0 0 1 1 5.43 9.45 9.45 0 0 1-6.69 7.41l-.33.11 1.59 3 .34-.11c5-1.69 8.21-5.49 8.85-9.81a11.74 11.74 0 0 0-1.31-7.2l-8.28-15.37M71.58 437l-8.33-15.45a11.77 11.77 0 0 1-1.31-7.25c.64-4.34 3.84-8.17 8.9-9.87l.34-.11 1.6 3-.34.11a9.52 9.52 0 0 0-6.72 7.57 8.81 8.81 0 0 0 1 5.46L75 435.82"/><path class="cls-1" d="M78.84 434.4l-8.25-15.29a6 6 0 0 1-.67-3.73 6.44 6.44 0 0 1 4.43-5l1.65 3.04a3.35 3.35 0 0 0-2.3 2.58 3.2 3.2 0 0 0 .36 1.95l8.28 15.35M70.3 362.75L78.53 378a3.05 3.05 0 0 1 .35 1.93 3.31 3.31 0 0 1-2.24 2.57l1.6 3a6.41 6.41 0 0 0 4.41-5 6.06 6.06 0 0 0-.68-3.71l-8.19-15.2"/><path class="cls-1" d="M77.58 360.24l8.25 15.31a8.86 8.86 0 0 1 1 5.43 9.45 9.45 0 0 1-6.69 7.41l-.33.11 1.59 3 .34-.11c5-1.69 8.21-5.49 8.85-9.81a11.76 11.76 0 0 0-1.31-7.2L81 359m-10 41l-8.33-15.45a11.75 11.75 0 0 1-1.31-7.24c.64-4.35 3.84-8.18 8.9-9.88l.34-.11 1.6 3-.34.12a9.51 9.51 0 0 0-6.72 7.44 8.85 8.85 0 0 0 1 5.47l8.3 15.41"/><path class="cls-1" d="M78.27 397.38L70 382.09a6 6 0 0 1-.67-3.73 6.43 6.43 0 0 1 4.43-5l1.61 3a3.35 3.35 0 0 0-2.24 2.64 3.19 3.19 0 0 0 .36 1.95l8.28 15.35m-12.15-70.7l8.23 15.26a3.2 3.2 0 0 1 .35 1.93 3.33 3.33 0 0 1-2.2 2.57l1.6 3a6.41 6.41 0 0 0 4.4-5 6.05 6.05 0 0 0-.67-3.71l-8.2-15.2"/><path class="cls-1" d="M76.89 323.09l8.26 15.32a8.84 8.84 0 0 1 1 5.43 9.42 9.42 0 0 1-6.68 7.4l-.33.11 1.59 3 .33-.12c5-1.69 8.22-5.49 8.86-9.81a11.77 11.77 0 0 0-1.31-7.2l-8.28-15.36m-10 41.01L62 347.41a11.82 11.82 0 0 1-1.32-7.24c.64-4.35 3.85-8.17 8.91-9.87l.34-.12 1.6 3-.34.12a9.48 9.48 0 0 0-6.72 7.45 8.88 8.88 0 0 0 1 5.46l8.31 15.41"/><path class="cls-1" d="M77.59 360.24L69.34 345a6.06 6.06 0 0 1-.68-3.73 6.44 6.44 0 0 1 4.44-5l1.6 3.05a3.35 3.35 0 0 0-2.25 2.59 3.22 3.22 0 0 0 .35 1.94l8.29 15.36m16.15-90.08l8.23 15.26a3.08 3.08 0 0 1 .35 1.94 3.32 3.32 0 0 1-2.24 2.57l1.6 3a6.41 6.41 0 0 0 4.41-5 6 6 0 0 0-.68-3.7l-8.19-15.2"/><path class="cls-1" d="M104.52 266.62l8.25 15.32a8.86 8.86 0 0 1 1 5.43 9.42 9.42 0 0 1-6.69 7.4l-.33.12 1.59 3 .34-.11c5-1.69 8.21-5.49 8.85-9.82a11.73 11.73 0 0 0-1.31-7.19l-8.28-15.37m-9.94 41l-8.33-15.46a11.72 11.72 0 0 1-1.31-7.24c.64-4.35 3.84-8.17 8.9-9.87l.34-.11 1.6 3-.34.11a9.51 9.51 0 0 0-6.72 7.45 8.89 8.89 0 0 0 1 5.46l8.3 15.41"/><path class="cls-1" d="M105.21 303.77L97 288.48a6 6 0 0 1-.67-3.73 6.44 6.44 0 0 1 4.43-5l1.61 3a3.38 3.38 0 0 0-2.26 2.59 3.2 3.2 0 0 0 .36 1.95l8.28 15.35M96.56 232l8.23 15.26a3.15 3.15 0 0 1 .35 1.94 3.32 3.32 0 0 1-2.24 2.57l1.6 3a6.38 6.38 0 0 0 4.4-5 6 6 0 0 0-.67-3.7l-8.2-15.2"/><path class="cls-1" d="M103.83 229.47l8.26 15.32a8.86 8.86 0 0 1 1 5.43 9.44 9.44 0 0 1-6.68 7.41l-.33.11 1.59 3 .33-.11c5-1.69 8.22-5.49 8.86-9.81a11.74 11.74 0 0 0-1.31-7.2l-8.28-15.37m-10 41l-8.33-15.45a11.85 11.85 0 0 1-1.32-7.25c.64-4.34 3.85-8.17 8.91-9.87l.34-.11 1.6 3-.34.11a9.5 9.5 0 0 0-6.72 7.45 8.87 8.87 0 0 0 1 5.46l8.3 15.41"/><path class="cls-1" d="M104.53 266.62l-8.25-15.29a6.11 6.11 0 0 1-.68-3.73 6.45 6.45 0 0 1 4.44-5l1.6 3.06a3.35 3.35 0 0 0-2.25 2.58 3.2 3.2 0 0 0 .36 1.95l8.25 15.33M96 195l8.23 15.26a3.19 3.19 0 0 1 .35 1.93 3.33 3.33 0 0 1-2.24 2.57l1.6 3a6.39 6.39 0 0 0 4.4-5 6.05 6.05 0 0 0-.67-3.71l-8.2-15.2"/><path class="cls-1" d="M103.26 192.46l8.26 15.32a8.83 8.83 0 0 1 1 5.42 9.44 9.44 0 0 1-6.68 7.41l-.33.11 1.59 3 .33-.12c5-1.69 8.22-5.49 8.86-9.81a11.76 11.76 0 0 0-1.31-7.2l-8.28-15.36m-10 41l-8.33-15.45a11.83 11.83 0 0 1-1.32-7.24c.64-4.35 3.85-8.18 8.91-9.88l.34-.11 1.6 3-.34.12a9.48 9.48 0 0 0-6.72 7.45 8.88 8.88 0 0 0 1 5.46l8.3 15.42"/><path class="cls-1" d="M104 229.61l-8.25-15.3a6 6 0 0 1-.68-3.72 6.44 6.44 0 0 1 4.44-5l1.6 3.05a3.35 3.35 0 0 0-2.25 2.58 3.24 3.24 0 0 0 .35 2l8.29 15.35m-12.2-70.75l8.24 15.26a3.2 3.2 0 0 1 .35 1.93 3.33 3.33 0 0 1-2.24 2.57l1.6 3a6.41 6.41 0 0 0 4.4-5 6.05 6.05 0 0 0-.67-3.71l-8.2-15.2"/><path class="cls-1" d="M102.58 155.31l8.25 15.32a8.78 8.78 0 0 1 1 5.43 9.43 9.43 0 0 1-6.68 7.4l-.34.11 1.59 3 .34-.12c5-1.68 8.22-5.49 8.85-9.81a11.63 11.63 0 0 0-1.31-7.2L106 154.11m-10 40.98l-8.32-15.46a11.68 11.68 0 0 1-1.32-7.24c.64-4.35 3.85-8.17 8.91-9.87l.33-.12 1.61 3-.34.11a9.48 9.48 0 0 0-6.71 7.49 8.88 8.88 0 0 0 1 5.46l8.3 15.41"/><path class="cls-1" d="M103.27 192.46L95 177.17a6.05 6.05 0 0 1-.68-3.73 6.44 6.44 0 0 1 4.43-5l1.61 3.05a3.35 3.35 0 0 0-2.25 2.59 3.08 3.08 0 0 0 .35 1.94l8.28 15.36M95.3 122l8.24 15.26a3.2 3.2 0 0 1 .35 1.93 3.34 3.34 0 0 1-2.24 2.57l1.6 3a6.41 6.41 0 0 0 4.4-5 6.05 6.05 0 0 0-.67-3.71l-8.2-15.2"/><path class="cls-1" d="M102.58 119.44l8.25 15.32a8.78 8.78 0 0 1 1 5.43 9.44 9.44 0 0 1-6.68 7.4l-.34.11 1.59 3 .34-.12c5-1.69 8.22-5.49 8.85-9.81a11.63 11.63 0 0 0-1.31-7.2L106 118.24m-10 40.98l-8.32-15.46a11.68 11.68 0 0 1-1.32-7.24c.64-4.35 3.85-8.17 8.91-9.87l.33-.12 1.61 3-.34.12a9.48 9.48 0 0 0-6.72 7.45 8.88 8.88 0 0 0 1 5.46l8.3 15.44"/><path class="cls-1" d="M103.27 156.59L95 141.3a6.06 6.06 0 0 1-.68-3.73 6.43 6.43 0 0 1 4.43-5l1.61 3a3.33 3.33 0 0 0-2.25 2.59 3.08 3.08 0 0 0 .35 1.94l8.28 15.36M94.62 84.8l8.23 15.26a3.08 3.08 0 0 1 .35 1.94 3.33 3.33 0 0 1-2.23 2.57l1.59 3a6.41 6.41 0 0 0 4.41-5 6 6 0 0 0-.68-3.7L98.1 83.7"/><path class="cls-1" d="M101.9 82.29l8.25 15.32a8.79 8.79 0 0 1 1 5.43 9.43 9.43 0 0 1-6.68 7.4l-.34.12 1.59 3 .34-.11c5-1.69 8.21-5.5 8.85-9.82a11.63 11.63 0 0 0-1.31-7.2l-8.28-15.36m-9.99 41L87 106.61a11.72 11.72 0 0 1-1.31-7.24c.64-4.35 3.85-8.17 8.9-9.87l.34-.11 1.6 3-.33.11a9.51 9.51 0 0 0-6.73 7.5 8.89 8.89 0 0 0 1 5.46l8.3 15.41"/><path class="cls-1" d="M102.59 119.44l-8.24-15.29a6.05 6.05 0 0 1-.68-3.73 6.44 6.44 0 0 1 4.43-5l1.61 3a3.39 3.39 0 0 0-2.26 2.58 3.2 3.2 0 0 0 .36 1.95l8.28 15.35M94.05 47.78L102.28 63a3.08 3.08 0 0 1 .35 1.94 3.33 3.33 0 0 1-2.23 2.57l1.59 3a6.39 6.39 0 0 0 4.41-5 6 6 0 0 0-.68-3.7l-8.19-15.2"/><path class="cls-1" d="M101.33 45.27l8.25 15.32a8.79 8.79 0 0 1 1 5.43 9.45 9.45 0 0 1-6.69 7.41l-.33.11 1.59 3 .34-.11c5-1.69 8.21-5.49 8.85-9.81a11.67 11.67 0 0 0-1.31-7.2l-8.28-15.37m-9.99 41L86.43 69.6a11.77 11.77 0 0 1-1.31-7.25C85.76 58 89 54.18 94 52.48l.34-.11 1.6 3-.33.11A9.52 9.52 0 0 0 88.9 63a8.88 8.88 0 0 0 1 5.46l8.3 15.41"/><path class="cls-1" d="M102 82.42l-8.22-15.29a6 6 0 0 1-.68-3.73 6.44 6.44 0 0 1 4.43-5l1.61 3.06A3.37 3.37 0 0 0 96.88 64a3.2 3.2 0 0 0 .36 2l8.28 15.35M93.37 10.64l8.23 15.26a3.12 3.12 0 0 1 .35 1.93 3.31 3.31 0 0 1-2.24 2.57l1.6 3a6.38 6.38 0 0 0 4.4-5 6 6 0 0 0-.67-3.71L96.85 9.54"/><path class="cls-1" d="M100.64 8.13l8.26 15.31a8.86 8.86 0 0 1 1 5.43 9.44 9.44 0 0 1-6.68 7.41l-.33.11 1.59 3 .33-.11c5-1.69 8.22-5.49 8.86-9.81a11.76 11.76 0 0 0-1.31-7.2l-8.3-15.34M94.08 47.9l-8.33-15.45a11.83 11.83 0 0 1-1.32-7.24c.65-4.35 3.85-8.18 8.91-9.88l.34-.11 1.6 3-.34.12a9.48 9.48 0 0 0-6.72 7.44 8.92 8.92 0 0 0 1 5.47l8.3 15.45"/><path class="cls-1" d="M101.34 45.27L93.09 30a6.11 6.11 0 0 1-.68-3.73 6.44 6.44 0 0 1 4.44-5l1.6 3.05a3.35 3.35 0 0 0-2.25 2.58 3.19 3.19 0 0 0 .36 1.95l8.28 15.35m-5.09 373.23l8.25 15.26a3.08 3.08 0 0 1 .35 1.94 3.33 3.33 0 0 1-2.23 2.57l1.59 3a6.43 6.43 0 0 0 4.41-5 6 6 0 0 0-.68-3.7l-8.19-15.2"/><path class="cls-1" d="M107 414.92l8.25 15.32a8.79 8.79 0 0 1 1 5.43 9.42 9.42 0 0 1-6.69 7.4l-.33.12 1.59 3 .34-.11c5-1.69 8.21-5.49 8.85-9.82a11.66 11.66 0 0 0-1.31-7.19l-8.28-15.37m-9.96 41l-8.33-15.46a11.72 11.72 0 0 1-1.31-7.24c.64-4.35 3.84-8.17 8.9-9.87l.34-.11 1.6 3-.33.11a9.51 9.51 0 0 0-6.73 7.45 8.89 8.89 0 0 0 1 5.46l8.3 15.41"/><path class="cls-1" d="M107.72 452.07l-8.24-15.29a6.05 6.05 0 0 1-.68-3.73 6.44 6.44 0 0 1 4.43-5l1.61 3.05a3.39 3.39 0 0 0-2.26 2.59 3.2 3.2 0 0 0 .36 1.95l8.28 15.36m-12.15-70.72l8.23 15.26a3.15 3.15 0 0 1 .35 1.94 3.32 3.32 0 0 1-2.24 2.57l1.6 3a6.38 6.38 0 0 0 4.4-5 6 6 0 0 0-.67-3.7l-8.19-15.2"/><path class="cls-1" d="M106.34 377.77l8.26 15.32a8.86 8.86 0 0 1 1 5.43 9.44 9.44 0 0 1-6.68 7.41l-.33.11 1.59 3 .33-.11c5-1.69 8.22-5.49 8.86-9.81a11.74 11.74 0 0 0-1.31-7.2l-8.28-15.37m-10 41l-8.33-15.45a11.85 11.85 0 0 1-1.32-7.25c.65-4.34 3.85-8.17 8.91-9.87l.34-.11 1.6 3-.34.11a9.49 9.49 0 0 0-6.72 7.45 8.87 8.87 0 0 0 1 5.46l8.31 15.41"/><path class="cls-1" d="M107 414.92l-8.25-15.29a6.11 6.11 0 0 1-.68-3.73 6.45 6.45 0 0 1 4.44-5l1.6 3.06a3.35 3.35 0 0 0-2.25 2.58 3.2 3.2 0 0 0 .36 2l8.28 15.35m-12-70.62l8.23 15.26a3.12 3.12 0 0 1 .35 1.93 3.31 3.31 0 0 1-2.24 2.57l1.6 3a6.38 6.38 0 0 0 4.4-5 6 6 0 0 0-.67-3.71L102 342.17"/><path class="cls-1" d="M105.77 340.76l8.23 15.32a8.81 8.81 0 0 1 1 5.42 9.44 9.44 0 0 1-6.68 7.41l-.32.09 1.59 3 .33-.11c5-1.69 8.22-5.49 8.86-9.81a11.76 11.76 0 0 0-1.31-7.2l-8.28-15.36m-9.98 41.01l-8.33-15.45a11.83 11.83 0 0 1-1.32-7.24c.65-4.35 3.85-8.18 8.91-9.88l.34-.11 1.6 3-.34.12a9.48 9.48 0 0 0-6.72 7.45 8.9 8.9 0 0 0 1 5.46l8.31 15.41"/><path class="cls-1" d="M106.47 377.91l-8.25-15.29a6.09 6.09 0 0 1-.68-3.72 6.44 6.44 0 0 1 4.44-5l1.6 3.05a3.35 3.35 0 0 0-2.25 2.58 3.19 3.19 0 0 0 .36 1.95L110 376.8m-12.19-70.68l8.24 15.26a3.2 3.2 0 0 1 .35 1.93 3.34 3.34 0 0 1-2.24 2.57l1.6 3a6.41 6.41 0 0 0 4.4-5 6.05 6.05 0 0 0-.67-3.71l-8.2-15.2"/><path class="cls-1" d="M105.09 303.61l8.25 15.32a8.78 8.78 0 0 1 1 5.43 9.43 9.43 0 0 1-6.68 7.4l-.34.11 1.6 3 .33-.12c5-1.68 8.22-5.49 8.85-9.81a11.69 11.69 0 0 0-1.3-7.2l-8.28-15.36m-10 41.01l-8.32-15.46a11.75 11.75 0 0 1-1.32-7.24c.64-4.35 3.85-8.17 8.91-9.87l.34-.12 1.6 3.05-.34.11a9.48 9.48 0 0 0-6.72 7.45 8.88 8.88 0 0 0 1 5.46l8.3 15.41"/><path class="cls-1" d="M105.78 340.76l-8.24-15.29a6.05 6.05 0 0 1-.68-3.73 6.44 6.44 0 0 1 4.43-5l1.61 3a3.35 3.35 0 0 0-2.25 2.59 3.08 3.08 0 0 0 .35 1.94l8.28 15.36"/></svg>