<svg width="1512" height="381" viewBox="0 0 1512 381" fill="none" xmlns="http://www.w3.org/2000/svg">
<path d="M-21.2962 392.845L77.602 328.64C77.602 328.64 87.3373 322.124 102.039 312.635C107.217 309.296 112.304 307.624 117.003 306.979C118.663 306.752 120.265 306.652 121.816 306.652C130.428 306.657 137.074 309.729 139.774 311.19C139.812 309.668 139.902 308.046 139.902 306.64C139.902 298.124 139.238 291.774 139.18 291.496H139.212L139.155 291.285H139.289V291.213C132.254 288.702 124.485 286.663 116.626 286.296L116.652 285.746L116.626 286.296C115.726 286.252 114.826 286.23 113.932 286.23C106.157 286.23 98.4898 287.88 91.6464 292.252C71.9906 304.796 66.2387 308.235 66.226 308.246L-33.0425 372.723" stroke="#FEF9F0" stroke-width="2" stroke-miterlimit="10"/>
<path d="M688.808 -15.4391C682.233 -3.58929 421.167 156.337 413.525 161.17C413.525 161.17 402.13 168.392 398.753 170.57C393.684 173.831 387.486 175.025 381.057 175.025C364.408 175.009 345.946 167.064 340.411 164.514L340.794 163.614L340.411 164.514C339.358 164.031 338.752 163.725 338.745 163.725L339.179 162.77L338.72 163.714C338.72 163.714 335.24 161.87 330.127 160.02C325.02 158.164 318.298 156.326 311.965 156.326C303.277 156.409 295.629 159.603 292.718 170.875C302.932 172.275 312.393 176.786 314.455 177.825C330.287 184.892 340.743 189.075 340.769 189.086L340.405 190.075L340.807 189.103C340.807 189.103 342.007 189.642 344.191 190.47C346.374 191.297 349.534 192.397 353.402 193.503C361.14 195.714 371.711 197.919 383.023 197.914C394.335 197.914 406.369 195.708 417.087 189.158C422.009 186.147 706.115 7.56614 710.807 1.39955" stroke="#FEF9F0" stroke-width="2" stroke-miterlimit="10"/>
<path d="M267.987 187.164C277.92 188.553 287.157 192.875 289.5 194.036L289.526 193.975C302.147 199.608 311.276 203.386 314.601 204.742L313.478 179.697L313.452 179.686C311.244 178.57 301.393 173.914 291.301 172.803L291.313 172.67L291.301 172.803C289.915 172.648 288.536 172.564 287.177 172.564C278.495 172.648 270.879 175.864 267.987 187.164V187.164Z" stroke="#FEF9F0" stroke-width="2" stroke-miterlimit="10"/>
<path d="M236.815 204.564C228.126 204.647 220.491 207.88 217.593 219.191C227.526 220.58 236.77 224.902 239.106 226.069L239.132 226.008C251.746 231.641 260.882 235.419 264.208 236.775L263.084 211.725C262.133 211.253 259.937 210.192 256.93 209.014C253.081 207.508 247.961 205.864 242.688 205.069L242.586 205.43L240.639 204.842C239.362 204.708 238.079 204.575 236.815 204.575V204.564Z" stroke="#FEF9F0" stroke-width="2" stroke-miterlimit="10"/>
<path d="M192.773 235.414C202.987 236.813 212.441 241.325 214.503 242.363C227.009 247.941 236.061 251.686 239.368 253.036L238.245 227.986C237.261 227.497 234.938 226.38 231.784 225.169C227.558 223.541 221.889 221.753 216.169 221.108L216.188 220.936L216.169 221.103C214.752 220.941 213.341 220.853 211.95 220.853C203.28 220.936 195.677 224.147 192.773 235.408V235.414Z" stroke="#FEF9F0" stroke-width="2" stroke-miterlimit="10"/>
<path d="M243.288 203.025C254.421 204.781 264.476 210.075 264.527 210.097L265.057 210.375V210.397C277.486 215.942 286.481 219.664 289.775 221.003L288.651 195.953C287.668 195.464 285.344 194.347 282.191 193.136C277.965 191.508 272.296 189.72 266.576 189.075L266.595 188.903L266.576 189.07C265.165 188.908 263.767 188.82 262.382 188.82C253.808 188.897 246.282 192.064 243.301 203.019L243.288 203.025Z" stroke="#FEF9F0" stroke-width="2" stroke-miterlimit="10"/>
<path d="M265.12 261.847C265.497 262.091 266.135 262.38 267.24 262.38C269.078 262.385 272.251 261.519 277.205 257.98C288.466 249.941 290.49 237.891 290.503 230.114C290.503 227.919 290.337 226.086 290.177 224.803C290.1 224.175 290.017 223.697 289.96 223.364C287.738 222.464 278.399 218.641 265.152 212.747L266.301 238.241C266.378 238.608 266.972 241.53 266.972 245.874C266.978 250.358 266.244 256.313 263.62 262.191L264.482 261.619L264.686 261.458L264.75 261.53L265.127 261.841L265.12 261.847Z" stroke="#FEF9F0" stroke-width="2" stroke-miterlimit="10"/>
<path d="M355.151 129.476C354.188 130.109 352.866 131.048 351.481 132.259C348.697 134.676 345.678 138.176 344.548 142.365L343.571 142.076L344.548 142.365C342.48 149.909 341.962 160.114 341.86 162.87C345.423 164.492 353.064 167.709 362.014 170.086C361.963 169.625 361.912 168.97 361.912 168.081C361.88 162.892 363.968 151.076 378.816 141.687L356.403 128.704C356.147 128.854 355.758 129.076 355.158 129.476H355.151Z" stroke="#FEF9F0" stroke-width="2" stroke-miterlimit="10"/>
<path d="M334.002 140.553C325.492 140.537 318.668 147.131 317.264 154.598C328.85 156.114 339.575 161.814 339.632 161.831C339.632 161.831 339.767 161.898 339.862 161.942C340.016 158.503 340.571 149.876 342.365 142.715C339.467 141.27 336.638 140.553 333.989 140.548L334.002 140.553Z" stroke="#FEF9F0" stroke-width="2" stroke-miterlimit="10"/>
<path d="M168.016 251.78C177.822 253.102 186.951 257.297 189.549 258.58L189.581 258.502C202.201 264.135 211.33 267.913 214.656 269.269L213.533 244.224L213.507 244.213C211.305 243.097 201.448 238.441 191.355 237.33L191.368 237.197L191.355 237.33C189.964 237.175 188.585 237.091 187.225 237.091C178.517 237.175 170.889 240.402 168.016 251.78V251.78Z" stroke="#FEF9F0" stroke-width="2" stroke-miterlimit="10"/>
<path d="M353.038 209.464C357.571 206.23 360.539 202.269 362.487 197.886C352.566 195.892 344.918 193.058 341.694 191.758C341.873 193.108 342.065 195.07 342.065 197.514C342.065 201.692 341.452 207.136 339.262 212.625C339.933 213.053 340.973 213.575 342.824 213.575C345.123 213.575 348.474 212.708 353.032 209.458L353.038 209.464Z" stroke="#FEF9F0" stroke-width="2" stroke-miterlimit="10"/>
<path d="M117.992 284.285C138.919 285.73 158.97 297.568 164.684 301.202L163.579 276.535C162.615 276.057 160.381 274.98 157.33 273.791C153.429 272.269 148.239 270.619 142.915 269.852L142.851 270.069L141.549 269.674C140.112 269.508 138.682 269.391 137.272 269.391C128.507 269.48 120.827 272.741 117.999 284.291L117.992 284.285Z" stroke="#FEF9F0" stroke-width="2" stroke-miterlimit="10"/>
<path d="M316.791 229.88C318.63 229.886 321.802 229.019 326.756 225.48C331.94 221.775 335.113 217.253 337.098 212.664C339.441 207.236 340.041 201.719 340.041 197.514C340.041 195.347 339.881 193.531 339.722 192.27C339.645 191.653 339.569 191.186 339.511 190.858C337.334 189.975 328.333 186.292 315.54 180.614L316.695 206.214C316.772 206.58 317.366 209.503 317.366 213.847C317.372 218.075 316.74 223.619 314.467 229.175L314.678 229.347C315.055 229.591 315.693 229.88 316.798 229.88H316.791Z" stroke="#FEF9F0" stroke-width="2" stroke-miterlimit="10"/>
<path d="M143.502 267.813C154.655 269.508 164.767 274.791 164.984 274.902C177.585 280.53 186.708 284.302 190.027 285.657L188.904 260.608C187.908 260.113 185.552 258.985 182.361 257.758C178.09 256.113 172.357 254.324 166.605 253.708L166.631 253.441L166.605 253.708C165.265 253.563 163.937 253.485 162.622 253.485C154.01 253.569 146.458 256.747 143.502 267.819V267.813Z" stroke="#FEF9F0" stroke-width="2" stroke-miterlimit="10"/>
<path d="M241.679 278.146C243.518 278.152 246.69 277.285 251.644 273.746C262.905 265.708 264.935 253.652 264.948 245.874C264.948 243.686 264.782 241.847 264.622 240.563C264.546 239.936 264.469 239.458 264.405 239.125C262.222 238.241 253.176 234.536 240.313 228.825L241.468 254.485C241.539 254.824 242.139 257.758 242.139 262.135C242.139 266.341 241.526 271.852 239.279 277.374L239.56 277.607C239.936 277.852 240.575 278.141 241.679 278.141V278.146Z" stroke="#FEF9F0" stroke-width="2" stroke-miterlimit="10"/>
<path d="M149.477 342.007C163.311 332.173 164.894 313.89 164.882 306.463C164.882 305.046 164.837 304.24 164.805 303.768C164.205 303.374 162.954 302.557 161.09 301.446C158.447 299.868 154.655 297.752 150.097 295.602C147.409 294.335 144.402 293.085 141.268 291.896L141.312 292.296C141.383 293.052 141.478 294.141 141.574 295.518C141.759 298.263 141.932 302.129 141.932 306.64C141.925 317.996 140.763 333.329 135.669 345.151C136.327 345.584 137.38 346.123 139.276 346.123C141.574 346.123 144.932 345.257 149.49 342.007H149.477Z" stroke="#FEF9F0" stroke-width="2" stroke-miterlimit="10"/>
<path d="M216.852 294.413C218.691 294.418 221.864 293.552 226.817 290.013C238.079 281.974 240.102 269.924 240.115 262.147C240.115 259.952 239.949 258.119 239.789 256.835C239.713 256.208 239.636 255.73 239.572 255.397C237.402 254.519 228.394 250.83 215.595 245.152L216.75 270.752C216.827 271.119 217.42 274.041 217.42 278.391C217.427 282.618 216.795 288.163 214.522 293.713L214.733 293.885C215.11 294.129 215.748 294.418 216.852 294.418V294.413Z" stroke="#FEF9F0" stroke-width="2" stroke-miterlimit="10"/>
<path d="M192.134 310.646C193.973 310.651 197.146 309.785 202.099 306.246C213.36 298.207 215.39 286.157 215.403 278.38C215.403 276.185 215.237 274.352 215.078 273.069C215.001 272.441 214.918 271.963 214.861 271.624C212.69 270.746 203.721 267.074 190.972 261.419L192.128 287.107C192.198 287.441 192.805 290.38 192.805 294.757C192.805 298.974 192.185 304.502 189.925 310.04L190.021 310.118C190.398 310.363 191.036 310.651 192.141 310.651L192.134 310.646Z" stroke="#FEF9F0" stroke-width="2" stroke-miterlimit="10"/>
<path d="M165.558 327.518C167.939 327.518 171.853 326.629 177.471 322.624C188.732 314.585 190.762 302.529 190.774 294.752C190.774 292.563 190.608 290.724 190.449 289.441C190.372 288.813 190.289 288.335 190.232 288.002C188.023 287.107 178.773 283.324 165.648 277.485L166.797 303.113C166.803 303.207 166.912 304.413 166.912 306.457C166.912 310.852 166.318 318.985 163.107 327.124L163.164 327.146C163.662 327.324 164.448 327.518 165.565 327.518H165.558Z" stroke="#FEF9F0" stroke-width="2" stroke-miterlimit="10"/>
<path d="M292.073 246.119C293.911 246.124 297.084 245.258 302.038 241.719C313.299 233.68 315.329 221.625 315.342 213.847C315.342 211.658 315.176 209.819 315.016 208.536C314.94 207.908 314.857 207.43 314.799 207.097C312.616 206.214 303.564 202.508 290.707 196.797L291.862 222.458C291.932 222.797 292.533 225.73 292.533 230.108C292.533 234.313 291.92 239.825 289.673 245.347L289.947 245.58C290.324 245.824 290.962 246.113 292.067 246.113L292.073 246.119Z" stroke="#FEF9F0" stroke-width="2" stroke-miterlimit="10"/>
<path d="M3.63902 435.511L103.61 370.651L115.343 362.906L115.407 362.74V362.723H115.42L115.484 362.656L115.535 362.612L115.567 362.59L115.586 362.573L115.611 362.556H115.624V362.551H115.637L115.656 362.534L115.694 362.506L116.02 362.301L117.418 361.401C118.72 360.562 120.801 359.223 123.923 357.218C128.053 354.562 131.156 350.301 133.499 345.162C137.731 335.918 139.257 323.929 139.697 313.563C139.48 313.429 139.155 313.246 138.702 313.001C137.827 312.535 136.55 311.907 134.929 311.279C131.692 310.024 127.121 308.768 121.816 308.768C120.674 308.768 119.474 308.885 118.273 309.013C118.401 310.196 118.573 312.251 118.567 314.907C118.554 322.918 117.035 335.962 107.197 342.262C97.3982 348.473 92.1444 350.507 91.5634 350.723L-8.10083 415.395" stroke="#FEF9F0" stroke-width="2" stroke-miterlimit="10"/>
<path d="M1163.71 198.481C1163.71 196.02 1163.91 194.047 1164.09 192.686C1160.85 193.992 1153.15 196.847 1143.16 198.853C1145.12 203.264 1148.11 207.253 1152.68 210.508C1157.26 213.78 1160.63 214.647 1162.95 214.653C1164.82 214.653 1165.86 214.125 1166.54 213.692C1164.34 208.164 1163.71 202.686 1163.71 198.486V198.481Z" stroke="#FEF9F0" stroke-width="2" stroke-miterlimit="10"/>
<path d="M1289.78 272.124L1290.94 246.38C1278.05 252.097 1269 255.808 1266.81 256.691C1266.76 257.03 1266.67 257.513 1266.6 258.147C1266.43 259.435 1266.26 261.285 1266.26 263.485C1266.28 271.308 1268.32 283.441 1279.65 291.524C1284.63 295.085 1287.82 295.957 1289.68 295.952C1291.05 295.941 1291.72 295.518 1292.03 295.241C1289.74 289.652 1289.11 284.074 1289.11 279.813C1289.11 275.407 1289.72 272.452 1289.79 272.119L1289.78 272.124Z" stroke="#FEF9F0" stroke-width="2" stroke-miterlimit="10"/>
<path d="M1189.24 207.225L1190.4 181.47C1177.52 187.186 1168.46 190.892 1166.27 191.781C1166.22 192.114 1166.14 192.586 1166.06 193.208C1165.9 194.481 1165.73 196.303 1165.73 198.481C1165.73 202.708 1166.34 208.258 1168.7 213.725C1170.7 218.341 1173.88 222.891 1179.1 226.619C1184.08 230.18 1187.27 231.052 1189.13 231.047C1190.5 231.036 1191.17 230.614 1191.48 230.336C1189.19 224.747 1188.55 219.169 1188.55 214.908C1188.55 210.525 1189.16 207.586 1189.24 207.225H1189.24Z" stroke="#FEF9F0" stroke-width="2" stroke-miterlimit="10"/>
<path d="M1264.91 255.802L1266.07 229.969C1253.13 235.719 1244.02 239.447 1241.83 240.33C1241.77 240.669 1241.69 241.152 1241.61 241.786C1241.44 243.074 1241.28 244.924 1241.28 247.13C1241.29 254.952 1243.33 267.08 1254.66 275.169C1259.64 278.73 1262.84 279.602 1264.69 279.596C1266.16 279.585 1266.84 279.096 1267.12 278.83C1264.86 273.269 1264.23 267.724 1264.23 263.485C1264.23 259.102 1264.84 256.163 1264.92 255.802H1264.91Z" stroke="#FEF9F0" stroke-width="2" stroke-miterlimit="10"/>
<path d="M1239.94 239.441L1241.09 213.792C1227.74 219.725 1218.35 223.575 1216.12 224.475C1216.06 224.814 1215.98 225.297 1215.9 225.93C1215.74 227.219 1215.57 229.069 1215.57 231.275C1215.58 239.097 1217.63 251.23 1228.96 259.313C1233.94 262.874 1237.13 263.746 1238.99 263.741C1240.91 263.724 1241.49 262.885 1241.56 262.813L1241.75 262.963L1242.63 263.546C1239.99 257.635 1239.25 251.647 1239.25 247.136C1239.25 242.752 1239.86 239.802 1239.94 239.447V239.441Z" stroke="#FEF9F0" stroke-width="2" stroke-miterlimit="10"/>
<path d="M1314.55 288.602L1315.71 262.758C1302.87 268.452 1293.85 272.146 1291.67 273.03C1291.61 273.369 1291.53 273.852 1291.45 274.485C1291.29 275.774 1291.12 277.624 1291.12 279.824C1291.13 287.646 1293.17 299.774 1304.51 307.863C1309.49 311.424 1312.69 312.296 1314.53 312.29C1315.77 312.279 1316.41 311.94 1316.76 311.668C1314.49 306.102 1313.86 300.546 1313.86 296.302C1313.86 291.896 1314.47 288.935 1314.54 288.602H1314.55Z" stroke="#FEF9F0" stroke-width="2" stroke-miterlimit="10"/>
<path d="M1515.96 417.634L1415.71 352.584C1415.12 352.362 1409.83 350.318 1399.98 344.073C1390.08 337.74 1388.55 324.618 1388.54 316.557C1388.54 313.863 1388.71 311.824 1388.84 310.624C1387.63 310.496 1386.41 310.379 1385.26 310.379C1377.25 310.379 1370.91 313.224 1368.28 314.635C1367.8 314.89 1367.47 315.079 1367.26 315.213C1367.7 325.64 1369.24 337.701 1373.51 347.001C1375.87 352.168 1378.98 356.457 1383.14 359.129C1389.39 363.151 1391.41 364.451 1391.56 364.551L1391.71 364.684L1391.78 364.84L1403.59 372.64L1504.14 437.883" stroke="#FEF9F0" stroke-width="2" stroke-miterlimit="10"/>
<path d="M1367.04 292.913L1367.7 293.268L1367.04 292.913Z" stroke="#FEF9F0" stroke-width="2" stroke-miterlimit="10"/>
<path d="M1365.03 308.252C1365.03 300.913 1365.49 295.391 1365.7 293.402C1357.18 296.629 1349.99 300.496 1345.76 303.024C1343.88 304.146 1342.62 304.963 1342.02 305.363C1341.98 305.835 1341.94 306.64 1341.94 308.074C1341.92 315.546 1343.51 333.946 1357.44 343.834C1362.03 347.101 1365.4 347.973 1367.72 347.973C1369.62 347.973 1370.68 347.429 1371.35 346.99C1366.22 335.101 1365.04 319.674 1365.03 308.252V308.252Z" stroke="#FEF9F0" stroke-width="2" stroke-miterlimit="10"/>
<path d="M1366.44 293.129L1366.06 293.507L1366.44 293.129Z" stroke="#FEF9F0" stroke-width="2" stroke-miterlimit="10"/>
<path d="M1214.78 173.614L1214.2 173.681C1204.05 174.798 1194.71 179.414 1192.5 180.531L1192.47 180.553L1191.34 205.758C1194.68 204.397 1203.87 200.597 1216.57 194.925L1216.6 194.986C1218.95 193.814 1228.25 189.464 1238.24 188.07C1235.32 176.692 1227.66 173.459 1218.92 173.37C1217.56 173.37 1216.17 173.453 1214.78 173.609L1214.78 173.614Z" stroke="#FEF9F0" stroke-width="2" stroke-miterlimit="10"/>
<path d="M1065.79 145.331H1066.58H1065.79Z" stroke="#FEF9F0" stroke-width="2" stroke-miterlimit="10"/>
<path d="M1239.66 189.986C1233.91 190.636 1228.2 192.431 1223.95 194.075C1220.78 195.297 1218.44 196.414 1217.45 196.908L1216.32 222.125C1219.62 220.78 1228.69 217.03 1241.19 211.453V211.43L1241.72 211.153C1241.78 211.13 1251.89 205.803 1263.09 204.036C1260.08 193.003 1252.51 189.825 1243.88 189.742C1242.49 189.742 1241.08 189.831 1239.67 189.992L1239.66 189.986Z" stroke="#FEF9F0" stroke-width="2" stroke-miterlimit="10"/>
<path d="M1165.38 165.287C1159.81 167.848 1141.24 175.842 1124.49 175.853C1118.02 175.853 1111.79 174.653 1106.69 171.37C1103.18 169.103 1097.61 165.564 1091.22 161.525L1091.63 160.82L1091.22 161.525C1083.37 156.559 1074.28 150.842 1066 145.637C1054.58 138.459 1017.7 115.77 1015.2 114.204" stroke="#FEF9F0" stroke-width="2" stroke-miterlimit="10"/>
<path d="M1167.06 164.492C1167.06 164.492 1166.45 164.798 1165.39 165.287" stroke="#FEF9F0" stroke-width="2" stroke-miterlimit="10"/>
<path d="M1165.39 191.003L1165.02 190.014C1165.02 190.014 1175.55 185.803 1191.46 178.703C1193.48 177.686 1203.04 173.109 1213.37 171.698C1210.44 160.353 1202.74 157.137 1194 157.048C1184.43 157.037 1174.02 161.225 1169.47 163.325C1167.95 164.025 1167.08 164.475 1167.08 164.481" stroke="#FEF9F0" stroke-width="2" stroke-miterlimit="10"/>
<path d="M992.123 128.948C995.992 131.581 1031.01 152.364 1039.02 157.764L1037.76 156.931L1039.09 157.809C1039.25 157.92 1039.4 158.02 1039.57 158.131C1047.15 163.248 1055.73 168.992 1063.9 174.392L1065.81 175.648L1065.86 175.609L1065.81 175.648C1074.53 181.403 1082.65 186.67 1088.24 190.086C1099.02 196.675 1111.12 198.897 1122.51 198.897C1139.58 198.897 1154.98 193.903 1161.58 191.403C1163.78 190.57 1164.98 190.031 1164.99 190.025" stroke="#FEF9F0" stroke-width="2" stroke-miterlimit="10"/>
<path d="M1143.75 168.864C1143.75 169.77 1143.69 170.425 1143.64 170.892C1152.65 168.498 1160.35 165.264 1163.93 163.631C1163.83 160.864 1163.31 150.598 1161.22 143.003L1162.2 142.715L1161.22 143.003C1159.53 136.676 1153.66 133.209 1150.73 131.309C1149.76 130.67 1144.21 128.215 1144.21 128.215L1121.54 141.181C1136.88 150.664 1143.78 163.598 1143.75 168.87V168.864Z" stroke="#FEF9F0" stroke-width="2" stroke-miterlimit="10"/>
<path d="M1165.92 162.709C1166.02 162.659 1166.15 162.598 1166.17 162.592C1166.23 162.575 1177.01 156.837 1188.67 155.314C1187.26 147.798 1180.39 141.159 1171.82 141.176C1169.15 141.176 1166.31 141.898 1163.4 143.353C1165.21 150.564 1165.77 159.259 1165.92 162.709V162.709Z" stroke="#FEF9F0" stroke-width="2" stroke-miterlimit="10"/>
<path d="M1541.04 374.717L1441.19 309.857C1441.16 309.835 1435.36 306.368 1415.63 293.774C1408.73 289.374 1401.02 287.713 1393.2 287.713C1392.3 287.713 1391.39 287.735 1390.49 287.78C1382.63 288.146 1374.83 290.146 1367.79 292.652L1367.82 292.807H1367.36C1367.29 292.829 1367.22 292.857 1367.15 292.879L1367.79 293.018L1367.77 293.207L1367.68 294.035C1367.61 294.768 1367.51 295.846 1367.42 297.207C1367.24 299.929 1367.06 303.768 1367.06 308.246C1367.06 309.668 1367.15 311.307 1367.19 312.84C1369.88 311.374 1376.58 308.268 1385.27 308.263C1386.83 308.263 1388.44 308.363 1390.12 308.596C1394.84 309.246 1399.97 310.929 1405.17 314.285C1419.96 323.829 1429.75 330.379 1429.75 330.379L1529.23 394.962" stroke="#FEF9F0" stroke-width="2" stroke-miterlimit="10"/>
<path d="M1340.19 254.73H1340.19L1340.21 254.991H1340.22L1340.19 254.73Z" stroke="#FEF9F0" stroke-width="2" stroke-miterlimit="10"/>
<path d="M1340.22 254.991C1334.43 255.613 1328.67 257.419 1324.37 259.069C1321.16 260.302 1318.79 261.435 1317.79 261.935L1316.66 287.152C1319.99 285.791 1329.17 281.996 1341.86 276.33C1342.08 276.224 1352.25 270.908 1363.48 269.202C1360.5 258.052 1352.9 254.852 1344.24 254.769C1342.91 254.769 1341.57 254.852 1340.23 254.997L1340.22 254.991Z" stroke="#FEF9F0" stroke-width="2" stroke-miterlimit="10"/>
<path d="M1390.47 287.23L1390.49 287.774L1390.47 287.23Z" stroke="#FEF9F0" stroke-width="2" stroke-miterlimit="10"/>
<path d="M1364.12 271.463L1364.06 271.241C1358.7 272.019 1353.48 273.674 1349.55 275.207C1346.48 276.402 1344.23 277.485 1343.26 277.969L1342.14 302.796C1347.87 299.152 1368.05 287.23 1389.12 285.78C1386.27 274.152 1378.54 270.869 1369.72 270.78C1368.31 270.78 1366.88 270.902 1365.45 271.063L1364.12 271.469V271.463Z" stroke="#FEF9F0" stroke-width="2" stroke-miterlimit="10"/>
<path d="M1315.24 238.463H1315.39H1315.24Z" stroke="#FEF9F0" stroke-width="2" stroke-miterlimit="10"/>
<path d="M1265.74 205.842L1263.79 206.43L1263.69 206.064C1258.39 206.864 1253.23 208.514 1249.36 210.03C1246.33 211.214 1244.12 212.28 1243.17 212.758L1242.04 237.975C1245.38 236.613 1254.56 232.814 1267.27 227.141L1267.29 227.202C1269.65 226.03 1278.94 221.68 1288.93 220.286C1286.01 208.897 1278.33 205.642 1269.59 205.558C1268.32 205.558 1267.03 205.692 1265.74 205.825V205.836V205.842Z" stroke="#FEF9F0" stroke-width="2" stroke-miterlimit="10"/>
<path d="M1290.34 222.041L1290.35 222.208C1284.6 222.858 1278.89 224.658 1274.64 226.297C1271.47 227.519 1269.13 228.636 1268.14 229.13L1267.01 254.347C1270.33 252.991 1279.43 249.23 1292.01 243.619C1294.06 242.586 1303.61 238.03 1313.9 236.613C1310.98 225.275 1303.32 222.041 1294.6 221.958C1293.19 221.958 1291.77 222.047 1290.36 222.208L1290.34 222.041V222.041Z" stroke="#FEF9F0" stroke-width="2" stroke-miterlimit="10"/>
<path d="M1239.65 189.82L1239.66 189.986L1239.65 189.82Z" stroke="#FEF9F0" stroke-width="2" stroke-miterlimit="10"/>
<path d="M1315.32 238.53C1305.18 239.647 1295.27 244.324 1293.04 245.447L1293.01 245.463L1291.88 270.669C1295.21 269.308 1304.41 265.508 1317.11 259.835L1317.14 259.908C1319.76 258.619 1328.95 254.397 1338.81 253.069C1335.92 241.619 1328.24 238.369 1319.47 238.28C1318.1 238.28 1316.71 238.369 1315.32 238.519V238.53Z" stroke="#FEF9F0" stroke-width="2" stroke-miterlimit="10"/>
<path d="M1340.03 304.707L1341.18 278.919C1327.97 284.796 1318.66 288.602 1316.44 289.502C1316.38 289.841 1316.3 290.324 1316.22 290.957C1316.06 292.246 1315.89 294.096 1315.89 296.302C1315.9 304.124 1317.94 316.251 1329.28 324.34C1334.93 328.374 1338.86 329.268 1341.26 329.268C1342.53 329.268 1343.25 329.046 1343.73 328.851C1340.51 320.668 1339.92 312.49 1339.91 308.074C1339.91 306.018 1340.02 304.807 1340.04 304.707H1340.03Z" stroke="#FEF9F0" stroke-width="2" stroke-miterlimit="10"/>
<path d="M1214.22 223.586L1215.38 197.753C1202.43 203.497 1193.32 207.23 1191.14 208.114C1191.08 208.453 1191 208.936 1190.92 209.569C1190.76 210.858 1190.59 212.708 1190.59 214.908C1190.6 222.73 1192.65 234.863 1203.98 242.947C1208.96 246.508 1212.15 247.38 1214.01 247.374C1215.47 247.363 1216.15 246.874 1216.42 246.608C1214.17 241.047 1213.53 235.502 1213.54 231.269C1213.54 226.886 1214.15 223.941 1214.22 223.586V223.586Z" stroke="#FEF9F0" stroke-width="2" stroke-miterlimit="10"/>
<path d="M854.936 126.731L903.474 96.1348H806.053L854.936 126.731Z" stroke="#FEF9F0" stroke-width="2" stroke-miterlimit="10"/>
<path d="M605 95.7678C614.305 101.685 631.855 112.222 653.714 125.432L700.723 96.1252L605 95.771V95.7678Z" stroke="#FEF9F0" stroke-width="2" stroke-miterlimit="10"/>
<path d="M756.23 65.069L803.049 94.2772L854.987 65.069H756.23Z" stroke="#FEF9F0" stroke-width="2" stroke-miterlimit="10"/>
<path d="M702.807 34L753.271 63.2114L804.853 34H702.807Z" stroke="#FEF9F0" stroke-width="2" stroke-miterlimit="10"/>
<path d="M704.072 94.4751L750.967 65.069H652.291L704.072 94.4751Z" stroke="#FEF9F0" stroke-width="2" stroke-miterlimit="10"/>
<path d="M800.643 95.755H706.122L753.384 125.317L800.643 95.755Z" stroke="#FEF9F0" stroke-width="2" stroke-miterlimit="10"/>
<path d="M624.457 100.91C629.911 104.376 640.192 110.549 652.999 118.289L680.54 101.117L624.457 100.91Z" stroke="#FEF9F0" stroke-width="2" stroke-miterlimit="10"/>
<path d="M643.848 105.8C645.62 106.926 648.965 108.934 653.128 111.449L662.08 105.867L643.845 105.8H643.848Z" stroke="#FEF9F0" stroke-width="2" stroke-miterlimit="10"/>
<path d="M724.85 100.91C730.303 104.376 740.584 110.549 753.392 118.289L780.932 101.117L724.85 100.91V100.91Z" stroke="#FEF9F0" stroke-width="2" stroke-miterlimit="10"/>
<path d="M744.241 105.8C746.012 106.926 749.357 108.934 753.52 111.449L762.473 105.867L744.237 105.8H744.241Z" stroke="#FEF9F0" stroke-width="2" stroke-miterlimit="10"/>
<path d="M724.875 38.9696C730.329 42.4359 740.61 48.6089 753.417 56.349L780.958 39.1771L724.875 38.9696Z" stroke="#FEF9F0" stroke-width="2" stroke-miterlimit="10"/>
<path d="M744.266 43.8595C746.038 44.9862 749.383 46.9938 753.546 49.509L762.499 43.9265L744.263 43.8595H744.266Z" stroke="#FEF9F0" stroke-width="2" stroke-miterlimit="10"/>
<path d="M675.174 70.2908C680.628 73.7571 690.909 79.93 703.716 87.6701L731.257 70.4982L675.174 70.2908Z" stroke="#FEF9F0" stroke-width="2" stroke-miterlimit="10"/>
<path d="M694.565 75.1806C696.337 76.3073 699.682 78.315 703.845 80.8301L712.798 75.2477L694.562 75.1806H694.565Z" stroke="#FEF9F0" stroke-width="2" stroke-miterlimit="10"/>
<path d="M775.988 70.2908C781.442 73.7571 791.723 79.93 804.53 87.6701L832.071 70.4982L775.988 70.2908Z" stroke="#FEF9F0" stroke-width="2" stroke-miterlimit="10"/>
<path d="M795.376 75.1806C797.147 76.3073 800.492 78.315 804.655 80.8301L813.608 75.2477L795.372 75.1806H795.376Z" stroke="#FEF9F0" stroke-width="2" stroke-miterlimit="10"/>
<path d="M826.357 101.29C831.811 104.756 842.091 110.929 854.899 118.669L882.44 101.497L826.357 101.29Z" stroke="#FEF9F0" stroke-width="2" stroke-miterlimit="10"/>
<path d="M845.748 106.179C847.52 107.306 850.865 109.314 855.028 111.829L863.98 106.246L845.745 106.179H845.748Z" stroke="#FEF9F0" stroke-width="2" stroke-miterlimit="10"/>
<path d="M788.677 1.41068C790.42 3.11621 792.303 4.68841 794.301 6.09951L794.473 6.21617L850.332 39.6547L940.063 96.1929L964.041 111.282L964.513 111.582L964.577 111.621L967.616 113.532L992.123 128.948" stroke="#FEF9F0" stroke-width="2" stroke-miterlimit="10"/>
<path d="M1015.2 114.209L991.887 99.3984L965.911 82.8986L836.096 0.438446" stroke="#FEF9F0" stroke-width="2" stroke-miterlimit="10"/>
<path d="M853.792 -17.9169L1094.81 126.62L1121.54 141.176" stroke="#FEF9F0" stroke-width="2" stroke-miterlimit="10"/>
<path d="M869.917 -35.9778C874.565 -32.2556 1115.02 114.498 1115.02 114.498L1145.33 127.326" stroke="#FEF9F0" stroke-width="2" stroke-miterlimit="10"/>
<path d="M356.396 128.704L383.145 114.498C383.145 114.498 623.598 -32.2556 628.245 -35.9778" stroke="#FEF9F0" stroke-width="2" stroke-miterlimit="10"/>
<path d="M378.81 141.681L408.986 127.787L637.259 -12.6114" stroke="#FEF9F0" stroke-width="2" stroke-miterlimit="10"/>
</svg>
