<svg id="Layer_1" data-name="Layer 1"
    xmlns="http://www.w3.org/2000/svg" viewBox="0 0 52.39 511.19">
    <defs>
        <style>.cls-1{fill:none;stroke:#000;stroke-miterlimit:10;stroke-width:0.5px;}</style>
    </defs>
    <path class="cls-1" d="M30.19,203.58h4.15V178.44a5,5,0,0,1-4.05,2.83Z"/>
    <polygon class="cls-1" points="18.03 255.35 22.27 255.35 22.27 255.55 22.26 255.53 22.27 255.53 22.27 253.94 18.03 253.94 18.03 255.35"/>
    <rect class="cls-1" x="18.03" y="255.35" width="4.24" height="1.45"/>
    <path class="cls-1" d="M30.17,206.61l-.06,18.44a2.49,2.49,0,0,1-.54,1.56,3.58,3.58,0,0,1-2.95,1.09h-4a4,4,0,0,0-3.8,2.66,10.61,10.61,0,0,0-.76,3.88v19.7h4.24V234.76a2.53,2.53,0,0,1,.54-1.56,3.58,3.58,0,0,1,2.95-1.08h4a4,4,0,0,0,3.79-2.66,10.79,10.79,0,0,0,.77-3.9V206.61Z"/>
    <rect class="cls-1" x="30.18" y="205.02" width="4.17" height="1.58"/>
    <rect class="cls-1" x="30.18" y="203.58" width="4.16" height="1.44"/>
    <path class="cls-1" d="M22.27,256.81H18V281.9c1.17-1.56,2.39-2.82,4.24-2.89Z"/>
    <path class="cls-1" d="M30.19,150.27h4.15V125.12A5,5,0,0,1,30.29,128Z"/>
    <polygon class="cls-1" points="18.03 202.04 22.27 202.04 22.27 202.23 22.26 202.22 22.27 202.21 22.27 200.63 18.03 200.63 18.03 202.04"/>
    <rect class="cls-1" x="18.03" y="202.04" width="4.24" height="1.45"/>
    <path class="cls-1" d="M30.17,153.29l-.06,18.45a2.48,2.48,0,0,1-.54,1.55,3.55,3.55,0,0,1-2.95,1.09h-4a4,4,0,0,0-3.8,2.66,10.65,10.65,0,0,0-.76,3.88v19.71h4.24V181.44a2.48,2.48,0,0,1,.54-1.55,3.55,3.55,0,0,1,2.95-1.09h4a3.94,3.94,0,0,0,3.79-2.66,10.75,10.75,0,0,0,.77-3.89v-19Z"/>
    <rect class="cls-1" x="30.18" y="151.71" width="4.17" height="1.58"/>
    <rect class="cls-1" x="30.18" y="150.27" width="4.16" height="1.44"/>
    <path class="cls-1" d="M22.27,203.49H18v25.09c1.17-1.55,2.39-2.82,4.24-2.88Z"/>
    <path class="cls-1" d="M30.19,96.62h4.15V71.47a5,5,0,0,1-4.05,2.83Z"/>
    <polygon class="cls-1" points="18.03 148.39 22.27 148.39 22.27 148.58 22.26 148.57 22.27 148.56 22.27 146.98 18.03 146.98 18.03 148.39"/>
    <rect class="cls-1" x="18.03" y="148.39" width="4.24" height="1.45"/>
    <path class="cls-1" d="M30.17,99.64l-.06,18.45a2.48,2.48,0,0,1-.54,1.55,3.55,3.55,0,0,1-2.95,1.09h-4a4,4,0,0,0-3.8,2.66,10.66,10.66,0,0,0-.76,3.89V147h4.24V127.79a2.48,2.48,0,0,1,.54-1.55,3.55,3.55,0,0,1,2.95-1.09h4a3.94,3.94,0,0,0,3.79-2.66,10.75,10.75,0,0,0,.77-3.89v-19Z"/>
    <rect class="cls-1" x="30.18" y="98.06" width="4.17" height="1.58"/>
    <rect class="cls-1" x="30.18" y="96.62" width="4.16" height="1.44"/>
    <path class="cls-1" d="M22.27,149.84H18v25.09c1.17-1.55,2.39-2.82,4.24-2.88Z"/>
    <path class="cls-1" d="M30.19,43.3h4.15V18.16A5,5,0,0,1,30.29,21Z"/>
    <polygon class="cls-1" points="18.03 95.07 22.27 95.07 22.27 95.26 22.26 95.25 22.27 95.24 22.27 93.66 18.03 93.66 18.03 95.07"/>
    <rect class="cls-1" x="18.03" y="95.07" width="4.24" height="1.45"/>
    <path class="cls-1" d="M30.17,46.32l-.06,18.45a2.48,2.48,0,0,1-.54,1.55,3.55,3.55,0,0,1-2.95,1.09h-4a4,4,0,0,0-3.8,2.66A10.66,10.66,0,0,0,18,74v19.7h4.24V74.48a2.49,2.49,0,0,1,.54-1.56,3.58,3.58,0,0,1,2.95-1.09h4a3.94,3.94,0,0,0,3.79-2.66,10.75,10.75,0,0,0,.77-3.89v-19Z"/>
    <rect class="cls-1" x="30.18" y="44.74" width="4.17" height="1.58"/>
    <rect class="cls-1" x="30.18" y="43.3" width="4.16" height="1.44"/>
    <path class="cls-1" d="M22.27,96.52H18v25.09c1.17-1.55,2.39-2.82,4.24-2.88Z"/>
    <path class="cls-1" d="M30.19,416.57h4.15V391.43a5,5,0,0,1-4.05,2.82Z"/>
    <polygon class="cls-1" points="18.03 468.34 22.27 468.34 22.27 468.53 22.26 468.52 22.27 468.51 22.27 466.93 18.03 466.93 18.03 468.34"/>
    <rect class="cls-1" x="18.03" y="468.34" width="4.24" height="1.45"/>
    <path class="cls-1" d="M30.17,419.59,30.11,438a2.48,2.48,0,0,1-.54,1.55,3.55,3.55,0,0,1-2.95,1.09h-4a4,4,0,0,0-3.8,2.66,10.66,10.66,0,0,0-.76,3.89v19.7h4.24V447.75a2.49,2.49,0,0,1,.54-1.56,3.58,3.58,0,0,1,2.95-1.09h4a3.94,3.94,0,0,0,3.79-2.66,10.75,10.75,0,0,0,.77-3.89v-19Z"/>
    <rect class="cls-1" x="30.18" y="418.01" width="4.17" height="1.58"/>
    <rect class="cls-1" x="30.18" y="416.57" width="4.16" height="1.44"/>
    <path class="cls-1" d="M22.27,469.79H18v25.09c1.17-1.55,2.39-2.82,4.24-2.88Z"/>
    <path class="cls-1" d="M30.19,363.25h4.15V338.11a5,5,0,0,1-4.05,2.82Z"/>
    <polygon class="cls-1" points="18.03 415.02 22.27 415.02 22.27 415.22 22.26 415.2 22.27 415.19 22.27 413.61 18.03 413.61 18.03 415.02"/>
    <rect class="cls-1" x="18.03" y="415.02" width="4.24" height="1.45"/>
    <path class="cls-1" d="M30.17,366.28l-.06,18.44a2.51,2.51,0,0,1-.54,1.56,3.55,3.55,0,0,1-2.95,1.08h-4a4,4,0,0,0-3.8,2.66,10.7,10.7,0,0,0-.76,3.89v19.7h4.24V394.43a2.49,2.49,0,0,1,.54-1.56,3.55,3.55,0,0,1,2.95-1.08h4a4,4,0,0,0,3.79-2.66,10.83,10.83,0,0,0,.77-3.9v-19Z"/>
    <rect class="cls-1" x="30.18" y="364.69" width="4.17" height="1.58"/>
    <rect class="cls-1" x="30.18" y="363.25" width="4.16" height="1.44"/>
    <path class="cls-1" d="M22.27,416.48H18v25.08c1.17-1.55,2.39-2.82,4.24-2.88Z"/>
    <path class="cls-1" d="M30.19,309.6h4.15V284.46a5,5,0,0,1-4.05,2.82Z"/>
    <polygon class="cls-1" points="18.03 361.37 22.27 361.37 22.27 361.57 22.26 361.55 22.27 361.55 22.27 359.96 18.03 359.96 18.03 361.37"/>
    <rect class="cls-1" x="18.03" y="361.37" width="4.24" height="1.45"/>
    <path class="cls-1" d="M30.17,312.63l-.06,18.44a2.49,2.49,0,0,1-.54,1.56,3.55,3.55,0,0,1-2.95,1.08h-4a4,4,0,0,0-3.8,2.66,10.7,10.7,0,0,0-.76,3.89V360h4.24V340.78a2.49,2.49,0,0,1,.54-1.56,3.55,3.55,0,0,1,2.95-1.08h4a4,4,0,0,0,3.79-2.66,10.83,10.83,0,0,0,.77-3.9V312.63Z"/>
    <rect class="cls-1" x="30.18" y="311.04" width="4.17" height="1.58"/>
    <rect class="cls-1" x="30.18" y="309.6" width="4.16" height="1.44"/>
    <path class="cls-1" d="M22.27,362.83H18v25.08c1.17-1.55,2.39-2.82,4.24-2.88Z"/>
    <path class="cls-1" d="M30.19,256.28h4.15V231.14A5,5,0,0,1,30.29,234Z"/>
    <polygon class="cls-1" points="18.03 308.05 22.27 308.05 22.27 308.25 22.26 308.23 22.27 308.23 22.27 306.64 18.03 306.64 18.03 308.05"/>
    <rect class="cls-1" x="18.03" y="308.05" width="4.24" height="1.45"/>
    <path class="cls-1" d="M30.17,259.31l-.06,18.44a2.49,2.49,0,0,1-.54,1.56,3.58,3.58,0,0,1-2.95,1.09h-4a4,4,0,0,0-3.8,2.66,10.61,10.61,0,0,0-.76,3.88v19.7h4.24V287.46a2.48,2.48,0,0,1,.54-1.55,3.55,3.55,0,0,1,2.95-1.09h4a4,4,0,0,0,3.79-2.66,10.79,10.79,0,0,0,.77-3.9V259.31Z"/>
    <rect class="cls-1" x="30.18" y="257.73" width="4.17" height="1.58"/>
    <rect class="cls-1" x="30.18" y="256.28" width="4.16" height="1.44"/>
    <path class="cls-1" d="M22.27,309.51H18V334.6c1.17-1.56,2.39-2.82,4.24-2.89Z"/>
</svg>