<svg id="Layer_1" data-name="Layer 1" xmlns="http://www.w3.org/2000/svg" viewBox="0 0 32.57 469.26"><defs><style>.cls-1{fill:none;stroke:#fff;stroke-miterlimit:10;stroke-width:0.5px;}</style></defs><path class="cls-1" d="M16.82,167.36c.18-7,.25-39.37.15-45.71"/><path class="cls-1" d="M16.56,235.68c0-2.59.27-48,.27-50.56"/><path class="cls-1" d="M21.67,120.84V121s0,47.95,0,56.44,0,17,0,17.2v.15c0,2.68-.09,36.92-.09,39.63"/><path class="cls-1" d="M11.94,238.69c0-2.59.09-36.72.09-39.3v-.65c0-4.92,0-9.84,0-14.76l-.07-21.32c0-.41,0-40.31,0-40.73"/><path class="cls-1" d="M11.92,172.85c.4-5.44,7.55-8.64,9.71-.83"/><path class="cls-1" d="M12,178.66c.4-5.45,7.55-8.64,9.71-.83"/><path class="cls-1" d="M12,184.51c.4-5.44,7.55-8.63,9.71-.82"/><path class="cls-1" d="M12,190.6c.4-5.44,7.55-8.63,9.71-.82"/><path class="cls-1" d="M16.82,54.08c.18-7,.25-39.37.15-45.71"/><path class="cls-1" d="M16.56,122.41c0-2.6.27-48,.27-50.56"/><path class="cls-1" d="M21.67,7.57v.16s0,47.94,0,56.44,0,17,0,17.2v.14c0,2.68-.09,36.93-.09,39.63"/><path class="cls-1" d="M11.94,125.42c0-2.59.09-36.73.09-39.3v-.65c0-4.92,0-9.84,0-14.77l-.07-21.31c0-.41,0-40.31,0-40.73"/><path class="cls-1" d="M11.92,59.58c.4-5.45,7.55-8.64,9.71-.83"/><path class="cls-1" d="M12,65.39c.4-5.45,7.55-8.64,9.71-.83"/><path class="cls-1" d="M12,71.24c.4-5.44,7.55-8.64,9.71-.83"/><path class="cls-1" d="M12,77.33c.4-5.44,7.55-8.63,9.71-.83"/><path class="cls-1" d="M16.82,389.28c.18-7,.25-39.37.15-45.71"/><path class="cls-1" d="M16.56,457.6c0-2.59.27-48,.27-50.55"/><path class="cls-1" d="M21.67,342.77v.15s0,47.95,0,56.44,0,17,0,17.2v.15c0,2.68-.09,36.92-.09,39.63"/><path class="cls-1" d="M11.94,460.61c0-2.59.09-36.72.09-39.3v-.65c0-4.92,0-9.84,0-14.76l-.07-21.32c0-.41,0-40.3,0-40.73"/><path class="cls-1" d="M11.92,394.77c.4-5.44,7.55-8.63,9.71-.82"/><path class="cls-1" d="M12,400.58c.4-5.44,7.55-8.64,9.71-.83"/><path class="cls-1" d="M12,406.44c.4-5.45,7.55-8.64,9.71-.83"/><path class="cls-1" d="M12,412.53c.4-5.45,7.55-8.64,9.71-.83"/><path class="cls-1" d="M16.82,276c.18-7,.25-39.37.15-45.71"/><path class="cls-1" d="M16.56,344.33c0-2.59.27-48,.27-50.56"/><path class="cls-1" d="M21.67,229.49v.16s0,47.94,0,56.44,0,17,0,17.2v.15c0,2.68-.09,36.92-.09,39.63"/><path class="cls-1" d="M11.94,347.34c0-2.59.09-36.73.09-39.3v-.65c0-4.92,0-9.84,0-14.76l-.07-21.32c0-.41,0-40.31,0-40.73"/><path class="cls-1" d="M11.92,281.5c.4-5.45,7.55-8.64,9.71-.83"/><path class="cls-1" d="M12,287.31c.4-5.45,7.55-8.64,9.71-.83"/><path class="cls-1" d="M12,293.16c.4-5.44,7.55-8.63,9.71-.82"/><path class="cls-1" d="M12,299.25c.4-5.44,7.55-8.63,9.71-.82"/></svg>