<svg width="420" height="16" viewBox="0 0 420 16" fill="none" xmlns="http://www.w3.org/2000/svg">
<path d="M164 5L164 1L142 1C142.684 1.35869 143.272 1.90704 143.707 2.59134C144.141 3.27564 144.406 4.07242 144.477 4.90361L164 5Z" stroke="#0D4C38" stroke-width="0.5" stroke-miterlimit="10"/>
<path d="M209.752 15L209.752 12L210 12L209.975 12.0071L209.975 12L208 12L208 15L209.752 15Z" stroke="#0D4C38" stroke-width="0.5" stroke-miterlimit="10"/>
<path d="M209 12L209 15L211 15L211 12L209 12Z" stroke="#0D4C38" stroke-width="0.5" stroke-miterlimit="10"/>
<path d="M167 4.59239L182.974 4.64395C183.464 4.64169 183.941 4.80539 184.325 5.10804C184.667 5.43145 184.929 5.82795 185.093 6.26732C185.257 6.70668 185.317 7.17732 185.269 7.64334L185.269 11.081C185.264 11.7954 185.483 12.4938 185.896 13.0791C186.309 13.6644 186.895 14.1075 187.574 14.3468C188.643 14.7716 189.783 14.9931 190.935 15L208 15L208 11.356L191.385 11.356C190.895 11.3556 190.419 11.1922 190.034 10.892C189.694 10.5677 189.433 10.1709 189.271 9.73156C189.109 9.29223 189.05 8.82201 189.098 8.35666L189.098 4.91897C189.102 4.20601 188.882 3.50953 188.469 2.92595C188.057 2.34238 187.471 1.90059 186.794 1.66175C185.719 1.23548 184.573 1.01109 183.416 1L167 1L167 4.59239Z" stroke="#0D4C38" stroke-width="0.5" stroke-miterlimit="10"/>
<path d="M165 1L165 5L167 5L167 1L165 1Z" stroke="#0D4C38" stroke-width="0.5" stroke-miterlimit="10"/>
<path d="M164 1L164 5L165 5L165 1L164 1Z" stroke="#0D4C38" stroke-width="0.5" stroke-miterlimit="10"/>
<path d="M211 12L211 15L233 15C231.632 14.178 230.527 13.3208 230.466 12.0211L211 12Z" stroke="#0D4C38" stroke-width="0.5" stroke-miterlimit="10"/>
<path d="M117 5L117 1L95 1C95.6923 1.35222 96.289 1.89776 96.7309 2.58251C97.1729 3.26726 97.4446 4.06742 97.5193 4.90361L117 5Z" stroke="#0D4C38" stroke-width="0.5" stroke-miterlimit="10"/>
<path d="M162.881 15L162.881 12L163 12L162.994 12.0071L162.988 12L162 12L162 15L162.881 15Z" stroke="#0D4C38" stroke-width="0.5" stroke-miterlimit="10"/>
<path d="M163 12L163 15L164 15L164 12L163 12Z" stroke="#0D4C38" stroke-width="0.5" stroke-miterlimit="10"/>
<path d="M120.035 4.59239L136.39 4.64395C136.89 4.64296 137.374 4.80663 137.764 5.10804C138.116 5.43028 138.385 5.82661 138.553 6.2663C138.721 6.70598 138.781 7.17718 138.731 7.64334L138.731 11.081C138.725 11.7954 138.949 12.4938 139.372 13.0791C139.794 13.6644 140.394 14.1075 141.089 14.3468C142.183 14.7708 143.35 14.9923 144.528 15L162 15L162 11.356L144.989 11.356C144.49 11.357 144.005 11.1934 143.615 10.892C143.264 10.5697 142.994 10.1734 142.827 9.7337C142.659 9.29402 142.598 8.82282 142.649 8.35666L142.649 4.91897C142.661 4.20424 142.439 3.5042 142.015 2.91911C141.592 2.33402 140.988 1.89388 140.291 1.66175C139.194 1.23576 138.024 1.01136 136.843 1L120 1L120.035 4.59239Z" stroke="#0D4C38" stroke-width="0.5" stroke-miterlimit="10"/>
<path d="M119 1L119 5L120 5L120 1L119 1Z" stroke="#0D4C38" stroke-width="0.5" stroke-miterlimit="10"/>
<path d="M117 1L117 5L119 5L119 1L117 1Z" stroke="#0D4C38" stroke-width="0.5" stroke-miterlimit="10"/>
<path d="M164 12L164 15L186 15C184.641 14.178 183.527 13.3208 183.475 12.0211L164 12Z" stroke="#0D4C38" stroke-width="0.5" stroke-miterlimit="10"/>
<path d="M71 5L71 1L49 1C49.6841 1.35869 50.272 1.90704 50.7059 2.59134C51.1399 3.27564 51.4051 4.07242 51.4755 4.90361L71 5Z" stroke="#0D4C38" stroke-width="0.5" stroke-miterlimit="10"/>
<path d="M115.881 15L115.881 12L116 12L115.994 12.0071L115.987 12L115 12L115 15L115.881 15Z" stroke="#0D4C38" stroke-width="0.5" stroke-miterlimit="10"/>
<path d="M116 12L116 15L117 15L117 12L116 12Z" stroke="#0D4C38" stroke-width="0.5" stroke-miterlimit="10"/>
<path d="M73.0354 4.59239L89.3835 4.64395C89.8824 4.64296 90.3667 4.80663 90.757 5.10804C91.1079 5.43028 91.3776 5.82661 91.5451 6.2663C91.7126 6.70598 91.7734 7.17718 91.7228 7.64334L91.7228 11.081C91.7171 11.7954 91.941 12.4938 92.3634 13.0791C92.7858 13.6644 93.3857 14.1075 94.0797 14.3468C95.1765 14.7716 96.3456 14.9932 97.5266 15L115 15L115 11.356L97.9785 11.356C97.4796 11.357 96.9953 11.1934 96.6051 10.892C96.2541 10.5697 95.9844 10.1734 95.8169 9.7337C95.6494 9.29402 95.5886 8.82282 95.6392 8.35666L95.6392 4.91897C95.6511 4.20424 95.4295 3.5042 95.0061 2.91911C94.5827 2.33402 93.9793 1.89388 93.2823 1.66175C92.1856 1.23576 91.0168 1.01136 89.8354 1L73 1L73.0354 4.59239Z" stroke="#0D4C38" stroke-width="0.5" stroke-miterlimit="10"/>
<path d="M72 1L72 5L73 5L73 1L72 1Z" stroke="#0D4C38" stroke-width="0.5" stroke-miterlimit="10"/>
<path d="M71 1L71 5L72 5L72 1L71 1Z" stroke="#0D4C38" stroke-width="0.5" stroke-miterlimit="10"/>
<path d="M117 12L117 15L139 15C137.641 14.178 136.527 13.3208 136.475 12.0211L117 12Z" stroke="#0D4C38" stroke-width="0.5" stroke-miterlimit="10"/>
<path d="M24 5L24 1L2 1C2.68605 1.3574 3.27589 1.9052 3.71162 2.58959C4.14734 3.27398 4.41396 4.07143 4.48528 4.90361L24 5Z" stroke="#0D4C38" stroke-width="0.5" stroke-miterlimit="10"/>
<path d="M68.8812 15L68.8812 12L69 12L68.9937 12.0071L68.9875 12L68 12L68 15L68.8812 15Z" stroke="#0D4C38" stroke-width="0.5" stroke-miterlimit="10"/>
<path d="M69 12L69 15L70 15L70 12L69 12Z" stroke="#0D4C38" stroke-width="0.5" stroke-miterlimit="10"/>
<path d="M27.0346 4.54082L42.9867 4.59239C43.4735 4.5914 43.9461 4.75506 44.3269 5.05648C44.6693 5.37871 44.9325 5.77505 45.0959 6.21473C45.2594 6.65441 45.3187 7.12562 45.2693 7.59177L45.2693 11.0295C45.2637 11.7439 45.4822 12.4423 45.8944 13.0276C46.3065 13.6129 46.8919 14.056 47.5692 14.2953C48.6467 14.742 49.7998 14.9811 50.9671 15L68 15L68 11.356L51.3821 11.356C50.8925 11.3583 50.4167 11.1946 50.0333 10.892C49.6924 10.5685 49.4304 10.172 49.267 9.73268C49.1037 9.29332 49.0435 8.82268 49.0909 8.35666L49.0909 4.91897C49.1025 4.20424 48.8862 3.5042 48.4731 2.91911C48.06 2.33402 47.4712 1.89389 46.791 1.66176C45.7209 1.23576 44.5804 1.01136 43.4277 0.999999L27 0.999999L27.0346 4.54082Z" stroke="#0D4C38" stroke-width="0.5" stroke-miterlimit="10"/>
<path d="M25 1L25 5L27 5L27 1L25 1Z" stroke="#0D4C38" stroke-width="0.5" stroke-miterlimit="10"/>
<path d="M24 1L24 5L25 5L25 1L24 1Z" stroke="#0D4C38" stroke-width="0.5" stroke-miterlimit="10"/>
<path d="M70 12L70 15L92 15C90.6409 14.178 89.5273 13.3208 89.4747 12.0211L70 12Z" stroke="#0D4C38" stroke-width="0.5" stroke-miterlimit="10"/>
<path d="M350 5L350 1L328 1C328.683 1.35997 329.269 1.90889 329.702 2.5931C330.134 3.27731 330.398 4.07341 330.468 4.90361L350 5Z" stroke="#0D4C38" stroke-width="0.5" stroke-miterlimit="10"/>
<path d="M395.762 15L395.762 12L396 12L395.987 12.0071L395.975 12L394 12L394 15L395.762 15Z" stroke="#0D4C38" stroke-width="0.5" stroke-miterlimit="10"/>
<path d="M396 12L396 15L397 15L397 12L396 12Z" stroke="#0D4C38" stroke-width="0.5" stroke-miterlimit="10"/>
<path d="M353.035 4.59239L368.979 4.64395C369.467 4.64296 369.94 4.80663 370.321 5.10804C370.665 5.43028 370.928 5.82661 371.092 6.2663C371.256 6.70598 371.315 7.17718 371.266 7.64334L371.266 11.081C371.26 11.7954 371.479 12.4938 371.892 13.0791C372.305 13.6644 372.891 14.1075 373.569 14.3468C374.641 14.7716 375.784 14.9932 376.938 15L394 15L394 11.356L377.423 11.356C376.933 11.3583 376.456 11.1946 376.072 10.892C375.731 10.5685 375.468 10.172 375.305 9.73268C375.141 9.29331 375.081 8.82268 375.128 8.35666L375.128 4.91897C375.14 4.20424 374.923 3.5042 374.509 2.91911C374.096 2.33402 373.506 1.89388 372.824 1.66175C371.753 1.23576 370.61 1.01136 369.455 1L353 1L353.035 4.59239Z" stroke="#0D4C38" stroke-width="0.5" stroke-miterlimit="10"/>
<path d="M352 1L352 5L353 5L353 1L352 1Z" stroke="#0D4C38" stroke-width="0.5" stroke-miterlimit="10"/>
<path d="M350 1L350 5L352 5L352 1L350 1Z" stroke="#0D4C38" stroke-width="0.5" stroke-miterlimit="10"/>
<path d="M397 12L397 15L419 15C417.641 14.178 416.527 13.3208 416.475 12.0211L397 12Z" stroke="#0D4C38" stroke-width="0.5" stroke-miterlimit="10"/>
<path d="M304 5L304 1L282 1C282.683 1.35997 283.269 1.90889 283.702 2.5931C284.134 3.27731 284.398 4.07341 284.468 4.90361L304 5Z" stroke="#0D4C38" stroke-width="0.5" stroke-miterlimit="10"/>
<path d="M348.876 15L348.876 12L349 12L348.988 12.0071L348.981 12L348 12L348 15L348.876 15Z" stroke="#0D4C38" stroke-width="0.5" stroke-miterlimit="10"/>
<path d="M349 12L349 15L350 15L350 12L349 12Z" stroke="#0D4C38" stroke-width="0.5" stroke-miterlimit="10"/>
<path d="M306.044 4.59239L322.39 4.64395C322.892 4.64306 323.38 4.8066 323.773 5.10804C324.123 5.43109 324.391 5.82779 324.557 6.26743C324.723 6.70707 324.782 7.17786 324.731 7.64334L324.731 11.081C324.725 11.7954 324.949 12.4938 325.372 13.0791C325.794 13.6644 326.394 14.1075 327.089 14.3468C328.186 14.7709 329.356 14.9924 330.537 15L348 15L348 11.356L330.998 11.356C330.496 11.3583 330.008 11.1946 329.615 10.892C329.266 10.5689 328.997 10.1722 328.831 9.73257C328.665 9.29292 328.606 8.82214 328.658 8.35666L328.658 4.91897C328.662 4.20601 328.437 3.50953 328.014 2.92595C327.592 2.34238 326.993 1.90059 326.3 1.66175C325.199 1.23625 324.027 1.01189 322.843 1L306 1L306.044 4.59239Z" stroke="#0D4C38" stroke-width="0.5" stroke-miterlimit="10"/>
<path d="M305 1L305 5L306 5L306 1L305 1Z" stroke="#0D4C38" stroke-width="0.5" stroke-miterlimit="10"/>
<path d="M304 1L304 5L305 5L305 1L304 1Z" stroke="#0D4C38" stroke-width="0.5" stroke-miterlimit="10"/>
<path d="M350 12L350 15L372 15C370.64 14.178 369.526 13.3208 369.474 12.0211L350 12Z" stroke="#0D4C38" stroke-width="0.5" stroke-miterlimit="10"/>
<path d="M257 5L257 1L235 1C235.683 1.35997 236.269 1.90889 236.702 2.5931C237.134 3.27731 237.398 4.07341 237.468 4.90361L257 5Z" stroke="#0D4C38" stroke-width="0.5" stroke-miterlimit="10"/>
<path d="M301.876 15L301.876 12L302 12L301.988 12.0071L301.988 12L301 12L301 15L301.876 15Z" stroke="#0D4C38" stroke-width="0.5" stroke-miterlimit="10"/>
<path d="M302 12L302 15L303 15L303 12L302 12Z" stroke="#0D4C38" stroke-width="0.5" stroke-miterlimit="10"/>
<path d="M259 4.59239L275.35 4.64395C275.852 4.64169 276.34 4.80539 276.733 5.10804C277.082 5.43109 277.351 5.82779 277.517 6.26743C277.683 6.70707 277.742 7.17786 277.69 7.64334L277.69 11.081C277.685 11.7954 277.909 12.4938 278.331 13.0791C278.754 13.6644 279.354 14.1075 280.049 14.3468C281.146 14.7709 282.316 14.9924 283.498 15L301 15L301 11.356L283.959 11.356C283.457 11.3583 282.969 11.1946 282.576 10.892C282.226 10.5689 281.958 10.1722 281.792 9.73257C281.626 9.29292 281.566 8.82214 281.618 8.35666L281.618 4.91897C281.622 4.20601 281.397 3.50953 280.975 2.92595C280.552 2.34238 279.953 1.90059 279.26 1.66175C278.159 1.23625 276.987 1.01189 275.802 1L259 1L259 4.59239Z" stroke="#0D4C38" stroke-width="0.5" stroke-miterlimit="10"/>
<path d="M258 1L258 5L259 5L259 1L258 1Z" stroke="#0D4C38" stroke-width="0.5" stroke-miterlimit="10"/>
<path d="M257 1L257 5L258 5L258 1L257 1Z" stroke="#0D4C38" stroke-width="0.5" stroke-miterlimit="10"/>
<path d="M303 12L303 15L325 15C323.64 14.178 322.526 13.3208 322.474 12.0211L303 12Z" stroke="#0D4C38" stroke-width="0.5" stroke-miterlimit="10"/>
<path d="M210 5L210 1L188 1C188.689 1.35482 189.283 1.90149 189.722 2.58606C190.161 3.27063 190.43 4.06943 190.503 4.90361L210 5Z" stroke="#0D4C38" stroke-width="0.5" stroke-miterlimit="10"/>
<path d="M255.752 15L255.752 12L256 12L255.975 12.0071L255.975 12L254 12L254 15L255.752 15Z" stroke="#0D4C38" stroke-width="0.5" stroke-miterlimit="10"/>
<path d="M255 12L255 15L257 15L257 12L255 12Z" stroke="#0D4C38" stroke-width="0.5" stroke-miterlimit="10"/>
<path d="M213 4.59239L228.974 4.64395C229.464 4.64169 229.941 4.80539 230.325 5.10804C230.667 5.43145 230.929 5.82795 231.093 6.26732C231.257 6.70668 231.317 7.17732 231.269 7.64334L231.269 11.081C231.264 11.7954 231.483 12.4938 231.896 13.0791C232.309 13.6644 232.895 14.1075 233.574 14.3468C234.643 14.7716 235.783 14.9931 236.935 15L254 15L254 11.356L237.385 11.356C236.897 11.357 236.424 11.1934 236.042 10.892C235.699 10.5697 235.436 10.1734 235.272 9.7337C235.108 9.29402 235.049 8.82282 235.098 8.35666L235.098 4.91897C235.102 4.20601 234.882 3.50953 234.469 2.92595C234.057 2.34238 233.471 1.90059 232.794 1.66175C231.719 1.23548 230.573 1.01109 229.416 1L213 1L213 4.59239Z" stroke="#0D4C38" stroke-width="0.5" stroke-miterlimit="10"/>
<path d="M211 1L211 5L213 5L213 1L211 1Z" stroke="#0D4C38" stroke-width="0.5" stroke-miterlimit="10"/>
<path d="M210 1L210 5L211 5L211 1L210 1Z" stroke="#0D4C38" stroke-width="0.5" stroke-miterlimit="10"/>
<path d="M257 12L257 15L279 15C277.632 14.178 276.527 13.3208 276.466 12.0211L257 12Z" stroke="#0D4C38" stroke-width="0.5" stroke-miterlimit="10"/>
</svg>
