<svg id="Layer_1" data-name="Layer 1" xmlns="http://www.w3.org/2000/svg" viewBox="0 0 112.42 31.39"><defs><style>.cls-1{fill:#005137}</style></defs><path class="cls-1" d="M91.55 10a2.49 2.49 0 00-1.61.37 9.61 9.61 0 00-2.16 2c0 .23-.11.2.07.4a1.15 1.15 0 00.66.37.89.89 0 00.4 0 .75.75 0 00.34-.29 1.47 1.47 0 01.25-.3c.89-.89 2-2 2.27-2 .13 0 .26.11.22.36a18.61 18.61 0 01-2.21 3.26 6.9 6.9 0 00-1.52 2.54 1.24 1.24 0 00.33.86 1.33 1.33 0 00.78.51.62.62 0 00.36 0 .4.4 0 00.22-.34 3 3 0 00.06-.51c-.78 0-.65-.52-.56-.67.21-.37 1.54-1.16 2.5-2.29a5.28 5.28 0 001-2.45 1 1 0 00-.34-1.15 2 2 0 00-1.06-.67M90 20.71a1.23 1.23 0 000-.39 1.53 1.53 0 01.07-.49.86.86 0 000-.46 1.17 1.17 0 00-1-.66c-.3-.06-.48-.05-.56 0a.47.47 0 00-.13.25 1.13 1.13 0 000 .31 2.2 2.2 0 010 .35 1.62 1.62 0 000 .57 1.64 1.64 0 00.41.61 1.13 1.13 0 00.61.35.58.58 0 00.57-.21.47.47 0 00.11-.25M46.93 21c-.74.5-1.46 2.93-1 3.5.2.23 1.48-2 1-3.5m-5.29 5.37c-2.2 2.14-4.74 6-4.47 6.7a.25.25 0 000 .15c.13.27.25.3.52.11a5.41 5.41 0 001.55-1.75c.5-.83 1-1.69 1.38-2.56a10.72 10.72 0 001-2.65M37 34.23c-.13-.09-.27-.16-.39-.26a1.21 1.21 0 01-.17-1.67c.64-1.56 2.85-4.34 5.41-7.11.06-.57.28-1.73.31-2.32a2.54 2.54 0 01-.16.38 8.13 8.13 0 01-1.6 2.17.86.86 0 01-1.06.24 1 1 0 01-.6-1.1 9.83 9.83 0 01.69-2.42c.32-.69.63-1.38 1-2.06.12-.23.26-.48.58-.49s.6.4.42.84c-.35.87-.72 1.74-1.07 2.62-.15.37-.28.75-.41 1.12a.48.48 0 00.11.59 5.76 5.76 0 00.56-.66c.48-.8.93-1.63 1.4-2.45a3.85 3.85 0 00.54-1.79.62.62 0 01.27-.43c.1-.05.31 0 .42.12a1.24 1.24 0 01.4 1.1c-.05 1.05-.1 2.09-.14 3.15.35-.23.74-.49 1.12-.76.07-.05.09-.16.13-.25.26-.66.48-1.33.8-2a3.79 3.79 0 01.81-1 .89.89 0 011.36.21 2 2 0 01.4 1.55c.59.14 2.48-1.47 2.58-1.7a.43.43 0 01.64-.27.88.88 0 01.51 1.09c-.19.58-.4 1.14-.58 1.72-.09.28-.16.89-.07.89s.15-.13.2-.21c.37-.61.72-1.23 1.1-1.83s.78-1.22 1.2-1.81.72-.44 1.12-.05.25.63 0 1a8.7 8.7 0 00-.43 1c-.17.39-.35.78-.5 1.18-.06.14-.14.44 0 .47.79-.18 1.39-1.35 2.12-2.49a1.92 1.92 0 00.14-.33c.24-.64.46-1.29.69-1.93.13-.36.38-.44.68-.25a.73.73 0 01.26 1c-.07.24-.15.47-.23.71v.07a18.3 18.3 0 013-1.82c.09 0 .23-.05.31.07a.43.43 0 01-.14.37 8.59 8.59 0 00-3.56 3.66c-.27.55-.56 1.1-.85 1.65a.5.5 0 01-.82.1c-.25-.26-.16-.59-.12-.9a1.17 1.17 0 000-.33l-.24.37c-.12.19-.22.39-.35.56a1.12 1.12 0 01-1.79.16l-.36-.42a11.15 11.15 0 01-.78.87 2.47 2.47 0 01-.76.49c-.16.06-.37-.05-.56-.09a2 2 0 01-.23-.07c-.85-.18-1.1-.59-.83-1.46.2-.65.44-1.28.67-1.91 0-.07.05-.13.07-.19a3.28 3.28 0 01-2.22 1.5c-.11.54-.53 1.78-.71 2.3a1.31 1.31 0 01-1.81.87 1.66 1.66 0 01-1.07-1.68 2.62 2.62 0 010-.29 16.58 16.58 0 00-1.25 1.29c-.06.24-.14.5-.2.76-.38 2.09-3.14 9.2-6 8.56M86 11a18.7 18.7 0 00-1.69 4.63.13.13 0 00.06-.07 18.48 18.48 0 001.63-3.5A1.92 1.92 0 0086 11m-5.79 10.22c.07.12.67-.29 1.76-1.87a3.21 3.21 0 00.31-1.51c0-.2-.07-.49-.2-.55-.82-.11-1.66 2.05-1.82 3a2.71 2.71 0 00-.05.94m4.37-.29a2.82 2.82 0 01-1 .73c-.46.22-1-.19-1.14-.7a7 7 0 01-.22-1.21c-.3.42-.62.88-1 1.33a2.33 2.33 0 01-1.12 1 .73.73 0 01-.9-.33 3.06 3.06 0 01-.33-.95 2.88 2.88 0 010-.61c-.33.38-.62.75-1 1.08a1.86 1.86 0 01-.71.52.88.88 0 01-.7-.15 1.09 1.09 0 01-.39-1.1c.07-.63.16-1.26.2-1.91-.27.38-.54.76-.8 1.15l-2 2.94a.63.63 0 01-1.19-.38 11.93 11.93 0 01.3-1.65c.26-.95.57-1.89.85-2.84.12-.4.32-.46.61-.2a3.44 3.44 0 01.44.41.66.66 0 01.08.4c0 .24-.06.49-.1.77.41-.52.78-1 1.17-1.47a1.51 1.51 0 011.78-.46.5.5 0 01.3.53c-.08.61-.17 1.22-.26 1.83 0 .34-.12.69-.19 1.1a5.78 5.78 0 001.72-1.5c.15-.28.19-.48.45-1a4.3 4.3 0 012-1.8.88.88 0 011.08.33l.12.14a18.69 18.69 0 012.71-6.81.62.62 0 01.76-.22 1.32 1.32 0 01.56 1.29c-.11.45-.21.9-.36 1.34a15.68 15.68 0 01-1.42 3.09A6.21 6.21 0 0083.79 18a15.71 15.71 0 00-.24 2.64 2.35 2.35 0 00.09.36l.23-.29c.61-.77 1.14-.3.71.24m-59.11 5.27a2 2 0 00.62-.93c.09-.42.22-.84.31-1.26s.12-.87.19-1.37a4.36 4.36 0 00-1.12 3.56m-1.34-2a5.67 5.67 0 00.8-1.36 6.82 6.82 0 01.9-1.23.9.9 0 011.48.18 2.07 2.07 0 01.38 1.47 2 2 0 001.73-1s.08-.14.09-.22c0-.34 0-.68.11-1 0-.18.1-.44.22-.49.3-.13.63-.29.95-.05a1.09 1.09 0 01.42 1.2c-.12.6-.26 1.2-.37 1.79a3.91 3.91 0 00-.07 1.08c.15-.37.31-.74.46-1.12s.23-.59.38-.87a4.06 4.06 0 00.45-1.35c0-.38.28-.51.64-.4.71.22.84.51.67 1.28a16.1 16.1 0 00-.2 3.31 16.62 16.62 0 001.5-5.66c0-.12.54-.09.53.44a14.22 14.22 0 01-1.92 6.3c-.1.21-.27.49-.56.47a.71.71 0 01-.68-.54 9.22 9.22 0 01-.27-1.45 11.86 11.86 0 010-1.34l-1 2.11c-.1.19-.25.34-.35.53a.64.64 0 01-.75.34s-.09 0-.12-.09a1.2 1.2 0 01-.27-1c.08-.85.14-1.7.21-2.54v-.25A3.2 3.2 0 0127.75 24c-.12.55-.63 1.87-.82 2.4a1.28 1.28 0 01-1.79.85 1.7 1.7 0 01-1-2.13c0-.12.05-.24.1-.41-.27.31-.48.59-.73.84a4.17 4.17 0 01-.67.59.73.73 0 01-1.08-.14 1.29 1.29 0 01-.23-.94c.08-.63.16-1.26.2-1.92l-.8 1.14-1.8 2.72c-.06.09-.14.17-.2.26a.68.68 0 01-.71.33.67.67 0 01-.47-.67 13.56 13.56 0 01.25-1.7c.26-1 .58-1.94.87-2.9.07-.24.19-.37.43-.33.07 0 .12.12.2.16a1 1 0 01.45 1.2.6.6 0 000 .35c.12-.17.22-.35.35-.51.29-.36.57-.73.88-1.07a1.48 1.48 0 011.66-.33.5.5 0 01.3.53c-.08.61-.17 1.22-.26 1.83-.05.34-.11.69-.17 1 .21.23 1-.64 1.38-1m40.5-6.07c.35-.55.65-1 1-1.54.14-.21.31-.41.44-.64a.74.74 0 01.88-.34 1 1 0 01.62.63.35.35 0 010 .2c-.35 1.52-1 4.63-1 4.58.09-.22.18-.44.26-.66.51-1.31 2.21-5.14 2.54-5.71a.5.5 0 01.81-.1c.44.36.34.85.24 1.33-.27 1.29-.55 2.59-.85 3.88-.15.61-.88 3.82-.9 4.22a.56.56 0 01-.42.53c-.21.07-.43-.13-.43-.44a11.8 11.8 0 01.16-1.87c.32-1.78 1-5.38 1-5.43-.34.73-2.07 4.88-2.31 5.52s-.61 1.62-.91 1.53c-.74-.35-.85-.55-.7-1.39.28-1.61.58-3.23.87-4.83-.46.85-1 1.72-1.42 2.62-.36.69-.64 1.41-1 2.1-.12.24-.25.64-.53.63s-.53-.33-.45-.71c.31-1.4.62-2.81.94-4.21.13-.6.31-1.19.43-1.79a7.45 7.45 0 000-.82c0-.11.05-.28.13-.33a.37.37 0 01.34 0 1.42 1.42 0 01.64 1.12 4.42 4.42 0 01-.3 1.68v.23" transform="translate(-12.25 -9.83)"/><path class="cls-1" d="M17 29a14.37 14.37 0 01-2.32-3.51c-.12.42-.21.76-.31 1.09-.2.73-.4 1.45-.62 2.18-.06.21-.12.53-.41.59s-.29.22-.55.26-.54-.35-.49-.6c.26-1.28.53-2.55.77-3.83s.5-2.84.74-4.26a10.31 10.31 0 01.8-2.75.85.85 0 01.37-.38 1.76 1.76 0 01.69.12c.58.22.5.77.48 1.24a8.76 8.76 0 01-.25 1.59 9.67 9.67 0 01-.36 1l-.21.62a1.52 1.52 0 00.49-.33c.68-.7 1.31-1.44 2-2.11a23.68 23.68 0 012-1.65c.18.18.32.59.19.78a3.16 3.16 0 01-.37.45c-.78.79-1.56 1.58-2.35 2.36-.62.62-1.25 1.24-1.89 1.85-.12.12-.16.2-.09.36a10.92 10.92 0 001 2c.41.6.92 1.55 1.27 2.19.09.17-.26.68-.61.74m55.46-10.13c0 .08-.06.22-.11.36-.43 1.09-.86 2.18-1.3 3.26a2.13 2.13 0 01-.56 1c-.15.11-.25.15-.38 0s-.14-.05-.19-.1a.35.35 0 01-.16-.2 3.51 3.51 0 01.17-1.89c.36-1 .71-2 1.09-3a.62.62 0 01.37-.28 1 1 0 011.07.82m.08-3.01a2.66 2.66 0 01.76.34c.26.18.19.35-.1.52a3.2 3.2 0 00-.74.59c-.21.21-.39.09-.53 0a.44.44 0 01-.13-.38 4.67 4.67 0 01.38-.89.38.38 0 01.36-.19M110 30.2c-.51.51-1.19.9-1.35 1.75A3.15 3.15 0 00110 30.2m4.89-5c-.43-.17-1.34 1.52-1.64 2.56.88-.53 1.89-2.06 1.64-2.56m2.4.73c0 .09 0 .09.08 0l1.83-4.09c0-.09-.06-.09-.1 0a14.3 14.3 0 00-1.81 4.1m3.94.35a10.14 10.14 0 002.12-3.87 1.37 1.37 0 00-.06-.64 33.28 33.28 0 00-2.06 4.51m-.68 1.78c-.21.44-.57 1.2-.76 1.63a15.12 15.12 0 00-1.28 4.1 7.15 7.15 0 00-.11 1.2c0 .2 0 .62.15.64 1-1.24 2.53-5.86 2.33-7.1a.49.49 0 01-.37-.4M108.89 28c.85-.1 1.65-.16 2.16.59.33-.18.64-.34.94-.53a.54.54 0 00.2-.28 8.37 8.37 0 011.89-3c.57-.53 1-.51 1.39-.29a1.24 1.24 0 01.28 1.51 4.72 4.72 0 01-2.63 2.65 6.16 6.16 0 00-.21 2.29.42.42 0 00.66 0c.26-.22 1.83-2.58 2.25-3.06 0-.23 0-.28.08-.53a13.17 13.17 0 012.53-6.57c.6-.69 1-.45 1.24-.35a.81.81 0 01.37.86 33.21 33.21 0 01-2 4.63c-.38.71-.79 1.41-1.2 2.11a2.41 2.41 0 00.13 2.12.42.42 0 00.55 0 3.08 3.08 0 001.09-1.41c.59-1.26 1.12-2.55 1.69-3.82.42-1 .86-1.91 1.33-2.85a4.17 4.17 0 01.68-.94c.46-.49.87-.4 1.25.08.9 1.17-1 4.37-2.12 5.58a1.6 1.6 0 01.5.67l2.64-2.25a3.39 3.39 0 01-.86 1.18c-.51.54-1.06 1-1.59 1.58a.49.49 0 00-.09.28 14.91 14.91 0 01-.59 3.85 11.13 11.13 0 01-2.3 4.09 2.41 2.41 0 01-.46.37.56.56 0 01-.63 0 1.47 1.47 0 01-.9-1.44 19.66 19.66 0 01.3-2.29c.12-.67.33-1.33.5-2a1.06 1.06 0 000-.2c-1.11.66-1.91.27-2.18-1.06 0-.23 0-.47-.08-.71l-1.13 1.84a2.94 2.94 0 01-.9 1 1.16 1.16 0 01-1.15.06 1.57 1.57 0 01-1-1.58c0-.38.07-.77.12-1.2-.36.29-.45.38-.7.55a6.39 6.39 0 01-1.61 2.6 1.07 1.07 0 01-1.61.15.29.29 0 01-.06-.27 4.8 4.8 0 012.06-2.57c.08-.07.2-.13.24-.22a1.25 1.25 0 00.12-.55c0-.07-.27-.12-.41-.11a3.71 3.71 0 00-.73.18 1.41 1.41 0 01-1.48-.2.34.34 0 01-.08-.5 1.3 1.3 0 01.23-.33 14.37 14.37 0 013.1-2.62.92.92 0 01.52-.13.47.47 0 01.46.46.5.5 0 01-.39.52 3.49 3.49 0 00-1.35.87L108.89 28" transform="translate(-12.25 -9.83)"/><path class="cls-1" d="M95.75 28.45c-.76.55-1.44 2.86-1 3.46.18 0 .41-.63.52-.94a13 13 0 00.37-1.49c.06-.32.07-.64.11-1M90.4 34c.06-.19 0-.23-.12-.06a49 49 0 00-4 6c-.06.21 0 .38.1.44a.54.54 0 00.43-.09c2.19-1.64 3.4-5.6 3.59-6.29m6.42-5a4.07 4.07 0 002.39-1.46c.12-.17.14-.44.44-.43a.65.65 0 01.67.42 1.54 1.54 0 010 .77c-.14.53-.37 1.06-.53 1.59-.08.26-.21.81 0 .83a1.13 1.13 0 00.25-.31l2.06-3.28a.41.41 0 01.07-.11.66.66 0 011-.22.75.75 0 01.25 1c-.36.77-.7 1.55-1 2.33 0 .1-.12.32 0 .36a.33.33 0 00.16-.11c.59-.69 1.2-1.38 1.78-2.09a1.76 1.76 0 00.31-.57c.22-.56.4-1.14.61-1.71.07-.2.11-.45.41-.43a.58.58 0 01.59.53 2.08 2.08 0 01-.09.6c0 .21-.13.41-.21.66a11.56 11.56 0 012.94-1.79c.08 0 .25 0 .27.1a.36.36 0 01-.09.3 4.84 4.84 0 01-.46.33 12.8 12.8 0 00-1.78 1.38 9.91 9.91 0 00-1.2 1.78c-.3.51-.53 1.05-.8 1.57-.19.36-.32.45-.67.29a.82.82 0 01-.33-.57 2.73 2.73 0 01.1-.77c-.12.2-.2.31-.27.42s-.22.37-.34.54a1.08 1.08 0 01-1.67.13 1.59 1.59 0 01-.17-.75c-.23.26-.61.85-.83 1.09a2 2 0 01-.49.43 1.26 1.26 0 01-.7.14 3.84 3.84 0 01-.84-.3.64.64 0 01-.44-.74 13 13 0 01.38-1.49c.1-.34.25-.67.38-1a3.51 3.51 0 01-2 1.34c-.11.51-.54 1.78-.72 2.28a1.24 1.24 0 01-1.75.82 1.68 1.68 0 01-1-2c-.47.46-.92.87-1.3 1.32a16.48 16.48 0 01-4.2 8.25 3.19 3.19 0 01-1.82.75 1 1 0 01-.92-1.09 5.11 5.11 0 01.36-1c.65-1.38 4.16-5.51 5-6.41a1 1 0 00.17-.37 20.38 20.38 0 00.21-2.07 2.28 2.28 0 01-.15.36 7.87 7.87 0 01-1.61 2.15.78.78 0 01-1 .18 1 1 0 01-.58-1 10.94 10.94 0 011-3c.21-.44.4-.89.65-1.31a1 1 0 01.49-.45c.41-.11.65.34.45.84-.34.84-.69 1.67-1 2.51a10.31 10.31 0 00-.38 1.06 2.44 2.44 0 000 .54h.1a4.07 4.07 0 00.51-.59c.58-1 1.17-2 1.7-3.05a5.11 5.11 0 00.2-1c0-.18.14-.45.27-.5s.37.09.5.21a1.16 1.16 0 01.29 1c-.06.95-.12 1.9-.19 2.84v.24c.45-.31.87-.58 1.26-.87.08-.06.11-.21.15-.32a6.46 6.46 0 011-2.21 3.92 3.92 0 01.45-.46.86.86 0 011.34.2 2 2 0 01.37 1.35m-29.37 3.6a4.54 4.54 0 001.35-2.42 6.22 6.22 0 00-1.35 2.42m-.68-7.12a30.65 30.65 0 00-1.68 4.57l.14-.16c.43-.89.9-1.76 1.27-2.66a2.16 2.16 0 00.27-1.75m-3.69 6.05c-1 .14-2 3-1.76 3.9.21 0 1.21-1.39 1.68-2a1.68 1.68 0 00.08-1.87m7 1.38a.64.64 0 010 .24 13.2 13.2 0 01-.6 1.33c-.3.52-.65 1-1 1.52a1.7 1.7 0 01-.9.8 1.61 1.61 0 01-1 0 1.52 1.52 0 01-1-1.52v-.21c-.29.23-.57.46-.86.66-.5.35-1 0-1.29-.52a2 2 0 01-.15-.61 6 6 0 010-.66c-.34.46-.62.89-.94 1.29a4.91 4.91 0 01-.74.77.82.82 0 01-1.29-.18A2.36 2.36 0 0160 34a4.21 4.21 0 011.53-2.67 5.31 5.31 0 01.63-.42c.55-.34.81-.29 1.41.26.13-.47.27-.91.37-1.37a18.68 18.68 0 011.71-4.39 2.47 2.47 0 01.48-.71 1.35 1.35 0 01.62-.22.45.45 0 01.53.29 2.41 2.41 0 01-.08 2 7 7 0 01-.42 1.07 28.49 28.49 0 01-1.49 2.78 4.69 4.69 0 00-.67 1.87c-.11.69-.15 1.39-.21 2.09 0 .15 0 .46.06.54.2-.22.35-.38.49-.55a8.28 8.28 0 001.37-2.26A6.72 6.72 0 0168 29.77c.57-.53 1-.52 1.39-.3a1.24 1.24 0 01.33 1.53A9.64 9.64 0 0168 33.6a12.46 12.46 0 01-1 .77c-.06 0-.14.09-.14.13-.36.57-.16 1.76.45 1.45a7.79 7.79 0 001.65-1.74c.3-.35.55-.76.83-1.13a1.15 1.15 0 01.22-.22h.08m-17.46-1.3a5.31 5.31 0 00-1.32 2.34 4.66 4.66 0 001.32-2.34m3 1.21a1 1 0 00-.18.18 6.08 6.08 0 00-1.11 2.83c-.06.41.28.58.7.4a11.3 11.3 0 002.6-1.75.57.57 0 00.13-.21c.27-.68.52-1.36.79-2 .15-.38.33-.48.7-.37a1.54 1.54 0 01.44.23c.34.24.39.43.21.85s-.46 1-.67 1.55c-.3.74-.56 1.48-.85 2.22a.68.68 0 01-.21.29c-.11.08-.31.19-.36.15-.44-.18-.39-1.32-.34-1.8 0 0-.3.33-.39.41a5.39 5.39 0 01-2.28 1.36 1.15 1.15 0 01-1.1-.06 1.7 1.7 0 01-.57-1c-.18.3-.32.53-.47.75a3.78 3.78 0 01-1.11 1.31 1.16 1.16 0 01-1.23 0 1.89 1.89 0 01-.82-2.34 10.21 10.21 0 011.66-3.83A6.32 6.32 0 0152 31a1 1 0 011.21-.22 1.11 1.11 0 01.43 1.22 13.74 13.74 0 01-.87 1.71A6.54 6.54 0 0151 35.59c-.14.1-.36.24-.37.36a5.72 5.72 0 000 1.24c0 .2.22.26.45.1a10.21 10.21 0 002-2.18c.09-.11.07-.31.12-.47a10.22 10.22 0 011.63-3 .41.41 0 01.51-.17c.2.06.43 0 .63.12A1 1 0 0156.5 33a3.42 3.42 0 00-.13.34c-.07.26-.27.24-.46.25s-.23-.11-.24-.29a2.73 2.73 0 00-.08-.53m4.46-3.12a4.58 4.58 0 01.77.38c.21.15.13.29-.1.44a4.91 4.91 0 00-.77.59.31.31 0 01-.45 0c-.1-.07-.21-.25-.18-.35a6.74 6.74 0 01.4-.92.28.28 0 01.33-.16m64.58-.07a1.35 1.35 0 000-.29 4.36 4.36 0 000-.61.92.92 0 00-.75-.49h-.42a.39.39 0 00-.1.19v.47a.56.56 0 000 .34 1.4 1.4 0 00.3.46 1 1 0 00.45.26.45.45 0 00.43-.16.46.46 0 00.08-.19m-45.28.87c-.71 0-1.44 2.87-1 3.46.24 0 .41-.65.52-1a10.41 10.41 0 00.37-1.46c.06-.31.28-.82.11-1m-1.9-4.17a26.54 26.54 0 00-2.06 4.51c.9-1.41 2-2.76 2.06-4.51M72.68 40c1-1.13 2.59-6 2.3-7.08a.39.39 0 01-.34-.32c-.12.27-.41.8-.54 1.07A16.41 16.41 0 0072.62 38c-.11.66-.39 1.78.06 1.95m4.66-8.47l-1.08.93a.33.33 0 00-.07.23 14.52 14.52 0 01-.57 3.81A11.44 11.44 0 0172.84 41a.54.54 0 01-.63 0 1.45 1.45 0 01-.9-1.41 18 18 0 01.3-2.31 31.66 31.66 0 012.26-6.54c.56-1.33 1.14-2.65 1.76-4a6.54 6.54 0 01.88-1.29.75.75 0 011-.18 1.6 1.6 0 01.41 1.73 11.56 11.56 0 01-1.09 2.5c-.36.61-1 1.35-1.4 2 .17 0 .64.21.65.48.41-.34.87-.7 1.31-1.08a7.68 7.68 0 00.58-.68 8.93 8.93 0 01.69-.81.86.86 0 011.37.18A1.92 1.92 0 0180.4 31c.56 0 1.06-.21 1.87-1.08.06 0 .09-.15.12-.22.16-.44.34-.87.47-1.31s.36-.47.72-.22.34.51.19.95c-.08.22-.15.45-.24.72.48-.37.91-.68 1.31-1a4.29 4.29 0 011.63-.84c.08 0 .26 0 .27.09a.51.51 0 01-.11.33 3.88 3.88 0 01-.47.32 13.92 13.92 0 00-1.75 1.37 9.87 9.87 0 00-1.19 1.78c-.32.53-.57 1.1-.86 1.65a.46.46 0 01-.74.14.8.8 0 01-.19-.58c.16-.74.37-1.46.57-2.19a.92.92 0 000-.39 2.51 2.51 0 01-1.66 1.18c-.12.52-.52 1.81-.71 2.32a1.22 1.22 0 01-1.75.8 1.63 1.63 0 01-1-2c.11-.44.24-.87.37-1.33" transform="translate(-12.25 -9.83)"/><path class="cls-1" d="M79.44 31.32c.2 0 .37-.3.37-.67s-.17-.67-.37-.67-.36.3-.36.67.16.67.36.67m16.38-1.76c.2 0 .37-.3.37-.67s-.17-.67-.37-.67-.36.3-.36.67.16.67.36.67m-69.24-5.75c.21 0 .37-.3.37-.67s-.16-.67-.37-.67-.36.3-.36.67.16.67.36.67M47 22.22c.2 0 .36-.3.36-.67s-.16-.67-.36-.67-.37.3-.37.67.16.67.37.67m2.54 9.89v-.85a3.12 3.12 0 00-.44-1.4c-.23-.38-.84-1.64-1.86-1.72a1.82 1.82 0 00-1.34.31 4.3 4.3 0 00-1.22 1.29 8 8 0 00-1.16 3.17 4.64 4.64 0 000 1.44.48.48 0 00.16.34l.08-1h.75c0-.21.1-.43.16-.64a14.93 14.93 0 01.81-2.64 3.29 3.29 0 01.75-1A1.35 1.35 0 0147 29c2-.07.62 4.46.49 4.78a7.77 7.77 0 01-1.25 2 4.25 4.25 0 01-1.06.93 1.84 1.84 0 01-.38.17c-.26.06-.53.09-.79.14a1.43 1.43 0 00-.63.28c-.23.18-.34.21-.24.48s.08.26.13.39a.24.24 0 00.06.11.9.9 0 00.42.27 1.93 1.93 0 001 .15 2.5 2.5 0 00.88-.2 4.43 4.43 0 001.3-.91 9.07 9.07 0 001.68-2.23 7 7 0 001-3.24" transform="translate(-12.25 -9.83)"/><path class="cls-1" d="M44 36.16c-.17.71-.35 1.43-.53 2.14-.06.2-.11.51-.37.57s-.25.22-.47.26a.63.63 0 01-.43-.6c.23-1.25.47-2.5.68-3.76s.43-2.79.64-4.18a11 11 0 01.69-2.7.8.8 0 01.33-.37 1.5 1.5 0 01.59.13c.5.22.44.76.42 1.22a10.76 10.76 0 01-.37 1.54 6.54 6.54 0 01-.3.95c-.06.2-.09.76-.15 1 0 0-.64 3.52-.73 3.84" transform="translate(-12.25 -9.83)"/></svg>