<svg data-name="Layer 1" xmlns="http://www.w3.org/2000/svg" viewBox="0 0 142.5 46.14"><path d="M116.23 8l-1.93-4.68L112.44 8zm5.77 4.25v.69h-5.75v-.69l1-.06c.29 0 .5-.42.26-1l-.84-2.11H112l-.78 2.07c-.26.7.11 1 .44 1l.93.06v.69h-4.19v-.69l.56-.06c.48 0 .81-.57 1-1.1L113.35 3l.48-1.28.3-.76.28-.76h1.31l4.81 11.21a1.14 1.14 0 001 .81zM100.55.26V1l.69.06c.48 0 .68.11.76.26a4.46 4.46 0 01.13 1.5v7.55a4.46 4.46 0 01-.13 1.5c-.08.15-.28.22-.76.26h-.69v.75h5.77v-.75h-.69c-.48 0-.68-.11-.76-.26a4.46 4.46 0 01-.13-1.5V2.83a4.46 4.46 0 01.13-1.5c.08-.15.28-.23.76-.26l.69-.06V.26h-5.77m-3.2 11.1L94 6.28c1.54-.55 2.77-1.64 2.77-3.28C96.76.8 95 .22 93.12.26c-1.26 0-2.5.06-3.76.06-1 0-1.89 0-3.12-.06V1l.69.06c.48 0 .67.13.76.32a4.46 4.46 0 01.13 1.5v7.55a4.46 4.46 0 01-.13 1.5c-.08.15-.28.22-.76.26h-.69v.75h5.77v-.75h-.69c-.48 0-.68-.11-.76-.26a4.46 4.46 0 01-.13-1.5v-9a3.21 3.21 0 011.19-.16 2.25 2.25 0 012.5 2.33 2.55 2.55 0 01-3 2.65l-.12.26 4.15 6.43h3.47v-.75a1.87 1.87 0 01-.76-.25 2.66 2.66 0 01-.54-.58m-15.6-4.53c0-3.06-1.28-5.79-3.9-5.79-3.45 0-4.26 2.58-4.26 5.36 0 3.06 1.28 5.77 3.89 5.77 3.45 0 4.27-2.56 4.27-5.34m2.78-.34c0 4.38-2.8 6.72-7 6.72s-6.68-2.27-6.68-6.5S73.58 0 77.82 0s6.68 2.26 6.68 6.49M63.53.32c-1.87 0-3.79 0-5.75-.06l-.11.09a21.42 21.42 0 01.25 2.95h.74l.1-1.3a.78.78 0 01.16-.44c.13-.17.65-.17 1.15-.17h2.17v9a4.12 4.12 0 01-.14 1.5c-.07.15-.27.22-.75.26h-.69v.75h5.76v-.75h-.68c-.48 0-.69-.11-.76-.26a4.46 4.46 0 01-.13-1.5v-9H67c.49 0 1 0 1.14.17a.78.78 0 01.17.44l.09 1.28h.75a21.57 21.57 0 01.26-2.93L69.3.26c-2 0-3.88.06-5.77.06M51.36 1a4.39 4.39 0 013.33 1.28l.09 1.59h.73a23.07 23.07 0 01.43-2.83l-.11-.17A10.66 10.66 0 0051.28 0c-4 0-7.41 2.13-7.41 6.4 0 4.43 3.11 6.81 7.34 6.81a8.1 8.1 0 004.26-1l.41-.9-.22-.23a7.87 7.87 0 01-3.55.95c-3.5 0-5.46-2.45-5.46-5.84 0-2.96 1.63-5.19 4.71-5.19M36.2.26V1l.69.06c.48 0 .68.11.76.26a4.46 4.46 0 01.13 1.5v7.55a4.46 4.46 0 01-.13 1.5c-.08.15-.28.22-.76.26h-.69v.75h5.77v-.75h-.69c-.48 0-.68-.11-.76-.26a4.46 4.46 0 01-.13-1.5V2.83a4.46 4.46 0 01.13-1.5c.08-.15.28-.23.76-.26L42 1V.26h-5.77m-4.05 0h2.14V1l-.6.06c-.41 0-.65.33-.87.87L29 11.11c-.26.61-.46 1.22-.7 1.84h-1.45L22.42 2.34c-.23-.51-.52-1.27-1.15-1.33L20.51 1V.26h5.89V1h-.89c-.28 0-.48.18-.48.35a4.29 4.29 0 00.39 1.34l2.91 7.17L31 3.33a7.11 7.11 0 00.57-1.82c0-.33-.32-.48-.69-.5L30 1V.26h2.15M7.38 26.1v-7a4.62 4.62 0 00-.13-1.57c-.1-.19-.29-.28-.79-.32l-.72-.06v-.72c.8 0 1.85.05 3 .05s2.19 0 3-.05v.72l-.72.06c-.5 0-.69.13-.79.32a4.53 4.53 0 00-.14 1.57v4.78c0 2.72.18 4.43 3.44 4.43s3.59-1.77 3.59-4.57v-4.69a4.9 4.9 0 00-.12-1.57c-.1-.19-.29-.28-.8-.32l-.71-.06v-.72c.73 0 1.49.05 2.22.05s1.46 0 2.2-.05v.72l-.71.06c-.51 0-.7.13-.8.32a4.9 4.9 0 00-.13 1.57v5.63c0 3.53-1.87 5.16-5.37 5.16s-5.52-1.56-5.52-3.74m16.09.81v-7.86a4.53 4.53 0 00-.14-1.57c-.09-.19-.29-.28-.79-.32l-.71-.06v-.72c.77 0 1.54.05 2.31.05.54 0 1.09 0 1.62-.05.66.85 1.3 1.76 2 2.57l6 7v-6.9a4.62 4.62 0 00-.13-1.57c-.1-.19-.29-.28-.79-.32l-.72-.06v-.72c.74 0 1.49.05 2.22.05s1.47 0 2.2-.05v.72l-.71.06c-.5 0-.7.13-.79.32a4.53 4.53 0 00-.14 1.57v8.75c0 .68 0 1.37.06 1.95l-1.72-.17c-.79-.89-1.6-1.8-2.35-2.69l-6.26-7.52v7.54a4.87 4.87 0 00.13 1.56c.1.19.29.28.79.33l.72.05v.72c-.74 0-1.47-.05-2.2-.05s-1.49 0-2.22.05v-.72l.71-.05c.5-.05.7-.14.79-.33a4.49 4.49 0 00.14-1.56M43 19v7.87a4.53 4.53 0 00.14 1.56c.08.15.29.23.79.27l.71.06v.77c-.79 0-1.85-.05-3-.05s-2.22 0-3 .05v-.73l.72-.06c.5 0 .71-.12.79-.27a4.9 4.9 0 00.13-1.56V19a4.87 4.87 0 00-.13-1.56c-.08-.15-.29-.23-.79-.27l-.72-.05v-.78c.79 0 1.86.05 3 .05s2.2 0 3-.05v.78l-.71.05c-.5 0-.71.12-.79.27A4.49 4.49 0 0043 19m8.5-.09l3 7.46 2.74-6.8a7.31 7.31 0 00.6-1.89c0-.35-.33-.51-.71-.52l-.89-.06v-.72c.94 0 1.68.05 2.24.05s1.27 0 2.22-.05v.72l-.62.06c-.43 0-.68.34-.91.9l-4 9.61c-.27.63-.49 1.27-.74 1.91H53l-4.62-11c-.23-.55-.54-1.34-1.19-1.39l-.79-.06v-.72c1.27 0 2.25.05 3 .05s1.71 0 3.16-.05v.72l-1 .06c-.29 0-.5.19-.5.36a4.52 4.52 0 00.4 1.39m15.31-1.39v4.63h2.56c.68 0 1.06 0 1.1-.4l.12-1.1h.77c0 .69-.06 1.37-.06 2.06s0 1.39.06 2.09h-.77l-.12-1c-.06-.54-.42-.71-1.1-.71h-1.27c-.43 0-.85 0-1.29.06v5.22c.81 0 1.64.06 2.47.06a6.67 6.67 0 002.35-.33l.41-1.82h.75l-.21 3.05a27.61 27.61 0 01-4.85.21c-.79 0-1.58-.05-2.37-.05s-1.61 0-2.32.05v-.44l.62-.35c.31-.17.38-.5.38-1.1V19a4.83 4.83 0 00-.13-1.56c-.1-.19-.29-.29-.79-.32l-.72-.06v-.72c1.28 0 2.26.05 3 .05 1.81 0 3.12 0 4.22-.05s1.93 0 2.82.05l-.15 2.88h-.7l-.16-1.45c0-.29-1.33-.37-2.21-.37s-1.66 0-2.47.06m10.02 9.39V19a4.49 4.49 0 00-.14-1.56c-.09-.19-.29-.28-.79-.32l-.71-.06v-.73c1.27 0 2.26.06 3.24.06 1.31 0 2.61 0 3.92-.06 2 0 3.78.56 3.78 2.86 0 1.7-1.27 2.84-2.88 3.41l3.5 5.29a2.39 2.39 0 00.56.59 1.88 1.88 0 00.79.28v.77c-.62 0-1.26-.05-1.88-.05s-1.15 0-1.73.05l-4.33-6.7.14-.34a2.66 2.66 0 003.09-2.76 2.35 2.35 0 00-2.61-2.43 3.22 3.22 0 00-1.23.17v9.43a4.94 4.94 0 00.13 1.57c.08.15.29.23.8.27l.71.06v.77c-.79 0-1.86-.05-3-.05s-2.22 0-3 .05v-.77l.71-.06c.5 0 .71-.12.79-.27a4.56 4.56 0 00.14-1.57m13.83-1.28h.77l.14 1.7a3.93 3.93 0 003 1.48c1.64 0 3-.87 3-2.54 0-.83-.5-1.47-1.6-1.8l-2.7-.81a3.49 3.49 0 01-2.82-3.28c0-3.09 2.3-4.27 5.1-4.27a10 10 0 013.58.66c-.09.85-.17 2-.17 3h-.79L98 18.15a3.6 3.6 0 00-2.56-1.06c-1.8 0-2.64 1-2.64 2.34 0 .86.61 1.5 2 1.87l2.2.57c1.77.47 2.91 1.59 2.91 3.32 0 3.29-2.72 4.65-5.65 4.65a9.47 9.47 0 01-4-.88 16.64 16.64 0 00.29-3.34M107 19v7.87a4.53 4.53 0 00.14 1.56c.07.15.29.23.79.27l.71.06v.77c-.79 0-1.85-.05-3-.05s-2.22 0-3 .05v-.73l.72-.06c.5 0 .71-.12.79-.27a4.9 4.9 0 00.13-1.56V19a4.87 4.87 0 00-.13-1.56c-.08-.15-.29-.23-.79-.27l-.72-.05v-.78c.79 0 1.85.05 3 .05s2.2 0 3-.05v.78l-.71.05c-.5 0-.72.12-.79.27A4.49 4.49 0 00107 19m11-1.43v9.33a4.8 4.8 0 00.14 1.57c.08.15.29.23.79.27l.71.06v.77c-.79 0-1.85-.05-3-.05s-2.22 0-3 .05v-.77l.71-.06c.5 0 .71-.12.79-.27a4.9 4.9 0 00.13-1.57v-9.33h-2.25c-.52 0-1.06 0-1.19.18a.73.73 0 00-.17.46l-.1 1.33h-.78a23.21 23.21 0 00-.25-3.07c2.15-.08 4.15 0 6.1 0s4 0 6-.06c0 1-.1 1.92-.14 3.17h-.78l-.09-1.33a.79.79 0 00-.18-.46c-.13-.18-.67-.18-1.19-.18zm13.64 5.06l3.63-6.2h1.48v.37l-3.39 5a12.29 12.29 0 00-1 1.93v3.17a4.94 4.94 0 00.13 1.57c.08.15.29.23.79.27l.71.05v.78c-.78 0-1.85-.05-3-.05s-2.21 0-3 .05v-.78l.72-.05c.5 0 .71-.12.79-.27a4.94 4.94 0 00.13-1.57v-2.68a11.43 11.43 0 00-.84-1.65l-2-3.14a10.75 10.75 0 00-1-1.3 1.79 1.79 0 00-1.5-.64v-.71l3.07-.68a5.86 5.86 0 012.19 2.61zm-13.13 22.43c-2.72 0-4.05-2.82-4.05-6 0-2.9.85-5.58 4.43-5.58 2.73 0 4.06 2.84 4.06 6 0 2.9-.85 5.56-4.44 5.56m.38-12.66c-4.42 0-7.33 2.43-7.33 7 0 4.4 2.62 6.75 7 6.75s7.33-2.43 7.33-7c0-4.4-2.62-6.76-7-6.76m10.53 10.83v-7.86a4.46 4.46 0 00-.14-1.56c-.1-.19-.29-.29-.79-.33l-.71-.05v-.73c.77 0 1.54.06 2.31.06.54 0 1.08 0 1.62-.06.66.86 1.3 1.77 2 2.58l6 7v-6.91a4.83 4.83 0 00-.13-1.56c-.1-.19-.29-.29-.79-.33l-.72-.05v-.73c.73 0 1.49.06 2.22.06s1.47 0 2.2-.06v.73l-.71.05c-.5 0-.7.14-.79.33a4.46 4.46 0 00-.14 1.56v8.76c0 .67 0 1.37.06 1.95l-1.72-.18c-.79-.88-1.6-1.79-2.35-2.69l-6.26-7.51v7.53a4.55 4.55 0 00.13 1.56c.1.19.29.29.79.33l.71.06v.72c-.73 0-1.46-.06-2.19-.06s-1.49 0-2.22.06v-.72l.71-.06c.5 0 .69-.14.79-.33a4.46 4.46 0 00.14-1.56M5.86 41.76L8.74 35l1-2.39h.87c.31.88.62 1.73.95 2.57l2.62 6.56 1.89-7.24a2.27 2.27 0 00.08-.63c0-.23-.35-.37-.67-.39l-.89-.06v-.72c.87 0 1.54.06 2.08.06s1.2 0 2.09-.06v.72l-.64.06c-.35 0-.6.52-.83 1.33l-2.35 8.33c-.26.91-.43 1.84-.64 2.76h-1.43c-.25-.67-.46-1.35-.73-2l-2.88-7.29-3 6.85c-.35.79-.6 1.6-.9 2.41H4L1.33 34.26c-.14-.56-.36-.77-.71-.81L0 33.39v-.72c1.27 0 2.26.06 3 .06s1.72 0 2.58-.06v.72l-.81.06c-.25 0-.58.23-.58.45a2.49 2.49 0 00.07.54l1.56 7.32zM25 33.85v4.63h2.57c.68 0 1.06 0 1.1-.41l.12-1.1h.77c0 .7-.06 1.37-.06 2.07s0 1.39.06 2.08h-.77l-.12-1c0-.54-.42-.72-1.1-.72h-1.29c-.43 0-.85 0-1.3.06v5.15c.82 0 1.65.06 2.48.06a6.43 6.43 0 002.35-.33l.45-1.81H31l-.21 3a27.61 27.61 0 01-4.85.21c-.79 0-1.58-.06-2.37-.06s-1.61 0-2.32.06v-.44l.62-.35c.31-.17.38-.5.38-1.1v-8.51a4.83 4.83 0 00-.13-1.56c-.1-.19-.29-.29-.79-.33l-.72-.06v-.72c1.28 0 2.26.06 3 .06 1.81 0 3.12 0 4.22-.06a25.45 25.45 0 012.82.06l-.16 2.88h-.69l-.16-1.45c0-.29-1.33-.37-2.21-.37s-1.66 0-2.48.06m12.33 1.49v9.35c.81 0 1.64.06 2.47.06a6.46 6.46 0 002.36-.33l.44-2h.76l-.21 3.2a27.68 27.68 0 01-4.86.21c-.78 0-1.58-.06-2.37-.06s-1.6 0-2.31.06v-.44l.61-.35c.31-.17.39-.5.39-1.1v-8.6a4.46 4.46 0 00-.14-1.56c-.07-.15-.28-.23-.78-.27l-.72-.06v-.78c.79 0 1.85.06 3 .06s2.2 0 3-.06v.78l-.71.06c-.5 0-.72.12-.8.27a4.83 4.83 0 00-.13 1.56m12.29 0v9.35c.82 0 1.64.06 2.47.06a6.46 6.46 0 002.36-.33l.45-2h.75l-.21 3.2a27.53 27.53 0 01-4.85.21c-.79 0-1.58-.06-2.37-.06s-1.6 0-2.32.06v-.44l.62-.35c.31-.17.38-.5.38-1.1v-8.6a4.55 4.55 0 00-.13-1.56c-.08-.15-.29-.23-.79-.27l-.72-.06v-.78c.8 0 1.85.06 3 .06s2.2 0 3-.06v.78l-.71.06c-.5 0-.71.12-.79.27a4.46 4.46 0 00-.14 1.56m12.04 0v7.86a4.46 4.46 0 00.14 1.56c.07.16.28.24.79.27l.71.06v.78c-.79 0-1.85-.06-3-.06s-2.22 0-3 .06v-.78L58 45c.51 0 .72-.11.8-.27a4.83 4.83 0 00.13-1.56v-7.83a4.83 4.83 0 00-.13-1.56c-.08-.15-.29-.23-.8-.27l-.71-.06v-.78c.79 0 1.85.06 3 .06s2.2 0 3-.06v.78l-.71.06c-.51 0-.72.12-.79.27a4.46 4.46 0 00-.14 1.56m5.17 7.86v-7.86a4.55 4.55 0 00-.13-1.56c-.1-.19-.29-.29-.79-.33l-.72-.05v-.73c.77 0 1.55.06 2.32.06.54 0 1.08 0 1.62-.06.66.86 1.29 1.77 2 2.58l6 7v-6.91a4.46 4.46 0 00-.12-1.56c-.09-.19-.29-.29-.79-.33l-.71-.05v-.73c.73 0 1.48.06 2.22.06s1.47 0 2.2-.06v.73l-.71.05c-.51 0-.7.14-.8.33a4.83 4.83 0 00-.13 1.56v8.76c0 .67 0 1.37.06 1.95l-1.72-.18c-.79-.88-1.6-1.79-2.36-2.69L68 35.67v7.53a4.55 4.55 0 00.13 1.56c.09.19.29.29.79.33l.71.06v.72c-.73 0-1.46-.06-2.2-.06s-1.48 0-2.22.06v-.72l.72-.06c.5 0 .69-.14.79-.33a4.55 4.55 0 00.13-1.56m28.29-1.36V45a15.32 15.32 0 01-5.64 1.16c-4.4 0-7.64-2.47-7.64-7.08 0-4.44 3.61-6.66 7.72-6.66a13.31 13.31 0 015.31.91c-.08.91-.23 2.33-.33 3.16h-.76l-.1-1.66c-.75-.88-2.46-1.33-4-1.33-3.21 0-4.9 2.28-4.9 5.33 0 3.34 1.71 6.25 5.19 6.25a6.72 6.72 0 002.45-.48V42c0-.6-.48-.69-1.1-.71h-1v-.79h5.65v.65c-.65.14-.79.22-.79.7m10-7.98v9.33a4.83 4.83 0 00.13 1.56c.08.16.29.23.79.27l.72.06v.78c-.79 0-1.85-.06-3-.06s-2.22 0-3 .06v-.78l.71-.06c.51 0 .72-.11.79-.27a4.46 4.46 0 00.14-1.56v-9.33h-2.26c-.51 0-1 0-1.19.17a.85.85 0 00-.17.46l-.1 1.34H98a20 20 0 00-.25-3.07c2.15-.08 4.15 0 6.1 0s4 0 6-.06c0 1-.1 1.91-.13 3.17h-.79l-.09-1.34a.94.94 0 00-.17-.46c-.14-.17-.68-.17-1.2-.17z" fill="#135741"/></svg>