<svg xmlns="http://www.w3.org/2000/svg" viewBox="0 0 376.135 88.743"><defs><style>.a{fill:transparent;}.b{fill:#231f20;}</style></defs><title>logo_vic-hq</title><polygon class="a" points="0 0.014 376.123 0.014 376.123 88.743 0 88.743 0 0.014 0 0.014"/><path class="b" d="M593.763,314.379c2.5,0,4.024,1.363,4.024,3.912,0,2.639-1.688,4.047-4.248,4.047-2.5,0-4.024-1.365-4.024-3.912,0-2.639,1.688-4.047,4.248-4.047h0Zm0,0.625c-2.079,0-2.571,1.555-2.571,3.23,0,1.846.771,3.477,2.348,3.477,2.079,0,2.571-1.543,2.571-3.219,0-1.846-.771-3.488-2.348-3.488h0ZM303.411,329.941v6.33h20.144v-6.33l-2.878,3.164h-4.03l-3.164-3.164-3.164,3.164h-4.03l-2.878-3.164h0Zm-13.377-45.176V291.1h20.144v-6.331l-2.878,3.166h-4.03l-3.164-3.166-3.164,3.166h-4.03l-2.878-3.166h0Zm26.754,0V291.1h20.143v-6.331l-2.878,3.166h-4.03l-3.164-3.166-3.164,3.166h-4.03l-2.878-3.166h0Zm-3.305,11.426c-3.223,0-4.7,2.308-7.923,2.308s-4.7-2.376-7.923-2.308c-3,.064-4.331,2.258-7.334,2.308-2.971.049-5.13-2.124-7.337-2.019v19.908c0.112,4.168,3.332,10.154,7.324,10.154,3-.049,4.346-2.231,7.348-2.293,3.222-.068,4.7,2.307,7.923,2.307s4.7-2.307,7.923-2.307,4.7,2.307,7.922,2.307,4.7-2.375,7.923-2.307c3,0.063,4.329,2.244,7.332,2.293,3.991,0,7.228-5.986,7.341-10.154V296.481c-2.207-.106-4.366,2.068-7.337,2.019-3-.05-4.332-2.244-7.335-2.308-3.222-.068-4.7,2.308-7.923,2.308s-4.7-2.308-7.922-2.308h0Zm-0.01,51.3c-1.3,0-32.94-13.707-32.94-31.105V278.435h65.894v37.954c0,17.4-31.662,31.105-32.955,31.105h0Zm-4.705-29.361-1.379-2.391,1.379-2.389h-2.759l-1.38-2.391-1.379,2.391H300.49l1.379,2.389-1.379,2.391h2.759l1.379,2.389,1.38-2.389h2.759Zm17.708-8.723-1.379-2.389,1.379-2.391h-2.759l-1.38-2.389-1.379,2.389H318.2l1.379,2.391L318.2,309.41h2.759l1.379,2.391,1.38-2.391h2.759Zm-12.669,0-1.38-2.389,1.38-2.391h-2.759l-1.38-2.389-1.379,2.389h-2.759l1.379,2.391-1.379,2.389h2.759l1.379,2.391,1.38-2.391h2.759Zm7.631,8.723-1.379-2.391,1.379-2.389h-2.759l-1.38-2.391-1.379,2.391H313.16l1.379,2.389-1.379,2.391h2.759l1.379,2.389,1.38-2.389h2.759Zm-24.212-17.541h32.517v21.58H297.225v-21.58h0Zm-24.175-3.737c-1.863,0-4.213-2.408-4.013-3.906,1.093-8.175,5.3-5.542,8.4-7.925,0.884,1.149,2.181,11.831-4.383,11.831h0Zm98.413,7.421a9.339,9.339,0,0,1-3.455,5.756c1.751-.055,4.575.182,5.18-2.014a3.225,3.225,0,0,0-1.726-3.742h0Zm-4.892-1.15c-6.182-.272-8.58,3.424-6.514,4.828,3.929,2.672,6.48-4.916,6.514-4.828h0Zm0.287-8.918a7.585,7.585,0,0,1-3.76,2.026,53.849,53.849,0,0,1,6.352,0,10.728,10.728,0,0,1-2.591-2.026h0ZM354.9,286.839a4.847,4.847,0,1,0,4.847-4.847,4.847,4.847,0,0,0-4.847,4.847h0Zm19.41,3.947a2.723,2.723,0,0,1,3.206-.7c1.434,0.494,2.33,1.7,2.059,2.731,7.122-.136,8.818-1.789,8.869-1.726-2.072,3.815-8.131,6.562-10.419,6.778,3.242,1.109,9.586,4.8,9.555,11.926,0,10.416-10.107,11.871-15.789,10.369a4.168,4.168,0,0,1,2.808,2H349.018V301.131a11.929,11.929,0,0,1,4.15-2.8,1.813,1.813,0,0,0,1.028-1.776,9.585,9.585,0,0,1-5.179-3.165V281.313S352.1,277,359.376,277a11.456,11.456,0,0,1,8.921,4.891s2.422-2.042,7.192-2.014c10.757,0,13.237,10.364,13.237,10.364a17.614,17.614,0,0,0-8.9-3.745,2.285,2.285,0,0,1-2.341,1.657,2.37,2.37,0,0,1-2.258-1.368l-0.884.573a2.47,2.47,0,0,1,.158,1.092,2.543,2.543,0,0,1-1,1.8l0.813,0.543h0Zm-16.729-3.947A2.166,2.166,0,1,1,359.743,289a2.166,2.166,0,0,1-2.166-2.165h0Zm-79.633,8.86v26.473H238.233a23.439,23.439,0,0,1,2.591-4.891c-0.988-.815-1.815-1.553-1.726-1.439-0.089-.113,5.308-7.125,9.207-7.2a7.973,7.973,0,0,1-1.438-1.437c1.394-1.549,3.872-1.656,12.085-2.3,8.2-.725,9.355-2.871,9.5-9.511,2.03,2.445,5.476,5.414,9.495.3h0ZM257.8,282.175c-2.628-1.808-3.96-2.5-4.889-2.306-0.857.176-2.612,3.015-2.591,2.881a32.808,32.808,0,0,1,7.48-.576h0Zm-9.781,10.935c-1.877-1.584-4.278-4.743-4.609-6.907a3.009,3.009,0,0,1,.869-2.592,5.142,5.142,0,0,1-.294-2.3c1.142-3.406,17.383-3.564,20.722-3.454,7.594,0.339,9.207,0,12.949-1.438-0.1-.127-1.253,5.566-8.345,5.466-0.012.576-.012,0.786,0,0.864,2.8,0.053,6.129-.58,8.057-2.878-0.056,1.93.673,4.3-3.164,5.181-3.686.846-5.985,0.732-7.194,11.222-0.244,2.952.017,5.549-4.891,6.617-4.714,1.027-17.169,1.351-19.409,3.1l-0.448-.795A7.863,7.863,0,0,0,246,298a3.872,3.872,0,0,1,1.728-.575c-0.047.985-1.259,3.174,4.6,3.166,0.113,0.008,5.514.641,3.17-6.33-0.733-2.182-1.377-4.656-4.033-4.605-0.016-.051-3.409.158-1.734,3.528,2.387,0.5,5.105,1.087,5.476,2.8,0.291,1.764-1.008,2.725-2.02,2.3-0.98-.414-3.77-2-5.746-2-3.662,0-10.2,4.154-14.386-3.713,1.211,1.3,2.356,2.159,6.327,2.271,3.919,0.109,4.705-1.616,8.632-1.726h0ZM587.1,259.3h4.184v0.837H587.1V259.3h0Zm-250.062.017h4.184v0.837h-4.184V259.32h0Zm271.042,3.5v5.012a1.972,1.972,0,0,0,.1.837,0.517,0.517,0,0,0,.47.168l0.537,0.034v0.34c-0.582-.023-1.107-0.033-1.621-0.033-0.548,0-1.073.01-1.654,0.033v-0.34l0.536-.034a0.518,0.518,0,0,0,.47-0.168,1.974,1.974,0,0,0,.1-0.837v-5.012a1.973,1.973,0,0,0-.1-0.837,0.515,0.515,0,0,0-.47-0.167l-0.536-.034v-0.34c0.581,0.022,1.106.033,1.654,0.033,0.514,0,1.039-.01,1.621-0.033v0.34l-0.537.034a0.515,0.515,0,0,0-.47.167,1.971,1.971,0,0,0-.1.837h0Zm-361.3,5.011v-4.725a11.144,11.144,0,0,0-.045-1.117H245c-0.335,0-.425.1-0.447,0.369l-0.045.882h-0.346c0-.6-0.022-1.217-0.078-1.8,0.8,0,1.61.033,2.414,0.033h1.621c0.8,0,1.61-.033,2.415-0.033-0.056.581-.078,1.2-0.078,1.8h-0.346l-0.045-.882c-0.022-.269-0.111-0.369-0.447-0.369h-1.733c-0.034.335-.044,0.692-0.044,1.117v4.725a1.978,1.978,0,0,0,.1.838,0.517,0.517,0,0,0,.47.168l0.536,0.034v0.34c-0.581-.023-1.106-0.033-1.621-0.033-0.548,0-1.073.01-1.655,0.033v-0.34l0.537-.034a0.517,0.517,0,0,0,.47-0.168,1.978,1.978,0,0,0,.1-0.838h0Zm7.006,0V262.82a1.972,1.972,0,0,0-.1-0.836,0.517,0.517,0,0,0-.469-0.168l-0.537-.033v-0.34c0.615,0.011,1.252.033,1.889,0.033,0.972,0,2-.033,2.634-0.033,0.506,0,1.011.011,1.447,0.033a7.473,7.473,0,0,0-.179,1.7h-0.392v-0.727a0.3,0.3,0,0,0-.1-0.3,6.943,6.943,0,0,0-2.193-.234,3.837,3.837,0,0,0-.937.089v2.984c0.357,0.023.758,0.034,1.294,0.034a3.1,3.1,0,0,0,1.183-.123,0.425,0.425,0,0,0,.089-0.29l0.056-.582h0.34c-0.011.458-.033,0.883-0.033,1.3s0.021,0.838.033,1.241h-0.34l-0.056-.659a0.371,0.371,0,0,0-.089-0.28,2.783,2.783,0,0,0-1.183-.134c-0.536,0-.948,0-1.294.034v3.13a3.862,3.862,0,0,0,.937.089,10.266,10.266,0,0,0,2.26-.145,2.069,2.069,0,0,0,.392-1.252h0.391a9.606,9.606,0,0,0-.179,1.833c-0.492.011-1.38,0.045-2.206,0.034-0.859-.011-1.741-0.034-2.434-0.034-0.425,0-.793.023-1.2,0.034v-0.34l0.4-.034a0.547,0.547,0,0,0,.469-0.168,1.972,1.972,0,0,0,.1-0.837h0Zm18.517-.856-1.4-3.787-1.945,4.937c-0.146.38-.291,0.76-0.4,1.151h-0.559c-0.078-.413-0.168-0.76-0.257-1.151l-1.331-5.752a0.565,0.565,0,0,0-.559-0.559l-0.313-.034v-0.34c0.47,0.011.928,0.033,1.409,0.033s0.939-.022,1.408-0.033v0.34l-0.469.034c-0.291.022-.514,0.078-0.369,0.737l1.107,4.981,1.4-3.488c0.347-.883.7-1.777,1.006-2.694h0.358a14.2,14.2,0,0,0,.458,1.413l1.733,4.848,1.486-5.429c0.067-.268-0.089-0.336-0.514-0.369l-0.447-.034v-0.34c0.391,0.011.771,0.033,1.173,0.033s0.783-.022,1.174-0.033v0.34l-0.357.034a0.428,0.428,0,0,0-.425.324l-1.71,6.01c-0.089.324-.212,0.67-0.3,1.128h-0.559c-0.246-.882-0.514-1.53-0.793-2.3h0Zm13.97-4.156v5.012a1.972,1.972,0,0,0,.1.837,0.516,0.516,0,0,0,.469.168l0.537,0.034v0.34c-0.581-.023-1.106-0.033-1.621-0.033-0.548,0-1.073.01-1.654,0.033v-0.34l0.536-.034a0.518,0.518,0,0,0,.47-0.168,1.973,1.973,0,0,0,.1-0.837v-2.489c-0.134-.011-0.436-0.022-0.928-0.022h-2.616c-0.492,0-.794.011-0.928,0.022v2.489a1.966,1.966,0,0,0,.1.837,0.517,0.517,0,0,0,.469.168l0.537,0.034v0.34c-0.581-.023-1.106-0.033-1.621-0.033-0.548,0-1.073.01-1.655,0.033v-0.34l0.537-.034a0.518,0.518,0,0,0,.47-0.168,1.973,1.973,0,0,0,.1-0.837v-5.012a1.971,1.971,0,0,0-.1-0.837,0.517,0.517,0,0,0-.47-0.168l-0.537-.033v-0.34c0.582,0.022,1.107.033,1.655,0.033,0.514,0,1.04-.01,1.621-0.033v0.34l-0.537.033a0.516,0.516,0,0,0-.469.168,1.963,1.963,0,0,0-.1.837v1.986c0.134,0.011.436,0.022,0.928,0.022h2.616c0.492,0,.794-0.011.928-0.022v-1.986a1.971,1.971,0,0,0-.1-0.837,0.517,0.517,0,0,0-.47-0.168l-0.536-.033v-0.34c0.581,0.022,1.107.033,1.654,0.033,0.514,0,1.04-.01,1.621-0.033v0.34l-0.537.033a0.515,0.515,0,0,0-.469.168,1.969,1.969,0,0,0-.1.837h0Zm5.731,3.35h2.828l-1.408-3.331L292,266.171h0Zm1.878-4.818,2.705,6.347c0.1,0.223.224,0.524,0.358,0.758a0.621,0.621,0,0,0,.447.379l0.38,0.034v0.34c-0.492-.012-0.984-0.033-1.486-0.033-0.392,0-.883.021-1.487,0.033v-0.34l0.526-.034a0.429,0.429,0,0,0,.458-0.223,2.6,2.6,0,0,0-.235-0.714l-0.514-1.283H291.81l-0.313.748a6.438,6.438,0,0,0-.391,1.16c0,0.234.19,0.279,0.536,0.313l0.414,0.034v0.34c-0.536-.012-0.961-0.033-1.285-0.033-0.436,0-.861.021-1.286,0.033v-0.34l0.413-.034a0.8,0.8,0,0,0,.6-0.546l1.99-4.523c0.347-.783.727-1.61,1.029-2.415h0.357ZM302.124,262v5.831a1.974,1.974,0,0,0,.1.837,0.517,0.517,0,0,0,.469.168l0.537,0.034v0.34c-0.581-.023-1.107-0.033-1.621-0.033-0.548,0-1.073.01-1.655,0.033v-0.34l0.537-.034a0.517,0.517,0,0,0,.47-0.168,1.973,1.973,0,0,0,.1-0.837v-5.012a1.971,1.971,0,0,0-.1-0.837,0.546,0.546,0,0,0-.47-0.168l-0.458-.033v-0.34c0.592,0.011,1.241.033,1.9,0.033s1.308-.022,1.956-0.033c1.789-.034,2.258.872,2.258,1.677a2.4,2.4,0,0,1-2.18,2.157l2.537,3.3a0.858,0.858,0,0,0,.682.29v0.34c-0.291-.012-0.548-0.033-0.805-0.033s-0.5.021-.76,0.033c-0.145-.215-0.313-0.407-0.458-0.608l-2.057-2.757c-0.179-.246-0.391-0.458-0.581-0.692a7.7,7.7,0,0,1,1.051-.179,1.651,1.651,0,0,0,1.453-1.565,1.513,1.513,0,0,0-1.766-1.543,4.336,4.336,0,0,0-1.14.134h0Zm8.1,5.831V262.82a1.972,1.972,0,0,0-.1-0.836,0.518,0.518,0,0,0-.47-0.168l-0.537-.033v-0.34c0.615,0.011,1.252.033,1.889,0.033,0.971,0,2-.033,2.634-0.033,0.506,0,1.01.011,1.446,0.033a7.5,7.5,0,0,0-.179,1.7h-0.391v-0.727a0.294,0.294,0,0,0-.1-0.3,6.938,6.938,0,0,0-2.192-.234,3.833,3.833,0,0,0-.937.089v2.984c0.357,0.023.758,0.034,1.294,0.034a3.1,3.1,0,0,0,1.183-.123,0.425,0.425,0,0,0,.089-0.29l0.056-.582h0.339c-0.011.458-.032,0.883-0.032,1.3s0.021,0.838.032,1.241H313.91l-0.056-.659a0.371,0.371,0,0,0-.089-0.28,2.783,2.783,0,0,0-1.183-.134c-0.536,0-.948,0-1.294.034v3.13a3.857,3.857,0,0,0,.937.089,10.263,10.263,0,0,0,2.259-.145,2.068,2.068,0,0,0,.392-1.252h0.392a9.614,9.614,0,0,0-.179,1.833c-0.492.011-1.379,0.045-2.205,0.034-0.859-.011-1.741-0.034-2.434-0.034-0.425,0-.794.023-1.2,0.034v-0.34l0.4-.034a0.549,0.549,0,0,0,.47-0.168,1.972,1.972,0,0,0,.1-0.837h0Zm18.517-.856-1.4-3.787-1.945,4.937c-0.145.38-.291,0.76-0.4,1.151h-0.559c-0.078-.413-0.168-0.76-0.257-1.151l-1.33-5.752a0.565,0.565,0,0,0-.559-0.559l-0.313-.034v-0.34c0.469,0.011.928,0.033,1.408,0.033s0.939-.022,1.409-0.033v0.34l-0.47.034c-0.29.022-.514,0.078-0.369,0.737l1.107,4.981,1.4-3.488c0.347-.883.7-1.777,1.006-2.694h0.358a14.2,14.2,0,0,0,.459,1.413l1.732,4.848,1.487-5.429c0.067-.268-0.089-0.336-0.514-0.369l-0.447-.034v-0.34c0.392,0.011.772,0.033,1.174,0.033s0.783-.022,1.174-0.033v0.34l-0.358.034a0.428,0.428,0,0,0-.425.324l-1.71,6.01c-0.089.324-.212,0.67-0.3,1.128h-0.559c-0.246-.882-0.514-1.53-0.794-2.3h0Zm8.705-.806h2.828l-1.409-3.331-1.419,3.331h0Zm1.878-4.818,2.705,6.347c0.1,0.223.224,0.524,0.358,0.758a0.62,0.62,0,0,0,.447.379l0.38,0.034v0.34c-0.492-.012-0.984-0.033-1.487-0.033-0.392,0-.883.021-1.487,0.033v-0.34l0.525-.034a0.429,0.429,0,0,0,.459-0.223,2.6,2.6,0,0,0-.235-0.714l-0.514-1.283h-3.219l-0.313.748a6.442,6.442,0,0,0-.392,1.16c0,0.234.19,0.279,0.537,0.313l0.414,0.034v0.34c-0.537-.012-0.961-0.033-1.285-0.033-0.436,0-.861.021-1.286,0.033v-0.34l0.414-.034a0.8,0.8,0,0,0,.6-0.546l1.99-4.523c0.347-.783.727-1.61,1.028-2.415h0.358Zm7.084,6.479v-5.011a1.968,1.968,0,0,0-.1-0.838,0.546,0.546,0,0,0-.469-0.167l-0.492-.034v-0.34c0.492,0.011.939,0.033,1.341,0.033,0.2,0,.4-0.022.6-0.033l5.343,6.6,0.034-5.217a1.976,1.976,0,0,0-.1-0.838,0.547,0.547,0,0,0-.47-0.167l-0.492-.034v-0.34c0.447,0.011.894,0.033,1.3,0.033,0.447,0,.85-0.022,1.342-0.033v0.34l-0.492.034a0.546,0.546,0,0,0-.469.167,1.975,1.975,0,0,0-.1.838v6.166c0,0.134.022,0.279,0.033,0.413l-1.006-.179-5.265-6.536-0.023,5.145a1.973,1.973,0,0,0,.1.837,0.546,0.546,0,0,0,.469.168l0.492,0.034v0.34c-0.492-.012-0.894-0.033-1.342-0.033-0.4,0-.849.021-1.3,0.033v-0.34l0.492-.034a0.547,0.547,0,0,0,.469-0.168,1.965,1.965,0,0,0,.1-0.837h0Zm12.417-1.662h2.828l-1.408-3.331-1.419,3.331h0Zm1.877-4.818,2.705,6.347c0.1,0.223.224,0.524,0.358,0.758a0.621,0.621,0,0,0,.447.379l0.38,0.034v0.34c-0.492-.012-0.983-0.033-1.487-0.033-0.391,0-.883.021-1.486,0.033v-0.34l0.525-.034a0.429,0.429,0,0,0,.459-0.223,2.6,2.6,0,0,0-.235-0.714l-0.514-1.283h-3.22l-0.313.748a6.438,6.438,0,0,0-.391,1.16c0,0.234.19,0.279,0.536,0.313l0.414,0.034v0.34c-0.537-.012-0.961-0.033-1.286-0.033-0.436,0-.861.021-1.286,0.033v-0.34l0.414-.034a0.8,0.8,0,0,0,.6-0.546l1.99-4.523c0.347-.783.727-1.61,1.029-2.415H360.7Zm7.084,6.479v-5.011a1.976,1.976,0,0,0-.1-0.838,0.547,0.547,0,0,0-.47-0.167l-0.492-.034v-0.34c0.492,0.011.939,0.033,1.341,0.033,0.2,0,.4-0.022.6-0.033l5.344,6.6,0.033-5.217a1.975,1.975,0,0,0-.1-0.838,0.546,0.546,0,0,0-.469-0.167l-0.492-.034v-0.34c0.447,0.011.894,0.033,1.3,0.033,0.447,0,.85-0.022,1.341-0.033v0.34l-0.492.034a0.547,0.547,0,0,0-.47.167,1.975,1.975,0,0,0-.1.838v6.166c0,0.134.022,0.279,0.034,0.413l-1.006-.179-5.265-6.536-0.022,5.145a1.973,1.973,0,0,0,.1.837,0.547,0.547,0,0,0,.469.168l0.492,0.034v0.34c-0.492-.012-0.895-0.033-1.341-0.033-0.4,0-.85.021-1.3,0.033v-0.34l0.492-.034a0.548,0.548,0,0,0,.47-0.168,1.973,1.973,0,0,0,.1-0.837h0Zm16.4,0.252v-1.127a0.336,0.336,0,0,0-.38-0.391l-0.928-.079v-0.339c0.458,0.011.917,0.022,1.364,0.022s0.917-.01,1.375-0.022l0.045,0.283-0.324.113c-0.123.045-.123,0.089-0.123,0.413v1.874a12.557,12.557,0,0,1-2.94.57c-2.493,0-4.5-1.295-4.5-4.1,0-2.459,2.023-4.047,4.717-4.047a8.808,8.808,0,0,1,2.772.458,7.026,7.026,0,0,0-.224,1.7h-0.346v-0.592a1.023,1.023,0,0,0-.928-0.895,4.809,4.809,0,0,0-1.565-.2,3.055,3.055,0,0,0-3.231,3.387c0,2.228,1.3,3.823,3.6,3.823a2.079,2.079,0,0,0,1.565-.391,1.064,1.064,0,0,0,.056-0.457h0Zm6.246-1.913h2.828l-1.408-3.331-1.42,3.331h0Zm1.878-4.818,2.705,6.347c0.1,0.223.224,0.524,0.358,0.758a0.621,0.621,0,0,0,.447.379l0.38,0.034v0.34c-0.492-.012-0.984-0.033-1.487-0.033-0.391,0-.883.021-1.487,0.033v-0.34l0.525-.034a0.429,0.429,0,0,0,.459-0.223,2.612,2.612,0,0,0-.234-0.714l-0.515-1.283h-3.219l-0.313.748a6.438,6.438,0,0,0-.391,1.16c0,0.234.19,0.279,0.536,0.313l0.413,0.034v0.34c-0.536-.012-0.961-0.033-1.285-0.033-0.436,0-.861.021-1.286,0.033v-0.34l0.414-.034a0.8,0.8,0,0,0,.6-0.546l1.99-4.523c0.347-.783.727-1.61,1.029-2.415h0.357Zm13.978,0.369c-1.945,0-2.828,1.364-2.828,3.2,0,1.956.916,4.013,3.13,4.013,1.867,0,2.772-1.453,2.772-3.51,0-2.213-1-3.7-3.074-3.7h0Zm-0.056,7.68a3.823,3.823,0,0,1-3.968-4.069,3.953,3.953,0,0,1,4.2-4.08c2.392,0,4.091,1.342,4.091,3.823a4.28,4.28,0,0,1-4.326,4.326h0Zm13.654-1.569v-4.725c0-.424-0.011-0.782-0.044-1.117h-1.733c-0.335,0-.425.1-0.447,0.369l-0.044.882H417.27c0-.6-0.022-1.217-0.078-1.8,0.8,0,1.609.033,2.414,0.033h1.621c0.805,0,1.61-.033,2.414-0.033-0.056.581-.078,1.2-0.078,1.8h-0.347l-0.045-.882c-0.022-.269-0.111-0.369-0.446-0.369h-1.733c-0.033.335-.044,0.692-0.044,1.117v4.725a1.978,1.978,0,0,0,.1.838,0.517,0.517,0,0,0,.469.168l0.537,0.034v0.34c-0.582-.023-1.107-0.033-1.621-0.033-0.548,0-1.073.01-1.654,0.033v-0.34l0.537-.034a0.517,0.517,0,0,0,.469-0.168,1.978,1.978,0,0,0,.1-0.838h0Zm7.006,0V262.82a1.973,1.973,0,0,0-.1-0.836,0.518,0.518,0,0,0-.47-0.168l-0.536-.033v-0.34c0.615,0.011,1.252.033,1.889,0.033,0.972,0,2-.033,2.634-0.033,0.506,0,1.011.011,1.447,0.033a7.472,7.472,0,0,0-.18,1.7h-0.391v-0.727a0.294,0.294,0,0,0-.1-0.3,6.936,6.936,0,0,0-2.192-.234,3.829,3.829,0,0,0-.937.089v2.984c0.356,0.023.758,0.034,1.294,0.034a3.1,3.1,0,0,0,1.183-.123,0.423,0.423,0,0,0,.089-0.29l0.057-.582h0.339c-0.011.458-.032,0.883-0.032,1.3s0.022,0.838.032,1.241h-0.339l-0.057-.659a0.37,0.37,0,0,0-.089-0.28,2.785,2.785,0,0,0-1.183-.134c-0.536,0-.948,0-1.294.034v3.13a3.853,3.853,0,0,0,.937.089,10.265,10.265,0,0,0,2.26-.145,2.067,2.067,0,0,0,.392-1.252h0.392a9.574,9.574,0,0,0-.179,1.833c-0.492.011-1.38,0.045-2.206,0.034-0.858-.011-1.74-0.034-2.434-0.034-0.425,0-.794.023-1.2,0.034v-0.34l0.4-.034a0.548,0.548,0,0,0,.47-0.168,1.972,1.972,0,0,0,.1-0.837h0Zm12.905-1.046v-3.965a1.976,1.976,0,0,0-.1-0.838,0.515,0.515,0,0,0-.47-0.168l-0.536-.033v-0.34c0.581,0.022,1.106.033,1.654,0.033,0.514,0,1.04-.01,1.621-0.033v0.34l-0.536.033a0.515,0.515,0,0,0-.47.168,1.955,1.955,0,0,0-.1.838v3.842c0,1.586.828,2.044,2.3,2.044a2.035,2.035,0,0,0,2.3-2.312v-3.574a1.977,1.977,0,0,0-.1-0.838,0.547,0.547,0,0,0-.47-0.168l-0.492-.033v-0.34c0.447,0.011.895,0.033,1.3,0.033,0.447,0,.85-0.022,1.342-0.033v0.34l-0.492.033a0.547,0.547,0,0,0-.47.168,1.977,1.977,0,0,0-.1.838v3.228c0,2.391-.905,3.352-3.163,3.352-1.9,0-3.018-.57-3.018-2.614h0ZM451.364,262v5.831a1.973,1.973,0,0,0,.1.837,0.517,0.517,0,0,0,.47.168l0.536,0.034v0.34c-0.581-.023-1.106-0.033-1.621-0.033-0.548,0-1.073.01-1.654,0.033v-0.34l0.537-.034a0.516,0.516,0,0,0,.469-0.168,1.972,1.972,0,0,0,.1-0.837v-5.012a1.866,1.866,0,0,0-.111-0.815,0.572,0.572,0,0,0-.48-0.19l-0.5-.033v-0.34c0.738,0.011,1.375.033,2.013,0.033s1.3-.022,1.9-0.033c1.084-.023,2.313.447,2.313,1.71a2.513,2.513,0,0,1-2.683,2.4,3.4,3.4,0,0,1-.671-0.067l-0.111-.4a2.4,2.4,0,0,0,.737.112,1.609,1.609,0,0,0,1.61-1.665,1.558,1.558,0,0,0-1.811-1.666,4.329,4.329,0,0,0-1.14.134h0Zm10.3-.28c-1.945,0-2.828,1.364-2.828,3.2,0,1.956.916,4.013,3.13,4.013,1.866,0,2.771-1.453,2.771-3.51,0-2.213-.994-3.7-3.073-3.7h0Zm-0.057,7.68a3.823,3.823,0,0,1-3.968-4.069,3.953,3.953,0,0,1,4.2-4.08c2.392,0,4.091,1.342,4.091,3.823a4.28,4.28,0,0,1-4.326,4.326h0Zm8.683-3.857v2.288a1.952,1.952,0,0,0,.1.837,0.516,0.516,0,0,0,.469.168l0.537,0.034v0.34c-0.581-.023-1.108-0.033-1.621-0.033-0.548,0-1.073.01-1.654,0.033v-0.34l0.536-.034a0.517,0.517,0,0,0,.47-0.168,1.972,1.972,0,0,0,.1-0.837v-5.012a1.97,1.97,0,0,0-.1-0.837,0.515,0.515,0,0,0-.47-0.167l-0.536-.034v-0.34c0.581,0.022,1.106.033,1.654,0.033,0.514,0,1.04-.01,1.621-0.033v0.34l-0.537.034a0.513,0.513,0,0,0-.469.167,1.951,1.951,0,0,0-.1.837v2.389l3.108-3.025a1.165,1.165,0,0,0,.324-0.436v-0.306c0.357,0.011.67,0.033,1,.033s0.625-.022.894-0.033v0.34l-0.47.022a1.423,1.423,0,0,0-.871.424l-2.974,2.679,3.688,3.482a1.492,1.492,0,0,0,.693.458l0.234,0.022v0.34c-0.212-.012-0.481-0.033-0.737-0.033s-0.537.021-.884,0.033l-3.89-3.745-0.112.078h0Zm11.668-3.823c-1.945,0-2.828,1.364-2.828,3.2,0,1.956.917,4.013,3.13,4.013,1.867,0,2.772-1.453,2.772-3.51,0-2.213-1-3.7-3.074-3.7h0Zm-0.056,7.68a3.824,3.824,0,0,1-3.969-4.069,3.953,3.953,0,0,1,4.2-4.08c2.393,0,4.092,1.342,4.092,3.823a4.28,4.28,0,0,1-4.326,4.326h0Zm15.029-7.68c-1.945,0-2.828,1.364-2.828,3.2,0,1.956.916,4.013,3.13,4.013,1.866,0,2.772-1.453,2.772-3.51,0-2.213-1-3.7-3.074-3.7h0Zm-0.057,7.68a3.823,3.823,0,0,1-3.968-4.069,3.953,3.953,0,0,1,4.2-4.08c2.392,0,4.091,1.342,4.091,3.823a4.28,4.28,0,0,1-4.326,4.326h0Zm13.655-1.569v-4.725c0-.424-0.012-0.782-0.045-1.117h-1.732c-0.336,0-.425.1-0.448,0.369l-0.044.882h-0.347c0-.6-0.023-1.217-0.078-1.8,0.8,0,1.609.033,2.414,0.033h1.621c0.8,0,1.609-.033,2.415-0.033-0.057.581-.078,1.2-0.078,1.8h-0.347l-0.045-.882c-0.022-.269-0.112-0.369-0.447-0.369h-1.732a11,11,0,0,0-.045,1.117v4.725a1.978,1.978,0,0,0,.1.838,0.518,0.518,0,0,0,.47.168l0.536,0.034v0.34c-0.581-.023-1.106-0.033-1.62-0.033-0.548,0-1.074.01-1.655,0.033v-0.34l0.537-.034a0.519,0.519,0,0,0,.47-0.168,1.978,1.978,0,0,0,.1-0.838h0Zm7.006,0V262.82a1.973,1.973,0,0,0-.1-0.836,0.518,0.518,0,0,0-.47-0.168l-0.537-.033v-0.34c0.615,0.011,1.252.033,1.89,0.033,0.971,0,2-.033,2.634-0.033,0.506,0,1.011.011,1.446,0.033a7.478,7.478,0,0,0-.179,1.7h-0.392v-0.727a0.294,0.294,0,0,0-.1-0.3,6.939,6.939,0,0,0-2.192-.234,3.837,3.837,0,0,0-.937.089v2.984c0.357,0.023.759,0.034,1.294,0.034a3.1,3.1,0,0,0,1.183-.123,0.427,0.427,0,0,0,.09-0.29l0.056-.582h0.34c-0.011.458-.032,0.883-0.032,1.3s0.021,0.838.032,1.241h-0.34l-0.056-.659a0.373,0.373,0,0,0-.09-0.28,2.781,2.781,0,0,0-1.183-.134c-0.535,0-.948,0-1.294.034v3.13a3.861,3.861,0,0,0,.938.089,10.27,10.27,0,0,0,2.26-.145,2.077,2.077,0,0,0,.391-1.252h0.392a9.647,9.647,0,0,0-.179,1.833c-0.492.011-1.38,0.045-2.2,0.034-0.859-.011-1.741-0.034-2.434-0.034-0.426,0-.794.023-1.2,0.034v-0.34l0.4-.034a0.548,0.548,0,0,0,.47-0.168,1.973,1.973,0,0,0,.1-0.837h0Zm14.079-5.012v5.012a1.957,1.957,0,0,0,.1.837,0.516,0.516,0,0,0,.469.168l0.537,0.034v0.34c-0.581-.023-1.107-0.033-1.621-0.033-0.548,0-1.073.01-1.654,0.033v-0.34l0.537-.034a0.516,0.516,0,0,0,.469-0.168,1.974,1.974,0,0,0,.1-0.837v-5.012a1.973,1.973,0,0,0-.1-0.837,0.513,0.513,0,0,0-.469-0.167l-0.537-.034v-0.34c0.581,0.022,1.106.033,1.654,0.033,0.515,0,1.04-.01,1.621-0.033v0.34l-0.537.034a0.513,0.513,0,0,0-.469.167,1.956,1.956,0,0,0-.1.837h0Zm5.463,2.724v2.288a1.974,1.974,0,0,0,.1.837,0.518,0.518,0,0,0,.47.168l0.536,0.034v0.34c-0.581-.023-1.106-0.033-1.62-0.033-0.548,0-1.073.01-1.654,0.033v-0.34l0.536-.034a0.518,0.518,0,0,0,.47-0.168,1.973,1.973,0,0,0,.1-0.837v-5.012a1.972,1.972,0,0,0-.1-0.837,0.515,0.515,0,0,0-.47-0.167l-0.536-.034v-0.34c0.581,0.022,1.106.033,1.654,0.033,0.514,0,1.039-.01,1.62-0.033v0.34l-0.536.034a0.515,0.515,0,0,0-.47.167,1.972,1.972,0,0,0-.1.837v2.389l3.107-3.025a1.154,1.154,0,0,0,.324-0.436v-0.306c0.357,0.011.671,0.033,1,.033s0.626-.022.894-0.033v0.34l-0.47.022a1.423,1.423,0,0,0-.872.424l-2.974,2.679,3.689,3.482a1.491,1.491,0,0,0,.692.458l0.235,0.022v0.34c-0.213-.012-0.48-0.033-0.738-0.033s-0.536.021-.883,0.033l-3.89-3.745-0.112.078h0Zm10.08,0.626h2.828l-1.408-3.331-1.42,3.331h0Zm1.878-4.818,2.705,6.347c0.1,0.223.224,0.524,0.358,0.758a0.618,0.618,0,0,0,.446.379l0.381,0.034v0.34c-0.492-.012-0.984-0.033-1.487-0.033-0.391,0-.883.021-1.486,0.033v-0.34l0.525-.034a0.429,0.429,0,0,0,.458-0.223,2.611,2.611,0,0,0-.234-0.714l-0.515-1.283h-3.219l-0.313.748a6.442,6.442,0,0,0-.392,1.16c0,0.234.19,0.279,0.537,0.313l0.413,0.034v0.34c-0.536-.012-0.961-0.033-1.285-0.033-0.435,0-.86.021-1.285,0.033v-0.34l0.413-.034a0.8,0.8,0,0,0,.6-0.546l1.99-4.523c0.346-.783.727-1.61,1.028-2.415h0.357Zm11.979,4.818h2.828l-1.409-3.331-1.419,3.331h0Zm1.878-4.818L565.6,267.7c0.1,0.223.223,0.524,0.357,0.758a0.621,0.621,0,0,0,.447.379l0.38,0.034v0.34c-0.492-.012-0.983-0.033-1.486-0.033-0.392,0-.884.021-1.487,0.033v-0.34l0.525-.034a0.43,0.43,0,0,0,.459-0.223,2.586,2.586,0,0,0-.235-0.714l-0.514-1.283h-3.22l-0.312.748a6.372,6.372,0,0,0-.392,1.16c0,0.234.189,0.279,0.536,0.313l0.414,0.034v0.34c-0.537-.012-0.962-0.033-1.286-0.033-0.436,0-.86.021-1.285,0.033v-0.34l0.413-.034a0.8,0.8,0,0,0,.6-0.546l1.99-4.523c0.347-.783.726-1.61,1.028-2.415H562.9Zm18.952,1.468v5.012a1.973,1.973,0,0,0,.1.837,0.519,0.519,0,0,0,.47.168l0.537,0.034v0.34c-0.582-.023-1.108-0.033-1.621-0.033-0.548,0-1.073.01-1.5,0.033v-0.34l0.38-.034a0.548,0.548,0,0,0,.47-0.168,1.973,1.973,0,0,0,.1-0.837v-5.067a9.081,9.081,0,0,0-.492.916l-1.989,4.222c-0.213.458-.4,0.95-0.6,1.419h-0.223l-3.1-6.558-0.022,5.067a1.971,1.971,0,0,0,.1.837,0.548,0.548,0,0,0,.47.168l0.492,0.034v0.34c-0.492-.012-0.895-0.033-1.342-0.033-0.4,0-.85.021-1.3,0.033v-0.34l0.492-.034a0.548,0.548,0,0,0,.47-0.168,1.989,1.989,0,0,0,.1-0.837v-5.012a1.987,1.987,0,0,0-.1-0.837,0.547,0.547,0,0,0-.47-0.167l-0.492-.034v-0.34c0.347,0.011.7,0.033,1.062,0.033s0.715-.022,1.062-0.033l2.951,6.211,2.929-6.211c0.357,0.011.7,0.033,1.061,0.033s0.716-.022,1.04-0.033v0.34l-0.47.034a0.548,0.548,0,0,0-.47.167,1.972,1.972,0,0,0-.1.837h0Zm5.71,3.35h2.828l-1.408-3.331-1.42,3.331h0Zm1.878-4.818,2.705,6.347c0.1,0.223.224,0.524,0.357,0.758a0.621,0.621,0,0,0,.447.379l0.38,0.034v0.34c-0.491-.012-0.983-0.033-1.486-0.033-0.392,0-.883.021-1.486,0.033v-0.34l0.525-.034a0.429,0.429,0,0,0,.458-0.223,2.585,2.585,0,0,0-.235-0.714l-0.514-1.283h-3.22l-0.312.748a6.442,6.442,0,0,0-.392,1.16c0,0.234.189,0.279,0.536,0.313l0.414,0.034v0.34c-0.536-.012-0.961-0.033-1.285-0.033-0.437,0-.861.021-1.286,0.033v-0.34l0.414-.034a0.8,0.8,0,0,0,.6-0.546l1.989-4.523c0.347-.783.728-1.61,1.029-2.415h0.357Zm7.073,5.434v-3.965a1.976,1.976,0,0,0-.1-0.838,0.516,0.516,0,0,0-.47-0.168l-0.537-.033v-0.34c0.582,0.022,1.107.033,1.655,0.033,0.514,0,1.039-.01,1.62-0.033v0.34l-0.536.033a0.516,0.516,0,0,0-.47.168,1.976,1.976,0,0,0-.1.838v3.842c0,1.586.827,2.044,2.3,2.044a2.035,2.035,0,0,0,2.3-2.312v-3.574a1.976,1.976,0,0,0-.1-0.838,0.545,0.545,0,0,0-.469-0.168l-0.492-.033v-0.34c0.447,0.011.895,0.033,1.3,0.033,0.447,0,.85-0.022,1.341-0.033v0.34l-0.491.033a0.547,0.547,0,0,0-.47.168,1.976,1.976,0,0,0-.1.838v3.228c0,2.391-.905,3.352-3.164,3.352-1.9,0-3.017-.57-3.017-2.614h0ZM440.875,259.3h4.184v0.837h-4.184V259.3h0Zm151.918,25.629-3.942,10.013h8.042l-4.1-10.013h0Zm5.006,12.221h-9.893l-1.656,4.4c-0.552,1.494.237,2.2,0.946,2.242l1.971,0.119v1.473c-1.892-.039-3.311-0.113-4.454-0.113s-2.561.074-4.454,0.113v-1.473l1.182-.119c1.025-.119,1.735-1.219,2.208-2.359l7.135-17.254,1.025-2.72,0.63-1.616,0.592-1.616h2.8l10.209,23.835a2.47,2.47,0,0,0,2.168,1.731l0.946,0.119v1.473c-2.641-.039-4.572-0.113-6.109-0.113s-3.509.074-6.11,0.113v-1.473l2.089-.119c0.631-.039,1.065-0.9.553-2.162l-1.774-4.482h0ZM403.888,283.608l6.188,15.244,5.6-13.905a14.863,14.863,0,0,0,1.222-3.86c0-.709-0.67-1.023-1.459-1.063l-1.813-.118v-1.474c1.931,0.039,3.43.115,4.573,0.115s2.6-.075,4.533-0.115V279.9l-1.261.118c-0.868.079-1.38,0.709-1.853,1.851l-8.2,19.616c-0.551,1.3-.985,2.6-1.5,3.9h-3L397.5,282.859c-0.474-1.1-1.1-2.718-2.444-2.836l-1.616-.118v-1.474c2.6,0.039,4.612.115,6.149,0.115s3.508-.075,6.465-0.115V279.9l-1.971.118a0.982,0.982,0,0,0-1.024.748,9.183,9.183,0,0,0,.827,2.836h0Zm31.824,0.272V299.94a9.448,9.448,0,0,0,.276,3.187c0.157,0.314.591,0.473,1.616,0.551l1.458,0.119v1.592c-1.615-.039-3.784-0.113-6.109-0.113-2.365,0-4.533.074-6.149,0.113V303.8l1.459-.119c1.024-.078,1.458-0.236,1.615-0.551a9.429,9.429,0,0,0,.275-3.187V283.88a9.424,9.424,0,0,0-.275-3.187c-0.157-.315-0.591-0.473-1.615-0.551l-1.459-.119v-1.592c1.616,0.039,3.784.115,6.149,0.115,2.325,0,4.494-.075,6.109-0.115v1.592l-1.458.119c-1.025.079-1.459,0.236-1.616,0.551a9.442,9.442,0,0,0-.276,3.187h0Zm32.924,17.963-0.868,1.932a17.33,17.33,0,0,1-9.074,2.168c-8.979,0-15.6-5.047-15.6-14.467,0-9.066,7.37-13.6,15.757-13.6a22.573,22.573,0,0,1,9.666,1.853l0.237,0.434a52.522,52.522,0,0,0-.907,6.031h-1.553l-0.2-3.391a9.361,9.361,0,0,0-7.088-2.72c-6.537,0-10,4.652-10,10.879,0,7.214,4.174,12.418,11.616,12.418a16.889,16.889,0,0,0,7.539-2.01l0.474,0.473h0Zm19.06-20.971v19.063a9.477,9.477,0,0,0,.275,3.191c0.157,0.314.59,0.473,1.612,0.551l1.455,0.119v1.592c-1.612-.039-3.776-0.113-6.1-0.113-2.364,0-4.529.074-6.141,0.113V303.8l1.455-.119c1.022-.078,1.455-0.236,1.611-0.551a9.441,9.441,0,0,0,.276-3.191V280.873h-4.6c-1.062,0-2.163,0-2.438.354a1.77,1.77,0,0,0-.354.945l-0.2,2.718h-1.593a45.189,45.189,0,0,0-.512-6.264l0.236-.2c4.149,0.04,8.239.119,12.218,0.119,4.018,0,8.107-.079,12.258-0.119l0.236,0.2a45.178,45.178,0,0,0-.513,6.264h-1.592l-0.2-2.718a1.763,1.763,0,0,0-.353-0.945c-0.275-.354-1.377-0.354-2.438-0.354h-4.6Zm27.569-.789c-7.332,0-9.065,5.479-9.065,11.392,0,6.5,2.72,12.258,8.277,12.258,7.332,0,9.066-5.439,9.066-11.351,0-6.5-2.721-12.3-8.278-12.3h0Zm0-2.207c8.83,0,14.19,4.809,14.19,13.8,0,9.3-5.951,14.27-14.978,14.27-8.83,0-14.19-4.809-14.19-13.8,0-9.3,5.952-14.27,14.978-14.27h0Zm21.248,22.059V283.88a9.451,9.451,0,0,0-.275-3.187c-0.2-.394-0.592-0.591-1.616-0.67l-1.459-.118v-1.476c2.6,0.04,4.612.119,6.623,0.119,2.68,0,5.32-.079,8-0.119,4.02-.079,7.726,1.144,7.726,5.832,0,3.465-2.6,5.789-5.873,6.971l7.135,10.792a5.532,5.532,0,0,0,1.144,1.221,3.993,3.993,0,0,0,1.615.553v1.592c-1.262-.039-2.561-0.113-3.823-0.113-1.183,0-2.365.074-3.548,0.113l-8.83-13.685,0.276-.709c3.626,0.315,6.308-1.93,6.308-5.632,0-3.23-2.248-4.963-5.322-4.963a6.435,6.435,0,0,0-2.523.354v19.182a9.477,9.477,0,0,0,.275,3.191c0.158,0.314.592,0.473,1.616,0.551l1.459,0.119v1.592c-1.616-.039-3.785-0.113-6.109-0.113-2.366,0-4.534.074-6.15,0.113V303.8l1.459-.119c1.024-.078,1.459-0.236,1.616-0.551a9.477,9.477,0,0,0,.275-3.191h0Zm35.969-16.055V299.94a9.447,9.447,0,0,0,.276,3.187c0.157,0.314.592,0.473,1.616,0.551l1.458,0.119v1.592c-1.615-.039-3.784-0.113-6.109-0.113-2.365,0-4.533.074-6.149,0.113V303.8l1.459-.119c1.024-.078,1.458-0.236,1.616-0.551a9.454,9.454,0,0,0,.275-3.187V283.88a9.448,9.448,0,0,0-.275-3.187c-0.158-.315-0.592-0.473-1.616-0.551l-1.459-.119v-1.592c1.616,0.039,3.784.115,6.149,0.115,2.325,0,4.494-.075,6.109-0.115v1.592l-1.458.119c-1.024.079-1.459,0.236-1.616,0.551a9.442,9.442,0,0,0-.276,3.187h0Zm28.877,36.754v-4.553a2.66,2.66,0,0,0-.079-0.9,0.475,0.475,0,0,0-.458-0.191l-0.413-.033v-0.418c0.447,0.012.894,0.033,1.341,0.033,0.313,0,.626-0.021.939-0.033,0.38,0.5.749,1.021,1.151,1.49l3.487,4.066v-4.01a2.67,2.67,0,0,0-.078-0.9,0.475,0.475,0,0,0-.458-0.191l-0.414-.033v-0.418c0.425,0.012.861,0.033,1.286,0.033s0.85-.021,1.274-0.033v0.418l-0.414.033a0.476,0.476,0,0,0-.458.191,2.67,2.67,0,0,0-.078.9v5.07c0,0.393.022,0.795,0.033,1.129l-1-.1c-0.458-.514-0.928-1.039-1.363-1.558l-3.622-4.352-0.022,4.363a2.676,2.676,0,0,0,.078.9,0.477,0.477,0,0,0,.459.189l0.413,0.033v0.418c-0.425-.01-0.85-0.031-1.274-0.031s-0.86.022-1.285,0.031v-0.418l0.413-.033a0.475,0.475,0,0,0,.458-0.189,2.667,2.667,0,0,0,.079-0.9h0ZM397.3,320.17v-4.088a2.682,2.682,0,0,0-.078-0.9,0.476,0.476,0,0,0-.459-0.191l-0.413-.033v-0.418c0.459,0.012,1.073.033,1.744,0.033s1.274-.021,1.732-0.033v0.418l-0.413.033a0.477,0.477,0,0,0-.458.191,2.682,2.682,0,0,0-.078.9v2.77c0,1.574.1,2.568,1.99,2.568,1.867,0,2.079-1.027,2.079-2.647v-2.691a2.672,2.672,0,0,0-.078-0.9,0.475,0.475,0,0,0-.458-0.191l-0.414-.033v-0.418c0.425,0.012.86,0.033,1.285,0.033s0.85-.021,1.274-0.033v0.418l-0.413.033a0.475,0.475,0,0,0-.458.191,2.665,2.665,0,0,0-.079.9v3.262c0,2.043-1.084,2.994-3.107,2.994-2.113,0-3.2-.906-3.2-2.168h0Zm10.517,0.465v-4.553a2.7,2.7,0,0,0-.078-0.9,0.477,0.477,0,0,0-.458-0.191l-0.414-.033v-0.418c0.447,0.012.894,0.033,1.341,0.033,0.313,0,.626-0.021.939-0.033,0.38,0.5.749,1.021,1.151,1.49l3.488,4.066v-4.01a2.665,2.665,0,0,0-.079-0.9,0.475,0.475,0,0,0-.458-0.191l-0.414-.033v-0.418c0.424,0.012.86,0.033,1.286,0.033s0.849-.021,1.274-0.033v0.418l-0.414.033a0.475,0.475,0,0,0-.458.191,2.665,2.665,0,0,0-.079.9v5.07c0,0.393.022,0.795,0.034,1.129l-1-.1c-0.458-.514-0.927-1.039-1.364-1.558l-3.622-4.352-0.023,4.363a2.674,2.674,0,0,0,.079.9,0.475,0.475,0,0,0,.458.189l0.413,0.033v0.418c-0.425-.01-0.85-0.031-1.274-0.031s-0.861.022-1.285,0.031v-0.418l0.414-.033a0.477,0.477,0,0,0,.458-0.189,2.707,2.707,0,0,0,.078-0.9h0Zm12.648-4.555v4.555a2.671,2.671,0,0,0,.079.9,0.517,0.517,0,0,0,.458.156l0.414,0.033v0.451c-0.459-.01-1.073-0.031-1.733-0.031s-1.285.022-1.744,0.031v-0.451l0.414-.033a0.518,0.518,0,0,0,.458-0.156,2.689,2.689,0,0,0,.078-0.9V316.08a2.669,2.669,0,0,0-.078-0.9,0.523,0.523,0,0,0-.458-0.158l-0.414-.033v-0.451c0.458,0.012,1.073.033,1.744,0.033s1.274-.021,1.733-0.033v0.451l-0.414.033a0.522,0.522,0,0,0-.458.158,2.65,2.65,0,0,0-.079.9h0Zm6.29-.076,1.755,4.322,1.587-3.943a4.2,4.2,0,0,0,.347-1.094,0.358,0.358,0,0,0-.413-0.3l-0.515-.033v-0.418c0.548,0.012.973,0.033,1.3,0.033s0.737-.021,1.285-0.033v0.418l-0.357.033a0.675,0.675,0,0,0-.525.525l-2.325,5.562c-0.156.369-.279,0.738-0.425,1.107h-0.85l-2.672-6.391a1.087,1.087,0,0,0-.692-0.8l-0.459-.033v-0.418c0.738,0.012,1.309.033,1.744,0.033s1-.021,1.833-0.033v0.418l-0.559.033a0.281,0.281,0,0,0-.291.213,2.615,2.615,0,0,0,.235.8h0Zm10.192-.787V317.9c0.257,0.022.5,0.022,0.749,0.022h0.737c0.392,0,.615-0.022.638-0.234l0.066-.637h0.447c-0.011.4-.033,0.793-0.033,1.2s0.022,0.8.033,1.207h-0.447l-0.066-.559c-0.034-.312-0.246-0.414-0.638-0.414h-0.737c-0.246,0-.492.012-0.749,0.033V321.5c0.47,0.023.95,0.035,1.431,0.035a3.786,3.786,0,0,0,1.364-.191L440,320.291h0.439l-0.124,1.768a16.192,16.192,0,0,1-2.811.123c-0.458-.012-0.916-0.035-1.375-0.035s-0.928.023-1.341,0.035v-0.258l0.357-.2a0.637,0.637,0,0,0,.224-0.637V316.08a2.7,2.7,0,0,0-.078-0.9,0.481,0.481,0,0,0-.459-0.19l-0.413-.033v-0.418c0.737,0.012,1.308.033,1.744,0.033,1.051,0,1.81-.021,2.448-0.033a15.015,15.015,0,0,1,1.632.033l-0.09,1.666h-0.4l-0.09-.84a2.212,2.212,0,0,0-1.285-.211c-0.481,0-.961.01-1.431,0.033h0Zm6.971,5.418V316.08a2.655,2.655,0,0,0-.078-0.9,0.476,0.476,0,0,0-.458-0.191l-0.414-.033v-0.418c0.738,0.012,1.308.033,1.878,0.033,0.76,0,1.509-.021,2.269-0.033,1.14-.024,2.191.324,2.191,1.654a2.188,2.188,0,0,1-1.666,1.976l2.023,3.061a1.588,1.588,0,0,0,.324.346,1.141,1.141,0,0,0,.458.156v0.451c-0.357-.01-0.726-0.031-1.084-0.031-0.336,0-.671.022-1.006,0.031l-2.5-3.881,0.079-.2a1.536,1.536,0,0,0,1.788-1.6,1.36,1.36,0,0,0-1.509-1.408,1.849,1.849,0,0,0-.716.1v5.441a2.7,2.7,0,0,0,.078.9,0.519,0.519,0,0,0,.459.156l0.413,0.033v0.451c-0.458-.01-1.073-0.031-1.732-0.031s-1.286.022-1.744,0.031v-0.451l0.414-.033a0.518,0.518,0,0,0,.458-0.156,2.676,2.676,0,0,0,.078-0.9h0Zm9.211-.746h0.451l0.079,0.984a2.284,2.284,0,0,0,1.752.861,1.545,1.545,0,0,0,1.753-1.477,1.082,1.082,0,0,0-.927-1.039l-1.567-.469a2.026,2.026,0,0,1-1.632-1.9c0-1.789,1.33-2.471,2.951-2.471a5.782,5.782,0,0,1,2.079.379,16.3,16.3,0,0,0-.1,1.723h-0.458l-0.067-.918a2.12,2.12,0,0,0-1.486-.613,1.34,1.34,0,0,0-1.532,1.352,1.225,1.225,0,0,0,1.185,1.084l1.274,0.336a1.965,1.965,0,0,1,1.687,1.922c0,1.9-1.576,2.7-3.272,2.7a5.415,5.415,0,0,1-2.339-.516,9.506,9.506,0,0,0,.168-1.934h0Zm10.7-3.809v4.555a2.676,2.676,0,0,0,.078.9,0.519,0.519,0,0,0,.459.156l0.413,0.033v0.451c-0.458-.01-1.073-0.031-1.733-0.031s-1.286.022-1.744,0.031v-0.451l0.414-.033a0.519,0.519,0,0,0,.458-0.156,2.679,2.679,0,0,0,.078-0.9V316.08a2.658,2.658,0,0,0-.078-0.9,0.523,0.523,0,0,0-.458-0.158l-0.414-.033v-0.451c0.458,0.012,1.073.033,1.744,0.033s1.274-.021,1.733-0.033v0.451l-0.413.033a0.524,0.524,0,0,0-.459.158,2.655,2.655,0,0,0-.078.9h0Zm7.621-.852v5.406a2.712,2.712,0,0,0,.077.9,0.517,0.517,0,0,0,.457.156l0.413,0.033v0.451c-0.457-.01-1.07-0.031-1.731-0.031s-1.284.022-1.741,0.031v-0.451l0.412-.033a0.515,0.515,0,0,0,.457-0.156,2.676,2.676,0,0,0,.078-0.9v-5.406h-1.3a1.214,1.214,0,0,0-.691.1,0.509,0.509,0,0,0-.1.268l-0.057.771h-0.451a12.782,12.782,0,0,0-.145-1.777c1.244-.043,2.4-0.022,3.531-0.022s2.3-.021,3.477-0.033c-0.022.592-.056,1.105-0.078,1.832H473.6l-0.057-.771a0.5,0.5,0,0,0-.1-0.268,1.212,1.212,0,0,0-.691-0.1h-1.3Zm9.074,2.932,2.1-3.592h0.861v0.213l-1.968,2.908a7.213,7.213,0,0,0-.593,1.119v1.824a2.681,2.681,0,0,0,.079.906,0.527,0.527,0,0,0,.458.156l0.414,0.033v0.451c-0.459-.01-1.073-0.031-1.733-0.031s-1.285.022-1.744,0.031v-0.451l0.414-.033a0.53,0.53,0,0,0,.459-0.156,2.727,2.727,0,0,0,.077-0.906v-1.557a7,7,0,0,0-.491-0.951l-1.129-1.822a6.45,6.45,0,0,0-.581-0.75,1.038,1.038,0,0,0-.872-0.369v-0.414l1.777-.391a3.359,3.359,0,0,1,1.274,1.51l1.2,2.271h0ZM494.51,315c-2.079,0-2.57,1.555-2.57,3.23,0,1.846.771,3.477,2.347,3.477,2.08,0,2.571-1.543,2.571-3.219,0-1.846-.772-3.488-2.348-3.488h0Zm0-.625c2.5,0,4.024,1.363,4.024,3.912,0,2.639-1.687,4.047-4.248,4.047-2.5,0-4.024-1.365-4.024-3.912,0-2.639,1.688-4.047,4.248-4.047h0Zm9.094,0.838v2.717c0.257,0.022.5,0.022,0.749,0.022h0.569c0.392,0,.615-0.022.638-0.234l0.067-.592h0.447c-0.012.357-.033,0.748-0.033,1.15s0.021,0.8.033,1.205h-0.447l-0.067-.557c-0.033-.312-0.246-0.414-0.638-0.414h-0.569c-0.246,0-.492.012-0.749,0.033v2.088a2.7,2.7,0,0,0,.078.9,0.52,0.52,0,0,0,.459.156l0.525,0.033v0.451c-0.57-.01-1.186-0.031-1.845-0.031s-1.286.022-1.744,0.031v-0.451l0.414-.033a0.518,0.518,0,0,0,.458-0.156,2.7,2.7,0,0,0,.078-0.9V316.08a2.7,2.7,0,0,0-.078-0.9,0.481,0.481,0,0,0-.458-0.19l-0.414-.033v-0.418c0.738,0.012,1.308.033,1.744,0.033,0.872,0,1.632-.021,2.269-0.033a15.028,15.028,0,0,1,1.633.033l-0.09,1.666h-0.4l-0.09-.84a2.21,2.21,0,0,0-1.285-.211c-0.3,0-.782.01-1.252,0.033h0Zm13.135,4.584,1.665-3.936,0.57-1.387h0.5c0.179,0.516.357,1.006,0.548,1.492l1.52,3.8,1.1-4.189a1.389,1.389,0,0,0,.044-0.367,0.366,0.366,0,0,0-.391-0.225l-0.515-.033v-0.418c0.5,0.012.894,0.033,1.207,0.033s0.693-.021,1.208-0.033v0.418l-0.369.033a0.93,0.93,0,0,0-.481.772l-1.364,4.826c-0.145.525-.245,1.06-0.368,1.6H520.8c-0.146-.392-0.269-0.783-0.425-1.174l-1.666-4.189-1.732,3.967c-0.2.457-.347,0.926-0.525,1.4h-0.782l-1.554-6.725a0.494,0.494,0,0,0-.414-0.471l-0.357-.033v-0.418c0.737,0.012,1.308.033,1.744,0.033s0.994-.021,1.5-0.033v0.418l-0.47.033a0.369,0.369,0,0,0-.336.258,1.872,1.872,0,0,0,.034.313l0.905,4.244h0.023Zm12.274-4.584V317.9c0.258,0.022.5,0.022,0.749,0.022H530.5c0.391,0,.614-0.022.637-0.234l0.067-.637h0.447c-0.012.4-.034,0.793-0.034,1.2s0.022,0.8.034,1.207H531.2l-0.067-.559c-0.033-.312-0.246-0.414-0.637-0.414h-0.738c-0.246,0-.491.012-0.749,0.033V321.5c0.47,0.023.95,0.035,1.432,0.035a3.791,3.791,0,0,0,1.364-.191l0.259-1.051h0.439l-0.123,1.768a16.19,16.19,0,0,1-2.811.123c-0.459-.012-0.917-0.035-1.375-0.035s-0.928.023-1.342,0.035v-0.258l0.357-.2a0.635,0.635,0,0,0,.224-0.637V316.08a2.676,2.676,0,0,0-.078-0.9,0.479,0.479,0,0,0-.458-0.19l-0.414-.033v-0.418c0.738,0.012,1.309.033,1.744,0.033,1.051,0,1.811-.021,2.448-0.033a15,15,0,0,1,1.632.033l-0.09,1.666h-0.4l-0.089-.84a2.214,2.214,0,0,0-1.285-.211c-0.481,0-.962.01-1.432,0.033h0Zm8.548,0.865V321.5c0.469,0.023.95,0.035,1.431,0.035a3.786,3.786,0,0,0,1.364-.191l0.259-1.139h0.438l-0.123,1.855a16.191,16.191,0,0,1-2.811.123c-0.458-.012-0.917-0.035-1.375-0.035s-0.928.023-1.342,0.035v-0.258l0.358-.2a0.635,0.635,0,0,0,.225-0.637v-5a2.66,2.66,0,0,0-.079-0.9,0.52,0.52,0,0,0-.458-0.158l-0.414-.033v-0.451c0.459,0.012,1.074.033,1.744,0.033s1.274-.021,1.733-0.033v0.451l-0.414.033a0.522,0.522,0,0,0-.458.158,2.668,2.668,0,0,0-.078.9h0Zm8.547,0V321.5c0.469,0.023.95,0.035,1.431,0.035a3.786,3.786,0,0,0,1.364-.191l0.259-1.139H549.6l-0.123,1.855a16.191,16.191,0,0,1-2.811.123c-0.458-.012-0.916-0.035-1.375-0.035s-0.928.023-1.341,0.035v-0.258l0.357-.2a0.637,0.637,0,0,0,.224-0.637v-5a2.7,2.7,0,0,0-.078-0.9,0.523,0.523,0,0,0-.458-0.158l-0.414-.033v-0.451c0.458,0.012,1.073.033,1.744,0.033s1.274-.021,1.732-0.033v0.451l-0.414.033a0.523,0.523,0,0,0-.458.158,2.672,2.672,0,0,0-.078.9h0Zm8.547,0v4.555a2.7,2.7,0,0,0,.078.9,0.519,0.519,0,0,0,.459.156l0.413,0.033v0.451c-0.458-.01-1.073-0.031-1.732-0.031s-1.285.022-1.744,0.031v-0.451l0.413-.033a0.519,0.519,0,0,0,.459-0.156,2.677,2.677,0,0,0,.078-0.9V316.08a2.656,2.656,0,0,0-.078-0.9,0.524,0.524,0,0,0-.459-0.158l-0.413-.033v-0.451c0.459,0.012,1.073.033,1.744,0.033s1.274-.021,1.732-0.033v0.451l-0.413.033a0.524,0.524,0,0,0-.459.158,2.683,2.683,0,0,0-.078.9h0Zm4.446,4.555v-4.553a2.66,2.66,0,0,0-.079-0.9,0.475,0.475,0,0,0-.458-0.191l-0.413-.033v-0.418c0.446,0.012.894,0.033,1.341,0.033,0.313,0,.626-0.021.939-0.033,0.38,0.5.749,1.021,1.151,1.49l3.487,4.066v-4.01a2.669,2.669,0,0,0-.078-0.9,0.476,0.476,0,0,0-.458-0.191l-0.414-.033v-0.418c0.425,0.012.861,0.033,1.286,0.033s0.849-.021,1.274-0.033v0.418l-0.414.033a0.478,0.478,0,0,0-.459.191,2.706,2.706,0,0,0-.077.9v5.07c0,0.393.022,0.795,0.033,1.129l-1-.1c-0.458-.514-0.928-1.039-1.363-1.558l-3.622-4.352-0.022,4.363a2.676,2.676,0,0,0,.078.9,0.476,0.476,0,0,0,.458.189l0.414,0.033v0.418c-0.425-.01-0.85-0.031-1.275-0.031s-0.86.022-1.285,0.031v-0.418l0.413-.033a0.475,0.475,0,0,0,.458-0.189,2.667,2.667,0,0,0,.079-0.9h0Zm17.9-.791v1.822a8.916,8.916,0,0,1-3.267.672c-2.546,0-4.424-1.432-4.424-4.1,0-2.57,2.09-3.855,4.469-3.855a7.749,7.749,0,0,1,3.076.525c-0.045.525-.134,1.352-0.19,1.832h-0.439l-0.057-.961a3.277,3.277,0,0,0-2.342-.771,2.769,2.769,0,0,0-2.84,3.086c0,1.933.994,3.621,3.007,3.621a3.9,3.9,0,0,0,1.42-.279v-1.475c0-.348-0.28-0.4-0.638-0.414l-0.592-.024v-0.457c0.548,0.012,1.095.033,1.644,0.033s1.084-.022,1.632-0.033v0.379c-0.381.078-.459,0.123-0.459,0.4h0Zm7.328-4.615v5.406a2.713,2.713,0,0,0,.077.9,0.518,0.518,0,0,0,.458.156l0.412,0.033v0.451c-0.457-.01-1.07-0.031-1.73-0.031s-1.284.022-1.741,0.031v-0.451l0.412-.033a0.518,0.518,0,0,0,.458-0.156,2.7,2.7,0,0,0,.078-0.9v-5.406h-1.3a1.216,1.216,0,0,0-.692.1,0.51,0.51,0,0,0-.1.268l-0.057.771h-0.451A12.749,12.749,0,0,0,580,314.59c1.244-.043,2.4-0.022,3.532-0.022s2.3-.021,3.476-0.033c-0.022.592-.056,1.105-0.078,1.832h-0.451l-0.057-.771a0.51,0.51,0,0,0-.1-0.268,1.214,1.214,0,0,0-.691-0.1h-1.3Z" transform="translate(-233.048 -259.303)"/></svg>
