<svg xmlns="http://www.w3.org/2000/svg" viewBox="0 0 214.8 153.6"><defs><style>.a{fill:#fff;}</style></defs><title>logo-portrait</title><path class="a" d="M241.1,384.1h4.1v0.8h-4.1v-0.8h0ZM295.4,455v6.3h20.1V455l-2.9,3.2h-4l-3.2-3.2-3.2,3.2h-4l-2.9-3.2h0ZM282,409.9v6.3h20.1v-6.3l-2.9,3.2h-4l-3.2-3.2-3.2,3.2h-4l-2.9-3.2h0Zm26.8,0v6.3h20.1v-6.3l-2.9,3.2h-4l-3.2-3.2-3.2,3.2h-4l-2.9-3.2h0Zm-3.3,11.4c-3.2,0-4.7,2.3-7.9,2.3s-4.7-2.4-7.9-2.3-4.3,2.3-7.3,2.3-5.1-2.1-7.3-2v19.9c0.1,4.2,3.3,10.2,7.3,10.2s4.3-2.2,7.3-2.3,4.7,2.3,7.9,2.3,4.7-2.3,7.9-2.3,4.7,2.3,7.9,2.3,4.7-2.4,7.9-2.3,4.3,2.2,7.3,2.3,7.2-6,7.3-10.2V421.6c-2.2-.1-4.4,2.1-7.3,2s-4.3-2.2-7.3-2.3-4.7,2.3-7.9,2.3-4.7-2.3-7.9-2.3h0Zm0,51.3c-1.3,0-32.9-13.7-32.9-31.1v-38h65.9v38c0,17.4-31.7,31.1-33,31.1h0Zm-4.7-29.4-1.4-2.4,1.4-2.4H298l-1.4-2.4-1.4,2.4h-2.8l1.4,2.4-1.4,2.4h2.8l1.4,2.4,1.4-2.4h2.8Zm17.7-8.7-1.4-2.4,1.4-2.4h-2.8l-1.4-2.4-1.4,2.4h-2.8l1.4,2.4-1.4,2.4H313l1.4,2.4,1.4-2.4h2.8Zm-12.7,0-1.4-2.4,1.4-2.4H303l-1.4-2.4-1.4,2.4h-2.8l1.4,2.4-1.4,2.4h2.8l1.4,2.4,1.4-2.4h2.8Zm7.6,8.7-1.4-2.4,1.4-2.4h-2.8l-1.4-2.4-1.4,2.4h-2.8l1.4,2.4-1.4,2.4h2.8l1.4,2.4,1.4-2.4h2.8Zm-24.2-17.5h32.5v21.6H289.2V425.7h0Zm-24.2-3.7c-1.9,0-4.2-2.4-4-3.9,1.1-8.2,5.3-5.5,8.4-7.9,0.9,1.1,2.2,11.8-4.4,11.8h0Zm98.4,7.4a9.3,9.3,0,0,1-3.5,5.8c1.8-.1,4.6.2,5.2-2a3.2,3.2,0,0,0-1.7-3.7h0Zm-4.9-1.2c-6.2-.3-8.6,3.4-6.5,4.8,3.9,2.7,6.5-4.9,6.5-4.8h0Zm0.3-8.9a7.6,7.6,0,0,1-3.8,2,53.8,53.8,0,0,1,6.4,0,10.7,10.7,0,0,1-2.6-2h0Zm-12-7.4a4.8,4.8,0,1,0,4.8-4.8,4.8,4.8,0,0,0-4.8,4.8h0Zm19.4,3.9a2.7,2.7,0,0,1,3.2-.7c1.4,0.5,2.3,1.7,2.1,2.7,7.1-.1,8.8-1.8,8.9-1.7-2.1,3.8-8.1,6.6-10.4,6.8,3.2,1.1,9.6,4.8,9.6,11.9,0,10.4-10.1,11.9-15.8,10.4a4.2,4.2,0,0,1,2.8,2H341v-21a11.9,11.9,0,0,1,4.2-2.8,1.8,1.8,0,0,0,1-1.8,9.6,9.6,0,0,1-5.2-3.2V406.4s3.1-4.3,10.4-4.3a11.5,11.5,0,0,1,8.9,4.9s2.4-2,7.2-2c10.8,0,13.2,10.4,13.2,10.4a17.6,17.6,0,0,0-8.9-3.7,2.3,2.3,0,0,1-2.3,1.7,2.4,2.4,0,0,1-2.3-1.4l-0.9.6a2.5,2.5,0,0,1,.2,1.1,2.5,2.5,0,0,1-1,1.8l0.8,0.5h0Zm-16.7-3.9a2.2,2.2,0,1,1,2.2,2.2,2.2,2.2,0,0,1-2.2-2.2h0Zm-79.6,8.9v26.5H230.2a23.5,23.5,0,0,1,2.6-4.9l-1.7-1.4c-0.1-.1,5.3-7.1,9.2-7.2a8,8,0,0,1-1.4-1.4c1.4-1.6,3.9-1.7,12.1-2.3s9.4-2.9,9.5-9.5c2,2.4,5.5,5.4,9.5.3h0Zm-20.1-13.5c-2.6-1.8-4-2.5-4.9-2.3s-2.6,3-2.6,2.9a32.8,32.8,0,0,1,7.5-.6h0ZM240,418.2c-1.9-1.6-4.3-4.7-4.6-6.9a3,3,0,0,1,.9-2.6,5.1,5.1,0,0,1-.3-2.3c1.1-3.4,17.4-3.6,20.7-3.5,7.6,0.3,9.2,0,12.9-1.4-0.1-.1-1.3,5.6-8.3,5.5a8.6,8.6,0,0,0,0,.9c2.8,0.1,6.1-.6,8.1-2.9-0.1,1.9.7,4.3-3.2,5.2s-6,.7-7.2,11.2c-0.2,3,0,5.5-4.9,6.6s-17.2,1.4-19.4,3.1l-0.4-.8a7.9,7.9,0,0,0,3.7-7.2,3.9,3.9,0,0,1,1.7-.6c0,1-1.3,3.2,4.6,3.2,0.1,0,5.5.6,3.2-6.3-0.7-2.2-1.4-4.7-4-4.6,0-.1-3.4.2-1.7,3.5,2.4,0.5,5.1,1.1,5.5,2.8s-1,2.7-2,2.3-3.8-2-5.7-2c-3.7,0-10.2,4.2-14.4-3.7,1.2,1.3,2.4,2.2,6.3,2.3s4.7-1.6,8.6-1.7h0Zm-31.6-93.5,6.2,15.2,5.6-13.8a14.8,14.8,0,0,0,1.2-3.8c0-.7-0.7-1-1.5-1.1h-1.8v-1.5h9.1V321h-1.3c-0.9.1-1.4,0.7-1.8,1.8l-8.2,19.5c-0.5,1.3-1,2.6-1.5,3.9h-3L202,324c-0.5-1.1-1.1-2.7-2.4-2.8H198v-1.5h12.6V321h-2a1,1,0,0,0-1,.7,9.1,9.1,0,0,0,.8,2.8h0Zm31.7,0.3v16a9.4,9.4,0,0,0,.3,3.2c0.2,0.3.6,0.5,1.6,0.5h1.5v1.6H231.2v-1.6h1.5c1-.1,1.5-0.2,1.6-0.5a9.4,9.4,0,0,0,.3-3.2V325a9.4,9.4,0,0,0-.3-3.2c-0.2-.3-0.6-0.5-1.6-0.5h-1.5v-1.6h12.2v1.6H242c-1,.1-1.5.2-1.6,0.5a9.4,9.4,0,0,0-.3,3.2h0Zm32.8,17.9-0.9,1.9a17.2,17.2,0,0,1-9,2.2c-8.9,0-15.5-5-15.5-14.4s7.3-13.5,15.7-13.5a22.5,22.5,0,0,1,9.6,1.8l0.2,0.4a52.3,52.3,0,0,0-.9,6h-1.5l-0.2-3.4a9.3,9.3,0,0,0-7.1-2.7c-6.5,0-10,4.6-10,10.8s4.2,12.4,11.6,12.4a16.8,16.8,0,0,0,7.5-2l0.5,0.5h0Zm19-20.9v19a9.4,9.4,0,0,0,.3,3.2c0.2,0.3.6,0.5,1.6,0.5h1.4v1.6H283v-1.6h1.4c1-.1,1.4-0.2,1.6-0.5a9.4,9.4,0,0,0,.3-3.2V322h-4.6c-1.1,0-2.2,0-2.4.4a1.8,1.8,0,0,0-.4.9l-0.2,2.7h-1.6a45,45,0,0,0-.5-6.2l0.2-.2h24.4l0.2,0.2a44.9,44.9,0,0,0-.5,6.2h-1.6l-0.2-2.7a1.8,1.8,0,0,0-.4-0.9c-0.3-.4-1.4-0.4-2.4-0.4h-4.6Zm27.5-.8c-7.3,0-9,5.5-9,11.3s2.7,12.2,8.2,12.2c7.3,0,9-5.4,9-11.3s-2.7-12.2-8.2-12.2h0Zm0-2.2c8.8,0,14.1,4.8,14.1,13.7S327.5,347,318.5,347s-14.1-4.8-14.1-13.7,5.9-14.2,14.9-14.2h0Zm21.2,22V325a9.4,9.4,0,0,0-.3-3.2c-0.2-.4-0.6-0.6-1.6-0.7h-1.5v-1.5h14.6c4-.1,7.7,1.1,7.7,5.8s-2.6,5.8-5.8,6.9l7.1,10.7a5.5,5.5,0,0,0,1.1,1.2,4,4,0,0,0,1.6.5v1.6h-7.3l-8.8-13.6,0.3-.7c3.6,0.3,6.3-1.9,6.3-5.6s-2.2-4.9-5.3-4.9a6.4,6.4,0,0,0-2.5.4V341a9.4,9.4,0,0,0,.3,3.2c0.2,0.3.6,0.5,1.6,0.5h1.5v1.6H337.2v-1.6h1.5c1-.1,1.5-0.2,1.6-0.5a9.4,9.4,0,0,0,.3-3.2h0Zm35.8-16v16a9.4,9.4,0,0,0,.3,3.2c0.2,0.3.6,0.5,1.6,0.5h1.5v1.6H367.4v-1.6h1.5c1-.1,1.5-0.2,1.6-0.5a9.4,9.4,0,0,0,.3-3.2V325a9.4,9.4,0,0,0-.3-3.2c-0.2-.3-0.6-0.5-1.6-0.5h-1.5v-1.6h12.2v1.6h-1.5c-1,.1-1.5.2-1.6,0.5a9.4,9.4,0,0,0-.3,3.2h0Zm20.2,1-3.9,10h8l-4.1-10h0Zm5,12.2h-9.9l-1.6,4.4c-0.5,1.5.2,2.2,0.9,2.2h2v1.5h-8.9v-1.5h1.2c1-.1,1.7-1.2,2.2-2.3l7.1-17.2,1-2.7,0.6-1.6,0.6-1.6h2.8l10.2,23.7a2.5,2.5,0,0,0,2.2,1.7h0.9v1.5H400.7v-1.5h2.1c0.6,0,1.1-.9.6-2.2l-1.8-4.5h0Zm3.7,23.3V357a2.7,2.7,0,0,0-.1-0.9l-0.5-.2h-0.4v-0.4h2.3l1.2,1.5,3.5,4.1v-4a2.7,2.7,0,0,0-.1-0.9l-0.5-.2h-0.4v-0.4h2.6v0.4h-0.4l-0.5.2a2.7,2.7,0,0,0-.1.9v5.1c0,0.4,0,.8,0,1.1h-1l-1.4-1.6-3.6-4.4v4.4a2.7,2.7,0,0,0,.1.9l0.5,0.2h0.4v0.4h-2.6v-0.4h0.4l0.5-.2a2.7,2.7,0,0,0,.1-0.9h0Zm-204.1-.5V357a2.7,2.7,0,0,0-.1-0.9l-0.5-.2h-0.4v-0.4h3.5v0.4h-0.4l-0.5.2a2.7,2.7,0,0,0-.1.9v2.8c0,1.6.1,2.6,2,2.6s2.1-1,2.1-2.6V357a2.7,2.7,0,0,0-.1-0.9l-0.5-.2h-0.4v-0.4h2.6v0.4H208l-0.5.2a2.7,2.7,0,0,0-.1.9v3.3c0,2-1.1,3-3.1,3s-3.2-.9-3.2-2.2h0Zm10.5,0.5V357a2.7,2.7,0,0,0-.1-0.9l-0.5-.2h-0.4v-0.4H213l1.2,1.5,3.5,4.1v-4a2.7,2.7,0,0,0-.1-0.9l-0.5-.2h-0.4v-0.4h2.6v0.4h-0.4l-0.5.2a2.7,2.7,0,0,0-.1.9v5.1c0,0.4,0,.8,0,1.1h-1l-1.4-1.6-3.6-4.4v4.4a2.7,2.7,0,0,0,.1.9l0.5,0.2h0.4v0.4h-2.6v-0.4h0.4l0.5-.2a2.7,2.7,0,0,0,.1-0.9h0Zm12.6-4.6v4.6a2.7,2.7,0,0,0,.1.9l0.5,0.2h0.4v0.5h-3.5v-0.5h0.4l0.5-.2a2.7,2.7,0,0,0,.1-0.9V357a2.7,2.7,0,0,0-.1-0.9l-0.5-.2h-0.4v-0.5h3.5v0.5h-0.4l-0.5.2a2.7,2.7,0,0,0-.1.9h0Zm6.3-.1,1.8,4.3,1.6-3.9a4.2,4.2,0,0,0,.3-1.1,0.4,0.4,0,0,0-.4-0.3h-0.5v-0.4H236v0.4h-0.4a0.7,0.7,0,0,0-.5.5l-2.3,5.6-0.4,1.1h-0.8l-2.7-6.4a1.1,1.1,0,0,0-.7-0.8h-0.5v-0.4h3.6v0.4h-0.6a0.3,0.3,0,0,0-.3.2,2.6,2.6,0,0,0,.2.8h0Zm10.2-.8v2.7h1.5c0.4,0,.6,0,0.6-0.2v-0.6h0.4c0,0.4,0,.8,0,1.2s0,0.8,0,1.2H243v-0.6c0-.3-0.2-0.4-0.6-0.4h-1.5v3h1.4l1.4-.2,0.3-1.1h0.4V363a16,16,0,0,1-2.8.1h-2.7v-0.3l0.4-.2a0.6,0.6,0,0,0,.2-0.6v-5a2.7,2.7,0,0,0-.1-0.9l-0.5-.2h-0.4v-0.4h5.8v1.7h-0.4v-0.8a2.2,2.2,0,0,0-1.3-.2h-1.4Zm7,5.4V357a2.7,2.7,0,0,0-.1-0.9l-0.5-.2h-0.4v-0.4H251c1.1,0,2.2.3,2.2,1.7a2.2,2.2,0,0,1-1.7,2l2,3.1,0.3,0.3,0.5,0.2v0.5h-2.1l-2.5-3.9V359a1.5,1.5,0,0,0,1.8-1.6,1.4,1.4,0,0,0-1.5-1.4h-0.7v5.4a2.7,2.7,0,0,0,.1.9l0.5,0.2h0.4v0.5h-3.5v-0.5h0.4l0.5-.2a2.7,2.7,0,0,0,.1-0.9h0Zm9.2-.7h0.5v1a2.3,2.3,0,0,0,1.8.9,1.5,1.5,0,0,0,1.8-1.5,1.1,1.1,0,0,0-.9-1l-1.6-.5a2,2,0,0,1-1.6-1.9c0-1.8,1.3-2.5,3-2.5a5.8,5.8,0,0,1,2.1.4,16.2,16.2,0,0,0-.1,1.7h-0.5v-0.9a2.1,2.1,0,0,0-1.5-.6,1.3,1.3,0,0,0-1.5,1.4,1.2,1.2,0,0,0,1.2,1.1l1.3,0.3a2,2,0,0,1,1.7,1.9c0,1.9-1.6,2.7-3.3,2.7a5.4,5.4,0,0,1-2.3-.5,9.5,9.5,0,0,0,.2-1.9h0Zm10.7-3.8v4.6a2.7,2.7,0,0,0,.1.9l0.5,0.2h0.4v0.5h-3.5v-0.5h0.4l0.5-.2a2.7,2.7,0,0,0,.1-0.9V357a2.7,2.7,0,0,0-.1-0.9l-0.5-.2h-0.4v-0.5h3.5v0.5h-0.4l-0.5.2a2.7,2.7,0,0,0-.1.9h0Zm7.6-.9v5.4a2.7,2.7,0,0,0,.1.9l0.5,0.2h0.4v0.5h-3.5v-0.5h0.4l0.5-.2a2.7,2.7,0,0,0,.1-0.9v-5.4h-2v1h-0.5a12.8,12.8,0,0,0-.1-1.8h7c0,0.6-.1,1.1-0.1,1.8h-0.5v-1h-2Zm9.1,2.9,2.1-3.6h0.9v0.2l-2,2.9-0.6,1.1v1.8a2.7,2.7,0,0,0,.1.9l0.5,0.2h0.4v0.5h-3.5v-0.5h0.4l0.5-.2a2.7,2.7,0,0,0,.1-0.9V360l-0.5-1-1.1-1.8-0.6-.7a1,1,0,0,0-.9-0.4v-0.4l1.8-.4a3.4,3.4,0,0,1,1.3,1.5l1.2,2.3h0Zm14-3.2c-2.1,0-2.6,1.6-2.6,3.2s0.8,3.5,2.3,3.5,2.6-1.5,2.6-3.2-0.8-3.5-2.3-3.5h0Zm0-.6c2.5,0,4,1.4,4,3.9s-1.7,4-4.2,4-4-1.4-4-3.9,1.7-4,4.2-4h0Zm9.1,0.8v2.7h1.3c0.4,0,.6,0,0.6-0.2V358H310c0,0.4,0,.7,0,1.1s0,0.8,0,1.2h-0.4v-0.6c0-.3-0.2-0.4-0.6-0.4h-1.3v2.1a2.7,2.7,0,0,0,.1.9l0.5,0.2h0.5v0.5H305v-0.5h0.4l0.5-.2a2.7,2.7,0,0,0,.1-0.9V357a2.7,2.7,0,0,0-.1-0.9l-0.5-.2H305v-0.4h5.6v1.7h-0.4v-0.8a2.2,2.2,0,0,0-1.3-.2h-1.3Zm13.1,4.6,1.7-3.9,0.6-1.4h0.5l0.5,1.5,1.5,3.8,1.1-4.2a1.4,1.4,0,0,0,0-.4,0.4,0.4,0,0,0-.4-0.2h-0.5v-0.4h2.4v0.4h-0.4a0.9,0.9,0,0,0-.5.8l-1.4,4.8c-0.1.5-.2,1.1-0.4,1.6h-0.8l-0.4-1.2-1.7-4.2-1.7,4-0.5,1.4h-0.8l-1.6-6.7a0.5,0.5,0,0,0-.4-0.5h-0.4v-0.4h3.2v0.4H320a0.4,0.4,0,0,0-.3.3v0.3l0.9,4.2h0Zm12.3-4.6v2.7h1.5c0.4,0,.6,0,0.6-0.2v-0.6h0.4c0,0.4,0,.8,0,1.2s0,0.8,0,1.2h-0.4v-0.6c0-.3-0.2-0.4-0.6-0.4h-1.5v3h1.4l1.4-.2,0.3-1.1h0.4V363a16,16,0,0,1-2.8.1h-2.7v-0.3l0.4-.2a0.6,0.6,0,0,0,.2-0.6v-5a2.7,2.7,0,0,0-.1-0.9l-0.5-.2h-0.4v-0.4h5.8v1.7h-0.4v-0.8a2.2,2.2,0,0,0-1.3-.2h-1.4Zm8.5,0.9v5.4h1.4l1.4-.2,0.3-1.1h0.4V363a16,16,0,0,1-2.8.1h-2.7v-0.3l0.4-.2a0.6,0.6,0,0,0,.2-0.6v-5a2.7,2.7,0,0,0-.1-0.9l-0.5-.2h-0.4v-0.5h3.5v0.5H342l-0.5.2a2.7,2.7,0,0,0-.1.9h0Zm8.5,0v5.4h1.4l1.4-.2,0.3-1.1h0.4V363a16,16,0,0,1-2.8.1h-2.7v-0.3l0.4-.2a0.6,0.6,0,0,0,.2-0.6v-5a2.7,2.7,0,0,0-.1-0.9l-0.5-.2h-0.4v-0.5h3.5v0.5h-0.4l-0.5.2a2.7,2.7,0,0,0-.1.9h0Zm8.5,0v4.6a2.7,2.7,0,0,0,.1.9l0.5,0.2h0.4v0.5H356v-0.5h0.4l0.5-.2a2.7,2.7,0,0,0,.1-0.9V357a2.7,2.7,0,0,0-.1-0.9l-0.5-.2H356v-0.5h3.5v0.5h-0.4l-0.5.2a2.7,2.7,0,0,0-.1.9h0Zm4.4,4.6V357a2.7,2.7,0,0,0-.1-0.9l-0.5-.2H362v-0.4h2.3l1.2,1.5L369,361v-4a2.7,2.7,0,0,0-.1-0.9l-0.5-.2H368v-0.4h2.6v0.4h-0.4l-0.5.2a2.7,2.7,0,0,0-.1.9v5.1c0,0.4,0,.8,0,1.1h-1l-1.4-1.6-3.6-4.4v4.4a2.7,2.7,0,0,0,.1.9l0.5,0.2h0.4v0.4H362v-0.4h0.4l0.5-.2a2.7,2.7,0,0,0,.1-0.9h0Zm17.9-.8v1.8a8.9,8.9,0,0,1-3.3.7c-2.5,0-4.4-1.4-4.4-4.1s2.1-3.9,4.5-3.9a7.8,7.8,0,0,1,3.1.5l-0.2,1.8h-0.4v-1a3.3,3.3,0,0,0-2.3-.8,2.8,2.8,0,0,0-2.8,3.1c0,1.9,1,3.6,3,3.6l1.4-.3v-1.5c0-.3-0.3-0.4-0.6-0.4h-0.6V360h3.3v0.4c-0.4.1-.5,0.1-0.5,0.4h0Zm7.3-4.6v5.4a2.7,2.7,0,0,0,.1.9l0.5,0.2h0.4v0.5h-3.5v-0.5h0.4l0.5-.2a2.7,2.7,0,0,0,.1-0.9v-5.4h-2v1H384a12.8,12.8,0,0,0-.1-1.8h7c0,0.6-.1,1.1-0.1,1.8h-0.5v-1h-2Zm9.4-.2c-2.1,0-2.6,1.6-2.6,3.2s0.8,3.5,2.3,3.5,2.6-1.5,2.6-3.2-0.8-3.5-2.3-3.5h0Zm0-.6c2.5,0,4,1.4,4,3.9s-1.7,4-4.2,4-4-1.4-4-3.9,1.7-4,4.2-4h0ZM322,370.5h4.1v0.8H322v-0.8h0Zm-89.4,8.4v-4.7c0-.4,0-0.8,0-1.1h-1.7c-0.3,0-.4.1-0.4,0.4v0.9h-0.3c0-.6,0-1.2-0.1-1.8h6.4c-0.1.6-.1,1.2-0.1,1.8H236v-0.9c0-.3-0.1-0.4-0.4-0.4h-1.7c0,0.3,0,.7,0,1.1v4.7a2,2,0,0,0,.1.8l0.5,0.2h0.5v0.3h-3.2v-0.3h0.5l0.5-.2a2,2,0,0,0,.1-0.8h0Zm6.9,0v-5a1.9,1.9,0,0,0-.1-0.8l-0.5-.2h-0.5v-0.3h5.9a7.4,7.4,0,0,0-.2,1.7h-0.4v-0.7a0.3,0.3,0,0,0-.1-0.3,6.9,6.9,0,0,0-2.2-.2h-0.9v3h2.5a0.4,0.4,0,0,0,.1-0.3v-0.6h0.3c0,0.5,0,.9,0,1.3s0,0.8,0,1.2h-0.3V377a0.4,0.4,0,0,0-.1-0.3h-2.5v3.1h3.2a2.1,2.1,0,0,0,.4-1.2h0.4a9.5,9.5,0,0,0-.2,1.8h-5.8v-0.3h0.4l0.5-.2a1.9,1.9,0,0,0,.1-0.8h0Zm18.3-.8-1.4-3.7-1.9,4.9-0.4,1.1h-0.6l-0.3-1.1-1.3-5.7a0.6,0.6,0,0,0-.6-0.6h-0.3v-0.3H254v0.3h-0.5c-0.3,0-.5.1-0.4,0.7l1.1,4.9,1.4-3.5c0.3-.9.7-1.8,1-2.7H257a14,14,0,0,0,.5,1.4l1.7,4.8,1.5-5.4c0.1-.3-0.1-0.3-0.5-0.4h-0.4v-0.3h2.3v0.3h-0.4a0.4,0.4,0,0,0-.4.3l-1.7,5.9c-0.1.3-.2,0.7-0.3,1.1h-0.6c-0.2-.9-0.5-1.5-0.8-2.3h0Zm13.8-4.1v5a2,2,0,0,0,.1.8l0.5,0.2h0.5v0.3h-3.2v-0.3h0.5l0.5-.2a2,2,0,0,0,.1-0.8v-2.5h-4.4v2.5a2,2,0,0,0,.1.8l0.5,0.2h0.5v0.3h-3.2v-0.3h0.5l0.5-.2a2,2,0,0,0,.1-0.8v-5a2,2,0,0,0-.1-0.8l-0.5-.2h-0.5v-0.3h3.2v0.3h-0.5l-0.5.2a1.9,1.9,0,0,0-.1.8v2h4.4v-2a2,2,0,0,0-.1-0.8l-0.5-.2h-0.5v-0.3h3.2v0.3h-0.5l-0.5.2a1.9,1.9,0,0,0-.1.8h0Zm5.7,3.3h2.8l-1.4-3.3-1.4,3.3h0Zm1.9-4.8,2.7,6.3,0.4,0.8a0.6,0.6,0,0,0,.4.4h0.4v0.3h-2.9v-0.3h0.5a0.4,0.4,0,0,0,.5-0.2,2.6,2.6,0,0,0-.2-0.7l-0.5-1.3h-3.2l-0.3.7a6.4,6.4,0,0,0-.4,1.1c0,0.2.2,0.3,0.5,0.3h0.4v0.3H275v-0.3h0.4a0.8,0.8,0,0,0,.6-0.5l2-4.5,1-2.4h0.4Zm8.2,0.6v5.8a2,2,0,0,0,.1.8l0.5,0.2h0.5v0.3h-3.2v-0.3h0.5l0.5-.2a2,2,0,0,0,.1-0.8v-5a1.9,1.9,0,0,0-.1-0.8l-0.5-.2h-0.5v-0.3h3.8c1.8,0,2.2.9,2.2,1.7a2.4,2.4,0,0,1-2.2,2.1l2.5,3.3a0.9,0.9,0,0,0,.7.3v0.3h-1.5l-0.5-.6-2-2.7-0.6-.7,1-.2a1.6,1.6,0,0,0,1.4-1.5,1.5,1.5,0,0,0-1.7-1.5h-1.1Zm8,5.8v-5a2,2,0,0,0-.1-0.8l-0.5-.2h-0.5v-0.3h5.9a7.4,7.4,0,0,0-.2,1.7h-0.4v-0.7a0.3,0.3,0,0,0-.1-0.3,6.9,6.9,0,0,0-2.2-.2h-0.9v3H299a0.4,0.4,0,0,0,.1-0.3v-0.6h0.3c0,0.5,0,.9,0,1.3s0,0.8,0,1.2h-0.3V377a0.4,0.4,0,0,0-.1-0.3h-2.5v3.1h3.2a2,2,0,0,0,.4-1.2h0.4a9.5,9.5,0,0,0-.2,1.8h-5.8v-0.3h0.4l0.5-.2a2,2,0,0,0,.1-0.8h0Zm18.3-.8-1.4-3.7-1.9,4.9-0.4,1.1h-0.6l-0.3-1.1-1.3-5.7a0.6,0.6,0,0,0-.6-0.6h-0.3v-0.3h2.8v0.3h-0.5c-0.3,0-.5.1-0.4,0.7l1.1,4.9,1.4-3.5c0.3-.9.7-1.8,1-2.7h0.4a14,14,0,0,0,.5,1.4l1.7,4.8,1.5-5.4c0.1-.3-0.1-0.3-0.5-0.4h-0.4v-0.3h2.3v0.3h-0.4a0.4,0.4,0,0,0-.4.3l-1.7,5.9c-0.1.3-.2,0.7-0.3,1.1h-0.6c-0.2-.9-0.5-1.5-0.8-2.3h0Zm8.6-.8h2.8l-1.4-3.3-1.4,3.3h0Zm1.9-4.8,2.7,6.3,0.4,0.8a0.6,0.6,0,0,0,.4.4h0.4v0.3h-2.9v-0.3h0.5a0.4,0.4,0,0,0,.5-0.2,2.6,2.6,0,0,0-.2-0.7l-0.5-1.3h-3.2l-0.3.7a6.4,6.4,0,0,0-.4,1.1c0,0.2.2,0.3,0.5,0.3h0.4v0.3H320v-0.3h0.4a0.8,0.8,0,0,0,.6-0.5l2-4.5,1-2.4h0.4Zm7,6.4v-5a2,2,0,0,0-.1-0.8l-0.5-.2h-0.5v-0.3h1.9l5.3,6.5v-5.2a2,2,0,0,0-.1-0.8l-0.5-.2h-0.5v-0.3h2.6v0.3h-0.5l-0.5.2a2,2,0,0,0-.1.8V380c0,0.1,0,.3,0,0.4l-1-.2-5.2-6.5v5.1a1.9,1.9,0,0,0,.1.8l0.5,0.2h0.5v0.3h-2.6v-0.3h0.5l0.5-.2a2,2,0,0,0,.1-0.8h0Zm12.3-1.6h2.8L345,374l-1.4,3.3h0Zm1.9-4.8,2.7,6.3,0.4,0.8a0.6,0.6,0,0,0,.4.4h0.4v0.3h-2.9v-0.3h0.5a0.4,0.4,0,0,0,.5-0.2,2.6,2.6,0,0,0-.2-0.7l-0.5-1.3h-3.2l-0.3.7a6.4,6.4,0,0,0-.4,1.1c0,0.2.2,0.3,0.5,0.3h0.4v0.3h-2.5v-0.3h0.4a0.8,0.8,0,0,0,.6-0.5l2-4.5,1-2.4h0.4Zm7,6.4v-5a2,2,0,0,0-.1-0.8l-0.5-.2h-0.5v-0.3h1.9l5.3,6.5v-5.2a2,2,0,0,0-.1-0.8l-0.5-.2h-0.5v-0.3h2.6v0.3h-0.5l-0.5.2a2,2,0,0,0-.1.8V380c0,0.1,0,.3,0,0.4l-1-.2-5.2-6.5v5.1a2,2,0,0,0,.1.8l0.5,0.2H354v0.3h-2.6v-0.3h0.5l0.5-.2a2,2,0,0,0,.1-0.8h0Zm16.2,0.2V378a0.3,0.3,0,0,0-.4-0.4h-0.9v-0.3h2.7v0.3h-0.3c-0.1,0-.1.1-0.1,0.4v1.9a12.4,12.4,0,0,1-2.9.6c-2.5,0-4.5-1.3-4.5-4.1s2-4,4.7-4a8.7,8.7,0,0,1,2.7.5,6.9,6.9,0,0,0-.2,1.7h-0.3v-0.6a1,1,0,0,0-.9-0.9l-1.5-.2a3,3,0,0,0-3.2,3.4c0,2.2,1.3,3.8,3.6,3.8a2.1,2.1,0,0,0,1.5-.4,1.1,1.1,0,0,0,.1-0.5h0Zm6.2-1.9h2.8l-1.4-3.3-1.4,3.3h0Zm1.9-4.8,2.7,6.3,0.4,0.8a0.6,0.6,0,0,0,.4.4h0.4v0.3h-2.9v-0.3h0.5a0.4,0.4,0,0,0,.5-0.2,2.6,2.6,0,0,0-.2-0.7l-0.5-1.3h-3.2l-0.3.7a6.4,6.4,0,0,0-.4,1.1c0,0.2.2,0.3,0.5,0.3H375v0.3h-2.5v-0.3h0.4a0.8,0.8,0,0,0,.6-0.5l2-4.5,1-2.4h0.4Zm9.1,11.6H390v0.8h-4.1v-0.8h0Zm20.8,3.5v5a1.9,1.9,0,0,0,.1.8l0.5,0.2h0.5v0.3h-3.2v-0.3H405l0.5-.2a1.9,1.9,0,0,0,.1-0.8v-5a1.9,1.9,0,0,0-.1-0.8l-0.5-.2h-0.5v-0.3h3.2v0.3h-0.5l-0.5.2a1.9,1.9,0,0,0-.1.8h0Zm-199.8-1.1c-1.9,0-2.8,1.4-2.8,3.2s0.9,4,3.1,4,2.7-1.4,2.7-3.5-1-3.7-3-3.7h0Zm-0.1,7.6a3.8,3.8,0,0,1-3.9-4,3.9,3.9,0,0,1,4.2-4c2.4,0,4.1,1.3,4.1,3.8a4.2,4.2,0,0,1-4.3,4.3h0Zm13.5-1.6v-4.7c0-.4,0-0.8,0-1.1h-1.7c-0.3,0-.4.1-0.4,0.4V388h-0.3c0-.6,0-1.2-0.1-1.8h6.4c-0.1.6-.1,1.2-0.1,1.8h-0.3v-0.9c0-.3-0.1-0.4-0.4-0.4h-1.7a11.1,11.1,0,0,0,0,1.1v4.7a2,2,0,0,0,.1.8l0.5,0.2h0.5v0.3h-3.2v-0.3h0.5l0.5-.2a2,2,0,0,0,.1-0.8h0Zm6.9,0v-5a1.9,1.9,0,0,0-.1-0.8l-0.5-.2h-0.5v-0.3h5.9a7.4,7.4,0,0,0-.2,1.7h-0.4v-0.7a0.3,0.3,0,0,0-.1-0.3,6.9,6.9,0,0,0-2.2-.2h-0.9v3h2.5a0.4,0.4,0,0,0,.1-0.3v-0.6h0.3c0,0.5,0,.9,0,1.3s0,0.8,0,1.2h-0.3v-0.7a0.4,0.4,0,0,0-.1-0.3h-2.5v3.1h3.2a2.1,2.1,0,0,0,.4-1.2h0.4a9.5,9.5,0,0,0-.2,1.8h-5.8v-0.3h0.4l0.5-.2a2,2,0,0,0,.1-0.8h0Zm12.8-1v-3.9a2,2,0,0,0-.1-0.8l-0.5-.2H239v-0.3h3.2v0.3h-0.5l-0.5.2a2,2,0,0,0-.1.8v3.8c0,1.6.8,2,2.3,2a2,2,0,0,0,2.3-2.3v-3.5a2,2,0,0,0-.1-0.8l-0.5-.2h-0.5v-0.3h2.6v0.3h-0.5l-0.5.2a2,2,0,0,0-.1.8v3.2c0,2.4-.9,3.3-3.1,3.3s-3-.6-3-2.6h0Zm11.5-4.7v5.8a2,2,0,0,0,.1.8l0.5,0.2h0.5v0.3h-3.2v-0.3h0.5l0.5-.2a1.9,1.9,0,0,0,.1-0.8v-5a1.8,1.8,0,0,0-.1-0.8l-0.5-.2h-0.5v-0.3h3.9c1.1,0,2.3.4,2.3,1.7a2.5,2.5,0,0,1-2.7,2.4h-0.7v-0.4h0.7a1.6,1.6,0,0,0,1.6-1.6,1.5,1.5,0,0,0-1.8-1.6h-1.1Zm10.2-.3c-1.9,0-2.8,1.4-2.8,3.2s0.9,4,3.1,4,2.7-1.4,2.7-3.5-1-3.7-3-3.7h0Zm-0.1,7.6a3.8,3.8,0,0,1-3.9-4,3.9,3.9,0,0,1,4.2-4c2.4,0,4.1,1.3,4.1,3.8a4.2,4.2,0,0,1-4.3,4.3h0Zm8.6-3.8v2.3a2,2,0,0,0,.1.8l0.5,0.2h0.5v0.3h-3.2v-0.3h0.5l0.5-.2a1.9,1.9,0,0,0,.1-0.8v-5a2,2,0,0,0-.1-0.8l-0.5-.2h-0.5v-0.3h3.2v0.3h-0.5l-0.5.2a2,2,0,0,0-.1.8V390l3.1-3,0.3-.4v-0.3h1.9v0.3H275a1.4,1.4,0,0,0-.9.4l-2.9,2.7,3.7,3.4a1.5,1.5,0,0,0,.7.5h0.2v0.3h-1.6l-3.9-3.7h-0.1Zm11.6-3.8c-1.9,0-2.8,1.4-2.8,3.2s0.9,4,3.1,4,2.7-1.4,2.7-3.5-1-3.7-3-3.7h0Zm-0.1,7.6a3.8,3.8,0,0,1-3.9-4,3.9,3.9,0,0,1,4.2-4c2.4,0,4.1,1.3,4.1,3.8a4.2,4.2,0,0,1-4.3,4.3h0Zm14.9-7.6c-1.9,0-2.8,1.4-2.8,3.2s0.9,4,3.1,4,2.7-1.4,2.7-3.5-1-3.7-3-3.7h0Zm-0.1,7.6a3.8,3.8,0,0,1-3.9-4,3.9,3.9,0,0,1,4.2-4c2.4,0,4.1,1.3,4.1,3.8a4.2,4.2,0,0,1-4.3,4.3h0Zm13.5-1.6v-4.7c0-.4,0-0.8,0-1.1h-1.7c-0.3,0-.4.1-0.4,0.4V388h-0.3c0-.6,0-1.2-0.1-1.8h6.4c-0.1.6-.1,1.2-0.1,1.8h-0.3v-0.9c0-.3-0.1-0.4-0.4-0.4h-1.7a11,11,0,0,0,0,1.1v4.7a2,2,0,0,0,.1.8l0.5,0.2h0.5v0.3H309v-0.3h0.5l0.5-.2a2,2,0,0,0,.1-0.8h0Zm6.9,0v-5a1.9,1.9,0,0,0-.1-0.8l-0.5-.2h-0.5v-0.3h5.9a7.4,7.4,0,0,0-.2,1.7h-0.4v-0.7a0.3,0.3,0,0,0-.1-0.3,6.9,6.9,0,0,0-2.2-.2h-0.9v3h2.5a0.4,0.4,0,0,0,.1-0.3v-0.6H321c0,0.5,0,.9,0,1.3s0,0.8,0,1.2h-0.3v-0.7a0.4,0.4,0,0,0-.1-0.3h-2.5v3.1h3.2a2.1,2.1,0,0,0,.4-1.2H322a9.5,9.5,0,0,0-.2,1.8h-5.8v-0.3h0.4l0.5-.2a1.9,1.9,0,0,0,.1-0.8h0Zm13.9-5v5a1.9,1.9,0,0,0,.1.8l0.5,0.2H332v0.3h-3.2v-0.3h0.5l0.5-.2a2,2,0,0,0,.1-0.8v-5a2,2,0,0,0-.1-0.8l-0.5-.2h-0.5v-0.3H332v0.3h-0.5l-0.5.2a1.9,1.9,0,0,0-.1.8h0Zm5.4,2.7v2.3a1.9,1.9,0,0,0,.1.8l0.5,0.2h0.5v0.3h-3.2v-0.3h0.5l0.5-.2a1.9,1.9,0,0,0,.1-0.8v-5a1.9,1.9,0,0,0-.1-0.8l-0.5-.2h-0.5v-0.3h3.2v0.3h-0.5l-0.5.2a1.9,1.9,0,0,0-.1.8V390l3.1-3,0.3-.4v-0.3h1.9v0.3h-0.5a1.4,1.4,0,0,0-.9.4l-2.9,2.7,3.7,3.4a1.5,1.5,0,0,0,.7.5h0.2v0.3h-1.6l-3.9-3.7h-0.1Zm10,0.6h2.8l-1.4-3.3-1.4,3.3h0Zm1.9-4.8,2.7,6.3,0.4,0.8a0.6,0.6,0,0,0,.4.4h0.4v0.3h-2.9v-0.3h0.5a0.4,0.4,0,0,0,.5-0.2,2.6,2.6,0,0,0-.2-0.7l-0.5-1.3h-3.2l-0.3.7a6.4,6.4,0,0,0-.4,1.1c0,0.2.2,0.3,0.5,0.3h0.4v0.3h-2.5v-0.3h0.4a0.8,0.8,0,0,0,.6-0.5l2-4.5,1-2.4h0.4Zm11.9,4.8h2.8l-1.4-3.3-1.4,3.3h0Zm1.9-4.8,2.7,6.3,0.4,0.8a0.6,0.6,0,0,0,.4.4h0.4v0.3h-2.9v-0.3h0.5a0.4,0.4,0,0,0,.5-0.2,2.6,2.6,0,0,0-.2-0.7l-0.5-1.3h-3.2l-0.3.7a6.4,6.4,0,0,0-.4,1.1c0,0.2.2,0.3,0.5,0.3h0.4v0.3h-2.5v-0.3H358a0.8,0.8,0,0,0,.6-0.5l2-4.5,1-2.4h0.4Zm18.8,1.5v5a2,2,0,0,0,.1.8l0.5,0.2h0.5v0.3h-3.1v-0.3h0.4l0.5-.2a2,2,0,0,0,.1-0.8v-5l-0.5.9-2,4.2-0.6,1.4h-0.2l-3.1-6.5v5a1.9,1.9,0,0,0,.1.8l0.5,0.2h0.5v0.3h-2.6v-0.3h0.5l0.5-.2a2,2,0,0,0,.1-0.8v-5a2,2,0,0,0-.1-0.8l-0.5-.2h-0.5v-0.3h2.1l2.9,6.1,2.9-6.1h2.1v0.3h-0.5l-0.5.2a2,2,0,0,0-.1.8h0Zm5.7,3.3h2.8l-1.4-3.3-1.4,3.3h0Zm1.9-4.8,2.7,6.3,0.4,0.8a0.6,0.6,0,0,0,.4.4H392v0.3h-2.9v-0.3h0.5a0.4,0.4,0,0,0,.5-0.2,2.6,2.6,0,0,0-.2-0.7l-0.5-1.3h-3.2l-0.3.7a6.4,6.4,0,0,0-.4,1.1c0,0.2.2,0.3,0.5,0.3h0.4v0.3h-2.5v-0.3h0.4a0.8,0.8,0,0,0,.6-0.5l2-4.5,1-2.4h0.4Zm7,5.4v-3.9a2,2,0,0,0-.1-0.8l-0.5-.2h-0.5v-0.3h3.2v0.3h-0.5l-0.5.2a2,2,0,0,0-.1.8v3.8c0,1.6.8,2,2.3,2a2,2,0,0,0,2.3-2.3v-3.5a2,2,0,0,0-.1-0.8l-0.5-.2h-0.5v-0.3h2.6v0.3h-0.5l-0.5.2a2,2,0,0,0-.1.8v3.2c0,2.4-.9,3.3-3.1,3.3s-3-.6-3-2.6h0Z" transform="translate(-198 -319)"/></svg>