<svg xmlns="http://www.w3.org/2000/svg" viewBox="0 0 214.83 153.58"><defs><style>.a{fill:#fff;}</style></defs><title>vic-portrait-hd</title><path class="a" d="M241.11,384.11h4.14v0.83h-4.14v-0.83h0ZM295.41,455v6.33h20.14V455l-2.88,3.17h-4L305.48,455l-3.16,3.17h-4L295.41,455h0ZM282,409.86v6.33h20.14v-6.33L299.3,413h-4l-3.16-3.17L288.94,413h-4L282,409.86h0Zm26.75,0v6.33h20.14v-6.33L326.05,413h-4l-3.16-3.17L315.7,413h-4l-2.88-3.17h0Zm-3.31,11.43c-3.22,0-4.7,2.31-7.92,2.31s-4.7-2.38-7.92-2.31c-3,.06-4.33,2.26-7.33,2.31s-5.13-2.12-7.34-2v19.91c0.11,4.17,3.33,10.15,7.32,10.15,3,0,4.35-2.23,7.35-2.29,3.22-.07,4.7,2.31,7.92,2.31s4.7-2.31,7.92-2.31,4.7,2.31,7.92,2.31,4.7-2.38,7.92-2.31c3,0.06,4.33,2.24,7.33,2.29,4,0,7.23-6,7.34-10.15V421.57c-2.21-.11-4.37,2.07-7.34,2s-4.33-2.24-7.33-2.31c-3.22-.07-4.7,2.31-7.92,2.31s-4.7-2.31-7.92-2.31h0Zm0,51.3c-1.3,0-32.94-13.71-32.94-31.1v-38h65.89v38c0,17.4-31.66,31.1-33,31.1h0Zm-4.71-29.36-1.38-2.39,1.38-2.39H298l-1.38-2.39-1.38,2.39h-2.76l1.38,2.39-1.38,2.39h2.76l1.38,2.39,1.38-2.39h2.76Zm17.71-8.72-1.38-2.39,1.38-2.39h-2.76l-1.38-2.39L313,429.72H310.2l1.38,2.39-1.38,2.39H313l1.38,2.39,1.38-2.39h2.76Zm-12.67,0-1.38-2.39,1.38-2.39H303l-1.38-2.39-1.38,2.39h-2.76l1.38,2.39-1.38,2.39h2.76l1.38,2.39L303,434.5h2.76Zm7.63,8.72-1.38-2.39,1.38-2.39h-2.76l-1.38-2.39-1.38,2.39h-2.76l1.38,2.39-1.38,2.39h2.76l1.38,2.39,1.38-2.39h2.76Zm-24.21-17.54h32.52v21.58H289.23V425.68h0Zm-24.18-3.74c-1.86,0-4.21-2.41-4-3.91,1.09-8.17,5.3-5.54,8.4-7.93,0.88,1.15,2.18,11.83-4.38,11.83h0Zm98.41,7.42a9.34,9.34,0,0,1-3.45,5.75c1.75-.05,4.57.18,5.18-2a3.22,3.22,0,0,0-1.73-3.74h0Zm-4.89-1.15c-6.18-.27-8.58,3.42-6.51,4.83,3.93,2.67,6.48-4.91,6.51-4.83h0Zm0.29-8.92a7.58,7.58,0,0,1-3.76,2,53.81,53.81,0,0,1,6.35,0,10.73,10.73,0,0,1-2.59-2h0Zm-12-7.37a4.85,4.85,0,1,0,4.85-4.85,4.85,4.85,0,0,0-4.85,4.85h0Zm19.41,3.95a2.72,2.72,0,0,1,3.21-.7c1.43,0.49,2.33,1.7,2.06,2.73,7.12-.14,8.82-1.79,8.87-1.73-2.07,3.82-8.13,6.56-10.42,6.78,3.24,1.11,9.59,4.8,9.55,11.93,0,10.42-10.11,11.87-15.79,10.37a4.17,4.17,0,0,1,2.81,2H341v-21a11.94,11.94,0,0,1,4.15-2.8,1.81,1.81,0,0,0,1-1.78,9.58,9.58,0,0,1-5.18-3.17V406.4s3.08-4.32,10.36-4.32A11.46,11.46,0,0,1,360.3,407s2.42-2,7.19-2c10.76,0,13.24,10.36,13.24,10.36a17.62,17.62,0,0,0-8.9-3.74,2.29,2.29,0,0,1-2.34,1.66,2.37,2.37,0,0,1-2.26-1.37l-0.88.57a2.46,2.46,0,0,1,.16,1.09,2.54,2.54,0,0,1-1,1.8l0.81,0.54h0Zm-16.73-3.95a2.17,2.17,0,1,1,2.17,2.17,2.17,2.17,0,0,1-2.17-2.17h0Zm-79.63,8.86v26.47H230.23a23.51,23.51,0,0,1,2.59-4.89c-1-.81-1.81-1.55-1.73-1.44-0.09-.11,5.31-7.12,9.21-7.19a8,8,0,0,1-1.44-1.44c1.39-1.55,3.87-1.66,12.09-2.3s9.35-2.87,9.5-9.51c2,2.45,5.48,5.41,9.49.3h0ZM249.8,407.27c-2.63-1.81-4-2.5-4.89-2.31s-2.61,3-2.59,2.88a32.8,32.8,0,0,1,7.48-.58h0ZM240,418.2c-1.88-1.58-4.28-4.74-4.61-6.91a3,3,0,0,1,.87-2.59,5.14,5.14,0,0,1-.29-2.3c1.14-3.41,17.38-3.56,20.72-3.45,7.59,0.34,9.21,0,12.95-1.44-0.1-.13-1.25,5.57-8.34,5.47a8.64,8.64,0,0,0,0,.86c2.8,0.05,6.13-.58,8.06-2.88-0.06,1.93.67,4.3-3.16,5.18-3.69.85-6,.73-7.19,11.22-0.24,3,0,5.55-4.89,6.62-4.71,1-17.17,1.35-19.41,3.1l-0.45-.8a7.86,7.86,0,0,0,3.74-7.19,3.87,3.87,0,0,1,1.73-.57c0,1-1.26,3.17,4.6,3.17,0.11,0,5.51.64,3.17-6.33-0.73-2.18-1.38-4.66-4-4.61,0-.05-3.41.16-1.73,3.53,2.39,0.5,5.11,1.09,5.48,2.8s-1,2.73-2,2.3-3.77-2-5.75-2c-3.66,0-10.2,4.15-14.39-3.71,1.21,1.3,2.36,2.16,6.33,2.27s4.71-1.62,8.63-1.73h0ZM208.4,324.71l6.16,15.18L220.14,326a14.82,14.82,0,0,0,1.22-3.84c0-.71-0.67-1-1.45-1.06L218.1,321v-1.47c1.92,0,3.42.11,4.55,0.11s2.59-.07,4.51-0.11V321l-1.26.12c-0.86.08-1.37,0.71-1.85,1.84l-8.17,19.54c-0.55,1.29-1,2.59-1.49,3.88h-3L202,324c-0.47-1.1-1.1-2.71-2.43-2.82L198,321v-1.47c2.59,0,4.59.11,6.12,0.11s3.49-.07,6.44-0.11V321l-2,.12a1,1,0,0,0-1,.75,9.15,9.15,0,0,0,.82,2.82h0ZM240.1,325v16a9.41,9.41,0,0,0,.28,3.18c0.16,0.31.59,0.47,1.61,0.55l1.45,0.12v1.59c-1.61,0-3.77-.11-6.09-0.11s-4.51.07-6.12,0.11v-1.59l1.45-.12c1-.08,1.45-0.24,1.61-0.55a9.42,9.42,0,0,0,.27-3.18V325a9.42,9.42,0,0,0-.27-3.17c-0.16-.31-0.59-0.47-1.61-0.55l-1.45-.12v-1.59c1.61,0,3.77.11,6.12,0.11s4.48-.07,6.09-0.11v1.59l-1.45.12c-1,.08-1.45.24-1.61,0.55a9.41,9.41,0,0,0-.28,3.17h0Zm32.79,17.89L272,344.79a17.25,17.25,0,0,1-9,2.16c-8.94,0-15.54-5-15.54-14.41,0-9,7.34-13.54,15.69-13.54a22.48,22.48,0,0,1,9.63,1.85l0.24,0.43a52.27,52.27,0,0,0-.9,6h-1.55l-0.2-3.38a9.32,9.32,0,0,0-7.06-2.71c-6.51,0-10,4.63-10,10.84,0,7.18,4.16,12.37,11.57,12.37a16.81,16.81,0,0,0,7.51-2l0.47,0.47h0Zm19-20.89v19a9.45,9.45,0,0,0,.27,3.18c0.16,0.31.59,0.47,1.61,0.55l1.45,0.12v1.59c-1.61,0-3.76-.11-6.08-0.11s-4.51.07-6.12,0.11v-1.59l1.45-.12c1-.08,1.45-0.24,1.61-0.55a9.43,9.43,0,0,0,.27-3.18V322h-4.58c-1.06,0-2.15,0-2.43.35a1.76,1.76,0,0,0-.35.94l-0.2,2.71h-1.59a45,45,0,0,0-.51-6.24l0.24-.2c4.13,0,8.21.12,12.17,0.12s8.07-.08,12.21-0.12l0.24,0.2A44.89,44.89,0,0,0,301,326h-1.59l-0.2-2.71a1.75,1.75,0,0,0-.35-0.94c-0.27-.35-1.37-0.35-2.43-0.35h-4.58Zm27.46-.79c-7.3,0-9,5.46-9,11.35,0,6.48,2.71,12.21,8.24,12.21,7.3,0,9-5.42,9-11.31,0-6.48-2.71-12.25-8.24-12.25h0Zm0-2.2c8.79,0,14.13,4.79,14.13,13.74,0,9.27-5.93,14.21-14.92,14.21-8.79,0-14.13-4.79-14.13-13.74,0-9.27,5.93-14.21,14.92-14.21h0Zm21.16,22V325a9.42,9.42,0,0,0-.27-3.17c-0.2-.39-0.59-0.59-1.61-0.67l-1.45-.12v-1.47c2.59,0,4.59.12,6.6,0.12,2.67,0,5.3-.08,8-0.12,4-.08,7.69,1.14,7.69,5.81,0,3.45-2.59,5.77-5.85,6.94L360.67,343a5.51,5.51,0,0,0,1.14,1.22,4,4,0,0,0,1.61.55v1.59c-1.26,0-2.55-.11-3.81-0.11s-2.36.07-3.53,0.11l-8.79-13.63,0.28-.71c3.61,0.31,6.28-1.92,6.28-5.61,0-3.22-2.24-4.94-5.3-4.94a6.41,6.41,0,0,0-2.51.35V341a9.43,9.43,0,0,0,.27,3.18c0.16,0.31.59,0.47,1.61,0.55l1.45,0.12v1.59c-1.61,0-3.77-.11-6.09-0.11s-4.52.07-6.12,0.11v-1.59l1.45-.12c1-.08,1.45-0.24,1.61-0.55a9.43,9.43,0,0,0,.27-3.18h0Zm35.82-16v16a9.41,9.41,0,0,0,.27,3.18c0.16,0.31.59,0.47,1.61,0.55l1.45,0.12v1.59c-1.61,0-3.77-.11-6.09-0.11s-4.51.07-6.12,0.11v-1.59l1.45-.12c1-.08,1.45-0.24,1.61-0.55a9.42,9.42,0,0,0,.27-3.18V325a9.42,9.42,0,0,0-.27-3.17c-0.16-.31-0.59-0.47-1.61-0.55l-1.45-.12v-1.59c1.61,0,3.77.11,6.12,0.11s4.48-.07,6.09-0.11v1.59l-1.45.12c-1,.08-1.45.24-1.61,0.55a9.41,9.41,0,0,0-.27,3.17h0Zm20.23,1-3.93,10h8l-4.08-10h0Zm5,12.17h-9.85L390,342.58c-0.55,1.49.24,2.19,0.94,2.23l2,0.12v1.47c-1.88,0-3.3-.11-4.44-0.11s-2.55.07-4.44,0.11v-1.47l1.18-.12c1-.12,1.73-1.21,2.2-2.35l7.11-17.18,1-2.71,0.63-1.61,0.59-1.61h2.79l10.17,23.74a2.46,2.46,0,0,0,2.16,1.72l0.94,0.12v1.47c-2.63,0-4.55-.11-6.09-0.11s-3.49.07-6.08,0.11v-1.47l2.08-.12c0.63,0,1.06-.9.55-2.15l-1.77-4.46h0Zm3.72,23.33V357a2.67,2.67,0,0,0-.08-0.9,0.48,0.48,0,0,0-.46-0.19l-0.41,0v-0.42c0.45,0,.89,0,1.34,0s0.63,0,.94,0c0.38,0.5.75,1,1.15,1.49l3.49,4.07v-4a2.68,2.68,0,0,0-.08-0.9,0.48,0.48,0,0,0-.46-0.19l-0.41,0v-0.42c0.42,0,.86,0,1.29,0s0.85,0,1.27,0v0.42l-0.41,0a0.48,0.48,0,0,0-.46.19,2.68,2.68,0,0,0-.08.9v5.07c0,0.39,0,.79,0,1.13l-1-.1c-0.46-.51-0.93-1-1.36-1.56l-3.62-4.35,0,4.36a2.67,2.67,0,0,0,.08.9,0.48,0.48,0,0,0,.46.19l0.41,0v0.42c-0.42,0-.85,0-1.27,0s-0.86,0-1.29,0v-0.42l0.41,0a0.48,0.48,0,0,0,.46-0.19,2.67,2.67,0,0,0,.08-0.9h0Zm-204.06-.46V357a2.68,2.68,0,0,0-.08-0.9,0.48,0.48,0,0,0-.46-0.19l-0.41,0v-0.42c0.46,0,1.07,0,1.74,0s1.27,0,1.73,0v0.42l-0.41,0a0.48,0.48,0,0,0-.46.19,2.68,2.68,0,0,0-.08.9v2.77c0,1.57.1,2.57,2,2.57s2.08-1,2.08-2.65V357a2.68,2.68,0,0,0-.08-0.9,0.48,0.48,0,0,0-.46-0.19l-0.41,0v-0.42c0.42,0,.86,0,1.29,0s0.85,0,1.27,0v0.42l-0.41,0a0.48,0.48,0,0,0-.46.19,2.68,2.68,0,0,0-.08.9v3.26c0,2-1.08,3-3.11,3s-3.2-.91-3.2-2.17h0Zm10.52,0.46V357a2.68,2.68,0,0,0-.08-0.9,0.48,0.48,0,0,0-.46-0.19l-0.41,0v-0.42c0.45,0,.89,0,1.34,0s0.63,0,.94,0c0.38,0.5.75,1,1.15,1.49l3.49,4.07v-4a2.68,2.68,0,0,0-.08-0.9,0.48,0.48,0,0,0-.46-0.19l-0.41,0v-0.42c0.42,0,.86,0,1.29,0s0.85,0,1.27,0v0.42l-0.41,0a0.48,0.48,0,0,0-.46.19,2.68,2.68,0,0,0-.08.9v5.07c0,0.39,0,.79,0,1.13l-1-.1c-0.46-.51-0.93-1-1.36-1.56l-3.62-4.35,0,4.36a2.68,2.68,0,0,0,.08.9,0.48,0.48,0,0,0,.46.19l0.41,0v0.42c-0.42,0-.85,0-1.27,0s-0.86,0-1.29,0v-0.42l0.41,0a0.48,0.48,0,0,0,.46-0.19,2.68,2.68,0,0,0,.08-0.9h0ZM224.35,357v4.55a2.68,2.68,0,0,0,.08.9,0.52,0.52,0,0,0,.46.16l0.41,0v0.45c-0.46,0-1.07,0-1.73,0s-1.29,0-1.74,0v-0.45l0.41,0a0.52,0.52,0,0,0,.46-0.16,2.68,2.68,0,0,0,.08-0.9V357a2.68,2.68,0,0,0-.08-0.9,0.52,0.52,0,0,0-.46-0.16l-0.41,0v-0.45c0.46,0,1.07,0,1.74,0s1.27,0,1.73,0v0.45l-0.41,0a0.52,0.52,0,0,0-.46.16,2.68,2.68,0,0,0-.08.9h0Zm6.29-.08,1.76,4.32,1.59-3.94a4.22,4.22,0,0,0,.35-1.09,0.36,0.36,0,0,0-.41-0.3l-0.51,0v-0.42l1.3,0,1.29,0v0.42l-0.36,0a0.67,0.67,0,0,0-.53.53L232.78,362c-0.16.37-.28,0.74-0.42,1.11H231.5l-2.67-6.39a1.09,1.09,0,0,0-.69-0.8l-0.46,0v-0.42l1.74,0,1.83,0v0.42l-0.56,0a0.28,0.28,0,0,0-.29.21,2.6,2.6,0,0,0,.23.8h0Zm10.19-.79v2.68c0.26,0,.5,0,0.75,0h0.74c0.39,0,.61,0,0.64-0.23l0.07-.64h0.45c0,0.4,0,.79,0,1.2s0,0.81,0,1.21H243l-0.07-.56c0-.31-0.25-0.41-0.64-0.41h-0.74c-0.25,0-.49,0-0.75,0v3c0.47,0,1,0,1.43,0a3.8,3.8,0,0,0,1.36-.19l0.26-1.05h0.44L244.2,363a16,16,0,0,1-2.81.12c-0.46,0-.92,0-1.38,0s-0.93,0-1.34,0v-0.26l0.36-.2a0.64,0.64,0,0,0,.22-0.64v-5a2.68,2.68,0,0,0-.08-0.9,0.48,0.48,0,0,0-.46-0.19l-0.41,0v-0.42l1.74,0c1.05,0,1.81,0,2.45,0a15.14,15.14,0,0,1,1.63,0L244,357.13h-0.4l-0.09-.84a2.19,2.19,0,0,0-1.29-.21c-0.48,0-1,0-1.43,0h0Zm7,5.42V357a2.68,2.68,0,0,0-.08-0.9,0.48,0.48,0,0,0-.46-0.19l-0.41,0v-0.42c0.74,0,1.31,0,1.88,0,0.76,0,1.51,0,2.27,0,1.14,0,2.19.32,2.19,1.65a2.19,2.19,0,0,1-1.67,2l2,3.06a1.56,1.56,0,0,0,.32.35,1.14,1.14,0,0,0,.46.16v0.45c-0.36,0-.73,0-1.08,0s-0.67,0-1,0l-2.5-3.88,0.08-.2a1.54,1.54,0,0,0,1.79-1.6A1.36,1.36,0,0,0,250.1,356a1.82,1.82,0,0,0-.72.1v5.44a2.69,2.69,0,0,0,.08.9,0.52,0.52,0,0,0,.46.16l0.41,0v0.45c-0.46,0-1.07,0-1.73,0s-1.29,0-1.74,0v-0.45l0.41,0a0.52,0.52,0,0,0,.46-0.16,2.69,2.69,0,0,0,.08-0.9h0Zm9.21-.74h0.45l0.08,1a2.28,2.28,0,0,0,1.75.86,1.54,1.54,0,0,0,1.75-1.48,1.08,1.08,0,0,0-.93-1l-1.57-.47a2,2,0,0,1-1.63-1.9c0-1.79,1.33-2.47,3-2.47a5.76,5.76,0,0,1,2.08.38,16.2,16.2,0,0,0-.1,1.72H261.4l-0.07-.92a2.11,2.11,0,0,0-1.49-.61,1.34,1.34,0,0,0-1.53,1.35,1.23,1.23,0,0,0,1.18,1.08l1.27,0.34a2,2,0,0,1,1.69,1.92c0,1.9-1.58,2.69-3.27,2.69a5.43,5.43,0,0,1-2.34-.51,9.55,9.55,0,0,0,.17-1.93h0Zm10.7-3.81v4.55a2.68,2.68,0,0,0,.08.9,0.52,0.52,0,0,0,.46.16l0.41,0v0.45c-0.46,0-1.07,0-1.73,0s-1.29,0-1.74,0v-0.45l0.41,0a0.52,0.52,0,0,0,.46-0.16,2.68,2.68,0,0,0,.08-0.9V357a2.68,2.68,0,0,0-.08-0.9,0.52,0.52,0,0,0-.46-0.16l-0.41,0v-0.45c0.46,0,1.07,0,1.74,0s1.27,0,1.73,0v0.45l-0.41,0a0.52,0.52,0,0,0-.46.16,2.68,2.68,0,0,0-.08.9h0Zm7.62-.85v5.41a2.69,2.69,0,0,0,.08.9,0.52,0.52,0,0,0,.46.16l0.41,0v0.45c-0.46,0-1.07,0-1.73,0s-1.28,0-1.74,0v-0.45l0.41,0a0.52,0.52,0,0,0,.46-0.16,2.69,2.69,0,0,0,.08-0.9v-5.41h-1.3a1.2,1.2,0,0,0-.69.1,0.5,0.5,0,0,0-.1.27l-0.06.77h-0.45a12.8,12.8,0,0,0-.15-1.78c1.24,0,2.4,0,3.53,0s2.3,0,3.48,0c0,0.59-.06,1.11-0.08,1.83h-0.45l-0.06-.77a0.5,0.5,0,0,0-.1-0.27,1.2,1.2,0,0,0-.69-0.1h-1.3Zm9.08,2.93,2.1-3.59h0.86v0.21l-2,2.91a7.13,7.13,0,0,0-.59,1.12v1.82a2.7,2.7,0,0,0,.08.91,0.52,0.52,0,0,0,.46.16l0.41,0v0.45c-0.46,0-1.07,0-1.73,0s-1.29,0-1.74,0v-0.45l0.41,0a0.52,0.52,0,0,0,.46-0.16,2.7,2.7,0,0,0,.08-0.91V360a6.94,6.94,0,0,0-.49-1l-1.13-1.82a6.38,6.38,0,0,0-.58-0.75,1,1,0,0,0-.87-0.37v-0.41l1.78-.39a3.36,3.36,0,0,1,1.27,1.51l1.2,2.27h0Zm14-3.16c-2.08,0-2.57,1.55-2.57,3.23,0,1.84.77,3.48,2.35,3.48,2.08,0,2.57-1.54,2.57-3.22,0-1.84-.77-3.49-2.35-3.49h0Zm0-.63c2.5,0,4,1.36,4,3.91s-1.69,4-4.25,4-4-1.36-4-3.91,1.69-4,4.25-4h0Zm9.09,0.84v2.72c0.26,0,.5,0,0.75,0h0.57c0.39,0,.61,0,0.64-0.23l0.07-.59H310c0,0.36,0,.75,0,1.15s0,0.8,0,1.21h-0.45l-0.07-.56c0-.31-0.25-0.41-0.64-0.41h-0.57c-0.25,0-.49,0-0.75,0v2.09a2.68,2.68,0,0,0,.08.9,0.52,0.52,0,0,0,.46.16l0.53,0v0.45c-0.57,0-1.19,0-1.84,0s-1.29,0-1.74,0v-0.45l0.41,0a0.52,0.52,0,0,0,.46-0.16,2.67,2.67,0,0,0,.08-0.9V357a2.67,2.67,0,0,0-.08-0.9,0.48,0.48,0,0,0-.46-0.19l-0.41,0v-0.42l1.74,0c0.87,0,1.63,0,2.27,0a15.15,15.15,0,0,1,1.63,0l-0.09,1.67h-0.4l-0.09-.84a2.19,2.19,0,0,0-1.29-.21l-1.25,0h0Zm13.13,4.58,1.67-3.94,0.57-1.39h0.5c0.18,0.51.36,1,.55,1.49l1.52,3.8,1.1-4.19a1.38,1.38,0,0,0,0-.37,0.37,0.37,0,0,0-.39-0.22l-0.51,0v-0.42l1.21,0,1.21,0v0.42l-0.37,0a0.93,0.93,0,0,0-.48.77l-1.36,4.83c-0.15.52-.25,1.06-0.37,1.6h-0.82c-0.15-.39-0.27-0.78-0.43-1.17l-1.67-4.19-1.73,4c-0.2.46-.35,0.93-0.53,1.4h-0.78L318,356.35a0.49,0.49,0,0,0-.41-0.47l-0.36,0v-0.42l1.74,0,1.5,0v0.42l-0.47,0a0.37,0.37,0,0,0-.34.26,1.86,1.86,0,0,0,0,.31l0.91,4.24h0Zm12.27-4.58v2.68c0.26,0,.5,0,0.75,0h0.74c0.39,0,.62,0,0.64-0.23l0.07-.64h0.45c0,0.4,0,.79,0,1.2s0,0.81,0,1.21h-0.45l-0.07-.56c0-.31-0.25-0.41-0.64-0.41h-0.74c-0.25,0-.49,0-0.75,0v3c0.47,0,1,0,1.43,0a3.8,3.8,0,0,0,1.36-.19l0.26-1.05h0.44L336.27,363a16,16,0,0,1-2.81.12c-0.46,0-.92,0-1.37,0s-0.93,0-1.34,0v-0.26l0.36-.2a0.64,0.64,0,0,0,.22-0.64v-5a2.69,2.69,0,0,0-.08-0.9,0.48,0.48,0,0,0-.46-0.19l-0.41,0v-0.42l1.74,0c1.05,0,1.81,0,2.45,0a15.14,15.14,0,0,1,1.63,0l-0.09,1.67h-0.4l-0.09-.84a2.19,2.19,0,0,0-1.29-.21c-0.48,0-1,0-1.43,0h0Zm8.55,0.86v5.42c0.47,0,1,0,1.43,0a3.81,3.81,0,0,0,1.36-.19l0.26-1.14h0.44L344.82,363a16,16,0,0,1-2.81.12c-0.46,0-.92,0-1.37,0s-0.93,0-1.34,0v-0.26l0.36-.2a0.64,0.64,0,0,0,.22-0.64v-5a2.68,2.68,0,0,0-.08-0.9,0.52,0.52,0,0,0-.46-0.16l-0.41,0v-0.45c0.46,0,1.07,0,1.74,0s1.27,0,1.73,0v0.45l-0.41,0a0.52,0.52,0,0,0-.46.16,2.68,2.68,0,0,0-.08.9h0Zm8.55,0v5.42c0.47,0,1,0,1.43,0a3.81,3.81,0,0,0,1.36-.19L353,361.1h0.44L353.37,363a16,16,0,0,1-2.81.12c-0.46,0-.92,0-1.37,0s-0.93,0-1.34,0v-0.26l0.36-.2a0.64,0.64,0,0,0,.22-0.64v-5a2.68,2.68,0,0,0-.08-0.9,0.52,0.52,0,0,0-.46-0.16l-0.41,0v-0.45c0.46,0,1.07,0,1.74,0s1.27,0,1.73,0v0.45l-0.41,0a0.52,0.52,0,0,0-.46.16,2.68,2.68,0,0,0-.08.9h0Zm8.55,0v4.55a2.68,2.68,0,0,0,.08.9,0.52,0.52,0,0,0,.46.16l0.41,0v0.45c-0.46,0-1.07,0-1.73,0s-1.29,0-1.74,0v-0.45l0.41,0a0.52,0.52,0,0,0,.46-0.16,2.68,2.68,0,0,0,.08-0.9V357a2.68,2.68,0,0,0-.08-0.9,0.52,0.52,0,0,0-.46-0.16l-0.41,0v-0.45c0.46,0,1.07,0,1.74,0s1.27,0,1.73,0v0.45l-0.41,0a0.52,0.52,0,0,0-.46.16,2.68,2.68,0,0,0-.08.9h0Zm4.45,4.55V357a2.68,2.68,0,0,0-.08-0.9,0.48,0.48,0,0,0-.46-0.19l-0.41,0v-0.42c0.45,0,.89,0,1.34,0s0.63,0,.94,0c0.38,0.5.75,1,1.15,1.49L369,361v-4a2.68,2.68,0,0,0-.08-0.9,0.48,0.48,0,0,0-.46-0.19l-0.41,0v-0.42c0.42,0,.86,0,1.29,0s0.85,0,1.27,0v0.42l-0.41,0a0.48,0.48,0,0,0-.46.19,2.69,2.69,0,0,0-.08.9v5.07c0,0.39,0,.79,0,1.13l-1-.1c-0.46-.51-0.93-1-1.36-1.56l-3.62-4.35,0,4.36a2.67,2.67,0,0,0,.08.9,0.48,0.48,0,0,0,.46.19l0.41,0v0.42c-0.42,0-.85,0-1.27,0s-0.86,0-1.29,0v-0.42l0.41,0a0.48,0.48,0,0,0,.46-0.19,2.68,2.68,0,0,0,.08-0.9h0Zm17.9-.79v1.82a8.91,8.91,0,0,1-3.27.67c-2.55,0-4.42-1.43-4.42-4.1s2.09-3.86,4.47-3.86a7.78,7.78,0,0,1,3.08.53c0,0.53-.13,1.35-0.19,1.83h-0.44l-0.06-1a3.28,3.28,0,0,0-2.34-.77,2.77,2.77,0,0,0-2.84,3.09c0,1.93,1,3.62,3,3.62a3.92,3.92,0,0,0,1.42-.28v-1.48c0-.35-0.28-0.4-0.64-0.41l-0.59,0V360c0.55,0,1.1,0,1.64,0s1.08,0,1.63,0v0.38c-0.38.08-.46,0.12-0.46,0.4h0Zm7.33-4.62v5.41a2.68,2.68,0,0,0,.08.9,0.52,0.52,0,0,0,.46.16l0.41,0v0.45c-0.46,0-1.07,0-1.73,0s-1.28,0-1.74,0v-0.45l0.41,0a0.52,0.52,0,0,0,.46-0.16,2.68,2.68,0,0,0,.08-0.9v-5.41h-1.3a1.2,1.2,0,0,0-.69.1,0.5,0.5,0,0,0-.1.27l-0.06.77H384a12.77,12.77,0,0,0-.15-1.78c1.24,0,2.4,0,3.53,0s2.3,0,3.48,0c0,0.59-.06,1.11-0.08,1.83h-0.45l-0.06-.77a0.5,0.5,0,0,0-.1-0.27,1.2,1.2,0,0,0-.69-0.1h-1.3Zm9.43-.22c-2.08,0-2.57,1.55-2.57,3.23,0,1.84.77,3.48,2.35,3.48,2.08,0,2.57-1.54,2.57-3.22,0-1.84-.77-3.49-2.35-3.49h0Zm0-.63c2.5,0,4,1.36,4,3.91s-1.69,4-4.25,4-4-1.36-4-3.91,1.69-4,4.25-4h0ZM322,370.47h4.14v0.83H322v-0.83h0Zm-89.36,8.43v-4.68c0-.42,0-0.77,0-1.11h-1.72c-0.33,0-.42.1-0.44,0.36l0,0.87h-0.34c0-.6,0-1.21-0.08-1.78,0.8,0,1.59,0,2.39,0H234c0.8,0,1.59,0,2.39,0-0.06.58-.08,1.18-0.08,1.78H236l0-.87c0-.27-0.11-0.36-0.44-0.36h-1.72c0,0.33,0,.69,0,1.11v4.68a2,2,0,0,0,.1.83,0.51,0.51,0,0,0,.46.17l0.53,0v0.34c-0.58,0-1.1,0-1.6,0s-1.06,0-1.64,0v-0.34l0.53,0a0.51,0.51,0,0,0,.46-0.17,2,2,0,0,0,.1-0.83h0Zm6.94,0v-5a2,2,0,0,0-.1-0.83,0.51,0.51,0,0,0-.46-0.17l-0.53,0v-0.34c0.61,0,1.24,0,1.87,0,1,0,2,0,2.61,0s1,0,1.43,0a7.4,7.4,0,0,0-.18,1.68h-0.39v-0.72a0.29,0.29,0,0,0-.1-0.3,6.87,6.87,0,0,0-2.17-.23,3.81,3.81,0,0,0-.93.09v3c0.35,0,.75,0,1.28,0a3.07,3.07,0,0,0,1.17-.12,0.42,0.42,0,0,0,.09-0.29l0.06-.58h0.34c0,0.45,0,.87,0,1.28s0,0.83,0,1.23h-0.34l-0.06-.65a0.37,0.37,0,0,0-.09-0.28,2.75,2.75,0,0,0-1.17-.13c-0.53,0-.94,0-1.28,0v3.1a3.81,3.81,0,0,0,.93.09,10.2,10.2,0,0,0,2.24-.14,2.05,2.05,0,0,0,.39-1.24h0.39a9.52,9.52,0,0,0-.18,1.82c-0.49,0-1.37,0-2.18,0l-2.41,0c-0.42,0-.79,0-1.18,0v-0.34l0.4,0a0.54,0.54,0,0,0,.46-0.17,2,2,0,0,0,.1-0.83h0Zm18.33-.85-1.38-3.75-1.93,4.89c-0.14.38-.29,0.75-0.4,1.14h-0.55c-0.08-.41-0.17-0.75-0.25-1.14l-1.32-5.7a0.56,0.56,0,0,0-.55-0.55l-0.31,0v-0.34c0.46,0,.92,0,1.39,0s0.93,0,1.39,0v0.34l-0.46,0c-0.29,0-.51.08-0.37,0.73l1.1,4.93,1.38-3.45c0.34-.87.7-1.76,1-2.67H257a14,14,0,0,0,.45,1.4l1.72,4.8,1.47-5.37c0.07-.27-0.09-0.33-0.51-0.36l-0.44,0v-0.34c0.39,0,.76,0,1.16,0s0.77,0,1.16,0v0.34l-0.35,0a0.42,0.42,0,0,0-.42.32l-1.69,5.95c-0.09.32-.21,0.66-0.3,1.12h-0.55c-0.24-.87-0.51-1.51-0.79-2.28h0Zm13.83-4.12v5a2,2,0,0,0,.1.83,0.51,0.51,0,0,0,.46.17l0.53,0v0.34c-0.58,0-1.1,0-1.6,0s-1.06,0-1.64,0v-0.34l0.53,0a0.51,0.51,0,0,0,.46-0.17,2,2,0,0,0,.1-0.83v-2.46c-0.13,0-.43,0-0.92,0h-2.59c-0.49,0-.79,0-0.92,0v2.46a2,2,0,0,0,.1.83,0.51,0.51,0,0,0,.46.17l0.53,0v0.34c-0.58,0-1.1,0-1.6,0s-1.06,0-1.64,0v-0.34l0.53,0a0.51,0.51,0,0,0,.46-0.17,2,2,0,0,0,.1-0.83v-5a2,2,0,0,0-.1-0.83,0.51,0.51,0,0,0-.46-0.17l-0.53,0v-0.34c0.58,0,1.1,0,1.64,0s1,0,1.6,0v0.34l-0.53,0a0.51,0.51,0,0,0-.46.17,2,2,0,0,0-.1.83v2c0.13,0,.43,0,0.92,0h2.59c0.49,0,.79,0,0.92,0v-2a2,2,0,0,0-.1-0.83,0.51,0.51,0,0,0-.46-0.17l-0.53,0v-0.34c0.58,0,1.1,0,1.64,0s1,0,1.6,0v0.34l-0.53,0a0.51,0.51,0,0,0-.46.17,2,2,0,0,0-.1.83h0Zm5.67,3.32h2.8l-1.39-3.3-1.41,3.3h0Zm1.86-4.77,2.68,6.28c0.1,0.22.22,0.52,0.35,0.75a0.61,0.61,0,0,0,.44.38l0.38,0v0.34c-0.49,0-1,0-1.47,0l-1.47,0v-0.34l0.52,0a0.42,0.42,0,0,0,.45-0.22A2.57,2.57,0,0,0,281,379l-0.51-1.27h-3.19l-0.31.74a6.37,6.37,0,0,0-.39,1.15c0,0.23.19,0.28,0.53,0.31l0.41,0v0.34l-1.27,0c-0.43,0-.85,0-1.27,0v-0.34l0.41,0a0.79,0.79,0,0,0,.6-0.54l2-4.48c0.34-.77.72-1.59,1-2.39h0.35Zm8.16,0.64v5.77a2,2,0,0,0,.1.83,0.51,0.51,0,0,0,.46.17l0.53,0v0.34c-0.58,0-1.1,0-1.6,0s-1.06,0-1.64,0v-0.34l0.53,0a0.51,0.51,0,0,0,.46-0.17,2,2,0,0,0,.1-0.83v-5a2,2,0,0,0-.1-0.83,0.54,0.54,0,0,0-.46-0.17l-0.45,0v-0.34c0.59,0,1.23,0,1.88,0s1.29,0,1.94,0c1.77,0,2.24.86,2.24,1.66a2.37,2.37,0,0,1-2.16,2.14l2.51,3.27a0.85,0.85,0,0,0,.68.29v0.34c-0.29,0-.54,0-0.8,0s-0.5,0-.75,0c-0.14-.21-0.31-0.4-0.45-0.6l-2-2.73c-0.18-.24-0.39-0.45-0.58-0.69a7.58,7.58,0,0,1,1-.18,1.63,1.63,0,0,0,1.44-1.55,1.5,1.5,0,0,0-1.75-1.53,4.31,4.31,0,0,0-1.13.13h0Zm8,5.77v-5a2,2,0,0,0-.1-0.83,0.51,0.51,0,0,0-.47-0.17l-0.53,0v-0.34c0.61,0,1.24,0,1.87,0,1,0,2,0,2.61,0s1,0,1.43,0a7.41,7.41,0,0,0-.18,1.68h-0.39v-0.72a0.29,0.29,0,0,0-.1-0.3,6.87,6.87,0,0,0-2.17-.23,3.81,3.81,0,0,0-.93.09v3c0.35,0,.75,0,1.28,0A3.07,3.07,0,0,0,299,376a0.42,0.42,0,0,0,.09-0.29l0.06-.58h0.34c0,0.45,0,.87,0,1.28s0,0.83,0,1.23h-0.34l-0.06-.65a0.37,0.37,0,0,0-.09-0.28,2.75,2.75,0,0,0-1.17-.13c-0.53,0-.94,0-1.28,0v3.1a3.81,3.81,0,0,0,.93.09,10.2,10.2,0,0,0,2.24-.14,2,2,0,0,0,.39-1.24h0.39a9.51,9.51,0,0,0-.18,1.82c-0.49,0-1.37,0-2.18,0l-2.41,0c-0.42,0-.79,0-1.18,0v-0.34l0.4,0a0.54,0.54,0,0,0,.47-0.17,2,2,0,0,0,.1-0.83h0Zm18.33-.85-1.38-3.75-1.93,4.89c-0.14.38-.29,0.75-0.4,1.14h-0.55c-0.08-.41-0.17-0.75-0.25-1.14L308,373.5a0.56,0.56,0,0,0-.55-0.55l-0.31,0v-0.34c0.46,0,.92,0,1.39,0s0.93,0,1.39,0v0.34l-0.46,0c-0.29,0-.51.08-0.37,0.73l1.1,4.93,1.38-3.45c0.34-.87.7-1.76,1-2.67h0.35a14,14,0,0,0,.45,1.4l1.72,4.8,1.47-5.37c0.07-.27-0.09-0.33-0.51-0.36l-0.44,0v-0.34c0.39,0,.76,0,1.16,0s0.77,0,1.16,0v0.34l-0.35,0a0.42,0.42,0,0,0-.42.32l-1.69,5.95c-0.09.32-.21,0.66-0.3,1.12h-0.55c-0.24-.87-0.51-1.51-0.79-2.28h0Zm8.62-.8h2.8l-1.39-3.3-1.41,3.3h0Zm1.86-4.77,2.68,6.28c0.1,0.22.22,0.52,0.35,0.75a0.61,0.61,0,0,0,.44.38l0.38,0v0.34c-0.49,0-1,0-1.47,0l-1.47,0v-0.34l0.52,0a0.42,0.42,0,0,0,.45-0.22A2.57,2.57,0,0,0,326,379l-0.51-1.27h-3.19l-0.31.74a6.37,6.37,0,0,0-.39,1.15c0,0.23.19,0.28,0.53,0.31l0.41,0v0.34l-1.27,0c-0.43,0-.85,0-1.27,0v-0.34l0.41,0a0.79,0.79,0,0,0,.6-0.54l2-4.48c0.34-.77.72-1.59,1-2.39h0.35Zm7,6.42v-5a2,2,0,0,0-.1-0.83,0.54,0.54,0,0,0-.46-0.17l-0.49,0v-0.34l1.33,0c0.2,0,.4,0,0.6,0l5.29,6.53,0-5.16a2,2,0,0,0-.1-0.83,0.54,0.54,0,0,0-.46-0.17l-0.49,0v-0.34l1.28,0c0.44,0,.84,0,1.33,0v0.34l-0.49,0a0.54,0.54,0,0,0-.46.17,2,2,0,0,0-.1.83V380c0,0.13,0,.28,0,0.41l-1-.18-5.21-6.47,0,5.09a2,2,0,0,0,.1.83,0.54,0.54,0,0,0,.46.17l0.49,0v0.34c-0.49,0-.89,0-1.33,0l-1.28,0v-0.34l0.49,0a0.54,0.54,0,0,0,.46-0.17,2,2,0,0,0,.1-0.83h0Zm12.29-1.65h2.8L345,374l-1.41,3.3h0Zm1.86-4.77,2.68,6.28c0.1,0.22.22,0.52,0.35,0.75a0.61,0.61,0,0,0,.44.38l0.38,0v0.34c-0.49,0-1,0-1.47,0l-1.47,0v-0.34l0.52,0a0.42,0.42,0,0,0,.45-0.22,2.58,2.58,0,0,0-.23-0.71l-0.51-1.27h-3.19l-0.31.74a6.37,6.37,0,0,0-.39,1.15c0,0.23.19,0.28,0.53,0.31l0.41,0v0.34l-1.27,0c-0.43,0-.85,0-1.27,0v-0.34l0.41,0a0.79,0.79,0,0,0,.6-0.54l2-4.48c0.34-.77.72-1.59,1-2.39h0.35Zm7,6.42v-5a2,2,0,0,0-.1-0.83,0.54,0.54,0,0,0-.46-0.17l-0.49,0v-0.34l1.33,0c0.2,0,.4,0,0.6,0l5.29,6.53,0-5.16a2,2,0,0,0-.1-0.83,0.54,0.54,0,0,0-.46-0.17l-0.49,0v-0.34l1.28,0c0.44,0,.84,0,1.33,0v0.34l-0.49,0a0.54,0.54,0,0,0-.46.17,2,2,0,0,0-.1.83V380c0,0.13,0,.28,0,0.41l-1-.18L353,373.81l0,5.09a2,2,0,0,0,.1.83,0.54,0.54,0,0,0,.46.17l0.49,0v0.34c-0.49,0-.89,0-1.33,0l-1.28,0v-0.34l0.49,0a0.54,0.54,0,0,0,.46-0.17,2,2,0,0,0,.1-0.83h0Zm16.23,0.25V378a0.33,0.33,0,0,0-.38-0.39l-0.92-.08v-0.34l1.35,0,1.36,0,0,0.28-0.32.11c-0.12,0-.12.09-0.12,0.41v1.86a12.44,12.44,0,0,1-2.91.56c-2.47,0-4.46-1.28-4.46-4.06,0-2.43,2-4,4.67-4a8.73,8.73,0,0,1,2.74.45,6.93,6.93,0,0,0-.22,1.68h-0.34v-0.59a1,1,0,0,0-.92-0.89,4.76,4.76,0,0,0-1.55-.2,3,3,0,0,0-3.2,3.35c0,2.2,1.28,3.78,3.56,3.78a2.06,2.06,0,0,0,1.55-.39,1.06,1.06,0,0,0,.06-0.45h0Zm6.18-1.89h2.8l-1.39-3.3-1.41,3.3h0Zm1.86-4.77,2.68,6.28c0.1,0.22.22,0.52,0.35,0.75a0.61,0.61,0,0,0,.44.38l0.38,0v0.34c-0.49,0-1,0-1.47,0l-1.47,0v-0.34l0.52,0a0.42,0.42,0,0,0,.45-0.22,2.58,2.58,0,0,0-.23-0.71l-0.51-1.27h-3.19l-0.31.74a6.37,6.37,0,0,0-.39,1.15c0,0.23.19,0.28,0.53,0.31l0.41,0v0.34l-1.27,0c-0.43,0-.85,0-1.27,0v-0.34l0.41,0a0.79,0.79,0,0,0,.6-0.54l2-4.48c0.34-.77.72-1.59,1-2.39h0.35Zm9.11,11.62H390v0.83h-4.14v-0.83h0Zm20.77,3.48v5a1.94,1.94,0,0,0,.1.83,0.51,0.51,0,0,0,.46.17l0.53,0v0.34c-0.58,0-1.1,0-1.6,0s-1.06,0-1.64,0v-0.34l0.53,0a0.51,0.51,0,0,0,.46-0.17,2,2,0,0,0,.1-0.83v-5a2,2,0,0,0-.1-0.83,0.51,0.51,0,0,0-.46-0.17l-0.53,0v-0.34c0.58,0,1.1,0,1.64,0s1,0,1.6,0v0.34l-0.53,0a0.51,0.51,0,0,0-.46.17,2,2,0,0,0-.1.83h0ZM206.87,386.5c-1.93,0-2.8,1.35-2.8,3.17s0.91,4,3.1,4c1.85,0,2.74-1.44,2.74-3.47,0-2.19-1-3.66-3-3.66h0Zm-0.06,7.6a3.79,3.79,0,0,1-3.93-4,3.91,3.91,0,0,1,4.16-4c2.37,0,4.05,1.33,4.05,3.78a4.24,4.24,0,0,1-4.28,4.28h0Zm13.52-1.55v-4.68c0-.42,0-0.77,0-1.11h-1.72c-0.33,0-.42.1-0.44,0.37l0,0.87h-0.34c0-.6,0-1.21-0.08-1.78,0.8,0,1.59,0,2.39,0h1.6c0.8,0,1.59,0,2.39,0-0.06.58-.08,1.18-0.08,1.78h-0.34l0-.87c0-.27-0.11-0.37-0.44-0.37h-1.72a11.07,11.07,0,0,0,0,1.11v4.68a2,2,0,0,0,.1.83,0.51,0.51,0,0,0,.46.17l0.53,0v0.34c-0.58,0-1.1,0-1.6,0s-1.06,0-1.64,0v-0.34l0.53,0a0.51,0.51,0,0,0,.46-0.17,2,2,0,0,0,.1-0.83h0Zm6.94,0v-5a2,2,0,0,0-.1-0.83,0.51,0.51,0,0,0-.46-0.17l-0.53,0v-0.34c0.61,0,1.24,0,1.87,0,1,0,2,0,2.61,0s1,0,1.43,0a7.4,7.4,0,0,0-.18,1.68h-0.39v-0.72a0.29,0.29,0,0,0-.1-0.3,6.88,6.88,0,0,0-2.17-.23,3.83,3.83,0,0,0-.93.09v3c0.35,0,.75,0,1.28,0a3.07,3.07,0,0,0,1.17-.12,0.42,0.42,0,0,0,.09-0.29l0.06-.58h0.34c0,0.45,0,.87,0,1.28s0,0.83,0,1.23h-0.34l-0.06-.65a0.37,0.37,0,0,0-.09-0.28,2.75,2.75,0,0,0-1.17-.13c-0.53,0-.94,0-1.28,0v3.1a3.83,3.83,0,0,0,.93.09,10.2,10.2,0,0,0,2.24-.14,2.05,2.05,0,0,0,.39-1.24h0.39a9.52,9.52,0,0,0-.18,1.81c-0.49,0-1.37,0-2.18,0l-2.41,0c-0.42,0-.79,0-1.18,0v-0.34l0.4,0a0.54,0.54,0,0,0,.46-0.17,2,2,0,0,0,.1-0.83h0Zm12.78-1v-3.93a2,2,0,0,0-.1-0.83,0.51,0.51,0,0,0-.46-0.17l-0.53,0v-0.34c0.58,0,1.1,0,1.64,0s1,0,1.6,0v0.34l-0.53,0a0.51,0.51,0,0,0-.46.17,2,2,0,0,0-.1.83v3.8c0,1.57.82,2,2.28,2a2,2,0,0,0,2.28-2.29v-3.54a2,2,0,0,0-.1-0.83,0.54,0.54,0,0,0-.46-0.17l-0.49,0v-0.34c0.44,0,.89,0,1.28,0s0.84,0,1.33,0v0.34l-0.49,0a0.54,0.54,0,0,0-.46.17,2,2,0,0,0-.1.83v3.2c0,2.37-.9,3.32-3.13,3.32-1.88,0-3-.56-3-2.59h0Zm11.45-4.74v5.77a2,2,0,0,0,.1.83,0.51,0.51,0,0,0,.46.17l0.53,0v0.34c-0.58,0-1.1,0-1.6,0s-1.06,0-1.64,0v-0.34l0.53,0a0.51,0.51,0,0,0,.46-0.17,2,2,0,0,0,.1-0.83v-5a1.84,1.84,0,0,0-.11-0.81,0.57,0.57,0,0,0-.48-0.19l-0.5,0v-0.34c0.73,0,1.36,0,2,0s1.28,0,1.88,0c1.07,0,2.29.44,2.29,1.69a2.49,2.49,0,0,1-2.66,2.38,3.38,3.38,0,0,1-.66-0.07l-0.11-.4a2.39,2.39,0,0,0,.73.11,1.59,1.59,0,0,0,1.59-1.65,1.54,1.54,0,0,0-1.79-1.65,4.32,4.32,0,0,0-1.13.13h0Zm10.2-.28c-1.93,0-2.8,1.35-2.8,3.17s0.91,4,3.1,4c1.85,0,2.74-1.44,2.74-3.47,0-2.19-1-3.66-3-3.66h0Zm-0.06,7.6a3.79,3.79,0,0,1-3.93-4,3.91,3.91,0,0,1,4.16-4c2.37,0,4.05,1.33,4.05,3.78a4.24,4.24,0,0,1-4.28,4.28h0Zm8.6-3.82v2.27a2,2,0,0,0,.1.83,0.51,0.51,0,0,0,.46.17l0.53,0v0.34c-0.58,0-1.1,0-1.6,0s-1.06,0-1.64,0v-0.34l0.53,0a0.51,0.51,0,0,0,.46-0.17,2,2,0,0,0,.1-0.83v-5a2,2,0,0,0-.1-0.83,0.51,0.51,0,0,0-.46-0.17l-0.53,0v-0.34c0.58,0,1.1,0,1.64,0s1,0,1.6,0v0.34l-0.53,0a0.51,0.51,0,0,0-.46.17,2,2,0,0,0-.1.83V390l3.08-3a1.14,1.14,0,0,0,.32-0.43v-0.3c0.35,0,.66,0,1,0s0.62,0,.89,0v0.34l-0.46,0a1.41,1.41,0,0,0-.86.42l-2.94,2.65,3.65,3.45a1.47,1.47,0,0,0,.69.45l0.23,0v0.34c-0.21,0-.48,0-0.73,0l-0.87,0-3.85-3.71-0.11.08h0Zm11.55-3.78c-1.93,0-2.8,1.35-2.8,3.17s0.91,4,3.1,4c1.85,0,2.74-1.44,2.74-3.47,0-2.19-1-3.66-3-3.66h0Zm-0.06,7.6a3.79,3.79,0,0,1-3.93-4,3.91,3.91,0,0,1,4.16-4c2.37,0,4.05,1.33,4.05,3.78a4.24,4.24,0,0,1-4.28,4.28h0Zm14.88-7.6c-1.93,0-2.8,1.35-2.8,3.17s0.91,4,3.1,4c1.85,0,2.74-1.44,2.74-3.47,0-2.19-1-3.66-3-3.66h0Zm-0.06,7.6a3.79,3.79,0,0,1-3.93-4,3.91,3.91,0,0,1,4.16-4c2.37,0,4.05,1.33,4.05,3.78a4.24,4.24,0,0,1-4.28,4.28h0Zm13.52-1.55v-4.68c0-.42,0-0.77,0-1.11h-1.72c-0.33,0-.42.1-0.44,0.37l0,0.87h-0.34c0-.6,0-1.21-0.08-1.78,0.8,0,1.59,0,2.39,0h1.6c0.8,0,1.59,0,2.39,0-0.06.58-.08,1.18-0.08,1.78h-0.34l0-.87c0-.27-0.11-0.37-0.44-0.37h-1.72a11,11,0,0,0,0,1.11v4.68a2,2,0,0,0,.1.83,0.51,0.51,0,0,0,.46.17l0.53,0v0.34c-0.58,0-1.1,0-1.6,0s-1.06,0-1.64,0v-0.34l0.53,0a0.51,0.51,0,0,0,.46-0.17,2,2,0,0,0,.1-0.83h0Zm6.94,0v-5a2,2,0,0,0-.1-0.83,0.51,0.51,0,0,0-.46-0.17l-0.53,0v-0.34c0.61,0,1.24,0,1.87,0,1,0,2,0,2.61,0s1,0,1.43,0a7.41,7.41,0,0,0-.18,1.68h-0.39v-0.72a0.29,0.29,0,0,0-.1-0.3,6.88,6.88,0,0,0-2.17-.23,3.82,3.82,0,0,0-.93.09v3c0.35,0,.75,0,1.28,0a3.07,3.07,0,0,0,1.17-.12,0.42,0.42,0,0,0,.09-0.29l0.06-.58H321c0,0.45,0,.87,0,1.28s0,0.83,0,1.23h-0.34l-0.06-.65a0.36,0.36,0,0,0-.09-0.28,2.75,2.75,0,0,0-1.17-.13c-0.53,0-.94,0-1.28,0v3.1a3.83,3.83,0,0,0,.93.09,10.2,10.2,0,0,0,2.24-.14,2.05,2.05,0,0,0,.39-1.24H322a9.51,9.51,0,0,0-.18,1.81c-0.49,0-1.37,0-2.18,0l-2.41,0c-0.42,0-.79,0-1.18,0v-0.34l0.4,0a0.54,0.54,0,0,0,.46-0.17,2,2,0,0,0,.1-0.83h0Zm13.94-5v5a2,2,0,0,0,.1.83,0.51,0.51,0,0,0,.46.17l0.53,0v0.34c-0.58,0-1.1,0-1.6,0s-1.06,0-1.64,0v-0.34l0.53,0a0.51,0.51,0,0,0,.46-0.17,2,2,0,0,0,.1-0.83v-5a2,2,0,0,0-.1-0.83,0.51,0.51,0,0,0-.46-0.17l-0.53,0v-0.34c0.58,0,1.1,0,1.64,0s1,0,1.6,0v0.34l-0.53,0a0.51,0.51,0,0,0-.46.17,2,2,0,0,0-.1.83h0Zm5.41,2.7v2.27a2,2,0,0,0,.1.83,0.51,0.51,0,0,0,.46.17l0.53,0v0.34c-0.58,0-1.1,0-1.6,0s-1.06,0-1.64,0v-0.34l0.53,0a0.51,0.51,0,0,0,.46-0.17,2,2,0,0,0,.1-0.83v-5a2,2,0,0,0-.1-0.83,0.51,0.51,0,0,0-.46-0.17l-0.53,0v-0.34c0.58,0,1.1,0,1.64,0s1,0,1.6,0v0.34l-0.53,0a0.51,0.51,0,0,0-.46.17,2,2,0,0,0-.1.83V390l3.08-3a1.14,1.14,0,0,0,.32-0.43v-0.3c0.35,0,.66,0,1,0s0.62,0,.89,0v0.34l-0.46,0a1.41,1.41,0,0,0-.86.42l-2.94,2.65L341,393.1a1.47,1.47,0,0,0,.69.45l0.23,0v0.34c-0.21,0-.48,0-0.73,0l-0.87,0-3.85-3.71-0.11.08h0Zm10,0.62h2.8l-1.39-3.3-1.41,3.3h0Zm1.86-4.77,2.68,6.28c0.1,0.22.22,0.52,0.35,0.75a0.61,0.61,0,0,0,.44.38l0.38,0v0.34c-0.49,0-1,0-1.47,0l-1.47,0v-0.34l0.52,0a0.42,0.42,0,0,0,.45-0.22,2.57,2.57,0,0,0-.23-0.71l-0.51-1.27h-3.19l-0.31.74a6.37,6.37,0,0,0-.39,1.15c0,0.23.19,0.28,0.53,0.31l0.41,0v0.34l-1.27,0c-0.43,0-.85,0-1.27,0v-0.34l0.41,0a0.79,0.79,0,0,0,.6-0.54l2-4.48c0.34-.77.72-1.59,1-2.39h0.35Zm11.86,4.77h2.8l-1.39-3.3-1.41,3.3h0Zm1.86-4.77,2.68,6.28c0.1,0.22.22,0.52,0.35,0.75a0.61,0.61,0,0,0,.44.38l0.38,0v0.34c-0.49,0-1,0-1.47,0l-1.47,0v-0.34l0.52,0a0.42,0.42,0,0,0,.45-0.22,2.57,2.57,0,0,0-.23-0.71l-0.51-1.27h-3.19l-0.31.74a6.38,6.38,0,0,0-.39,1.15c0,0.23.19,0.28,0.53,0.31l0.41,0v0.34l-1.27,0c-0.43,0-.85,0-1.27,0v-0.34l0.41,0a0.79,0.79,0,0,0,.6-0.54l2-4.48c0.34-.77.72-1.59,1-2.39h0.35Zm18.76,1.45v5a2,2,0,0,0,.1.83,0.51,0.51,0,0,0,.46.17l0.53,0v0.34c-0.58,0-1.1,0-1.6,0s-1.06,0-1.48,0v-0.34l0.38,0a0.54,0.54,0,0,0,.47-0.17,2,2,0,0,0,.1-0.83v-5a9,9,0,0,0-.49.91l-2,4.18c-0.21.45-.4,0.94-0.6,1.4h-0.22l-3.07-6.49,0,5a2,2,0,0,0,.1.83,0.54,0.54,0,0,0,.46.17l0.49,0v0.34c-0.49,0-.89,0-1.33,0s-0.84,0-1.28,0v-0.34l0.49,0a0.54,0.54,0,0,0,.46-0.17,2,2,0,0,0,.1-0.83v-5a2,2,0,0,0-.1-0.83,0.54,0.54,0,0,0-.46-0.17l-0.49,0v-0.34c0.34,0,.7,0,1.05,0s0.71,0,1.05,0l2.92,6.15,2.9-6.15c0.35,0,.7,0,1.05,0s0.71,0,1,0v0.34l-0.46,0a0.54,0.54,0,0,0-.46.17,2,2,0,0,0-.1.83h0Zm5.65,3.32h2.8l-1.39-3.3-1.41,3.3h0Zm1.86-4.77,2.68,6.28c0.1,0.22.22,0.52,0.35,0.75a0.61,0.61,0,0,0,.44.38l0.38,0v0.34c-0.49,0-1,0-1.47,0l-1.47,0v-0.34l0.52,0a0.42,0.42,0,0,0,.45-0.22,2.58,2.58,0,0,0-.23-0.71l-0.51-1.27h-3.19l-0.31.74a6.37,6.37,0,0,0-.39,1.15c0,0.23.19,0.28,0.53,0.31l0.41,0v0.34l-1.27,0c-0.43,0-.85,0-1.27,0v-0.34l0.41,0a0.79,0.79,0,0,0,.6-0.54l2-4.48c0.34-.77.72-1.59,1-2.39h0.35Zm7,5.38v-3.93a2,2,0,0,0-.1-0.83,0.51,0.51,0,0,0-.46-0.17l-0.53,0v-0.34c0.58,0,1.1,0,1.64,0s1,0,1.6,0v0.34l-0.53,0a0.51,0.51,0,0,0-.46.17,2,2,0,0,0-.1.83v3.8c0,1.57.82,2,2.28,2a2,2,0,0,0,2.28-2.29v-3.54a2,2,0,0,0-.1-0.83,0.54,0.54,0,0,0-.46-0.17l-0.49,0v-0.34c0.44,0,.89,0,1.28,0s0.84,0,1.33,0v0.34l-0.49,0a0.54,0.54,0,0,0-.46.17,2,2,0,0,0-.1.83v3.2c0,2.37-.9,3.32-3.13,3.32-1.88,0-3-.56-3-2.59h0Z" transform="translate(-198 -319)"/></svg>
