<svg xmlns="http://www.w3.org/2000/svg" viewBox="0 0 376.14 88.74"><defs><style>.a{fill:transparent;}.b{fill:#004730;}</style></defs><title>logo_vic-mq</title><polygon class="a" points="0 0.01 376.12 0.01 376.12 88.74 0 88.74 0 0.01 0 0.01"/><path class="b" d="M593.76,314.38c2.5,0,4,1.36,4,3.91s-1.69,4-4.25,4-4-1.37-4-3.91,1.69-4,4.25-4h0Zm0,0.63c-2.08,0-2.57,1.55-2.57,3.23,0,1.85.77,3.48,2.35,3.48,2.08,0,2.57-1.54,2.57-3.22,0-1.85-.77-3.49-2.35-3.49h0ZM303.41,329.94v6.33h20.14v-6.33l-2.88,3.16h-4l-3.16-3.16-3.16,3.16h-4l-2.88-3.16h0ZM290,284.77v6.33h20.14v-6.33l-2.88,3.17h-4l-3.16-3.17-3.16,3.17h-4L290,284.77h0Zm26.75,0v6.33h20.14v-6.33l-2.88,3.17h-4l-3.16-3.17-3.16,3.17h-4l-2.88-3.17h0Zm-3.31,11.43c-3.22,0-4.7,2.31-7.92,2.31s-4.7-2.38-7.92-2.31c-3,.06-4.33,2.26-7.33,2.31s-5.13-2.12-7.34-2v19.91c0.11,4.17,3.33,10.15,7.32,10.15,3,0,4.35-2.23,7.35-2.29,3.22-.07,4.7,2.31,7.92,2.31s4.7-2.31,7.92-2.31,4.7,2.31,7.92,2.31,4.7-2.37,7.92-2.31c3,0.06,4.33,2.24,7.33,2.29,4,0,7.23-6,7.34-10.15V296.48c-2.21-.11-4.37,2.07-7.34,2s-4.33-2.24-7.33-2.31c-3.22-.07-4.7,2.31-7.92,2.31s-4.7-2.31-7.92-2.31h0Zm0,51.3c-1.3,0-32.94-13.71-32.94-31.11v-38h65.89v38c0,17.4-31.66,31.11-33,31.11h0Zm-4.71-29.36-1.38-2.39,1.38-2.39H306L304.63,311l-1.38,2.39h-2.76l1.38,2.39-1.38,2.39h2.76l1.38,2.39,1.38-2.39h2.76Zm17.71-8.72L325.1,307l1.38-2.39h-2.76l-1.38-2.39L321,304.63H318.2l1.38,2.39-1.38,2.39H321l1.38,2.39,1.38-2.39h2.76Zm-12.67,0L312.43,307l1.38-2.39H311l-1.38-2.39-1.38,2.39h-2.76l1.38,2.39-1.38,2.39h2.76l1.38,2.39,1.38-2.39h2.76Zm7.63,8.72-1.38-2.39,1.38-2.39h-2.76L317.3,311l-1.38,2.39h-2.76l1.38,2.39-1.38,2.39h2.76l1.38,2.39,1.38-2.39h2.76Zm-24.21-17.54h32.52v21.58H297.23V300.59h0ZM273,296.85c-1.86,0-4.21-2.41-4-3.91,1.09-8.17,5.3-5.54,8.4-7.93,0.88,1.15,2.18,11.83-4.38,11.83h0Zm98.41,7.42A9.34,9.34,0,0,1,368,310c1.75-.05,4.57.18,5.18-2a3.22,3.22,0,0,0-1.73-3.74h0Zm-4.89-1.15c-6.18-.27-8.58,3.42-6.51,4.83,3.93,2.67,6.48-4.92,6.51-4.83h0Zm0.29-8.92a7.59,7.59,0,0,1-3.76,2,53.85,53.85,0,0,1,6.35,0,10.73,10.73,0,0,1-2.59-2h0Zm-12-7.37a4.85,4.85,0,1,0,4.85-4.85,4.85,4.85,0,0,0-4.85,4.85h0Zm19.41,3.95a2.72,2.72,0,0,1,3.21-.7c1.43,0.49,2.33,1.7,2.06,2.73,7.12-.14,8.82-1.79,8.87-1.73-2.07,3.81-8.13,6.56-10.42,6.78,3.24,1.11,9.59,4.8,9.55,11.93,0,10.42-10.11,11.87-15.79,10.37a4.17,4.17,0,0,1,2.81,2H349v-21a11.93,11.93,0,0,1,4.15-2.8,1.81,1.81,0,0,0,1-1.78,9.58,9.58,0,0,1-5.18-3.16V281.31S352.1,277,359.38,277a11.46,11.46,0,0,1,8.92,4.89s2.42-2,7.19-2c10.76,0,13.24,10.36,13.24,10.36a17.61,17.61,0,0,0-8.9-3.74,2.29,2.29,0,0,1-2.34,1.66,2.37,2.37,0,0,1-2.26-1.37l-0.88.57a2.47,2.47,0,0,1,.16,1.09,2.54,2.54,0,0,1-1,1.8l0.81,0.54h0Zm-16.73-3.95a2.17,2.17,0,1,1,2.17,2.17,2.17,2.17,0,0,1-2.17-2.17h0Zm-79.63,8.86v26.47H238.23a23.44,23.44,0,0,1,2.59-4.89c-1-.81-1.81-1.55-1.73-1.44-0.09-.11,5.31-7.12,9.21-7.2a8,8,0,0,1-1.44-1.44c1.39-1.55,3.87-1.66,12.08-2.3s9.35-2.87,9.5-9.51c2,2.45,5.48,5.41,9.49.3h0ZM257.8,282.18c-2.63-1.81-4-2.5-4.89-2.31s-2.61,3-2.59,2.88a32.81,32.81,0,0,1,7.48-.58h0ZM248,293.11c-1.88-1.58-4.28-4.74-4.61-6.91a3,3,0,0,1,.87-2.59,5.14,5.14,0,0,1-.29-2.3c1.14-3.41,17.38-3.56,20.72-3.45,7.59,0.34,9.21,0,12.95-1.44-0.1-.13-1.25,5.57-8.34,5.47,0,0.58,0,.79,0,0.86,2.8,0.05,6.13-.58,8.06-2.88-0.06,1.93.67,4.3-3.16,5.18-3.69.85-6,.73-7.19,11.22-0.24,3,0,5.55-4.89,6.62-4.71,1-17.17,1.35-19.41,3.1l-0.45-.79A7.86,7.86,0,0,0,246,298a3.87,3.87,0,0,1,1.73-.57c0,1-1.26,3.17,4.6,3.17,0.11,0,5.51.64,3.17-6.33-0.73-2.18-1.38-4.66-4-4.61,0-.05-3.41.16-1.73,3.53,2.39,0.5,5.11,1.09,5.48,2.8s-1,2.73-2,2.3-3.77-2-5.75-2c-3.66,0-10.2,4.15-14.39-3.71,1.21,1.3,2.36,2.16,6.33,2.27s4.71-1.62,8.63-1.73h0ZM587.1,259.3h4.18v0.84H587.1V259.3h0Zm-250.06,0h4.18v0.84H337v-0.84h0Zm271,3.5v5a2,2,0,0,0,.1.84,0.52,0.52,0,0,0,.47.17l0.54,0v0.34c-0.58,0-1.11,0-1.62,0s-1.07,0-1.65,0v-0.34l0.54,0a0.52,0.52,0,0,0,.47-0.17,2,2,0,0,0,.1-0.84v-5a2,2,0,0,0-.1-0.84,0.52,0.52,0,0,0-.47-0.17l-0.54,0v-0.34c0.58,0,1.11,0,1.65,0s1,0,1.62,0v0.34l-0.54,0a0.52,0.52,0,0,0-.47.17,2,2,0,0,0-.1.84h0Zm-361.3,5v-4.73a11.14,11.14,0,0,0,0-1.12H245c-0.34,0-.42.1-0.45,0.37l0,0.88h-0.35c0-.6,0-1.22-0.08-1.8,0.8,0,1.61,0,2.41,0h1.62c0.8,0,1.61,0,2.41,0-0.06.58-.08,1.2-0.08,1.8h-0.35l0-.88c0-.27-0.11-0.37-0.45-0.37h-1.73c0,0.34,0,.69,0,1.12v4.73a2,2,0,0,0,.1.84,0.52,0.52,0,0,0,.47.17l0.54,0v0.34c-0.58,0-1.11,0-1.62,0s-1.07,0-1.65,0v-0.34l0.54,0a0.52,0.52,0,0,0,.47-0.17,2,2,0,0,0,.1-0.84h0Zm7,0v-5a2,2,0,0,0-.1-0.84,0.52,0.52,0,0,0-.47-0.17l-0.54,0v-0.34c0.61,0,1.25,0,1.89,0,1,0,2,0,2.63,0s1,0,1.45,0a7.47,7.47,0,0,0-.18,1.7h-0.39v-0.73a0.3,0.3,0,0,0-.1-0.3,6.94,6.94,0,0,0-2.19-.23,3.84,3.84,0,0,0-.94.09v3c0.36,0,.76,0,1.29,0a3.1,3.1,0,0,0,1.18-.12,0.42,0.42,0,0,0,.09-0.29l0.06-.58h0.34c0,0.46,0,.88,0,1.3s0,0.84,0,1.24h-0.34l-0.06-.66a0.37,0.37,0,0,0-.09-0.28,2.78,2.78,0,0,0-1.18-.13c-0.54,0-.95,0-1.29,0v3.13a3.86,3.86,0,0,0,.94.09,10.27,10.27,0,0,0,2.26-.15,2.07,2.07,0,0,0,.39-1.25h0.39a9.61,9.61,0,0,0-.18,1.83c-0.49,0-1.38,0-2.21,0l-2.43,0c-0.42,0-.79,0-1.2,0v-0.34l0.4,0a0.55,0.55,0,0,0,.47-0.17,2,2,0,0,0,.1-0.84h0ZM272.3,267l-1.4-3.79L269,268.13c-0.15.38-.29,0.76-0.4,1.15H268c-0.08-.41-0.17-0.76-0.26-1.15l-1.33-5.75a0.57,0.57,0,0,0-.56-0.56l-0.31,0v-0.34c0.47,0,.93,0,1.41,0s0.94,0,1.41,0v0.34l-0.47,0c-0.29,0-.51.08-0.37,0.74l1.11,5L270,264c0.35-.88.7-1.78,1-2.69h0.36a14.2,14.2,0,0,0,.46,1.41l1.73,4.85,1.49-5.43c0.07-.27-0.09-0.34-0.51-0.37l-0.45,0v-0.34c0.39,0,.77,0,1.17,0s0.78,0,1.17,0v0.34l-0.36,0a0.43,0.43,0,0,0-.42.32l-1.71,6c-0.09.32-.21,0.67-0.3,1.13h-0.56c-0.25-.88-0.51-1.53-0.79-2.3h0Zm14-4.16v5a2,2,0,0,0,.1.84,0.52,0.52,0,0,0,.47.17l0.54,0v0.34c-0.58,0-1.11,0-1.62,0s-1.07,0-1.65,0v-0.34l0.54,0a0.52,0.52,0,0,0,.47-0.17,2,2,0,0,0,.1-0.84v-2.49c-0.13,0-.44,0-0.93,0h-2.62c-0.49,0-.79,0-0.93,0v2.49a2,2,0,0,0,.1.84,0.52,0.52,0,0,0,.47.17l0.54,0v0.34c-0.58,0-1.11,0-1.62,0s-1.07,0-1.65,0v-0.34l0.54,0a0.52,0.52,0,0,0,.47-0.17,2,2,0,0,0,.1-0.84v-5a2,2,0,0,0-.1-0.84,0.52,0.52,0,0,0-.47-0.17l-0.54,0v-0.34c0.58,0,1.11,0,1.65,0s1,0,1.62,0v0.34l-0.54,0a0.52,0.52,0,0,0-.47.17,2,2,0,0,0-.1.84v2c0.13,0,.44,0,0.93,0h2.62c0.49,0,.79,0,0.93,0v-2a2,2,0,0,0-.1-0.84,0.52,0.52,0,0,0-.47-0.17l-0.54,0v-0.34c0.58,0,1.11,0,1.65,0s1,0,1.62,0v0.34l-0.54,0a0.52,0.52,0,0,0-.47.17,2,2,0,0,0-.1.84h0Zm5.73,3.35h2.83l-1.41-3.33L292,266.17h0Zm1.88-4.82,2.71,6.35c0.1,0.22.22,0.52,0.36,0.76a0.62,0.62,0,0,0,.45.38l0.38,0v0.34c-0.49,0-1,0-1.49,0l-1.49,0v-0.34l0.53,0a0.43,0.43,0,0,0,.46-0.22,2.6,2.6,0,0,0-.23-0.71L295,266.62h-3.22l-0.31.75a6.44,6.44,0,0,0-.39,1.16c0,0.23.19,0.28,0.54,0.31l0.41,0v0.34l-1.29,0c-0.44,0-.86,0-1.29,0v-0.34l0.41,0a0.8,0.8,0,0,0,.6-0.55l2-4.52c0.35-.78.73-1.61,1-2.41h0.36Zm8.25,0.65v5.83a2,2,0,0,0,.1.84,0.52,0.52,0,0,0,.47.17l0.54,0v0.34c-0.58,0-1.11,0-1.62,0s-1.07,0-1.65,0v-0.34l0.54,0a0.52,0.52,0,0,0,.47-0.17,2,2,0,0,0,.1-0.84v-5A2,2,0,0,0,301,262a0.55,0.55,0,0,0-.47-0.17l-0.46,0v-0.34c0.59,0,1.24,0,1.9,0s1.31,0,2,0c1.79,0,2.26.87,2.26,1.68a2.4,2.4,0,0,1-2.18,2.16l2.54,3.3a0.86,0.86,0,0,0,.68.29v0.34c-0.29,0-.55,0-0.81,0s-0.5,0-.76,0c-0.14-.22-0.31-0.41-0.46-0.61l-2.06-2.76c-0.18-.25-0.39-0.46-0.58-0.69a7.7,7.7,0,0,1,1.05-.18,1.65,1.65,0,0,0,1.45-1.56,1.51,1.51,0,0,0-1.77-1.54,4.34,4.34,0,0,0-1.14.13h0Zm8.1,5.83v-5a2,2,0,0,0-.1-0.84,0.52,0.52,0,0,0-.47-0.17l-0.54,0v-0.34c0.61,0,1.25,0,1.89,0,1,0,2,0,2.63,0s1,0,1.45,0a7.5,7.5,0,0,0-.18,1.7h-0.39v-0.73a0.29,0.29,0,0,0-.1-0.3,6.94,6.94,0,0,0-2.19-.23,3.83,3.83,0,0,0-.94.09v3c0.36,0,.76,0,1.29,0a3.1,3.1,0,0,0,1.18-.12,0.42,0.42,0,0,0,.09-0.29l0.06-.58h0.34c0,0.46,0,.88,0,1.3s0,0.84,0,1.24h-0.34l-0.06-.66a0.37,0.37,0,0,0-.09-0.28,2.78,2.78,0,0,0-1.18-.13c-0.54,0-.95,0-1.29,0v3.13a3.86,3.86,0,0,0,.94.09,10.26,10.26,0,0,0,2.26-.15,2.07,2.07,0,0,0,.39-1.25h0.39a9.61,9.61,0,0,0-.18,1.83c-0.49,0-1.38,0-2.21,0l-2.43,0c-0.42,0-.79,0-1.2,0v-0.34l0.4,0a0.55,0.55,0,0,0,.47-0.17,2,2,0,0,0,.1-0.84h0Zm18.52-.86-1.4-3.79-1.95,4.94c-0.15.38-.29,0.76-0.4,1.15h-0.56c-0.08-.41-0.17-0.76-0.26-1.15l-1.33-5.75a0.56,0.56,0,0,0-.56-0.56l-0.31,0v-0.34c0.47,0,.93,0,1.41,0s0.94,0,1.41,0v0.34l-0.47,0c-0.29,0-.51.08-0.37,0.74l1.11,5,1.4-3.49c0.35-.88.7-1.78,1-2.69h0.36a14.2,14.2,0,0,0,.46,1.41l1.73,4.85,1.49-5.43c0.07-.27-0.09-0.34-0.51-0.37l-0.45,0v-0.34c0.39,0,.77,0,1.17,0s0.78,0,1.17,0v0.34l-0.36,0a0.43,0.43,0,0,0-.42.32l-1.71,6c-0.09.32-.21,0.67-0.3,1.13h-0.56c-0.25-.88-0.51-1.53-0.79-2.3h0Zm8.71-.81h2.83l-1.41-3.33-1.42,3.33h0Zm1.88-4.82L342,267.7c0.1,0.22.22,0.52,0.36,0.76a0.62,0.62,0,0,0,.45.38l0.38,0v0.34c-0.49,0-1,0-1.49,0l-1.49,0v-0.34l0.53,0a0.43,0.43,0,0,0,.46-0.22,2.6,2.6,0,0,0-.23-0.71l-0.51-1.28h-3.22l-0.31.75a6.44,6.44,0,0,0-.39,1.16c0,0.23.19,0.28,0.54,0.31l0.41,0v0.34l-1.29,0c-0.44,0-.86,0-1.29,0v-0.34l0.41,0a0.8,0.8,0,0,0,.6-0.55l2-4.52c0.35-.78.73-1.61,1-2.41h0.36Zm7.08,6.48v-5a2,2,0,0,0-.1-0.84,0.55,0.55,0,0,0-.47-0.17l-0.49,0v-0.34l1.34,0c0.2,0,.4,0,0.6,0l5.34,6.6,0-5.22a2,2,0,0,0-.1-0.84,0.55,0.55,0,0,0-.47-0.17l-0.49,0v-0.34c0.45,0,.89,0,1.3,0s0.85,0,1.34,0v0.34l-0.49,0a0.55,0.55,0,0,0-.47.17,2,2,0,0,0-.1.84V269c0,0.13,0,.28,0,0.41l-1-.18-5.26-6.54,0,5.15a2,2,0,0,0,.1.84,0.55,0.55,0,0,0,.47.17l0.49,0v0.34c-0.49,0-.89,0-1.34,0s-0.85,0-1.3,0v-0.34l0.49,0a0.55,0.55,0,0,0,.47-0.17,2,2,0,0,0,.1-0.84h0Zm12.42-1.66h2.83l-1.41-3.33-1.42,3.33h0Zm1.88-4.82,2.71,6.35c0.1,0.22.22,0.52,0.36,0.76a0.62,0.62,0,0,0,.45.38l0.38,0v0.34c-0.49,0-1,0-1.49,0l-1.49,0v-0.34l0.52,0a0.43,0.43,0,0,0,.46-0.22,2.6,2.6,0,0,0-.23-0.71l-0.51-1.28h-3.22l-0.31.75a6.44,6.44,0,0,0-.39,1.16c0,0.23.19,0.28,0.54,0.31l0.41,0v0.34l-1.29,0c-0.44,0-.86,0-1.29,0v-0.34l0.41,0a0.8,0.8,0,0,0,.6-0.55l2-4.52c0.35-.78.73-1.61,1-2.41h0.36Zm7.08,6.48v-5a2,2,0,0,0-.1-0.84,0.55,0.55,0,0,0-.47-0.17l-0.49,0v-0.34l1.34,0c0.2,0,.4,0,0.6,0L374,268l0-5.22a2,2,0,0,0-.1-0.84,0.55,0.55,0,0,0-.47-0.17l-0.49,0v-0.34c0.45,0,.89,0,1.3,0s0.85,0,1.34,0v0.34l-0.49,0a0.55,0.55,0,0,0-.47.17,2,2,0,0,0-.1.84V269c0,0.13,0,.28,0,0.41l-1-.18-5.27-6.54,0,5.15a2,2,0,0,0,.1.84,0.55,0.55,0,0,0,.47.17l0.49,0v0.34c-0.49,0-.89,0-1.34,0s-0.85,0-1.3,0v-0.34l0.49,0a0.55,0.55,0,0,0,.47-0.17,2,2,0,0,0,.1-0.84h0Zm16.4,0.25V267a0.34,0.34,0,0,0-.38-0.39l-0.93-.08v-0.34l1.36,0,1.38,0,0,0.28-0.32.11c-0.12,0-.12.09-0.12,0.41v1.87a12.56,12.56,0,0,1-2.94.57c-2.49,0-4.5-1.29-4.5-4.1,0-2.46,2-4,4.72-4a8.81,8.81,0,0,1,2.77.46,7,7,0,0,0-.22,1.7h-0.35v-0.59a1,1,0,0,0-.93-0.89,4.81,4.81,0,0,0-1.56-.2,3.06,3.06,0,0,0-3.23,3.39c0,2.23,1.3,3.82,3.6,3.82a2.08,2.08,0,0,0,1.56-.39,1.06,1.06,0,0,0,.06-0.46h0Zm6.25-1.91h2.83l-1.41-3.33-1.42,3.33h0Zm1.88-4.82L395,267.7c0.1,0.22.22,0.52,0.36,0.76a0.62,0.62,0,0,0,.45.38l0.38,0v0.34c-0.49,0-1,0-1.49,0l-1.49,0v-0.34l0.53,0a0.43,0.43,0,0,0,.46-0.22,2.61,2.61,0,0,0-.23-0.71l-0.51-1.28h-3.22l-0.31.75a6.44,6.44,0,0,0-.39,1.16c0,0.23.19,0.28,0.54,0.31l0.41,0v0.34l-1.29,0c-0.44,0-.86,0-1.29,0v-0.34l0.41,0a0.8,0.8,0,0,0,.6-0.55l2-4.52c0.35-.78.73-1.61,1-2.41h0.36Zm14,0.37c-1.94,0-2.83,1.36-2.83,3.2s0.92,4,3.13,4c1.87,0,2.77-1.45,2.77-3.51,0-2.21-1-3.7-3.07-3.7h0Zm-0.06,7.68a3.82,3.82,0,0,1-4-4.07,4,4,0,0,1,4.2-4.08c2.39,0,4.09,1.34,4.09,3.82a4.28,4.28,0,0,1-4.33,4.33h0Zm13.65-1.57v-4.73c0-.42,0-0.78,0-1.12h-1.73c-0.33,0-.42.1-0.45,0.37l0,0.88h-0.35c0-.6,0-1.22-0.08-1.8,0.8,0,1.61,0,2.41,0h1.62c0.81,0,1.61,0,2.41,0-0.06.58-.08,1.2-0.08,1.8h-0.35l0-.88c0-.27-0.11-0.37-0.45-0.37H421c0,0.34,0,.69,0,1.12v4.73a2,2,0,0,0,.1.84,0.52,0.52,0,0,0,.47.17l0.54,0v0.34c-0.58,0-1.11,0-1.62,0s-1.07,0-1.65,0v-0.34l0.54,0a0.52,0.52,0,0,0,.47-0.17,2,2,0,0,0,.1-0.84h0Zm7,0v-5a2,2,0,0,0-.1-0.84,0.52,0.52,0,0,0-.47-0.17l-0.54,0v-0.34c0.62,0,1.25,0,1.89,0,1,0,2,0,2.63,0s1,0,1.45,0a7.47,7.47,0,0,0-.18,1.7h-0.39v-0.73a0.29,0.29,0,0,0-.1-0.3,6.94,6.94,0,0,0-2.19-.23,3.83,3.83,0,0,0-.94.09v3c0.36,0,.76,0,1.29,0a3.1,3.1,0,0,0,1.18-.12,0.42,0.42,0,0,0,.09-0.29l0.06-.58h0.34c0,0.46,0,.88,0,1.3s0,0.84,0,1.24h-0.34l-0.06-.66a0.37,0.37,0,0,0-.09-0.28,2.79,2.79,0,0,0-1.18-.13c-0.54,0-.95,0-1.29,0v3.13a3.85,3.85,0,0,0,.94.09,10.27,10.27,0,0,0,2.26-.15,2.07,2.07,0,0,0,.39-1.25h0.39a9.57,9.57,0,0,0-.18,1.83c-0.49,0-1.38,0-2.21,0l-2.43,0c-0.42,0-.79,0-1.2,0v-0.34l0.4,0a0.55,0.55,0,0,0,.47-0.17,2,2,0,0,0,.1-0.84h0Zm12.91-1v-4a2,2,0,0,0-.1-0.84,0.52,0.52,0,0,0-.47-0.17l-0.54,0v-0.34c0.58,0,1.11,0,1.65,0s1,0,1.62,0v0.34l-0.54,0a0.52,0.52,0,0,0-.47.17,2,2,0,0,0-.1.84v3.84c0,1.59.83,2,2.3,2a2,2,0,0,0,2.3-2.31v-3.57a2,2,0,0,0-.1-0.84,0.55,0.55,0,0,0-.47-0.17l-0.49,0v-0.34c0.45,0,.89,0,1.3,0s0.85,0,1.34,0v0.34l-0.49,0a0.55,0.55,0,0,0-.47.17,2,2,0,0,0-.1.84v3.23c0,2.39-.91,3.35-3.16,3.35-1.9,0-3-.57-3-2.61h0ZM451.36,262v5.83a2,2,0,0,0,.1.84,0.52,0.52,0,0,0,.47.17l0.54,0v0.34c-0.58,0-1.11,0-1.62,0s-1.07,0-1.65,0v-0.34l0.54,0a0.52,0.52,0,0,0,.47-0.17,2,2,0,0,0,.1-0.84v-5a1.87,1.87,0,0,0-.11-0.81,0.57,0.57,0,0,0-.48-0.19l-0.5,0v-0.34c0.74,0,1.37,0,2,0s1.3,0,1.9,0c1.08,0,2.31.45,2.31,1.71a2.51,2.51,0,0,1-2.68,2.4,3.4,3.4,0,0,1-.67-0.07l-0.11-.4a2.4,2.4,0,0,0,.74.11,1.61,1.61,0,0,0,1.61-1.67,1.56,1.56,0,0,0-1.81-1.67,4.33,4.33,0,0,0-1.14.13h0Zm10.3-.28c-1.95,0-2.83,1.36-2.83,3.2s0.92,4,3.13,4c1.87,0,2.77-1.45,2.77-3.51,0-2.21-1-3.7-3.07-3.7h0Zm-0.06,7.68a3.82,3.82,0,0,1-4-4.07,4,4,0,0,1,4.2-4.08c2.39,0,4.09,1.34,4.09,3.82a4.28,4.28,0,0,1-4.33,4.33h0Zm8.68-3.86v2.29a2,2,0,0,0,.1.84,0.52,0.52,0,0,0,.47.17l0.54,0v0.34c-0.58,0-1.11,0-1.62,0s-1.07,0-1.65,0v-0.34l0.54,0a0.52,0.52,0,0,0,.47-0.17,2,2,0,0,0,.1-0.84v-5a2,2,0,0,0-.1-0.84,0.52,0.52,0,0,0-.47-0.17l-0.54,0v-0.34c0.58,0,1.11,0,1.65,0s1,0,1.62,0v0.34l-0.54,0a0.51,0.51,0,0,0-.47.17,2,2,0,0,0-.1.84v2.39l3.11-3a1.17,1.17,0,0,0,.32-0.44v-0.31c0.36,0,.67,0,1,0s0.63,0,.89,0v0.34l-0.47,0a1.42,1.42,0,0,0-.87.42l-3,2.68,3.69,3.48a1.49,1.49,0,0,0,.69.46l0.23,0v0.34c-0.21,0-.48,0-0.74,0l-0.88,0-3.89-3.74-0.11.08h0ZM482,261.72c-1.95,0-2.83,1.36-2.83,3.2s0.92,4,3.13,4c1.87,0,2.77-1.45,2.77-3.51,0-2.21-1-3.7-3.07-3.7h0Zm-0.06,7.68a3.82,3.82,0,0,1-4-4.07,4,4,0,0,1,4.2-4.08c2.39,0,4.09,1.34,4.09,3.82a4.28,4.28,0,0,1-4.33,4.33h0Zm15-7.68c-1.95,0-2.83,1.36-2.83,3.2s0.92,4,3.13,4c1.87,0,2.77-1.45,2.77-3.51,0-2.21-1-3.7-3.07-3.7h0Zm-0.06,7.68a3.82,3.82,0,0,1-4-4.07,4,4,0,0,1,4.2-4.08c2.39,0,4.09,1.34,4.09,3.82a4.28,4.28,0,0,1-4.33,4.33h0Zm13.66-1.57v-4.73c0-.42,0-0.78,0-1.12h-1.73c-0.34,0-.42.1-0.45,0.37l0,0.88h-0.35c0-.6,0-1.22-0.08-1.8,0.8,0,1.61,0,2.41,0h1.62c0.8,0,1.61,0,2.41,0-0.06.58-.08,1.2-0.08,1.8h-0.35l0-.88c0-.27-0.11-0.37-0.45-0.37h-1.73a11,11,0,0,0,0,1.12v4.73a2,2,0,0,0,.1.84,0.52,0.52,0,0,0,.47.17l0.54,0v0.34c-0.58,0-1.11,0-1.62,0s-1.07,0-1.66,0v-0.34l0.54,0a0.52,0.52,0,0,0,.47-0.17,2,2,0,0,0,.1-0.84h0Zm7,0v-5a2,2,0,0,0-.1-0.84,0.52,0.52,0,0,0-.47-0.17l-0.54,0v-0.34c0.62,0,1.25,0,1.89,0,1,0,2,0,2.63,0s1,0,1.45,0a7.48,7.48,0,0,0-.18,1.7h-0.39v-0.73a0.29,0.29,0,0,0-.1-0.3,6.94,6.94,0,0,0-2.19-.23,3.84,3.84,0,0,0-.94.09v3c0.36,0,.76,0,1.29,0a3.1,3.1,0,0,0,1.18-.12,0.43,0.43,0,0,0,.09-0.29l0.06-.58h0.34c0,0.46,0,.88,0,1.3s0,0.84,0,1.24h-0.34l-0.06-.66a0.37,0.37,0,0,0-.09-0.28,2.78,2.78,0,0,0-1.18-.13c-0.54,0-.95,0-1.29,0v3.13a3.86,3.86,0,0,0,.94.09,10.27,10.27,0,0,0,2.26-.15,2.08,2.08,0,0,0,.39-1.25h0.39a9.65,9.65,0,0,0-.18,1.83c-0.49,0-1.38,0-2.2,0l-2.43,0c-0.43,0-.79,0-1.2,0v-0.34l0.4,0a0.55,0.55,0,0,0,.47-0.17,2,2,0,0,0,.1-0.84h0Zm14.08-5v5a2,2,0,0,0,.1.84,0.52,0.52,0,0,0,.47.17l0.54,0v0.34c-0.58,0-1.11,0-1.62,0s-1.07,0-1.65,0v-0.34l0.54,0a0.52,0.52,0,0,0,.47-0.17,2,2,0,0,0,.1-0.84v-5a2,2,0,0,0-.1-0.84,0.51,0.51,0,0,0-.47-0.17l-0.54,0v-0.34c0.58,0,1.11,0,1.65,0s1,0,1.62,0v0.34l-0.54,0a0.51,0.51,0,0,0-.47.17,2,2,0,0,0-.1.84h0Zm5.46,2.72v2.29a2,2,0,0,0,.1.84,0.52,0.52,0,0,0,.47.17l0.54,0v0.34c-0.58,0-1.11,0-1.62,0s-1.07,0-1.65,0v-0.34l0.54,0a0.52,0.52,0,0,0,.47-0.17,2,2,0,0,0,.1-0.84v-5a2,2,0,0,0-.1-0.84,0.52,0.52,0,0,0-.47-0.17l-0.54,0v-0.34c0.58,0,1.11,0,1.65,0s1,0,1.62,0v0.34l-0.54,0a0.52,0.52,0,0,0-.47.17,2,2,0,0,0-.1.84v2.39l3.11-3a1.15,1.15,0,0,0,.32-0.44v-0.31c0.36,0,.67,0,1,0s0.63,0,.89,0v0.34l-0.47,0a1.42,1.42,0,0,0-.87.42l-3,2.68,3.69,3.48a1.49,1.49,0,0,0,.69.46l0.24,0v0.34c-0.21,0-.48,0-0.74,0l-0.88,0-3.89-3.74-0.11.08h0Zm10.08,0.63H550l-1.41-3.33-1.42,3.33h0Zm1.88-4.82,2.71,6.35c0.1,0.22.22,0.52,0.36,0.76a0.62,0.62,0,0,0,.45.38l0.38,0v0.34c-0.49,0-1,0-1.49,0l-1.49,0v-0.34l0.53,0a0.43,0.43,0,0,0,.46-0.22,2.61,2.61,0,0,0-.23-0.71l-0.51-1.28H547l-0.31.75a6.44,6.44,0,0,0-.39,1.16c0,0.23.19,0.28,0.54,0.31l0.41,0v0.34l-1.29,0c-0.44,0-.86,0-1.29,0v-0.34l0.41,0a0.8,0.8,0,0,0,.6-0.55l2-4.52c0.35-.78.73-1.61,1-2.41H549Zm12,4.82h2.83l-1.41-3.33L561,266.17h0Zm1.88-4.82,2.71,6.35c0.1,0.22.22,0.52,0.36,0.76a0.62,0.62,0,0,0,.45.38l0.38,0v0.34c-0.49,0-1,0-1.49,0l-1.49,0v-0.34l0.53,0a0.43,0.43,0,0,0,.46-0.22,2.59,2.59,0,0,0-.24-0.71L564,266.62h-3.22l-0.31.75a6.37,6.37,0,0,0-.39,1.16c0,0.23.19,0.28,0.54,0.31l0.41,0v0.34l-1.29,0c-0.44,0-.86,0-1.29,0v-0.34l0.41,0a0.8,0.8,0,0,0,.6-0.55l2-4.52c0.35-.78.73-1.61,1-2.41h0.36Zm19,1.47v5a2,2,0,0,0,.1.84,0.52,0.52,0,0,0,.47.17l0.54,0v0.34c-0.58,0-1.11,0-1.62,0s-1.07,0-1.5,0v-0.34l0.38,0a0.55,0.55,0,0,0,.47-0.17,2,2,0,0,0,.1-0.84v-5.07a9.08,9.08,0,0,0-.49.92l-2,4.22c-0.21.46-.4,0.95-0.6,1.42h-0.22l-3.1-6.56,0,5.07a2,2,0,0,0,.1.84,0.55,0.55,0,0,0,.47.17l0.49,0v0.34c-0.49,0-.89,0-1.34,0s-0.85,0-1.3,0v-0.34l0.49,0a0.55,0.55,0,0,0,.47-0.17,2,2,0,0,0,.1-0.84v-5a2,2,0,0,0-.1-0.84,0.55,0.55,0,0,0-.47-0.17l-0.49,0v-0.34c0.35,0,.7,0,1.06,0s0.71,0,1.06,0l3,6.21,2.93-6.21c0.36,0,.7,0,1.06,0s0.72,0,1,0v0.34l-0.47,0a0.55,0.55,0,0,0-.47.17,2,2,0,0,0-.1.84h0Zm5.71,3.35h2.83L589,262.84l-1.42,3.33h0Zm1.88-4.82,2.71,6.35c0.1,0.22.22,0.52,0.36,0.76a0.62,0.62,0,0,0,.45.38l0.38,0v0.34c-0.49,0-1,0-1.49,0l-1.49,0v-0.34l0.53,0a0.43,0.43,0,0,0,.46-0.22,2.58,2.58,0,0,0-.24-0.71l-0.51-1.28h-3.22l-0.31.75a6.44,6.44,0,0,0-.39,1.16c0,0.23.19,0.28,0.54,0.31l0.41,0v0.34l-1.29,0c-0.44,0-.86,0-1.29,0v-0.34l0.41,0a0.8,0.8,0,0,0,.6-0.55l2-4.52c0.35-.78.73-1.61,1-2.41h0.36Zm7.07,5.43v-4a2,2,0,0,0-.1-0.84,0.52,0.52,0,0,0-.47-0.17l-0.54,0v-0.34c0.58,0,1.11,0,1.66,0s1,0,1.62,0v0.34l-0.54,0a0.52,0.52,0,0,0-.47.17,2,2,0,0,0-.1.84v3.84c0,1.59.83,2,2.3,2a2,2,0,0,0,2.3-2.31v-3.57a2,2,0,0,0-.1-0.84,0.54,0.54,0,0,0-.47-0.17l-0.49,0v-0.34c0.45,0,.89,0,1.3,0s0.85,0,1.34,0v0.34l-0.49,0a0.55,0.55,0,0,0-.47.17,2,2,0,0,0-.1.84v3.23c0,2.39-.91,3.35-3.16,3.35-1.9,0-3-.57-3-2.61h0ZM440.88,259.3h4.18v0.84h-4.18V259.3h0Zm151.92,25.63-3.94,10h8l-4.1-10h0Zm5,12.22h-9.89l-1.66,4.4c-0.55,1.49.24,2.2,0.95,2.24l2,0.12v1.47c-1.89,0-3.31-.11-4.45-0.11s-2.56.07-4.45,0.11v-1.47l1.18-.12c1-.12,1.74-1.22,2.21-2.36l7.13-17.25,1-2.72,0.63-1.62,0.59-1.62h2.8L606,302.07a2.47,2.47,0,0,0,2.17,1.73l0.95,0.12v1.47c-2.64,0-4.57-.11-6.11-0.11s-3.51.07-6.11,0.11v-1.47l2.09-.12c0.63,0,1.06-.9.55-2.16l-1.77-4.48h0ZM403.89,283.61l6.19,15.24,5.6-13.91a14.86,14.86,0,0,0,1.22-3.86c0-.71-0.67-1-1.46-1.06l-1.81-.12v-1.47c1.93,0,3.43.11,4.57,0.11s2.6-.08,4.53-0.11v1.47l-1.26.12c-0.87.08-1.38,0.71-1.85,1.85l-8.2,19.62c-0.55,1.3-1,2.6-1.5,3.9h-3l-9.42-22.53c-0.47-1.1-1.1-2.72-2.44-2.84l-1.62-.12v-1.47c2.6,0,4.61.11,6.15,0.11s3.51-.08,6.46-0.11v1.47l-2,.12a1,1,0,0,0-1,.75,9.18,9.18,0,0,0,.83,2.84h0Zm31.82,0.27v16.06a9.45,9.45,0,0,0,.28,3.19c0.16,0.31.59,0.47,1.62,0.55l1.46,0.12v1.59c-1.62,0-3.78-.11-6.11-0.11s-4.53.07-6.15,0.11V303.8l1.46-.12c1-.08,1.46-0.24,1.62-0.55a9.43,9.43,0,0,0,.28-3.19V283.88a9.42,9.42,0,0,0-.28-3.19c-0.16-.31-0.59-0.47-1.62-0.55L426.8,280v-1.59c1.62,0,3.78.11,6.15,0.11s4.49-.08,6.11-0.11V280l-1.46.12c-1,.08-1.46.24-1.62,0.55a9.44,9.44,0,0,0-.28,3.19h0Zm32.92,18-0.87,1.93a17.33,17.33,0,0,1-9.07,2.17c-9,0-15.6-5-15.6-14.47,0-9.07,7.37-13.6,15.76-13.6a22.57,22.57,0,0,1,9.67,1.85l0.24,0.43a52.52,52.52,0,0,0-.91,6h-1.55l-0.2-3.39a9.36,9.36,0,0,0-7.09-2.72c-6.54,0-10,4.65-10,10.88,0,7.21,4.17,12.42,11.62,12.42a16.89,16.89,0,0,0,7.54-2l0.47,0.47h0Zm19.06-21v19.06a9.48,9.48,0,0,0,.28,3.19c0.16,0.31.59,0.47,1.61,0.55L491,303.8v1.59c-1.61,0-3.78-.11-6.1-0.11s-4.53.07-6.14,0.11V303.8l1.46-.12c1-.08,1.46-0.24,1.61-0.55a9.44,9.44,0,0,0,.28-3.19V280.87h-4.6c-1.06,0-2.16,0-2.44.35a1.77,1.77,0,0,0-.35.95l-0.2,2.72H473a45.19,45.19,0,0,0-.51-6.26l0.24-.2c4.15,0,8.24.12,12.22,0.12s8.11-.08,12.26-0.12l0.24,0.2a45.18,45.18,0,0,0-.51,6.26h-1.59l-0.2-2.72a1.76,1.76,0,0,0-.35-0.95c-0.28-.35-1.38-0.35-2.44-0.35h-4.6Zm27.57-.79c-7.33,0-9.07,5.48-9.07,11.39,0,6.5,2.72,12.26,8.28,12.26,7.33,0,9.07-5.44,9.07-11.35,0-6.5-2.72-12.3-8.28-12.3h0Zm0-2.21c8.83,0,14.19,4.81,14.19,13.8,0,9.3-6,14.27-15,14.27-8.83,0-14.19-4.81-14.19-13.8,0-9.3,6-14.27,15-14.27h0Zm21.25,22.06V283.88a9.45,9.45,0,0,0-.28-3.19c-0.2-.39-0.59-0.59-1.62-0.67l-1.46-.12v-1.48c2.6,0,4.61.12,6.62,0.12,2.68,0,5.32-.08,8-0.12,4-.08,7.73,1.14,7.73,5.83,0,3.47-2.6,5.79-5.87,7L556.77,302a5.53,5.53,0,0,0,1.14,1.22,4,4,0,0,0,1.62.55v1.59c-1.26,0-2.56-.11-3.82-0.11s-2.37.07-3.55,0.11l-8.83-13.68,0.28-.71c3.63,0.31,6.31-1.93,6.31-5.63,0-3.23-2.25-5-5.32-5a6.43,6.43,0,0,0-2.52.35v19.18a9.48,9.48,0,0,0,.28,3.19c0.16,0.31.59,0.47,1.62,0.55l1.46,0.12v1.59c-1.62,0-3.79-.11-6.11-0.11s-4.53.07-6.15,0.11V303.8l1.46-.12c1-.08,1.46-0.24,1.62-0.55a9.48,9.48,0,0,0,.28-3.19h0Zm36-16.06v16.06a9.45,9.45,0,0,0,.28,3.19c0.16,0.31.59,0.47,1.62,0.55l1.46,0.12v1.59c-1.62,0-3.78-.11-6.11-0.11s-4.53.07-6.15,0.11V303.8l1.46-.12c1-.08,1.46-0.24,1.62-0.55a9.45,9.45,0,0,0,.28-3.19V283.88a9.45,9.45,0,0,0-.28-3.19c-0.16-.31-0.59-0.47-1.62-0.55l-1.46-.12v-1.59c1.62,0,3.78.11,6.15,0.11s4.49-.08,6.11-0.11V280l-1.46.12c-1,.08-1.46.24-1.62,0.55a9.44,9.44,0,0,0-.28,3.19h0Zm28.88,36.75v-4.55a2.66,2.66,0,0,0-.08-0.9,0.47,0.47,0,0,0-.46-0.19l-0.41,0v-0.42c0.45,0,.89,0,1.34,0s0.63,0,.94,0c0.38,0.5.75,1,1.15,1.49l3.49,4.07v-4a2.67,2.67,0,0,0-.08-0.9,0.47,0.47,0,0,0-.46-0.19l-0.41,0v-0.42c0.42,0,.86,0,1.29,0s0.85,0,1.27,0V315l-0.41,0a0.48,0.48,0,0,0-.46.19,2.67,2.67,0,0,0-.08.9v5.07c0,0.39,0,.79,0,1.13l-1-.1c-0.46-.51-0.93-1-1.36-1.56L602,316.27l0,4.36a2.68,2.68,0,0,0,.08.9,0.48,0.48,0,0,0,.46.19l0.41,0v0.42c-0.42,0-.85,0-1.27,0s-0.86,0-1.29,0v-0.42l0.41,0a0.47,0.47,0,0,0,.46-0.19,2.67,2.67,0,0,0,.08-0.9h0Zm-204.06-.46v-4.09a2.68,2.68,0,0,0-.08-0.9,0.48,0.48,0,0,0-.46-0.19l-0.41,0v-0.42c0.46,0,1.07,0,1.74,0s1.27,0,1.73,0V315l-0.41,0a0.48,0.48,0,0,0-.46.19,2.68,2.68,0,0,0-.08.9v2.77c0,1.57.1,2.57,2,2.57s2.08-1,2.08-2.65v-2.69a2.67,2.67,0,0,0-.08-0.9,0.48,0.48,0,0,0-.46-0.19L402,315v-0.42c0.42,0,.86,0,1.29,0s0.85,0,1.27,0V315l-0.41,0a0.48,0.48,0,0,0-.46.19,2.66,2.66,0,0,0-.08.9v3.26c0,2-1.08,3-3.11,3s-3.2-.91-3.2-2.17h0Zm10.52,0.46v-4.55a2.7,2.7,0,0,0-.08-0.9,0.48,0.48,0,0,0-.46-0.19l-0.41,0v-0.42c0.45,0,.89,0,1.34,0s0.63,0,.94,0c0.38,0.5.75,1,1.15,1.49l3.49,4.07v-4a2.66,2.66,0,0,0-.08-0.9,0.48,0.48,0,0,0-.46-0.19l-0.41,0v-0.42c0.42,0,.86,0,1.29,0s0.85,0,1.27,0V315L415,315a0.48,0.48,0,0,0-.46.19,2.66,2.66,0,0,0-.08.9v5.07c0,0.39,0,.79,0,1.13l-1-.1c-0.46-.51-0.93-1-1.36-1.56l-3.62-4.35,0,4.36a2.67,2.67,0,0,0,.08.9,0.48,0.48,0,0,0,.46.19l0.41,0v0.42c-0.42,0-.85,0-1.27,0s-0.86,0-1.29,0v-0.42l0.41,0a0.48,0.48,0,0,0,.46-0.19,2.71,2.71,0,0,0,.08-0.9h0Zm12.65-4.55v4.55a2.67,2.67,0,0,0,.08.9,0.52,0.52,0,0,0,.46.16l0.41,0v0.45c-0.46,0-1.07,0-1.73,0s-1.29,0-1.74,0v-0.45l0.41,0a0.52,0.52,0,0,0,.46-0.16,2.69,2.69,0,0,0,.08-0.9v-4.55a2.67,2.67,0,0,0-.08-0.9,0.52,0.52,0,0,0-.46-0.16l-0.41,0v-0.45c0.46,0,1.07,0,1.74,0s1.27,0,1.73,0V315L421,315a0.52,0.52,0,0,0-.46.16,2.65,2.65,0,0,0-.08.9h0Zm6.29-.08,1.75,4.32,1.59-3.94a4.19,4.19,0,0,0,.35-1.09A0.36,0.36,0,0,0,430,315l-0.51,0v-0.42l1.3,0,1.29,0V315l-0.36,0a0.68,0.68,0,0,0-.53.53l-2.33,5.56c-0.16.37-.28,0.74-0.42,1.11h-0.85l-2.67-6.39a1.09,1.09,0,0,0-.69-0.8l-0.46,0v-0.42l1.74,0,1.83,0V315l-0.56,0a0.28,0.28,0,0,0-.29.21,2.62,2.62,0,0,0,.24.8h0Zm10.19-.79v2.68c0.26,0,.5,0,0.75,0h0.74c0.39,0,.62,0,0.64-0.23l0.07-.64h0.45c0,0.4,0,.79,0,1.2s0,0.8,0,1.21h-0.45l-0.07-.56c0-.31-0.25-0.41-0.64-0.41h-0.74c-0.25,0-.49,0-0.75,0v3c0.47,0,1,0,1.43,0a3.79,3.79,0,0,0,1.36-.19l0.26-1.05h0.44l-0.12,1.77a16.19,16.19,0,0,1-2.81.12c-0.46,0-.92,0-1.37,0s-0.93,0-1.34,0v-0.26l0.36-.2a0.64,0.64,0,0,0,.22-0.64v-5a2.7,2.7,0,0,0-.08-0.9,0.48,0.48,0,0,0-.46-0.19l-0.41,0v-0.42l1.74,0c1.05,0,1.81,0,2.45,0a15,15,0,0,1,1.63,0l-0.09,1.67h-0.4l-0.09-.84a2.21,2.21,0,0,0-1.29-.21c-0.48,0-1,0-1.43,0h0Zm7,5.42v-4.55a2.66,2.66,0,0,0-.08-0.9,0.48,0.48,0,0,0-.46-0.19L443,315v-0.42c0.74,0,1.31,0,1.88,0,0.76,0,1.51,0,2.27,0,1.14,0,2.19.32,2.19,1.65a2.19,2.19,0,0,1-1.67,2l2,3.06a1.59,1.59,0,0,0,.32.35,1.14,1.14,0,0,0,.46.16v0.45c-0.36,0-.73,0-1.08,0s-0.67,0-1,0l-2.5-3.88,0.08-.2a1.54,1.54,0,0,0,1.79-1.6,1.36,1.36,0,0,0-1.51-1.41,1.85,1.85,0,0,0-.72.1v5.44a2.7,2.7,0,0,0,.08.9,0.52,0.52,0,0,0,.46.16l0.41,0v0.45c-0.46,0-1.07,0-1.73,0s-1.29,0-1.74,0v-0.45l0.41,0a0.52,0.52,0,0,0,.46-0.16,2.68,2.68,0,0,0,.08-0.9h0Zm9.21-.75h0.45l0.08,1a2.28,2.28,0,0,0,1.75.86,1.55,1.55,0,0,0,1.75-1.48,1.08,1.08,0,0,0-.93-1l-1.57-.47a2,2,0,0,1-1.63-1.9c0-1.79,1.33-2.47,3-2.47a5.78,5.78,0,0,1,2.08.38,16.3,16.3,0,0,0-.1,1.72h-0.46l-0.07-.92a2.12,2.12,0,0,0-1.49-.61,1.34,1.34,0,0,0-1.53,1.35,1.22,1.22,0,0,0,1.19,1.08l1.27,0.34a2,2,0,0,1,1.69,1.92c0,1.9-1.58,2.7-3.27,2.7a5.41,5.41,0,0,1-2.34-.52,9.51,9.51,0,0,0,.17-1.93h0Zm10.7-3.81v4.55a2.68,2.68,0,0,0,.08.9,0.52,0.52,0,0,0,.46.16l0.41,0v0.45c-0.46,0-1.07,0-1.73,0s-1.29,0-1.74,0v-0.45l0.41,0a0.52,0.52,0,0,0,.46-0.16,2.68,2.68,0,0,0,.08-0.9v-4.55a2.66,2.66,0,0,0-.08-0.9,0.52,0.52,0,0,0-.46-0.16l-0.41,0v-0.45c0.46,0,1.07,0,1.74,0s1.27,0,1.73,0V315l-0.41,0a0.52,0.52,0,0,0-.46.16,2.66,2.66,0,0,0-.08.9h0Zm7.62-.85v5.41a2.71,2.71,0,0,0,.08.9,0.52,0.52,0,0,0,.46.16l0.41,0v0.45c-0.46,0-1.07,0-1.73,0s-1.28,0-1.74,0v-0.45l0.41,0a0.51,0.51,0,0,0,.46-0.16,2.68,2.68,0,0,0,.08-0.9v-5.41h-1.3a1.21,1.21,0,0,0-.69.1,0.51,0.51,0,0,0-.1.27l-0.06.77h-0.45a12.78,12.78,0,0,0-.15-1.78c1.24,0,2.4,0,3.53,0s2.3,0,3.48,0c0,0.59-.06,1.11-0.08,1.83H473.6l-0.06-.77a0.5,0.5,0,0,0-.1-0.27,1.21,1.21,0,0,0-.69-0.1h-1.3Zm9.07,2.93,2.1-3.59h0.86v0.21l-2,2.91a7.21,7.21,0,0,0-.59,1.12v1.82a2.68,2.68,0,0,0,.08.91,0.53,0.53,0,0,0,.46.16l0.41,0v0.45c-0.46,0-1.07,0-1.73,0s-1.29,0-1.74,0v-0.45l0.41,0a0.53,0.53,0,0,0,.46-0.16,2.73,2.73,0,0,0,.08-0.91v-1.56a7,7,0,0,0-.49-1l-1.13-1.82a6.45,6.45,0,0,0-.58-0.75,1,1,0,0,0-.87-0.37v-0.41l1.78-.39a3.36,3.36,0,0,1,1.27,1.51l1.2,2.27h0Zm14-3.16c-2.08,0-2.57,1.55-2.57,3.23,0,1.85.77,3.48,2.35,3.48,2.08,0,2.57-1.54,2.57-3.22,0-1.85-.77-3.49-2.35-3.49h0Zm0-.62c2.5,0,4,1.36,4,3.91s-1.69,4-4.25,4-4-1.37-4-3.91,1.69-4,4.25-4h0Zm9.09,0.84v2.72c0.26,0,.5,0,0.75,0h0.57c0.39,0,.62,0,0.64-0.23l0.07-.59h0.45c0,0.36,0,.75,0,1.15s0,0.8,0,1.21h-0.45l-0.07-.56c0-.31-0.25-0.41-0.64-0.41h-0.57c-0.25,0-.49,0-0.75,0v2.09a2.7,2.7,0,0,0,.08.9,0.52,0.52,0,0,0,.46.16l0.53,0v0.45c-0.57,0-1.19,0-1.84,0s-1.29,0-1.74,0v-0.45l0.41,0a0.52,0.52,0,0,0,.46-0.16,2.7,2.7,0,0,0,.08-0.9v-4.55a2.7,2.7,0,0,0-.08-0.9,0.48,0.48,0,0,0-.46-0.19l-0.41,0v-0.42l1.74,0c0.87,0,1.63,0,2.27,0a15,15,0,0,1,1.63,0l-0.09,1.67h-0.4l-0.09-.84a2.21,2.21,0,0,0-1.29-.21c-0.3,0-.78,0-1.25,0h0Zm13.13,4.58,1.66-3.94,0.57-1.39h0.5c0.18,0.52.36,1,.55,1.49l1.52,3.8,1.1-4.19a1.39,1.39,0,0,0,0-.37,0.37,0.37,0,0,0-.39-0.22l-0.51,0v-0.42l1.21,0,1.21,0V315l-0.37,0a0.93,0.93,0,0,0-.48.77L522,320.58c-0.15.53-.25,1.06-0.37,1.6H520.8c-0.15-.39-0.27-0.78-0.42-1.17l-1.67-4.19-1.73,4c-0.2.46-.35,0.93-0.53,1.4h-0.78l-1.55-6.72a0.49,0.49,0,0,0-.41-0.47l-0.36,0v-0.42l1.74,0,1.5,0V315l-0.47,0a0.37,0.37,0,0,0-.34.26,1.87,1.87,0,0,0,0,.31l0.91,4.24h0ZM529,315.22v2.68c0.26,0,.5,0,0.75,0h0.74c0.39,0,.61,0,0.64-0.23l0.07-.64h0.45c0,0.4,0,.79,0,1.2s0,0.8,0,1.21H531.2l-0.07-.56c0-.31-0.25-0.41-0.64-0.41h-0.74c-0.25,0-.49,0-0.75,0v3c0.47,0,1,0,1.43,0a3.79,3.79,0,0,0,1.36-.19l0.26-1.05h0.44l-0.12,1.77a16.19,16.19,0,0,1-2.81.12c-0.46,0-.92,0-1.37,0s-0.93,0-1.34,0v-0.26l0.36-.2a0.63,0.63,0,0,0,.22-0.64v-5a2.68,2.68,0,0,0-.08-0.9,0.48,0.48,0,0,0-.46-0.19l-0.41,0v-0.42l1.74,0c1.05,0,1.81,0,2.45,0a15,15,0,0,1,1.63,0l-0.09,1.67h-0.4l-0.09-.84a2.21,2.21,0,0,0-1.29-.21c-0.48,0-1,0-1.43,0h0Zm8.55,0.87v5.42c0.47,0,1,0,1.43,0a3.79,3.79,0,0,0,1.36-.19l0.26-1.14h0.44l-0.12,1.86a16.19,16.19,0,0,1-2.81.12c-0.46,0-.92,0-1.37,0s-0.93,0-1.34,0v-0.26l0.36-.2a0.63,0.63,0,0,0,.22-0.64v-5a2.66,2.66,0,0,0-.08-0.9,0.52,0.52,0,0,0-.46-0.16L535,315v-0.45c0.46,0,1.07,0,1.74,0s1.27,0,1.73,0V315l-0.41,0a0.52,0.52,0,0,0-.46.16,2.67,2.67,0,0,0-.08.9h0Zm8.55,0v5.42c0.47,0,1,0,1.43,0a3.79,3.79,0,0,0,1.36-.19l0.26-1.14h0.44l-0.12,1.86a16.19,16.19,0,0,1-2.81.12c-0.46,0-.92,0-1.37,0s-0.93,0-1.34,0v-0.26l0.36-.2a0.64,0.64,0,0,0,.22-0.64v-5a2.7,2.7,0,0,0-.08-0.9A0.52,0.52,0,0,0,544,315l-0.41,0v-0.45c0.46,0,1.07,0,1.74,0s1.27,0,1.73,0V315l-0.41,0a0.52,0.52,0,0,0-.46.16,2.67,2.67,0,0,0-.08.9h0Zm8.55,0v4.55a2.7,2.7,0,0,0,.08.9,0.52,0.52,0,0,0,.46.16l0.41,0v0.45c-0.46,0-1.07,0-1.73,0s-1.29,0-1.74,0v-0.45l0.41,0a0.52,0.52,0,0,0,.46-0.16,2.68,2.68,0,0,0,.08-0.9v-4.55a2.66,2.66,0,0,0-.08-0.9,0.52,0.52,0,0,0-.46-0.16l-0.41,0v-0.45c0.46,0,1.07,0,1.74,0s1.27,0,1.73,0V315l-0.41,0a0.52,0.52,0,0,0-.46.16,2.68,2.68,0,0,0-.08.9h0Zm4.45,4.55v-4.55a2.66,2.66,0,0,0-.08-0.9,0.47,0.47,0,0,0-.46-0.19l-0.41,0v-0.42c0.45,0,.89,0,1.34,0s0.63,0,.94,0c0.38,0.5.75,1,1.15,1.49l3.49,4.07v-4a2.67,2.67,0,0,0-.08-0.9,0.48,0.48,0,0,0-.46-0.19l-0.41,0v-0.42c0.42,0,.86,0,1.29,0s0.85,0,1.27,0V315l-0.41,0a0.48,0.48,0,0,0-.46.19,2.71,2.71,0,0,0-.08.9v5.07c0,0.39,0,.79,0,1.13l-1-.1c-0.46-.51-0.93-1-1.36-1.56l-3.62-4.35,0,4.36a2.68,2.68,0,0,0,.08.9,0.48,0.48,0,0,0,.46.19l0.41,0v0.42c-0.42,0-.85,0-1.27,0s-0.86,0-1.29,0v-0.42l0.41,0a0.47,0.47,0,0,0,.46-0.19,2.67,2.67,0,0,0,.08-0.9h0Zm17.9-.79v1.82a8.92,8.92,0,0,1-3.27.67c-2.55,0-4.42-1.43-4.42-4.1s2.09-3.86,4.47-3.86a7.75,7.75,0,0,1,3.08.53c0,0.53-.13,1.35-0.19,1.83h-0.44l-0.06-1a3.28,3.28,0,0,0-2.34-.77,2.77,2.77,0,0,0-2.84,3.09c0,1.93,1,3.62,3,3.62a3.9,3.9,0,0,0,1.42-.28V320c0-.35-0.28-0.4-0.64-0.41l-0.59,0v-0.46c0.55,0,1.09,0,1.64,0s1.08,0,1.63,0v0.38c-0.38.08-.46,0.12-0.46,0.4h0Zm7.33-4.62v5.41a2.71,2.71,0,0,0,.08.9,0.52,0.52,0,0,0,.46.16l0.41,0v0.45c-0.46,0-1.07,0-1.73,0s-1.28,0-1.74,0v-0.45l0.41,0a0.52,0.52,0,0,0,.46-0.16,2.7,2.7,0,0,0,.08-0.9v-5.41h-1.3a1.22,1.22,0,0,0-.69.1,0.51,0.51,0,0,0-.1.27l-0.06.77h-0.45a12.75,12.75,0,0,0-.15-1.78c1.24,0,2.4,0,3.53,0s2.3,0,3.48,0c0,0.59-.06,1.11-0.08,1.83h-0.45l-0.06-.77a0.51,0.51,0,0,0-.1-0.27,1.21,1.21,0,0,0-.69-0.1h-1.3Z" transform="translate(-233.05 -259.3)"/></svg>
