<?xml version="1.0" ?><!DOCTYPE svg  PUBLIC '-//W3C//DTD SVG 1.1//EN'  'http://www.w3.org/Graphics/SVG/1.1/DTD/svg11.dtd'><svg enable-background="new 0 0 50 50" id="Layer_1" version="1.1" viewBox="0 0 50 50" xml:space="preserve" xmlns="http://www.w3.org/2000/svg" xmlns:xlink="http://www.w3.org/1999/xlink"><path d="M45,1H5C2.8,1,1,2.8,1,5v40c0,2.2,1.8,4,4,4h40c2.2,0,4-1.8,4-4V5C49,2.8,47.2,1,45,1z" fill="#CF3427"/><g id="_x5B____x3E___x5D__1_"><g><path d="M39.7,19c0,0-0.3-2.1-1.2-3c-1.1-1.2-2.4-1.2-3-1.3C31.3,14.5,25,14.5,25,14.5s-6.3,0-10.5,0.3    c-0.6,0.1-1.9,0.1-3,1.3c-0.9,0.9-1.2,3-1.2,3s-0.3,2-0.3,4.4v3c0,2.4,0.3,4.5,0.3,4.5s0.3,2.1,1.2,3c1.1,1.2,2.6,1.2,3.3,1.3    c2.4,0.2,10.2,0.2,10.2,0.2s6.3,0.1,10.5-0.2c0.6-0.1,1.9-0.1,3-1.3c0.9-0.9,1.2-3,1.2-3s0.3-2.1,0.3-4.5v-3    C40,21.1,39.7,19,39.7,19z M21,29v-8l8,4L21,29z" fill="#FFFFFF"/></g></g></svg>