<?xml version="1.0" ?><!DOCTYPE svg  PUBLIC '-//W3C//DTD SVG 1.1//EN'  'http://www.w3.org/Graphics/SVG/1.1/DTD/svg11.dtd'><svg enable-background="new 0 0 50 50" id="Layer_1" version="1.1" viewBox="0 0 50 50" xml:space="preserve" xmlns="http://www.w3.org/2000/svg" xmlns:xlink="http://www.w3.org/1999/xlink"><path d="M45,1H5C2.8,1,1,2.8,1,5v40c0,2.2,1.8,4,4,4h40c2.2,0,4-1.8,4-4V5C49,2.8,47.2,1,45,1z" fill="#3A5BA0"/><path d="M32,26l1-5l-5,0v-4c0-1.5,0.8-2,3-2h2v-5c0,0-2,0-4,0c-4.1,0-7,2.4-7,7v4h-5v5h5v14h6V26H32z" fill="#FFFFFF" id="f_1_"/></svg>