<?xml version="1.0" ?><!DOCTYPE svg  PUBLIC '-//W3C//DTD SVG 1.1//EN'  'http://www.w3.org/Graphics/SVG/1.1/DTD/svg11.dtd'><svg enable-background="new 0 0 50 50" id="Layer_1" version="1.1" viewBox="0 0 50 50" xml:space="preserve" xmlns="http://www.w3.org/2000/svg" xmlns:xlink="http://www.w3.org/1999/xlink"><path d="M45,1H5C2.8,1,1,2.8,1,5v40c0,2.2,1.8,4,4,4h40c2.2,0,4-1.8,4-4V5C49,2.8,47.2,1,45,1z" fill="#527FA3"/><path d="M36,10c0,0-22.5,0-22.5,0c-1.9,0-3.5,1.6-3.5,3.5l0,0c0,0,0,23,0,23c0,1.9,1.6,3.5,3.5,3.5  c0,0,23,0,23,0c1.9-0.1,3.5-1.6,3.5-3.5c0,0,0-23,0-23C40,11.6,37.9,10.1,36,10z M25,19.5c3,0,5.5,2.5,5.5,5.5c0,3-2.5,5.5-5.5,5.5  c-3,0-5.5-2.5-5.5-5.5C19.5,22,22,19.5,25,19.5z M36,34c0,1.1-0.9,2-2,2h-9h-9c-1.1,0-2-0.9-2-2V22.5h2.4C16.1,23.3,16,24.1,16,25  c0,5,4,9,9,9s9-4,9-9c0-0.9-0.1-1.7-0.4-2.5H36V34z M36,15v3h0c0,0.5-0.4,1-1,1v0h-3c-0.5,0-1-0.4-1-1h0v-3h0c0,0,0,0,0,0  c0-0.6,0.4-1,1-1h3v0C35.6,14,36,14.5,36,15C36,15,36,15,36,15L36,15z" fill="#FFFFFF" id="camera"/></svg>