<?xml version="1.0" encoding="iso-8859-1"?>
<!-- Generator: Adobe Illustrator 16.0.0, SVG Export Plug-In . SVG Version: 6.00 Build 0)  -->
<!DOCTYPE svg PUBLIC "-//W3C//DTD SVG 1.1//EN" "http://www.w3.org/Graphics/SVG/1.1/DTD/svg11.dtd">
<svg version="1.1" id="Capa_1" xmlns="http://www.w3.org/2000/svg" xmlns:xlink="http://www.w3.org/1999/xlink" x="0px" y="0px"
	 width="94px" height="94px" viewBox="0 0 94 94" style="enable-background:new 0 0 94 94;" xml:space="preserve">
<g>
	<g>
		<ellipse cx="32.396" cy="44.044" rx="3.641" ry="4.268"/>
		<path d="M89,0H5C2.238,0,0,2.238,0,5v84c0,2.762,2.238,5,5,5h84c2.762,0,5-2.238,5-5V5C94,2.238,91.762,0,89,0z M13.014,59.497
			c-2.049-0.802-1.497-2.668-1.191-3.343l2.296-5.02L8.27,37.748c-0.116-0.4-0.795-2.527,1.282-3.224
			c1.914-0.64,2.938,0.238,3.55,1.494l3.729,9.303l3.909-9.269c0.483-1.146,1.273-2.357,3.582-1.543
			c2.387,0.842,1.279,3.219,1.279,3.219l-8.926,20.024C16.006,59.123,15.066,60.295,13.014,59.497z M32.396,51.924
			c-5.031,0-8.164-3.588-8.164-8.01s3.656-8.007,8.164-8.007s8.162,3.585,8.162,8.007S37.809,51.924,32.396,51.924z M55.65,46.073
			c-0.199,3.786-3.148,6.028-7.354,6.084c-7.476,0.104-7.335-4.677-7.364-5.606l0.009-7.405c0.096-1.511,0.862-2.343,2.308-2.45
			c1.351,0.061,2.033,0.809,2.093,2.3l-0.007,7.454c-0.002,0.667,0.353,2.54,2.975,2.475c1.769-0.047,2.83-1.133,2.906-2.715
			l0.002-7.432c0.096-1.512,0.807-2.329,2.202-2.419c1.44,0.029,2.181,0.762,2.247,2.259L55.65,46.073z M70.641,51.111
			c-0.8,0.77-2.406,0.854-3.385,0.051c-0.33-0.283-6.408-5.424-6.408-5.424l-0.006,4.209c-0.061,1.262-0.822,1.957-2.346,1.951
			c-1.459,0-2.254-0.643-2.335-1.959V38.629c0.081-1.373,0.735-2.169,2.329-2.169c1.547,0,2.295,0.845,2.33,2.171l0.033,3.944
			l5.762-5.445c0.576-0.531,2.179-1.22,3.436-0.02c1.711,1.628-0.242,3.483-0.242,3.483l-3.947,3.439l4.406,3.737
			C71.286,48.635,71.484,50.299,70.641,51.111z M85.93,46.24c-0.207,3.748-2.607,5.701-7.393,5.775
			c-4.758-0.074-7.202-2.035-7.362-5.767v-7.42c0.08-1.494,0.776-2.36,2.292-2.36c1.371,0.049,2.061,0.859,2.137,2.354l0.014,7.417
			c0.083,1.564,1.236,2.589,2.934,2.589c1.612,0,2.848-1.021,2.928-2.589v-7.417c0.056-1.494,0.816-2.298,2.211-2.349
			c1.398,0.051,2.16,0.854,2.24,2.349V46.24L85.93,46.24z"/>
	</g>
</g>

</svg>
