<svg xmlns="http://www.w3.org/2000/svg" viewBox="0 0 117.45 94.8"><path d="M29.54 51.94h1.87v.38h-1.87v-.38zm24.55 33.02v2.88h9.11v-2.88l-1.3 1.44h-1.82l-1.43-1.44-1.44 1.44h-1.82l-1.3-1.44zm-6.05-20.52v2.88h9.11v-2.88l-1.3 1.44h-1.82l-1.43-1.44-1.43 1.44h-1.82l-1.31-1.44zm12.1 0v2.88h9.11v-2.88l-1.3 1.44h-1.82l-1.43-1.44-1.43 1.44h-1.82l-1.31-1.44zm-1.5 5.19c-1.46 0-2.12 1.05-3.58 1.05s-2.13-1.08-3.58-1.05c-1.36.03-1.96 1.03-3.32 1.05-1.34.02-2.32-.96-3.32-.92v9.04c.05 1.89 1.51 4.61 3.31 4.61 1.36-.02 1.97-1.01 3.32-1.04 1.46-.03 2.12 1.05 3.58 1.05s2.13-1.05 3.58-1.05c1.46 0 2.13 1.05 3.58 1.05 1.46 0 2.12-1.08 3.58-1.05 1.36.03 1.96 1.02 3.32 1.04 1.81 0 3.27-2.72 3.32-4.61v-9.04c-1-.05-1.97.94-3.32.92-1.36-.02-1.96-1.02-3.32-1.05-1.46-.03-2.12 1.05-3.58 1.05-1.44 0-2.11-1.05-3.57-1.05m0 23.31c-.59 0-14.9-6.23-14.9-14.13V61.57h29.8v17.24c0 7.9-14.32 14.13-14.9 14.13M56.51 79.6l-.62-1.09.62-1.08h-1.25l-.62-1.08-.62 1.08h-1.25l.62 1.08-.62 1.09h1.25l.62 1.09.62-1.09h1.25zm8.01-3.96l-.62-1.08.62-1.09h-1.25l-.62-1.09-.62 1.09h-1.25l.62 1.09-.62 1.08h1.25l.62 1.09.62-1.09h1.25zm-5.73 0l-.62-1.08.62-1.09h-1.25l-.62-1.09-.62 1.09h-1.25l.62 1.09-.62 1.08h1.25l.62 1.09.62-1.09h1.25zm3.45 3.96l-.62-1.09.62-1.08h-1.25l-.62-1.08-.62 1.08H58.5l.62 1.08-.62 1.09h1.25l.62 1.09.62-1.09h1.25zm-10.95-7.97h14.7v9.8h-14.7v-9.8zm-10.93-1.7c-.84 0-1.91-1.09-1.82-1.77.5-3.71 2.4-2.52 3.8-3.6.4.52.99 5.37-1.98 5.37m44.5 3.37c-.03 0-.15 1.55-1.56 2.61.79-.03 2.07.08 2.34-.92.27-1.08-.63-1.64-.78-1.69m-2.21-.52c-2.79-.12-3.88 1.56-2.94 2.19 1.77 1.22 2.92-2.23 2.94-2.19m.13-4.05c-.37.4-.97.75-1.7.92.76-.05 2.18-.06 2.87 0-.52-.23-1.17-.92-1.17-.92m-5.41-3.35c0 1.21.98 2.2 2.19 2.2s2.19-.99 2.19-2.2c0-1.22-.98-2.2-2.19-2.2s-2.19.99-2.19 2.2m8.78 1.8c.24-.38.85-.53 1.45-.32.65.22 1.05.77.93 1.24 3.22-.06 3.99-.81 4.01-.78-.94 1.73-3.68 2.98-4.71 3.08 1.47.5 4.33 2.18 4.32 5.42 0 4.73-4.57 5.39-7.14 4.71.82.22 1.25.76 1.27.91H74.71v-9.56c.34-.4 1.05-.92 1.88-1.27.52-.22.46-.81.46-.81-1.4-.25-2.34-1.44-2.34-1.44v-5.49s1.39-1.96 4.68-1.96c2.63.02 4.03 2.22 4.03 2.22s1.1-.93 3.25-.91c4.86 0 5.99 4.71 5.99 4.71-1.43-1.22-3.18-1.59-4.03-1.7-.08.43-.53.75-1.06.75-.48 0-.88-.26-1.02-.62l-.4.26c.06.15.09.32.07.5-.03.33-.2.62-.45.82l.38.24zm-7.57-1.8c0-.54.44-.98.98-.98s.98.44.98.98-.44.98-.98.98-.98-.43-.98-.98m-36.01 4.03v12.03H24.62c.03-.05.65-1.63 1.17-2.22-.45-.37-.82-.71-.78-.65-.04-.05 2.4-3.24 4.16-3.27-.35-.28-.67-.64-.65-.65.63-.71 1.75-.75 5.47-1.05 3.71-.33 4.23-1.31 4.29-4.32.92 1.1 2.48 2.45 4.29.13m-9.11-6.14c-1.19-.82-1.79-1.13-2.21-1.05-.39.08-1.18 1.37-1.17 1.31.99-.21 2.48-.33 3.38-.26m-4.42 4.96c-.85-.72-1.93-2.16-2.08-3.14-.11-.73.39-1.18.39-1.18s-.24-.71-.13-1.04c.52-1.55 7.86-1.62 9.37-1.57 3.43.16 4.16 0 5.85-.65-.04-.06-.57 2.53-3.77 2.48-.01.26-.01.36 0 .39 1.26.02 2.77-.26 3.64-1.31-.03.88.3 1.95-1.43 2.35-1.67.39-2.71.33-3.25 5.1-.11 1.34.01 2.52-2.21 3.01-2.13.47-7.76.61-8.78 1.41l-.2-.36c1.12-.77 1.83-1.97 1.69-3.27.23-.15.57-.26.78-.26-.02.45-.57 1.44 2.08 1.44.05 0 2.49.29 1.43-2.88-.33-.99-.62-2.11-1.82-2.09-.01-.02-1.54.07-.78 1.6 1.08.23 2.31.49 2.48 1.27.13.8-.46 1.24-.91 1.04-.44-.19-1.71-.91-2.6-.91-1.65 0-4.61 1.89-6.5-1.69.55.59 1.07.98 2.86 1.03 1.76.07 2.12-.72 3.89-.77m37.09-22.49H68v.38h-1.87v-.38zm-40.41 3.83v-2.12c0-.19-.01-.35-.02-.5h-.78c-.15 0-.19.05-.2.17l-.02.4h-.16c0-.27-.01-.55-.03-.81.36 0 .72.02 1.08.02h.73c.36 0 .72-.02 1.08-.02-.03.26-.04.54-.04.81h-.16l-.02-.4c-.01-.12-.05-.17-.2-.17h-.78c-.01.15-.02.31-.02.5v2.12c0 .19.01.32.04.38.03.05.09.07.21.08l.24.01v.15c-.26-.01-.5-.01-.72-.01-.25 0-.48 0-.74.01v-.15l.24-.01c.12 0 .18-.03.21-.08.05-.06.06-.19.06-.38m3.14 0v-2.25c0-.19-.01-.32-.04-.38-.03-.05-.09-.07-.21-.08l-.24-.01v-.15c.28.01.56.02.85.02.44 0 .89-.02 1.18-.02.23 0 .45.01.65.02-.06.22-.08.51-.08.76h-.18v-.33c0-.07 0-.12-.04-.14-.27-.1-.66-.11-.98-.11-.13 0-.28.01-.42.04v1.34c.16.01.34.01.58.01.3 0 .47-.02.53-.06.03-.02.03-.06.04-.13l.03-.26h.15c0 .21-.01.4-.01.58s.01.38.01.56h-.15l-.03-.3c-.01-.07-.01-.11-.04-.12-.06-.04-.22-.06-.53-.06-.24 0-.43 0-.58.02v1.41c.14.03.29.04.42.04.41 0 .92-.01 1.01-.07.08-.04.14-.26.18-.56h.17c-.05.24-.08.55-.08.83-.22 0-.62.02-.99.01-.38 0-.78-.01-1.09-.01-.19 0-.36.01-.54.01v-.15l.18-.01c.12-.01.18-.03.21-.08s.04-.18.04-.37m8.29-.38l-.63-1.7-.87 2.22c-.06.17-.13.34-.18.52h-.25c-.04-.19-.07-.34-.12-.52l-.6-2.59c-.05-.22-.14-.24-.25-.25l-.14-.01v-.16c.21.01.42.01.63.01.22 0 .42-.01.63-.01v.15l-.21.01c-.13.01-.23.04-.17.33l.5 2.24.63-1.57c.16-.4.31-.8.45-1.21h.16c.05.2.14.43.21.64l.78 2.18.67-2.44c.03-.12-.04-.15-.23-.17l-.2-.01v-.15c.18.01.35.01.53.01s.35-.01.53-.01v.15l-.16.01c-.11.01-.17.06-.19.15l-.77 2.7c-.04.15-.1.3-.14.51h-.26c-.11-.39-.23-.69-.35-1.03m6.25-1.87v2.25c0 .19.01.32.05.38.03.05.09.07.21.08l.24.01v.15c-.26-.01-.5-.01-.72-.01-.25 0-.48 0-.74.01v-.15l.24-.01c.12 0 .18-.03.21-.08.03-.06.04-.18.04-.38v-1.12c-.06 0-.19-.01-.41-.01h-1.17c-.22 0-.36 0-.42.01v1.12c0 .19.01.32.05.38.03.05.09.07.21.08l.24.01v.15c-.26-.01-.5-.01-.73-.01-.25 0-.48 0-.74.01v-.15l.24-.01c.12 0 .18-.03.21-.08.03-.06.05-.18.05-.38v-2.25c0-.19-.01-.32-.05-.38-.03-.05-.09-.07-.21-.08l-.24-.01v-.15c.26.01.5.01.74.01.23 0 .47 0 .73-.01v.15l-.24.01c-.12.01-.18.03-.21.08-.03.06-.05.18-.05.38v.89c.06.01.19.01.42.01h1.17c.22 0 .35 0 .41-.01v-.89c0-.19-.01-.32-.04-.38-.03-.05-.09-.07-.21-.08l-.24-.01v-.15c.26.01.49.01.74.01.23 0 .47 0 .72-.01v.15l-.24.01c-.12.01-.18.03-.21.08-.04.06-.05.19-.05.38m2.57 1.51h1.27l-.63-1.5-.64 1.5zm.84-2.17l1.21 2.85c.04.1.1.24.16.34.06.09.11.16.2.17l.17.01v.15c-.22 0-.44-.01-.67-.01-.17 0-.4.01-.66.01v-.15l.23-.01c.1 0 .21-.04.21-.1 0-.07-.06-.2-.1-.32l-.23-.58h-1.44l-.14.34c-.05.11-.18.44-.18.52 0 .1.09.12.24.14l.18.01v.15c-.24 0-.43-.01-.58-.01-.19 0-.39.01-.58.01v-.15l.19-.01c.12-.01.22-.11.27-.25l.89-2.03c.15-.35.33-.72.46-1.09h.17v.01zm3.69.29v2.62c0 .19.01.32.05.38.03.05.09.07.21.08l.24.01v.15c-.26-.01-.5-.01-.73-.01-.24 0-.48 0-.74.01v-.15l.24-.01c.12 0 .18-.03.21-.08.04-.06.05-.18.05-.38v-2.25c0-.19-.01-.32-.05-.38-.03-.05-.09-.07-.21-.08l-.21-.01v-.15c.26.01.56.02.85.02.3 0 .58-.01.88-.02.8-.01 1.01.39 1.01.76 0 .55-.49.88-.97.97l1.14 1.49c.07.1.18.12.31.13v.15c-.13 0-.25-.01-.36-.01s-.22.01-.34.01c-.07-.1-.14-.18-.21-.27l-.92-1.24c-.08-.11-.17-.21-.26-.31.17-.05.32-.06.47-.08.35-.06.65-.33.65-.7 0-.54-.4-.69-.79-.69-.23-.02-.38.01-.52.04m3.63 2.62v-2.25c0-.19-.01-.32-.04-.38-.03-.05-.09-.07-.21-.08l-.24-.01v-.15c.28.01.56.02.85.02.43 0 .9-.02 1.18-.02.23 0 .45.01.65.02-.05.22-.08.51-.08.76h-.18v-.33c0-.07-.01-.12-.04-.14-.27-.1-.66-.11-.98-.11-.13 0-.28.01-.42.04v1.34c.16.01.34.01.58.01.31 0 .47-.02.53-.06.03-.02.03-.06.04-.13l.03-.26h.15c-.01.21-.01.4-.01.58s.01.38.01.56h-.15l-.03-.3c-.01-.07-.01-.11-.04-.12-.06-.04-.22-.06-.53-.06-.24 0-.43 0-.58.02v1.41c.14.03.28.04.42.04.41 0 .92-.01 1.01-.07.08-.04.14-.26.18-.56h.17c-.05.24-.08.55-.08.83-.22 0-.62.02-.99.01-.39 0-.78-.01-1.09-.01-.19 0-.36.01-.54.01v-.15l.18-.01c.12-.01.18-.03.21-.08s.04-.18.04-.37m8.29-.38l-.62-1.7-.87 2.22c-.07.17-.13.34-.18.52h-.25c-.03-.19-.08-.34-.11-.52l-.6-2.59c-.05-.22-.15-.24-.25-.25l-.14-.01v-.16c.21.01.42.01.63.01.22 0 .42-.01.63-.01v.15l-.21.01c-.13.01-.23.04-.16.33l.49 2.24.63-1.57c.16-.4.32-.8.45-1.21h.16c.04.2.14.43.21.64l.78 2.18.67-2.44c.03-.12-.04-.15-.23-.17l-.2-.01v-.15c.18.01.35.01.53.01s.35-.01.52-.01v.15l-.16.01c-.11.01-.17.06-.19.15l-.76 2.7c-.04.15-.09.3-.14.51h-.25c-.14-.39-.26-.69-.38-1.03m3.9-.36h1.27l-.63-1.5-.64 1.5zm.84-2.17l1.21 2.85c.04.1.1.24.16.34.05.09.11.16.2.17l.17.01v.15c-.22 0-.44-.01-.66-.01-.18 0-.4.01-.67.01v-.15l.23-.01c.11 0 .21-.04.21-.1 0-.07-.06-.2-.1-.32l-.23-.58h-1.44l-.14.34c-.04.11-.17.44-.17.52 0 .1.08.12.24.14l.19.01v.15c-.24 0-.43-.01-.58-.01-.19 0-.39.01-.58.01v-.15l.19-.01c.12-.01.21-.11.27-.25l.89-2.03c.15-.35.33-.72.46-1.09h.15v.01zm3.17 2.91v-2.25c0-.19-.01-.32-.04-.38-.03-.05-.09-.07-.21-.08l-.22-.01v-.15c.22.01.42.01.6.01.09 0 .18-.01.27-.01l2.39 2.97.01-2.35c0-.19-.01-.32-.04-.38-.03-.05-.09-.07-.21-.08l-.22-.01v-.15c.2.01.4.01.58.01.2 0 .38-.01.6-.01v.15l-.22.01c-.12.01-.18.03-.21.08-.04.06-.05.18-.05.38v2.77c0 .06.01.13.01.19l-.45-.08-2.36-2.94-.01 2.31c0 .19.01.32.05.38.03.05.09.07.21.08l.22.01v.15c-.22 0-.4-.01-.6-.01-.18 0-.38.01-.58.01v-.15l.22-.01c.12-.01.18-.03.21-.08.04-.06.05-.19.05-.38m5.56-.74h1.27l-.63-1.5-.64 1.5zm.84-2.17l1.21 2.85c.04.1.1.24.16.34.06.09.11.16.2.17l.17.01v.15c-.22 0-.44-.01-.67-.01-.17 0-.39.01-.67.01v-.15l.24-.01c.11 0 .21-.04.21-.1 0-.07-.06-.2-.11-.32l-.23-.58H75.8l-.14.34c-.04.11-.18.44-.18.52 0 .1.09.12.24.14l.18.01v.15c-.24 0-.43-.01-.57-.01-.19 0-.39.01-.58.01v-.15l.19-.01c.12-.01.21-.11.27-.25l.89-2.03c.15-.35.33-.72.46-1.09h.17v.01zm3.17 2.91v-2.25c0-.19-.01-.32-.04-.38-.03-.05-.09-.07-.21-.08l-.22-.01v-.15c.22.01.42.01.6.01.09 0 .18-.01.27-.01l2.39 2.97.01-2.35c0-.19-.01-.32-.05-.38-.03-.05-.09-.07-.21-.08l-.22-.01v-.15c.2.01.4.01.58.01.2 0 .38-.01.6-.01v.15l-.22.01c-.12.01-.18.03-.21.08-.04.06-.05.18-.05.38v2.77c0 .06.01.13.02.19l-.44-.08-2.36-2.94-.01 2.31c0 .19.01.32.04.38.03.05.09.07.21.08l.22.01v.15c-.22 0-.4-.01-.6-.01-.18 0-.38.01-.58.01v-.15l.22-.01c.12-.01.18-.03.21-.08.04-.06.05-.19.05-.38m7.34.12v-.51c0-.11-.04-.17-.17-.18l-.42-.03v-.15c.21 0 .41.01.61.01.21 0 .41 0 .62-.01l.02.13-.15.05c-.05.01-.05.03-.05.18v.84c-.43.13-.97.26-1.32.26-1.12 0-2.02-.58-2.02-1.85 0-1.11.91-1.82 2.11-1.82.62 0 1.01.14 1.24.21-.06.24-.1.5-.1.76h-.15v-.27c0-.24-.18-.32-.42-.4-.16-.06-.38-.09-.7-.09-.95 0-1.45.63-1.45 1.52 0 1 .58 1.72 1.61 1.72.39 0 .67-.08.7-.18.03-.04.04-.07.04-.19m2.79-.86h1.27l-.63-1.5-.64 1.5zm.84-2.17l1.21 2.85c.04.1.1.24.16.34.06.09.11.16.2.17l.17.01v.15c-.22 0-.44-.01-.67-.01-.18 0-.4.01-.67.01v-.15l.24-.01c.11 0 .21-.04.21-.1 0-.07-.06-.2-.11-.32l-.23-.58h-1.44l-.14.34c-.04.11-.18.44-.18.52 0 .1.09.12.24.14l.19.01v.15c-.24 0-.43-.01-.58-.01-.19 0-.38.01-.57.01v-.15l.18-.01c.12-.01.22-.11.27-.25l.89-2.03c.15-.35.32-.72.46-1.09h.17v.01zM95 51.94h1.87v.38H95v-.38zm9.39 1.58v2.25c0 .19.01.32.05.38.03.05.09.07.21.07l.24.01v.15c-.26-.01-.5-.01-.73-.01-.25 0-.48.01-.74.01v-.15l.24-.01c.12 0 .18-.02.21-.07.03-.06.04-.19.04-.38v-2.25c0-.19-.01-.32-.04-.38-.03-.05-.09-.07-.21-.07l-.24-.02v-.15c.26.01.5.01.74.01.23 0 .46 0 .73-.01v.15l-.24.02c-.12 0-.18.03-.21.07-.04.06-.05.19-.05.38m-90.34-.5c-.87 0-1.27.61-1.27 1.44 0 .88.41 1.81 1.4 1.81.84 0 1.24-.65 1.24-1.58.01-1-.44-1.67-1.37-1.67m-.02 3.46c-1.02 0-1.78-.7-1.78-1.83 0-1.04.72-1.83 1.88-1.83 1.07 0 1.83.6 1.83 1.72 0 1.07-.84 1.94-1.93 1.94m6.11-.71v-2.12c0-.19 0-.35-.02-.5h-.78c-.15 0-.19.05-.2.17l-.02.4h-.15c0-.27-.01-.55-.04-.81.36 0 .72.02 1.08.02h.73c.36 0 .72-.02 1.08-.02-.03.26-.04.54-.04.81h-.15l-.02-.4c-.01-.12-.05-.17-.2-.17h-.78c-.01.15-.02.31-.02.5v2.12c0 .19.01.32.05.38.03.05.09.07.21.07l.24.01v.15c-.26-.01-.5-.01-.73-.01-.25 0-.48.01-.74.01v-.15l.24-.01c.12 0 .18-.02.21-.07.04-.06.05-.19.05-.38m3.14 0v-2.26c0-.19-.01-.32-.04-.38-.03-.05-.09-.07-.21-.07l-.24-.02v-.14c.28.01.56.02.85.02.43 0 .89-.02 1.18-.02.23 0 .45.01.65.02-.05.22-.08.51-.08.76h-.19v-.33c0-.07 0-.12-.04-.14-.27-.1-.66-.11-.98-.11-.14 0-.28 0-.42.04v1.34c.16.01.34.01.58.01.31 0 .47-.02.53-.06.03-.02.04-.07.04-.13l.03-.26h.15c-.01.21-.01.4-.01.58 0 .19.01.38.01.56h-.15l-.03-.3c-.01-.07-.02-.11-.04-.13-.05-.04-.22-.06-.53-.06-.24 0-.42 0-.58.01v1.41c.14.04.28.04.42.04.41 0 .92-.01 1.01-.06.07-.04.14-.26.18-.56h.17c-.05.24-.08.55-.08.82-.22.01-.62.02-.99.01-.38 0-.78-.01-1.09-.01-.19 0-.35.01-.54.01v-.15l.18-.01c.12-.01.18-.02.21-.07.04-.04.05-.17.05-.36m5.77-.47v-1.78c0-.19-.01-.32-.04-.38-.03-.05-.09-.07-.21-.07l-.24-.02v-.15c.26.01.5.01.74.01.23 0 .47 0 .73-.01v.15l-.24.02c-.12 0-.18.03-.21.07-.04.06-.05.19-.05.38v1.73c0 .71.37.92 1.03.92.54 0 1.03-.21 1.03-1.04v-1.61c0-.19-.01-.32-.05-.38-.03-.05-.09-.07-.21-.07l-.22-.02v-.15c.2 0 .4.01.58.01.2 0 .38-.01.6-.01v.15l-.22.02c-.12.01-.18.03-.21.07-.03.06-.04.19-.04.38v1.45c0 1.07-.41 1.51-1.42 1.51-.85 0-1.35-.26-1.35-1.18m5.18-2.15v2.62c0 .19.01.32.04.38.03.05.09.07.21.07l.24.01v.15c-.26-.01-.49-.01-.72-.01-.25 0-.48.01-.74.01v-.15l.24-.01c.12 0 .18-.02.21-.07.04-.06.04-.19.04-.38v-2.25c0-.18-.02-.32-.05-.37-.04-.05-.09-.08-.22-.08l-.23-.02v-.15c.33.01.62.02.9.02.29 0 .58-.01.85-.02.49-.01 1.04.2 1.04.77 0 .63-.54 1.08-1.2 1.08-.1 0-.2-.01-.3-.03l-.05-.18c.11.04.22.05.33.05.4 0 .72-.32.72-.75 0-.52-.31-.75-.81-.75-.21 0-.36.03-.5.06m4.61-.13c-.87 0-1.26.61-1.26 1.44 0 .88.41 1.81 1.4 1.81.84 0 1.24-.65 1.24-1.58 0-1-.44-1.67-1.38-1.67m-.02 3.46c-1.01 0-1.78-.7-1.78-1.83 0-1.04.72-1.83 1.88-1.83 1.07 0 1.83.6 1.83 1.72.01 1.07-.84 1.94-1.93 1.94m3.89-1.74v1.03c0 .19.01.32.04.38.03.05.09.07.21.07l.24.01v.15c-.26-.01-.5-.01-.73-.01-.24 0-.48.01-.74.01v-.15l.24-.01c.12 0 .18-.02.21-.07.03-.06.05-.19.05-.38v-2.25c0-.19-.01-.32-.05-.38-.03-.05-.09-.07-.21-.07l-.24-.02v-.15c.26.01.5.01.74.01.23 0 .47 0 .73-.01v.15l-.24.02c-.12 0-.18.03-.21.07-.03.06-.04.19-.04.38v1.07l1.39-1.36c.08-.08.15-.16.15-.2v-.13c.16 0 .3.01.44.01s.28-.01.4-.01v.15l-.21.01c-.13.01-.26.08-.39.19l-1.33 1.2 1.65 1.57c.12.11.22.19.31.21l.1.01v.15c-.1 0-.22-.01-.33-.01-.12 0-.24.01-.4.01l-1.74-1.68-.04.03zm5.22-1.72c-.87 0-1.27.61-1.27 1.44 0 .88.41 1.81 1.4 1.81.84 0 1.24-.65 1.24-1.58.01-1-.44-1.67-1.37-1.67m-.03 3.46c-1.02 0-1.78-.7-1.78-1.83 0-1.04.72-1.83 1.88-1.83 1.07 0 1.83.6 1.83 1.72.01 1.07-.83 1.94-1.93 1.94m6.73-3.46c-.87 0-1.27.61-1.27 1.44 0 .88.41 1.81 1.4 1.81.84 0 1.24-.65 1.24-1.58.01-1-.44-1.67-1.37-1.67m-.02 3.46c-1.02 0-1.78-.7-1.78-1.83 0-1.04.72-1.83 1.88-1.83 1.07 0 1.83.6 1.83 1.72 0 1.07-.84 1.94-1.93 1.94m6.11-.71v-2.12c0-.19-.01-.35-.02-.5h-.78c-.15 0-.19.05-.2.17l-.02.39h-.15c0-.27-.01-.55-.04-.81.36 0 .72.02 1.08.02h.72c.36 0 .72-.02 1.08-.02-.03.26-.04.54-.04.81h-.15l-.02-.4c-.01-.12-.05-.17-.2-.17h-.78c-.02.15-.02.31-.02.5v2.12c0 .19.01.32.04.38.03.05.09.07.21.07l.24.01v.15c-.26-.01-.5-.01-.73-.01-.24 0-.48.01-.74.01v-.15l.24-.01c.12 0 .18-.02.21-.07.06-.05.07-.18.07-.37m3.14 0v-2.26c0-.19-.01-.32-.04-.38-.03-.05-.09-.07-.21-.07l-.24-.02v-.14c.27.01.56.02.85.02.44 0 .89-.02 1.18-.02.23 0 .45.01.65.02-.06.22-.08.51-.08.76h-.17v-.33c0-.07-.01-.12-.05-.14-.27-.1-.66-.11-.98-.11-.14 0-.28 0-.42.04v1.34c.16.01.34.01.58.01.31 0 .47-.02.53-.06.03-.02.04-.07.04-.13l.02-.26h.15c0 .21-.01.4-.01.58 0 .19.01.38.01.56h-.15l-.02-.3c0-.07-.02-.11-.04-.13-.06-.04-.22-.06-.53-.06-.24 0-.42 0-.58.01v1.41c.14.04.28.04.42.04.41 0 .92-.01 1.01-.06.07-.04.14-.26.18-.56h.18c-.05.24-.08.55-.08.82-.22.01-.62.02-.99.01-.39 0-.78-.01-1.09-.01-.19 0-.36.01-.54.01v-.15l.18-.01c.12-.01.18-.02.21-.07.02-.04.03-.17.03-.36m6.3-2.25v2.25c0 .19.01.32.04.38.03.05.09.07.21.07l.24.01v.15c-.26-.01-.5-.01-.73-.01-.24 0-.48.01-.74.01v-.15l.24-.01c.12 0 .18-.02.21-.07.03-.06.04-.19.04-.38v-2.25c0-.19-.01-.32-.04-.38-.03-.05-.09-.07-.21-.07l-.24-.02v-.15c.26.01.5.01.74.01.23 0 .47 0 .73-.01v.15l-.24.02c-.12 0-.18.03-.21.07-.03.06-.04.19-.04.38m2.45 1.22v1.03c0 .19.01.32.05.38.03.05.09.07.21.07l.24.01v.15c-.26-.01-.49-.01-.72-.01-.25 0-.48.01-.74.01v-.15l.24-.01c.12 0 .18-.02.21-.07.04-.06.04-.19.04-.38v-2.25c0-.19-.01-.32-.04-.38-.03-.05-.09-.07-.21-.07l-.24-.02v-.15c.26.01.5.01.74.01.23 0 .46 0 .72-.01v.15l-.24.02c-.12 0-.18.03-.21.07-.04.06-.05.19-.05.38v1.07L74 53.23c.08-.08.15-.16.15-.2v-.13c.16 0 .3.01.44.01s.28-.01.4-.01v.15l-.21.01a.68.68 0 0 0-.39.19l-1.33 1.2 1.65 1.57c.13.11.22.19.31.21l.1.01v.15c-.09 0-.21-.01-.33-.01s-.24.01-.4.01l-1.74-1.68-.04.03zm4.51.29h1.27l-.63-1.5-.64 1.5zm.84-2.17l1.21 2.86c.04.1.1.23.16.34.06.1.11.16.2.17l.17.01v.15c-.22 0-.44-.01-.67-.01-.18 0-.39.01-.67.01v-.15l.24-.01c.11 0 .21-.04.21-.1 0-.07-.06-.2-.11-.32l-.23-.58h-1.44l-.14.34c-.04.1-.18.44-.18.52 0 .11.08.12.24.14l.18.01v.15c-.24 0-.43-.01-.58-.01-.19 0-.39.01-.57.01v-.15l.18-.01c.12-.01.21-.11.27-.24l.89-2.03c.16-.35.33-.72.46-1.09l.18-.01zm5.36 2.17h1.27l-.63-1.5-.64 1.5zm.84-2.17l1.21 2.86c.04.1.1.23.16.34.05.1.11.16.2.17l.17.01v.15c-.22 0-.44-.01-.67-.01-.18 0-.4.01-.67.01v-.15l.24-.01c.1 0 .2-.04.2-.1 0-.07-.05-.2-.1-.32l-.23-.58h-1.44l-.14.34c-.04.1-.17.44-.17.52 0 .11.08.12.24.14l.19.01v.15c-.24 0-.43-.01-.58-.01-.19 0-.39.01-.58.01v-.15l.18-.01c.12-.01.22-.11.27-.24l.89-2.03c.15-.35.33-.72.46-1.09l.17-.01zm8.49.66v2.25c0 .19.01.32.04.38.03.05.09.07.21.07l.24.01v.15c-.26-.01-.5-.01-.73-.01-.24 0-.48.01-.67.01v-.15l.17-.01c.12-.01.18-.02.21-.07.03-.06.04-.19.04-.38v-2.28c-.08.14-.16.28-.22.41l-.89 1.9c-.09.21-.18.43-.27.64h-.1l-1.39-2.95-.01 2.28c0 .19.01.32.04.38.03.05.09.07.21.07l.22.01v.15c-.22 0-.4-.01-.6-.01-.18 0-.38.01-.58.01v-.15l.22-.01c.12-.01.18-.02.21-.07.03-.06.04-.19.04-.38v-2.25c0-.19-.01-.32-.04-.38-.03-.05-.09-.06-.21-.07l-.22-.02v-.15c.16 0 .31.01.48.01.16 0 .32-.01.47-.01l1.32 2.79 1.31-2.79c.16 0 .31.01.47.01s.32-.01.47-.01v.15l-.21.02c-.12.01-.18.03-.21.07-.01.06-.02.19-.02.38m2.55 1.51h1.27l-.63-1.5-.64 1.5zm.84-2.17l1.21 2.86c.04.1.1.23.16.34.06.1.11.16.2.17l.17.01v.15c-.22 0-.44-.01-.67-.01-.18 0-.39.01-.66.01v-.15l.23-.01c.11 0 .21-.04.21-.1 0-.07-.06-.2-.1-.32l-.23-.58h-1.44l-.14.34c-.04.1-.18.44-.18.52 0 .11.08.12.24.14l.18.01v.15c-.24 0-.43-.01-.58-.01-.19 0-.38.01-.58.01v-.15l.19-.01c.12-.01.22-.11.27-.24l.89-2.03c.15-.35.32-.72.46-1.09l.17-.01zm3.17 2.44v-1.78c0-.19-.01-.32-.05-.38-.03-.05-.09-.07-.21-.07l-.24-.02v-.15c.26.01.5.01.74.01.23 0 .47 0 .73-.01v.15l-.24.02c-.12 0-.18.03-.21.07-.04.06-.04.19-.04.38v1.73c0 .71.37.92 1.03.92.54 0 1.03-.21 1.03-1.04v-1.61c0-.19-.01-.32-.04-.38-.03-.05-.09-.07-.21-.07l-.22-.02v-.15c.2 0 .4.01.58.01.2 0 .38-.01.6-.01v.15l-.22.02c-.12.01-.18.03-.21.07-.04.06-.04.19-.04.38v1.45c0 1.07-.41 1.51-1.42 1.51-.86 0-1.36-.26-1.36-1.18M27.46 2c.43 0 .97-.03 1.7-.04v.55l-.47.04c-.32.03-.52.27-.69.7l-3.07 7.38c-.21.49-.37.98-.56 1.47h-1.12l-3.53-8.47c-.18-.42-.41-1.02-.92-1.07l-.61-.04v-.55c.97.01 1.73.04 2.3.04s1.31-.03 2.42-.04v.55l-.74.04c-.22.01-.38.15-.38.28 0 .3.18.74.31 1.07l2.32 5.73 2.1-5.23c.25-.62.46-1.19.46-1.45 0-.27-.25-.39-.55-.4l-.68-.04v-.55c.72 0 1.28.03 1.71.03m3.22-.04v.6l.55.05c.38.03.55.09.61.21.09.18.1.58.1 1.2v6.04c0 .62-.01 1.02-.1 1.2-.06.12-.22.18-.61.21l-.55.04v.6c.6-.01 1.42-.04 2.3-.04.87 0 1.68.03 2.29.04v-.6l-.55-.04c-.38-.03-.55-.09-.6-.21-.09-.18-.1-.58-.1-1.2V4c0-.62.01-1.02.1-1.2.06-.12.22-.18.6-.21l.55-.05v-.6c-.61.01-1.42.04-2.29.04-.88.02-1.7-.01-2.3-.02m12.06.62c1 0 1.93.27 2.65 1.02l.08 1.28h.58c.07-.64.19-1.74.34-2.27l-.09-.16c-1.42-.59-2.41-.7-3.62-.7-3.14 0-5.9 1.71-5.9 5.12 0 3.54 2.48 5.44 5.84 5.44 1.18 0 2.37-.19 3.4-.82l.33-.73-.18-.18c-.76.44-1.95.76-2.82.76-2.79 0-4.35-1.96-4.35-4.67-.01-2.34 1.29-4.09 3.74-4.09M52.43 2c-1.49 0-3.02-.03-4.57-.04l-.09.07c.12.71.16 1.39.19 2.36h.6l.07-1.02c.01-.16.07-.28.13-.35.1-.13.51-.13.91-.13h1.72v7.17c0 .62-.01 1.02-.1 1.2-.06.12-.22.18-.6.21l-.54.04v.6c.6-.01 1.41-.04 2.3-.04.87 0 1.68.03 2.28.04v-.6l-.54-.04c-.38-.03-.55-.09-.6-.21-.09-.18-.1-.58-.1-1.2V2.89h1.72c.4 0 .81 0 .91.13.06.07.12.19.13.35l.07 1.02h.6c.03-.96.07-1.64.19-2.36l-.09-.07c-1.56.01-3.09.04-4.59.04m16.68 4.94c0 3.5-2.23 5.37-5.61 5.37-3.31 0-5.31-1.81-5.31-5.19 0-3.5 2.23-5.37 5.61-5.37 3.3 0 5.31 1.81 5.31 5.19m-2.21.26c0-2.45-1.02-4.63-3.1-4.63-2.74 0-3.39 2.06-3.39 4.28 0 2.45 1.02 4.61 3.1 4.61 2.74.01 3.39-2.03 3.39-4.26m12.43 3.63l-2.67-4.06c1.22-.44 2.2-1.32 2.2-2.62 0-1.76-1.39-2.22-2.89-2.19-1 .01-1.99.04-3 .04-.75 0-1.5-.03-2.48-.04v.56l.55.04c.38.03.53.1.6.25.09.18.1.58.1 1.2v6.04c0 .62-.01 1.02-.1 1.2-.06.12-.22.18-.6.21l-.55.04v.6c.61-.01 1.42-.04 2.3-.04.87 0 1.68.03 2.29.04v-.6l-.55-.04c-.38-.03-.55-.09-.61-.21-.09-.18-.1-.58-.1-1.2V2.84c.24-.12.63-.13.94-.13 1.15 0 1.99.65 1.99 1.87 0 1.39-1 2.24-2.36 2.12l-.1.27 3.31 5.15c.44-.01.89-.04 1.33-.04.47 0 .96.03 1.43.04v-.6c-.28-.06-.47-.1-.6-.21-.16-.16-.32-.32-.43-.48m2.55-8.87v.6l.55.05c.38.03.54.09.6.21.09.18.1.58.1 1.2v6.04c0 .62-.01 1.02-.1 1.2-.06.12-.22.18-.6.21l-.55.04v.6c.6-.01 1.42-.04 2.3-.04.87 0 1.68.03 2.29.04v-.6l-.55-.04c-.38-.03-.55-.09-.6-.21-.09-.18-.1-.58-.1-1.2V4c0-.62.01-1.02.1-1.2.06-.12.22-.18.6-.21l.55-.05v-.6c-.61.01-1.42.04-2.29.04-.88.02-1.69-.01-2.3-.02m17.06 9.58v.56c-.99-.01-1.71-.04-2.29-.04s-1.31.03-2.29.04v-.56l.78-.04c.24-.01.4-.34.21-.81L94.69 9h-3.71l-.62 1.66c-.21.56.09.83.35.84l.74.04v.56c-.71-.01-1.24-.04-1.67-.04s-.96.03-1.67.04v-.56l.44-.04c.38-.04.65-.46.83-.89l2.67-6.49.38-1.02.24-.61.22-.61h1.05l3.82 8.96c.16.37.36.59.81.65l.37.05zm-4.59-3.37L92.82 4.4l-1.47 3.77h3zm-86.6 15.8v-5.64c0-.65-.01-1.06-.11-1.25-.07-.15-.23-.23-.63-.26l-.57-.05v-.57c.63.01 1.47.04 2.4.04.91 0 1.75-.03 2.38-.04v.58l-.57.05c-.4.03-.55.11-.63.26-.09.19-.11.6-.11 1.25v3.82c0 2.17.14 3.54 2.73 3.54 2.56 0 2.86-1.42 2.86-3.65v-3.71c0-.65-.02-1.06-.11-1.25-.08-.15-.23-.23-.63-.26l-.57-.05v-.58c.59.01 1.18.04 1.76.04.59 0 1.17-.03 1.75-.04v.58l-.57.05c-.4.03-.55.11-.63.26-.09.19-.11.6-.11 1.25v4.5c0 2.82-1.49 4.13-4.27 4.13-2.88-.01-4.37-1.25-4.37-3m12.8.64v-6.28c0-.65-.02-1.06-.11-1.25-.08-.15-.23-.23-.63-.26l-.57-.05v-.57c.61.01 1.23.04 1.84.04.43 0 .86-.03 1.29-.04.52.69 1.03 1.41 1.58 2.06l4.79 5.61v-5.53c0-.65-.01-1.06-.11-1.25-.08-.15-.23-.23-.63-.26l-.57-.05v-.58c.58.01 1.18.04 1.77.04.58 0 1.17-.03 1.75-.04v.58l-.57.05c-.4.03-.55.11-.63.26-.09.18-.11.6-.11 1.25v7c0 .54.03 1.1.05 1.56l-1.37-.14c-.63-.71-1.28-1.43-1.88-2.15l-4.98-6.01-.03 6.02c0 .65.02 1.06.11 1.25.07.15.23.23.63.26l.57.05v.58c-.58-.01-1.17-.04-1.75-.04s-1.18.03-1.77.04v-.58l.57-.05c.4-.03.55-.11.63-.26.11-.19.13-.61.13-1.26m15.52-6.28v6.29c0 .65.01 1.06.11 1.25.06.12.23.18.63.22l.57.05v.62c-.63-.01-1.47-.04-2.38-.04-.92 0-1.77.03-2.4.04v-.62l.57-.05c.4-.03.57-.09.63-.22.09-.19.11-.6.11-1.25v-6.29c0-.65-.02-1.06-.11-1.25-.06-.12-.23-.19-.63-.22l-.57-.05v-.61c.63.01 1.48.04 2.4.04.91 0 1.75-.03 2.38-.04v.62l-.57.05c-.4.03-.57.09-.63.22-.1.18-.11.59-.11 1.24m6.78-.11l2.41 5.97 2.18-5.44c.26-.65.47-1.23.47-1.51s-.26-.4-.57-.42l-.71-.05v-.57c.75.01 1.34.04 1.78.04s1.01-.03 1.76-.04v.58l-.47.04c-.34.03-.54.28-.72.72l-3.19 7.68c-.22.51-.38 1.02-.58 1.53h-1.17l-3.67-8.82c-.18-.43-.43-1.06-.95-1.11l-.63-.05v-.57c1.01.01 1.79.04 2.39.04s1.37-.03 2.52-.04v.58l-.77.05c-.23.02-.4.15-.4.29 0 .3.18.77.32 1.1M55 17.14v3.7c.35.03.69.03 1.03.03h1.01c.54 0 .85-.03.88-.32l.09-.88h.62c-.02.56-.05 1.1-.05 1.65 0 .56.03 1.11.05 1.67h-.62l-.09-.77c-.05-.43-.34-.57-.88-.57h-1.01c-.34 0-.68.02-1.03.05v4.12c.64.03 1.3.05 1.96.05.71 0 1.84-.14 1.88-.26l.36-1.45h.6l-.17 2.44c-1.08.2-2.86.2-3.86.17-.63-.02-1.26-.05-1.89-.05-.64 0-1.28.03-1.84.05v-.35l.49-.28c.25-.14.31-.4.31-.88v-6.91c0-.65-.02-1.06-.11-1.25-.08-.15-.23-.23-.63-.26l-.57-.05v-.59c1.01.02 1.8.05 2.4.05 1.44 0 2.49-.03 3.36-.05.86-.01 1.53-.01 2.24.05l-.12 2.3h-.55l-.12-1.16c-.03-.23-1.06-.29-1.77-.29-.67-.01-1.33.01-1.97.04m7.92 7.47v-6.28c0-.65-.02-1.06-.11-1.25-.08-.15-.23-.23-.63-.26l-.57-.05v-.57c1.01.02 1.8.05 2.58.05 1.04 0 2.07-.03 3.12-.05 1.57-.03 3.01.45 3.01 2.28 0 1.36-1.01 2.27-2.29 2.73l2.78 4.22c.11.17.28.34.44.48.14.11.34.15.63.22v.62c-.49-.01-1-.04-1.49-.04-.46 0-.92.03-1.38.04l-3.44-5.36.11-.28c1.41.12 2.46-.76 2.46-2.2 0-1.26-.87-1.94-2.07-1.94-.32 0-.74.02-.98.14v7.51c0 .65.02 1.06.11 1.25.06.12.23.19.63.22l.57.05v.62c-.63-.01-1.47-.04-2.38-.04-.92 0-1.77.03-2.39.04v-.62l.57-.05c.4-.03.57-.09.63-.22.08-.19.09-.61.09-1.26m11.01-1.02h.62l.11 1.36c.42.71 1.61 1.19 2.41 1.19 1.3 0 2.41-.69 2.41-2.04 0-.66-.4-1.17-1.27-1.43l-2.15-.65c-1.29-.39-2.24-1.29-2.24-2.62 0-2.47 1.83-3.41 4.05-3.41.95 0 1.96.17 2.85.52-.08.68-.14 1.57-.14 2.38h-.63l-.09-1.26c-.46-.53-1.32-.85-2.04-.85-1.43 0-2.1.83-2.1 1.87 0 .69.49 1.2 1.63 1.5l1.75.46c1.41.37 2.32 1.26 2.32 2.65 0 2.62-2.17 3.72-4.5 3.72-1.1 0-2.22-.23-3.21-.71.17-.93.22-1.8.22-2.68m13.05-5.26v6.29c0 .65.01 1.06.11 1.25.06.12.23.18.63.22l.57.05v.62c-.63-.01-1.47-.04-2.38-.04-.92 0-1.77.03-2.4.04v-.62l.57-.05c.4-.03.57-.09.63-.22.09-.19.11-.6.11-1.25v-6.29c0-.65-.01-1.06-.11-1.25-.06-.12-.23-.19-.63-.22l-.57-.05v-.61c.63.01 1.47.04 2.4.04.9 0 1.75-.03 2.38-.04v.62l-.57.05c-.4.03-.57.09-.63.22-.09.18-.11.59-.11 1.24m8.82-1.18v7.46c0 .65.01 1.06.11 1.25.06.12.23.18.63.22l.57.05v.62c-.63-.01-1.47-.04-2.38-.04-.92 0-1.76.03-2.39.04v-.62l.57-.05c.4-.03.57-.09.63-.22.09-.19.11-.6.11-1.25v-7.46h-1.79c-.41 0-.84 0-.95.14-.06.08-.12.2-.14.37l-.08 1.06h-.62c-.03-1-.08-1.71-.2-2.45 1.71-.06 3.3-.03 4.85-.03 1.57 0 3.16-.03 4.78-.05-.03.82-.08 1.53-.11 2.53h-.62l-.08-1.06a.753.753 0 0 0-.14-.37c-.11-.14-.54-.14-.95-.14h-1.8zm10.82 4.05l2.89-4.96h1.18v.29l-2.7 4.01c-.32.48-.58 1.02-.81 1.54v2.52c0 .65.02 1.07.11 1.25.06.12.23.19.63.22l.57.05v.62c-.63-.01-1.47-.04-2.38-.04-.92 0-1.76.03-2.39.04v-.62l.57-.05c.4-.03.57-.09.63-.22.09-.18.11-.6.11-1.25v-2.15c-.29-.66-.47-.99-.67-1.31l-1.55-2.52c-.21-.34-.54-.74-.8-1.03-.35-.39-.68-.51-1.2-.51v-.57l2.44-.54c.85.46 1.32 1.26 1.75 2.08l1.62 3.15zm-10.14 9.17c-3.52 0-5.83 1.94-5.83 5.58 0 3.52 2.09 5.4 5.53 5.4 3.52 0 5.84-1.94 5.84-5.58-.02-3.52-2.1-5.4-5.54-5.4m-.31 10.12c-2.16 0-3.22-2.25-3.22-4.8 0-2.31.68-4.46 3.53-4.46 2.17 0 3.23 2.27 3.23 4.81-.01 2.32-.68 4.45-3.54 4.45m8.68-1.49v-6.28c0-.65-.02-1.07-.11-1.25-.08-.15-.23-.23-.63-.26l-.57-.05v-.58c.61.02 1.23.05 1.84.05.43 0 .86-.03 1.29-.05.52.69 1.03 1.41 1.58 2.06l4.79 5.61v-5.53c0-.65-.01-1.07-.11-1.25-.08-.15-.23-.23-.63-.26l-.57-.05v-.58c.58.02 1.18.05 1.76.05s1.17-.03 1.75-.05v.58l-.57.05c-.4.03-.55.11-.63.26-.09.18-.11.6-.11 1.25v7c0 .54.03 1.1.04 1.56l-1.36-.14c-.63-.71-1.28-1.43-1.88-2.15l-4.97-6.01-.03 6.02c0 .65.01 1.06.11 1.25.07.15.23.23.63.26l.57.04v.58c-.58-.01-1.17-.04-1.75-.04s-1.18.03-1.76.04v-.58l.57-.04c.4-.03.55-.11.63-.26.1-.18.12-.6.12-1.25M6.54 37.85l2.29-5.43.78-1.91h.69c.24.71.49 1.39.75 2.06l2.09 5.24 1.5-5.78c.05-.18.06-.32.06-.51 0-.18-.28-.29-.54-.31l-.7-.05v-.58c.69.02 1.23.04 1.66.04.41 0 .95-.03 1.66-.04v.58l-.51.05c-.28.03-.48.42-.66 1.06l-1.87 6.66c-.2.72-.34 1.47-.51 2.2h-1.12c-.2-.54-.37-1.08-.59-1.62l-2.29-5.78-2.38 5.47c-.28.63-.48 1.28-.72 1.93H5.05l-2.13-9.28c-.11-.45-.29-.62-.57-.65l-.49-.05v-.58c1.01.02 1.8.04 2.4.04s1.36-.03 2.06-.04v.58l-.64.05c-.2.01-.46.18-.46.35 0 .11.01.26.05.43l1.24 5.86h.03v.01zm15.21-6.32v3.7c.35.03.69.03 1.03.03h1.01c.54 0 .85-.03.88-.32l.09-.88h.62c-.02.55-.05 1.09-.05 1.65 0 .55.03 1.11.05 1.67h-.62l-.09-.77c-.05-.43-.34-.57-.88-.57h-1.01c-.34 0-.68.01-1.03.04v4.12c.65.03 1.31.05 1.97.05.7 0 1.84-.14 1.87-.26l.36-1.45h.6l-.17 2.44c-1.08.2-2.86.2-3.86.17-.63-.01-1.26-.05-1.89-.05-.65 0-1.28.03-1.84.05v-.35l.49-.28c.24-.14.31-.4.31-.88v-6.91c0-.65-.02-1.06-.11-1.25-.08-.15-.23-.23-.63-.26l-.57-.05v-.58c1.01.02 1.79.05 2.4.05 1.44 0 2.49-.03 3.36-.05.86-.01 1.53-.01 2.24.05l-.12 2.3h-.55l-.12-1.16c-.03-.23-1.06-.29-1.76-.29-.67-.01-1.33.01-1.98.04m9.79 1.19v7.48c.65.03 1.31.05 1.97.05.7 0 1.84-.14 1.88-.26l.35-1.57h.6l-.17 2.56c-1.08.2-2.86.2-3.86.17-.63-.01-1.26-.05-1.89-.05-.65 0-1.28.03-1.84.05v-.35l.49-.28c.24-.14.3-.4.3-.88v-6.91c0-.65-.01-1.06-.11-1.25-.06-.12-.23-.18-.63-.22l-.57-.05v-.62c.63.02 1.47.04 2.4.04.9 0 1.75-.03 2.38-.04v.62l-.57.05c-.4.03-.57.09-.63.22-.09.17-.1.59-.1 1.24m9.78 0v7.48c.65.03 1.31.05 1.97.05.7 0 1.84-.14 1.88-.26l.35-1.57h.6l-.17 2.56c-1.08.2-2.86.2-3.86.17-.63-.01-1.26-.05-1.89-.05-.65 0-1.27.03-1.84.05v-.35l.49-.28c.25-.14.31-.4.31-.88v-6.91c0-.65-.01-1.06-.11-1.25-.06-.12-.23-.18-.63-.22l-.57-.05v-.62c.63.02 1.47.04 2.4.04.91 0 1.75-.03 2.38-.04v.62l-.57.05c-.4.03-.57.09-.63.22-.1.17-.11.59-.11 1.24m9.58 0v6.29c0 .65.01 1.06.11 1.25.06.12.23.18.63.22l.57.05v.62c-.63-.02-1.47-.05-2.38-.05-.92 0-1.76.03-2.4.05v-.62l.57-.05c.4-.03.57-.09.63-.22.09-.19.11-.6.11-1.25v-6.29c0-.65-.02-1.06-.11-1.25-.06-.12-.23-.18-.63-.22l-.57-.05v-.62c.63.01 1.47.04 2.4.04.91 0 1.75-.03 2.38-.04v.62l-.57.05c-.4.03-.57.09-.63.22-.1.19-.11.6-.11 1.25M55.05 39v-6.28c0-.65-.02-1.07-.11-1.25-.08-.15-.23-.23-.63-.26l-.57-.05v-.58c.62.02 1.23.05 1.84.05.43 0 .86-.03 1.29-.05.52.69 1.03 1.41 1.58 2.06l4.79 5.61v-5.53c0-.65-.02-1.07-.11-1.25-.07-.15-.23-.23-.63-.26l-.57-.05v-.58c.58.02 1.18.05 1.77.05.58 0 1.17-.03 1.75-.05v.58l-.57.05c-.4.03-.55.11-.63.26-.09.18-.11.6-.11 1.25v7c0 .54.03 1.1.04 1.56l-1.36-.14c-.63-.71-1.27-1.43-1.88-2.15l-4.97-6.01-.03 6.02c0 .65.01 1.06.11 1.25.07.15.23.23.63.26l.57.04v.58c-.59-.01-1.17-.04-1.75-.04s-1.18.03-1.76.04v-.58l.57-.04c.4-.03.55-.11.63-.26.09-.18.11-.6.11-1.25m22.53-1.09v2.52c-1.41.56-2.9.92-4.49.92-3.5 0-6.08-1.97-6.08-5.66 0-3.55 2.87-5.32 6.14-5.32 1.39 0 2.76.12 4.23.73-.06.72-.18 1.87-.26 2.53h-.61l-.07-1.33c-.6-.71-1.96-1.06-3.22-1.06-2.55 0-3.9 1.82-3.9 4.26 0 2.67 1.36 5 4.13 5 .68 0 1.31-.14 1.95-.39v-2.04c0-.48-.38-.56-.88-.57l-.82-.04v-.63c.75.02 1.5.05 2.26.05.75 0 1.49-.03 2.24-.05v.53c-.52.1-.62.17-.62.55m8-6.37V39c0 .65.02 1.06.11 1.25.06.12.23.19.63.22l.57.05v.62c-.63-.02-1.47-.04-2.38-.04-.92 0-1.76.03-2.39.04v-.62l.57-.05c.4-.03.57-.09.63-.22.1-.18.11-.6.11-1.25v-7.46h-1.79c-.41 0-.84 0-.95.14-.06.08-.12.2-.14.37l-.08 1.06h-.62c-.03-1-.08-1.71-.2-2.45 1.71-.06 3.3-.03 4.85-.03 1.57 0 3.16-.03 4.78-.05-.03.82-.08 1.53-.11 2.53h-.62l-.07-1.06a.753.753 0 0 0-.14-.37c-.11-.14-.53-.14-.95-.14h-1.81z" fill="#fff"/></svg>