<svg data-name="Layer 1" xmlns="http://www.w3.org/2000/svg" viewBox="0 0 213.67 172.3"><path d="M24.54 171.82l-.97-1.93h-5.44v-3.49h5.31v-1.94h-5.31v-3.27h5.44l.97-1.94h-8.61v12.57h8.61zm-17 0v-10.63h2.98l.83-1.94H1.53v1.94h3.81v10.63h2.2zm39.53 0v-12.57h-2.2v5.15h-6.54v-5.15h-2.21v12.57h2.21v-5.48h6.54v5.48h2.2zm14.46.02l-.97-1.94h-5.43v-3.49h5.3v-1.94h-5.3v-3.27h5.43l.97-1.94h-8.61v12.58h8.61zm14.97-.02l-3.07-4.93a3.53 3.53 0 0 0 3-3.7 3.82 3.82 0 0 0-4.11-3.94h-5.54v12.57H69v-4.69h2.19l2.81 4.69zm-4.5-6.63h-3v-4h3a2 2 0 1 1 0 4m18.71 6.65l-.98-1.94H84.3v-3.49h5.3v-1.94h-5.3v-3.27h5.43l.98-1.94h-8.62v12.58h8.62zm16.88-.02v-12.57h-2.21v8.73l-6.43-8.73h-2.26v12.57h2.21v-8.97l6.56 8.97h2.13zM123.65 161a5.81 5.81 0 0 0-4.5-2 6.51 6.51 0 1 0 0 13 6.82 6.82 0 0 0 5.19-2.28v-4.71h-5V167h2.84v2a4.57 4.57 0 0 1-3 1.13 4.56 4.56 0 0 1 0-9.11 4 4 0 0 1 3.06 1.46zm18 10.82l-4.94-12.57H134l-5 12.57h2.51l.92-2.41h5.77l.92 2.41zm-4.05-4.35h-4.53l2.27-6zm26.06 4.35l3.15-12.57h-2.47l-2 9.43-2.6-9.43h-1.75l-2.6 9.43-2.03-9.43h-2.47l3.18 12.57h2.36l2.43-9.27 2.45 9.27h2.35zm18.59 0l-4.94-12.57h-2.75l-4.94 12.57h2.51l.92-2.41h5.77l.92 2.41zm-4.05-4.35h-4.53l2.27-6zm18.58 4.35l-5.49-6.63 5.11-5.94h-2.73l-4.92 6v-6h-2.21v12.57h2.21v-4.01l1.09-1.28 4.22 5.29h2.72zm16.05 0l-4.94-12.57h-2.75l-4.94 12.57h2.51l.92-2.41h5.77l.92 2.41zm-4.05-4.35h-4.52l2.26-6zm4.66-16.6v-22.85h-4.9v14.35l-10.65-14.35h-5.04v22.85h4.9v-14.9l10.96 14.9h4.73zm-188.68-.15l5.6-22.85h-5.51L21.8 143.9l-4.35-16.03h-3.82L9.25 143.9l-3.09-16.03H.68l5.64 22.85h5.2l4-15.69 4.04 15.69h5.2zm25.48.18l-1.88-4.28h-9.5v-5.18h9.26v-4.28h-9.26v-4.83h9.5l1.88-4.28H33.97v22.85h16.27zm93.89-19.69a10.84 10.84 0 0 0-8.48-3.68c-6.79 0-12.35 4.63-12.35 11.93s5 12 11.81 12a14.12 14.12 0 0 0 10.42-4.36v-8.85h-10.12v4.29h5.18v2.77a7.89 7.89 0 0 1-4.94 1.76 7.58 7.58 0 0 1 0-15.14 6.52 6.52 0 0 1 5.19 2.63zm33.02 20.07c7 0 12.28-4.93 12.28-11.82s-5.07-11.82-12-11.82-12 4.94-12 11.82 4.82 11.82 11.75 11.82m.25-4.32c-4.24 0-7-3.25-7-7.5s2.73-7.5 7-7.5 7 3.22 7 7.5-2.76 7.5-7 7.5m-18.98 3.91V132.3h5.75l1.88-4.28H146.8v4.28h6.72v18.57h4.93zm-69.23-22.85h4.9v22.85h-4.9zm-21.55 22.85v-4.28h-8.7v-18.57h-4.89v22.85h13.59zm17.57 0v-4.28h-8.69v-18.57h-4.9v22.85h13.59zm34.47 0v-22.85h-4.89v14.35l-10.65-14.35h-5.04v22.85h4.9v-14.9l10.96 14.9h4.72zm-76.15-30.38a5 5 0 1 0-4.92-5 4.77 4.77 0 0 0 4.92 5m0-1.5a3.49 3.49 0 1 1 3.19-3.47 3.19 3.19 0 0 1-3.19 3.48m-36.95 1.32l3.44-9.62H8.13l-2.57 7.79-2.57-7.79H1.07l3.44 9.62h2.1zm70.97 0l-3.78-9.62h-2.11l-3.78 9.62h1.92l.71-1.85H75l.71 1.85zm-3.1-3.32H71l1.73-4.59zm-60.99-6.3h1.69v9.62h-1.69zm12.33 2.52l1.18-1.14a4.24 4.24 0 0 0-3.39-1.54 5 5 0 1 0 0 9.95 4.24 4.24 0 0 0 3.39-1.55l-1.13-1.13a2.81 2.81 0 0 1-2.31 1.19 3.48 3.48 0 0 1 0-6.95 2.84 2.84 0 0 1 2.26 1.18m8.18 7.09v-8.14h2.28l.64-1.48H29.4v1.48h2.92v8.14H34zm25.18 0l-2.35-3.78a2.7 2.7 0 0 0 2.27-2.83 2.92 2.92 0 0 0-3.14-3h-4.23v9.62h1.69v-3.59h1.67l2.14 3.59zm-3.45-5.08h-2.31v-3.06h2.31a1.53 1.53 0 1 1 0 3.06m7.28-4.54h1.69v9.62h-1.69zm27.12 9.79c2.78 0 4.15-1.58 4.15-4v-5.79h-1.7v5.77a2.46 2.46 0 1 1-4.92 0v-5.77H86v5.83c0 2.36 1.37 4 4.17 4m16.52-.21v-9.62H105v6.68l-4.92-6.68h-1.73v9.62h1.68v-6.87l5.03 6.87h1.63zm4.47-9.62h1.69v9.62h-1.69zm10.97 9.62l3.44-9.62h-1.92l-2.57 7.79-2.57-7.79h-1.92l3.44 9.62h2.1zm13.8 0l-.75-1.49h-4.16v-2.67h4.06v-1.48h-4.06v-2.5h4.16l.75-1.48h-6.59v9.62h6.59zm11.51 0l-2.35-3.78a2.7 2.7 0 0 0 2.28-2.83 2.92 2.92 0 0 0-3.14-3H140v9.62h1.68v-3.59h1.68l2.14 3.59zm-3.44-5.08h-2.32v-3.06H144a1.53 1.53 0 1 1 0 3.06m13-2.24l1.12-1.13a5 5 0 0 0-3.59-1.33c-2.11 0-3.51 1.23-3.51 2.81 0 3.56 5.61 2.3 5.61 4.32 0 .64-.55 1.31-1.93 1.31a4.14 4.14 0 0 1-2.87-1.16l-1.09 1.1a5.17 5.17 0 0 0 3.91 1.52c2.59 0 3.72-1.37 3.72-3 0-3.59-5.6-2.48-5.6-4.27 0-.72.63-1.2 1.63-1.2a4 4 0 0 1 2.62 1m5.29-2.27H164v9.62h-1.69zm9.91 9.62v-8.14h2.28l.64-1.48h-7.52v1.48h2.92v8.14h1.68zm10.29 0v-4l3.38-5.62h-1.94l-2.28 4.12-2.31-4.12h-1.93l3.39 5.62v4h1.69zm15.23.17a5 5 0 1 0-4.92-5 4.77 4.77 0 0 0 4.92 5m0-1.5a3.49 3.49 0 1 1 3.19-3.47 3.19 3.19 0 0 1-3.19 3.47m10.4 1.33v-4.16h4.03v-1.48h-4.03v-2.5h4.15l.76-1.48h-6.6v9.62h1.69zM77.94 66.13c3.83-.06 5.55-2.89 9.38-3 4.11-.09 6 3 10.11 3s6-3 10.11-3 6 3 10.12 3 6-3.08 10.11-3c3.83.09 5.52 2.92 9.35 3C128 76 113 83.92 107.49 86.35c-4.39-1.77-21-9.94-30.69-20.45a5 5 0 0 0 1.14.23m61.35-19.54l-10.13 10.24L119 46.59zM108.23 35h20.25l-10.12 10.24zm9.45 11.58l-10.13 10.25-10.13-10.24zM97.42 23.43h20.26l-10.13 10.23zm-1.35 23.16L85.94 56.83 75.81 46.59zM86.62 35h20.25L96.75 45.24zm57.89-28.5V17h-74.9V6.5zM63.42.24v50.85c0 22.94 39.72 40.61 43.4 41.58l1 .26.95-.38c.42-.17 42-18.18 42-41.46V.24z" fill="#004b34"/></svg>