<svg version="1.1" id="Layer_2" xmlns="http://www.w3.org/2000/svg" x="0" y="0" viewBox="0 0 333.64 139.86" xml:space="preserve"><style>.st1{fill:#004b34}</style><path fill="none" d="M0 0h333.64v139.86H0z"/><path class="st1" d="M254.85 103.48h-1.51v5.44h1.51c1.64 0 2.6-1.24 2.6-2.71.01-1.54-.89-2.73-2.6-2.73zm-43.97 3.97h2.59l-1.29-3.75zm20.24 0h2.59l-1.29-3.75z"/><path class="st1" d="M98.41 95.39v21.62h211.64V95.39H98.41zm57.75 15.16h-1.7l-3.96-5.67v5.67h-1.77v-8.7h1.82l3.85 5.46v-5.46h1.77v8.7zm9.24-5.23v1.63h-3.3v1.97h3.38l.72 1.63h-5.87v-8.7h5.87l-.72 1.63h-3.38v1.84h3.3zm12.74 5.23h-1.88l-1.46-5.97-1.44 5.97h-1.88l-2.09-8.7h1.98l1.17 6.29 1.58-6.29h1.38l1.57 6.29 1.16-6.29h1.99l-2.08 8.7zm16.85 0h-6.32v-1.5l3.92-5.57h-3.92v-1.63h6.23v1.48l-3.92 5.58h4.01v1.64zm9.04-5.23v1.63h-3.3v1.97h3.38l.72 1.63h-5.87v-8.7h5.87l-.72 1.63h-3.38v1.84h3.3zm10.44 5.23l-.51-1.47h-3.56l-.52 1.47h-2.02l3.21-8.7h2.22l3.2 8.7h-2.02zm10.64 0h-5.28v-8.7h1.77v7.07h3.51v1.63zm9.6 0l-.51-1.47h-3.56l-.52 1.47h-2.02l3.21-8.7h2.22l3.2 8.7h-2.02zm12.65 0h-1.7l-3.96-5.67v5.67h-1.77v-8.7h1.82l3.85 5.46v-5.46h1.77v8.7zm7.49 0h-3.27v-8.7h3.27c2.6 0 4.41 1.73 4.41 4.36 0 2.62-1.8 4.34-4.41 4.34zM121.24 86.98l-.97-1.92h-5.38V81.6h5.25v-1.92h-5.25v-3.22h5.38l.97-1.92h-8.53v12.44zm-16.82 0V76.46h2.94l.82-1.92h-9.71v1.92h3.77v10.52zm39.96 0V74.54h-2.18v5.09h-6.47v-5.09h-2.18v12.44h2.18v-5.43h6.47v5.43zm14.31.01l-.96-1.92h-5.38v-3.46h5.25V79.7h-5.25v-3.23h5.38l.96-1.92h-8.52v12.44zm14.81-.02l-3.04-4.89c1.49-.24 2.94-1.43 2.94-3.66 0-2.29-1.6-3.9-4.06-3.9h-5.46v12.44h2.18v-4.64h2.16l2.76 4.64h2.52zm-4.45-6.56h-2.98v-3.96h2.98c1.23 0 2.13.78 2.13 1.98-.01 1.2-.9 1.98-2.13 1.98m18.51 6.58l-.96-1.92h-5.38v-3.46h5.25V79.7h-5.25v-3.23h5.38l.96-1.92h-8.52v12.44zm16.7-.01V74.54h-2.18v8.63l-6.36-8.63h-2.24v12.44h2.18V78.1l6.49 8.88zm15.89-10.7c-1.01-1.11-2.41-1.95-4.45-1.95-3.6 0-6.53 2.54-6.53 6.44 0 3.9 2.93 6.45 6.53 6.45 2.17 0 3.9-.89 5.13-2.25V80.3h-4.99v1.92h2.81v1.94c-.56.52-1.68 1.12-2.95 1.12-2.46 0-4.29-1.9-4.29-4.51s1.83-4.5 4.29-4.5c1.28 0 2.35.62 3.03 1.44l1.42-1.43zm17.81 10.69l-4.89-12.44h-2.72l-4.89 12.44h2.48l.91-2.39h5.71l.91 2.39h2.49zm-4.01-4.3h-4.48l2.24-5.93 2.24 5.93zm27.2 4.31l3.12-12.44h-2.44l-1.98 9.33-2.58-9.33h-1.73l-2.57 9.33-2.01-9.33h-2.44l3.14 12.44h2.33l2.41-9.18 2.42 9.18zm18.39-.01l-4.89-12.44h-2.72l-4.89 12.44h2.48l.91-2.39h5.71l.91 2.39h2.49zm-4.01-4.3h-4.48l2.24-5.93 2.24 5.93zm18.39 4.31l-5.43-6.57 5.06-5.87h-2.71l-4.87 5.93v-5.93h-2.18v12.44h2.18V83l1.08-1.27 4.18 5.25zm15.88-.01l-4.89-12.44h-2.72l-4.89 12.44h2.48l.91-2.39h5.71l.91 2.39h2.49zm-4.01-4.3h-4.48l2.24-5.93 2.24 5.93zm-.32-39.36v14.35l-10.65-14.35h-5.03v22.84h4.9v-14.9l10.96 14.9h4.72V43.31zM121.7 66.01l5.6-22.85h-5.52l-3.05 16.03-4.34-16.03h-3.83l-4.38 16.03-3.08-16.03h-5.48l5.63 22.85h5.21l4-15.69 4.03 15.69zm25.47.17l-1.88-4.28h-9.49v-5.17h9.25v-4.28h-9.25v-4.83h9.49l1.88-4.29H130.9v22.85zm93.89-19.69c-1.82-2.07-4.54-3.68-8.48-3.68-6.79 0-12.35 4.63-12.35 11.93 0 7.26 5.02 11.96 11.81 11.96 4.21 0 8.06-1.73 10.42-4.36V53.5h-10.12v4.29h5.18v2.77c-.94.86-2.89 1.76-4.94 1.76-4.21 0-7.27-3.21-7.27-7.57s3.06-7.57 7.27-7.57c2.27 0 4.09 1.18 5.19 2.63l3.29-3.32zm33.03 20.07c6.96 0 12.28-4.93 12.28-11.82 0-6.89-5.07-11.82-12.03-11.82-6.93 0-12 4.93-12 11.82 0 6.89 4.82 11.82 11.75 11.82m.24-4.31c-4.24 0-6.96-3.25-6.96-7.5 0-4.28 2.72-7.5 6.96-7.5s7 3.22 7 7.5c0 4.25-2.76 7.5-7 7.5m-18.94 3.9V47.59h5.74l1.88-4.28h-19.28v4.28h6.73v18.56zm-69.24-22.84h4.9v22.85h-4.9zM164.6 66.15v-4.28h-8.69V43.31h-4.9v22.84zm17.57 0v-4.28h-8.69V43.31h-4.9v22.84zm34.48 0V43.31h-4.9v14.35L201.1 43.31h-5.03v22.84h4.89v-14.9l10.96 14.9zm-76.16-30.37c2.89 0 4.92-2.1 4.92-4.98 0-2.87-2.03-4.98-4.92-4.98s-4.92 2.11-4.92 4.98c0 2.87 2.03 4.98 4.92 4.98m0-1.5c-1.95 0-3.19-1.5-3.19-3.48 0-1.99 1.24-3.48 3.19-3.48 1.93 0 3.19 1.49 3.19 3.48 0 1.98-1.26 3.48-3.19 3.48m-36.94 1.33l3.43-9.63h-1.92l-2.57 7.79-2.57-7.79H98l3.44 9.63zm70.96 0l-3.78-9.62h-2.11l-3.78 9.62h1.92l.71-1.85h4.42l.71 1.85h1.91zm-3.1-3.34h-3.46l1.73-4.59 1.73 4.59zm-60.98-6.29h1.69v9.62h-1.69zm12.32 2.53l1.13-1.14c-.74-.87-1.81-1.55-3.39-1.55-2.84 0-5.05 2.02-5.05 4.98s2.21 4.98 5.05 4.98c1.59 0 2.65-.68 3.39-1.55l-1.13-1.14c-.49.69-1.32 1.19-2.26 1.19-1.9 0-3.32-1.46-3.32-3.48s1.42-3.48 3.32-3.48c.94 0 1.77.51 2.26 1.19m8.19 7.1v-8.14h2.28l.63-1.49h-7.51v1.49h2.91v8.14zm25.17-.01l-2.35-3.78c1.15-.19 2.28-1.11 2.28-2.83 0-1.78-1.24-3.02-3.15-3.02h-4.23v9.62h1.69V32h1.68l2.14 3.59h1.94zm-3.45-5.07h-2.31v-3.06h2.31c.95 0 1.65.61 1.65 1.53s-.69 1.53-1.65 1.53m7.28-4.55h1.69v9.62h-1.69zm27.12 9.8c2.79 0 4.16-1.58 4.16-3.98v-5.82h-1.7v5.77c0 1.53-.85 2.53-2.45 2.53-1.62 0-2.47-.99-2.47-2.53v-5.77h-1.7v5.83c-.01 2.37 1.36 3.97 4.16 3.97m16.56-.17v-9.63h-1.69v6.68l-4.92-6.68h-1.73v9.63h1.69v-6.87l5.02 6.87zm4.48-9.63h1.69v9.62h-1.69zm10.97 9.63l3.43-9.63h-1.92l-2.57 7.79-2.57-7.79h-1.91l3.43 9.63zm13.79 0l-.74-1.49h-4.16v-2.67h4.06v-1.48h-4.06v-2.5h4.16l.74-1.49h-6.59v9.63zm11.52-.01l-2.35-3.78c1.15-.19 2.28-1.11 2.28-2.83 0-1.78-1.24-3.02-3.15-3.02h-4.23v9.62h1.69V32h1.68l2.14 3.59h1.94zm-3.45-5.07h-2.31v-3.06h2.31c.95 0 1.65.61 1.65 1.53s-.7 1.53-1.65 1.53m13-2.23l1.12-1.13c-.89-.86-2.1-1.33-3.59-1.33-2.11 0-3.51 1.23-3.51 2.81 0 3.55 5.61 2.3 5.61 4.32 0 .63-.55 1.31-1.94 1.31-1.24 0-2.2-.53-2.86-1.17l-1.09 1.1-.03.03c.85.91 2.14 1.53 3.91 1.53 2.6 0 3.72-1.37 3.72-2.97 0-3.59-5.6-2.48-5.6-4.27 0-.72.64-1.2 1.63-1.2.96.01 1.9.32 2.63.97m5.32-2.32h1.69v9.62h-1.69zm9.91 9.63v-8.14h2.28l.64-1.49h-7.52v1.49h2.91v8.14zm10.28 0v-4l3.38-5.63h-1.93l-2.28 4.13-2.31-4.13h-1.94l3.39 5.63v4zm15.24.17c2.89 0 4.92-2.1 4.92-4.98 0-2.87-2.03-4.98-4.92-4.98s-4.92 2.11-4.92 4.98c0 2.87 2.03 4.98 4.92 4.98m0-1.5c-1.95 0-3.19-1.5-3.19-3.48 0-1.99 1.24-3.48 3.19-3.48 1.93 0 3.19 1.49 3.19 3.48 0 1.98-1.26 3.48-3.19 3.48m10.4 1.33v-4.16h4.03v-1.48h-4.03v-2.5h4.14l.76-1.49h-6.59v9.63zM55.31 50.3l-7.24 7.33h14.52z"/><path class="st1" d="M27.46 28.53h55.03v9.88H27.46v-9.88zm35.23 29.19H77.5l-7.41 7.47-7.4-7.47-7.41 7.47-7.41-7.47-7.43 7.47-7.39-7.47h14.82l-7.39-7.47h14.78l-7.4-7.47h14.81l-7.4 7.47H70.1l-7.41 7.47zm-32.13 11.6c.85.67 1.79 1.08 2.79 1.08 2.8-.05 4.05-2.12 6.85-2.18 3-.07 4.38 2.19 7.39 2.19 3 0 4.38-2.19 7.39-2.19 3 0 4.38 2.19 7.39 2.19s4.39-2.26 7.39-2.19c2.8.06 4.04 2.13 6.84 2.18 1 0 1.95-.41 2.81-1.09-1.93 2.69-4.95 5.75-9.62 9.14-5.99 4.34-12.28 7.37-14.81 8.42-2.53-1.05-8.81-4.08-14.8-8.42-4.67-3.39-7.7-6.44-9.62-9.13m56.32-45.3v-.06H23.09v.06h-.01v37.1c0 17.01 30.64 30.41 31.89 30.41s31.91-13.4 31.91-30.41v-37.1z"/><path class="st1" d="M61.49 35.58l1.68-3.8v-.53h-3.12v.67h2.25l-1.64 3.66h.83zm-4.51-2.2c-.47 0-.88-.24-.88-.77 0-.34.3-.75.86-.75.67 0 .93.55.97 1.02-.22.3-.58.5-.95.5m-.18 2.27c1.25 0 1.91-.99 1.91-2.23 0-1.21-.51-2.24-1.78-2.24-.97 0-1.6.66-1.6 1.45 0 .92.67 1.4 1.45 1.4.51 0 .96-.32 1.16-.61v.13c0 .71-.36 1.42-1.14 1.42-.41 0-.66-.14-.89-.38l-.35.57c.29.3.7.49 1.24.49m-4.66-.67c-.49 0-.9-.23-.9-.61 0-.45.62-.65.9-.68.27.03.89.23.89.68 0 .38-.41.61-.89.61m0-1.93c-.27-.05-.82-.2-.82-.61 0-.36.35-.58.82-.58.46 0 .82.21.82.58 0 .4-.55.56-.82.61m0 2.61c.88 0 1.65-.41 1.65-1.19 0-.55-.45-.95-.97-1.12.49-.16.91-.47.91-1.03 0-.8-.83-1.14-1.59-1.14-.77 0-1.59.34-1.59 1.14 0 .55.41.87.9 1.03-.53.18-.97.57-.97 1.12 0 .78.77 1.19 1.66 1.19m-3.45-.08v-4.33h-.66l-1.25 1.26.44.46.71-.73v3.34h.76z"/></svg>