<svg xmlns="http://www.w3.org/2000/svg" viewBox="0 0 87.3 92.7"><path d="M14.5 65.9c3.8-.1 5.6-2.9 9.4-3 4.1-.1 6 3 10.1 3s6-3 10.1-3 6 3 10.1 3 6-3.1 10.1-3c3.8.1 5.5 2.9 9.4 3-9.1 9.9-24.1 17.8-29.6 20.2-4.4-1.8-21-9.9-30.7-20.5.3.2.7.3 1.1.3m61.4-19.6L65.7 56.6 55.6 46.3h20.3zM44.8 34.8h20.3L54.9 45 44.8 34.8zm9.5 11.5L44.1 56.6 34 46.3h20.3zM34 23.2h20.3L44.1 33.4 34 23.2zm-1.3 23.1L22.5 56.6 12.4 46.3h20.3zm-9.5-11.5h20.2L33.3 45 23.2 34.8zM81.1 6.3v10.5H6.2V6.3h74.9zM0 0v50.8c0 22.9 39.7 40.6 43.4 41.6l1 .3.9-.4c.4-.2 42-18.2 42-41.5V0H0z" fill="#004b34"/></svg>