<svg data-name="Layer 1" xmlns="http://www.w3.org/2000/svg" viewBox="0 0 32.57 469.26"><path d="M16.82 167.36c.18-7 .25-39.37.15-45.71m-.41 114.03c0-2.59.27-48 .27-50.56m4.84-64.28v73.95c0 2.68-.09 36.92-.09 39.63m-9.64 4.27c0-2.59.09-36.72.09-39.3v-15.41l-.07-21.32v-40.73m-.04 50.92c.4-5.44 7.55-8.64 9.71-.83M12 178.66c.4-5.45 7.55-8.64 9.71-.83M12 184.51c.4-5.44 7.55-8.63 9.71-.82M12 190.6c.4-5.44 7.55-8.63 9.71-.82m-4.89-135.7c.18-7 .25-39.37.15-45.71m-.41 114.04c0-2.6.27-48 .27-50.56m4.84-64.28v73.94c0 2.68-.09 36.93-.09 39.63m-9.64 4.28c0-2.59.09-36.73.09-39.3V70.7l-.07-21.31V8.66m-.04 50.92c.4-5.45 7.55-8.64 9.71-.83M12 65.39c.4-5.45 7.55-8.64 9.71-.83M12 71.24c.4-5.44 7.55-8.64 9.71-.83M12 77.33c.4-5.44 7.55-8.63 9.71-.83m-4.89 312.78c.18-7 .25-39.37.15-45.71m-.41 114.03c0-2.59.27-48 .27-50.55m4.84-64.28v73.94c0 2.68-.09 36.92-.09 39.63m-9.64 4.27c0-2.59.09-36.72.09-39.3V405.9l-.07-21.32v-40.73m-.04 50.92c.4-5.44 7.55-8.63 9.71-.82M12 400.58c.4-5.44 7.55-8.64 9.71-.83M12 406.44c.4-5.45 7.55-8.64 9.71-.83M12 412.53c.4-5.45 7.55-8.64 9.71-.83M16.82 276c.18-7 .25-39.37.15-45.71m-.41 114.04c0-2.59.27-48 .27-50.56m4.84-64.28v73.95c0 2.68-.09 36.92-.09 39.63m-9.64 4.27c0-2.59.09-36.73.09-39.3v-15.41l-.07-21.32v-40.73m-.04 50.92c.4-5.45 7.55-8.64 9.71-.83M12 287.31c.4-5.45 7.55-8.64 9.71-.83M12 293.16c.4-5.44 7.55-8.63 9.71-.82M12 299.25c.4-5.44 7.55-8.63 9.71-.82" fill="none" stroke="#fff" stroke-miterlimit="10" stroke-width=".5"/></svg>