<svg id="Layer_1" data-name="Layer 1" xmlns="http://www.w3.org/2000/svg" viewBox="0 0 127.44 526.76"><defs><style>.cls-1{fill:none;stroke:#fff;stroke-miterlimit:10;stroke-width:.5px}</style></defs><path class="cls-1" d="M13.72 217.78c.19-7 .25-39.37.15-45.71m-.4 114.03c0-2.59.27-48 .27-50.56m4.83-64.28v73.95c0 2.68-.1 36.92-.1 39.63m-9.63 4.27c0-2.59.09-36.73.09-39.3V234.4l-.07-21.32v-40.73m-.03 50.92c.4-5.45 7.54-8.64 9.71-.83m-9.67 6.64c.4-5.45 7.55-8.64 9.71-.83m-9.7 6.68c.39-5.44 7.54-8.63 9.7-.82M8.89 241c.39-5.44 7.54-8.63 9.7-.82M13.72 104.5c.19-7 .25-39.37.15-45.71m-.4 114.03c0-2.59.27-48 .27-50.55M18.57 58v73.94c0 2.68-.1 36.92-.1 39.63m-9.63 4.27c0-2.6.09-36.73.09-39.3v-15.42l-.11-21.31V59.08M8.83 110c.4-5.45 7.54-8.64 9.71-.83m-9.67 6.63c.4-5.44 7.55-8.63 9.71-.82m-9.7 6.68c.39-5.45 7.54-8.64 9.7-.83m-9.69 6.92c.39-5.44 7.54-8.63 9.7-.83M13.72 439.7c.19-7 .25-39.37.15-45.71M13.47 508c0-2.59.27-48 .27-50.55m4.83-64.26v73.94c0 2.68-.1 36.92-.1 39.63M8.84 511c0-2.59.09-36.72.09-39.3v-15.41L8.82 435v-40.73m.01 50.92c.4-5.44 7.54-8.63 9.71-.83M8.87 451c.4-5.44 7.55-8.64 9.71-.83m-9.7 6.68c.39-5.44 7.54-8.63 9.7-.82M8.89 463c.39-5.45 7.54-8.64 9.7-.83m-4.87-135.75c.19-7 .25-39.36.15-45.7m-.4 114.03c0-2.59.27-48 .27-50.56m4.83-64.28v73.95c0 2.68-.1 36.92-.1 39.63m-9.63 4.27c0-2.59.09-36.73.09-39.3v-15.41l-.07-21.32V281m-.03 50.92c.4-5.45 7.54-8.64 9.71-.83m-9.67 6.64c.4-5.45 7.55-8.64 9.71-.83m-9.7 6.68c.39-5.44 7.54-8.63 9.7-.83m-9.69 6.92c.39-5.44 7.54-8.63 9.7-.82m8.93-48.6c-.18 7-.24 39.37-.15 45.71m.41-114.03c0 2.59-.27 48-.27 50.56m-4.83 64.28v-73.95c0-2.68.09-36.92.09-39.63m9.63-4.27c0 2.59-.09 36.73-.09 39.3v15.41l.12 21.37v40.73m-.01-50.97c-.4 5.45-7.55 8.64-9.71.83m9.67-6.59c-.4 5.45-7.55 8.64-9.71.83m9.7-6.73c-.39 5.44-7.54 8.63-9.71.82m9.7-6.92c-.39 5.44-7.54 8.63-9.71.82m4.87 135.71c-.18 7-.24 39.37-.15 45.71m.41-114.03c0 2.59-.27 48-.27 50.55M22.68 460v-73.94c0-2.68.09-36.92.09-39.63m9.63-4.24c0 2.6-.09 36.73-.09 39.3v15.42l.07 21.31v40.73m.04-50.95c-.4 5.45-7.55 8.64-9.71.83m9.67-6.6c-.4 5.44-7.55 8.63-9.71.82m9.7-6.68c-.39 5.45-7.54 8.64-9.71.83m9.7-6.92c-.39 5.44-7.54 8.63-9.71.83m4.87-312.78c-.18 7-.24 39.37-.15 45.71M27.78 10c0 2.59-.27 48-.27 50.55m-4.83 64.29V50.9c0-2.68.09-36.92.09-39.63M32.4 7c0 2.59-.09 36.72-.09 39.3v15.46L32.43 83v40.73m-.01-50.89c-.4 5.44-7.55 8.63-9.71.83M32.38 67c-.4 5.44-7.55 8.64-9.71.83m9.7-6.65c-.39 5.44-7.54 8.63-9.71.82m9.7-6.92c-.39 5.45-7.54 8.64-9.71.83m4.87 135.7c-.18 7-.24 39.36-.15 45.7m.41-114.03c0 2.59-.27 48-.27 50.56m-4.83 64.28v-73.91c0-2.68.09-36.92.09-39.63m9.63-4.31c0 2.59-.09 36.73-.09 39.3v15.41l.07 21.32v40.73m.04-50.92c-.4 5.45-7.55 8.64-9.71.83m9.67-6.64c-.4 5.45-7.55 8.64-9.71.83m9.7-6.68c-.39 5.44-7.54 8.63-9.71.83m9.7-6.92c-.39 5.44-7.54 8.63-9.71.82m19.25 48.6c.19-7 .25-39.37.15-45.71m-.4 114.03c0-2.59.27-48 .27-50.56m4.83-64.28v73.95c0 2.68-.1 36.92-.1 39.63M37 289.11c0-2.59.09-36.73.09-39.3V234.4L37 213.08v-40.73m0 50.92c.39-5.45 7.54-8.64 9.7-.83m-9.65 6.64c.39-5.45 7.54-8.64 9.71-.83m-9.71 6.68c.4-5.44 7.55-8.63 9.71-.82m-9.7 6.89c.4-5.44 7.55-8.63 9.71-.82M41.9 104.5c.19-7 .25-39.37.15-45.71m-.4 114.03c0-2.59.27-48 .27-50.55M46.75 58v73.94c0 2.68-.1 36.92-.1 39.63"/><path class="cls-1" d="M37 175.84c0-2.6.09-36.73.09-39.3v-15.42L37 99.81V59.08M37 110c.39-5.45 7.54-8.64 9.7-.83m-9.65 6.63c.39-5.44 7.54-8.63 9.71-.82m-9.71 6.68c.4-5.45 7.55-8.64 9.71-.83m-9.7 6.92c.4-5.44 7.55-8.63 9.71-.83M41.9 439.7c.19-7 .25-39.37.15-45.71M41.65 508c0-2.59.27-48 .27-50.55m4.83-64.26v73.94c0 2.68-.1 36.92-.1 39.63M37 511c0-2.59.09-36.72.09-39.3v-15.41L37 435v-40.73m0 50.92c.39-5.44 7.54-8.63 9.7-.83M37.05 451c.39-5.44 7.54-8.64 9.71-.83m-9.71 6.68c.4-5.44 7.55-8.63 9.71-.82m-9.7 6.97c.4-5.45 7.55-8.64 9.71-.83M41.9 326.42c.19-7 .25-39.36.15-45.7m-.4 114.03c0-2.59.27-48 .27-50.56m4.83-64.28v73.95c0 2.68-.1 36.92-.1 39.63"/><path class="cls-1" d="M37 397.76c0-2.59.09-36.73.09-39.3v-15.41L37 321.73V281m0 50.92c.39-5.45 7.54-8.64 9.7-.83m-9.65 6.64c.39-5.45 7.54-8.64 9.71-.83m-9.71 6.68c.4-5.44 7.55-8.63 9.71-.83m-9.7 6.92c.4-5.44 7.55-8.63 9.71-.82m8.93-48.6c-.18 7-.25 39.37-.15 45.71M56 231.93c0 2.59-.27 48-.27 50.56m-4.88 64.28v-73.95c0-2.68.09-36.92.09-39.63m9.64-4.27c0 2.59-.09 36.73-.09 39.3v15.41l.12 21.37v40.73m-.01-50.97c-.4 5.45-7.55 8.64-9.71.83m9.67-6.59c-.4 5.45-7.55 8.64-9.71.83m9.7-6.73c-.4 5.44-7.55 8.63-9.71.82m9.7-6.92c-.4 5.44-7.54 8.63-9.71.82m4.87 135.71c-.18 7-.25 39.37-.15 45.71M56 345.21c0 2.59-.27 48-.27 50.55M50.85 460v-73.94c0-2.68.09-36.92.09-39.63m9.64-4.24c0 2.6-.09 36.73-.09 39.3v15.42l.07 21.31v40.73M60.6 408c-.4 5.45-7.55 8.64-9.71.83m9.67-6.6c-.4 5.44-7.55 8.63-9.71.82m9.7-6.68c-.4 5.45-7.55 8.64-9.71.83m9.7-6.92c-.4 5.44-7.54 8.63-9.71.83M55.7 78.33c-.18 7-.25 39.37-.15 45.71M56 10c0 2.59-.27 48-.27 50.55m-4.88 64.29V50.9c0-2.68.09-36.92.09-39.63M60.58 7c0 2.59-.09 36.72-.09 39.3v15.46L60.61 83v40.73m-.01-50.89c-.4 5.44-7.55 8.63-9.71.83M60.56 67c-.4 5.44-7.55 8.64-9.71.83m9.7-6.65c-.4 5.44-7.55 8.63-9.71.82m9.7-6.92c-.4 5.45-7.54 8.64-9.71.83m4.87 135.7c-.18 7-.25 39.36-.15 45.7M56 123.28c0 2.59-.27 48-.27 50.56m-4.88 64.28v-73.91c0-2.68.09-36.92.09-39.63m9.64-4.31c0 2.59-.09 36.73-.09 39.3v15.41l.07 21.32v40.73m.04-50.92c-.4 5.45-7.55 8.64-9.71.83m9.67-6.64c-.4 5.45-7.55 8.64-9.71.83m9.7-6.68c-.4 5.44-7.55 8.63-9.71.83m9.7-6.92c-.4 5.44-7.54 8.63-9.71.82m19.09 48.6c.19-7 .25-39.37.15-45.71m-.4 114.03c0-2.59.27-48 .27-50.56m4.83-64.28v73.95c0 2.68-.1 36.92-.1 39.63M65 289.11c0-2.59.09-36.73.09-39.3V234.4L65 213.08v-40.73m0 50.92c.39-5.45 7.54-8.64 9.7-.83m-9.63 6.64c.39-5.45 7.54-8.64 9.71-.83m-9.71 6.68c.4-5.44 7.55-8.63 9.71-.82m-9.7 6.89c.4-5.44 7.55-8.63 9.71-.82M69.92 104.5c.19-7 .25-39.37.15-45.71m-.4 114.03c0-2.59.27-48 .27-50.55M74.77 58v73.94c0 2.68-.1 36.92-.1 39.63"/><path class="cls-1" d="M65 175.84c0-2.6.09-36.73.09-39.3v-15.42L65 99.81V59.08M65 110c.39-5.45 7.54-8.64 9.7-.83m-9.63 6.63c.39-5.44 7.54-8.63 9.71-.82m-9.71 6.68c.4-5.45 7.55-8.64 9.71-.83m-9.7 6.92c.4-5.44 7.55-8.63 9.71-.83M69.92 439.7c.19-7 .25-39.37.15-45.71M69.67 508c0-2.59.27-48 .27-50.55m4.83-64.26v73.94c0 2.68-.1 36.92-.1 39.63M65 511c0-2.59.09-36.72.09-39.3v-15.41L65 435v-40.73m0 50.92c.39-5.44 7.54-8.63 9.7-.83M65.07 451c.39-5.44 7.54-8.64 9.71-.83m-9.71 6.68c.4-5.44 7.55-8.63 9.71-.82m-9.7 6.97c.4-5.45 7.55-8.64 9.71-.83m-4.87-135.75c.19-7 .25-39.36.15-45.7m-.4 114.03c0-2.59.27-48 .27-50.56m4.83-64.28v73.95c0 2.68-.1 36.92-.1 39.63"/><path class="cls-1" d="M65 397.76c0-2.59.09-36.73.09-39.3v-15.41L65 321.73V281m0 50.92c.39-5.45 7.54-8.64 9.7-.83m-9.63 6.64c.39-5.45 7.54-8.64 9.71-.83m-9.71 6.68c.4-5.44 7.55-8.63 9.71-.83m-9.7 6.92c.4-5.44 7.55-8.63 9.71-.82m8.93-48.6c-.18 7-.25 39.37-.15 45.71M84 231.93c0 2.59-.27 48-.27 50.56m-4.86 64.28v-73.95c0-2.68.09-36.92.09-39.63m9.64-4.27c0 2.59-.09 36.73-.09 39.3v15.41l.12 21.37v40.73m-.01-50.97c-.4 5.45-7.55 8.64-9.71.83m9.67-6.59c-.4 5.45-7.55 8.64-9.71.83m9.7-6.73c-.4 5.44-7.55 8.63-9.71.82m9.7-6.92c-.4 5.44-7.54 8.63-9.71.82m4.87 135.71c-.18 7-.25 39.37-.15 45.71M84 345.21c0 2.59-.27 48-.27 50.55M78.87 460v-73.94c0-2.68.09-36.92.09-39.63m9.64-4.24c0 2.6-.09 36.73-.09 39.3v15.42l.07 21.31v40.73m.04-50.95c-.4 5.45-7.55 8.64-9.71.83m9.67-6.6c-.4 5.44-7.55 8.63-9.71.82m9.7-6.68c-.4 5.45-7.55 8.64-9.71.83m9.7-6.92c-.4 5.44-7.54 8.63-9.71.83m4.87-312.78c-.18 7-.25 39.37-.15 45.71M84 10c0 2.59-.27 48-.27 50.55m-4.86 64.29V50.9c0-2.68.09-36.92.09-39.63M88.6 7c0 2.59-.09 36.72-.09 39.3v15.46L88.63 83v40.73m-.01-50.89c-.4 5.44-7.55 8.63-9.71.83M88.58 67c-.4 5.44-7.55 8.64-9.71.83m9.7-6.65c-.4 5.44-7.55 8.63-9.71.82m9.7-6.92c-.4 5.45-7.54 8.64-9.71.83m4.87 135.7c-.18 7-.25 39.36-.15 45.7M84 123.28c0 2.59-.27 48-.27 50.56m-4.86 64.28v-73.91c0-2.68.09-36.92.09-39.63m9.64-4.31c0 2.59-.09 36.73-.09 39.3v15.41l.07 21.32v40.73m.04-50.92c-.4 5.45-7.55 8.64-9.71.83m9.67-6.64c-.4 5.45-7.55 8.64-9.71.83m9.7-6.68c-.4 5.44-7.55 8.63-9.71.83m9.7-6.92c-.4 5.44-7.54 8.63-9.71.82m19.25 48.6c.18-7 .25-39.37.15-45.71m-.41 114.03c0-2.59.28-48 .28-50.56m4.88-64.28v73.95c0 2.68-.09 36.92-.09 39.63m-9.69 4.27c0-2.59.09-36.73.09-39.3V234.4l-.07-21.32v-40.73m-.04 50.92c.4-5.45 7.55-8.64 9.71-.83m-9.66 6.64c.39-5.45 7.54-8.64 9.7-.83m-9.7 6.68c.4-5.44 7.55-8.63 9.71-.82m-9.7 6.89c.4-5.44 7.55-8.63 9.71-.82M98.1 104.5c.18-7 .25-39.37.15-45.71m-.41 114.03c0-2.59.28-48 .28-50.55M103 58v73.94c0 2.68-.09 36.92-.09 39.63m-9.69 4.27c0-2.6.09-36.73.09-39.3v-15.42l-.07-21.31V59.08M93.2 110c.4-5.45 7.55-8.64 9.71-.83m-9.66 6.63c.39-5.44 7.54-8.63 9.7-.82m-9.7 6.68c.4-5.45 7.55-8.64 9.71-.83m-9.7 6.92c.4-5.44 7.55-8.63 9.71-.83M98.1 439.7c.18-7 .25-39.37.15-45.71M97.84 508c0-2.59.28-48 .28-50.55m4.88-64.26v73.94c0 2.68-.09 36.92-.09 39.63M93.22 511c0-2.59.09-36.72.09-39.3v-15.41L93.19 435v-40.73m.01 50.92c.4-5.44 7.55-8.63 9.71-.83M93.25 451c.39-5.44 7.54-8.64 9.7-.83m-9.7 6.68c.4-5.44 7.55-8.63 9.71-.82m-9.7 6.97c.4-5.45 7.55-8.64 9.71-.83M98.1 326.42c.18-7 .25-39.36.15-45.7m-.41 114.03c0-2.59.28-48 .28-50.56m4.88-64.28v73.95c0 2.68-.09 36.92-.09 39.63m-9.69 4.27c0-2.59.09-36.73.09-39.3v-15.41l-.07-21.32V281m-.04 50.92c.4-5.45 7.55-8.64 9.71-.83m-9.66 6.64c.39-5.45 7.54-8.64 9.7-.83m-9.7 6.68c.4-5.44 7.55-8.63 9.71-.83m-9.7 6.92c.4-5.44 7.55-8.63 9.71-.82m8.93-48.6c-.19 7-.25 39.37-.15 45.71m.41-114.03c0 2.59-.28 48-.28 50.56m-4.83 64.28v-73.95c0-2.68.1-36.92.1-39.63m9.63-4.27c0 2.59-.09 36.73-.09 39.3v15.41l.07 21.32v40.73m.04-50.92c-.4 5.45-7.55 8.64-9.71.83m9.66-6.59c-.39 5.45-7.54 8.64-9.7.83m9.7-6.73c-.4 5.44-7.55 8.63-9.71.82m9.7-6.92c-.4 5.44-7.55 8.63-9.71.82m4.87 135.71c-.19 7-.25 39.37-.15 45.71m.41-114.03c0 2.59-.28 48-.28 50.55M107.05 460v-73.94c0-2.68.1-36.92.1-39.63m9.63-4.24c0 2.6-.09 36.73-.09 39.3v15.42l.07 21.31v40.73m.04-50.95c-.4 5.45-7.55 8.64-9.71.83m9.66-6.6c-.39 5.44-7.54 8.63-9.7.82m9.7-6.68c-.4 5.45-7.55 8.64-9.71.83m9.7-6.92c-.4 5.44-7.55 8.63-9.71.83m4.87-312.78c-.19 7-.25 39.37-.15 45.71M112.16 10c0 2.59-.28 48-.28 50.55m-4.83 64.29V50.9c0-2.68.1-36.92.1-39.63M116.78 7c0 2.59-.09 36.72-.09 39.3v15.46l.12 21.24v40.73m-.01-50.89c-.4 5.44-7.55 8.63-9.71.83m9.66-6.67c-.39 5.44-7.54 8.64-9.7.83m9.7-6.65c-.4 5.44-7.55 8.63-9.71.82m9.7-6.92c-.4 5.45-7.55 8.64-9.71.83m4.87 135.7c-.19 7-.25 39.36-.15 45.7m.41-114.03c0 2.59-.28 48-.28 50.56m-4.83 64.28v-73.91c0-2.68.1-36.92.1-39.63m9.63-4.31c0 2.59-.09 36.73-.09 39.3v15.41l.07 21.32v40.73m.04-50.92c-.4 5.45-7.55 8.64-9.71.83m9.66-6.64c-.39 5.45-7.54 8.64-9.7.83m9.7-6.68c-.4 5.44-7.55 8.63-9.71.83m9.7-6.92c-.4 5.44-7.55 8.63-9.71.82"/></svg>