<svg id="Layer_1" data-name="Layer 1" xmlns="http://www.w3.org/2000/svg" viewBox="0 0 127.44 526.76"><defs><style>.cls-1{fill:none;stroke:#fff;stroke-miterlimit:10;stroke-width:0.5px;}</style></defs><path class="cls-1" d="M13.72,217.78c.19-7,.25-39.37.15-45.71"/><path class="cls-1" d="M13.47,286.1c0-2.59.27-48,.27-50.56"/><path class="cls-1" d="M18.57,171.26v.16s0,47.94,0,56.44,0,17,0,17.2v.15c0,2.68-.1,36.92-.1,39.63"/><path class="cls-1" d="M8.84,289.11c0-2.59.09-36.73.09-39.3v-.65c0-4.92,0-9.84,0-14.76l-.07-21.32c0-.41,0-40.31,0-40.73"/><path class="cls-1" d="M8.83,223.27c.4-5.45,7.54-8.64,9.71-.83"/><path class="cls-1" d="M8.87,229.08c.4-5.45,7.55-8.64,9.71-.83"/><path class="cls-1" d="M8.88,234.93c.39-5.44,7.54-8.63,9.7-.82"/><path class="cls-1" d="M8.89,241c.39-5.44,7.54-8.63,9.7-.82"/><path class="cls-1" d="M13.72,104.5c.19-7,.25-39.37.15-45.71"/><path class="cls-1" d="M13.47,172.82c0-2.59.27-48,.27-50.55"/><path class="cls-1" d="M18.57,58v.16s0,47.94,0,56.44,0,17,0,17.2v.14c0,2.68-.1,36.92-.1,39.63"/><path class="cls-1" d="M8.84,175.84c0-2.6.09-36.73.09-39.3v-.65c0-4.92,0-9.84,0-14.77L8.82,99.81c0-.41,0-40.31,0-40.73"/><path class="cls-1" d="M8.83,110c.4-5.45,7.54-8.64,9.71-.83"/><path class="cls-1" d="M8.87,115.8c.4-5.44,7.55-8.63,9.71-.82"/><path class="cls-1" d="M8.88,121.66c.39-5.45,7.54-8.64,9.7-.83"/><path class="cls-1" d="M8.89,127.75c.39-5.44,7.54-8.63,9.7-.83"/><path class="cls-1" d="M13.72,439.7c.19-7,.25-39.37.15-45.71"/><path class="cls-1" d="M13.47,508c0-2.59.27-48,.27-50.55"/><path class="cls-1" d="M18.57,393.19v.15s0,48,0,56.44,0,17,0,17.2v.15c0,2.68-.1,36.92-.1,39.63"/><path class="cls-1" d="M8.84,511c0-2.59.09-36.72.09-39.3v-.65c0-4.92,0-9.84,0-14.76L8.82,435c0-.41,0-40.3,0-40.73"/><path class="cls-1" d="M8.83,445.19c.4-5.44,7.54-8.63,9.71-.83"/><path class="cls-1" d="M8.87,451c.4-5.44,7.55-8.64,9.71-.83"/><path class="cls-1" d="M8.88,456.85c.39-5.44,7.54-8.63,9.7-.82"/><path class="cls-1" d="M8.89,463c.39-5.45,7.54-8.64,9.7-.83"/><path class="cls-1" d="M13.72,326.42c.19-7,.25-39.36.15-45.7"/><path class="cls-1" d="M13.47,394.75c0-2.59.27-48,.27-50.56"/><path class="cls-1" d="M18.57,279.91v.16s0,47.94,0,56.44,0,17,0,17.2v.15c0,2.68-.1,36.92-.1,39.63"/><path class="cls-1" d="M8.84,397.76c0-2.59.09-36.73.09-39.3v-.65c0-4.92,0-9.84,0-14.76l-.07-21.32c0-.41,0-40.31,0-40.73"/><path class="cls-1" d="M8.83,331.92c.4-5.45,7.54-8.64,9.71-.83"/><path class="cls-1" d="M8.87,337.73c.4-5.45,7.55-8.64,9.71-.83"/><path class="cls-1" d="M8.88,343.58c.39-5.44,7.54-8.63,9.7-.83"/><path class="cls-1" d="M8.89,349.67c.39-5.44,7.54-8.63,9.7-.82"/><path class="cls-1" d="M27.52,300.25c-.18,7-.24,39.37-.15,45.71"/><path class="cls-1" d="M27.78,231.93c0,2.59-.27,48-.27,50.56"/><path class="cls-1" d="M22.68,346.77v-.16s0-47.94,0-56.44,0-17,0-17.2v-.15c0-2.68.09-36.92.09-39.63"/><path class="cls-1" d="M32.4,228.92c0,2.59-.09,36.73-.09,39.3v.65c0,4.92,0,9.84,0,14.76L32.43,305c0,.41,0,40.31,0,40.73"/><path class="cls-1" d="M32.42,294.76c-.4,5.45-7.55,8.64-9.71.83"/><path class="cls-1" d="M32.38,289c-.4,5.45-7.55,8.64-9.71.83"/><path class="cls-1" d="M32.37,283.1c-.39,5.44-7.54,8.63-9.71.82"/><path class="cls-1" d="M32.36,277c-.39,5.44-7.54,8.63-9.71.82"/><path class="cls-1" d="M27.52,413.53c-.18,7-.24,39.37-.15,45.71"/><path class="cls-1" d="M27.78,345.21c0,2.59-.27,48-.27,50.55"/><path class="cls-1" d="M22.68,460v-.16s0-47.94,0-56.44,0-17,0-17.2v-.14c0-2.68.09-36.92.09-39.63"/><path class="cls-1" d="M32.4,342.19c0,2.6-.09,36.73-.09,39.3v.65c0,4.92,0,9.84,0,14.77l.07,21.31c0,.41,0,40.31,0,40.73"/><path class="cls-1" d="M32.42,408c-.4,5.45-7.55,8.64-9.71.83"/><path class="cls-1" d="M32.38,402.23c-.4,5.44-7.55,8.63-9.71.82"/><path class="cls-1" d="M32.37,396.37c-.39,5.45-7.54,8.64-9.71.83"/><path class="cls-1" d="M32.36,390.28c-.39,5.44-7.54,8.63-9.71.83"/><path class="cls-1" d="M27.52,78.33c-.18,7-.24,39.37-.15,45.71"/><path class="cls-1" d="M27.78,10c0,2.59-.27,48-.27,50.55"/><path class="cls-1" d="M22.68,124.84v-.15s0-47.95,0-56.44,0-17,0-17.2V50.9c0-2.68.09-36.92.09-39.63"/><path class="cls-1" d="M32.4,7c0,2.59-.09,36.72-.09,39.3V47c0,4.92,0,9.84,0,14.76L32.43,83c0,.41,0,40.3,0,40.73"/><path class="cls-1" d="M32.42,72.84c-.4,5.44-7.55,8.63-9.71.83"/><path class="cls-1" d="M32.38,67c-.4,5.44-7.55,8.64-9.71.83"/><path class="cls-1" d="M32.37,61.18c-.39,5.44-7.54,8.63-9.71.82"/><path class="cls-1" d="M32.36,55.08c-.39,5.45-7.54,8.64-9.71.83"/><path class="cls-1" d="M27.52,191.61c-.18,7-.24,39.36-.15,45.7"/><path class="cls-1" d="M27.78,123.28c0,2.59-.27,48-.27,50.56"/><path class="cls-1" d="M22.68,238.12V238s0-47.94,0-56.44,0-17,0-17.2v-.15c0-2.68.09-36.92.09-39.63"/><path class="cls-1" d="M32.4,120.27c0,2.59-.09,36.73-.09,39.3v.65c0,4.92,0,9.84,0,14.76l.07,21.32c0,.41,0,40.31,0,40.73"/><path class="cls-1" d="M32.42,186.11c-.4,5.45-7.55,8.64-9.71.83"/><path class="cls-1" d="M32.38,180.3c-.4,5.45-7.55,8.64-9.71.83"/><path class="cls-1" d="M32.37,174.45c-.39,5.44-7.54,8.63-9.71.83"/><path class="cls-1" d="M32.36,168.36c-.39,5.44-7.54,8.63-9.71.82"/><path class="cls-1" d="M41.9,217.78c.19-7,.25-39.37.15-45.71"/><path class="cls-1" d="M41.65,286.1c0-2.59.27-48,.27-50.56"/><path class="cls-1" d="M46.75,171.26v.16s0,47.94,0,56.44,0,17,0,17.2v.15c0,2.68-.1,36.92-.1,39.63"/><path class="cls-1" d="M37,289.11c0-2.59.09-36.73.09-39.3v-.65c0-4.92,0-9.84,0-14.76L37,213.08c0-.41,0-40.31,0-40.73"/><path class="cls-1" d="M37,223.27c.39-5.45,7.54-8.64,9.7-.83"/><path class="cls-1" d="M37.05,229.08c.39-5.45,7.54-8.64,9.71-.83"/><path class="cls-1" d="M37.05,234.93c.4-5.44,7.55-8.63,9.71-.82"/><path class="cls-1" d="M37.06,241c.4-5.44,7.55-8.63,9.71-.82"/><path class="cls-1" d="M41.9,104.5c.19-7,.25-39.37.15-45.71"/><path class="cls-1" d="M41.65,172.82c0-2.59.27-48,.27-50.55"/><path class="cls-1" d="M46.75,58v.16s0,47.94,0,56.44,0,17,0,17.2v.14c0,2.68-.1,36.92-.1,39.63"/><path class="cls-1" d="M37,175.84c0-2.6.09-36.73.09-39.3v-.65c0-4.92,0-9.84,0-14.77L37,99.81c0-.41,0-40.31,0-40.73"/><path class="cls-1" d="M37,110c.39-5.45,7.54-8.64,9.7-.83"/><path class="cls-1" d="M37.05,115.8c.39-5.44,7.54-8.63,9.71-.82"/><path class="cls-1" d="M37.05,121.66c.4-5.45,7.55-8.64,9.71-.83"/><path class="cls-1" d="M37.06,127.75c.4-5.44,7.55-8.63,9.71-.83"/><path class="cls-1" d="M41.9,439.7c.19-7,.25-39.37.15-45.71"/><path class="cls-1" d="M41.65,508c0-2.59.27-48,.27-50.55"/><path class="cls-1" d="M46.75,393.19v.15s0,48,0,56.44,0,17,0,17.2v.15c0,2.68-.1,36.92-.1,39.63"/><path class="cls-1" d="M37,511c0-2.59.09-36.72.09-39.3v-.65c0-4.92,0-9.84,0-14.76L37,435c0-.41,0-40.3,0-40.73"/><path class="cls-1" d="M37,445.19c.39-5.44,7.54-8.63,9.7-.83"/><path class="cls-1" d="M37.05,451c.39-5.44,7.54-8.64,9.71-.83"/><path class="cls-1" d="M37.05,456.85c.4-5.44,7.55-8.63,9.71-.82"/><path class="cls-1" d="M37.06,463c.4-5.45,7.55-8.64,9.71-.83"/><path class="cls-1" d="M41.9,326.42c.19-7,.25-39.36.15-45.7"/><path class="cls-1" d="M41.65,394.75c0-2.59.27-48,.27-50.56"/><path class="cls-1" d="M46.75,279.91v.16s0,47.94,0,56.44,0,17,0,17.2v.15c0,2.68-.1,36.92-.1,39.63"/><path class="cls-1" d="M37,397.76c0-2.59.09-36.73.09-39.3v-.65c0-4.92,0-9.84,0-14.76L37,321.73c0-.41,0-40.31,0-40.73"/><path class="cls-1" d="M37,331.92c.39-5.45,7.54-8.64,9.7-.83"/><path class="cls-1" d="M37.05,337.73c.39-5.45,7.54-8.64,9.71-.83"/><path class="cls-1" d="M37.05,343.58c.4-5.44,7.55-8.63,9.71-.83"/><path class="cls-1" d="M37.06,349.67c.4-5.44,7.55-8.63,9.71-.82"/><path class="cls-1" d="M55.7,300.25c-.18,7-.25,39.37-.15,45.71"/><path class="cls-1" d="M56,231.93c0,2.59-.27,48-.27,50.56"/><path class="cls-1" d="M50.85,346.77v-.16s0-47.94,0-56.44,0-17,0-17.2v-.15c0-2.68.09-36.92.09-39.63"/><path class="cls-1" d="M60.58,228.92c0,2.59-.09,36.73-.09,39.3v.65c0,4.92,0,9.84,0,14.76L60.61,305c0,.41,0,40.31,0,40.73"/><path class="cls-1" d="M60.6,294.76c-.4,5.45-7.55,8.64-9.71.83"/><path class="cls-1" d="M60.56,289c-.4,5.45-7.55,8.64-9.71.83"/><path class="cls-1" d="M60.55,283.1c-.4,5.44-7.55,8.63-9.71.82"/><path class="cls-1" d="M60.54,277c-.4,5.44-7.54,8.63-9.71.82"/><path class="cls-1" d="M55.7,413.53c-.18,7-.25,39.37-.15,45.71"/><path class="cls-1" d="M56,345.21c0,2.59-.27,48-.27,50.55"/><path class="cls-1" d="M50.85,460v-.16s0-47.94,0-56.44,0-17,0-17.2v-.14c0-2.68.09-36.92.09-39.63"/><path class="cls-1" d="M60.58,342.19c0,2.6-.09,36.73-.09,39.3v.65c0,4.92,0,9.84,0,14.77l.07,21.31c0,.41,0,40.31,0,40.73"/><path class="cls-1" d="M60.6,408c-.4,5.45-7.55,8.64-9.71.83"/><path class="cls-1" d="M60.56,402.23c-.4,5.44-7.55,8.63-9.71.82"/><path class="cls-1" d="M60.55,396.37c-.4,5.45-7.55,8.64-9.71.83"/><path class="cls-1" d="M60.54,390.28c-.4,5.44-7.54,8.63-9.71.83"/><path class="cls-1" d="M55.7,78.33c-.18,7-.25,39.37-.15,45.71"/><path class="cls-1" d="M56,10c0,2.59-.27,48-.27,50.55"/><path class="cls-1" d="M50.85,124.84v-.15s0-47.95,0-56.44,0-17,0-17.2V50.9c0-2.68.09-36.92.09-39.63"/><path class="cls-1" d="M60.58,7c0,2.59-.09,36.72-.09,39.3V47c0,4.92,0,9.84,0,14.76L60.61,83c0,.41,0,40.3,0,40.73"/><path class="cls-1" d="M60.6,72.84c-.4,5.44-7.55,8.63-9.71.83"/><path class="cls-1" d="M60.56,67c-.4,5.44-7.55,8.64-9.71.83"/><path class="cls-1" d="M60.55,61.18c-.4,5.44-7.55,8.63-9.71.82"/><path class="cls-1" d="M60.54,55.08c-.4,5.45-7.54,8.64-9.71.83"/><path class="cls-1" d="M55.7,191.61c-.18,7-.25,39.36-.15,45.7"/><path class="cls-1" d="M56,123.28c0,2.59-.27,48-.27,50.56"/><path class="cls-1" d="M50.85,238.12V238s0-47.94,0-56.44,0-17,0-17.2v-.15c0-2.68.09-36.92.09-39.63"/><path class="cls-1" d="M60.58,120.27c0,2.59-.09,36.73-.09,39.3v.65c0,4.92,0,9.84,0,14.76l.07,21.32c0,.41,0,40.31,0,40.73"/><path class="cls-1" d="M60.6,186.11c-.4,5.45-7.55,8.64-9.71.83"/><path class="cls-1" d="M60.56,180.3c-.4,5.45-7.55,8.64-9.71.83"/><path class="cls-1" d="M60.55,174.45c-.4,5.44-7.55,8.63-9.71.83"/><path class="cls-1" d="M60.54,168.36c-.4,5.44-7.54,8.63-9.71.82"/><path class="cls-1" d="M69.92,217.78c.19-7,.25-39.37.15-45.71"/><path class="cls-1" d="M69.67,286.1c0-2.59.27-48,.27-50.56"/><path class="cls-1" d="M74.77,171.26v.16s0,47.94,0,56.44,0,17,0,17.2v.15c0,2.68-.1,36.92-.1,39.63"/><path class="cls-1" d="M65,289.11c0-2.59.09-36.73.09-39.3v-.65c0-4.92,0-9.84,0-14.76L65,213.08c0-.41,0-40.31,0-40.73"/><path class="cls-1" d="M65,223.27c.39-5.45,7.54-8.64,9.7-.83"/><path class="cls-1" d="M65.07,229.08c.39-5.45,7.54-8.64,9.71-.83"/><path class="cls-1" d="M65.07,234.93c.4-5.44,7.55-8.63,9.71-.82"/><path class="cls-1" d="M65.08,241c.4-5.44,7.55-8.63,9.71-.82"/><path class="cls-1" d="M69.92,104.5c.19-7,.25-39.37.15-45.71"/><path class="cls-1" d="M69.67,172.82c0-2.59.27-48,.27-50.55"/><path class="cls-1" d="M74.77,58v.16s0,47.94,0,56.44,0,17,0,17.2v.14c0,2.68-.1,36.92-.1,39.63"/><path class="cls-1" d="M65,175.84c0-2.6.09-36.73.09-39.3v-.65c0-4.92,0-9.84,0-14.77L65,99.81c0-.41,0-40.31,0-40.73"/><path class="cls-1" d="M65,110c.39-5.45,7.54-8.64,9.7-.83"/><path class="cls-1" d="M65.07,115.8c.39-5.44,7.54-8.63,9.71-.82"/><path class="cls-1" d="M65.07,121.66c.4-5.45,7.55-8.64,9.71-.83"/><path class="cls-1" d="M65.08,127.75c.4-5.44,7.55-8.63,9.71-.83"/><path class="cls-1" d="M69.92,439.7c.19-7,.25-39.37.15-45.71"/><path class="cls-1" d="M69.67,508c0-2.59.27-48,.27-50.55"/><path class="cls-1" d="M74.77,393.19v.15s0,48,0,56.44,0,17,0,17.2v.15c0,2.68-.1,36.92-.1,39.63"/><path class="cls-1" d="M65,511c0-2.59.09-36.72.09-39.3v-.65c0-4.92,0-9.84,0-14.76L65,435c0-.41,0-40.3,0-40.73"/><path class="cls-1" d="M65,445.19c.39-5.44,7.54-8.63,9.7-.83"/><path class="cls-1" d="M65.07,451c.39-5.44,7.54-8.64,9.71-.83"/><path class="cls-1" d="M65.07,456.85c.4-5.44,7.55-8.63,9.71-.82"/><path class="cls-1" d="M65.08,463c.4-5.45,7.55-8.64,9.71-.83"/><path class="cls-1" d="M69.92,326.42c.19-7,.25-39.36.15-45.7"/><path class="cls-1" d="M69.67,394.75c0-2.59.27-48,.27-50.56"/><path class="cls-1" d="M74.77,279.91v.16s0,47.94,0,56.44,0,17,0,17.2v.15c0,2.68-.1,36.92-.1,39.63"/><path class="cls-1" d="M65,397.76c0-2.59.09-36.73.09-39.3v-.65c0-4.92,0-9.84,0-14.76L65,321.73c0-.41,0-40.31,0-40.73"/><path class="cls-1" d="M65,331.92c.39-5.45,7.54-8.64,9.7-.83"/><path class="cls-1" d="M65.07,337.73c.39-5.45,7.54-8.64,9.71-.83"/><path class="cls-1" d="M65.07,343.58c.4-5.44,7.55-8.63,9.71-.83"/><path class="cls-1" d="M65.08,349.67c.4-5.44,7.55-8.63,9.71-.82"/><path class="cls-1" d="M83.72,300.25c-.18,7-.25,39.37-.15,45.71"/><path class="cls-1" d="M84,231.93c0,2.59-.27,48-.27,50.56"/><path class="cls-1" d="M78.87,346.77v-.16s0-47.94,0-56.44,0-17,0-17.2v-.15c0-2.68.09-36.92.09-39.63"/><path class="cls-1" d="M88.6,228.92c0,2.59-.09,36.73-.09,39.3v.65c0,4.92,0,9.84,0,14.76L88.63,305c0,.41,0,40.31,0,40.73"/><path class="cls-1" d="M88.62,294.76c-.4,5.45-7.55,8.64-9.71.83"/><path class="cls-1" d="M88.58,289c-.4,5.45-7.55,8.64-9.71.83"/><path class="cls-1" d="M88.57,283.1c-.4,5.44-7.55,8.63-9.71.82"/><path class="cls-1" d="M88.56,277c-.4,5.44-7.54,8.63-9.71.82"/><path class="cls-1" d="M83.72,413.53c-.18,7-.25,39.37-.15,45.71"/><path class="cls-1" d="M84,345.21c0,2.59-.27,48-.27,50.55"/><path class="cls-1" d="M78.87,460v-.16s0-47.94,0-56.44,0-17,0-17.2v-.14c0-2.68.09-36.92.09-39.63"/><path class="cls-1" d="M88.6,342.19c0,2.6-.09,36.73-.09,39.3v.65c0,4.92,0,9.84,0,14.77l.07,21.31c0,.41,0,40.31,0,40.73"/><path class="cls-1" d="M88.62,408c-.4,5.45-7.55,8.64-9.71.83"/><path class="cls-1" d="M88.58,402.23c-.4,5.44-7.55,8.63-9.71.82"/><path class="cls-1" d="M88.57,396.37c-.4,5.45-7.55,8.64-9.71.83"/><path class="cls-1" d="M88.56,390.28c-.4,5.44-7.54,8.63-9.71.83"/><path class="cls-1" d="M83.72,78.33c-.18,7-.25,39.37-.15,45.71"/><path class="cls-1" d="M84,10c0,2.59-.27,48-.27,50.55"/><path class="cls-1" d="M78.87,124.84v-.15s0-47.95,0-56.44,0-17,0-17.2V50.9c0-2.68.09-36.92.09-39.63"/><path class="cls-1" d="M88.6,7c0,2.59-.09,36.72-.09,39.3V47c0,4.92,0,9.84,0,14.76L88.63,83c0,.41,0,40.3,0,40.73"/><path class="cls-1" d="M88.62,72.84c-.4,5.44-7.55,8.63-9.71.83"/><path class="cls-1" d="M88.58,67c-.4,5.44-7.55,8.64-9.71.83"/><path class="cls-1" d="M88.57,61.18c-.4,5.44-7.55,8.63-9.71.82"/><path class="cls-1" d="M88.56,55.08c-.4,5.45-7.54,8.64-9.71.83"/><path class="cls-1" d="M83.72,191.61c-.18,7-.25,39.36-.15,45.7"/><path class="cls-1" d="M84,123.28c0,2.59-.27,48-.27,50.56"/><path class="cls-1" d="M78.87,238.12V238s0-47.94,0-56.44,0-17,0-17.2v-.15c0-2.68.09-36.92.09-39.63"/><path class="cls-1" d="M88.6,120.27c0,2.59-.09,36.73-.09,39.3v.65c0,4.92,0,9.84,0,14.76l.07,21.32c0,.41,0,40.31,0,40.73"/><path class="cls-1" d="M88.62,186.11c-.4,5.45-7.55,8.64-9.71.83"/><path class="cls-1" d="M88.58,180.3c-.4,5.45-7.55,8.64-9.71.83"/><path class="cls-1" d="M88.57,174.45c-.4,5.44-7.55,8.63-9.71.83"/><path class="cls-1" d="M88.56,168.36c-.4,5.44-7.54,8.63-9.71.82"/><path class="cls-1" d="M98.1,217.78c.18-7,.25-39.37.15-45.71"/><path class="cls-1" d="M97.84,286.1c0-2.59.28-48,.28-50.56"/><path class="cls-1" d="M103,171.26v.16s0,47.94,0,56.44,0,17,0,17.2v.15c0,2.68-.09,36.92-.09,39.63"/><path class="cls-1" d="M93.22,289.11c0-2.59.09-36.73.09-39.3v-.65c0-4.92,0-9.84,0-14.76l-.07-21.32c0-.41,0-40.31,0-40.73"/><path class="cls-1" d="M93.2,223.27c.4-5.45,7.55-8.64,9.71-.83"/><path class="cls-1" d="M93.25,229.08c.39-5.45,7.54-8.64,9.7-.83"/><path class="cls-1" d="M93.25,234.93c.4-5.44,7.55-8.63,9.71-.82"/><path class="cls-1" d="M93.26,241c.4-5.44,7.55-8.63,9.71-.82"/><path class="cls-1" d="M98.1,104.5c.18-7,.25-39.37.15-45.71"/><path class="cls-1" d="M97.84,172.82c0-2.59.28-48,.28-50.55"/><path class="cls-1" d="M103,58v.16s0,47.94,0,56.44,0,17,0,17.2v.14c0,2.68-.09,36.92-.09,39.63"/><path class="cls-1" d="M93.22,175.84c0-2.6.09-36.73.09-39.3v-.65c0-4.92,0-9.84,0-14.77l-.07-21.31c0-.41,0-40.31,0-40.73"/><path class="cls-1" d="M93.2,110c.4-5.45,7.55-8.64,9.71-.83"/><path class="cls-1" d="M93.25,115.8c.39-5.44,7.54-8.63,9.7-.82"/><path class="cls-1" d="M93.25,121.66c.4-5.45,7.55-8.64,9.71-.83"/><path class="cls-1" d="M93.26,127.75c.4-5.44,7.55-8.63,9.71-.83"/><path class="cls-1" d="M98.1,439.7c.18-7,.25-39.37.15-45.71"/><path class="cls-1" d="M97.84,508c0-2.59.28-48,.28-50.55"/><path class="cls-1" d="M103,393.19v.15s0,48,0,56.44,0,17,0,17.2v.15c0,2.68-.09,36.92-.09,39.63"/><path class="cls-1" d="M93.22,511c0-2.59.09-36.72.09-39.3v-.65c0-4.92,0-9.84,0-14.76L93.19,435c0-.41,0-40.3,0-40.73"/><path class="cls-1" d="M93.2,445.19c.4-5.44,7.55-8.63,9.71-.83"/><path class="cls-1" d="M93.25,451c.39-5.44,7.54-8.64,9.7-.83"/><path class="cls-1" d="M93.25,456.85c.4-5.44,7.55-8.63,9.71-.82"/><path class="cls-1" d="M93.26,463c.4-5.45,7.55-8.64,9.71-.83"/><path class="cls-1" d="M98.1,326.42c.18-7,.25-39.36.15-45.7"/><path class="cls-1" d="M97.84,394.75c0-2.59.28-48,.28-50.56"/><path class="cls-1" d="M103,279.91v.16s0,47.94,0,56.44,0,17,0,17.2v.15c0,2.68-.09,36.92-.09,39.63"/><path class="cls-1" d="M93.22,397.76c0-2.59.09-36.73.09-39.3v-.65c0-4.92,0-9.84,0-14.76l-.07-21.32c0-.41,0-40.31,0-40.73"/><path class="cls-1" d="M93.2,331.92c.4-5.45,7.55-8.64,9.71-.83"/><path class="cls-1" d="M93.25,337.73c.39-5.45,7.54-8.64,9.7-.83"/><path class="cls-1" d="M93.25,343.58c.4-5.44,7.55-8.63,9.71-.83"/><path class="cls-1" d="M93.26,349.67c.4-5.44,7.55-8.63,9.71-.82"/><path class="cls-1" d="M111.9,300.25c-.19,7-.25,39.37-.15,45.71"/><path class="cls-1" d="M112.16,231.93c0,2.59-.28,48-.28,50.56"/><path class="cls-1" d="M107.05,346.77v-.16s0-47.94,0-56.44,0-17,0-17.2v-.15c0-2.68.1-36.92.1-39.63"/><path class="cls-1" d="M116.78,228.92c0,2.59-.09,36.73-.09,39.3v.65c0,4.92,0,9.84,0,14.76l.07,21.32c0,.41,0,40.31,0,40.73"/><path class="cls-1" d="M116.8,294.76c-.4,5.45-7.55,8.64-9.71.83"/><path class="cls-1" d="M116.75,289c-.39,5.45-7.54,8.64-9.7.83"/><path class="cls-1" d="M116.75,283.1c-.4,5.44-7.55,8.63-9.71.82"/><path class="cls-1" d="M116.74,277c-.4,5.44-7.55,8.63-9.71.82"/><path class="cls-1" d="M111.9,413.53c-.19,7-.25,39.37-.15,45.71"/><path class="cls-1" d="M112.16,345.21c0,2.59-.28,48-.28,50.55"/><path class="cls-1" d="M107.05,460v-.16s0-47.94,0-56.44,0-17,0-17.2v-.14c0-2.68.1-36.92.1-39.63"/><path class="cls-1" d="M116.78,342.19c0,2.6-.09,36.73-.09,39.3v.65c0,4.92,0,9.84,0,14.77l.07,21.31c0,.41,0,40.31,0,40.73"/><path class="cls-1" d="M116.8,408c-.4,5.45-7.55,8.64-9.71.83"/><path class="cls-1" d="M116.75,402.23c-.39,5.44-7.54,8.63-9.7.82"/><path class="cls-1" d="M116.75,396.37c-.4,5.45-7.55,8.64-9.71.83"/><path class="cls-1" d="M116.74,390.28c-.4,5.44-7.55,8.63-9.71.83"/><path class="cls-1" d="M111.9,78.33c-.19,7-.25,39.37-.15,45.71"/><path class="cls-1" d="M112.16,10c0,2.59-.28,48-.28,50.55"/><path class="cls-1" d="M107.05,124.84v-.15s0-47.95,0-56.44,0-17,0-17.2V50.9c0-2.68.1-36.92.1-39.63"/><path class="cls-1" d="M116.78,7c0,2.59-.09,36.72-.09,39.3V47c0,4.92,0,9.84,0,14.76L116.81,83c0,.41,0,40.3,0,40.73"/><path class="cls-1" d="M116.8,72.84c-.4,5.44-7.55,8.63-9.71.83"/><path class="cls-1" d="M116.75,67c-.39,5.44-7.54,8.64-9.7.83"/><path class="cls-1" d="M116.75,61.18c-.4,5.44-7.55,8.63-9.71.82"/><path class="cls-1" d="M116.74,55.08c-.4,5.45-7.55,8.64-9.71.83"/><path class="cls-1" d="M111.9,191.61c-.19,7-.25,39.36-.15,45.7"/><path class="cls-1" d="M112.16,123.28c0,2.59-.28,48-.28,50.56"/><path class="cls-1" d="M107.05,238.12V238s0-47.94,0-56.44,0-17,0-17.2v-.15c0-2.68.1-36.92.1-39.63"/><path class="cls-1" d="M116.78,120.27c0,2.59-.09,36.73-.09,39.3v.65c0,4.92,0,9.84,0,14.76l.07,21.32c0,.41,0,40.31,0,40.73"/><path class="cls-1" d="M116.8,186.11c-.4,5.45-7.55,8.64-9.71.83"/><path class="cls-1" d="M116.75,180.3c-.39,5.45-7.54,8.64-9.7.83"/><path class="cls-1" d="M116.75,174.45c-.4,5.44-7.55,8.63-9.71.83"/><path class="cls-1" d="M116.74,168.36c-.4,5.44-7.55,8.63-9.71.82"/></svg>