<svg id="Layer_1" data-name="Layer 1"
    xmlns="http://www.w3.org/2000/svg" viewBox="0 0 56.64 470.02">
    <defs>
        <style>.cls-1{fill:none;stroke:#eee;stroke-miterlimit:10;stroke-width:0.5px;}</style>
    </defs>
    <path class="cls-1" d="M19.92,279.47h0l8.23,15.26a3.06,3.06,0,0,1,.35,1.93,3.31,3.31,0,0,1-2.23,2.57l1.59,3a6.43,6.43,0,0,0,4.41-5,6.06,6.06,0,0,0-.68-3.71l-8.19-15.2h0"/>
    <path class="cls-1" d="M27.2,277l8.25,15.32a8.85,8.85,0,0,1,1,5.43,9.44,9.44,0,0,1-6.69,7.4l-.33.11,1.59,3,.34-.12h0c5-1.68,8.21-5.49,8.85-9.81a11.7,11.7,0,0,0-1.31-7.2l-8.28-15.36h0"/>
    <path class="cls-1" d="M20.63,316.74h0L12.3,301.28A11.74,11.74,0,0,1,11,294c.64-4.35,3.84-8.17,8.9-9.87h0l.34-.12,1.6,3.05-.34.11a9.51,9.51,0,0,0-6.72,7.45,8.89,8.89,0,0,0,1,5.46l8.3,15.41"/>
    <path class="cls-1" d="M27.89,314.11h0l-8.25-15.29a6,6,0,0,1-.67-3.73,6.44,6.44,0,0,1,4.43-5L25,293.12a3.35,3.35,0,0,0-2.26,2.59,3.16,3.16,0,0,0,.36,1.94L31.39,313h0"/>
    <path class="cls-1" d="M19.24,242.32h0l8.23,15.26a3.15,3.15,0,0,1,.35,1.94,3.32,3.32,0,0,1-2.24,2.57l1.6,3a6.4,6.4,0,0,0,4.4-5,5.94,5.94,0,0,0-.67-3.7l-8.19-15.2h0"/>
    <path class="cls-1" d="M26.51,239.81l8.26,15.32a8.86,8.86,0,0,1,1,5.43,9.41,9.41,0,0,1-6.68,7.4l-.33.12,1.59,3,.33-.11h0c5-1.69,8.22-5.49,8.86-9.82A11.73,11.73,0,0,0,38.21,254l-8.28-15.37h0"/>
    <path class="cls-1" d="M20,279.59h0l-8.33-15.46a11.8,11.8,0,0,1-1.32-7.24c.64-4.35,3.85-8.17,8.91-9.87h0l.34-.11,1.6,3-.34.11a9.48,9.48,0,0,0-6.72,7.45,8.88,8.88,0,0,0,1,5.46l8.31,15.41"/>
    <path class="cls-1" d="M27.21,277h0L19,261.67a6.12,6.12,0,0,1-.68-3.73,6.45,6.45,0,0,1,4.44-5l1.6,3.05a3.38,3.38,0,0,0-2.25,2.59,3.2,3.2,0,0,0,.36,1.95l8.28,15.35h0"/>
    <path class="cls-1" d="M18.67,205.3h0l8.23,15.26a3.15,3.15,0,0,1,.35,1.94A3.34,3.34,0,0,1,25,225.07l1.6,3a6.4,6.4,0,0,0,4.4-5,6,6,0,0,0-.67-3.7l-8.2-15.2h0"/>
    <path class="cls-1" d="M25.94,202.79l8.26,15.32a8.86,8.86,0,0,1,1,5.43A9.44,9.44,0,0,1,28.5,231l-.33.11,1.59,3,.33-.11h0c5-1.69,8.22-5.49,8.86-9.81a11.74,11.74,0,0,0-1.31-7.2l-8.28-15.37h0"/>
    <path class="cls-1" d="M19.38,242.57h0l-8.33-15.45a11.85,11.85,0,0,1-1.32-7.25c.64-4.34,3.85-8.17,8.91-9.87h0l.34-.11,1.6,3-.34.11a9.49,9.49,0,0,0-6.72,7.45,8.87,8.87,0,0,0,1,5.46l8.31,15.41"/>
    <path class="cls-1" d="M26.64,239.94h0l-8.25-15.29a6,6,0,0,1-.68-3.73,6.45,6.45,0,0,1,4.44-5l1.6,3.06a3.35,3.35,0,0,0-2.25,2.58,3.27,3.27,0,0,0,.35,2l8.29,15.35h0"/>
    <path class="cls-1" d="M18,168.16h0l8.24,15.26a3.19,3.19,0,0,1,.35,1.93,3.34,3.34,0,0,1-2.24,2.57l1.6,3a6.4,6.4,0,0,0,4.4-5,6.05,6.05,0,0,0-.67-3.71l-8.2-15.2h0"/>
    <path class="cls-1" d="M25.26,165.65,33.51,181a8.75,8.75,0,0,1,1,5.42,9.45,9.45,0,0,1-6.68,7.41l-.34.11,1.6,3,.33-.11h0c5-1.69,8.22-5.49,8.85-9.81a11.62,11.62,0,0,0-1.31-7.2l-8.27-15.36h0"/>
    <path class="cls-1" d="M18.69,205.42h0L10.37,190a11.76,11.76,0,0,1-1.32-7.24c.64-4.35,3.85-8.18,8.91-9.88h0l.33-.11,1.61,3-.34.12a9.48,9.48,0,0,0-6.72,7.45,8.9,8.9,0,0,0,1,5.46l8.3,15.41"/>
    <path class="cls-1" d="M26,202.8h0L17.71,187.5a6,6,0,0,1-.68-3.72,6.43,6.43,0,0,1,4.43-5l1.61,3.05a3.34,3.34,0,0,0-2.25,2.58,3.11,3.11,0,0,0,.35,2l8.28,15.35h0"/>
    <path class="cls-1" d="M18,132.29h0l8.24,15.26a3.19,3.19,0,0,1,.35,1.93,3.36,3.36,0,0,1-2.24,2.57l1.6,3a6.4,6.4,0,0,0,4.4-5,6,6,0,0,0-.67-3.7l-8.2-15.2h0"/>
    <path class="cls-1" d="M25.26,129.78l8.25,15.31a8.79,8.79,0,0,1,1,5.43,9.45,9.45,0,0,1-6.68,7.41l-.34.11,1.6,3,.33-.11h0c5-1.69,8.22-5.49,8.85-9.81a11.6,11.6,0,0,0-1.31-7.2l-8.27-15.37h0"/>
    <path class="cls-1" d="M18.69,169.55h0L10.37,154.1a11.76,11.76,0,0,1-1.32-7.24c.64-4.35,3.85-8.18,8.91-9.88h0l.33-.11,1.61,3-.34.12a9.48,9.48,0,0,0-6.72,7.44,8.92,8.92,0,0,0,1,5.47l8.3,15.41"/>
    <path class="cls-1" d="M26,166.92h0l-8.24-15.29A6,6,0,0,1,17,147.9a6.43,6.43,0,0,1,4.43-5l1.61,3.05a3.34,3.34,0,0,0-2.25,2.58,3.11,3.11,0,0,0,.35,1.95l8.28,15.35h0"/>
    <path class="cls-1" d="M17.3,95.14h0l8.23,15.26a3.06,3.06,0,0,1,.35,1.93,3.31,3.31,0,0,1-2.23,2.57l1.59,3a6.38,6.38,0,0,0,4.41-5,6.06,6.06,0,0,0-.68-3.71L20.78,94h0"/>
    <path class="cls-1" d="M24.58,92.63,32.83,108a8.78,8.78,0,0,1,1,5.43,9.44,9.44,0,0,1-6.68,7.4l-.34.11,1.59,3,.34-.12h0c5-1.69,8.21-5.49,8.85-9.81a11.62,11.62,0,0,0-1.31-7.2L28,91.43h0"/>
    <path class="cls-1" d="M18,132.41h0L9.68,117a11.75,11.75,0,0,1-1.31-7.24c.64-4.35,3.85-8.18,8.9-9.87h0l.34-.12,1.6,3-.33.12a9.51,9.51,0,0,0-6.73,7.45,8.89,8.89,0,0,0,1,5.46l8.3,15.41"/>
    <path class="cls-1" d="M25.27,129.78h0L17,114.48a6,6,0,0,1-.68-3.72,6.43,6.43,0,0,1,4.43-5l1.61,3.05a3.36,3.36,0,0,0-2.26,2.59,3.16,3.16,0,0,0,.36,1.94l8.28,15.36h0"/>
    <path class="cls-1" d="M16.73,58.12h0L25,73.38a3.08,3.08,0,0,1,.35,1.94,3.33,3.33,0,0,1-2.23,2.57l1.59,3a6.41,6.41,0,0,0,4.41-5,6,6,0,0,0-.68-3.7L20.21,57h0"/>
    <path class="cls-1" d="M24,55.61l8.25,15.32a8.79,8.79,0,0,1,1,5.43,9.43,9.43,0,0,1-6.68,7.4l-.34.12,1.59,3,.34-.11h0c5-1.69,8.21-5.5,8.85-9.82a11.7,11.7,0,0,0-1.31-7.2L27.42,54.41h0"/>
    <path class="cls-1" d="M17.44,95.39h0L9.11,79.93A11.72,11.72,0,0,1,7.8,72.69c.64-4.35,3.85-8.17,8.9-9.87h0l.34-.11,1.6,3-.33.11a9.51,9.51,0,0,0-6.73,7.45,8.89,8.89,0,0,0,1,5.46l8.3,15.41"/>
    <path class="cls-1" d="M24.7,92.76h0L16.46,77.47a6.05,6.05,0,0,1-.68-3.73,6.44,6.44,0,0,1,4.43-5l1.61,3a3.38,3.38,0,0,0-2.26,2.59,3.2,3.2,0,0,0,.36,2L28.2,91.66h0"/>
    <path class="cls-1" d="M16.05,21h0l8.23,15.26a3.15,3.15,0,0,1,.35,1.94,3.32,3.32,0,0,1-2.24,2.57l1.6,3a6.38,6.38,0,0,0,4.4-5,5.94,5.94,0,0,0-.67-3.7l-8.19-15.2h0"/>
    <path class="cls-1" d="M23.32,18.46l8.26,15.32a8.86,8.86,0,0,1,1,5.43,9.44,9.44,0,0,1-6.68,7.41l-.33.11,1.59,3,.33-.11h0c5-1.69,8.22-5.49,8.86-9.81A11.74,11.74,0,0,0,35,32.63L26.74,17.26h0"/>
    <path class="cls-1" d="M16.76,58.24h0L8.43,42.79a11.85,11.85,0,0,1-1.32-7.25C7.76,31.2,11,27.37,16,25.67h0l.34-.11,1.6,3-.34.11a9.49,9.49,0,0,0-6.72,7.45,8.81,8.81,0,0,0,1,5.46L20.2,57"/>
    <path class="cls-1" d="M24,55.61h0L15.77,40.32a6.12,6.12,0,0,1-.68-3.73,6.45,6.45,0,0,1,4.44-5l1.6,3.06a3.35,3.35,0,0,0-2.25,2.58,3.2,3.2,0,0,0,.36,1.95l8.28,15.35h0"/>
    <path class="cls-1" d="M22.43,427.77h0L30.66,443A3.06,3.06,0,0,1,31,445a3.31,3.31,0,0,1-2.23,2.57l1.59,3a6.41,6.41,0,0,0,4.41-5,6.06,6.06,0,0,0-.68-3.71l-8.19-15.2h0"/>
    <path class="cls-1" d="M29.71,425.26,38,440.58A8.78,8.78,0,0,1,39,446a9.44,9.44,0,0,1-6.68,7.4l-.34.11,1.59,3,.34-.12h0c5-1.69,8.21-5.49,8.85-9.81a11.7,11.7,0,0,0-1.31-7.2l-8.28-15.36h0"/>
    <path class="cls-1" d="M23.14,465h0l-8.33-15.46a11.75,11.75,0,0,1-1.31-7.24c.64-4.35,3.84-8.17,8.9-9.87h0l.34-.12,1.6,3-.33.12A9.51,9.51,0,0,0,17.28,443a8.89,8.89,0,0,0,1,5.46l8.3,15.41"/>
    <path class="cls-1" d="M30.4,462.41h0l-8.24-15.29a6.06,6.06,0,0,1-.68-3.73,6.43,6.43,0,0,1,4.43-5l1.61,3.05A3.36,3.36,0,0,0,25.26,444a3.16,3.16,0,0,0,.36,1.94l8.28,15.36h0"/>
    <path class="cls-1" d="M21.75,390.62h0L30,405.88a3.15,3.15,0,0,1,.35,1.94,3.32,3.32,0,0,1-2.24,2.57l1.6,3a6.4,6.4,0,0,0,4.4-5,5.94,5.94,0,0,0-.67-3.7l-8.19-15.21h0"/>
    <path class="cls-1" d="M29,388.11l8.26,15.32a8.86,8.86,0,0,1,1,5.43,9.41,9.41,0,0,1-6.68,7.4l-.33.12,1.59,3,.33-.11h0c5-1.69,8.22-5.5,8.86-9.82a11.77,11.77,0,0,0-1.31-7.2l-8.28-15.36h0"/>
    <path class="cls-1" d="M22.46,427.89h0l-8.33-15.46a11.8,11.8,0,0,1-1.32-7.24c.65-4.35,3.85-8.17,8.91-9.87h0l.34-.11,1.6,3-.34.11a9.48,9.48,0,0,0-6.72,7.45,8.82,8.82,0,0,0,1,5.46l8.3,15.41"/>
    <path class="cls-1" d="M29.72,425.26h0L21.47,410a6.12,6.12,0,0,1-.68-3.73,6.45,6.45,0,0,1,4.44-5l1.6,3a3.38,3.38,0,0,0-2.25,2.59,3.2,3.2,0,0,0,.36,1.95l8.28,15.35h0"/>
    <path class="cls-1" d="M21.18,353.6h0l8.23,15.26a3.15,3.15,0,0,1,.35,1.94,3.32,3.32,0,0,1-2.24,2.57l1.6,3a6.38,6.38,0,0,0,4.4-5,5.94,5.94,0,0,0-.67-3.7l-8.19-15.2h0"/>
    <path class="cls-1" d="M28.45,351.09l8.26,15.32a8.86,8.86,0,0,1,1,5.43A9.44,9.44,0,0,1,31,379.25l-.33.11,1.59,3,.33-.11h0c5-1.69,8.22-5.49,8.86-9.81a11.74,11.74,0,0,0-1.31-7.2l-8.28-15.37h0"/>
    <path class="cls-1" d="M21.89,390.87h0l-8.33-15.45a11.85,11.85,0,0,1-1.32-7.25c.65-4.34,3.85-8.17,8.91-9.87h0l.34-.11,1.6,3-.34.11A9.49,9.49,0,0,0,16,368.79a8.87,8.87,0,0,0,1,5.46l8.31,15.41"/>
    <path class="cls-1" d="M29.15,388.24h0L20.9,373a6.11,6.11,0,0,1-.68-3.73,6.45,6.45,0,0,1,4.44-5l1.6,3.06A3.35,3.35,0,0,0,24,369.84a3.2,3.2,0,0,0,.36,2l8.28,15.35h0"/>
    <path class="cls-1" d="M20.49,316.46h0l8.24,15.26a3.19,3.19,0,0,1,.35,1.93,3.34,3.34,0,0,1-2.24,2.57l1.6,3a6.4,6.4,0,0,0,4.4-5,6.05,6.05,0,0,0-.67-3.71L24,315.36h0"/>
    <path class="cls-1" d="M27.77,314,36,329.26a8.79,8.79,0,0,1,1,5.43,9.44,9.44,0,0,1-6.68,7.41l-.34.11,1.6,3,.33-.11h0c5-1.69,8.22-5.49,8.85-9.81a11.68,11.68,0,0,0-1.3-7.2l-8.28-15.36h0"/>
    <path class="cls-1" d="M21.2,353.72h0l-8.32-15.45A11.76,11.76,0,0,1,11.56,331c.64-4.35,3.85-8.18,8.91-9.88h0l.34-.11,1.6,3-.34.12a9.48,9.48,0,0,0-6.72,7.44,8.92,8.92,0,0,0,1,5.47l8.3,15.41"/>
    <path class="cls-1" d="M28.46,351.09h0L20.22,335.8a6,6,0,0,1-.68-3.73,6.43,6.43,0,0,1,4.43-5l1.61,3.05a3.34,3.34,0,0,0-2.25,2.58,3.18,3.18,0,0,0,.35,1.95L32,350h0"/>
</svg>