<svg id="Layer_1" data-name="Layer 1" xmlns="http://www.w3.org/2000/svg" viewBox="0 0 127.08 479.16"><defs><style>.cls-1{fill:none;stroke:#fff;stroke-miterlimit:10;stroke-width:0.5px;}</style></defs><path class="cls-1" d="M12.93,288.61h0l8.23,15.26a3.22,3.22,0,0,1,.35,1.94,3.36,3.36,0,0,1-2.24,2.57l1.6,3a6.41,6.41,0,0,0,4.4-5,6,6,0,0,0-.67-3.7l-8.2-15.2h0"/><path class="cls-1" d="M20.2,286.1l8.25,15.32a8.79,8.79,0,0,1,1,5.43,9.41,9.41,0,0,1-6.68,7.4l-.34.12,1.6,3,.33-.11h0c5-1.69,8.22-5.49,8.86-9.82a11.73,11.73,0,0,0-1.31-7.19L23.62,284.9h0"/><path class="cls-1" d="M13.64,325.88h0L5.31,310.42A11.73,11.73,0,0,1,4,303.18c.64-4.35,3.85-8.17,8.91-9.87h0l.34-.11,1.6,3-.34.11a9.48,9.48,0,0,0-6.72,7.45,8.88,8.88,0,0,0,1,5.46l8.3,15.41"/><path class="cls-1" d="M20.89,323.25h0L12.65,308a6.05,6.05,0,0,1-.68-3.73,6.46,6.46,0,0,1,4.43-5L18,302.26a3.36,3.36,0,0,0-2.25,2.59,3.19,3.19,0,0,0,.35,1.95l8.29,15.35h0"/><path class="cls-1" d="M12.24,251.46h0l8.23,15.26a3.16,3.16,0,0,1,.36,1.94,3.36,3.36,0,0,1-2.24,2.57l1.59,3a6.39,6.39,0,0,0,4.41-5,6,6,0,0,0-.67-3.7l-8.2-15.2h0"/><path class="cls-1" d="M19.52,249l8.25,15.32a8.79,8.79,0,0,1,1,5.43,9.45,9.45,0,0,1-6.68,7.41l-.34.11,1.59,3,.34-.11h0c5-1.69,8.21-5.49,8.85-9.81a11.6,11.6,0,0,0-1.31-7.2l-8.27-15.37h0"/><path class="cls-1" d="M13,288.73h0L4.63,273.28A11.71,11.71,0,0,1,3.31,266c.64-4.34,3.85-8.17,8.9-9.87h0l.33-.11,1.61,3-.34.11a9.49,9.49,0,0,0-6.72,7.45,8.8,8.8,0,0,0,1,5.46l8.3,15.41"/><path class="cls-1" d="M20.21,286.1h0L12,270.81a6,6,0,0,1-.68-3.73,6.44,6.44,0,0,1,4.43-5l1.61,3.06a3.34,3.34,0,0,0-2.25,2.58,3.12,3.12,0,0,0,.35,1.95L23.71,285h0"/><path class="cls-1" d="M11.67,214.45h0l8.23,15.26a3.13,3.13,0,0,1,.36,1.93A3.34,3.34,0,0,1,18,234.21l1.59,3a6.4,6.4,0,0,0,4.41-5,6.05,6.05,0,0,0-.67-3.71l-8.2-15.2h0"/><path class="cls-1" d="M19,211.94l8.25,15.32a8.75,8.75,0,0,1,1,5.42,9.45,9.45,0,0,1-6.68,7.41l-.34.11,1.59,3,.34-.11h0c5-1.69,8.21-5.49,8.85-9.81a11.62,11.62,0,0,0-1.31-7.2l-8.27-15.36h0"/><path class="cls-1" d="M12.38,251.71h0L4.06,236.26A11.69,11.69,0,0,1,2.74,229c.64-4.35,3.85-8.18,8.9-9.88h0L12,219l1.6,3-.33.12a9.48,9.48,0,0,0-6.72,7.45,8.83,8.83,0,0,0,1,5.46l8.3,15.41"/><path class="cls-1" d="M19.64,249.09h0L11.4,233.79a6,6,0,0,1-.68-3.72,6.43,6.43,0,0,1,4.43-5l1.61,3a3.34,3.34,0,0,0-2.25,2.58,3.11,3.11,0,0,0,.35,1.95L23.14,248h0"/><path class="cls-1" d="M11,177.3h0l8.23,15.26a3.13,3.13,0,0,1,.35,1.93,3.31,3.31,0,0,1-2.24,2.57l1.6,3a6.43,6.43,0,0,0,4.41-5,6.06,6.06,0,0,0-.68-3.71l-8.19-15.2h0"/><path class="cls-1" d="M18.27,174.79l8.25,15.32a8.85,8.85,0,0,1,1,5.43,9.42,9.42,0,0,1-6.69,7.4l-.33.11,1.59,3,.34-.12h0c5-1.68,8.21-5.49,8.85-9.81A11.77,11.77,0,0,0,30,189l-8.28-15.36h0"/><path class="cls-1" d="M11.7,214.57h0L3.37,199.11a11.82,11.82,0,0,1-1.32-7.24C2.7,187.52,5.9,183.7,11,182h0l.34-.12,1.6,3.05-.34.11a9.51,9.51,0,0,0-6.72,7.45,8.82,8.82,0,0,0,1,5.46l8.3,15.41"/><path class="cls-1" d="M19,211.94h0l-8.25-15.29a6,6,0,0,1-.67-3.73,6.44,6.44,0,0,1,4.43-5l1.6,3a3.37,3.37,0,0,0-2.25,2.59,3.16,3.16,0,0,0,.36,1.94l8.28,15.36h0"/><path class="cls-1" d="M11,141.43h0l8.23,15.26a3.13,3.13,0,0,1,.35,1.93,3.31,3.31,0,0,1-2.24,2.57l1.6,3a6.4,6.4,0,0,0,4.41-5,6.06,6.06,0,0,0-.68-3.71l-8.19-15.2h0"/><path class="cls-1" d="M18.27,138.92l8.25,15.32a8.85,8.85,0,0,1,1,5.43,9.44,9.44,0,0,1-6.69,7.4l-.33.11,1.59,3,.34-.12h0c5-1.69,8.21-5.49,8.85-9.81a11.76,11.76,0,0,0-1.31-7.2l-8.28-15.36h0"/><path class="cls-1" d="M11.7,178.7h0L3.37,163.24A11.83,11.83,0,0,1,2.05,156c.65-4.35,3.85-8.18,8.91-9.87h0l.34-.12,1.6,3-.34.12a9.51,9.51,0,0,0-6.72,7.45,8.82,8.82,0,0,0,1,5.46l8.3,15.41"/><path class="cls-1" d="M19,176.07h0l-8.25-15.3a6,6,0,0,1-.67-3.72,6.43,6.43,0,0,1,4.43-5l1.6,3.05a3.35,3.35,0,0,0-2.25,2.59,3.16,3.16,0,0,0,.36,1.94L22.46,175h0"/><path class="cls-1" d="M10.31,104.28h0l8.23,15.26a3.2,3.2,0,0,1,.35,1.93,3.34,3.34,0,0,1-2.24,2.58l1.6,3a6.41,6.41,0,0,0,4.4-5,6,6,0,0,0-.67-3.7l-8.2-15.21h0"/><path class="cls-1" d="M17.58,101.77l8.26,15.32a8.86,8.86,0,0,1,1,5.43,9.41,9.41,0,0,1-6.68,7.4l-.33.12,1.59,3,.33-.11h0c5-1.69,8.22-5.5,8.86-9.82a11.77,11.77,0,0,0-1.31-7.2L21,100.57h0"/><path class="cls-1" d="M11,141.55h0L2.69,126.09a11.82,11.82,0,0,1-1.32-7.24c.64-4.35,3.85-8.17,8.91-9.87h0l.34-.12,1.6,3-.34.11a9.48,9.48,0,0,0-6.72,7.45,8.88,8.88,0,0,0,1,5.46l8.31,15.41"/><path class="cls-1" d="M18.28,138.92h0L10,123.63a6.05,6.05,0,0,1-.68-3.73,6.45,6.45,0,0,1,4.44-5l1.6,3.05a3.35,3.35,0,0,0-2.25,2.59,3.19,3.19,0,0,0,.35,2l8.29,15.35h0"/><path class="cls-1" d="M9.74,67.26h0L18,82.52a3.22,3.22,0,0,1,.35,1.94A3.34,3.34,0,0,1,16.08,87l1.6,3a6.4,6.4,0,0,0,4.4-5,6,6,0,0,0-.67-3.7l-8.2-15.2h0"/><path class="cls-1" d="M17,64.75l8.26,15.32a8.86,8.86,0,0,1,1,5.43,9.44,9.44,0,0,1-6.68,7.41l-.33.11,1.59,3,.33-.11h0c5-1.69,8.22-5.49,8.86-9.81a11.74,11.74,0,0,0-1.31-7.2L20.43,63.55h0"/><path class="cls-1" d="M10.45,104.53h0L2.12,89.08A11.85,11.85,0,0,1,.8,81.83c.64-4.34,3.85-8.17,8.91-9.87h0l.34-.11,1.6,3-.34.11a9.49,9.49,0,0,0-6.72,7.45,8.87,8.87,0,0,0,1,5.46l8.31,15.41"/><path class="cls-1" d="M17.7,101.9h0L9.46,86.61a6.05,6.05,0,0,1-.68-3.73,6.46,6.46,0,0,1,4.43-5l1.61,3.06a3.34,3.34,0,0,0-2.25,2.58,3.19,3.19,0,0,0,.35,2l8.29,15.35h0"/><path class="cls-1" d="M9.05,30.12h0l8.23,15.26a3.13,3.13,0,0,1,.36,1.93,3.34,3.34,0,0,1-2.24,2.57l1.59,3a6.4,6.4,0,0,0,4.41-5,6,6,0,0,0-.67-3.71L12.53,29h0"/><path class="cls-1" d="M16.33,27.61l8.25,15.31a8.79,8.79,0,0,1,1,5.43,9.45,9.45,0,0,1-6.68,7.41l-.34.11,1.59,3,.34-.11h0c5-1.69,8.21-5.49,8.85-9.81A11.62,11.62,0,0,0,28,41.77L19.75,26.4h0"/><path class="cls-1" d="M9.76,67.38h0L1.44,51.93A11.69,11.69,0,0,1,.12,44.69C.76,40.34,4,36.51,9,34.81H9l.33-.11,1.61,3-.34.12A9.48,9.48,0,0,0,3.91,45.3a8.92,8.92,0,0,0,1,5.47l8.3,15.41"/><path class="cls-1" d="M17,64.75h0L8.78,49.46a6,6,0,0,1-.68-3.73,6.43,6.43,0,0,1,4.43-5l1.61,3.05a3.34,3.34,0,0,0-2.25,2.58,3.11,3.11,0,0,0,.35,1.95l8.28,15.35h0"/><path class="cls-1" d="M15.44,436.91h0l8.23,15.26a3.22,3.22,0,0,1,.35,1.94,3.36,3.36,0,0,1-2.24,2.57l1.6,3a6.41,6.41,0,0,0,4.4-5,6,6,0,0,0-.67-3.7l-8.2-15.21h0"/><path class="cls-1" d="M22.71,434.4,31,449.72a8.86,8.86,0,0,1,1,5.43,9.41,9.41,0,0,1-6.68,7.4l-.33.12,1.59,3,.33-.11h0c5-1.69,8.22-5.5,8.86-9.82a11.77,11.77,0,0,0-1.31-7.2L26.13,433.2h0"/><path class="cls-1" d="M16.15,474.18h0L7.82,458.72a11.8,11.8,0,0,1-1.32-7.24c.64-4.35,3.85-8.17,8.91-9.87h0l.34-.11,1.6,3-.34.11a9.48,9.48,0,0,0-6.72,7.45,8.88,8.88,0,0,0,1,5.46L19.58,473"/><path class="cls-1" d="M23.4,471.55h0l-8.24-15.29a6.05,6.05,0,0,1-.68-3.73,6.46,6.46,0,0,1,4.43-5l1.61,3.05a3.36,3.36,0,0,0-2.25,2.59,3.19,3.19,0,0,0,.35,2l8.29,15.35h0"/><path class="cls-1" d="M14.75,399.76h0L23,415a3.16,3.16,0,0,1,.36,1.94,3.36,3.36,0,0,1-2.24,2.57l1.59,3a6.39,6.39,0,0,0,4.41-5,6,6,0,0,0-.67-3.7l-8.2-15.2h0"/><path class="cls-1" d="M22,397.25l8.25,15.32a8.79,8.79,0,0,1,1,5.43,9.45,9.45,0,0,1-6.68,7.41l-.34.11,1.59,3,.34-.11h0c5-1.69,8.21-5.49,8.85-9.81a11.6,11.6,0,0,0-1.31-7.2l-8.27-15.37h0"/><path class="cls-1" d="M15.46,437h0L7.14,421.58a11.71,11.71,0,0,1-1.32-7.25c.64-4.34,3.85-8.17,8.91-9.87h0l.33-.11,1.61,3-.34.11A9.49,9.49,0,0,0,9.61,415a8.87,8.87,0,0,0,1,5.46l8.3,15.41"/><path class="cls-1" d="M22.72,434.4h0l-8.24-15.29a6.05,6.05,0,0,1-.68-3.73,6.44,6.44,0,0,1,4.43-5l1.61,3.06A3.34,3.34,0,0,0,17.59,416a3.12,3.12,0,0,0,.35,1.95l8.28,15.35h0"/><path class="cls-1" d="M14.18,362.75h0L22.41,378a3.13,3.13,0,0,1,.36,1.93,3.34,3.34,0,0,1-2.24,2.57l1.59,3a6.4,6.4,0,0,0,4.41-5,6.05,6.05,0,0,0-.67-3.71l-8.2-15.2h0"/><path class="cls-1" d="M21.46,360.24l8.25,15.31a8.79,8.79,0,0,1,1,5.43A9.45,9.45,0,0,1,24,388.39l-.34.11,1.59,3,.34-.11h0c5-1.69,8.21-5.49,8.85-9.81a11.62,11.62,0,0,0-1.31-7.2L24.88,359h0"/><path class="cls-1" d="M14.89,400h0L6.57,384.56a11.69,11.69,0,0,1-1.32-7.24c.64-4.35,3.85-8.18,8.91-9.88h0l.33-.11,1.61,3-.34.12A9.48,9.48,0,0,0,9,377.93a8.85,8.85,0,0,0,1,5.47l8.3,15.41"/><path class="cls-1" d="M22.15,397.38h0l-8.24-15.29a6,6,0,0,1-.68-3.73,6.43,6.43,0,0,1,4.43-5l1.61,3A3.34,3.34,0,0,0,17,379a3.11,3.11,0,0,0,.35,1.95l8.28,15.35h0"/><path class="cls-1" d="M13.5,325.6h0l8.23,15.26a3.06,3.06,0,0,1,.35,1.93,3.31,3.31,0,0,1-2.24,2.57l1.6,3a6.43,6.43,0,0,0,4.41-5,6.06,6.06,0,0,0-.68-3.71L17,324.5h0"/><path class="cls-1" d="M20.78,323.09,29,338.41a8.85,8.85,0,0,1,1,5.43,9.44,9.44,0,0,1-6.69,7.4l-.33.11,1.59,3,.34-.12h0c5-1.69,8.21-5.49,8.85-9.81a11.77,11.77,0,0,0-1.31-7.2l-8.28-15.36h0"/><path class="cls-1" d="M14.21,362.87h0L5.88,347.41a11.74,11.74,0,0,1-1.31-7.24c.64-4.35,3.84-8.17,8.9-9.87h0l.34-.12,1.6,3-.34.12a9.51,9.51,0,0,0-6.72,7.45,8.82,8.82,0,0,0,1,5.46l8.3,15.41"/><path class="cls-1" d="M21.47,360.24h0L13.22,345a6.06,6.06,0,0,1-.67-3.73,6.43,6.43,0,0,1,4.43-5l1.61,3.05a3.35,3.35,0,0,0-2.26,2.59,3.16,3.16,0,0,0,.36,1.94L25,359.14h0"/><path class="cls-1" d="M41.12,269.13h0l8.23,15.26a3.16,3.16,0,0,1,.36,1.94,3.36,3.36,0,0,1-2.24,2.57l1.59,3a6.39,6.39,0,0,0,4.41-5,6,6,0,0,0-.67-3.7L44.6,268h0"/><path class="cls-1" d="M48.4,266.62l8.25,15.32a8.79,8.79,0,0,1,1,5.43,9.43,9.43,0,0,1-6.68,7.4l-.34.12,1.59,3,.34-.11h0c5-1.69,8.22-5.49,8.85-9.82a11.59,11.59,0,0,0-1.31-7.19l-8.27-15.37h0"/><path class="cls-1" d="M41.83,306.4h0l-8.32-15.46a11.66,11.66,0,0,1-1.32-7.24c.64-4.35,3.85-8.17,8.91-9.87h0l.33-.11,1.61,3-.34.11A9.48,9.48,0,0,0,36,284.32a8.88,8.88,0,0,0,1,5.46l8.3,15.41"/><path class="cls-1" d="M49.09,303.77h0l-8.24-15.29a6.05,6.05,0,0,1-.68-3.73,6.44,6.44,0,0,1,4.43-5l1.61,3A3.36,3.36,0,0,0,44,285.37a3.12,3.12,0,0,0,.35,1.95l8.28,15.35h0"/><path class="cls-1" d="M40.44,232h0l8.23,15.26a3.08,3.08,0,0,1,.35,1.94,3.33,3.33,0,0,1-2.23,2.57l1.59,3a6.41,6.41,0,0,0,4.41-5,6,6,0,0,0-.68-3.7l-8.19-15.2h0"/><path class="cls-1" d="M47.72,229.47,56,244.79a8.79,8.79,0,0,1,1,5.43,9.45,9.45,0,0,1-6.69,7.41l-.33.11,1.59,3,.34-.11h0c5-1.69,8.21-5.49,8.85-9.81a11.67,11.67,0,0,0-1.31-7.2l-8.28-15.37h0"/><path class="cls-1" d="M41.15,269.25h0L32.82,253.8a11.77,11.77,0,0,1-1.31-7.25c.64-4.34,3.84-8.17,8.9-9.87h0l.34-.11,1.6,3-.33.11a9.53,9.53,0,0,0-6.73,7.45,8.88,8.88,0,0,0,1,5.46L44.59,268"/><path class="cls-1" d="M48.41,266.62h0l-8.25-15.29a6,6,0,0,1-.67-3.73,6.44,6.44,0,0,1,4.43-5l1.61,3.06a3.37,3.37,0,0,0-2.26,2.58,3.2,3.2,0,0,0,.36,1.95l8.28,15.35h0"/><path class="cls-1" d="M39.87,195h0l8.23,15.26a3.05,3.05,0,0,1,.35,1.93,3.31,3.31,0,0,1-2.24,2.57l1.6,3a6.4,6.4,0,0,0,4.41-5,6.06,6.06,0,0,0-.68-3.71l-8.19-15.2h0"/><path class="cls-1" d="M47.15,192.46l8.25,15.32a8.83,8.83,0,0,1,1,5.42,9.45,9.45,0,0,1-6.69,7.41l-.33.11,1.59,3,.34-.12h0c5-1.69,8.21-5.49,8.85-9.81a11.76,11.76,0,0,0-1.31-7.2l-8.28-15.36h0"/><path class="cls-1" d="M40.58,232.23h0l-8.33-15.45a11.75,11.75,0,0,1-1.31-7.24c.64-4.35,3.84-8.18,8.9-9.88h0l.34-.11,1.6,3-.34.12a9.51,9.51,0,0,0-6.72,7.45,8.89,8.89,0,0,0,1,5.46L44,231"/><path class="cls-1" d="M47.84,229.61h0l-8.25-15.3a6,6,0,0,1-.67-3.72,6.43,6.43,0,0,1,4.43-5L45,208.62a3.35,3.35,0,0,0-2.26,2.58,3.18,3.18,0,0,0,.36,2l8.28,15.35h0"/><path class="cls-1" d="M39.19,157.82h0l8.23,15.26a3.13,3.13,0,0,1,.35,1.93,3.3,3.3,0,0,1-2.24,2.57l1.6,3a6.4,6.4,0,0,0,4.4-5,6,6,0,0,0-.67-3.71l-8.2-15.2h0"/><path class="cls-1" d="M46.46,155.31l8.26,15.32a8.84,8.84,0,0,1,1,5.43,9.41,9.41,0,0,1-6.68,7.4l-.33.11,1.59,3,.33-.12h0c5-1.68,8.22-5.49,8.86-9.81a11.77,11.77,0,0,0-1.31-7.2l-8.28-15.36h0"/><path class="cls-1" d="M39.9,195.09h0l-8.33-15.46a11.82,11.82,0,0,1-1.32-7.24c.64-4.35,3.85-8.17,8.91-9.87h0l.34-.12,1.6,3-.34.11A9.48,9.48,0,0,0,34,173a8.88,8.88,0,0,0,1,5.46l8.31,15.41"/><path class="cls-1" d="M47.16,192.46h0l-8.25-15.29a6.12,6.12,0,0,1-.68-3.73,6.45,6.45,0,0,1,4.44-5l1.6,3.05A3.37,3.37,0,0,0,42,174.06a3.16,3.16,0,0,0,.36,1.94l8.28,15.36h0"/><path class="cls-1" d="M39.19,122h0l8.23,15.26a3.13,3.13,0,0,1,.35,1.93,3.31,3.31,0,0,1-2.24,2.57l1.6,3a6.4,6.4,0,0,0,4.4-5,6,6,0,0,0-.67-3.71l-8.2-15.2h0"/><path class="cls-1" d="M46.46,119.44l8.26,15.32a8.84,8.84,0,0,1,1,5.43,9.42,9.42,0,0,1-6.68,7.4l-.33.11,1.59,3,.33-.12h0c5-1.69,8.22-5.49,8.86-9.81a11.77,11.77,0,0,0-1.31-7.2l-8.28-15.36h0"/><path class="cls-1" d="M39.9,159.22h0l-8.33-15.46a11.82,11.82,0,0,1-1.32-7.24c.64-4.35,3.85-8.17,8.91-9.87h0l.34-.12,1.6,3-.34.12A9.48,9.48,0,0,0,34,137.14a8.88,8.88,0,0,0,1,5.46L43.34,158"/><path class="cls-1" d="M47.16,156.59h0L38.91,141.3a6.14,6.14,0,0,1-.68-3.73,6.44,6.44,0,0,1,4.44-5l1.6,3A3.35,3.35,0,0,0,42,138.19a3.16,3.16,0,0,0,.36,1.94l8.28,15.36h0"/><path class="cls-1" d="M38.5,84.8h0l8.24,15.26a3.22,3.22,0,0,1,.35,1.94,3.36,3.36,0,0,1-2.24,2.57l1.6,3a6.41,6.41,0,0,0,4.4-5,6,6,0,0,0-.67-3.7L42,83.7h0"/><path class="cls-1" d="M45.78,82.29,54,97.61A8.79,8.79,0,0,1,55,103a9.43,9.43,0,0,1-6.68,7.4l-.34.12,1.6,3,.33-.11h0c5-1.69,8.22-5.5,8.85-9.82a11.69,11.69,0,0,0-1.3-7.2L49.2,81.09h0"/><path class="cls-1" d="M39.21,122.07h0l-8.32-15.46a11.73,11.73,0,0,1-1.32-7.24c.64-4.35,3.85-8.17,8.91-9.87h0l.33-.11,1.61,3-.34.11A9.48,9.48,0,0,0,33.36,100a8.88,8.88,0,0,0,1,5.46l8.3,15.41"/><path class="cls-1" d="M46.47,119.44h0l-8.24-15.29a6.05,6.05,0,0,1-.68-3.73,6.44,6.44,0,0,1,4.43-5l1.61,3A3.36,3.36,0,0,0,41.34,101a3.12,3.12,0,0,0,.35,1.95L50,118.34h0"/><path class="cls-1" d="M37.93,47.78h0L46.17,63A3.22,3.22,0,0,1,46.52,65a3.36,3.36,0,0,1-2.24,2.57l1.6,3a6.4,6.4,0,0,0,4.4-5,6,6,0,0,0-.67-3.7l-8.2-15.2h0"/><path class="cls-1" d="M45.21,45.27l8.25,15.32a8.79,8.79,0,0,1,1,5.43,9.45,9.45,0,0,1-6.68,7.41l-.34.11,1.59,3,.34-.11h0c5-1.69,8.22-5.49,8.85-9.81a11.6,11.6,0,0,0-1.31-7.2L48.63,44.07h0"/><path class="cls-1" d="M38.64,85.05h0L30.32,69.6A11.71,11.71,0,0,1,29,62.35c.64-4.34,3.85-8.17,8.91-9.87h0l.33-.11,1.61,3-.34.11A9.49,9.49,0,0,0,32.79,63a8.87,8.87,0,0,0,1,5.46l8.3,15.41"/><path class="cls-1" d="M45.9,82.42h0L37.66,67.13A6,6,0,0,1,37,63.4a6.44,6.44,0,0,1,4.43-5L43,61.44A3.34,3.34,0,0,0,40.77,64a3.12,3.12,0,0,0,.35,2L49.4,81.32h0"/><path class="cls-1" d="M37.25,10.64h0L45.48,25.9a3.05,3.05,0,0,1,.35,1.93A3.31,3.31,0,0,1,43.6,30.4l1.59,3a6.4,6.4,0,0,0,4.41-5,6.06,6.06,0,0,0-.68-3.71L40.73,9.54h0"/><path class="cls-1" d="M44.53,8.13l8.25,15.31a8.79,8.79,0,0,1,1,5.43,9.45,9.45,0,0,1-6.68,7.41l-.34.11,1.59,3,.34-.11h0c5-1.69,8.21-5.49,8.85-9.81a11.62,11.62,0,0,0-1.31-7.2L47.94,6.93h0"/><path class="cls-1" d="M38,47.9h0L29.63,32.45a11.75,11.75,0,0,1-1.31-7.24c.64-4.35,3.85-8.18,8.9-9.88h0l.34-.11,1.6,3-.33.12a9.51,9.51,0,0,0-6.73,7.44,8.92,8.92,0,0,0,1,5.47L41.4,46.7"/><path class="cls-1" d="M45.22,45.27h0L37,30a6,6,0,0,1-.68-3.73,6.43,6.43,0,0,1,4.43-5l1.61,3.05a3.37,3.37,0,0,0-2.26,2.58,3.19,3.19,0,0,0,.36,1.95l8.28,15.35h0"/><path class="cls-1" d="M43.63,417.43h0l8.24,15.26a3.22,3.22,0,0,1,.35,1.94A3.36,3.36,0,0,1,50,437.2l1.6,3a6.41,6.41,0,0,0,4.4-5,6,6,0,0,0-.67-3.7l-8.2-15.2h0"/><path class="cls-1" d="M50.91,414.92l8.25,15.32a8.79,8.79,0,0,1,1,5.43,9.43,9.43,0,0,1-6.68,7.4l-.34.12,1.59,3,.34-.11h0c5-1.69,8.22-5.49,8.85-9.82a11.59,11.59,0,0,0-1.31-7.19l-8.27-15.37h0"/><path class="cls-1" d="M44.34,454.7h0L36,439.24A11.66,11.66,0,0,1,34.7,432c.64-4.35,3.85-8.17,8.91-9.87h0l.33-.11,1.61,3-.34.11a9.48,9.48,0,0,0-6.72,7.45,8.88,8.88,0,0,0,1,5.46l8.3,15.41"/><path class="cls-1" d="M51.6,452.07h0l-8.24-15.29a6.05,6.05,0,0,1-.68-3.73,6.44,6.44,0,0,1,4.43-5l1.61,3.05a3.36,3.36,0,0,0-2.25,2.59,3.12,3.12,0,0,0,.35,1.95L55.1,451h0"/><path class="cls-1" d="M43,380.28h0l8.23,15.26a3.08,3.08,0,0,1,.35,1.94,3.33,3.33,0,0,1-2.23,2.57l1.59,3a6.39,6.39,0,0,0,4.41-5,6,6,0,0,0-.68-3.7l-8.19-15.2h0"/><path class="cls-1" d="M50.23,377.77l8.25,15.32a8.79,8.79,0,0,1,1,5.43,9.45,9.45,0,0,1-6.68,7.41l-.34.11,1.59,3,.34-.11h0c5-1.69,8.21-5.49,8.85-9.81a11.67,11.67,0,0,0-1.31-7.2l-8.28-15.37h0"/><path class="cls-1" d="M43.66,417.55h0L35.33,402.1A11.77,11.77,0,0,1,34,394.85c.64-4.34,3.85-8.17,8.9-9.87h0l.34-.11,1.6,3-.33.11a9.52,9.52,0,0,0-6.73,7.45,8.88,8.88,0,0,0,1,5.46l8.3,15.41"/><path class="cls-1" d="M50.92,414.92h0l-8.24-15.29A6,6,0,0,1,42,395.9a6.44,6.44,0,0,1,4.43-5L48,393.94a3.37,3.37,0,0,0-2.26,2.58,3.2,3.2,0,0,0,.36,2l8.28,15.35h0"/><path class="cls-1" d="M42.38,343.27h0l8.23,15.26a3.05,3.05,0,0,1,.35,1.93A3.31,3.31,0,0,1,48.73,363l1.59,3a6.41,6.41,0,0,0,4.41-5,6.06,6.06,0,0,0-.68-3.71l-8.19-15.2h0"/><path class="cls-1" d="M49.66,340.76l8.25,15.32a8.75,8.75,0,0,1,1,5.42,9.45,9.45,0,0,1-6.69,7.41l-.33.11,1.59,3,.34-.11h0c5-1.69,8.21-5.49,8.85-9.81a11.69,11.69,0,0,0-1.31-7.2l-8.28-15.36h0"/><path class="cls-1" d="M43.09,380.53h0l-8.33-15.45a11.75,11.75,0,0,1-1.31-7.24c.64-4.35,3.84-8.18,8.9-9.88h0l.34-.11,1.6,3L44,351a9.51,9.51,0,0,0-6.73,7.45,8.91,8.91,0,0,0,1,5.46l8.3,15.41"/><path class="cls-1" d="M50.35,377.91h0l-8.24-15.29a6,6,0,0,1-.68-3.72,6.43,6.43,0,0,1,4.43-5l1.61,3.05a3.37,3.37,0,0,0-2.26,2.58,3.19,3.19,0,0,0,.36,1.95l8.28,15.35h0"/><path class="cls-1" d="M41.7,306.12h0l8.23,15.26a3.13,3.13,0,0,1,.35,1.93A3.31,3.31,0,0,1,48,325.88l1.6,3a6.4,6.4,0,0,0,4.4-5,6,6,0,0,0-.67-3.71L45.18,305h0"/><path class="cls-1" d="M49,303.61l8.26,15.32a8.84,8.84,0,0,1,1,5.43,9.41,9.41,0,0,1-6.68,7.4l-.33.11,1.59,3,.33-.12h0c5-1.68,8.22-5.49,8.86-9.81a11.77,11.77,0,0,0-1.31-7.2l-8.28-15.36h0"/><path class="cls-1" d="M42.41,343.39h0l-8.33-15.46a11.82,11.82,0,0,1-1.32-7.24c.65-4.35,3.85-8.17,8.91-9.87h0l.34-.12,1.6,3.05-.34.11a9.48,9.48,0,0,0-6.72,7.45,8.88,8.88,0,0,0,1,5.46l8.31,15.41"/><path class="cls-1" d="M49.67,340.76h0l-8.25-15.29a6.12,6.12,0,0,1-.68-3.73,6.45,6.45,0,0,1,4.44-5l1.6,3a3.37,3.37,0,0,0-2.25,2.59,3.16,3.16,0,0,0,.36,1.94l8.28,15.36h0"/><path class="cls-1" d="M69,288.61h0l8.23,15.26a3.16,3.16,0,0,1,.36,1.94,3.36,3.36,0,0,1-2.24,2.57l1.59,3a6.41,6.41,0,0,0,4.41-5,6,6,0,0,0-.68-3.7l-8.19-15.2h0"/><path class="cls-1" d="M76.32,286.1l8.25,15.32a8.79,8.79,0,0,1,1,5.43,9.43,9.43,0,0,1-6.68,7.4l-.34.12,1.59,3,.34-.11h0c5-1.69,8.21-5.49,8.85-9.82A11.59,11.59,0,0,0,88,300.27L79.74,284.9h0"/><path class="cls-1" d="M69.75,325.88h0l-8.32-15.46a11.66,11.66,0,0,1-1.32-7.24c.64-4.35,3.85-8.17,8.9-9.87h0l.34-.11,1.6,3-.33.11a9.48,9.48,0,0,0-6.72,7.45,8.82,8.82,0,0,0,1,5.46l8.3,15.41"/><path class="cls-1" d="M77,323.25h0L68.77,308a6.05,6.05,0,0,1-.68-3.73,6.44,6.44,0,0,1,4.43-5l1.61,3.05a3.36,3.36,0,0,0-2.25,2.59,3.12,3.12,0,0,0,.35,1.95l8.28,15.35h0"/><path class="cls-1" d="M68.36,251.46h0l8.23,15.26a3.15,3.15,0,0,1,.35,1.94,3.32,3.32,0,0,1-2.24,2.57l1.6,3a6.41,6.41,0,0,0,4.41-5,6,6,0,0,0-.68-3.7l-8.19-15.2h0"/><path class="cls-1" d="M75.64,249l8.25,15.32a8.86,8.86,0,0,1,1,5.43,9.45,9.45,0,0,1-6.69,7.41l-.33.11,1.59,3,.34-.11h0c5-1.69,8.21-5.49,8.85-9.81a11.74,11.74,0,0,0-1.31-7.2l-8.28-15.37h0"/><path class="cls-1" d="M69.07,288.73h0l-8.33-15.45A11.85,11.85,0,0,1,59.42,266c.65-4.34,3.85-8.17,8.91-9.87h0l.34-.11,1.6,3-.34.11a9.52,9.52,0,0,0-6.72,7.45,8.81,8.81,0,0,0,1,5.46l8.3,15.41"/><path class="cls-1" d="M76.33,286.1h0l-8.25-15.29a6,6,0,0,1-.67-3.73,6.44,6.44,0,0,1,4.43-5l1.6,3.06a3.35,3.35,0,0,0-2.25,2.58,3.2,3.2,0,0,0,.36,1.95L79.83,285h0"/><path class="cls-1" d="M67.79,214.45h0L76,229.71a3.12,3.12,0,0,1,.35,1.93,3.31,3.31,0,0,1-2.24,2.57l1.6,3a6.41,6.41,0,0,0,4.41-5,6.06,6.06,0,0,0-.68-3.71l-8.19-15.2h0"/><path class="cls-1" d="M75.06,211.94l8.26,15.32a8.82,8.82,0,0,1,1,5.42,9.47,9.47,0,0,1-6.69,7.41l-.33.11,1.59,3,.34-.11h0c5-1.69,8.21-5.49,8.85-9.81a11.76,11.76,0,0,0-1.31-7.2l-8.28-15.36h0"/><path class="cls-1" d="M68.5,251.71h0l-8.33-15.45A11.83,11.83,0,0,1,58.85,229c.65-4.35,3.85-8.18,8.91-9.88h0l.34-.11,1.6,3-.34.12a9.51,9.51,0,0,0-6.72,7.45,8.84,8.84,0,0,0,1,5.46l8.3,15.41"/><path class="cls-1" d="M75.76,249.09h0l-8.25-15.29a6,6,0,0,1-.67-3.72,6.43,6.43,0,0,1,4.43-5l1.6,3a3.35,3.35,0,0,0-2.25,2.58,3.19,3.19,0,0,0,.36,1.95L79.26,248h0"/><path class="cls-1" d="M67.11,177.3h0l8.23,15.26a3.2,3.2,0,0,1,.35,1.93,3.33,3.33,0,0,1-2.24,2.57l1.6,3a6.41,6.41,0,0,0,4.4-5,6.05,6.05,0,0,0-.67-3.71l-8.2-15.2h0"/><path class="cls-1" d="M74.38,174.79l8.26,15.32a8.84,8.84,0,0,1,1,5.43,9.41,9.41,0,0,1-6.68,7.4l-.33.11,1.59,3,.33-.12h0c5-1.68,8.22-5.49,8.86-9.81a11.77,11.77,0,0,0-1.31-7.2L77.8,173.59h0"/><path class="cls-1" d="M67.82,214.57h0l-8.33-15.46a11.82,11.82,0,0,1-1.32-7.24c.64-4.35,3.85-8.17,8.91-9.87h0l.34-.12,1.6,3.05-.34.11A9.48,9.48,0,0,0,62,192.49,8.88,8.88,0,0,0,63,198l8.3,15.41"/><path class="cls-1" d="M75.07,211.94h0l-8.24-15.29a6.05,6.05,0,0,1-.68-3.73,6.46,6.46,0,0,1,4.43-5l1.61,3a3.35,3.35,0,0,0-2.25,2.59,3.15,3.15,0,0,0,.35,1.94l8.29,15.36h0"/><path class="cls-1" d="M67.11,141.43h0l8.23,15.26a3.2,3.2,0,0,1,.35,1.93,3.33,3.33,0,0,1-2.24,2.57l1.6,3a6.39,6.39,0,0,0,4.4-5,6.05,6.05,0,0,0-.67-3.71l-8.2-15.2h0"/><path class="cls-1" d="M74.38,138.92l8.26,15.32a8.84,8.84,0,0,1,1,5.43,9.42,9.42,0,0,1-6.68,7.4l-.33.11,1.59,3,.33-.12h0c5-1.69,8.22-5.49,8.86-9.81a11.76,11.76,0,0,0-1.31-7.2L77.8,137.72h0"/><path class="cls-1" d="M67.82,178.7h0l-8.33-15.46A11.83,11.83,0,0,1,58.17,156c.64-4.35,3.85-8.18,8.91-9.87h0l.34-.12,1.6,3-.34.12A9.48,9.48,0,0,0,62,156.62a8.88,8.88,0,0,0,1,5.46l8.3,15.41"/><path class="cls-1" d="M75.07,176.07h0l-8.24-15.3a6,6,0,0,1-.68-3.72,6.44,6.44,0,0,1,4.43-5l1.61,3.05a3.33,3.33,0,0,0-2.25,2.59,3.15,3.15,0,0,0,.35,1.94L78.58,175h0"/><path class="cls-1" d="M66.42,104.28h0l8.23,15.26a3.14,3.14,0,0,1,.36,1.93,3.36,3.36,0,0,1-2.24,2.58l1.59,3a6.41,6.41,0,0,0,4.41-5,6,6,0,0,0-.67-3.7l-8.2-15.21h0"/><path class="cls-1" d="M73.7,101.77,82,117.09a8.79,8.79,0,0,1,1,5.43,9.43,9.43,0,0,1-6.68,7.4l-.34.12,1.59,3,.34-.11h0c5-1.69,8.21-5.5,8.85-9.82a11.63,11.63,0,0,0-1.31-7.2l-8.27-15.36h0"/><path class="cls-1" d="M67.13,141.55h0l-8.32-15.46a11.68,11.68,0,0,1-1.32-7.24c.64-4.35,3.85-8.17,8.91-9.87h0l.33-.12,1.61,3L68,112a9.48,9.48,0,0,0-6.72,7.45,8.88,8.88,0,0,0,1,5.46l8.3,15.41"/><path class="cls-1" d="M74.39,138.92h0l-8.24-15.29a6.05,6.05,0,0,1-.68-3.73,6.44,6.44,0,0,1,4.43-5l1.61,3.05a3.35,3.35,0,0,0-2.25,2.59,3.12,3.12,0,0,0,.35,2l8.28,15.35h0"/><path class="cls-1" d="M65.85,67.26h0l8.23,15.26a3.16,3.16,0,0,1,.36,1.94A3.36,3.36,0,0,1,72.2,87l1.59,3a6.39,6.39,0,0,0,4.41-5,6,6,0,0,0-.67-3.7l-8.2-15.2h0"/><path class="cls-1" d="M73.13,64.75l8.25,15.32a8.79,8.79,0,0,1,1,5.43,9.45,9.45,0,0,1-6.68,7.41l-.34.11,1.59,3,.34-.11h0c5-1.69,8.21-5.49,8.85-9.81a11.6,11.6,0,0,0-1.31-7.2L76.55,63.55h0"/><path class="cls-1" d="M66.56,104.53h0L58.24,89.08a11.71,11.71,0,0,1-1.32-7.25c.64-4.34,3.85-8.17,8.91-9.87h0l.33-.11,1.61,3-.34.11a9.49,9.49,0,0,0-6.72,7.45,8.8,8.8,0,0,0,1,5.46L70,103.32"/><path class="cls-1" d="M73.82,101.9h0L65.58,86.61a6.05,6.05,0,0,1-.68-3.73,6.44,6.44,0,0,1,4.43-5l1.61,3.06a3.34,3.34,0,0,0-2.25,2.58,3.12,3.12,0,0,0,.35,2l8.28,15.35h0"/><path class="cls-1" d="M65.17,30.12h0L73.4,45.38a3.05,3.05,0,0,1,.35,1.93,3.31,3.31,0,0,1-2.24,2.57l1.6,3a6.41,6.41,0,0,0,4.41-5,6.05,6.05,0,0,0-.68-3.71L68.65,29h0"/><path class="cls-1" d="M72.45,27.61,80.7,42.92a8.86,8.86,0,0,1,1,5.43A9.45,9.45,0,0,1,75,55.76l-.33.11,1.59,3,.34-.11h0c5-1.69,8.21-5.49,8.85-9.81a11.76,11.76,0,0,0-1.31-7.2L75.86,26.4h0"/><path class="cls-1" d="M65.88,67.38h0L57.55,51.93a11.75,11.75,0,0,1-1.31-7.24c.64-4.35,3.84-8.18,8.9-9.88h0l.34-.11,1.6,3-.34.12A9.51,9.51,0,0,0,60,45.3a8.85,8.85,0,0,0,1,5.47l8.3,15.41"/><path class="cls-1" d="M73.14,64.75h0L64.89,49.46a6,6,0,0,1-.67-3.73,6.43,6.43,0,0,1,4.43-5l1.61,3.05A3.35,3.35,0,0,0,68,46.35a3.19,3.19,0,0,0,.36,1.95l8.28,15.35h0"/><path class="cls-1" d="M71.55,436.91h0l8.23,15.26a3.16,3.16,0,0,1,.36,1.94,3.36,3.36,0,0,1-2.24,2.57l1.59,3a6.41,6.41,0,0,0,4.41-5,6,6,0,0,0-.67-3.7L75,435.81h0"/><path class="cls-1" d="M78.83,434.4l8.25,15.32a8.79,8.79,0,0,1,1,5.43,9.43,9.43,0,0,1-6.68,7.4l-.34.12,1.59,3,.34-.11h0c5-1.69,8.21-5.5,8.85-9.82a11.63,11.63,0,0,0-1.31-7.2L82.25,433.2h0"/><path class="cls-1" d="M72.26,474.18h0l-8.32-15.46a11.66,11.66,0,0,1-1.32-7.24c.64-4.35,3.85-8.17,8.91-9.87h0l.33-.11,1.61,3-.34.11a9.48,9.48,0,0,0-6.72,7.45,8.82,8.82,0,0,0,1,5.46L75.7,473"/><path class="cls-1" d="M79.52,471.55h0l-8.24-15.29a6.05,6.05,0,0,1-.68-3.73,6.44,6.44,0,0,1,4.43-5l1.61,3.05a3.36,3.36,0,0,0-2.25,2.59,3.12,3.12,0,0,0,.35,2L83,470.45h0"/><path class="cls-1" d="M70.87,399.76h0L79.1,415a3.08,3.08,0,0,1,.35,1.94,3.32,3.32,0,0,1-2.24,2.57l1.6,3a6.41,6.41,0,0,0,4.41-5,6,6,0,0,0-.68-3.7l-8.19-15.2h0"/><path class="cls-1" d="M78.15,397.25l8.25,15.32a8.86,8.86,0,0,1,1,5.43,9.45,9.45,0,0,1-6.69,7.41l-.33.11,1.59,3,.34-.11h0c5-1.69,8.21-5.49,8.85-9.81a11.74,11.74,0,0,0-1.31-7.2l-8.28-15.37h0"/><path class="cls-1" d="M71.58,437h0l-8.33-15.45a11.77,11.77,0,0,1-1.31-7.25c.64-4.34,3.84-8.17,8.9-9.87h0l.34-.11,1.6,3-.34.11A9.52,9.52,0,0,0,65.72,415a8.81,8.81,0,0,0,1,5.46L75,435.82"/><path class="cls-1" d="M78.84,434.4h0l-8.25-15.29a6,6,0,0,1-.67-3.73,6.44,6.44,0,0,1,4.43-5L76,413.42A3.35,3.35,0,0,0,73.7,416a3.2,3.2,0,0,0,.36,1.95l8.28,15.35h0"/><path class="cls-1" d="M70.3,362.75h0L78.53,378a3.05,3.05,0,0,1,.35,1.93,3.31,3.31,0,0,1-2.24,2.57l1.6,3a6.41,6.41,0,0,0,4.41-5,6.06,6.06,0,0,0-.68-3.71l-8.19-15.2h0"/><path class="cls-1" d="M77.58,360.24l8.25,15.31a8.86,8.86,0,0,1,1,5.43,9.45,9.45,0,0,1-6.69,7.41l-.33.11,1.59,3,.34-.11h0c5-1.69,8.21-5.49,8.85-9.81a11.76,11.76,0,0,0-1.31-7.2L81,359h0"/><path class="cls-1" d="M71,400h0l-8.33-15.45a11.75,11.75,0,0,1-1.31-7.24c.64-4.35,3.84-8.18,8.9-9.88h0l.34-.11,1.6,3-.34.12a9.51,9.51,0,0,0-6.72,7.44,8.85,8.85,0,0,0,1,5.47l8.3,15.41"/><path class="cls-1" d="M78.27,397.38h0L70,382.09a6,6,0,0,1-.67-3.73,6.43,6.43,0,0,1,4.43-5l1.61,3A3.35,3.35,0,0,0,73.13,379a3.19,3.19,0,0,0,.36,1.95l8.28,15.35h0"/><path class="cls-1" d="M69.62,325.6h0l8.23,15.26a3.2,3.2,0,0,1,.35,1.93A3.33,3.33,0,0,1,76,345.36l1.6,3a6.41,6.41,0,0,0,4.4-5,6.05,6.05,0,0,0-.67-3.71l-8.2-15.2h0"/><path class="cls-1" d="M76.89,323.09l8.26,15.32a8.84,8.84,0,0,1,1,5.43,9.42,9.42,0,0,1-6.68,7.4l-.33.11,1.59,3,.33-.12h0c5-1.69,8.22-5.49,8.86-9.81a11.77,11.77,0,0,0-1.31-7.2l-8.28-15.36h0"/><path class="cls-1" d="M70.33,362.87h0L62,347.41a11.82,11.82,0,0,1-1.32-7.24c.64-4.35,3.85-8.17,8.91-9.87h0l.34-.12,1.6,3-.34.12a9.48,9.48,0,0,0-6.72,7.45,8.88,8.88,0,0,0,1,5.46l8.31,15.41"/><path class="cls-1" d="M77.59,360.24h0L69.34,345a6.06,6.06,0,0,1-.68-3.73,6.44,6.44,0,0,1,4.44-5l1.6,3.05a3.35,3.35,0,0,0-2.25,2.59,3.22,3.22,0,0,0,.35,1.94l8.29,15.36h0"/><path class="cls-1" d="M97.24,269.13h0l8.23,15.26a3.08,3.08,0,0,1,.35,1.94,3.32,3.32,0,0,1-2.24,2.57l1.6,3a6.41,6.41,0,0,0,4.41-5,6,6,0,0,0-.68-3.7L100.72,268h0"/><path class="cls-1" d="M104.52,266.62l8.25,15.32a8.86,8.86,0,0,1,1,5.43,9.42,9.42,0,0,1-6.69,7.4l-.33.12,1.59,3,.34-.11h0c5-1.69,8.21-5.49,8.85-9.82a11.73,11.73,0,0,0-1.31-7.19l-8.28-15.37h0"/><path class="cls-1" d="M98,306.4h0l-8.33-15.46a11.72,11.72,0,0,1-1.31-7.24c.64-4.35,3.84-8.17,8.9-9.87h0l.34-.11,1.6,3-.34.11a9.51,9.51,0,0,0-6.72,7.45,8.89,8.89,0,0,0,1,5.46l8.3,15.41"/><path class="cls-1" d="M105.21,303.77h0L97,288.48a6,6,0,0,1-.67-3.73,6.44,6.44,0,0,1,4.43-5l1.61,3a3.38,3.38,0,0,0-2.26,2.59,3.2,3.2,0,0,0,.36,1.95l8.28,15.35h0"/><path class="cls-1" d="M96.56,232h0l8.23,15.26a3.15,3.15,0,0,1,.35,1.94,3.32,3.32,0,0,1-2.24,2.57l1.6,3a6.38,6.38,0,0,0,4.4-5,6,6,0,0,0-.67-3.7l-8.2-15.2h0"/><path class="cls-1" d="M103.83,229.47l8.26,15.32a8.86,8.86,0,0,1,1,5.43,9.44,9.44,0,0,1-6.68,7.41l-.33.11,1.59,3,.33-.11h0c5-1.69,8.22-5.49,8.86-9.81a11.74,11.74,0,0,0-1.31-7.2l-8.28-15.37h0"/><path class="cls-1" d="M97.27,269.25h0L88.94,253.8a11.85,11.85,0,0,1-1.32-7.25c.64-4.34,3.85-8.17,8.91-9.87h0l.34-.11,1.6,3-.34.11a9.5,9.5,0,0,0-6.72,7.45,8.87,8.87,0,0,0,1,5.46L100.71,268"/><path class="cls-1" d="M104.53,266.62h0l-8.25-15.29a6.11,6.11,0,0,1-.68-3.73,6.45,6.45,0,0,1,4.44-5l1.6,3.06a3.35,3.35,0,0,0-2.25,2.58,3.2,3.2,0,0,0,.36,1.95L108,265.52h0"/><path class="cls-1" d="M96,195h0l8.23,15.26a3.19,3.19,0,0,1,.35,1.93,3.33,3.33,0,0,1-2.24,2.57l1.6,3a6.39,6.39,0,0,0,4.4-5,6.05,6.05,0,0,0-.67-3.71l-8.2-15.2h0"/><path class="cls-1" d="M103.26,192.46l8.26,15.32a8.83,8.83,0,0,1,1,5.42,9.44,9.44,0,0,1-6.68,7.41l-.33.11,1.59,3,.33-.12h0c5-1.69,8.22-5.49,8.86-9.81a11.76,11.76,0,0,0-1.31-7.2l-8.28-15.36h0"/><path class="cls-1" d="M96.7,232.23h0l-8.33-15.45a11.83,11.83,0,0,1-1.32-7.24c.64-4.35,3.85-8.18,8.91-9.88h0l.34-.11,1.6,3-.34.12a9.48,9.48,0,0,0-6.72,7.45,8.88,8.88,0,0,0,1,5.46L100.14,231"/><path class="cls-1" d="M104,229.61h0l-8.25-15.3a6,6,0,0,1-.68-3.72,6.44,6.44,0,0,1,4.44-5l1.6,3.05a3.35,3.35,0,0,0-2.25,2.58,3.24,3.24,0,0,0,.35,2l8.29,15.35h0"/><path class="cls-1" d="M95.3,157.82h0l8.24,15.26a3.2,3.2,0,0,1,.35,1.93,3.33,3.33,0,0,1-2.24,2.57l1.6,3a6.41,6.41,0,0,0,4.4-5,6.05,6.05,0,0,0-.67-3.71l-8.2-15.2h0"/><path class="cls-1" d="M102.58,155.31l8.25,15.32a8.78,8.78,0,0,1,1,5.43,9.43,9.43,0,0,1-6.68,7.4l-.34.11,1.59,3,.34-.12h0c5-1.68,8.22-5.49,8.85-9.81a11.63,11.63,0,0,0-1.31-7.2L106,154.11h0"/><path class="cls-1" d="M96,195.09h0l-8.32-15.46a11.68,11.68,0,0,1-1.32-7.24c.64-4.35,3.85-8.17,8.91-9.87h0l.33-.12,1.61,3-.34.11A9.48,9.48,0,0,0,90.16,173a8.88,8.88,0,0,0,1,5.46l8.3,15.41"/><path class="cls-1" d="M103.27,192.46h0L95,177.17a6.05,6.05,0,0,1-.68-3.73,6.44,6.44,0,0,1,4.43-5l1.61,3.05a3.35,3.35,0,0,0-2.25,2.59,3.08,3.08,0,0,0,.35,1.94l8.28,15.36h0"/><path class="cls-1" d="M95.3,122h0l8.24,15.26a3.2,3.2,0,0,1,.35,1.93,3.34,3.34,0,0,1-2.24,2.57l1.6,3a6.41,6.41,0,0,0,4.4-5,6.05,6.05,0,0,0-.67-3.71l-8.2-15.2h0"/><path class="cls-1" d="M102.58,119.44l8.25,15.32a8.78,8.78,0,0,1,1,5.43,9.44,9.44,0,0,1-6.68,7.4l-.34.11,1.59,3,.34-.12h0c5-1.69,8.22-5.49,8.85-9.81a11.63,11.63,0,0,0-1.31-7.2L106,118.24h0"/><path class="cls-1" d="M96,159.22h0l-8.32-15.46a11.68,11.68,0,0,1-1.32-7.24c.64-4.35,3.85-8.17,8.91-9.87h0l.33-.12,1.61,3-.34.12a9.48,9.48,0,0,0-6.72,7.45,8.88,8.88,0,0,0,1,5.46L99.45,158"/><path class="cls-1" d="M103.27,156.59h0L95,141.3a6.06,6.06,0,0,1-.68-3.73,6.43,6.43,0,0,1,4.43-5l1.61,3a3.33,3.33,0,0,0-2.25,2.59,3.08,3.08,0,0,0,.35,1.94l8.28,15.36h0"/><path class="cls-1" d="M94.62,84.8h0l8.23,15.26a3.08,3.08,0,0,1,.35,1.94,3.33,3.33,0,0,1-2.23,2.57l1.59,3a6.41,6.41,0,0,0,4.41-5,6,6,0,0,0-.68-3.7L98.1,83.7h0"/><path class="cls-1" d="M101.9,82.29l8.25,15.32a8.79,8.79,0,0,1,1,5.43,9.43,9.43,0,0,1-6.68,7.4l-.34.12,1.59,3,.34-.11h0c5-1.69,8.21-5.5,8.85-9.82a11.63,11.63,0,0,0-1.31-7.2l-8.28-15.36h0"/><path class="cls-1" d="M95.33,122.07h0L87,106.61a11.72,11.72,0,0,1-1.31-7.24c.64-4.35,3.85-8.17,8.9-9.87h0l.34-.11,1.6,3-.33.11A9.51,9.51,0,0,0,89.47,100a8.89,8.89,0,0,0,1,5.46l8.3,15.41"/><path class="cls-1" d="M102.59,119.44h0l-8.24-15.29a6.05,6.05,0,0,1-.68-3.73,6.44,6.44,0,0,1,4.43-5l1.61,3A3.39,3.39,0,0,0,97.45,101a3.2,3.2,0,0,0,.36,1.95l8.28,15.35h0"/><path class="cls-1" d="M94.05,47.78h0L102.28,63a3.08,3.08,0,0,1,.35,1.94,3.33,3.33,0,0,1-2.23,2.57l1.59,3a6.39,6.39,0,0,0,4.41-5,6,6,0,0,0-.68-3.7l-8.19-15.2h0"/><path class="cls-1" d="M101.33,45.27l8.25,15.32a8.79,8.79,0,0,1,1,5.43,9.45,9.45,0,0,1-6.69,7.41l-.33.11,1.59,3,.34-.11h0c5-1.69,8.21-5.49,8.85-9.81a11.67,11.67,0,0,0-1.31-7.2l-8.28-15.37h0"/><path class="cls-1" d="M94.76,85.05h0L86.43,69.6a11.77,11.77,0,0,1-1.31-7.25C85.76,58,89,54.18,94,52.48h0l.34-.11,1.6,3-.33.11A9.52,9.52,0,0,0,88.9,63a8.88,8.88,0,0,0,1,5.46l8.3,15.41"/><path class="cls-1" d="M102,82.42h0L93.78,67.13a6,6,0,0,1-.68-3.73,6.44,6.44,0,0,1,4.43-5l1.61,3.06A3.37,3.37,0,0,0,96.88,64a3.2,3.2,0,0,0,.36,2l8.28,15.35h0"/><path class="cls-1" d="M93.37,10.64h0L101.6,25.9a3.12,3.12,0,0,1,.35,1.93,3.31,3.31,0,0,1-2.24,2.57l1.6,3a6.38,6.38,0,0,0,4.4-5,6,6,0,0,0-.67-3.71L96.85,9.54h0"/><path class="cls-1" d="M100.64,8.13l8.26,15.31a8.86,8.86,0,0,1,1,5.43,9.44,9.44,0,0,1-6.68,7.41l-.33.11,1.59,3,.33-.11h0c5-1.69,8.22-5.49,8.86-9.81a11.76,11.76,0,0,0-1.31-7.2L104.06,6.93h0"/><path class="cls-1" d="M94.08,47.9h0L85.75,32.45a11.83,11.83,0,0,1-1.32-7.24c.65-4.35,3.85-8.18,8.91-9.88h0l.34-.11,1.6,3-.34.12a9.48,9.48,0,0,0-6.72,7.44,8.92,8.92,0,0,0,1,5.47L97.52,46.7"/><path class="cls-1" d="M101.34,45.27h0L93.09,30a6.11,6.11,0,0,1-.68-3.73,6.44,6.44,0,0,1,4.44-5l1.6,3.05a3.35,3.35,0,0,0-2.25,2.58,3.19,3.19,0,0,0,.36,1.95l8.28,15.35h0"/><path class="cls-1" d="M99.75,417.43h0L108,432.69a3.08,3.08,0,0,1,.35,1.94,3.33,3.33,0,0,1-2.23,2.57l1.59,3a6.43,6.43,0,0,0,4.41-5,6,6,0,0,0-.68-3.7l-8.19-15.2h0"/><path class="cls-1" d="M107,414.92l8.25,15.32a8.79,8.79,0,0,1,1,5.43,9.42,9.42,0,0,1-6.69,7.4l-.33.12,1.59,3,.34-.11h0c5-1.69,8.21-5.49,8.85-9.82a11.66,11.66,0,0,0-1.31-7.19l-8.28-15.37h0"/><path class="cls-1" d="M100.46,454.7h0l-8.33-15.46A11.72,11.72,0,0,1,90.82,432c.64-4.35,3.84-8.17,8.9-9.87h0l.34-.11,1.6,3-.33.11a9.51,9.51,0,0,0-6.73,7.45,8.89,8.89,0,0,0,1,5.46l8.3,15.41"/><path class="cls-1" d="M107.72,452.07h0l-8.24-15.29a6.05,6.05,0,0,1-.68-3.73,6.44,6.44,0,0,1,4.43-5l1.61,3.05a3.39,3.39,0,0,0-2.26,2.59,3.2,3.2,0,0,0,.36,1.95L111.22,451h0"/><path class="cls-1" d="M99.07,380.28h0l8.23,15.26a3.15,3.15,0,0,1,.35,1.94,3.32,3.32,0,0,1-2.24,2.57l1.6,3a6.38,6.38,0,0,0,4.4-5,6,6,0,0,0-.67-3.7l-8.19-15.2h0"/><path class="cls-1" d="M106.34,377.77l8.26,15.32a8.86,8.86,0,0,1,1,5.43,9.44,9.44,0,0,1-6.68,7.41l-.33.11,1.59,3,.33-.11h0c5-1.69,8.22-5.49,8.86-9.81a11.74,11.74,0,0,0-1.31-7.2l-8.28-15.37h0"/><path class="cls-1" d="M99.78,417.55h0L91.45,402.1a11.85,11.85,0,0,1-1.32-7.25c.65-4.34,3.85-8.17,8.91-9.87h0l.34-.11,1.6,3-.34.11a9.49,9.49,0,0,0-6.72,7.45,8.87,8.87,0,0,0,1,5.46l8.31,15.41"/><path class="cls-1" d="M107,414.92h0l-8.25-15.29a6.11,6.11,0,0,1-.68-3.73,6.45,6.45,0,0,1,4.44-5l1.6,3.06a3.35,3.35,0,0,0-2.25,2.58,3.2,3.2,0,0,0,.36,2l8.28,15.35h0"/><path class="cls-1" d="M98.5,343.27h0l8.23,15.26a3.12,3.12,0,0,1,.35,1.93,3.31,3.31,0,0,1-2.24,2.57l1.6,3a6.38,6.38,0,0,0,4.4-5,6,6,0,0,0-.67-3.71L102,342.17h0"/><path class="cls-1" d="M105.77,340.76,114,356.08a8.81,8.81,0,0,1,1,5.42,9.44,9.44,0,0,1-6.68,7.41L108,369l1.59,3,.33-.11h0c5-1.69,8.22-5.49,8.86-9.81a11.76,11.76,0,0,0-1.31-7.2l-8.28-15.36h0"/><path class="cls-1" d="M99.21,380.53h0l-8.33-15.45a11.83,11.83,0,0,1-1.32-7.24c.65-4.35,3.85-8.18,8.91-9.88h0l.34-.11,1.6,3-.34.12a9.48,9.48,0,0,0-6.72,7.45,8.9,8.9,0,0,0,1,5.46l8.31,15.41"/><path class="cls-1" d="M106.47,377.91h0l-8.25-15.29a6.09,6.09,0,0,1-.68-3.72,6.44,6.44,0,0,1,4.44-5l1.6,3.05a3.35,3.35,0,0,0-2.25,2.58,3.19,3.19,0,0,0,.36,1.95L110,376.8h0"/><path class="cls-1" d="M97.81,306.12h0l8.24,15.26a3.2,3.2,0,0,1,.35,1.93,3.34,3.34,0,0,1-2.24,2.57l1.6,3a6.41,6.41,0,0,0,4.4-5,6.05,6.05,0,0,0-.67-3.71l-8.2-15.2h0"/><path class="cls-1" d="M105.09,303.61l8.25,15.32a8.78,8.78,0,0,1,1,5.43,9.43,9.43,0,0,1-6.68,7.4l-.34.11,1.6,3,.33-.12h0c5-1.68,8.22-5.49,8.85-9.81a11.69,11.69,0,0,0-1.3-7.2l-8.28-15.36h0"/><path class="cls-1" d="M98.52,343.39h0L90.2,327.93a11.75,11.75,0,0,1-1.32-7.24c.64-4.35,3.85-8.17,8.91-9.87h0l.34-.12,1.6,3.05-.34.11a9.48,9.48,0,0,0-6.72,7.45,8.88,8.88,0,0,0,1,5.46l8.3,15.41"/><path class="cls-1" d="M105.78,340.76h0l-8.24-15.29a6.05,6.05,0,0,1-.68-3.73,6.44,6.44,0,0,1,4.43-5l1.61,3a3.35,3.35,0,0,0-2.25,2.59,3.08,3.08,0,0,0,.35,1.94l8.28,15.36h0"/></svg>