<svg id="Layer_1" data-name="Layer 1"
    xmlns="http://www.w3.org/2000/svg" viewBox="0 0 55.23 469.8">
    <defs>
        <style>.cls-1{fill:none;stroke:#fff;stroke-miterlimit:10;stroke-width:0.5px;}</style>
    </defs>
    <path class="cls-1" d="M31.92,10c2.71.59,16.54,22-1.92,45.59.18-5.49-.08-13.07-.08-13.07,14-12.64,3.95-29.66,1.94-30.23a1.5,1.5,0,0,1-1.56,1.19c-2.86-.19-2.41-3.35-2.41-3.35s.54-4.7,5.71-2.5C46.28,15.76,44,44.65,40.86,70.83"/>
    <path class="cls-1" d="M31.92,10c3.1-.17,8,7.32,8.76,18.78.39,6,1.21,17.31-1.25,38.71"/>
    <path class="cls-1" d="M26.19,89.13c-2.71-.58-16.53-22,1.93-45.58-.18,5.48.08,13.06.08,13.06-14,12.65-3.95,29.66-1.94,30.24a1.46,1.46,0,0,1,1.56-1.19c2.86.18,2.4,3.35,2.4,3.35s-.54,4.69-5.71,2.49C11.83,83.34,14.86,53.17,16.69,25"/>
    <path class="cls-1" d="M26.19,89.13c-3.09.17-8-7.31-8.76-18.77-.39-6-1.1-14.58.77-41.11"/>
    <path class="cls-1" d="M31.92,63.13c2.71.59,16.54,22-1.92,45.59.18-5.48-.08-13.06-.08-13.06C43.94,83,33.87,66,31.86,65.42a1.48,1.48,0,0,1-1.56,1.19c-2.86-.18-2.41-3.35-2.41-3.35s.54-4.7,5.71-2.49C46.28,68.93,44,97.82,40.86,124"/>
    <path class="cls-1" d="M31.92,63.13c3.1-.16,8,7.32,8.76,18.78.39,6,1.21,17.31-1.25,38.71"/>
    <path class="cls-1" d="M26.19,142.31c-2.71-.59-16.53-22,1.93-45.59-.18,5.49.08,13.06.08,13.06-14,12.65-3.95,29.67-1.94,30.24a1.47,1.47,0,0,1,1.56-1.19c2.86.18,2.4,3.35,2.4,3.35s-.54,4.7-5.71,2.5c-12.68-8.17-9.65-38.34-7.82-66.47"/>
    <path class="cls-1" d="M26.19,142.31c-3.09.17-8-7.32-8.76-18.78-.39-6-1.1-14.58.77-41.1"/>
    <path class="cls-1" d="M31.92,116.9c2.71.58,16.54,22-1.92,45.58.18-5.48-.08-13.06-.08-13.06,14-12.65,3.95-29.66,1.94-30.24a1.48,1.48,0,0,1-1.56,1.19c-2.86-.18-2.41-3.35-2.41-3.35s.54-4.7,5.71-2.49c12.68,8.16,10.37,37.05,7.26,63.23"/>
    <path class="cls-1" d="M31.92,116.9c3.1-.17,8,7.31,8.76,18.77.39,6,1.21,17.31-1.25,38.71"/>
    <path class="cls-1" d="M26.19,196.07c-2.71-.59-16.53-22,1.93-45.59-.18,5.49.08,13.06.08,13.06-14,12.65-3.95,29.67-1.94,30.24a1.47,1.47,0,0,1,1.56-1.19c2.86.19,2.4,3.35,2.4,3.35s-.54,4.7-5.71,2.5c-12.68-8.17-9.65-38.34-7.82-66.47"/>
    <path class="cls-1" d="M26.19,196.07c-3.09.17-8-7.32-8.76-18.78-.39-6-1.1-14.58.77-41.1"/>
    <path class="cls-1" d="M31.92,170.07c2.71.59,16.54,22-1.92,45.59.18-5.49-.08-13.07-.08-13.07,14-12.64,3.95-29.66,1.94-30.23a1.5,1.5,0,0,1-1.56,1.19c-2.86-.19-2.41-3.35-2.41-3.35s.54-4.7,5.71-2.5c12.68,8.17,10.37,37.05,7.26,63.24"/>
    <path class="cls-1" d="M31.92,170.07c3.1-.17,8,7.32,8.76,18.78.39,6,1.21,17.31-1.25,38.7"/>
    <path class="cls-1" d="M26.19,249.24c-2.71-.58-16.53-22,1.93-45.58-.18,5.48.08,13.06.08,13.06-14,12.65-3.95,29.66-1.94,30.24a1.46,1.46,0,0,1,1.56-1.19c2.86.18,2.4,3.35,2.4,3.35s-.54,4.69-5.71,2.49c-12.68-8.16-9.65-38.33-7.82-66.47"/>
    <path class="cls-1" d="M26.19,249.24c-3.09.17-8-7.32-8.76-18.77-.39-6-1.1-14.59.77-41.11"/>
    <path class="cls-1" d="M31.92,223.83c2.71.59,16.54,22-1.92,45.59.18-5.49-.08-13.06-.08-13.06,14-12.65,3.95-29.67,1.94-30.24a1.49,1.49,0,0,1-1.56,1.19c-2.86-.19-2.41-3.35-2.41-3.35s.54-4.7,5.71-2.5c12.68,8.17,10.37,37.06,7.26,63.24"/>
    <path class="cls-1" d="M31.92,223.83c3.1-.17,8,7.32,8.76,18.78.39,6,1.21,17.31-1.25,38.71"/>
    <path class="cls-1" d="M26.19,303c-2.71-.58-16.53-22,1.93-45.58-.18,5.48.08,13.06.08,13.06-14,12.65-3.95,29.66-1.94,30.24a1.46,1.46,0,0,1,1.56-1.19c2.86.18,2.4,3.35,2.4,3.35s-.54,4.69-5.71,2.49c-12.68-8.16-9.65-38.33-7.82-66.46"/>
    <path class="cls-1" d="M26.19,303c-3.09.17-8-7.31-8.76-18.77-.39-6-1.1-14.58.77-41.11"/>
    <path class="cls-1" d="M31.92,277c2.71.58,16.54,22-1.92,45.58.18-5.48-.08-13.06-.08-13.06,14-12.65,3.95-29.66,1.94-30.24a1.48,1.48,0,0,1-1.56,1.19c-2.86-.18-2.41-3.35-2.41-3.35s.54-4.7,5.71-2.49c12.68,8.16,10.37,37.05,7.26,63.23"/>
    <path class="cls-1" d="M31.92,277c3.1-.17,8,7.31,8.76,18.77.39,6,1.21,17.31-1.25,38.71"/>
    <path class="cls-1" d="M26.19,356.18c-2.71-.59-16.53-22,1.93-45.59-.18,5.49.08,13.06.08,13.06-14,12.65-3.95,29.67-1.94,30.24a1.47,1.47,0,0,1,1.56-1.19c2.86.18,2.4,3.35,2.4,3.35s-.54,4.7-5.71,2.5c-12.68-8.17-9.65-38.34-7.82-66.47"/>
    <path class="cls-1" d="M26.19,356.18c-3.09.17-8-7.32-8.76-18.78-.39-6-1.1-14.58.77-41.1"/>
    <path class="cls-1" d="M31.92,330.77c2.71.58,16.54,22-1.92,45.58.18-5.48-.08-13.06-.08-13.06,14-12.65,3.95-29.66,1.94-30.24a1.48,1.48,0,0,1-1.56,1.19c-2.86-.18-2.41-3.35-2.41-3.35s.54-4.7,5.71-2.49c12.68,8.16,10.37,37.05,7.26,63.23"/>
    <path class="cls-1" d="M31.92,330.77c3.1-.17,8,7.31,8.76,18.77.39,6,1.21,17.31-1.25,38.71"/>
    <path class="cls-1" d="M26.19,409.94c-2.71-.59-16.53-22,1.93-45.59-.18,5.49.08,13.06.08,13.06-14,12.65-3.95,29.67-1.94,30.24a1.47,1.47,0,0,1,1.56-1.19c2.86.19,2.4,3.35,2.4,3.35s-.54,4.7-5.71,2.5c-12.68-8.17-9.65-38.34-7.82-66.47"/>
    <path class="cls-1" d="M26.19,409.94c-3.09.17-8-7.32-8.76-18.78-.39-6-1.1-14.58.77-41.1"/>
    <path class="cls-1" d="M31.92,383.94c2.71.59,16.54,22-1.92,45.59.18-5.49-.08-13.07-.08-13.07,14-12.64,3.95-29.66,1.94-30.23a1.5,1.5,0,0,1-1.56,1.19c-2.86-.19-2.41-3.35-2.41-3.35s.54-4.7,5.71-2.5c12.68,8.17,10.37,37.06,7.26,63.24"/>
    <path class="cls-1" d="M31.92,383.94c3.1-.17,8,7.32,8.76,18.78.39,6,1.21,17.31-1.25,38.71"/>
    <path class="cls-1" d="M26.19,463.11c-2.71-.58-16.53-22,1.93-45.58-.18,5.48.08,13.06.08,13.06-14,12.65-3.95,29.66-1.94,30.24a1.46,1.46,0,0,1,1.56-1.19c2.86.18,2.4,3.35,2.4,3.35s-.54,4.69-5.71,2.49c-12.68-8.16-9.65-38.33-7.82-66.46"/>
    <path class="cls-1" d="M26.19,463.11c-3.09.17-8-7.31-8.76-18.77-.39-6-1.1-14.58.77-41.11"/>
</svg>