<svg width="100" height="228" viewBox="0 0 100 228" fill="none" xmlns="http://www.w3.org/2000/svg">
<path d="M32.5977 133.354L59.4698 183.012C60.5666 185.095 60.9191 187.269 60.6155 189.309C60.0802 192.938 57.4328 196.114 53.3099 197.676L58.5231 207.543C66.6709 204.634 71.8514 198.402 72.9025 191.31C73.4803 187.405 72.8111 183.246 70.7056 179.256L43.9543 129.787" stroke="#99B9AF" stroke-miterlimit="10"/>
<path d="M56.3491 125.185L83.2898 175.039C86.3778 180.883 87.3604 186.982 86.5117 192.707C84.9448 203.309 77.0908 212.656 64.6993 216.805L63.6058 217.17L68.8026 227.007L69.8962 226.64C86.3093 221.143 96.7128 208.767 98.7954 194.705C99.9184 187.112 98.6159 179.035 94.5224 171.28L67.5001 121.277" stroke="#99B9AF" stroke-miterlimit="10"/>
<path d="M30.3682 12.4642L57.2403 62.1223C58.3371 64.2051 58.6896 66.379 58.3861 68.4195C57.8507 72.0481 55.2033 75.2244 51.0804 76.7865L56.2936 86.6537C64.4414 83.7443 69.6219 77.5122 70.6731 70.4209C71.2508 66.5157 70.5816 62.3567 68.4761 58.3668L41.7216 8.89413" stroke="#99B9AF" stroke-miterlimit="10"/>
<path d="M54.1196 4.29248L81.0603 54.1459C84.1484 59.9907 85.1309 66.0894 84.2822 71.8138C82.7153 82.4165 74.8613 91.763 62.4698 95.9123L61.3763 96.2768L66.5731 106.115L67.6667 105.747C84.0798 100.25 94.4833 87.874 96.5659 73.812C97.6889 66.2196 96.3864 58.1423 92.2929 50.3871L65.2739 0.384003" stroke="#99B9AF" stroke-miterlimit="10"/>
<path d="M32.6858 133.744L5.50688 83.4481C1.38401 75.6442 0.0750078 67.5148 1.20447 59.8768C3.30018 45.7269 13.7657 33.279 30.28 27.7499L31.3834 27.3821L36.6128 37.2819L35.5095 37.6529C23.0462 41.8282 15.1465 51.2268 13.5698 61.8913C12.7178 67.6515 13.7069 73.7827 16.8146 79.6666L43.9152 129.813" stroke="#99B9AF" stroke-miterlimit="10"/>
<path d="M56.3817 125.188L29.4705 75.4229C27.3486 71.4038 26.6762 67.2219 27.2572 63.2907C28.3149 56.1571 33.5248 49.886 41.7281 46.9603L46.9739 56.8894C42.8249 58.458 40.1612 61.6537 39.6226 65.3051C39.319 67.3554 39.6716 69.5423 40.7814 71.6413L67.8168 121.605" stroke="#99B9AF" stroke-miterlimit="10"/>
</svg>
