<svg width="27" height="196" viewBox="0 0 27 196" fill="none" xmlns="http://www.w3.org/2000/svg">
<path d="M15.6264 3.93391e-05C17.7297 0.762509 19.548 2.15282 20.8351 3.98278C22.1222 5.81275 22.816 7.99399 22.8225 10.2313C22.8573 12.453 22.1765 14.6269 20.8806 16.4319C19.5848 18.2369 17.7426 19.5771 15.6264 20.2544C15.3952 20.3379 15.1499 20.3753 14.9043 20.3646C14.4153 20.3614 13.9398 20.2034 13.5462 19.9132C13.1526 19.6229 12.8611 19.2154 12.7137 18.7491C12.641 18.5153 12.6039 18.2719 12.6035 18.027C12.6015 17.5307 12.7585 17.0467 13.0514 16.6459C13.3442 16.2451 13.7577 15.9486 14.2312 15.7997C14.7814 15.6225 15.3014 15.3625 15.7732 15.0287C16.5327 14.4807 17.1509 13.7598 17.5765 12.9256C18.0021 12.0914 18.223 11.1678 18.2209 10.2313C18.2207 9.58267 18.1174 8.93823 17.9149 8.32208C17.715 7.70593 17.4219 7.124 17.046 6.59648C16.3321 5.59146 15.3225 4.83422 14.1578 4.4303C12.9986 4.0395 11.7433 4.0395 10.5842 4.4303C9.27151 4.86231 8.03317 5.49386 6.9127 6.30276C5.10808 7.62426 3.64251 9.35482 2.63626 11.3524C1.63 13.3501 1.11174 15.5578 1.12399 17.7945C1.08364 19.3083 1.27767 20.8192 1.69919 22.2737C2.16745 23.7388 2.86112 25.122 3.75522 26.3736C5.5053 28.8212 8.65054 31.5136 15.712 33.0067M16.7768 29.3352C15.0195 29.1183 13.2916 28.7079 11.6244 28.1114C9.55258 27.3845 7.75687 26.0334 6.48436 24.2441C5.14786 22.3913 4.42852 20.1647 4.42833 17.8802C4.42756 16.2085 4.82315 14.5605 5.58262 13.0714C6.34209 11.5822 7.44382 10.2943 8.7974 9.31338C9.66414 8.69222 10.6219 8.20919 11.6367 7.8815C11.8705 7.80888 12.1139 7.77175 12.3587 7.77135C12.9166 7.77118 13.4561 7.9705 13.8798 8.33331C14.3035 8.69612 14.5835 9.1985 14.6692 9.74971C14.7549 10.3009 14.6407 10.8646 14.3472 11.3389C14.0536 11.8133 13.6001 12.167 13.0686 12.3362C12.5005 12.5201 11.967 12.7972 11.4898 13.1562C10.7303 13.7041 10.1122 14.425 9.68653 15.2593C9.2609 16.0935 9.04002 17.0171 9.04216 17.9536C9.04396 18.6021 9.14719 19.2462 9.34812 19.8628C9.54629 20.4736 9.83507 21.0511 10.2048 21.5761C10.893 22.6508 11.8797 23.5015 13.0441 24.0238C13.6934 24.2483 14.3764 24.3601 15.0634 24.3542C15.6527 24.3617 16.2393 24.2749 16.8012 24.0972C18.1082 23.5551 19.3222 22.8119 20.3993 21.8943C22.2081 20.5788 23.6777 18.8515 24.6865 16.8553C25.6952 14.8591 26.2141 12.6514 26.2002 10.4148C26.277 8.83327 26.1161 7.24915 25.723 5.71532C25.307 4.2548 24.6671 2.86763 23.826 1.60326C22.2016 -1.02636 19.6155 -2.91869 16.6177 -3.67145" stroke="#99B9AF" stroke-miterlimit="10"/>
<path d="M15.6264 66.0868C17.7297 66.8492 19.548 68.2396 20.8351 70.0695C22.1222 71.8995 22.816 74.0807 22.8225 76.318C22.8573 78.5397 22.1765 80.7137 20.8806 82.5186C19.5848 84.3236 17.7426 85.6638 15.6264 86.3411C15.3952 86.4246 15.1499 86.462 14.9043 86.4513C14.4153 86.4482 13.9398 86.2901 13.5462 85.9999C13.1526 85.7096 12.8611 85.3021 12.7137 84.8358C12.641 84.602 12.6039 84.3586 12.6035 84.1138C12.6015 83.6174 12.7585 83.1334 13.0514 82.7326C13.3442 82.3319 13.7577 82.0353 14.2312 81.8864C14.7814 81.7092 15.3014 81.4492 15.7732 81.1154C16.5327 80.5675 17.1509 79.8466 17.5765 79.0123C18.0021 78.1781 18.223 77.2545 18.2209 76.318C18.2207 75.6694 18.1174 75.025 17.9149 74.4088C17.715 73.7927 17.4219 73.2107 17.046 72.6832C16.3321 71.6782 15.3225 70.921 14.1578 70.517C12.9986 70.1262 11.7433 70.1262 10.5842 70.517C9.27151 70.949 8.03317 71.5806 6.9127 72.3895C5.10808 73.711 3.64251 75.4416 2.63626 77.4392C1.63 79.4368 1.11174 81.6445 1.12399 83.8812C1.08364 85.395 1.27767 86.906 1.69919 88.3605C2.16745 89.8256 2.86112 91.2087 3.75522 92.4603C5.5053 94.9079 8.65054 97.6004 15.712 99.0934M16.7768 95.422C15.0195 95.205 13.2916 94.7946 11.6244 94.1981C9.55258 93.4712 7.75687 92.1202 6.48436 90.3308C5.14786 88.478 4.42852 86.2515 4.42833 83.9669C4.42756 82.2953 4.82315 80.6473 5.58262 79.1581C6.34209 77.6689 7.44382 76.381 8.7974 75.4001C9.66414 74.779 10.6219 74.2959 11.6367 73.9682C11.8705 73.8956 12.1139 73.8585 12.3587 73.8581C12.9166 73.8579 13.4561 74.0572 13.8798 74.42C14.3035 74.7829 14.5835 75.2852 14.6692 75.8364C14.7549 76.3876 14.6407 76.9513 14.3472 77.4257C14.0536 77.9 13.6001 78.2537 13.0686 78.423C12.5005 78.6069 11.967 78.884 11.4898 79.2429C10.7303 79.7909 10.1122 80.5118 9.68653 81.346C9.2609 82.1802 9.04002 83.1038 9.04216 84.0403C9.04396 84.6888 9.14719 85.333 9.34812 85.9495C9.54629 86.5603 9.83507 87.1379 10.2048 87.6629C10.893 88.7376 11.8797 89.5882 13.0441 90.1105C13.6934 90.3351 14.3764 90.4468 15.0634 90.441C15.6527 90.4484 16.2393 90.3617 16.8012 90.184C18.1082 89.6419 19.3222 88.8986 20.3993 87.9811C22.2081 86.6656 23.6777 84.9383 24.6865 82.9421C25.6952 80.9458 26.2141 78.7381 26.2002 76.5016C26.277 74.92 26.1161 73.3359 25.723 71.8021C25.307 70.3415 24.6671 68.9544 23.826 67.69C22.2016 65.0604 19.6155 63.168 16.6177 62.4153" stroke="#99B9AF" stroke-miterlimit="10"/>
<path d="M15.6264 132.173C17.7297 132.936 19.548 134.326 20.8351 136.156C22.1222 137.986 22.816 140.167 22.8225 142.405C22.8573 144.626 22.1765 146.8 20.8806 148.605C19.5848 150.41 17.7426 151.75 15.6264 152.428C15.3952 152.511 15.1499 152.549 14.9043 152.538C14.4153 152.535 13.9398 152.377 13.5462 152.087C13.1526 151.796 12.8611 151.389 12.7137 150.923C12.641 150.689 12.6039 150.445 12.6035 150.2C12.6015 149.704 12.7585 149.22 13.0514 148.819C13.3442 148.419 13.7577 148.122 14.2312 147.973C14.7814 147.796 15.3014 147.536 15.7732 147.202C16.5327 146.654 17.1509 145.933 17.5765 145.099C18.0021 144.265 18.223 143.341 18.2209 142.405C18.2207 141.756 18.1174 141.112 17.9149 140.495C17.715 139.879 17.4219 139.297 17.046 138.77C16.3321 137.765 15.3225 137.008 14.1578 136.604C12.9986 136.213 11.7433 136.213 10.5842 136.604C9.27151 137.036 8.03317 137.667 6.9127 138.476C5.10808 139.798 3.64251 141.528 2.63626 143.526C1.63 145.523 1.11174 147.731 1.12399 149.968C1.08364 151.482 1.27767 152.993 1.69919 154.447C2.16745 155.912 2.86112 157.295 3.75522 158.547C5.5053 160.995 8.65054 163.687 15.712 165.18M16.7768 161.509C15.0195 161.292 13.2916 160.881 11.6244 160.285C9.55258 159.558 7.75687 158.207 6.48436 156.417C5.14786 154.565 4.42852 152.338 4.42833 150.054C4.42756 148.382 4.82315 146.734 5.58262 145.245C6.34209 143.756 7.44382 142.468 8.7974 141.487C9.66414 140.866 10.6219 140.383 11.6367 140.055C11.8705 139.982 12.1139 139.945 12.3587 139.945C12.9166 139.945 13.4561 140.144 13.8798 140.507C14.3035 140.87 14.5835 141.372 14.6692 141.923C14.7549 142.474 14.6407 143.038 14.3472 143.512C14.0536 143.987 13.6001 144.34 13.0686 144.51C12.5005 144.694 11.967 144.971 11.4898 145.33C10.7303 145.878 10.1122 146.598 9.68653 147.433C9.2609 148.267 9.04002 149.19 9.04216 150.127C9.04396 150.775 9.14719 151.42 9.34812 152.036C9.54629 152.647 9.83507 153.225 10.2048 153.75C10.893 154.824 11.8797 155.675 13.0441 156.197C13.6934 156.422 14.3764 156.534 15.0634 156.528C15.6527 156.535 16.2393 156.448 16.8012 156.271C18.1082 155.729 19.3222 154.985 20.3993 154.068C22.2081 152.752 23.6777 151.025 24.6865 149.029C25.6952 147.033 26.2141 144.825 26.2002 142.588C26.277 141.007 26.1161 139.423 25.723 137.889C25.307 136.428 24.6671 135.041 23.826 133.777C22.2016 131.147 19.6155 129.255 16.6177 128.502" stroke="#99B9AF" stroke-miterlimit="10"/>
<path d="M15.6264 198.26C17.7297 199.023 19.548 200.413 20.8351 202.243C22.1222 204.073 22.816 206.254 22.8225 208.492C22.8573 210.713 22.1765 212.887 20.8806 214.692C19.5848 216.497 17.7426 217.837 15.6264 218.515C15.3952 218.598 15.1499 218.636 14.9043 218.625C14.4153 218.622 13.9398 218.464 13.5462 218.173C13.1526 217.883 12.8611 217.476 12.7137 217.009C12.641 216.776 12.6039 216.532 12.6035 216.287C12.6015 215.791 12.7585 215.307 13.0514 214.906C13.3442 214.505 13.7577 214.209 14.2312 214.06C14.7814 213.883 15.3014 213.623 15.7732 213.289C16.5327 212.741 17.1509 212.02 17.5765 211.186C18.0021 210.352 18.223 209.428 18.2209 208.492C18.2207 207.843 18.1174 207.199 17.9149 206.582C17.715 205.966 17.4219 205.384 17.046 204.857C16.3321 203.852 15.3225 203.095 14.1578 202.691C12.9986 202.3 11.7433 202.3 10.5842 202.691C9.27151 203.123 8.03317 203.754 6.9127 204.563C5.10808 205.885 3.64251 207.615 2.63626 209.613C1.63 211.61 1.11174 213.818 1.12399 216.055C1.08364 217.569 1.27767 219.08 1.69919 220.534C2.16745 221.999 2.86112 223.382 3.75522 224.634C5.5053 227.082 8.65054 229.774 15.712 231.267M16.7768 227.596C15.0195 227.379 13.2916 226.968 11.6244 226.372C9.55258 225.645 7.75687 224.294 6.48436 222.504C5.14786 220.652 4.42852 218.425 4.42833 216.14C4.42756 214.469 4.82315 212.821 5.58262 211.332C6.34209 209.843 7.44382 208.555 8.7974 207.574C9.66414 206.953 10.6219 206.47 11.6367 206.142C11.8705 206.069 12.1139 206.032 12.3587 206.032C12.9166 206.031 13.4561 206.231 13.8798 206.594C14.3035 206.956 14.5835 207.459 14.6692 208.01C14.7549 208.561 14.6407 209.125 14.3472 209.599C14.0536 210.074 13.6001 210.427 13.0686 210.597C12.5005 210.78 11.967 211.058 11.4898 211.417C10.7303 211.964 10.1122 212.685 9.68653 213.52C9.2609 214.354 9.04002 215.277 9.04216 216.214C9.04396 216.862 9.14719 217.507 9.34812 218.123C9.54629 218.734 9.83507 219.311 10.2048 219.836C10.893 220.911 11.8797 221.762 13.0441 222.284C13.6934 222.509 14.3764 222.62 15.0634 222.615C15.6527 222.622 16.2393 222.535 16.8012 222.358C18.1082 221.815 19.3222 221.072 20.3993 220.155C22.2081 218.839 23.6777 217.112 24.6865 215.116C25.6952 213.119 26.2141 210.912 26.2002 208.675C26.277 207.094 26.1161 205.509 25.723 203.976C25.307 202.515 24.6671 201.128 23.826 199.864C22.2016 197.234 19.6155 195.342 16.6177 194.589" stroke="#99B9AF" stroke-miterlimit="10"/>
<path d="M15.6264 33.0434C17.7297 33.8058 19.548 35.1962 20.8351 37.0261C22.1222 38.8561 22.816 41.0373 22.8225 43.2746C22.8573 45.4963 22.1765 47.6703 20.8806 49.4752C19.5848 51.2802 17.7426 52.6204 15.6264 53.2977C15.3952 53.3812 15.1499 53.4186 14.9043 53.4079C14.4153 53.4048 13.9398 53.2468 13.5462 52.9565C13.1526 52.6662 12.8611 52.2587 12.7137 51.7924C12.641 51.5586 12.6039 51.3152 12.6035 51.0704C12.6015 50.574 12.7585 50.09 13.0514 49.6892C13.3442 49.2885 13.7577 48.9919 14.2312 48.843C14.7814 48.6658 15.3014 48.4058 15.7732 48.072C16.5327 47.5241 17.1509 46.8032 17.5765 45.9689C18.0021 45.1347 18.223 44.2111 18.2209 43.2746C18.2207 42.626 18.1174 41.9816 17.9149 41.3654C17.715 40.7493 17.4219 40.1673 17.046 39.6398C16.3321 38.6348 15.3225 37.8776 14.1578 37.4736C12.9986 37.0828 11.7433 37.0828 10.5842 37.4736C9.27151 37.9056 8.03317 38.5372 6.9127 39.3461C5.10808 40.6676 3.64251 42.3982 2.63626 44.3958C1.63 46.3934 1.11174 48.6011 1.12399 50.8378C1.08364 52.3516 1.27767 53.8626 1.69919 55.3171C2.16745 56.7822 2.86112 58.1654 3.75522 59.4169C5.5053 61.8645 8.65054 64.557 15.712 66.05M16.7768 62.3786C15.0195 62.1616 13.2916 61.7512 11.6244 61.1547C9.55258 60.4278 7.75687 59.0768 6.48436 57.2874C5.14786 55.4346 4.42852 53.2081 4.42833 50.9235C4.42756 49.2519 4.82315 47.6039 5.58262 46.1147C6.34209 44.6255 7.44382 43.3376 8.7974 42.3567C9.66414 41.7356 10.6219 41.2525 11.6367 40.9248C11.8705 40.8522 12.1139 40.8151 12.3587 40.8147C12.9166 40.8145 13.4561 41.0138 13.8798 41.3766C14.3035 41.7395 14.5835 42.2418 14.6692 42.793C14.7549 43.3443 14.6407 43.9079 14.3472 44.3823C14.0536 44.8566 13.6001 45.2104 13.0686 45.3796C12.5005 45.5635 11.967 45.8406 11.4898 46.1995C10.7303 46.7475 10.1122 47.4684 9.68653 48.3026C9.2609 49.1368 9.04002 50.0604 9.04216 50.9969C9.04396 51.6454 9.14719 52.2896 9.34812 52.9061C9.54629 53.5169 9.83507 54.0945 10.2048 54.6195C10.893 55.6942 11.8797 56.5448 13.0441 57.0671C13.6934 57.2917 14.3764 57.4034 15.0634 57.3976C15.6527 57.405 16.2393 57.3183 16.8012 57.1406C18.1082 56.5985 19.3222 55.8552 20.3993 54.9377C22.2081 53.6222 23.6777 51.8949 24.6865 49.8987C25.6952 47.9024 26.2141 45.6947 26.2002 43.4582C26.277 41.8766 26.1161 40.2925 25.723 38.7587C25.307 37.2981 24.6671 35.911 23.826 34.6466C22.2016 32.017 19.6155 30.1246 16.6177 29.3719" stroke="#99B9AF" stroke-miterlimit="10"/>
<path d="M15.6264 99.1301C17.7297 99.8926 19.548 101.283 20.8351 103.113C22.1222 104.943 22.816 107.124 22.8225 109.361C22.8573 111.583 22.1765 113.757 20.8806 115.562C19.5848 117.367 17.7426 118.707 15.6264 119.384C15.3952 119.468 15.1499 119.505 14.9043 119.495C14.4153 119.492 13.9398 119.333 13.5462 119.043C13.1526 118.753 12.8611 118.345 12.7137 117.879C12.641 117.645 12.6039 117.402 12.6035 117.157C12.6015 116.661 12.7585 116.177 13.0514 115.776C13.3442 115.375 13.7577 115.079 14.2312 114.93C14.7814 114.753 15.3014 114.493 15.7732 114.159C16.5327 113.611 17.1509 112.89 17.5765 112.056C18.0021 111.221 18.223 110.298 18.2209 109.361C18.2207 108.713 18.1174 108.068 17.9149 107.452C17.715 106.836 17.4219 106.254 17.046 105.727C16.3321 104.722 15.3225 103.964 14.1578 103.56C12.9986 103.17 11.7433 103.17 10.5842 103.56C9.27151 103.992 8.03317 104.624 6.9127 105.433C5.10808 106.754 3.64251 108.485 2.63626 110.483C1.63 112.48 1.11174 114.688 1.12399 116.925C1.08364 118.438 1.27767 119.949 1.69919 121.404C2.16745 122.869 2.86112 124.252 3.75522 125.504C5.5053 127.951 8.65054 130.644 15.712 132.137M16.7768 128.465C15.0195 128.248 13.2916 127.838 11.6244 127.241C9.55258 126.515 7.75687 125.163 6.48436 123.374C5.14786 121.521 4.42852 119.295 4.42833 117.01C4.42756 115.339 4.82315 113.691 5.58262 112.201C6.34209 110.712 7.44382 109.424 8.7974 108.443C9.66414 107.822 10.6219 107.339 11.6367 107.012C11.8705 106.939 12.1139 106.902 12.3587 106.901C12.9166 106.901 13.4561 107.101 13.8798 107.463C14.3035 107.826 14.5835 108.329 14.6692 108.88C14.7549 109.431 14.6407 109.995 14.3472 110.469C14.0536 110.943 13.6001 111.297 13.0686 111.466C12.5005 111.65 11.967 111.927 11.4898 112.286C10.7303 112.834 10.1122 113.555 9.68653 114.389C9.2609 115.224 9.04002 116.147 9.04216 117.084C9.04396 117.732 9.14719 118.376 9.34812 118.993C9.54629 119.604 9.83507 120.181 10.2048 120.706C10.893 121.781 11.8797 122.632 13.0441 123.154C13.6934 123.378 14.3764 123.49 15.0634 123.484C15.6527 123.492 16.2393 123.405 16.8012 123.227C18.1082 122.685 19.3222 121.942 20.3993 121.024C22.2081 119.709 23.6777 117.982 24.6865 115.985C25.6952 113.989 26.2141 111.781 26.2002 109.545C26.277 107.963 26.1161 106.379 25.723 104.845C25.307 103.385 24.6671 101.998 23.826 100.733C22.2016 98.1037 19.6155 96.2114 16.6177 95.4586" stroke="#99B9AF" stroke-miterlimit="10"/>
<path d="M15.6264 165.217C17.7297 165.979 19.548 167.37 20.8351 169.2C22.1222 171.03 22.816 173.211 22.8225 175.448C22.8573 177.67 22.1765 179.844 20.8806 181.649C19.5848 183.454 17.7426 184.794 15.6264 185.471C15.3952 185.555 15.1499 185.592 14.9043 185.581C14.4153 185.578 13.9398 185.42 13.5462 185.13C13.1526 184.84 12.8611 184.432 12.7137 183.966C12.641 183.732 12.6039 183.489 12.6035 183.244C12.6015 182.748 12.7585 182.264 13.0514 181.863C13.3442 181.462 13.7577 181.165 14.2312 181.017C14.7814 180.839 15.3014 180.579 15.7732 180.246C16.5327 179.698 17.1509 178.977 17.5765 178.142C18.0021 177.308 18.223 176.385 18.2209 175.448C18.2207 174.8 18.1174 174.155 17.9149 173.539C17.715 172.923 17.4219 172.341 17.046 171.813C16.3321 170.808 15.3225 170.051 14.1578 169.647C12.9986 169.256 11.7433 169.256 10.5842 169.647C9.27151 170.079 8.03317 170.711 6.9127 171.52C5.10808 172.841 3.64251 174.572 2.63626 176.569C1.63 178.567 1.11174 180.775 1.12399 183.011C1.08364 184.525 1.27767 186.036 1.69919 187.491C2.16745 188.956 2.86112 190.339 3.75522 191.59C5.5053 194.038 8.65054 196.73 15.712 198.224M16.7768 194.552C15.0195 194.335 13.2916 193.925 11.6244 193.328C9.55258 192.601 7.75687 191.25 6.48436 189.461C5.14786 187.608 4.42852 185.382 4.42833 183.097C4.42756 181.425 4.82315 179.777 5.58262 178.288C6.34209 176.799 7.44382 175.511 8.7974 174.53C9.66414 173.909 10.6219 173.426 11.6367 173.098C11.8705 173.026 12.1139 172.989 12.3587 172.988C12.9166 172.988 13.4561 173.187 13.8798 173.55C14.3035 173.913 14.5835 174.415 14.6692 174.967C14.7549 175.518 14.6407 176.081 14.3472 176.556C14.0536 177.03 13.6001 177.384 13.0686 177.553C12.5005 177.737 11.967 178.014 11.4898 178.373C10.7303 178.921 10.1122 179.642 9.68653 180.476C9.2609 181.31 9.04002 182.234 9.04216 183.17C9.04396 183.819 9.14719 184.463 9.34812 185.08C9.54629 185.69 9.83507 186.268 10.2048 186.793C10.893 187.868 11.8797 188.718 13.0441 189.241C13.6934 189.465 14.3764 189.577 15.0634 189.571C15.6527 189.579 16.2393 189.492 16.8012 189.314C18.1082 188.772 19.3222 188.029 20.3993 187.111C22.2081 185.796 23.6777 184.068 24.6865 182.072C25.6952 180.076 26.2141 177.868 26.2002 175.632C26.277 174.05 26.1161 172.466 25.723 170.932C25.307 169.472 24.6671 168.084 23.826 166.82C22.2016 164.191 19.6155 162.298 16.6177 161.545" stroke="#99B9AF" stroke-miterlimit="10"/>
</svg>
