<?xml version="1.0" encoding="UTF-8"?>
<svg id="Layer_2" data-name="Layer 2" xmlns="http://www.w3.org/2000/svg" viewBox="0 0 65.38 61.04">
  <defs>
    <style>
      .cls-1 {
        fill: none;
        stroke: #1d1d1b;
        stroke-miterlimit: 10;
        stroke-width: .5px;
        opacty: 0.5,
      }
    </style>
  </defs>
  <g id="Layer_1-2" data-name="Layer 1" style="opacity:0.2">
    <g >
      <polygon class="cls-1" points="44.86 2.56 47.14 .68 42.59 .68 44.86 2.56"/>
      <polygon class="cls-1" points="2.97 42.61 .7 40.74 5.25 40.74 2.97 42.61"/>
      <polygon class="cls-1" points="19.99 56.56 22.26 54.69 17.71 54.69 19.99 56.56"/>
      <polygon class="cls-1" points="11.69 49.98 13.97 48.11 9.41 48.11 11.69 49.98"/>
      <polygon class="cls-1" points="2.97 18.69 .7 16.81 5.25 16.81 2.97 18.69"/>
      <polygon class="cls-1" points="44.86 53.35 47.14 51.48 42.59 51.48 44.86 53.35"/>
      <polygon class="cls-1" points="28.95 40.26 31.23 38.39 26.67 38.39 28.95 40.26"/>
      <polygon class="cls-1" points="20.41 33.06 22.69 31.19 18.14 31.19 20.41 33.06"/>
      <polygon class="cls-1" points="44.43 29.68 46.7 27.81 42.15 27.81 44.43 29.68"/>
      <polygon class="cls-1" points="28.03 15.65 30.31 13.78 25.75 13.78 28.03 15.65"/>
      <polygon class="cls-1" points="36.84 47.14 39.11 45.27 34.56 45.27 36.84 47.14"/>
      <polygon class="cls-1" points="11.69 26.05 13.97 24.18 9.41 24.18 11.69 26.05"/>
      <polygon class="cls-1" points="36.63 22.67 38.91 20.79 34.36 20.79 36.63 22.67"/>
      <polygon class="cls-1" points="19.99 8.7 22.26 6.83 17.71 6.83 19.99 8.7"/>
      <polygon class="cls-1" points="11.69 2.12 13.97 .25 9.41 .25 11.69 2.12"/>
      <polygon class="cls-1" points="53.69 9.92 51.42 8.05 55.97 8.05 53.69 9.92"/>
      <polygon class="cls-1" points="62.41 17.29 64.68 15.42 60.13 15.42 62.41 17.29"/>
      <polygon class="cls-1" points="53.69 60.72 51.42 58.85 55.97 58.85 53.69 60.72"/>
      <polygon class="cls-1" points="53.69 36.79 51.42 34.92 55.97 34.92 53.69 36.79"/>
      <polygon class="cls-1" points="62.41 44.15 64.68 42.28 60.13 42.28 62.41 44.15"/>
    </g>
    <polygon class="cls-1" points="22.41 36.9 35.71 36.9 29.06 42.37 23.17 37.53 22.41 36.9"/>
    <polygon class="cls-1" points="37.8 26.22 51.1 26.22 44.45 31.69 38.56 26.85 37.8 26.22"/>
    <polygon class="cls-1" points="13.42 5.37 26.72 5.37 20.07 10.83 14.18 5.99 13.42 5.37"/>
  </g>
</svg>