<?xml version="1.0" encoding="UTF-8"?><svg id="uuid-781b3870-a8bf-4577-8a2e-6a0440451a26" xmlns="http://www.w3.org/2000/svg" width="500" height="500" viewBox="0 0 500 500"><g id="uuid-39d41b9e-9824-4992-bb52-ff9d9977b119"><path id="uuid-5f2703da-b1dc-483a-91ca-f5e88784aa24" d="M500,250C500,111.93,388.07,0,250,0S0,111.93,0,250c0,117.24,80.72,215.62,189.61,242.64v-166.24h-51.55v-76.4h51.55v-32.92c0-85.09,38.51-124.53,122.05-124.53,15.84,0,43.17,3.11,54.35,6.21v69.25c-5.9-.62-16.15-.93-28.88-.93-40.99,0-56.83,15.53-56.83,55.9v27.02h81.66l-14.03,76.4h-67.63v171.77c123.79-14.95,219.71-120.35,219.71-248.17Z" style="fill:#0866ff;"/><path id="uuid-c9067055-71e7-4a2d-ae47-6b3590135f15" d="M347.92,326.4l14.03-76.4h-81.66v-27.02c0-40.37,15.84-55.9,56.83-55.9,12.73,0,22.98.31,28.88.93v-69.25c-11.18-3.11-38.51-6.21-54.35-6.21-83.54,0-122.05,39.44-122.05,124.53v32.92h-51.55v76.4h51.55v166.24c19.34,4.8,39.57,7.36,60.39,7.36,10.25,0,20.36-.63,30.29-1.83v-171.77h67.63Z" style="fill:#fff;"/></g></svg>
