<?xml version="1.0" encoding="UTF-8"?><svg id="uuid-cb837f54-410a-43f4-80fb-ad4fa8e82c4a" xmlns="http://www.w3.org/2000/svg" width="36" height="36" viewBox="0 0 36 36"><path d="M36,31c0,2.76-2.24,5-5,5H5c-2.76,0-5-2.24-5-5V5C0,2.24,2.24,0,5,0h26c2.76,0,5,2.24,5,5v26Z" style="fill:#0078d4;"/><path d="M24,31v-10.1c0-1.69-.82-2.7-2.19-2.7-.82,0-1.41.46-1.78,1.36-.02.06-.04.33-.03,1.11v10.32s-7,0-7,0V12h7v1.06c1.02-.7,2.27-1.06,3.74-1.06,4.55,0,7.26,3.09,7.26,8.27v10.73s-7,0-7,0ZM5,31V12h3.46c-2,0-3.46-1.47-3.46-3.5s1.48-3.5,3.51-3.5,3.44,1.43,3.49,3.48c0,2.04-1.48,3.52-3.52,3.52h3.52v19h-7Z" style="isolation:isolate; opacity:.05;"/><path d="M24.5,30.5v-9.6c0-1.97-1.03-3.2-2.69-3.2-1.3,0-1.93.91-2.24,1.68-.08.2-.07.99-.07,1.33v9.79s-6,0-6,0V12.5h6v1.64c.8-.82,2.08-1.64,4.24-1.64,4.23,0,6.76,2.91,6.76,7.77v10.23s-6,0-6,0ZM5.5,30.5V12.5h6v18h-6ZM8.46,11.5c-1.71,0-2.96-1.26-2.96-3s1.27-3,3.01-3,2.95,1.23,2.99,2.99c0,1.75-1.27,3.01-3.02,3.01h-.03Z" style="isolation:isolate; opacity:.07;"/><path d="M6,13h5v17h-5V13ZM8.48,11h-.03c-1.49,0-2.46-1.11-2.46-2.5s.99-2.5,2.51-2.5,2.46,1.08,2.49,2.5c0,1.39-.97,2.5-2.52,2.5ZM30,30h-5v-9.1c0-2.2-1.23-3.7-3.19-3.7-1.5,0-2.31,1.01-2.71,1.99-.14.35-.1,1.32-.1,1.81v9h-5V13h5v2.62c.72-1.12,1.85-2.62,4.74-2.62,3.58,0,6.26,2.25,6.26,7.27v9.73h0Z" style="fill:#fff;"/></svg>
