<?xml version="1.0" encoding="UTF-8"?><svg id="a" xmlns="http://www.w3.org/2000/svg" viewBox="0 0 108 108"><path d="m14.712,0h78.573c8.127,0,14.715,6.588,14.715,14.712v78.573c0,8.127-6.588,14.715-14.712,14.715H14.712c-8.124,0-14.712-6.588-14.712-14.712V14.712C0,6.588,6.588,0,14.712,0Z" style="fill:#212121; fill-rule:evenodd;"/><path d="m69.624,43.821c4.728,3.378,10.521,5.364,16.776,5.364v-12.033c-1.185,0-2.364-.123-3.522-.369v9.471c-6.255,0-12.045-1.989-16.776-5.364v24.552c0,12.282-9.963,22.239-22.251,22.239-4.584,0-8.847-1.386-12.387-3.762,4.041,4.128,9.675,6.69,15.909,6.69,12.288,0,22.251-9.957,22.251-22.239v-24.549h0Zm4.347-12.138c-2.415-2.637-4.002-6.048-4.347-9.819v-1.548h-3.339c.84,4.791,3.708,8.886,7.686,11.367h0Zm-34.734,42.813c-1.35-1.77-2.079-3.933-2.076-6.159,0-5.619,4.557-10.173,10.179-10.173,1.047,0,2.088.159,3.087.477v-12.3c-1.167-.159-2.343-.228-3.522-.204v9.573c-.999-.318-2.04-.477-3.09-.477-5.622,0-10.179,4.554-10.179,10.173.003,3.975,2.28,7.416,5.601,9.09Z" style="fill:#ec407a; fill-rule:evenodd;"/><path d="m66.102,40.89c4.728,3.378,10.521,5.364,16.776,5.364v-9.471c-3.492-.744-6.582-2.568-8.907-5.103-3.978-2.481-6.843-6.573-7.683-11.364h-8.769v48.054c-.021,5.601-4.569,10.137-10.179,10.137-3.306,0-6.243-1.575-8.103-4.014-3.321-1.674-5.598-5.115-5.598-9.087,0-5.619,4.557-10.173,10.179-10.173,1.077,0,2.115.168,3.09.477v-9.57c-12.072.249-21.78,10.107-21.78,22.233,0,6.054,2.418,11.541,6.342,15.549,3.54,2.376,7.803,3.762,12.387,3.762,12.288,0,22.251-9.957,22.251-22.239l-.006-24.555h0Z" style="fill:#fff; fill-rule:evenodd;"/><path d="m82.878,36.786v-2.562c-3.15.006-6.234-.876-8.907-2.544,2.364,2.589,5.478,4.374,8.907,5.106Zm-16.593-16.47c-.081-.459-.141-.918-.183-1.383v-1.548h-12.108v48.057c-.018,5.601-4.569,10.137-10.179,10.137-1.647,0-3.201-.39-4.578-1.086,1.86,2.439,4.797,4.014,8.103,4.014,5.61,0,10.158-4.536,10.179-10.137V20.316h8.766Zm-19.38,25.824v-2.727c-1.011-.138-2.031-.207-3.054-.207-12.291,0-22.251,9.957-22.251,22.239,0,7.701,3.915,14.487,9.864,18.477-3.924-4.008-6.342-9.495-6.342-15.549,0-12.126,9.711-21.984,21.783-22.233Z" style="fill:#81d4fa; fill-rule:evenodd;"/></svg>
