<svg id="Layer_2" data-name="Layer 2" xmlns="http://www.w3.org/2000/svg" viewBox="0 0 23.37 7.659"><title>youku2</title><path d="M5.193,8.251a.734.734,0,0,0-1.075.463L2.944,11.5,1.825,8.7A.782.782,0,0,0,.759,8.256c-.623.208-.42.846-.385.966L2.13,13.241l-.689,1.507a.688.688,0,0,0,.358,1c.615.24.9-.112,1.1-.523l2.679-6.01A.682.682,0,0,0,5.193,8.251Z" transform="translate(-0.315 -8.171)"/><path d="M7.617,8.67a2.428,2.428,0,0,0-2.45,2.4,2.333,2.333,0,0,0,2.45,2.4,2.27,2.27,0,0,0,2.45-2.4A2.428,2.428,0,0,0,7.617,8.67Zm0,3.724a1.2,1.2,0,0,1-1.093-1.281A1.2,1.2,0,0,1,7.617,9.831a1.2,1.2,0,0,1,1.092,1.282A1.2,1.2,0,0,1,7.617,12.394Z" transform="translate(-0.315 -8.171)"/><path d="M13.928,8.805c-.419.028-.633.273-.661.727v2.23a.822.822,0,0,1-.872.815c-.787.019-.894-.542-.893-.743l0-2.237c-.018-.448-.223-.672-.628-.69a.692.692,0,0,0-.693.735l0,2.223c.008.279-.034,1.714,2.21,1.683A1.981,1.981,0,0,0,14.6,11.721L14.6,9.483A.62.62,0,0,0,13.928,8.805Z" transform="translate(-0.315 -8.171)"/><path d="M23.013,8.84a.641.641,0,0,0-.664.705v2.227a.821.821,0,0,1-.879.777.809.809,0,0,1-.88-.777l0-2.227c-.023-.448-.23-.691-.641-.706-.456,0-.664.26-.688.708v2.228c.048,1.12.782,1.708,2.21,1.731,1.436-.023,2.156-.61,2.218-1.734V9.545A.65.65,0,0,0,23.013,8.84Z" transform="translate(-0.315 -8.171)"/><path d="M17.661,11.109l1.186-1.032s.586-.557.072-1.046a.768.768,0,0,0-1.031.006l-1.729,1.634-.01-1.183a.618.618,0,0,0-.7-.652.612.612,0,0,0-.7.651v3.395c.024.4.263.589.7.589.457,0,.686-.208.7-.587V11.622s1.825,1.542,1.924,1.627a.816.816,0,0,0,1.016-.015.714.714,0,0,0-.111-1Z" transform="translate(-0.315 -8.171)"/></svg>