<?xml version="1.0" encoding="UTF-8"?><svg id="uuid-f98f9241-9e79-4974-adef-c33cd400515a" xmlns="http://www.w3.org/2000/svg" width="40.1" height="30" viewBox="0 0 40.1 30"><path d="M39.2,24.9c-.4,2.1-2.1,3.7-4.2,4-3.3.5-8.8,1.1-15,1.1s-11.6-.6-15-1.1c-2.1-.3-3.8-1.9-4.2-4-.4-2.3-.8-5.7-.8-9.9S.4,7.4.8,5.1C1.2,3,2.9,1.4,5,1.1c3.3-.5,8.8-1.1,15-1.1s11.6.6,15,1.1c2.1.3,3.8,1.9,4.2,4,.4,2.3.9,5.7.9,9.9-.1,4.2-.5,7.6-.9,9.9Z" style="fill:#ff3d00;"/><path d="M16,22v-14l12,7-12,7Z" style="fill:#fff;"/></svg>
